<!-- Generated by IcoMoon.io -->
<svg version="1.1" xmlns="http://www.w3.org/2000/svg" width="64" height="64" viewBox="0 0 64 64">
<title></title>
<g id="icomoon-ignore">
</g>
<path fill="#000" d="M32 36.23l-20.23-19.657c-1.255-1.22-3.294-1.22-4.549 0 0 0-1.913 1.859-1.913 1.859-1.269 1.233-1.269 3.235 0 4.468 0 0 26.57 25.818 26.57 25.818l0.122-0.118c0 0 0.12 0.12 0.12 0.12l26.572-25.82c1.269-1.233 1.269-3.235 0-4.468 0 0-2.363-2.297-2.363-2.297-1.007-0.978-2.642-0.978-3.649 0l-20.68 20.095z"></path>
</svg>
