<!-- Generated by IcoMoon.io -->
<svg version="1.1" xmlns="http://www.w3.org/2000/svg" width="64" height="64" viewBox="0 0 64 64">
<title></title>
<g id="icomoon-ignore">
</g>
<path fill="#000" d="M32.032 50.518c-4.79-2.886-8.032-8.409-8.032-14.742 0-9.314 7.011-16.876 15.648-16.876 8.636 0 15.647 7.562 15.647 16.876s-7.011 16.875-15.647 16.875c-0.924 0-1.828-0.086-2.709-0.252l-0.191 10.501-4.943-0.144 0.227-12.238zM6.057 26.78c-0.001-0.001 0.023 14.969 0.023 14.969-0.866 0.414-1.706 0.922-2.43 1.563-4.358 3.853-4.35 10.108 0.019 13.972 0.971 0.858 2.137 1.495 3.319 1.965l1.369-0.931-0.011-7.239c-0.001-0.885 0.89-1.557 1.892-1.556 0 0 2.771 0.003 2.771 0.003 0.536 0.001 1.068 0.166 1.418 0.476 0.306 0.27 0.483 0.677 0.484 1.091 0 0 0.011 7.016 0.011 7.016l1.416 0.908c0.975-0.446 1.946-0.994 2.763-1.716 4.357-3.853 4.35-10.108-0.019-13.972-0.727-0.643-1.569-1.153-2.438-1.57l-0.023-14.969c0.866-0.414 1.706-0.923 2.43-1.563 4.358-3.853 4.35-10.108-0.019-13.972-0.895-0.791-1.965-1.383-3.043-1.844l-1.393 0.921 0.010 6.793c0.002 0.875-0.84 1.502-1.829 1.501 0 0-2.897-0.003-2.897-0.003-0.992-0.002-1.837-0.634-1.839-1.511 0 0-0.010-6.794-0.010-6.794l-1.392-0.918c-1.078 0.459-2.146 1.048-3.039 1.838-4.357 3.853-4.35 10.108 0.019 13.972 0.727 0.642 1.569 1.153 2.438 1.57zM50.271 51.811l-0.523-0.46-5.453 3.436 0.662 1.988 5.986-1.196c1.277 1.246 2.819 1.484 3.871 0.785-0.004 0.002 7.388-4.581 7.388-4.581 0.786-0.485 1.326-1.441 1.398-2.711 0.046-0.806-0.219-1.238-0.491-1.487-0.236-0.215-0.539-0.342-0.917-0.337-0.336 0.004-0.81 0.167-1.33 0.351-0.245 0.086-0.508 0.175-0.77 0.205-0.142 0.017-0.286 0.022-0.415-0.049-1.014-0.553-2.017-0.529-2.787-0.049l-6.619 4.105z"></path>
</svg>
