<!-- Generated by IcoMoon.io -->
<svg version="1.1" xmlns="http://www.w3.org/2000/svg" width="64" height="64" viewBox="0 0 64 64">
<title></title>
<g id="icomoon-ignore">
</g>
<path fill="#000" d="M32 62.5c-16.833 0-30.5-13.667-30.5-30.5s13.667-30.5 30.5-30.5v9.611c-0.352-0.073-0.717-0.111-1.090-0.111-2.99 0-5.42 2.43-5.42 5.41 0 2.99 2.43 5.42 5.42 5.42 0.373 0 0.738-0.038 1.090-0.111v5.111l-7.44 0.18 2.82 1.23v22.7l-2.82 2.060h7.44v9.5zM32 11.111v-9.611c16.833 0 30.5 13.667 30.5 30.5s-13.667 30.5-30.5 30.5v-9.5h9.46l-5.76-2.060v-24.2l-3.7 0.090v-5.111c2.46-0.506 4.32-2.693 4.32-5.309 0-2.607-1.86-4.793-4.32-5.299z"></path>
</svg>
