<!-- Generated by IcoMoon.io -->
<svg version="1.1" xmlns="http://www.w3.org/2000/svg" width="64" height="64" viewBox="0 0 64 64">
<title></title>
<g id="icomoon-ignore">
</g>
<path fill="#000" d="M19.144 57.582c0-2.301-1.868-4.169-4.169-4.169 0 0-7.557 0-7.557 0-2.3 0-4.168 1.868-4.168 4.169s1.868 4.168 4.168 4.168c0 0 7.557 0 7.557 0 2.301 0 4.169-1.868 4.169-4.168zM60.75 57.582c0-2.301-1.868-4.169-4.168-4.169 0 0-29.147 0-29.147 0-2.301 0-4.169 1.868-4.169 4.169s1.868 4.168 4.169 4.168c0 0 29.147 0 29.147 0 2.3 0 4.168-1.868 4.168-4.168zM19.144 45.617c0-2.301-1.868-4.169-4.169-4.169h-7.557c-2.3 0-4.168 1.868-4.168 4.169s1.868 4.168 4.168 4.168h7.557c2.301 0 4.169-1.867 4.169-4.168zM60.75 45.617c0-2.301-1.868-4.169-4.168-4.169h-29.147c-2.301 0-4.169 1.868-4.169 4.169s1.868 4.168 4.169 4.168h29.147c2.3 0 4.168-1.867 4.168-4.168zM19.144 33.652c0-2.3-1.868-4.168-4.169-4.168 0 0-7.557 0-7.557 0-2.3 0-4.168 1.868-4.168 4.168 0 2.301 1.868 4.169 4.168 4.169 0 0 7.557 0 7.557 0 2.301 0 4.169-1.868 4.169-4.169zM60.75 33.652c0-2.3-1.868-4.168-4.168-4.168 0 0-29.147 0-29.147 0-2.301 0-4.169 1.868-4.169 4.168 0 2.301 1.868 4.169 4.169 4.169 0 0 29.147 0 29.147 0 2.3 0 4.168-1.868 4.168-4.169zM19.144 21.688c0-2.301-1.868-4.169-4.169-4.169 0 0-7.557 0-7.557 0-2.3 0-4.168 1.868-4.168 4.169 0 2.3 1.868 4.168 4.168 4.168 0 0 7.557 0 7.557 0 2.301 0 4.169-1.868 4.169-4.168zM48.088 15.692l4.859 4.858c1.614 1.614 4.234 1.614 5.848 0 1.613-1.613 1.613-4.234 0-5.847 0 0-7.711-7.711-7.711-7.711-0.825-0.825-1.914-1.228-2.996-1.21-1.082-0.018-2.17 0.385-2.995 1.21 0 0-7.711 7.711-7.711 7.711-1.614 1.613-1.614 4.234 0 5.847s4.234 1.614 5.847 0l4.859-4.858z"></path>
</svg>
