<?xml version="1.0" encoding="UTF-8" standalone="no"?>
<!DOCTYPE svg PUBLIC "-//W3C//DTD SVG 1.1//EN" "http://www.w3.org/Graphics/SVG/1.1/DTD/svg11.dtd">
<svg width="100%" height="100%" viewBox="0 0 64 64" version="1.1" xmlns="http://www.w3.org/2000/svg" xmlns:xlink="http://www.w3.org/1999/xlink" xml:space="preserve" xmlns:serif="http://www.serif.com/" style="fill-rule:evenodd;clip-rule:evenodd;stroke-linejoin:round;stroke-miterlimit:2;">
    <path d="M60,14.973L60,53.738L4,53.738L4,14.973L7,14.451L7,50.167C10.141,49.887 15.021,49.5 18,49.5C18.95,49.5 20.094,49.539 21.312,49.602C22.274,49.638 23.326,49.708 24.371,49.793C27.049,49.984 29.634,50.221 31,50.352L31,14.451C31,14.451 24.39,13 21.037,13C17.037,13 7,14.451 7,14.451L4,14.973C2.23,15.791 1,17.583 1,19.66L1,52.34C1,55.188 3.312,57.5 6.16,57.5L57.84,57.5C60.688,57.5 63,55.188 63,52.34L63,19.66C63,17.583 61.77,15.792 60.001,14.973L57,14.451C57,14.451 46.963,13 42.963,13C39.61,13 33,14.451 33,14.451L33,50.352C34.365,50.221 36.951,49.984 39.629,49.793C40.674,49.708 41.726,49.638 42.688,49.602C43.906,49.539 45.05,49.5 46,49.5C48.979,49.5 53.859,49.887 57,50.167L57,14.451L60,14.973ZM28.5,42.5C28.5,41.396 27.604,40.5 26.5,40.5L12.5,40.5C11.396,40.5 10.5,41.396 10.5,42.5C10.5,43.604 11.396,44.5 12.5,44.5L26.5,44.5C27.604,44.5 28.5,43.604 28.5,42.5ZM53.5,42.5C53.5,41.396 52.604,40.5 51.5,40.5L37.5,40.5C36.396,40.5 35.5,41.396 35.5,42.5C35.5,43.604 36.396,44.5 37.5,44.5L51.5,44.5C52.604,44.5 53.5,43.604 53.5,42.5ZM28.5,35.5C28.5,34.396 27.604,33.5 26.5,33.5L12.5,33.5C11.396,33.5 10.5,34.396 10.5,35.5C10.5,36.604 11.396,37.5 12.5,37.5L26.5,37.5C27.604,37.5 28.5,36.604 28.5,35.5ZM53.5,35.5C53.5,34.396 52.604,33.5 51.5,33.5L37.5,33.5C36.396,33.5 35.5,34.396 35.5,35.5C35.5,36.604 36.396,37.5 37.5,37.5L51.5,37.5C52.604,37.5 53.5,36.604 53.5,35.5ZM28.5,28.5C28.5,27.396 27.604,26.5 26.5,26.5L12.5,26.5C11.396,26.5 10.5,27.396 10.5,28.5C10.5,29.604 11.396,30.5 12.5,30.5L26.5,30.5C27.604,30.5 28.5,29.604 28.5,28.5ZM53.5,28.5C53.5,27.396 52.604,26.5 51.5,26.5L37.5,26.5C36.396,26.5 35.5,27.396 35.5,28.5C35.5,29.604 36.396,30.5 37.5,30.5L51.5,30.5C52.604,30.5 53.5,29.604 53.5,28.5ZM28.5,21.5C28.5,20.396 27.604,19.5 26.5,19.5L12.5,19.5C11.396,19.5 10.5,20.396 10.5,21.5C10.5,22.604 11.396,23.5 12.5,23.5L26.5,23.5C27.604,23.5 28.5,22.604 28.5,21.5ZM53.5,21.5C53.5,20.396 52.604,19.5 51.5,19.5L37.5,19.5C36.396,19.5 35.5,20.396 35.5,21.5C35.5,22.604 36.396,23.5 37.5,23.5L51.5,23.5C52.604,23.5 53.5,22.604 53.5,21.5Z"/>
</svg>
