<?xml version="1.0" encoding="UTF-8" standalone="no"?>
<!DOCTYPE svg PUBLIC "-//W3C//DTD SVG 1.1//EN" "http://www.w3.org/Graphics/SVG/1.1/DTD/svg11.dtd">
<svg width="100%" height="100%" viewBox="0 0 64 64" version="1.1" xmlns="http://www.w3.org/2000/svg" xmlns:xlink="http://www.w3.org/1999/xlink" xml:space="preserve" xmlns:serif="http://www.serif.com/" style="fill-rule:evenodd;clip-rule:evenodd;stroke-linejoin:round;stroke-miterlimit:2;">
    <path d="M32.032,50.518C27.242,47.632 24,42.109 24,35.776C24,26.462 31.011,18.9 39.648,18.9C48.284,18.9 55.295,26.462 55.295,35.776C55.295,45.089 48.284,52.651 39.648,52.651C38.724,52.651 37.82,52.565 36.939,52.399L36.748,62.9L31.805,62.756L32.032,50.518ZM6.057,26.78C6.056,26.779 6.08,41.749 6.08,41.749C5.214,42.163 4.374,42.671 3.65,43.312C-0.708,47.165 -0.7,53.42 3.669,57.284C4.64,58.142 5.806,58.779 6.988,59.249L8.357,58.318L8.346,51.079C8.345,50.194 9.236,49.522 10.238,49.523C10.238,49.523 13.009,49.526 13.009,49.526C13.545,49.527 14.077,49.692 14.427,50.002C14.733,50.272 14.91,50.679 14.911,51.093C14.911,51.093 14.922,58.109 14.922,58.109L16.338,59.017C17.313,58.571 18.284,58.023 19.101,57.301C23.458,53.448 23.451,47.193 19.082,43.329C18.355,42.686 17.513,42.176 16.644,41.759L16.621,26.79C17.487,26.376 18.327,25.867 19.051,25.227C23.409,21.374 23.401,15.119 19.032,11.255C18.137,10.464 17.067,9.872 15.989,9.411L14.596,10.332L14.606,17.125C14.608,18 13.766,18.627 12.777,18.626C12.777,18.626 9.88,18.623 9.88,18.623C8.888,18.621 8.043,17.989 8.041,17.112C8.041,17.112 8.031,10.318 8.031,10.318L6.639,9.4C5.561,9.859 4.493,10.448 3.6,11.238C-0.757,15.091 -0.75,21.346 3.619,25.21C4.346,25.852 5.188,26.363 6.057,26.78ZM50.271,51.811L49.748,51.351L44.295,54.787L44.957,56.775L50.943,55.579C52.22,56.825 53.762,57.063 54.814,56.364C54.81,56.366 62.202,51.783 62.202,51.783C62.988,51.298 63.528,50.342 63.6,49.072C63.646,48.266 63.381,47.834 63.109,47.585C62.873,47.37 62.57,47.243 62.192,47.248C61.856,47.252 61.382,47.415 60.862,47.599C60.617,47.685 60.354,47.774 60.092,47.804C59.95,47.821 59.806,47.826 59.677,47.755C58.663,47.202 57.66,47.226 56.89,47.706L50.271,51.811Z" style="fill-rule:nonzero;"/>
</svg>
