<?xml version="1.0" encoding="UTF-8" standalone="no"?>
<!DOCTYPE svg PUBLIC "-//W3C//DTD SVG 1.1//EN" "http://www.w3.org/Graphics/SVG/1.1/DTD/svg11.dtd">
<svg width="100%" height="100%" viewBox="0 0 64 64" version="1.1" xmlns="http://www.w3.org/2000/svg" xmlns:xlink="http://www.w3.org/1999/xlink" xml:space="preserve" xmlns:serif="http://www.serif.com/" style="fill-rule:evenodd;clip-rule:evenodd;stroke-linejoin:round;stroke-miterlimit:2;">
    <path d="M32,62.5C15.167,62.5 1.5,48.833 1.5,32C1.5,15.167 15.167,1.5 32,1.5L32,11.111C31.648,11.038 31.283,11 30.91,11C27.92,11 25.49,13.43 25.49,16.41C25.49,19.4 27.92,21.83 30.91,21.83C31.283,21.83 31.648,21.792 32,21.719L32,26.83L24.56,27.01L27.38,28.24L27.38,50.94L24.56,53L32,53L32,62.5ZM32,11.111L32,1.5C48.833,1.5 62.5,15.167 62.5,32C62.5,48.833 48.833,62.5 32,62.5L32,53L41.46,53L35.7,50.94L35.7,26.74L32,26.83L32,21.719C34.46,21.213 36.32,19.026 36.32,16.41C36.32,13.803 34.46,11.617 32,11.111Z"/>
</svg>
