<?xml version="1.0" encoding="UTF-8" standalone="no"?>
<!DOCTYPE svg PUBLIC "-//W3C//DTD SVG 1.1//EN" "http://www.w3.org/Graphics/SVG/1.1/DTD/svg11.dtd">
<svg width="100%" height="100%" viewBox="0 0 128 128" version="1.1" xmlns="http://www.w3.org/2000/svg" xmlns:xlink="http://www.w3.org/1999/xlink" xml:space="preserve" xmlns:serif="http://www.serif.com/" style="fill-rule:evenodd;clip-rule:evenodd;stroke-linejoin:round;stroke-miterlimit:2;">
    <path d="M87.8,55.714L96.288,55.714C102.2,55.714 107,60.467 107,66.32L107,111.394C107,117.248 102.2,122 96.288,122L11.712,122C5.8,122 1,117.248 1,111.394L1,66.32C1,60.467 5.8,55.714 11.712,55.714L31.5,55.714L54,77.541C55.413,78.915 58.32,79.674 60.3,79.65C62.28,79.627 65.121,78.822 66.5,77.414L87.8,55.714ZM93.982,6.385C76.101,3.303 44.4,18.916 49.061,45.91L33.544,45.91L60.671,72.286L86.518,45.91L72.108,45.91C67.275,21.748 87.952,10.789 93.982,6.385Z"/>
</svg>
