<?xml version="1.0" encoding="UTF-8" standalone="no"?>
<!DOCTYPE svg PUBLIC "-//W3C//DTD SVG 1.1//EN" "http://www.w3.org/Graphics/SVG/1.1/DTD/svg11.dtd">
<svg width="100%" height="100%" viewBox="0 0 64 64" version="1.1" xmlns="http://www.w3.org/2000/svg" xmlns:xlink="http://www.w3.org/1999/xlink" xml:space="preserve" xmlns:serif="http://www.serif.com/" style="fill-rule:evenodd;clip-rule:evenodd;stroke-linejoin:round;stroke-miterlimit:2;">
    <path d="M57.688,15.489C57.688,10.372 53.534,6.219 48.417,6.219L15.458,6.219C10.341,6.219 6.188,10.372 6.188,15.489L6.188,48.449C6.188,53.565 10.341,57.719 15.458,57.719L48.417,57.719C53.534,57.719 57.688,53.565 57.688,48.449L57.688,15.489Z" style="fill:rgb(255,255,0);"/>
    <path d="M6.189,16.844C6.188,16.924 6.188,17.004 6.188,17.085L6.188,21.844L57.688,21.844L57.688,17.085C57.688,17.004 57.687,16.924 57.686,16.844L6.189,16.844Z" style="fill:rgb(152,148,148);"/>
    <path d="M6.189,15.344L6.188,16.844L57.688,16.844L57.686,15.344C57.608,10.294 53.485,6.219 48.417,6.219L15.458,6.219C10.39,6.219 6.267,10.294 6.189,15.344Z" style="fill:rgb(255,143,255);"/>
    <path d="M55.938,32.351C55.938,29.38 54.241,26.969 52.152,26.969L11.723,26.969C9.634,26.969 7.938,29.38 7.938,32.351L7.938,48.387C7.938,51.357 9.634,53.769 11.723,53.769L52.152,53.769C54.241,53.769 55.938,51.357 55.938,48.387L55.938,32.351Z" style="fill:rgb(24,23,21);"/>
    <rect x="8.516" y="29.869" width="46.743" height="21.5" style="fill:rgb(13,13,13);"/>
    <path d="M31.329,41.442L31.754,40.442L32.604,40.442L33.029,41.442L32.604,42.442L31.754,42.442L31.329,41.442Z" style="fill:rgb(64,64,64);"/>
    <path d="M31.329,35.988L31.754,34.988L32.604,34.988L33.029,35.988L32.604,36.988L31.754,36.988L31.329,35.988Z" style="fill:rgb(64,64,64);"/>
    <path d="M17.833,43.315L17.833,40.444L18.633,39.296L19.033,39.296L19.833,40.444L19.833,43.315L19.033,44.463L18.633,44.463L17.833,43.315Z" style="fill:rgb(64,64,64);"/>
    <path d="M17.833,36.857L17.833,33.986L18.633,32.838L19.033,32.838L19.833,33.986L19.833,36.857L19.033,38.005L18.633,38.005L17.833,36.857Z" style="fill:rgb(64,64,64);"/>
    <path d="M13.927,46.398C13.953,46.416 14.025,46.43 14.025,46.43L16.895,46.43C16.93,46.43 16.964,46.419 16.993,46.398L18.141,45.579C18.199,45.538 18.234,45.465 18.234,45.385L18.234,44.976C18.234,44.896 18.199,44.822 18.141,44.781L16.993,43.963C16.964,43.941 16.93,43.93 16.895,43.93L14.025,43.93C13.99,43.93 13.956,43.941 13.927,43.963L12.779,44.781C12.721,44.822 12.686,44.896 12.686,44.976L12.686,45.385C12.686,45.465 12.721,45.538 12.779,45.579L13.927,46.398Z" style="fill:rgb(0,255,0);"/>
    <path d="M13.927,39.866L14.025,39.899L16.895,39.899C16.93,39.899 16.964,39.888 16.993,39.866L18.141,39.048C18.199,39.007 18.234,38.933 18.234,38.853L18.234,38.444C18.234,38.364 18.199,38.291 18.141,38.25L16.993,37.431C16.964,37.41 16.93,37.399 16.895,37.399L14.025,37.399C13.99,37.399 13.956,37.41 13.927,37.431L12.779,38.25C12.721,38.291 12.686,38.364 12.686,38.444L12.686,38.853C12.686,38.933 12.721,39.007 12.779,39.048L13.927,39.866Z" style="fill:rgb(0,255,0);"/>
    <path d="M13.927,33.338L14.025,33.371L16.895,33.371C16.93,33.371 16.964,33.36 16.993,33.338L18.141,32.52C18.199,32.479 18.234,32.405 18.234,32.325L18.234,31.916C18.234,31.836 18.199,31.763 18.141,31.722L16.993,30.903C16.964,30.882 16.93,30.871 16.895,30.871L14.025,30.871C13.99,30.871 13.956,30.882 13.927,30.903L12.779,31.722C12.721,31.763 12.686,31.836 12.686,31.916L12.686,32.325C12.686,32.405 12.721,32.479 12.779,32.52L13.927,33.338Z" style="fill:rgb(0,255,0);"/>
    <path d="M13.304,43.413C13.325,43.384 13.338,43.349 13.337,43.313L13.337,40.443C13.338,40.408 13.326,40.374 13.305,40.344L12.487,39.196C12.446,39.139 12.372,39.104 12.292,39.104L11.883,39.104C11.803,39.104 11.729,39.139 11.688,39.196L10.87,40.344C10.849,40.374 10.838,40.408 10.837,40.443L10.837,43.313C10.838,43.347 10.849,43.381 10.87,43.411L11.688,44.559C11.729,44.617 11.803,44.652 11.883,44.652L12.292,44.652C12.372,44.652 12.446,44.617 12.487,44.559L13.304,43.413Z" style="fill:rgb(0,255,0);"/>
    <path d="M13.304,36.955C13.325,36.926 13.338,36.891 13.337,36.855L13.337,33.985C13.338,33.95 13.326,33.916 13.305,33.886L12.487,32.738C12.446,32.681 12.372,32.646 12.292,32.646L11.883,32.646C11.803,32.646 11.729,32.681 11.688,32.738L10.87,33.886C10.849,33.916 10.838,33.95 10.837,33.985L10.837,36.855C10.838,36.889 10.849,36.923 10.87,36.953L11.688,38.101C11.729,38.159 11.803,38.194 11.883,38.194L12.292,38.194C12.372,38.194 12.446,38.159 12.487,38.101L13.304,36.955Z" style="fill:rgb(0,255,0);"/>
    <path d="M28.333,43.313L28.333,40.443L29.133,39.295L29.533,39.295L30.333,40.443L30.333,43.313L29.533,44.461L29.133,44.461L28.333,43.313Z" style="fill:rgb(64,64,64);"/>
    <path d="M30.549,36.955C30.57,36.926 30.583,36.891 30.583,36.855L30.583,33.985C30.583,33.95 30.571,33.916 30.55,33.886L29.732,32.738C29.691,32.681 29.617,32.646 29.537,32.646L29.128,32.646C29.048,32.646 28.974,32.681 28.933,32.738L28.115,33.886C28.094,33.916 28.083,33.95 28.083,33.985L28.083,36.855C28.083,36.889 28.094,36.923 28.115,36.953L28.933,38.101C28.974,38.159 29.048,38.194 29.128,38.194L29.537,38.194C29.617,38.194 29.691,38.159 29.732,38.101L30.549,36.955Z" style="fill:rgb(0,255,0);"/>
    <path d="M27.398,43.93C27.432,43.931 27.465,43.942 27.493,43.963L28.641,44.781C28.699,44.822 28.734,44.896 28.734,44.976L28.734,45.385C28.734,45.465 28.699,45.538 28.641,45.579L27.493,46.398C27.464,46.419 27.43,46.43 27.395,46.43L24.525,46.43C24.49,46.43 24.456,46.419 24.427,46.398L23.279,45.579C23.221,45.538 23.186,45.465 23.186,45.385L23.186,44.976C23.186,44.896 23.221,44.822 23.279,44.781L24.427,43.963C24.456,43.941 24.49,43.93 24.525,43.93L27.398,43.93Z" style="fill:rgb(0,255,0);"/>
    <path d="M24.427,39.866C24.453,39.885 24.525,39.899 24.525,39.899L27.395,39.899C27.43,39.899 27.464,39.888 27.493,39.866L28.641,39.048C28.699,39.007 28.734,38.933 28.734,38.853L28.734,38.444C28.734,38.364 28.699,38.291 28.641,38.25L27.493,37.431C27.464,37.41 27.43,37.399 27.395,37.399L24.525,37.399C24.49,37.399 24.456,37.41 24.427,37.431L23.279,38.25C23.221,38.291 23.186,38.364 23.186,38.444L23.186,38.853C23.186,38.933 23.221,39.007 23.279,39.048L24.427,39.866Z" style="fill:rgb(0,255,0);"/>
    <path d="M24.425,33.337L23.279,32.52C23.221,32.479 23.186,32.405 23.186,32.325L23.186,31.916C23.186,31.836 23.221,31.763 23.279,31.722L24.427,30.903C24.456,30.882 24.49,30.871 24.525,30.871L27.395,30.871C27.43,30.871 27.464,30.882 27.493,30.903L28.641,31.722C28.699,31.763 28.734,31.836 28.734,31.916L28.734,32.325C28.734,32.405 28.699,32.479 28.641,32.52L27.493,33.338C27.464,33.36 27.43,33.371 27.395,33.371L24.525,33.371L24.425,33.337Z" style="fill:rgb(0,255,0);"/>
    <path d="M21.338,43.313C21.338,43.347 21.349,43.381 21.37,43.411L22.188,44.559C22.229,44.617 22.303,44.652 22.383,44.652L22.792,44.652C22.872,44.652 22.946,44.617 22.987,44.559L23.805,43.411L23.837,43.313L23.837,40.443C23.837,40.408 23.826,40.374 23.805,40.344L22.987,39.196C22.946,39.139 22.872,39.104 22.792,39.104L22.383,39.104C22.303,39.104 22.229,39.139 22.188,39.196L21.37,40.344C21.349,40.374 21.338,40.408 21.337,40.443L21.338,43.313Z" style="fill:rgb(0,255,0);"/>
    <path d="M21.587,36.855L21.587,33.985L22.388,32.836L22.788,32.836L23.587,33.985L23.587,36.855L22.788,38.003L22.388,38.003L21.587,36.855Z" style="fill:rgb(64,64,64);"/>
    <path d="M40.583,43.25C40.583,43.285 40.594,43.319 40.615,43.349L41.433,44.497C41.474,44.554 41.548,44.589 41.628,44.589L42.037,44.589C42.117,44.589 42.191,44.554 42.232,44.497L43.05,43.349L43.083,43.25L43.083,40.38C43.083,40.346 43.071,40.312 43.05,40.282L42.232,39.134C42.191,39.076 42.117,39.041 42.037,39.041L41.628,39.041C41.548,39.041 41.474,39.076 41.433,39.134L40.615,40.282C40.594,40.312 40.583,40.346 40.583,40.38L40.583,43.25Z" style="fill:rgb(0,255,0);"/>
    <path d="M40.833,36.857L40.833,33.986L41.633,32.838L42.033,32.838L42.833,33.986L42.833,36.857L42.033,38.005L41.633,38.005L40.833,36.857Z" style="fill:rgb(64,64,64);"/>
    <path d="M36.927,46.398C36.953,46.416 37.025,46.43 37.025,46.43L39.895,46.43C39.93,46.43 39.964,46.419 39.993,46.398L41.141,45.579C41.199,45.538 41.234,45.465 41.234,45.385L41.234,44.976C41.234,44.896 41.199,44.822 41.141,44.781L39.993,43.963C39.964,43.941 39.93,43.93 39.895,43.93L37.025,43.93C36.99,43.93 36.956,43.941 36.927,43.963L35.779,44.781C35.721,44.822 35.686,44.896 35.686,44.976L35.686,45.385C35.686,45.465 35.721,45.538 35.779,45.579L36.927,46.398Z" style="fill:rgb(0,255,0);"/>
    <path d="M36.927,39.866L37.025,39.899L39.895,39.899C39.93,39.899 39.964,39.888 39.993,39.866L41.141,39.048C41.199,39.007 41.234,38.933 41.234,38.853L41.234,38.444C41.234,38.364 41.199,38.291 41.141,38.25L39.993,37.431C39.964,37.41 39.93,37.399 39.895,37.399L37.025,37.399C36.99,37.399 36.956,37.41 36.927,37.431L35.779,38.25C35.721,38.291 35.686,38.364 35.686,38.444L35.686,38.853C35.686,38.933 35.721,39.007 35.779,39.048L36.927,39.866Z" style="fill:rgb(0,255,0);"/>
    <path d="M36.927,33.338L37.025,33.371L39.895,33.371C39.93,33.371 39.964,33.36 39.993,33.338L41.141,32.52C41.199,32.479 41.234,32.405 41.234,32.325L41.234,31.916C41.234,31.836 41.199,31.763 41.141,31.722L39.993,30.903C39.964,30.882 39.93,30.871 39.895,30.871L37.025,30.871C36.99,30.871 36.956,30.882 36.927,30.903L35.779,31.722C35.721,31.763 35.686,31.836 35.686,31.916L35.686,32.325C35.686,32.405 35.721,32.479 35.779,32.52L36.927,33.338Z" style="fill:rgb(0,255,0);"/>
    <path d="M34.087,43.315L34.087,40.444L34.888,39.296L35.288,39.296L36.087,40.444L36.087,43.315L35.288,44.463L34.888,44.463L34.087,43.315Z" style="fill:rgb(64,64,64);"/>
    <path d="M36.304,36.955C36.325,36.926 36.338,36.891 36.337,36.855L36.337,33.985C36.338,33.95 36.326,33.916 36.305,33.886L35.487,32.738C35.446,32.681 35.372,32.646 35.292,32.646L34.883,32.646C34.803,32.646 34.729,32.681 34.688,32.738L33.87,33.886C33.849,33.916 33.838,33.95 33.837,33.985L33.837,36.855C33.838,36.889 33.849,36.923 33.87,36.953L34.688,38.101C34.729,38.159 34.803,38.194 34.883,38.194L35.292,38.194C35.372,38.194 35.446,38.159 35.487,38.101L36.304,36.955Z" style="fill:rgb(0,255,0);"/>
    <path d="M52.233,43.315L52.233,40.444L53.033,39.296L53.433,39.296L54.233,40.444L54.233,43.315L53.433,44.463L53.033,44.463L52.233,43.315Z" style="fill:rgb(64,64,64);"/>
    <path d="M52.233,36.857L52.233,33.986L53.033,32.838L53.433,32.838L54.233,33.986L54.233,36.857L53.433,38.005L53.033,38.005L52.233,36.857Z" style="fill:rgb(64,64,64);"/>
    <path d="M48.327,46.4C48.353,46.418 48.425,46.432 48.425,46.432L51.295,46.432C51.33,46.432 51.364,46.421 51.393,46.4L52.541,45.581C52.599,45.54 52.634,45.466 52.634,45.387L52.634,44.977C52.634,44.898 52.599,44.824 52.541,44.783L51.393,43.964C51.364,43.943 51.33,43.932 51.295,43.932L48.425,43.932C48.39,43.932 48.356,43.943 48.327,43.964L47.179,44.783C47.121,44.824 47.086,44.898 47.086,44.977L47.086,45.387C47.086,45.466 47.121,45.54 47.179,45.581L48.327,46.4Z" style="fill:rgb(0,255,0);"/>
    <path d="M48.327,39.868L48.425,39.901L51.295,39.901C51.33,39.901 51.364,39.889 51.393,39.868L52.541,39.05C52.599,39.009 52.634,38.935 52.634,38.855L52.634,38.446C52.634,38.366 52.599,38.292 52.541,38.251L51.393,37.433C51.364,37.412 51.33,37.401 51.295,37.401L48.425,37.401C48.39,37.401 48.356,37.412 48.327,37.433L47.179,38.251C47.121,38.292 47.086,38.366 47.086,38.446L47.086,38.855C47.086,38.935 47.121,39.009 47.179,39.05L48.327,39.868Z" style="fill:rgb(0,255,0);"/>
    <path d="M48.425,30.872C48.39,30.872 48.356,30.884 48.327,30.905L47.179,31.723C47.121,31.764 47.086,31.838 47.086,31.918L47.086,32.327C47.086,32.407 47.121,32.481 47.179,32.522L48.327,33.34L48.425,33.372L51.295,33.372C51.33,33.372 51.364,33.361 51.393,33.34L52.541,32.522C52.599,32.481 52.634,32.407 52.634,32.327L52.634,31.918C52.634,31.838 52.599,31.764 52.541,31.723L51.393,30.905C51.364,30.884 51.33,30.872 51.295,30.872L48.425,30.872Z" style="fill:rgb(0,255,0);"/>
    <path d="M47.704,43.414C47.725,43.385 47.738,43.351 47.737,43.315L47.737,40.444C47.738,40.41 47.726,40.376 47.705,40.346L46.887,39.198C46.846,39.141 46.772,39.105 46.692,39.105L46.283,39.105C46.203,39.105 46.129,39.141 46.088,39.198L45.27,40.346C45.249,40.376 45.238,40.41 45.238,40.444L45.237,43.315C45.238,43.349 45.249,43.383 45.27,43.413L46.088,44.561C46.129,44.618 46.203,44.654 46.283,44.654L46.692,44.654C46.772,44.654 46.846,44.618 46.887,44.561L47.704,43.414Z" style="fill:rgb(0,255,0);"/>
    <path d="M47.704,36.956C47.725,36.927 47.738,36.893 47.737,36.857L47.737,33.986C47.738,33.952 47.726,33.918 47.705,33.888L46.887,32.74C46.846,32.683 46.772,32.647 46.692,32.647L46.283,32.647C46.203,32.647 46.129,32.683 46.088,32.74L45.27,33.888C45.249,33.918 45.238,33.952 45.237,33.986L45.237,36.857C45.238,36.891 45.249,36.925 45.27,36.955L46.088,38.103C46.129,38.16 46.203,38.196 46.283,38.196L46.692,38.196C46.772,38.196 46.846,38.16 46.887,38.103L47.704,36.956Z" style="fill:rgb(0,255,0);"/>
    <circle cx="51.337" cy="50.669" r="2.5" style="fill:rgb(255,0,0);"/>
    <rect x="0" y="0" width="64" height="64" style="fill:white;"/>
</svg>
