<?xml version="1.0" encoding="UTF-8" standalone="no"?>
<!DOCTYPE svg PUBLIC "-//W3C//DTD SVG 1.1//EN" "http://www.w3.org/Graphics/SVG/1.1/DTD/svg11.dtd">
<svg width="100%" height="100%" viewBox="0 0 64 64" version="1.1" xmlns="http://www.w3.org/2000/svg" xmlns:xlink="http://www.w3.org/1999/xlink" xml:space="preserve" xmlns:serif="http://www.serif.com/" style="fill-rule:evenodd;clip-rule:evenodd;stroke-linejoin:round;stroke-miterlimit:2;">
    <path d="M56.25,57.423C56.25,55.035 54.311,53.096 51.923,53.096L12.077,53.096C9.689,53.096 7.75,55.035 7.75,57.423C7.75,59.811 9.689,61.75 12.077,61.75C12.077,61.75 51.923,61.75 51.923,61.75C54.311,61.75 56.25,59.811 56.25,57.423ZM56.25,44.903C56.25,42.514 54.311,40.575 51.923,40.575L12.077,40.575C9.689,40.575 7.75,42.514 7.75,44.903C7.75,47.291 9.689,49.23 12.077,49.23C12.077,49.23 51.923,49.23 51.923,49.23C54.311,49.23 56.25,47.291 56.25,44.903ZM56.25,32.382C56.25,29.994 54.311,28.055 51.923,28.055L12.077,28.055C9.689,28.055 7.75,29.994 7.75,32.382C7.75,34.77 9.689,36.709 12.077,36.709L51.923,36.709C54.311,36.709 56.25,34.77 56.25,32.382ZM13.803,19.471L13.803,22.917L19.086,22.917L23.381,22.92L23.385,22.917L24.382,22.917L24.382,17.073C25.219,16.7 26.006,16.225 26.725,15.663C28.962,13.918 30.072,11.595 30.096,9.271C30.119,6.948 29.057,4.6 26.857,2.8L26.857,2.8C25.97,2.075 24.906,1.527 23.833,1.098L22.461,2.016L22.399,8.17C22.396,8.456 22.232,8.673 21.997,8.829C21.621,9.078 21.098,9.193 20.525,9.193L17.675,9.193C17.11,9.185 16.593,9.051 16.223,8.787C15.981,8.614 15.81,8.381 15.813,8.085C15.813,8.085 15.875,1.93 15.875,1.93L14.527,0.983C13.444,1.386 12.369,1.907 11.467,2.611C9.23,4.357 8.12,6.679 8.096,9.003C8.073,11.326 9.135,13.674 11.335,15.474C12.06,16.067 12.902,16.541 13.772,16.928C13.788,17.545 13.798,18.535 13.803,19.471Z"/>
</svg>
