<?xml version="1.0" encoding="UTF-8" standalone="no"?>
<!DOCTYPE svg PUBLIC "-//W3C//DTD SVG 1.1//EN" "http://www.w3.org/Graphics/SVG/1.1/DTD/svg11.dtd">
<svg width="100%" height="100%" viewBox="0 0 64 64" version="1.1" xmlns="http://www.w3.org/2000/svg" xmlns:xlink="http://www.w3.org/1999/xlink" xml:space="preserve" xmlns:serif="http://www.serif.com/" style="fill-rule:evenodd;clip-rule:evenodd;stroke-linejoin:round;stroke-miterlimit:2;">
    <path d="M18.707,48.333L15.707,48.333C14.603,48.333 13.707,49.23 13.707,50.333C13.707,51.437 14.603,52.333 15.707,52.333L27.707,52.333C28.811,52.333 29.707,51.437 29.707,50.333C29.707,49.23 28.811,48.333 27.707,48.333L24.707,48.333L24.707,45.333C24.707,43.678 23.363,42.333 21.707,42.333C20.052,42.333 18.707,43.678 18.707,45.333L18.707,48.333ZM25.286,39.498C25.191,39.499 25.096,39.5 25,39.5C14.928,39.5 6.75,31.098 6.75,20.75C6.75,10.402 14.928,2 25,2C35.072,2 43.25,10.402 43.25,20.75C43.25,24.057 42.415,27.166 40.949,29.865L52,25.842L52,22.771C52,21.943 52.672,21.271 53.5,21.271L56.5,21.271C57.328,21.271 58,21.943 58,22.771L58,33.771C58,34.599 57.328,35.271 56.5,35.271L53.5,35.271C52.672,35.271 52,34.599 52,33.771L52,32.228L26.074,41.664L25.286,39.498Z"/>
</svg>
