<?xml version="1.0" encoding="UTF-8" standalone="no"?>
<!DOCTYPE svg PUBLIC "-//W3C//DTD SVG 1.1//EN" "http://www.w3.org/Graphics/SVG/1.1/DTD/svg11.dtd">
<svg width="100%" height="100%" viewBox="0 0 64 64" version="1.1" xmlns="http://www.w3.org/2000/svg" xmlns:xlink="http://www.w3.org/1999/xlink" xml:space="preserve" xmlns:serif="http://www.serif.com/" style="fill-rule:evenodd;clip-rule:evenodd;stroke-linejoin:round;stroke-miterlimit:2;">
    <path d="M64,64L0,64L0,45L64,45L64,64ZM36.852,47.656C36.908,47.651 36.966,47.649 37.023,47.649C37.163,47.649 37.299,47.664 37.43,47.692C37.786,47.761 38.124,47.92 38.4,48.169C38.812,48.54 39.002,49.037 38.971,49.525C38.972,49.549 38.972,49.573 38.972,49.597L38.976,60.087C38.977,61.163 38.104,62.036 37.029,62.036C35.953,62.036 35.08,61.163 35.079,60.087L35.077,53.677L33.109,55.451C32.702,55.818 32.162,55.993 31.629,55.975C31.096,55.993 30.556,55.818 30.149,55.451L28.181,53.677L28.178,60.087C28.178,61.163 27.304,62.036 26.229,62.036C25.154,62.036 24.281,61.163 24.281,60.087L24.285,49.597C24.285,49.573 24.286,49.549 24.287,49.525C24.256,49.037 24.446,48.54 24.858,48.169C25.134,47.92 25.472,47.761 25.828,47.692C25.959,47.664 26.095,47.649 26.234,47.649C26.292,47.649 26.349,47.651 26.406,47.656C26.86,47.689 27.305,47.862 27.653,48.176L31.629,51.759L35.604,48.176C35.952,47.862 36.397,47.689 36.852,47.656ZM41.887,59.977C41.886,60.001 41.886,60.025 41.886,60.049C41.886,61.042 42.692,61.848 43.684,61.848L52.155,61.851C53.148,61.851 53.953,61.046 53.953,60.053C53.953,59.061 53.148,58.255 52.155,58.254L45.783,58.252L45.787,49.413C45.787,48.337 44.914,47.464 43.839,47.464C42.764,47.464 41.89,48.337 41.89,49.413L41.886,59.903C41.886,59.928 41.886,59.952 41.887,59.977ZM14.892,52.264L18.996,48.369C19.747,47.656 20.965,47.656 21.715,48.367C22.464,49.079 22.464,50.235 21.713,50.947L17.609,54.842L21.713,58.737C22.464,59.45 22.464,60.606 21.715,61.318C20.965,62.029 19.747,62.028 18.996,61.316L14.892,57.421L10.788,61.316C10.037,62.028 8.819,62.029 8.069,61.318C7.319,60.606 7.32,59.45 8.071,58.737L12.175,54.842L8.071,50.947C7.32,50.235 7.319,49.079 8.069,48.367C8.819,47.656 10.037,47.656 10.788,48.369L14.892,52.264ZM25.286,39.498C25.191,39.499 25.096,39.5 25,39.5C14.928,39.5 6.75,31.098 6.75,20.75C6.75,10.402 14.928,2 25,2C35.072,2 43.25,10.402 43.25,20.75C43.25,24.057 42.415,27.166 40.949,29.865L52,25.842L52,22.771C52,21.943 52.672,21.271 53.5,21.271L56.5,21.271C57.328,21.271 58,21.943 58,22.771L58,33.771C58,34.599 57.328,35.271 56.5,35.271L53.5,35.271C52.672,35.271 52,34.599 52,33.771L52,32.228L26.074,41.664L25.286,39.498Z"/>
</svg>
