<!-- Generated by IcoMoon.io -->
<svg version="1.1" xmlns="http://www.w3.org/2000/svg" width="64" height="64" viewBox="0 0 64 64">
<title></title>
<g id="icomoon-ignore">
</g>
<path fill="#000" d="M39.22 11.039l2.78-7.639 4.698 1.71-2.157 5.929h1.924c2.669 0 4.581 2.166 4.268 4.835l-4.185 35.693c-0.483 4.124-4.224 7.472-8.347 7.472h-12.402c-4.123 0-7.864-3.348-8.347-7.472l-4.185-35.693c-0.313-2.669 1.599-4.835 4.268-4.835h21.685zM30.741 46.442v2.183h2.434v-2.275c1.968-0.213 3.544-0.893 4.737-2.020 1.313-1.24 1.979-2.866 1.979-4.884 0-1.558-0.433-2.854-1.283-3.895-0.824-1.009-2.211-1.874-4.182-2.562l-1.251-0.423c0 0 0-6.646 0-6.646 0.463 0.063 0.923 0.169 1.378 0.318 0.513 0.169 0.918 0.354 1.21 0.569 0 0 0.534 2.852 0.534 2.852h2.059v-5.391l-0.409-0.093c-1.596-0.362-3.186-0.586-4.772-0.674 0 0 0-2.048 0-2.048h-2.434v2.104c-1.813 0.212-3.281 0.801-4.411 1.748-1.277 1.071-1.917 2.453-1.917 4.148 0 0.715 0.090 1.363 0.267 1.946 0.182 0.597 0.446 1.126 0.79 1.587 0.342 0.458 0.748 0.856 1.219 1.196 0.454 0.327 0.966 0.623 1.538 0.887 0.501 0.232 1.339 0.543 2.514 0.932 0 0 0 8.068 0 8.068-0.756-0.090-1.503-0.283-2.242-0.577-0.792-0.316-1.36-0.634-1.687-0.982 0-0.001-0.629-3.335-0.629-3.335h-2.074v5.972l0.318 0.136c0.643 0.277 1.64 0.541 2.991 0.784 1.144 0.205 2.252 0.33 3.323 0.375zM35.972 40.354c0 1.067-0.273 1.912-0.852 2.524-0.479 0.506-1.129 0.85-1.945 1.048 0 0 0-7.045 0-7.045 0.986 0.412 1.691 0.852 2.102 1.341 0.47 0.559 0.695 1.271 0.695 2.132zM28.298 28.608c0-0.715 0.242-1.306 0.736-1.768 0.422-0.394 0.993-0.661 1.707-0.816 0 0 0 5.657 0 5.657-0.619-0.269-1.074-0.513-1.363-0.738-0.351-0.273-0.621-0.595-0.806-0.967-0.187-0.376-0.274-0.833-0.274-1.368z"></path>
</svg>
