<!-- Generated by IcoMoon.io -->
<svg version="1.1" xmlns="http://www.w3.org/2000/svg" width="64" height="64" viewBox="0 0 64 64">
<title></title>
<g id="icomoon-ignore">
</g>
<path fill="#000" d="M14.799 44h-3.959c-3.775 0-6.84-3.065-6.84-6.84v-24.32c0-3.775 3.065-6.84 6.84-6.84h42.32c3.775 0 6.84 3.065 6.84 6.84v24.32c0 3.775-3.065 6.84-6.84 6.84h-22.451l-15.592 17.668-0.318-17.668zM32 9.7v30.6h21.32c2.583 0 4.68-2.097 4.68-4.68v-21.24c0-2.583-2.097-4.68-4.68-4.68h-21.32zM29.5 9.7h-19.27c-2.335 0-4.23 1.895-4.23 4.23v22.14c0 2.335 1.895 4.23 4.23 4.23h19.27v-30.6zM37.744 20.063h-4.831v-3.933h10.512v-3.043h1.995l0.012-0.009h1.265l0.515 1.228-0.637 0.648v1.176h10.512v3.933h-5.067c-0.757 2.707-2.221 5.663-4.358 8.436 2.438 2.216 4.965 3.411 7.093 3.742l1.469 0.229-1.611 3.244-0.702-0.025c-2.661-0.097-5.892-1.429-8.943-4.191-3.226 3.037-6.686 4.483-9.511 4.586l-0.958 0.035-1.966-3.957 2.004-0.312c2.161-0.337 4.739-1.596 7.205-3.939-1.934-2.591-3.277-5.327-3.998-7.848zM23.405 35.7l0.060 0.162h4.896l-7.841-20.31h-5.539l-7.872 20.31h4.942l1.867-5.063c0 0 7.679 0 7.679 0s1.808 4.901 1.808 4.901zM17.76 19.687l0.069 0.212c0 0.002 0.644 1.917 0.644 1.917 0.001 0.003 1.956 5.366 1.956 5.366s-5.343 0-5.343 0c1.498-4.107 2.316-6.371 2.452-6.792 0.080-0.25 0.155-0.484 0.222-0.703zM47.248 20.063h-5.576c0.686 1.571 1.608 3.196 2.759 4.78 1.173-1.579 2.115-3.206 2.817-4.78zM17.698 19.030l0.052-0.178 0.038 0.117-0.038 0.13-0.052-0.069z"></path>
</svg>
