<!-- Generated by IcoMoon.io -->
<svg version="1.1" xmlns="http://www.w3.org/2000/svg" width="64" height="64" viewBox="0 0 64 64">
<title></title>
<g id="icomoon-ignore">
</g>
<path fill="#000" d="M32 16.066c0.045-0.001 0.091 0 0.137 0.003l19.273 1.348c0.866 0.060 1.569 0.816 1.569 1.686v26.686c0 0.87-0.703 1.527-1.569 1.466l-15.217-1.064c-0.549 1.051-1.648 1.768-2.915 1.768h-2.556c-1.267 0-2.366-0.717-2.915-1.768l-15.217 1.064c-0.866 0.061-1.569-0.596-1.569-1.466v-26.686c0-0.87 0.703-1.626 1.569-1.686l19.273-1.348c0.046-0.003 0.092-0.004 0.137-0.003zM47.6 37.3h-13v1.7h13v-1.7zM29.3 37.3h-13v1.7h13v-1.7zM47.6 32.767h-13v1.7h13v-1.7zM29.3 32.767h-13v1.7h13v-1.7zM47.6 28.233h-13v1.7h13v-1.7zM29.3 28.233h-13v1.7h13v-1.7zM29.3 23.7h-13v1.7h13v-1.7zM47.6 23.7h-13v1.7h13v-1.7z"></path>
</svg>
