<!-- Generated by IcoMoon.io -->
<svg version="1.1" xmlns="http://www.w3.org/2000/svg" width="64" height="64" viewBox="0 0 64 64">
<title></title>
<g id="icomoon-ignore">
</g>
<path fill="#000" d="M26.325 49.775l-21.156 1.342c-0.046 0.004-0.1 0.006-0.154 0.006-1.113 0-2.016-0.903-2.016-2.016 0-0.011 0-0.021 0-0.032v0.002-33.068c0-1.201 0.973-2.239 2.17-2.315l27.020-1.69 26.642 1.69c1.197 0.076 2.169 1.114 2.169 2.315v33.068c0 0.009 0 0.019 0 0.030 0 1.113-0.903 2.016-2.016 2.016-0.054 0-0.108-0.002-0.161-0.006l-21.148-1.342c-0.806 1.341-2.254 2.225-3.908 2.225-0 0-0 0-0 0h-3.534c-0 0-0 0-0 0-1.654 0-3.101-0.884-3.896-2.205l-0.011-0.020zM54 38.5h-18.5v2.5h18.5v-2.5zM28.5 38.5h-18.5v2.5h18.5v-2.5zM54 32.5h-18.5v2.5h18.5v-2.5zM28.5 32.5h-18.5v2.5h18.5v-2.5zM28.5 26.5h-18.5v2.5h18.5v-2.5zM54 26.5h-18.5v2.5h18.5v-2.5zM53.99 20.5h-18.5v2.5h18.5v-2.5zM28.5 20.5h-18.5v2.5h18.5v-2.5z"></path>
</svg>
