<!-- Generated by IcoMoon.io -->
<svg version="1.1" xmlns="http://www.w3.org/2000/svg" width="64" height="64" viewBox="0 0 64 64">
<title></title>
<g id="icomoon-ignore">
</g>
<path fill="#000" d="M60 14.973l-3-0.522v35.716c-3.141-0.28-8.021-0.667-11-0.667-0.95 0-2.094 0.039-3.312 0.102-0.962 0.036-2.014 0.106-3.059 0.191-2.678 0.191-5.264 0.428-6.629 0.559v-35.901c0 0 6.61-1.451 9.963-1.451 4 0 14.037 1.451 14.037 1.451l3.001 0.522c1.769 0.819 2.999 2.61 2.999 4.687v32.68c0 2.848-2.312 5.16-5.16 5.16h-51.68c-2.848 0-5.16-2.312-5.16-5.16v-32.68c0-2.077 1.23-3.869 3-4.687l3-0.522c0 0 10.037-1.451 14.037-1.451 3.353 0 9.963 1.451 9.963 1.451v35.901c-1.366-0.131-3.951-0.368-6.629-0.559-1.045-0.085-2.097-0.155-3.059-0.191-1.218-0.063-2.362-0.102-3.312-0.102-2.979 0-7.859 0.387-11 0.667v-35.716l-3 0.522v38.765h56v-38.765zM28.5 42.5c0-1.104-0.896-2-2-2h-14c-1.104 0-2 0.896-2 2s0.896 2 2 2h14c1.104 0 2-0.896 2-2zM53.5 42.5c0-1.104-0.896-2-2-2h-14c-1.104 0-2 0.896-2 2s0.896 2 2 2h14c1.104 0 2-0.896 2-2zM28.5 35.5c0-1.104-0.896-2-2-2h-14c-1.104 0-2 0.896-2 2s0.896 2 2 2h14c1.104 0 2-0.896 2-2zM53.5 35.5c0-1.104-0.896-2-2-2h-14c-1.104 0-2 0.896-2 2s0.896 2 2 2h14c1.104 0 2-0.896 2-2zM28.5 28.5c0-1.104-0.896-2-2-2h-14c-1.104 0-2 0.896-2 2s0.896 2 2 2h14c1.104 0 2-0.896 2-2zM53.5 28.5c0-1.104-0.896-2-2-2h-14c-1.104 0-2 0.896-2 2s0.896 2 2 2h14c1.104 0 2-0.896 2-2zM28.5 21.5c0-1.104-0.896-2-2-2h-14c-1.104 0-2 0.896-2 2s0.896 2 2 2h14c1.104 0 2-0.896 2-2zM53.5 21.5c0-1.104-0.896-2-2-2h-14c-1.104 0-2 0.896-2 2s0.896 2 2 2h14c1.104 0 2-0.896 2-2z"></path>
</svg>
