<!-- Generated by IcoMoon.io -->
<svg version="1.1" xmlns="http://www.w3.org/2000/svg" width="64" height="64" viewBox="0 0 64 64">
<title></title>
<g id="icomoon-ignore">
</g>
<path fill="#000" d="M11.087 56c-5.563 0-10.080-4.517-10.080-10.080v-27.84c0-5.563 4.517-10.080 10.080-10.080h33.84c5.564 0 10.080 4.517 10.080 10.080v27.84c0 5.52-4.446 10.009-9.95 10.079l-33.97 0.001zM30.853 14.994v-4.013h-5.793v4.048c-4.2 0.556-8.106 2.261-9.955 5.037-3.005 4.512 0.906 10.812 7.19 12.99 0.768 0.266 1.722 0.512 2.765 0.768v10.901c-2.614-0.587-4.538-2.424-6.16-3.803l-4.893 2.788 2.091 1.821c2.411 2.055 5.421 3.271 8.962 3.703v3.747h5.793v-3.783c8.228-1.147 14.043-6.861 9.643-12.981-0.763-1.061-1.821-2.027-2.998-2.881-1.734-1.258-4.155-1.986-6.645-2.64v-11.197c2.638 0.575 4.575 2.426 6.207 3.814l4.893-2.788-2.091-1.822c-2.421-2.064-5.447-3.281-9.009-3.709zM30.853 35.422v9.077c3.644-0.894 6.321-3.13 4.366-6.219-0.805-1.273-2.452-2.167-4.366-2.858zM25.060 19.742c-3.624 0.903-6.23 3.15-4.321 6.246 0.873 1.416 2.441 2.336 4.321 3.044v-9.29z"></path>
</svg>
