<!-- Generated by IcoMoon.io -->
<svg version="1.1" xmlns="http://www.w3.org/2000/svg" width="128" height="128" viewBox="0 0 128 128">
<title></title>
<g id="icomoon-ignore">
</g>
<path fill="#000" d="M56.256 31.057h-42.438c-7.074 0-12.818 5.744-12.818 12.818v61.295c0 7.074 5.744 12.818 12.818 12.818h54.476c7.075 0 12.818-5.744 12.818-12.818v-51.051c-16.616 14.040-16.649 30.281-17.025 36.965-0.151 2.687-1.869 5.034-4.385 5.99s-5.359 0.343-7.257-1.565c-14.421-14.502-16.181-43.133 3.811-64.452zM57.293 90.694c-14.624-14.705-13.039-45.988 15.234-64.344l-10.365-12.362 42.838 1.084-7.263 41.344-11.808-14.082c-28.127 16.992-28.15 39.728-28.636 48.36z"></path>
</svg>
