<!-- Generated by IcoMoon.io -->
<svg version="1.1" xmlns="http://www.w3.org/2000/svg" width="128" height="128" viewBox="0 0 128 128">
<title></title>
<g id="icomoon-ignore">
</g>
<path fill="#000" d="M87.8 55.714h8.488c5.912 0 10.712 4.753 10.712 10.606v45.074c0 5.854-4.8 10.606-10.712 10.606h-84.576c-5.912 0-10.712-4.752-10.712-10.606v-45.074c0-5.853 4.8-10.606 10.712-10.606h19.788l22.5 21.827c1.413 1.374 4.32 2.133 6.3 2.109 1.98-0.023 4.821-0.828 6.2-2.236l21.3-21.7zM93.982 6.385c-17.881-3.082-49.582 12.531-44.921 39.525h-15.517l27.127 26.376 25.847-26.376h-14.41c-4.833-24.162 15.844-35.121 21.874-39.525z"></path>
</svg>
