<!-- Generated by IcoMoon.io -->
<svg version="1.1" xmlns="http://www.w3.org/2000/svg" width="64" height="64" viewBox="0 0 64 64">
<title></title>
<g id="icomoon-ignore">
</g>
<path fill="#000" d="M56.25 57.423c0-2.388-1.939-4.327-4.327-4.327h-39.846c-2.388 0-4.327 1.939-4.327 4.327s1.939 4.327 4.327 4.327c0 0 39.846 0 39.846 0 2.388 0 4.327-1.939 4.327-4.327zM56.25 44.903c0-2.389-1.939-4.328-4.327-4.328h-39.846c-2.388 0-4.327 1.939-4.327 4.328 0 2.388 1.939 4.327 4.327 4.327 0 0 39.846 0 39.846 0 2.388 0 4.327-1.939 4.327-4.327zM56.25 32.382c0-2.388-1.939-4.327-4.327-4.327h-39.846c-2.388 0-4.327 1.939-4.327 4.327s1.939 4.327 4.327 4.327h39.846c2.388 0 4.327-1.939 4.327-4.327zM13.803 19.471v3.446h10.579v-5.844c0.837-0.373 1.624-0.848 2.343-1.41 2.237-1.745 3.347-4.068 3.371-6.392s-1.039-4.671-3.239-6.471v0c-0.887-0.725-1.951-1.273-3.024-1.702l-1.372 0.918-0.062 6.154c-0.003 0.286-0.167 0.503-0.402 0.659-0.376 0.249-0.899 0.364-1.472 0.364h-2.85c-0.565-0.008-1.082-0.142-1.452-0.406-0.242-0.173-0.413-0.406-0.41-0.702 0 0 0.062-6.155 0.062-6.155l-1.348-0.947c-1.083 0.403-2.158 0.924-3.060 1.628-2.237 1.746-3.347 4.068-3.371 6.392-0.023 2.323 1.039 4.671 3.239 6.471 0.725 0.593 1.567 1.067 2.437 1.454 0.016 0.617 0.026 1.607 0.031 2.543z"></path>
</svg>
