<!-- Generated by IcoMoon.io -->
<svg version="1.1" xmlns="http://www.w3.org/2000/svg" width="64" height="64" viewBox="0 0 64 64">
<title></title>
<g id="icomoon-ignore">
</g>
<path fill="#000" d="M40.023 45.152c-3.477 2.591-7.729 4.192-12.407 4.221-10.406 0.066-20.276-8.26-21.806-18.699-1.731-11.814 7.58-24.164 20.12-25.040 0.561-0.039 1.124-0.055 1.686-0.053 10 0.095 19.38 7.75 21.337 17.619 1.156 5.829-0.437 11.92-3.87 16.758l13.82 13.819-5.128 5.128-13.752-13.753zM27.395 14.645c-6.236 0.060-12 5.17-12.677 11.431-0.588 5.436 2.691 11.076 7.773 13.229 6.62 2.806 15.346-1.167 17.352-8.391 2.055-7.404-3.759-16.031-12.032-16.265-0.139-0.003-0.278-0.004-0.416-0.004z"></path>
</svg>
