<!-- Generated by IcoMoon.io -->
<svg version="1.1" xmlns="http://www.w3.org/2000/svg" width="128" height="128" viewBox="0 0 128 128">
<title></title>
<g id="icomoon-ignore">
</g>
<path fill="#000" d="M73.934 15.359c-6.491-1.302-13.177-1.302-19.668 0 0.828 4.128 1.452 8.287 1.871 12.477-4.352 0.948-8.5 2.666-12.249 5.073-2.666-3.259-5.165-6.641-7.499-10.146-5.511 3.67-10.238 8.397-13.908 13.908 3.505 2.334 6.887 4.834 10.146 7.499-2.407 3.749-4.125 7.897-5.073 12.249-4.19-0.419-8.349-1.043-12.477-1.871-1.303 6.491-1.303 13.177 0 19.668 4.128-0.828 8.287-1.452 12.477-1.871 0.948 4.352 2.666 8.501 5.073 12.249-3.259 2.666-6.641 5.165-10.146 7.499 3.67 5.511 8.397 10.238 13.908 13.908 2.334-3.505 4.833-6.887 7.499-10.146 3.749 2.407 7.897 4.125 12.249 5.074-0.419 4.189-1.043 8.348-1.871 12.476 6.491 1.303 13.177 1.303 19.668 0-0.828-4.128-1.452-8.287-1.871-12.476 4.352-0.949 8.5-2.667 12.249-5.074 2.666 3.259 5.165 6.641 7.499 10.146 5.511-3.67 10.238-8.397 13.908-13.908-3.505-2.334-6.887-4.833-10.146-7.499 2.407-3.748 4.125-7.897 5.073-12.249 4.19 0.419 8.349 1.043 12.477 1.871 1.303-6.491 1.303-13.177 0-19.668-4.128 0.828-8.287 1.452-12.477 1.871-0.948-4.352-2.666-8.5-5.073-12.249 3.259-2.665 6.641-5.165 10.146-7.499-3.67-5.511-8.397-10.238-13.908-13.908-2.334 3.505-4.833 6.887-7.499 10.146-3.749-2.407-7.897-4.125-12.249-5.073 0.419-4.19 1.043-8.349 1.871-12.477zM64.1 50.882c7.451 0 13.5 6.049 13.5 13.5s-6.049 13.5-13.5 13.5c-7.451 0-13.5-6.049-13.5-13.5s6.049-13.5 13.5-13.5z"></path>
</svg>
