<!-- Generated by IcoMoon.io -->
<svg version="1.1" xmlns="http://www.w3.org/2000/svg" width="64" height="64" viewBox="0 0 64 64">
<title></title>
<g id="icomoon-ignore">
</g>
<path fill="#000" d="M18.707 48.333h-3c-1.104 0-2 0.897-2 2s0.896 2 2 2h12c1.104 0 2-0.896 2-2s-0.896-2-2-2h-3v-3c0-1.655-1.344-3-3-3s-3 1.345-3 3v3zM25.286 39.498c-0.095 0.001-0.19 0.002-0.286 0.002-10.072 0-18.25-8.402-18.25-18.75s8.178-18.75 18.25-18.75c10.072 0 18.25 8.402 18.25 18.75 0 3.307-0.835 6.416-2.301 9.115l11.051-4.023v-3.071c0-0.828 0.672-1.5 1.5-1.5h3c0.828 0 1.5 0.672 1.5 1.5v11c0 0.828-0.672 1.5-1.5 1.5h-3c-0.828 0-1.5-0.672-1.5-1.5v-1.543l-25.926 9.436-0.788-2.166z"></path>
</svg>
