<svg xmlns="http://www.w3.org/2000/svg" xmlns:xlink="http://www.w3.org/1999/xlink" viewBox="0 0 1880 1300" style="pointer-events:none;user-select:none;text-rendering:geometricprecision">
  
  <defs>
    <symbol id="aad">
      <path d="M37.75 37.75h18.127v-11.5h-18.127c0 0 0-18.127 0-18.127h-11.5v18.127c0 0-18.127 0-18.127 0v11.5h18.127c0 0 0 18.127 0 18.127h11.5v-18.127z"/>
    </symbol>
    
    
    
    
    
    <symbol id="fbt">
      <path d="M56.256 31.057h-42.438c-7.074 0-12.818 5.744-12.818 12.818v61.295c0 7.074 5.744 12.818 12.818 12.818h54.476c7.075 0 12.818-5.744 12.818-12.818v-51.051c-16.616 14.040-16.649 30.281-17.025 36.965-0.151 2.687-1.869 5.034-4.385 5.99s-5.359 0.343-7.257-1.565c-14.421-14.502-16.181-43.133 3.811-64.452zM57.293 90.694c-14.624-14.705-13.039-45.988 15.234-64.344l-10.365-12.362 42.838 1.084-7.263 41.344-11.808-14.082c-28.127 16.992-28.15 39.728-28.636 48.36z"/>
    </symbol>
    
    <symbol id="lcu">
      <path d="M56.25 57.423c0-2.388-1.939-4.327-4.327-4.327h-39.846c-2.388 0-4.327 1.939-4.327 4.327s1.939 4.327 4.327 4.327c0 0 39.846 0 39.846 0 2.388 0 4.327-1.939 4.327-4.327zM56.25 44.903c0-2.389-1.939-4.328-4.327-4.328h-39.846c-2.388 0-4.327 1.939-4.327 4.328 0 2.388 1.939 4.327 4.327 4.327 0 0 39.846 0 39.846 0 2.388 0 4.327-1.939 4.327-4.327zM56.25 32.382c0-2.388-1.939-4.327-4.327-4.327h-39.846c-2.388 0-4.327 1.939-4.327 4.327s1.939 4.327 4.327 4.327h39.846c2.388 0 4.327-1.939 4.327-4.327zM13.803 19.471v3.446h10.579v-5.844c0.837-0.373 1.624-0.848 2.343-1.41 2.237-1.745 3.347-4.068 3.371-6.392s-1.039-4.671-3.239-6.471v0c-0.887-0.725-1.951-1.273-3.024-1.702l-1.372 0.918-0.062 6.154c-0.003 0.286-0.167 0.503-0.402 0.659-0.376 0.249-0.899 0.364-1.472 0.364h-2.85c-0.565-0.008-1.082-0.142-1.452-0.406-0.242-0.173-0.413-0.406-0.41-0.702 0 0 0.062-6.155 0.062-6.155l-1.348-0.947c-1.083 0.403-2.158 0.924-3.060 1.628-2.237 1.746-3.347 4.068-3.371 6.392-0.023 2.323 1.039 4.671 3.239 6.471 0.725 0.593 1.567 1.067 2.437 1.454 0.016 0.617 0.026 1.607 0.031 2.543z"/>
    </symbol>
    
    <symbol id="sdh">
      <path d="M40.023 45.152c-3.477 2.591-7.729 4.192-12.407 4.221-10.406 0.066-20.276-8.26-21.806-18.699-1.731-11.814 7.58-24.164 20.12-25.040 0.561-0.039 1.124-0.055 1.686-0.053 10 0.095 19.38 7.75 21.337 17.619 1.156 5.829-0.437 11.92-3.87 16.758l13.82 13.819-5.128 5.128-13.752-13.753zM27.395 14.645c-6.236 0.060-12 5.17-12.677 11.431-0.588 5.436 2.691 11.076 7.773 13.229 6.62 2.806 15.346-1.167 17.352-8.391 2.055-7.404-3.759-16.031-12.032-16.265-0.139-0.003-0.278-0.004-0.416-0.004z"/>
    </symbol>
    
    
    <symbol id="ses">
      <path d="M73.934 15.359c-6.491-1.302-13.177-1.302-19.668 0 0.828 4.128 1.452 8.287 1.871 12.477-4.352 0.948-8.5 2.666-12.249 5.073-2.666-3.259-5.165-6.641-7.499-10.146-5.511 3.67-10.238 8.397-13.908 13.908 3.505 2.334 6.887 4.834 10.146 7.499-2.407 3.749-4.125 7.897-5.073 12.249-4.19-0.419-8.349-1.043-12.477-1.871-1.303 6.491-1.303 13.177 0 19.668 4.128-0.828 8.287-1.452 12.477-1.871 0.948 4.352 2.666 8.501 5.073 12.249-3.259 2.666-6.641 5.165-10.146 7.499 3.67 5.511 8.397 10.238 13.908 13.908 2.334-3.505 4.833-6.887 7.499-10.146 3.749 2.407 7.897 4.125 12.249 5.074-0.419 4.189-1.043 8.348-1.871 12.476 6.491 1.303 13.177 1.303 19.668 0-0.828-4.128-1.452-8.287-1.871-12.476 4.352-0.949 8.5-2.667 12.249-5.074 2.666 3.259 5.165 6.641 7.499 10.146 5.511-3.67 10.238-8.397 13.908-13.908-3.505-2.334-6.887-4.833-10.146-7.499 2.407-3.748 4.125-7.897 5.073-12.249 4.19 0.419 8.349 1.043 12.477 1.871 1.303-6.491 1.303-13.177 0-19.668-4.128 0.828-8.287 1.452-12.477 1.871-0.948-4.352-2.666-8.5-5.073-12.249 3.259-2.665 6.641-5.165 10.146-7.499-3.67-5.511-8.397-10.238-13.908-13.908-2.334 3.505-4.833 6.887-7.499 10.146-3.749-2.407-7.897-4.125-12.249-5.073 0.419-4.19 1.043-8.349 1.871-12.477zM64.1 50.882c7.451 0 13.5 6.049 13.5 13.5s-6.049 13.5-13.5 13.5c-7.451 0-13.5-6.049-13.5-13.5s6.049-13.5 13.5-13.5z"/>
    </symbol>
    

    
    
    
    <symbol id="afl">
      <path d="M32 45.423l26.667-26.846h-53.334l26.667 26.846z"/>
    </symbol>
    <symbol id="cgk">
      <path d="M5.601 32l18.857 18.856 33.941-33.941-3.772-3.771-30.169 30.17-15.085-15.085-3.772 3.771z"/>
    </symbol>

    
    
    
    
    
    

    <linearGradient id="bhf" x1="0" y1="0" x2="0" y2="1">
      <stop offset="0" style="stop-color:#fdfdfd"/>
      <stop offset="1" style="stop-color:#eee"/>
    </linearGradient>
    <linearGradient id="bif" x1="0" y1="0" x2="1" y2="0">
      <stop offset="0" style="stop-color:#fdfdfd"/>
      <stop offset="1" style="stop-color:#eee"/>
    </linearGradient>
    
    
    

    
    

    

    
    

    
    
    <filter id="mjf" color-interpolation-filters="sRGB">
      <feDropShadow dx="-3" dy="12" stdDeviation="20" flood-opacity="0.2"/>
      <feDropShadow dx="3" dy="12" stdDeviation="10" flood-opacity="0.2"/>
    </filter>
  </defs>

  
    <rect x="0" y="0" width="1880" height="1300" style="fill:#b4d0cd"/>
  

  
    
    <rect x="0" y="0" width="1880" height="1330" style="font-family:'Sans-Serif',system-ui,sans-serif;fill:#000;fill-opacity:0.2"/>

    <g transform="matrix(1.41,0,0,1.41,-656,-271)" style="font-family:'Sans-Serif',system-ui,sans-serif;opacity:0.8">
      <rect x="81" y="81" width="1718" height="1140" rx="0" style="fill:#f9f9f9;stroke:#acc6c3;stroke-width:1px"/>
      
        
          <rect x="82" y="192" width="1716" height="95" style="fill:#efefef"/>
          
            
            
            
            
              <text x="398.5" y="190" dx="69" dy="59" style="font-size:25.5px;fill:#000">Import</text>
            
            
              <g transform="matrix(0.38,0,0,0.38,575,215)">
                <use href="#fbt" style="fill:#5c5c5c"/>
              </g>
              <text x="557.5" y="190" dx="69" dy="59" style="font-size:25.5px;fill:#000">Export</text>
            
            
              <rect x="729" y="218" width="4" height="42" style="fill:#fff;stroke:#dfdfdf;stroke-width:2px;clip-path:inset(2px 2px 2px 0.5px)"/>
            
            
              <g transform="matrix(0.38,0,0,0.38,741,215)">
                <use href="#ses" style="fill:#5c5c5c"/>
              </g>
              <text x="723.5" y="190" dx="69" dy="59" style="font-size:25.5px;fill:#000">Settings</text>
            
            
              
                <rect x="1154" y="222" width="100" height="34" rx="3" style="fill:url(#bhf);stroke:#ababab;stroke-width:1.2px;filter:none"/>
                
                  <rect x="1246.5" y="227" width="24" height="24" rx="8" style="fill:none;stroke:none;stroke-opacity:0.06;stroke-width:2px"/>
                  
                    
                    
                    <g style="fill:#676767" transform="matrix(0.23,0,0,0.23,1234,231)">
                      <use href="#afl"/>
                    </g>
                  
                
                <text x="1149" y="224" dx="12" dy="22" style="font-size:20px;fill:#000">Profile 1</text>
              
            
            
              <text x="1257.5" y="190" dx="15" dy="59" style="font-size:25.5px;fill:#000">Connect</text>
            
            
              <text x="1378.5" y="190" dx="15" dy="59" style="font-size:25.5px;fill:#000">Disconnect</text>
            
            
              <rect x="1533" y="218" width="4" height="42" style="fill:#fff;stroke:#dfdfdf;stroke-width:2px;clip-path:inset(2px 2px 2px 0.5px)"/>
            
            
              <text x="1537.5" y="190" dx="15" dy="59" style="font-size:25.5px;fill:#000">Upload</text>
            
            
              <text x="1645.5" y="190" dx="15" dy="59" style="font-size:25.5px;fill:#000">Download</text>
            
          
          <rect x="80" y="192" width="1720" height="95" style="fill:none;stroke:#d1d2d2;stroke-width:2px;clip-path:inset(0px 2px)"/>
        
        
          <rect x="82" y="286" width="1716" height="779" style="fill:#efefef"/>
          
            
            
              
              <text x="469" y="285" dx="10" dy="32" style="font-weight:bold;font-size:19px;fill:#000">Channels</text>
              
                
                  <rect x="1755" y="291" width="38" height="32" rx="3" style="fill:url(#bhf);stroke:#ababab;stroke-width:1.2px"/>
                  <g transform="matrix(0.38,0,0,0.38,1762,294)">
                    <use href="#lcu" style="fill:#505050"/>
                  </g>
                
              
            
            
              
                <rect x="469" y="335" width="1325" height="26" style="fill:url(#bhf);stroke:#c8c8c8;stroke-width:2px;clip-path:inset(1px 1px 0)"/>
                <text x="469" y="337" dy="18" style="font-size:17px;fill:#000"><tspan x="473">Index</tspan> <tspan x="572">Name</tspan></text>
                <rect x="565" y="335" width="3" height="26" style="fill:#ddd;stroke:#cdcdcd;stroke-width:1px;clip-path:inset(1px 1px 1px 0)"/>
              
              
                <rect x="469" y="361" width="1325" height="687" style="fill:#fff"/>
                
                  <rect x="473" y="707" width="1325" height="49" style="fill:#308cc6" transform="matrix(1,0,0,0.996,-4,-2.9)"/>
                  <text x="469" y="362" dy="31" style="font-size:20px;fill:#000"><tspan x="492">38</tspan> <tspan x="572">Giallo</tspan></text>
                  <text x="469" y="411" dy="31" style="font-size:20px;fill:#000"><tspan x="492">39</tspan> <tspan x="572">TOPcrime HD</tspan></text>
                  <text x="469" y="460" dy="31" style="font-size:20px;fill:#000"><tspan x="492">40</tspan> <tspan x="572">Boing HD</tspan></text>
                  <text x="469" y="508" dy="31" style="font-size:20px;fill:#000"><tspan x="492">41</tspan> <tspan x="572">K2</tspan></text>
                  <text x="469" y="557" dy="31" style="font-size:20px;fill:#000"><tspan x="492">42</tspan> <tspan x="572">Rai Gulp HD</tspan></text>
                  <text x="469" y="606" dy="31" style="font-size:20px;fill:#000"><tspan x="492">43</tspan> <tspan x="572">Rai YoYo HD</tspan></text>
                  <text x="469" y="654" dy="31" style="font-size:20px;fill:#000"><tspan x="492">44</tspan> <tspan x="572">Frisbee</tspan></text>
                  <text x="469" y="703" dy="31" style="font-size:20px;fill:#fff"><tspan x="492">45</tspan> <tspan x="572">NASA+</tspan></text>
                  <text x="469" y="752" dy="31" style="font-size:20px;fill:#000"><tspan x="492">46</tspan> <tspan x="572">Cartoonito HD</tspan></text>
                  <text x="469" y="801" dy="31" style="font-size:20px;fill:#000"><tspan x="492">47</tspan> <tspan x="572">Super!</tspan></text>
                  <text x="469" y="850" dy="31" style="font-size:20px;fill:#000"><tspan x="492">48</tspan> <tspan x="572">Rai News 24 HD</tspan></text>
                  <text x="469" y="898" dy="31" style="font-size:20px;fill:#000"><tspan x="492">49</tspan> <tspan x="572">Mediaset Italia2 HD</tspan></text>
                  <text x="469" y="947" dy="31" style="font-size:20px;fill:#000"><tspan x="492">50</tspan> <tspan x="572">Sky TG24</tspan> <tspan x="982">90</tspan> <tspan x="1106">512</tspan> <tspan x="1227">H.264</tspan> <tspan x="1425">Persidera</tspan> <tspan x="1695">DVB-T</tspan></text>
                  
                
              
              <g style="clip-path:inset(1px 1px 0 0.5px)">
                <rect x="1775" y="335" width="23" height="693" style="fill:#e6e6e6;stroke:#bcbcbc;stroke-width:2px"/>
                <rect x="1775.5" y="335.5" width="22" height="22" style="fill:url(#bif);stroke:#ababab;stroke-width:1.2px" rx="0"/>
                
                  
                  <g transform="matrix(0.22,0,0,-0.22,1779.3,353.5)">
                    <use href="#afl" style="fill:#5c5c5c"/>
                  </g>
                
                <rect x="1775.5" y="983.5" width="22" height="22" style="fill:url(#bif);stroke:#ababab;stroke-width:1.2px" rx="0"/>
                
                  
                  <g transform="matrix(0.22,0,0,0.22,1779.3,988)">
                    <use href="#afl" style="fill:#5c5c5c"/>
                  </g>
                
                <rect x="1775.5" y="490" width="22" height="80" rx="0" style="fill:url(#bif);fill-opacity:0.8;stroke:#ababab;stroke-opacity:0.6;stroke-width:1.2px"/>
              </g>
              <g style="clip-path:inset(0.5px 0.5px 0 0px)">
                <rect x="467" y="1006" width="1308" height="23" style="fill:#e6e6e6;stroke:#bcbcbc;stroke-width:2px"/>
                <rect x="467.5" y="1006.5" width="22" height="22" style="fill:url(#bhf);stroke:#ababab;stroke-width:1.2px" rx="0"/>
                
                  
                  <g transform="matrix(0,0.22,-0.22,0,484.5,1010.3)">
                    <use href="#afl" style="fill:#5c5c5c"/>
                  </g>
                
                <rect x="1752.5" y="1006.5" width="22" height="22" style="fill:url(#bhf);stroke:#ababab;stroke-width:1.2px" rx="0"/>
                
                  
                  <g transform="matrix(0,0.22,0.22,0,1757.5,1010.3)">
                    <use href="#afl" style="fill:#5c5c5c"/>
                  </g>
                
                <rect x="490" y="1006.5" width="900" height="22" rx="0" style="fill:url(#bhf);fill-opacity:0.8;stroke:#ababab;stroke-opacity:0.6;stroke-width:1.2px"/>
              </g>
              <rect x="1775" y="1006" width="26" height="25" style="fill:#e6e6e6;stroke:#bcbcbc;stroke-width:2px;clip-path:inset(0 4.2px 2.8px 0px)"/> 
            
            
              <rect x="469" y="1031" width="1330" height="65" style="fill:#efefef"/>
              <rect x="467" y="1030" width="1332" height="65" style="fill:none;stroke:#e9eaea;stroke-width:2px;clip-path:inset(0px 2px 2px)"/>
              
                
                  
                  <g transform="matrix(0.26,0,0,0.26,488,1053.5)">
                    <use href="#aad" style="fill:#545454"/>
                  </g>
                  <text x="483" y="1037.5" dx="28" dy="33" style="font-weight:bold;font-size:20.5px;fill:#000">Channel</text>
                
                
                  <g transform="matrix(0.26,0,0,0.26,613,1053.5)">
                    <use href="#aad" style="fill:#545454"/>
                  </g>
                  <text x="609" y="1037.5" dx="28" dy="33" style="font-weight:bold;font-size:20.5px;fill:#000">Stream</text>
                
                
                  <g transform="matrix(0.26,0,0,0.26,728,1053.5)">
                    <use href="#aad" style="fill:#545454"/>
                  </g>
                  <text x="724" y="1037.5" dx="28" dy="33" style="font-weight:bold;font-size:20.5px;fill:#000">Marker</text>
                
                <g style="opacity:0.25">
                  <g transform="matrix(0.26,0,0,0.26,841,1053.5)">
                    <use href="#aad" style="fill:#545454"/>
                  </g>
                  <text x="836" y="1037.5" dx="28" dy="33" style="font-weight:bold;font-size:20.5px;fill:#000">Service</text>
                </g>
                
                  <rect x="967" y="1046" width="135" height="34" rx="3" style="fill:url(#bhf);stroke:#ababab;stroke-width:1.2px;filter:none"/>
                  <text x="967" y="1047.5" dx="22" dy="22" style="font-size:20px;fill:#000">Reference</text>
                
                
                  <rect x="1112.5" y="1051" width="4" height="24" style="fill:#fff;stroke:#dfdfdf;stroke-width:2px;clip-path:inset(2px 4px 2px 0.5px)"/>
                
                <g style="opacity:0.25">
                  <rect x="1121" y="1046" width="147" height="34" rx="3" style="fill:url(#bhf);stroke:#ababab;stroke-width:1.2px;filter:none"/>
                  <text x="1121" y="1047.5" dx="25" dy="22" style="font-size:20px;fill:#000">Drag&amp;Drop</text>
                </g>
                
                  <rect x="1685" y="1046" width="100" height="34" rx="3" style="fill:url(#bhf);stroke:#ababab;stroke-width:1.2px;filter:none"/>
                  <g transform="matrix(0.38,0,0,0.38,1687,1050)">
                    <use href="#sdh" style="fill:#545454" x="15"/>
                  </g>
                  <text x="1675" y="1048.5" dx="46" dy="22" style="font-size:20px;fill:#000">Find<tspan style="font-size:15px">…</tspan></text>
                
              
            
          
          <rect x="80" y="286" width="1720" height="810" style="fill:none;stroke:#d5d6d6;stroke-width:1.8px;clip-path:inset(0px 2px)"/>
        
      
      <rect x="81" y="81" width="1718" height="1140" style="fill:#000;opacity:0.1"/>
    </g>
  

  <g transform="matrix(1.41,0,0,1.41,315,182)" style="font-family:'Sans-Serif',system-ui,sans-serif">
    <rect x="1" y="1" width="1061" height="650" rx="0" style="fill:#efefef;stroke:#acc6c3;stroke-width:1.088px;filter:url(#mjf)"/>
    
      <rect x="2" y="1" width="1063" height="48" rx="0" style="fill:#fafafa;stroke:#e8e8e8;stroke-width:2px;clip-path:inset(1px 1.5px 0)"/>
      <rect x="1" y="47" width="1063" height="1" style="fill:none;stroke:#cbcdcc;stroke-width:2px;clip-path:inset(0 1px 1.1px)"/>
      <text x="-1" y="3.5" dx="529" dy="28" text-anchor="middle" style="font-family:'Sans-Serif',system-ui,sans-serif;font-weight:bold;font-size:19px;fill:#5a5a5a">Add Channel</text>
      
      
      
      
        
          <g transform="matrix(0.707,0.707,-0.707,0.707,1040,15)">
            <rect x="0" y="7" width="15" height="1" style="fill:none;stroke:#333;stroke-width:1px"/>
            <rect x="7" y="0" width="1" height="15" style="fill:none;stroke:#333;stroke-width:1px"/>
          </g>
        
      
    
    
      
        
          <rect x="922" y="49.5" width="138" height="26" rx="3" style="fill:url(#bhf);stroke:#ababab;stroke-width:1.2px"/>
          
            
            
            <g style="fill:#676767" transform="matrix(-0.22,0,0,-0.22,940,69.5)">
              <use href="#afl"/>
            </g>
          
          <text x="945" y="53.5" dy="15" style="font-weight:normal;font-size:16.5px;fill:#000">collapse</text>
        
      
      
        
        
          <text x="-2" y="78" dx="22" dy="38" style="font-size:21.5px">Services</text>
          <text x="-2" y="138" dx="22" dy="38" style="font-size:21.5px">Bouquets</text>
          <text x="-2" y="199" dx="22" dy="38" style="font-size:21.5px">Positions</text>
          <rect x="1" y="257" width="227" height="60" style="fill:#308cc6" transform="matrix(1,0,0,0.996,0,2.7)"/>
          <text x="-2" y="259" dx="22" dy="38" style="font-size:21.5px;fill:#fff">Providers</text>
          <text x="-2" y="320" dx="22" dy="38" style="font-size:21.5px">Resolution</text>
          <text x="-2" y="381" dx="22" dy="38" style="font-size:21.5px">Encryption</text>
          <text x="-2" y="440" dx="22" dy="38" style="font-size:21.5px">A-Z</text>
        
      
      
        
          
            <rect x="228" y="77" width="263" height="507" style="fill:#fff"/>
            
              <rect x="228" y="347" width="263" height="34" style="fill:#308cc6" transform="matrix(1,0,0,0.996,0,-0.3)"/>
              <text x="253" y="75" dy="29" style="font-size:19.5px">M7 Group</text>
              <text x="253" y="108" dy="29" style="font-size:19.5px">MB Satellite</text>
              <text x="253" y="141" dy="29" style="font-size:19.5px">MCEU</text>
              <text x="253" y="175" dy="29" style="font-size:19.5px">MTHREE SATCOM</text>
              <text x="253" y="208" dy="29" style="font-size:19.5px">Mediaset</text>
              <text x="253" y="241" dy="29" style="font-size:19.5px">NOVA</text>
              <text x="253" y="274" dy="29" style="font-size:19.5px">NURTS</text>
              <text x="253" y="306" dy="29" style="font-size:19.5px">Nimbus</text>
              <text x="253" y="341" dy="29" style="font-size:19.5px;fill:#fff">NoName</text>
              <text x="253" y="378" dy="29" style="font-size:19.5px">Persidera</text>
              <text x="253" y="412" dy="29" style="font-size:19.5px">PlayBox Neo Suite</text>
              <text x="253" y="446" dy="29" style="font-size:19.5px">RAI</text>
              <text x="253" y="479" dy="29" style="font-size:19.5px">Radio RTR</text>
              <text x="253" y="512" dy="29" style="font-size:19.5px">Radio Television Suisse</text>
              <text x="253" y="544" dy="29" style="font-size:19.5px">Radio ZET Gold</text>
            
          
          <g style="clip-path:inset(1px 1px 0 0.5px)">
            <rect x="472" y="77" width="23" height="511" style="fill:#e6e6e6;stroke:#bcbcbc;stroke-width:2px"/>
            <rect x="472.5" y="75.5" width="22" height="22" style="fill:url(#bif);stroke:#ababab;stroke-width:1.2px" rx="0"/>
            
              
              <g transform="matrix(0.22,0,0,-0.22,475.9,93.5)">
                <use href="#afl" style="fill:#5c5c5c"/>
              </g>
            
            <rect x="472" y="563" width="22" height="22" style="fill:url(#bif);stroke:#ababab;stroke-width:1.2px" rx="0"/>
            
              
              <g transform="matrix(0.22,0,0,0.22,475.9,568)">
                <use href="#afl" style="fill:#5c5c5c"/>
              </g>
            
            <rect x="472.5" y="320" width="22" height="108" rx="0" style="fill:url(#bif);fill-opacity:1;stroke:#ababab;stroke-opacity:0.6;stroke-width:1.2px"/>
          </g>
        
        
          
          
          <rect x="497.5" y="323" width="0.5" height="28" style="fill:none;stroke:#000;stroke-opacity:0.25;stroke-dasharray:0,2px,0px"/>
        
        
          
            <rect x="502" y="77" width="559" height="26" style="fill:url(#bhf);stroke:#c8c8c8;stroke-width:2px;clip-path:inset(1px 1px 0)"/>
            <text x="502" y="79" dy="18" style="font-size:17px;fill:#000"><tspan x="506">Index</tspan> <tspan x="594">Name</tspan> <tspan x="820">Type</tspan> <tspan x="935">Provider</tspan></text>
            <rect x="587" y="77" width="3" height="26" style="fill:#ddd;stroke:#cdcdcd;stroke-width:1px;clip-path:inset(1px 1px 1px 0)"/>
            <rect x="813" y="77" width="3" height="26" style="fill:#ddd;stroke:#cdcdcd;stroke-width:1px;clip-path:inset(1px 1px 1px 0)"/>
            <rect x="927" y="77" width="3" height="26" style="fill:#ddd;stroke:#cdcdcd;stroke-width:1px;clip-path:inset(1px 1px 1px 0)"/>
          
          
            <rect x="502" y="103" width="559" height="481" style="fill:#fff"/>
            
              <rect x="502" y="469" width="559" height="34" style="fill:#308cc6" transform="matrix(1,0,0,0.996,0,4)"/>
              <text x="502" y="98" dy="29" style="font-size:20px;opacity:0.25"><tspan x="525">26</tspan> <tspan x="594">CH4441</tspan> <tspan x="820">Data</tspan> <tspan x="935">NoName</tspan></text>
              <text x="502" y="131" dy="29" style="font-size:20px;opacity:0.25"><tspan x="525">27</tspan> <tspan x="594">CH4442</tspan> <tspan x="820">Data</tspan> <tspan x="935">NoName</tspan></text>
              <text x="502" y="165" dy="29" style="font-size:20px;opacity:0.25"><tspan x="525">28</tspan> <tspan x="594">CH4443</tspan> <tspan x="820">Data</tspan> <tspan x="935">NoName</tspan></text>
              <text x="502" y="198" dy="29" style="font-size:20px;opacity:0.25"><tspan x="525">29</tspan> <tspan x="594">CH4445</tspan> <tspan x="820">Data</tspan> <tspan x="935">NoName</tspan></text>
              <text x="502" y="231" dy="29" style="font-size:20px;opacity:0.25"><tspan x="525">30</tspan> <tspan x="594">CH4447</tspan> <tspan x="820">Data</tspan> <tspan x="935">NoName</tspan></text>
              <text x="502" y="265" dy="29" style="font-size:20px;opacity:0.25"><tspan x="525">31</tspan> <tspan x="594">CH4448</tspan> <tspan x="820">Data</tspan> <tspan x="935">NoName</tspan></text>
              <text x="502" y="299" dy="29" style="font-size:20px"><tspan x="525">39</tspan> <tspan x="594">Museum 4K</tspan> <tspan x="820">TV</tspan> <tspan x="935">NoName</tspan></text>
              <text x="502" y="333" dy="29" style="font-size:20px"><tspan x="525">40</tspan> <tspan x="594">MyZen 4K</tspan> <tspan x="820">TV</tspan> <tspan x="935">NoName</tspan></text>
              <text x="502" y="366" dy="29" style="font-size:20px"><tspan x="525">63</tspan> <tspan x="594">Fokus TV HD</tspan> <tspan x="820">TV</tspan> <tspan x="935">NoName</tspan></text>
              <text x="502" y="399" dy="29" style="font-size:20px;opacity:0.25"><tspan x="525">94</tspan> <tspan x="594">CH15790</tspan> <tspan x="820">Radio</tspan> <tspan x="935">NoName</tspan></text>
              <text x="502" y="431" dy="29" style="font-size:20px;opacity:0.25"><tspan x="525">95</tspan> <tspan x="594">CH15797</tspan> <tspan x="820">Data</tspan> <tspan x="935">NoName</tspan></text>
              <text x="502" y="467" dy="29" style="font-size:20px;fill:#fff"><tspan x="525">130</tspan> <tspan x="594">HotBird 4K1</tspan> <tspan x="820">TV</tspan> <tspan x="935">NoName</tspan></text>
              <text x="502" y="503" dy="29" style="font-size:20px;opacity:0.25"><tspan x="525">246</tspan> <tspan x="820">Data</tspan> <tspan x="935">NoName</tspan></text>
              <text x="502" y="536" dy="29" style="font-size:20px;opacity:0.25"><tspan x="525">247</tspan> <tspan x="820">Data</tspan> <tspan x="935">NoName</tspan></text>
              <text x="502" y="568" dy="29" style="font-size:20px;opacity:0.25"><tspan x="525">248</tspan> <tspan x="820">Data</tspan> <tspan x="935">NoName</tspan></text>
            
          
          <g style="clip-path:inset(1px 1px 0 0.5px)">
            <rect x="1040" y="78.5" width="23" height="511" style="fill:#e6e6e6;stroke:#bcbcbc;stroke-width:2px"/>
            <rect x="1040.5" y="77" width="22" height="22" style="fill:url(#bif);stroke:#ababab;stroke-width:1.2px" rx="0"/>
            
              
              <g transform="matrix(0.22,0,0,-0.22,1044,95)">
                <use href="#afl" style="fill:#5c5c5c"/>
              </g>
            
            <rect x="1040.5" y="540.5" width="22" height="22" style="fill:url(#bif);stroke:#ababab;stroke-width:1.2px" rx="0"/>
            
              
              <g transform="matrix(0.22,0,0,0.22,1044,545.5)">
                <use href="#afl" style="fill:#5c5c5c"/>
              </g>
            
            <rect x="1040.5" y="99.5" width="22" height="46" rx="0" style="fill:url(#bif);fill-opacity:1;stroke:#ababab;stroke-opacity:0.6;stroke-width:1.2px"/>
          </g>
          <g style="clip-path:inset(0.5px 1px 1px)">
            <rect x="502" y="561.5" width="559" height="23" style="fill:#e6e6e6;stroke:#bcbcbc;stroke-width:2px"/>
            <rect x="500.5" y="562" width="22" height="22" style="fill:url(#bhf);stroke:#ababab;stroke-width:1.2px" rx="0"/>
            
              
              <g transform="matrix(0,0.22,-0.22,0,518,566)">
                <use href="#afl" style="fill:#5c5c5c"/>
              </g>
            
            <rect x="1018.5" y="562" width="22" height="22" style="fill:url(#bhf);stroke:#ababab;stroke-width:1.2px" rx="0"/>
            
              
              <g transform="matrix(0,0.22,0.22,0,1023,566)">
                <use href="#afl" style="fill:#5c5c5c"/>
              </g>
            
            <rect x="523" y="562" width="204" height="22" rx="0" style="fill:url(#bhf);fill-opacity:1;stroke:#ababab;stroke-opacity:0.6;stroke-width:1.2px"/>
          </g>
          <rect x="1040.5" y="561.5" width="25" height="24" style="fill:#e6e6e6;stroke:#bcbcbc;stroke-width:2px;clip-path:inset(0 4.2px 2.8px 0px)"/>
        
      
      
        <rect x="1" y="570" width="1061" height="80" rx="0" style="fill:#f9f9f9;clip-path:inset(15px 0px 0px)"/>
        
          <g transform="matrix(0.9,0,0,0.9,13,606.5)">
            <rect x="1.5" y="3" width="21" height="21" rx="0" style="fill:#fff;stroke:#ababab;stroke-opacity:1;stroke-width:1.4px"/>
            <g transform="matrix(0.2,0,0,0.32,5.8,3.6)">
              <use href="#cgk" style="fill:#000;stroke:#000;stroke-width:5.1px"/>
            </g>
          </g>
          <text x="41" y="606.5" dy="19" style="font-size:19.5px">Filters for service type</text>
        
        
          <text x="833" y="592" dx="28" dy="34" style="font-size:23px;fill:#000">Cancel</text>
        
        
          <g transform="matrix(0.34,0,0,0.34,958,606)">
            <use href="#aad" style="fill:#505050"/>
          </g>
          <text x="955" y="592" dx="28" dy="34" style="font-size:23px;fill:#000">Add</text>
        
        <rect x="1" y="584" width="1061" height="1.1" style="fill:#d7d7d9"/>
      
    
    <rect x="1" y="1" width="1061" height="650" rx="0" style="fill:none;stroke:#808e8c;stroke-width:1.2px"/>
    
  </g>

  
  
  
  
  

  
  
  
</svg>
