<svg xmlns="http://www.w3.org/2000/svg" xmlns:xlink="http://www.w3.org/1999/xlink" viewBox="0 0 1880 1300" style="pointer-events:none;user-select:none">

  <defs>
    <symbol id="aad">
      <path d="M37.75 37.75h18.127v-11.5h-18.127c0 0 0-18.127 0-18.127h-11.5v18.127c0 0-18.127 0-18.127 0v11.5h18.127c0 0 0 18.127 0 18.127h11.5v-18.127z"/>
    </symbol>
    
    
    
    
    
    <symbol id="fbt">
      <path d="M56.256 31.057h-42.438c-7.074 0-12.818 5.744-12.818 12.818v61.295c0 7.074 5.744 12.818 12.818 12.818h54.476c7.075 0 12.818-5.744 12.818-12.818v-51.051c-16.616 14.040-16.649 30.281-17.025 36.965-0.151 2.687-1.869 5.034-4.385 5.99s-5.359 0.343-7.257-1.565c-14.421-14.502-16.181-43.133 3.811-64.452zM57.293 90.694c-14.624-14.705-13.039-45.988 15.234-64.344l-10.365-12.362 42.838 1.084-7.263 41.344-11.808-14.082c-28.127 16.992-28.15 39.728-28.636 48.36z"/>
    </symbol>
    
    <symbol id="lcu">
      <path d="M56.25 57.423c0-2.388-1.939-4.327-4.327-4.327h-39.846c-2.388 0-4.327 1.939-4.327 4.327s1.939 4.327 4.327 4.327c0 0 39.846 0 39.846 0 2.388 0 4.327-1.939 4.327-4.327zM56.25 44.903c0-2.389-1.939-4.328-4.327-4.328h-39.846c-2.388 0-4.327 1.939-4.327 4.328 0 2.388 1.939 4.327 4.327 4.327 0 0 39.846 0 39.846 0 2.388 0 4.327-1.939 4.327-4.327zM56.25 32.382c0-2.388-1.939-4.327-4.327-4.327h-39.846c-2.388 0-4.327 1.939-4.327 4.327s1.939 4.327 4.327 4.327h39.846c2.388 0 4.327-1.939 4.327-4.327zM13.803 19.471v3.446h10.579v-5.844c0.837-0.373 1.624-0.848 2.343-1.41 2.237-1.745 3.347-4.068 3.371-6.392s-1.039-4.671-3.239-6.471v0c-0.887-0.725-1.951-1.273-3.024-1.702l-1.372 0.918-0.062 6.154c-0.003 0.286-0.167 0.503-0.402 0.659-0.376 0.249-0.899 0.364-1.472 0.364h-2.85c-0.565-0.008-1.082-0.142-1.452-0.406-0.242-0.173-0.413-0.406-0.41-0.702 0 0 0.062-6.155 0.062-6.155l-1.348-0.947c-1.083 0.403-2.158 0.924-3.060 1.628-2.237 1.746-3.347 4.068-3.371 6.392-0.023 2.323 1.039 4.671 3.239 6.471 0.725 0.593 1.567 1.067 2.437 1.454 0.016 0.617 0.026 1.607 0.031 2.543z"/>
    </symbol>
    
    <symbol id="sdh">
      <path d="M40.023 45.152c-3.477 2.591-7.729 4.192-12.407 4.221-10.406 0.066-20.276-8.26-21.806-18.699-1.731-11.814 7.58-24.164 20.12-25.040 0.561-0.039 1.124-0.055 1.686-0.053 10 0.095 19.38 7.75 21.337 17.619 1.156 5.829-0.437 11.92-3.87 16.758l13.82 13.819-5.128 5.128-13.752-13.753zM27.395 14.645c-6.236 0.060-12 5.17-12.677 11.431-0.588 5.436 2.691 11.076 7.773 13.229 6.62 2.806 15.346-1.167 17.352-8.391 2.055-7.404-3.759-16.031-12.032-16.265-0.139-0.003-0.278-0.004-0.416-0.004z"/>
    </symbol>
    
    
    <symbol id="ses">
      <path d="M73.934 15.359c-6.491-1.302-13.177-1.302-19.668 0 0.828 4.128 1.452 8.287 1.871 12.477-4.352 0.948-8.5 2.666-12.249 5.073-2.666-3.259-5.165-6.641-7.499-10.146-5.511 3.67-10.238 8.397-13.908 13.908 3.505 2.334 6.887 4.834 10.146 7.499-2.407 3.749-4.125 7.897-5.073 12.249-4.19-0.419-8.349-1.043-12.477-1.871-1.303 6.491-1.303 13.177 0 19.668 4.128-0.828 8.287-1.452 12.477-1.871 0.948 4.352 2.666 8.501 5.073 12.249-3.259 2.666-6.641 5.165-10.146 7.499 3.67 5.511 8.397 10.238 13.908 13.908 2.334-3.505 4.833-6.887 7.499-10.146 3.749 2.407 7.897 4.125 12.249 5.074-0.419 4.189-1.043 8.348-1.871 12.476 6.491 1.303 13.177 1.303 19.668 0-0.828-4.128-1.452-8.287-1.871-12.476 4.352-0.949 8.5-2.667 12.249-5.074 2.666 3.259 5.165 6.641 7.499 10.146 5.511-3.67 10.238-8.397 13.908-13.908-3.505-2.334-6.887-4.833-10.146-7.499 2.407-3.748 4.125-7.897 5.073-12.249 4.19 0.419 8.349 1.043 12.477 1.871 1.303-6.491 1.303-13.177 0-19.668-4.128 0.828-8.287 1.452-12.477 1.871-0.948-4.352-2.666-8.5-5.073-12.249 3.259-2.665 6.641-5.165 10.146-7.499-3.67-5.511-8.397-10.238-13.908-13.908-2.334 3.505-4.833 6.887-7.499 10.146-3.749-2.407-7.897-4.125-12.249-5.073 0.419-4.19 1.043-8.349 1.871-12.477zM64.1 50.882c7.451 0 13.5 6.049 13.5 13.5s-6.049 13.5-13.5 13.5c-7.451 0-13.5-6.049-13.5-13.5s6.049-13.5 13.5-13.5z"/>
    </symbol>
    

    <symbol id="afm">
      <path d="M32 13.243c-1.668 0-3.336 0.635-4.608 1.907l-24.485 24.485c-2.543 2.543-2.543 6.672 0 9.215s6.672 2.543 9.215 0l19.878-19.878 19.878 19.878c2.543 2.543 6.672 2.543 9.215 0s2.543-6.672 0-9.215l-24.485-24.485c-1.272-1.272-2.94-1.907-4.608-1.907z"/>
    </symbol>
    
    
    
    <symbol id="cgk">
      <path d="M5.601 32l18.857 18.856 33.941-33.941-3.772-3.771-30.169 30.17-15.085-15.085-3.772 3.771z"/>
    </symbol>

    
    <linearGradient id="bhm" x1="0" y1="0" x2="0" y2="1">
      <stop offset="0" style="stop-color:#000;stop-opacity:0.15"/>
      <stop offset="1" style="stop-color:#000;stop-opacity:0.19"/>
    </linearGradient>
    
    
    <linearGradient id="bim" x1="0" y1="0" x2="0" y2="1">
      <stop offset="0.4" style="stop-color:#0095ff"/>
      <stop offset="1" style="stop-color:#0d7bff"/>
    </linearGradient>
    

    
    
    
    
    

    <filter id="bjm" color-interpolation-filters="sRGB">
      <feDropShadow dx="0" dy="1.5" stdDeviation="1" flood-opacity="0.06"/>
      <feDropShadow dx="0" dy="0" stdDeviation="0.8" flood-opacity="0.2"/>
    </filter>
    

    

    
    

    <filter id="mkm" color-interpolation-filters="sRGB">
      <feDropShadow dx="-2" dy="19" stdDeviation="8" flood-opacity="0.1"/>
      <feDropShadow dx="0" dy="10" stdDeviation="23" flood-opacity="0.3"/>
    </filter>
    
    
  </defs>

  
    <rect x="0" y="0" width="1880" height="1300" style="fill:#b4d0cd"/>
  

  
    
    <rect x="0" y="0" width="1880" height="1330" style="fill:#000;fill-opacity:0.2"/>

    <g transform="matrix(1.41,0,0,1.41,-656,-271)" style="font-family:'Helvetica Neue',sans-serif-light,Helvetica,sans-serif;opacity:0.8">
      <rect x="81" y="81" width="1718" height="1140" rx="15" style="fill:#e7e8e8;stroke:#a6bbb9;stroke-width:1px"/>
      
        
          <rect x="82" y="192" width="1716" height="100" style="fill:#e7e8e8"/>
          
            
            
            
            
              <text x="408" y="192" dx="69" dy="59" style="font-size:26px;fill:#000">Import</text>
            
            
              <g transform="matrix(0.38,0,0,0.38,592,217)">
                <use href="#fbt" style="fill:#4c4c4c"/>
              </g>
              <text x="574" y="192" dx="69" dy="59" style="font-size:26px;fill:#000">Export</text>
            
            
              <rect x="756" y="212" width="1" height="61" style="fill:none;stroke:#000;stroke-opacity:0.3;stroke-dasharray:1px,3px"/>
            
            
              <g transform="matrix(0.38,0,0,0.38,773,217)">
                <use href="#ses" style="fill:#4c4c4c"/>
              </g>
              <text x="758" y="192" dx="69" dy="59" style="font-size:26px;fill:#000">Settings</text>
            
            
              
                <rect x="1049" y="224" width="125" height="30" rx="8" style="fill:#fff;stroke:url(#bhm);stroke-width:0.4px;filter:url(#bjm)"/>
                
                  <rect x="1146.5" y="227" width="24" height="24" rx="8" style="fill:url(#bim);stroke:url(#bhm);stroke-opacity:0.06;stroke-width:2px"/>
                  
                    
                      <g transform="matrix(0.16,0,0,0.16,1153.4,229.7)">
                        <use href="#afm" style="fill:#fff"/>
                      </g>
                      <g transform="matrix(0.16,0,0,-0.16,1153.4,248.7)">
                        <use href="#afm" style="fill:#fff"/>
                      </g>
                    
                    
                    
                  
                
                <text x="1049" y="224" dx="12" dy="22" style="font-size:20px;fill:#000">Profile 1</text>
              
            
            
              <text x="1196" y="192" dx="15" dy="59" style="font-size:26px;fill:#000">Connect</text>
            
            
              <text x="1329" y="192" dx="15" dy="59" style="font-size:26px;fill:#000">Disconnect</text>
            
            
              <rect x="1501" y="212" width="1" height="61" style="fill:none;stroke:#000;stroke-opacity:0.3;stroke-dasharray:1px,3px"/>
            
            
              <text x="1513" y="192" dx="15" dy="59" style="font-size:26px;fill:#000">Upload</text>
            
            
              <text x="1632" y="192" dx="15" dy="59" style="font-size:26px;fill:#000">Download</text>
            
          
          <rect x="80" y="192" width="1720" height="100" style="fill:none;stroke:#d0d0d0;stroke-width:2.4px;clip-path:inset(0px 2px)"/>
        
        
          <rect x="82" y="291" width="1716" height="835" style="fill:#f3f4f4"/>
          
            
            
              
              <text x="473" y="291" dx="10" dy="32" style="font-weight:bold;font-size:20px;fill:#000">Channels</text>
              
                
                  
                  <g transform="matrix(0.38,0,0,0.38,1751,303)">
                    <use href="#lcu" style="fill:#505050"/>
                  </g>
                
              
            
            
              
                <rect x="473" y="340" width="1325" height="26" style="fill:#ececec"/>
                <text x="473" y="340" dy="18" style="font-size:17px;fill:#000"><tspan x="479">Index</tspan> <tspan x="578">Name</tspan></text>
                <rect x="571" y="343" width="0.5" height="19" style="fill:none;stroke:#c7c7c7;stroke-width:1px"/>
              
              
                <rect x="473" y="366" width="1325" height="687" style="fill:#fff"/>
                
                  <rect x="473" y="707" width="1325" height="49" style="fill:#0044e2"/>
                  <text x="473" y="366" dy="31" style="font-size:19px;fill:#000"><tspan x="500">38</tspan> <tspan x="580">Giallo</tspan></text>
                  <text x="473" y="415" dy="31" style="font-size:19px;fill:#000"><tspan x="500">39</tspan> <tspan x="580">TOPcrime HD</tspan></text>
                  <text x="473" y="464" dy="31" style="font-size:19px;fill:#000"><tspan x="500">40</tspan> <tspan x="580">Boing HD</tspan></text>
                  <text x="473" y="512" dy="31" style="font-size:19px;fill:#000"><tspan x="500">41</tspan> <tspan x="580">K2</tspan></text>
                  <text x="473" y="561" dy="31" style="font-size:19px;fill:#000"><tspan x="500">42</tspan> <tspan x="580">Rai Gulp HD</tspan></text>
                  <text x="473" y="610" dy="31" style="font-size:19px;fill:#000"><tspan x="500">43</tspan> <tspan x="580">Rai YoYo HD</tspan></text>
                  <text x="473" y="658" dy="31" style="font-size:19px;fill:#000"><tspan x="500">44</tspan> <tspan x="580">Frisbee</tspan></text>
                  <text x="473" y="707" dy="31" style="font-size:19px;fill:#fff"><tspan x="500">45</tspan> <tspan x="580">NASA+</tspan></text>
                  <text x="473" y="756" dy="31" style="font-size:19px;fill:#000"><tspan x="500">46</tspan> <tspan x="580">Cartoonito HD</tspan></text>
                  <text x="473" y="805" dy="31" style="font-size:19px;fill:#000"><tspan x="500">47</tspan> <tspan x="580">Super!</tspan></text>
                  <text x="473" y="854" dy="31" style="font-size:19px;fill:#000"><tspan x="500">48</tspan> <tspan x="580">Rai News 24 HD</tspan></text>
                  <text x="473" y="902" dy="31" style="font-size:19px;fill:#000"><tspan x="500">49</tspan> <tspan x="580">Mediaset Italia2 HD</tspan></text>
                  <text x="473" y="951" dy="31" style="font-size:19px;fill:#000"><tspan x="500">50</tspan> <tspan x="580">Sky TG24</tspan> <tspan x="990">90</tspan> <tspan x="1114">512</tspan> <tspan x="1235">H.264</tspan> <tspan x="1433">Persidera</tspan> <tspan x="1703">DVB-T</tspan></text>
                  <text x="473" y="997" dy="31" style="font-size:19px;fill:#000"><tspan x="500">51</tspan> <tspan x="580">TGCOM24 HD</tspan> <tspan x="990">128</tspan> <tspan x="1114">1200</tspan> <tspan x="1235">HD</tspan> <tspan x="1433">Mediaset</tspan> <tspan x="1703">DVB-S2</tspan></text>
                
              
              
                
                
                
                
                
                <rect x="1782" y="541" width="12" height="77" rx="7" style="fill:#7f7f7f"/>
              
              
                
                
                
                
                
                
              
               
            
            
              <rect x="473" y="1026" width="1325" height="73" style="fill:#f7f8f8"/>
              <rect x="471" y="1025" width="1329" height="73" style="fill:none;stroke:#e9eaea;stroke-width:2.4px;clip-path:inset(0px 2px 2px)"/>
              
                
                  
                  <g transform="matrix(0.26,0,0,0.26,492,1052)">
                    <use href="#aad" style="fill:#545454"/>
                  </g>
                  <text x="487" y="1036" dx="28" dy="33" style="font-weight:bold;font-size:21px;fill:#000">Channel</text>
                
                
                  <g transform="matrix(0.26,0,0,0.26,625,1052)">
                    <use href="#aad" style="fill:#545454"/>
                  </g>
                  <text x="621" y="1036" dx="28" dy="33" style="font-weight:bold;font-size:21px;fill:#000">Stream</text>
                
                
                  <g transform="matrix(0.26,0,0,0.26,746,1052)">
                    <use href="#aad" style="fill:#545454"/>
                  </g>
                  <text x="742" y="1036" dx="28" dy="33" style="font-weight:bold;font-size:21px;fill:#000">Marker</text>
                
                <g style="opacity:0.24">
                  <g transform="matrix(0.26,0,0,0.26,867,1052)">
                    <use href="#aad" style="fill:#545454"/>
                  </g>
                  <text x="862" y="1036" dx="28" dy="33" style="font-weight:bold;font-size:21px;fill:#000">Service</text>
                </g>
                
                  <rect x="993" y="1044" width="135" height="32" rx="8" style="fill:#fff;stroke:url(#bhm);stroke-width:0.4px;filter:url(#bjm)"/>
                  <text x="993" y="1044" dx="22" dy="22" style="font-size:20px;fill:#000">Reference</text>
                
                
                <g style="opacity:0.24">
                  <rect x="1157" y="1044" width="147" height="32" rx="8" style="fill:#fff;stroke:url(#bhm);stroke-width:0.4px;filter:url(#bjm)"/>
                  <text x="1157" y="1044" dx="25" dy="22" style="font-size:20px;fill:#000">Drag&amp;Drop</text>
                </g>
                
                  <rect x="1652" y="1044" width="128" height="32" rx="8" style="fill:#fff;stroke:url(#bhm);stroke-width:0.4px;filter:url(#bjm)"/>
                  <g transform="matrix(0.38,0,0,0.38,1664,1047)">
                    <use href="#sdh" style="fill:#545454"/>
                  </g>
                  <text x="1652" y="1044" dx="46" dy="22" style="font-size:20px;fill:#000">Find<tspan style="font-size:15px">…</tspan></text>
                
              
            
          
          <rect x="80" y="291" width="1720" height="836" style="fill:none;stroke:#d5d6d6;stroke-width:2.4px;clip-path:inset(0px 2px)"/>
        
      
      <rect x="81" y="81" width="1718" height="1140" style="fill:#000;opacity:0.1"/>
    </g>
  

  <g transform="matrix(1.41,0,0,1.41,321,189)" style="font-family:'Helvetica Neue',sans-serif-light,Helvetica,sans-serif">
    <rect x="1" y="1" width="1061" height="650" rx="15" style="fill:#f3f4f4;stroke:#a6bbb9;stroke-width:1px;filter:url(#mkm)"/>
    
      <rect x="2" y="2" width="1059" height="57" rx="15" style="fill:#f8f9f9;stroke:#fff;stroke-width:1px;clip-path:inset(0px 0px 15px)"/>
      <rect x="1" y="44" width="1061" height="1" style="fill:none;stroke:#cdcece;stroke-width:0.5px"/>
      <text x="2" y="2" dx="529" dy="28" text-anchor="middle" style="font-family:'Helvetica Neue',Helvetica,sans-serif;font-weight:bold;font-size:20px;fill:#494949">Add Channel</text>
      
      
        <ellipse cx="21" cy="23" rx="8.8" style="fill:#ff5f5a;stroke:#000;stroke-opacity:0.1"/>
        <ellipse cx="52" cy="23" rx="8.8" style="fill:#dedfcf;stroke:#000;stroke-opacity:0.1"/>
        <ellipse cx="83" cy="23" rx="8.8" style="fill:#28c840;stroke:#000;stroke-opacity:0.1"/>
      
      
      
    
    
      
        
          
          
            
              <g transform="matrix(-0.26,0,0,0.26,971,53)">
                <use href="#afm" style="fill:#252525"/>
              </g>
            
            
            
          
          <text x="976" y="51" dy="15" style="font-weight:bold;font-size:16.5px;fill:#252525">collapse</text>
        
      
      
        <rect x="1" y="75" width="227" height="507" style="fill:#e7e8e8"/>
        
          <text x="1" y="76" dx="22" dy="38" style="font-size:22.5px">Services</text>
          <text x="1" y="136" dx="22" dy="38" style="font-size:22.5px">Bouquets</text>
          <text x="1" y="197" dx="22" dy="38" style="font-size:22.5px">Positions</text>
          <rect x="1" y="257" width="227" height="60" style="fill:#d5d6d6"/>
          <text x="1" y="257" dx="22" dy="38" style="font-size:22.5px">Providers</text>
          <text x="1" y="318" dx="22" dy="38" style="font-size:22.5px">Resolution</text>
          <text x="1" y="379" dx="22" dy="38" style="font-size:22.5px">Encryption</text>
          <text x="1" y="438" dx="22" dy="38" style="font-size:22.5px">A-Z</text>
        
      
      
        
          
            <rect x="228" y="75" width="263" height="507" style="fill:#fff"/>
            
              <rect x="228" y="347" width="263" height="34" style="fill:#ebebeb" />
              <text x="255" y="75" dy="29" style="font-size:19.5px">M7 Group</text>
              <text x="255" y="108" dy="29" style="font-size:19.5px">MB Satellite</text>
              <text x="255" y="141" dy="29" style="font-size:19.5px">MCEU</text>
              <text x="255" y="175" dy="29" style="font-size:19.5px">MTHREE SATCOM</text>
              <text x="255" y="208" dy="29" style="font-size:19.5px">Mediaset</text>
              <text x="255" y="241" dy="29" style="font-size:19.5px">NOVA</text>
              <text x="255" y="274" dy="29" style="font-size:19.5px">NURTS</text>
              <text x="255" y="306" dy="29" style="font-size:19.5px">Nimbus</text>
              <text x="255" y="341" dy="29" style="font-size:19.5px">NoName</text>
              <text x="255" y="378" dy="29" style="font-size:19.5px">Persidera</text>
              <text x="255" y="412" dy="29" style="font-size:19.5px">PlayBox Neo Suite</text>
              <text x="255" y="446" dy="29" style="font-size:19.5px">RAI</text>
              <text x="255" y="479" dy="29" style="font-size:19.5px">Radio RTR</text>
              <text x="255" y="512" dy="29" style="font-size:19.5px">Radio Television Suisse</text>
              <text x="255" y="544" dy="29" style="font-size:19.5px">Radio ZET Gold</text>
            
          
          
            
            
            
            
            
            <rect x="477" y="299" width="12" height="94" rx="7" style="fill:#000;fill-opacity:0.46"/>
          
        
        
          
          <ellipse cx="496.3" cy="329.4" rx="4" style="fill:#dadbdb"/>
          
        
        
          
            <rect x="502" y="75" width="559" height="26" style="fill:#ececec"/>
            <text x="502" y="75" dy="18" style="font-size:17px;fill:#000"><tspan x="508">Index</tspan> <tspan x="596">Name</tspan> <tspan x="822">Type</tspan> <tspan x="937">Provider</tspan></text>
            <rect x="589" y="78" width="0.5" height="19" style="fill:none;stroke:#c7c7c7;stroke-width:1px"/>
            <rect x="815" y="78" width="0.5" height="19" style="fill:none;stroke:#c7c7c7;stroke-width:1px"/>
            <rect x="929" y="78" width="0.5" height="19" style="fill:none;stroke:#c7c7c7;stroke-width:1px"/>
          
          
            <rect x="502" y="101" width="559" height="481" style="fill:#fff"/>
            
              <rect x="502" y="469" width="559" height="34" style="fill:#0044e2"/>
              <text x="502" y="95" dy="29" style="font-size:19.5px;opacity:0.25"><tspan x="528">26</tspan> <tspan x="597">CH4441</tspan> <tspan x="823">Data</tspan> <tspan x="938">NoName</tspan></text>
              <text x="502" y="128" dy="29" style="font-size:19.5px;opacity:0.25"><tspan x="528">27</tspan> <tspan x="597">CH4442</tspan> <tspan x="823">Data</tspan> <tspan x="938">NoName</tspan></text>
              <text x="502" y="162" dy="29" style="font-size:19.5px;opacity:0.25"><tspan x="528">28</tspan> <tspan x="597">CH4443</tspan> <tspan x="823">Data</tspan> <tspan x="938">NoName</tspan></text>
              <text x="502" y="195" dy="29" style="font-size:19.5px;opacity:0.25"><tspan x="528">29</tspan> <tspan x="597">CH4445</tspan> <tspan x="823">Data</tspan> <tspan x="938">NoName</tspan></text>
              <text x="502" y="228" dy="29" style="font-size:19.5px;opacity:0.25"><tspan x="528">30</tspan> <tspan x="597">CH4447</tspan> <tspan x="823">Data</tspan> <tspan x="938">NoName</tspan></text>
              <text x="502" y="262" dy="29" style="font-size:19.5px;opacity:0.25"><tspan x="528">31</tspan> <tspan x="597">CH4448</tspan> <tspan x="823">Data</tspan> <tspan x="938">NoName</tspan></text>
              <text x="502" y="296" dy="29" style="font-size:19.5px"><tspan x="528">39</tspan> <tspan x="597">Museum 4K</tspan> <tspan x="823">TV</tspan> <tspan x="938">NoName</tspan></text>
              <text x="502" y="330" dy="29" style="font-size:19.5px"><tspan x="528">40</tspan> <tspan x="597">MyZen 4K</tspan> <tspan x="823">TV</tspan> <tspan x="938">NoName</tspan></text>
              <text x="502" y="363" dy="29" style="font-size:19.5px"><tspan x="528">63</tspan> <tspan x="597">Fokus TV HD</tspan> <tspan x="823">TV</tspan> <tspan x="938">NoName</tspan></text>
              <text x="502" y="396" dy="29" style="font-size:19.5px;opacity:0.25"><tspan x="528">94</tspan> <tspan x="597">CH15790</tspan> <tspan x="823">Radio</tspan> <tspan x="938">NoName</tspan></text>
              <text x="502" y="428" dy="29" style="font-size:19.5px;opacity:0.25"><tspan x="528">95</tspan> <tspan x="597">CH15797</tspan> <tspan x="823">Data</tspan> <tspan x="938">NoName</tspan></text>
              <text x="502" y="464" dy="29" style="font-size:19.5px;fill:#fff"><tspan x="528">130</tspan> <tspan x="597">HotBird 4K1</tspan> <tspan x="823">TV</tspan> <tspan x="938">NoName</tspan></text>
              <text x="502" y="500" dy="29" style="font-size:19.5px;opacity:0.25"><tspan x="528">246</tspan> <tspan x="823">Data</tspan> <tspan x="938">NoName</tspan></text>
              <text x="502" y="533" dy="29" style="font-size:19.5px;opacity:0.25"><tspan x="528">247</tspan> <tspan x="823">Data</tspan> <tspan x="938">NoName</tspan></text>
              <text x="502" y="565" dy="29" style="font-size:19.5px;opacity:0.25"><tspan x="528">248</tspan> <tspan x="823">Data</tspan> <tspan x="938">NoName</tspan></text>
            
          
          
            
            
            
            
            
            <rect x="1048" y="102" width="12" height="51" rx="7" style="fill:#000;fill-opacity:0.46"/>
          
          
            
            
            
            
            
            <rect x="503" y="568" width="257" height="12" rx="7" style="fill:#000;fill-opacity:0.46"/>
          
          
        
      
      
        <rect x="1" y="568" width="1061" height="82" rx="15" style="fill:#f3f4f4;clip-path:inset(15px 0px 0px)"/>
        
          <g transform="matrix(0.9,0,0,0.9,15,604)">
            <rect x="0.5" y="1" width="24" height="24" rx="8" style="fill:url(#bim);stroke:url(#bhm);stroke-opacity:0.06;stroke-width:2px"/>
            <g transform="matrix(0.22,0,0,0.3,5.8,3.6)">
              <use href="#cgk" style="fill:#fff;stroke:#fff;stroke-width:7.1px"/>
            </g>
          </g>
          <text x="43" y="604" dy="19" style="font-size:20.5px">Filters for service type</text>
        
        
          <text x="821" y="591" dx="28" dy="34" style="font-size:23.5px;fill:#000">Cancel</text>
        
        
          <g transform="matrix(0.34,0,0,0.34,955,605)">
            <use href="#aad" style="fill:#505050"/>
          </g>
          <text x="955" y="591" dx="28" dy="34" style="font-size:23.5px;fill:#000">Add</text>
        
        <rect x="1" y="582" width="1061" height="1.4" style="fill:#e0e1e1"/>
      
    
    <rect x="1" y="1" width="1061" height="650" rx="15" style="fill:none;stroke:#c1c1c1;stroke-width:1px"/>
    <rect x="3" y="3" width="1057" height="646" rx="15" style="fill:none;stroke:#fff;stroke-opacity:0.09;stroke-width:1px"/>
  </g>

</svg>
