<svg xmlns="http://www.w3.org/2000/svg" xmlns:xlink="http://www.w3.org/1999/xlink" viewBox="0 0 1880 1300" style="pointer-events:none;user-select:none">
  
  <defs>
    <symbol id="aad">
      <path d="M37.75 37.75h18.127v-11.5h-18.127c0 0 0-18.127 0-18.127h-11.5v18.127c0 0-18.127 0-18.127 0v11.5h18.127c0 0 0 18.127 0 18.127h11.5v-18.127z"/>
    </symbol>
    <symbol id="cbw">
      <path d="M60 14.973l-3-0.522v35.716c-3.141-0.28-8.021-0.667-11-0.667-0.95 0-2.094 0.039-3.312 0.102-0.962 0.036-2.014 0.106-3.059 0.191-2.678 0.191-5.264 0.428-6.629 0.559v-35.901c0 0 6.61-1.451 9.963-1.451 4 0 14.037 1.451 14.037 1.451l3.001 0.522c1.769 0.819 2.999 2.61 2.999 4.687v32.68c0 2.848-2.312 5.16-5.16 5.16h-51.68c-2.848 0-5.16-2.312-5.16-5.16v-32.68c0-2.077 1.23-3.869 3-4.687l3-0.522c0 0 10.037-1.451 14.037-1.451 3.353 0 9.963 1.451 9.963 1.451v35.901c-1.366-0.131-3.951-0.368-6.629-0.559-1.045-0.085-2.097-0.155-3.059-0.191-1.218-0.063-2.362-0.102-3.312-0.102-2.979 0-7.859 0.387-11 0.667v-35.716l-3 0.522v38.765h56v-38.765zM28.5 42.5c0-1.104-0.896-2-2-2h-14c-1.104 0-2 0.896-2 2s0.896 2 2 2h14c1.104 0 2-0.896 2-2zM53.5 42.5c0-1.104-0.896-2-2-2h-14c-1.104 0-2 0.896-2 2s0.896 2 2 2h14c1.104 0 2-0.896 2-2zM28.5 35.5c0-1.104-0.896-2-2-2h-14c-1.104 0-2 0.896-2 2s0.896 2 2 2h14c1.104 0 2-0.896 2-2zM53.5 35.5c0-1.104-0.896-2-2-2h-14c-1.104 0-2 0.896-2 2s0.896 2 2 2h14c1.104 0 2-0.896 2-2zM28.5 28.5c0-1.104-0.896-2-2-2h-14c-1.104 0-2 0.896-2 2s0.896 2 2 2h14c1.104 0 2-0.896 2-2zM53.5 28.5c0-1.104-0.896-2-2-2h-14c-1.104 0-2 0.896-2 2s0.896 2 2 2h14c1.104 0 2-0.896 2-2zM28.5 21.5c0-1.104-0.896-2-2-2h-14c-1.104 0-2 0.896-2 2s0.896 2 2 2h14c1.104 0 2-0.896 2-2zM53.5 21.5c0-1.104-0.896-2-2-2h-14c-1.104 0-2 0.896-2 2s0.896 2 2 2h14c1.104 0 2-0.896 2-2z"/>
    </symbol>
    <symbol id="cce">
      <path d="M62.328 7.276l-5.604-5.604-24.724 24.724c0 0-24.724-24.724-24.724-24.724l-5.604 5.604 24.724 24.724c0 0-24.724 24.724-24.724 24.724l5.604 5.604 24.724-24.724c0 0 24.724 24.724 24.724 24.724l5.604-5.604-24.724-24.724c0 0 24.724-24.724 24.724-24.724z"/>
    </symbol>
    
    
    
    <symbol id="fdt">
      <path d="M56.256 31.057h-42.438c-7.074 0-12.818 5.744-12.818 12.818v61.295c0 7.074 5.744 12.818 12.818 12.818h54.476c7.075 0 12.818-5.744 12.818-12.818v-51.051c-16.616 14.040-16.649 30.281-17.025 36.965-0.151 2.687-1.869 5.034-4.385 5.99s-5.359 0.343-7.257-1.565c-14.421-14.502-16.181-43.133 3.811-64.452zM57.293 90.694c-14.624-14.705-13.039-45.988 15.234-64.344l-10.365-12.362 42.838 1.084-7.263 41.344-11.808-14.082c-28.127 16.992-28.15 39.728-28.636 48.36z"/>
    </symbol>
    <symbol id="fet">
      <path d="M87.8 55.714h8.488c5.912 0 10.712 4.753 10.712 10.606v45.074c0 5.854-4.8 10.606-10.712 10.606h-84.576c-5.912 0-10.712-4.752-10.712-10.606v-45.074c0-5.853 4.8-10.606 10.712-10.606h19.788l22.5 21.827c1.413 1.374 4.32 2.133 6.3 2.109 1.98-0.023 4.821-0.828 6.2-2.236l21.3-21.7zM93.982 6.385c-17.881-3.082-49.582 12.531-44.921 39.525h-15.517l27.127 26.376 25.847-26.376h-14.41c-4.833-24.162 15.844-35.121 21.874-39.525z"/>
    </symbol>
    <symbol id="ffo">
      <path d="M32 62.5c-16.833 0-30.5-13.667-30.5-30.5s13.667-30.5 30.5-30.5v9.611c-0.352-0.073-0.717-0.111-1.090-0.111-2.99 0-5.42 2.43-5.42 5.41 0 2.99 2.43 5.42 5.42 5.42 0.373 0 0.738-0.038 1.090-0.111v5.111l-7.44 0.18 2.82 1.23v22.7l-2.82 2.060h7.44v9.5zM32 11.111v-9.611c16.833 0 30.5 13.667 30.5 30.5s-13.667 30.5-30.5 30.5v-9.5h9.46l-5.76-2.060v-24.2l-3.7 0.090v-5.111c2.46-0.506 4.32-2.693 4.32-5.309 0-2.607-1.86-4.793-4.32-5.299z"/>
    </symbol>
    <symbol id="fgn">
      <path d="M21 42.973h89.077c2.783 0 4.643 2.26 4.153 5.042l-9.34 52.943c-0.491 2.783-3.149 5.042-5.932 5.042h-91.118c-2.119 0-3.84-1.721-3.84-3.84v-80.16h67.2l16.8 14h-72v32h5v-25.027z"/>
    </symbol>
    <symbol id="fhe">
      <path d="M114 22v86.16c0 2.119-1.721 3.84-3.84 3.84h-92.32c-2.119 0-3.84-1.721-3.84-3.84v-88.32c0-2.119 1.721-3.84 3.84-3.84h91.16l5 6zM94 59.014v-40h-56v40h56zM84.5 26v30h-15v-30h15z"/>
    </symbol>
    <symbol id="liu">
      <path d="M56.25 57.423c0-2.388-1.939-4.327-4.327-4.327h-39.846c-2.388 0-4.327 1.939-4.327 4.327s1.939 4.327 4.327 4.327c0 0 39.846 0 39.846 0 2.388 0 4.327-1.939 4.327-4.327zM56.25 44.903c0-2.389-1.939-4.328-4.327-4.328h-39.846c-2.388 0-4.327 1.939-4.327 4.328 0 2.388 1.939 4.327 4.327 4.327 0 0 39.846 0 39.846 0 2.388 0 4.327-1.939 4.327-4.327zM56.25 32.382c0-2.388-1.939-4.327-4.327-4.327h-39.846c-2.388 0-4.327 1.939-4.327 4.327s1.939 4.327 4.327 4.327h39.846c2.388 0 4.327-1.939 4.327-4.327zM13.803 19.471v3.446h10.579v-5.844c0.837-0.373 1.624-0.848 2.343-1.41 2.237-1.745 3.347-4.068 3.371-6.392s-1.039-4.671-3.239-6.471v0c-0.887-0.725-1.951-1.273-3.024-1.702l-1.372 0.918-0.062 6.154c-0.003 0.286-0.167 0.503-0.402 0.659-0.376 0.249-0.899 0.364-1.472 0.364h-2.85c-0.565-0.008-1.082-0.142-1.452-0.406-0.242-0.173-0.413-0.406-0.41-0.702 0 0 0.062-6.155 0.062-6.155l-1.348-0.947c-1.083 0.403-2.158 0.924-3.060 1.628-2.237 1.746-3.347 4.068-3.371 6.392-0.023 2.323 1.039 4.671 3.239 6.471 0.725 0.593 1.567 1.067 2.437 1.454 0.016 0.617 0.026 1.607 0.031 2.543z"/>
    </symbol>
    <symbol id="pjw">
      <path d="M14.762 29.23h34.49c0 0 13.928 14.478 11.463 15.596-1.067 0.483-6.127-1.117-11.524-3.087v20.261h-34.389v-20.253c-5.389 1.967-10.437 3.562-11.502 3.079-2.465-1.118 11.462-15.596 11.462-15.596zM36.774 11.359h-20.475v13.19h6.364v-10.552h14.111v-2.638zM38.538 16.635h-14.111v7.914h14.111v-7.914zM45.299 10.4v14.149h-4.283v-9.233h-2.478v-4.916h6.761zM36.632 3.482h-18.173v5.276h18.173v-5.276z"/>
    </symbol>
    <symbol id="skh">
      <path d="M40.023 45.152c-3.477 2.591-7.729 4.192-12.407 4.221-10.406 0.066-20.276-8.26-21.806-18.699-1.731-11.814 7.58-24.164 20.12-25.040 0.561-0.039 1.124-0.055 1.686-0.053 10 0.095 19.38 7.75 21.337 17.619 1.156 5.829-0.437 11.92-3.87 16.758l13.82 13.819-5.128 5.128-13.752-13.753zM27.395 14.645c-6.236 0.060-12 5.17-12.677 11.431-0.588 5.436 2.691 11.076 7.773 13.229 6.62 2.806 15.346-1.167 17.352-8.391 2.055-7.404-3.759-16.031-12.032-16.265-0.139-0.003-0.278-0.004-0.416-0.004z"/>
    </symbol>
    
    
    <symbol id="sls">
      <path d="M73.934 15.359c-6.491-1.302-13.177-1.302-19.668 0 0.828 4.128 1.452 8.287 1.871 12.477-4.352 0.948-8.5 2.666-12.249 5.073-2.666-3.259-5.165-6.641-7.499-10.146-5.511 3.67-10.238 8.397-13.908 13.908 3.505 2.334 6.887 4.834 10.146 7.499-2.407 3.749-4.125 7.897-5.073 12.249-4.19-0.419-8.349-1.043-12.477-1.871-1.303 6.491-1.303 13.177 0 19.668 4.128-0.828 8.287-1.452 12.477-1.871 0.948 4.352 2.666 8.501 5.073 12.249-3.259 2.666-6.641 5.165-10.146 7.499 3.67 5.511 8.397 10.238 13.908 13.908 2.334-3.505 4.833-6.887 7.499-10.146 3.749 2.407 7.897 4.125 12.249 5.074-0.419 4.189-1.043 8.348-1.871 12.476 6.491 1.303 13.177 1.303 19.668 0-0.828-4.128-1.452-8.287-1.871-12.476 4.352-0.949 8.5-2.667 12.249-5.074 2.666 3.259 5.165 6.641 7.499 10.146 5.511-3.67 10.238-8.397 13.908-13.908-3.505-2.334-6.887-4.833-10.146-7.499 2.407-3.748 4.125-7.897 5.073-12.249 4.19 0.419 8.349 1.043 12.477 1.871 1.303-6.491 1.303-13.177 0-19.668-4.128 0.828-8.287 1.452-12.477 1.871-0.948-4.352-2.666-8.5-5.073-12.249 3.259-2.665 6.641-5.165 10.146-7.499-3.67-5.511-8.397-10.238-13.908-13.908-2.334 3.505-4.833 6.887-7.499 10.146-3.749-2.407-7.897-4.125-12.249-5.073 0.419-4.19 1.043-8.349 1.871-12.477zM64.1 50.882c7.451 0 13.5 6.049 13.5 13.5s-6.049 13.5-13.5 13.5c-7.451 0-13.5-6.049-13.5-13.5s6.049-13.5 13.5-13.5z"/>
    </symbol>
    <symbol id="tmw">
      <path d="M64 64v-19h-64v19h64zM38.975 58.253l0.001 1.834c0.001 1.076-0.872 1.949-1.947 1.949s-1.949-0.873-1.95-1.949l-0.002-6.41-1.968 1.774c-0.407 0.367-0.947 0.542-1.48 0.524-0.533 0.018-1.073-0.157-1.48-0.524l-1.968-1.774-0.003 6.41c0 1.076-0.874 1.949-1.949 1.949s-1.948-0.873-1.948-1.949l0.002-5.24h-6.669l4.099 3.89c0.751 0.713 0.751 1.869 0.002 2.581-0.75 0.711-1.968 0.71-2.719-0.002l-4.104-3.895-4.104 3.895c-0.751 0.712-1.969 0.713-2.719 0.002-0.75-0.712-0.749-1.868 0.002-2.581l4.104-3.895-4.104-3.895c-0.751-0.712-0.752-1.868-0.002-2.58s1.968-0.711 2.719 0.002l4.104 3.895 4.104-3.895c0.751-0.713 1.969-0.713 2.719-0.002 0.749 0.712 0.749 1.868-0.002 2.58l-4.099 3.89h6.669l0.002-5.24c0-0.024 0.001-0.048 0.002-0.072-0.031-0.488 0.159-0.985 0.571-1.356 0.276-0.249 0.614-0.408 0.97-0.477 0.131-0.028 0.267-0.043 0.406-0.043 0.058 0 0.115 0.002 0.172 0.007 0.454 0.033 0.899 0.206 1.247 0.52l3.976 3.583 3.975-3.583c0.348-0.314 0.793-0.487 1.248-0.52 0.056-0.005 0.114-0.007 0.171-0.007 0.14 0 0.276 0.015 0.407 0.043 0.356 0.069 0.694 0.228 0.97 0.477 0.412 0.371 0.602 0.868 0.571 1.356 0.001 0.024 0.001 0.048 0.001 0.072l0.003 8.646h2.912l0.003-8.83c0-1.076 0.874-1.949 1.949-1.949s1.948 0.873 1.948 1.949l-0.004 8.839 6.372 0.002c0.993 0.001 1.798 0.807 1.798 1.799 0 0.993-0.805 1.798-1.798 1.798l-8.471-0.003c-0.992 0-1.798-0.806-1.798-1.799l0.001-1.796h-2.912zM25.286 39.498c-0.095 0.001-0.19 0.002-0.286 0.002-10.072 0-18.25-8.402-18.25-18.75s8.178-18.75 18.25-18.75c10.072 0 18.25 8.402 18.25 18.75 0 3.307-0.835 6.416-2.301 9.115l11.051-4.023v-3.071c0-0.828 0.672-1.5 1.5-1.5h3c0.828 0 1.5 0.672 1.5 1.5v11c0 0.828-0.672 1.5-1.5 1.5h-3c-0.828 0-1.5-0.672-1.5-1.5v-1.543l-25.926 9.436-0.788-2.166z"/>
    </symbol>

    <symbol id="anm">
      <path d="M32 13.243c-1.668 0-3.336 0.635-4.608 1.907l-24.485 24.485c-2.543 2.543-2.543 6.672 0 9.215s6.672 2.543 9.215 0l19.878-19.878 19.878 19.878c2.543 2.543 6.672 2.543 9.215 0s2.543-6.672 0-9.215l-24.485-24.485c-1.272-1.272-2.94-1.907-4.608-1.907z"/>
    </symbol>
    <symbol id="aow">
      <path d="M32 30.114l27.467 29.239v-24.615l-27.467-29.24-27.467 29.24v24.615l27.467-29.239z"/>
    </symbol>
    <symbol id="apw">
      <path d="M32 36.23l-20.23-19.657c-1.255-1.22-3.294-1.22-4.549 0 0 0-1.913 1.859-1.913 1.859-1.269 1.233-1.269 3.235 0 4.468 0 0 26.57 25.818 26.57 25.818l0.122-0.118c0 0 0.12 0.12 0.12 0.12l26.572-25.82c1.269-1.233 1.269-3.235 0-4.468 0 0-2.363-2.297-2.363-2.297-1.007-0.978-2.642-0.978-3.649 0l-20.68 20.095z"/>
    </symbol>
    
    

    <linearGradient id="bqm" x1="0" y1="0" x2="0" y2="1">
      <stop offset="0" style="stop-color:#e2e2e2"/>
      <stop offset="0.7" style="stop-color:#f7f7f7"/>
    </linearGradient>
    <linearGradient id="brm" x1="0" y1="0" x2="0" y2="1">
      <stop offset="0" style="stop-color:#000;stop-opacity:0.15"/>
      <stop offset="1" style="stop-color:#000;stop-opacity:0.19"/>
    </linearGradient>
    
    
    <linearGradient id="bsm" x1="0" y1="0" x2="0" y2="1">
      <stop offset="0.4" style="stop-color:#0095ff"/>
      <stop offset="1" style="stop-color:#0d7bff"/>
    </linearGradient>
    

    
    
    
    
    

    <filter id="btm" color-interpolation-filters="sRGB">
      <feDropShadow dx="0" dy="1.5" stdDeviation="1" flood-opacity="0.06"/>
      <feDropShadow dx="0" dy="0" stdDeviation="0.8" flood-opacity="0.2"/>
    </filter>
    

    

    
    

    
    
    


    <marker id="aud" markerWidth="3" markerHeight="3" refX="1.75" refY="1.75" viewBox="0 0 3.5 3.5" orient="auto">
      <polygon points="0.7,3.5 0,1.75 0.7,0 3.5,1.75" style="fill:#0bbbcc"/>
    </marker>

    <symbol id="pvn">
      
        <g transform="matrix(0.75,0,0,0.75,20.3,11.9)">
          <rect x="48.3" y="24.2" width="50" height="32" style="fill:none;stroke:#c0c0c0;stroke-opacity:0.96;stroke-width:2.5px"/>
          
            <rect x="0" y="0" width="2.5" height="56" transform="matrix(0.53,-0.848,0.848,0.53,49,27)" style="fill:#c0c0c0;fill-opacity:0.96"/>
            <rect x="23" y="-42" width="2.5" height="56" transform="matrix(0.53,0.848,-0.848,0.53,49,27)" style="fill:#c0c0c0;fill-opacity:0.96"/>
          
        </g>
        <rect x="2" y="2" width="148" height="78" style="fill:none;stroke:#c4c4c4;stroke-opacity:0.9;stroke-width:3.3px"/>
      
    </symbol>
    <linearGradient id="pwg" x1="0" y1="0" x2="0" y2="1">
      <stop offset="0.5" style="stop-color:#f4f4f4"/>
      <stop offset="1" style="stop-color:#e2e2e2"/>
    </linearGradient>
    
    <filter id="ixm" color-interpolation-filters="sRGB">
      <feDropShadow dx="0" dy="2.3" stdDeviation="2" flood-opacity="0.4"/>
    </filter>
    <filter id="iym" color-interpolation-filters="sRGB">
      <feDropShadow dx="-1.8" dy="1.7" stdDeviation="3" flood-opacity="0.3"/>
      <feDropShadow dx="0" dy="0" stdDeviation="2" flood-opacity="0.12"/>
    </filter>
    
    
  </defs>

  
    <rect x="0" y="0" width="1880" height="1300" style="fill:#b4d0cd"/>
  

  <g style="font-family:'Helvetica Neue',sans-serif-light,Helvetica,sans-serif">
    <rect x="501" y="81" width="1298" height="1140" rx="15" style="fill:#e7e8e8;stroke:#191919;stroke-width:1px"/>
    
      <rect x="502" y="82" width="1296" height="57" rx="15" style="fill:#f8f9f9;stroke:#fff;stroke-width:1px;clip-path:inset(0px 0px 15px)"/>
      <rect x="501" y="124" width="1298" height="1" style="fill:none;stroke:#cdcece;stroke-width:0.5px"/>
      <text x="502" y="82" dx="649" dy="28" text-anchor="middle" style="font-family:'Helvetica Neue',Helvetica,sans-serif;font-weight:bold;font-size:20px;fill:#494949">e2 SAT Editor</text>
      
      
        <ellipse cx="523" cy="103" rx="8.8" style="fill:#ff5f5a;stroke:#000;stroke-opacity:0.1"/>
        <ellipse cx="553" cy="103" rx="8.8" style="fill:#febc2e;stroke:#000;stroke-opacity:0.1"/>
        <ellipse cx="584" cy="103" rx="8.8" style="fill:#28c840;stroke:#000;stroke-opacity:0.1"/>
      
      
      
    
    
    
      
        <rect x="502" y="125" width="1296" height="67" style="fill:#f3f4f4"/>
        
          <rect x="502" y="125" width="120" height="67" style="fill:#e7e8e8"/>
          
            <rect x="502" y="131" width="112" height="53" rx="0" style="fill:url(#bqm);stroke:#afafaf;stroke-width:1.5px"/>
            <g transform="matrix(0.26,0,0,0.26,508,149)">
              <use href="#aad" style="fill:#4f4f4f"/>
            </g>
            <text x="502" y="131" dx="27" dy="33" style="font-weight:bold;font-size:19px;fill:#000">New Tab</text>
          
        
        
          <rect x="622" y="125" width="1" height="67" style="fill:#d5d6d6"/>
          
            <rect x="623" y="124" width="157" height="69" style="fill:#ececec;stroke:#d2d3d3;stroke-width:1.5px;clip-path:inset(1.76px 0 1px)"/>
            <text x="623" y="124" dx="15" dy="41" style="font-size:20px;fill:#000">enigma_db</text>
            
              
                
                <g transform="matrix(0.2,0,0,0.2,755,152)">
                  <use href="#cce" style="fill:#666"/>
                </g>
              
            
          
          
            <rect x="780" y="124" width="292" height="69" style="fill:#9dcdff;stroke:#91bdef;stroke-width:1.5px;clip-path:inset(1.76px 0 1px)"/>
            <g transform="matrix(0.38,0,0,0.38,792,144)">
              <use href="#pjw" style="fill:#000"/>
            </g>
            <text x="780" y="124" dx="46" dy="41" style="font-size:20px;fill:#000">enigma_db - Picons <tspan style="font-size:15px">…</tspan></text>
            
              
                
                <g transform="matrix(0.2,0,0,0.2,1048,152)">
                  <use href="#cce" style="fill:#fff"/>
                </g>
              
            
          
          
            <rect x="1072" y="124" width="154" height="69" style="fill:#ececec;stroke:#d2d3d3;stroke-width:1.5px;clip-path:inset(1.76px 0 1px)"/>
            <text x="1072" y="124" dx="15" dy="41" style="font-size:20px;fill:#000">neutrino</text>
            
              
                
                <g transform="matrix(0.2,0,0,0.2,1202,152)">
                  <use href="#cce" style="fill:#666"/>
                </g>
              
            
          
          
            <rect x="1226" y="124" width="292" height="69" style="fill:#ececec;stroke:#d2d3d3;stroke-width:1.5px;clip-path:inset(1.76px 0 1px)"/>
            <g transform="matrix(0.38,0,0,0.38,1238,144)">
              <use href="#tmw" style="fill:#000"/>
            </g>
            <text x="1226" y="124" dx="46" dy="41" style="font-size:20px;fill:#000">enigma_db - Edit Set<tspan style="font-size:15px">…</tspan></text>
            
              
                
                <g transform="matrix(0.2,0,0,0.2,1495,152)">
                  <use href="#cce" style="fill:#666"/>
                </g>
              
            
          
          
            <rect x="1518" y="124" width="256" height="69" style="fill:#ececec;stroke:#d2d3d3;stroke-width:1.5px;clip-path:inset(1.76px 0 1px)"/>
            <g transform="matrix(0.38,0,0,0.38,1531,144)">
              <use href="#cbw" style="fill:#000"/>
            </g>
            <text x="1518" y="124" dx="46" dy="41" style="font-size:20px;fill:#000">enigma_db - Cha<tspan style="font-size:15px">…</tspan></text>
          
          <rect x="1773" y="125" width="1" height="67" style="fill:#d5d6d6"/>
        
        
          
            <rect x="1750" y="125.5" width="23" height="66" style="fill:#ececec;stroke:#d2d3d3;stroke-width:1.5px"/>
            
              <g transform="matrix(0,0.3,-0.3,0,1773.2,150)" style="opacity:0.25">
                <use href="#apw" style="stroke:#000;stroke-width:2.7px"/>
              </g>
            
          
          
            <rect x="1774" y="125.5" width="23" height="66" style="fill:#ececec;stroke:#d2d3d3;stroke-width:1.5px"/>
            
              <g transform="matrix(0,-0.3,0.3,0,1776.1,169.1)">
                <use href="#apw" style="stroke:#000;stroke-width:2.7px"/>
              </g>
            
          
        
      
      
        <rect x="502" y="192" width="1296" height="100" style="fill:#e7e8e8"/>
        
          
            <g transform="matrix(0.38,0,0,0.38,526,217)">
              <use href="#fgn" style="fill:#4c4c4c"/>
            </g>
            <text x="510" y="192" dx="69" dy="59" style="font-size:26px;fill:#000">Open</text>
          
          
            <g transform="matrix(0.38,0,0,0.38,679,217)">
              <use href="#fhe" style="fill:#4c4c4c"/>
            </g>
            <text x="664" y="192" dx="69" dy="59" style="font-size:26px;fill:#000">Save</text>
          
          
            <rect x="826" y="212" width="1" height="61" style="fill:none;stroke:#000;stroke-opacity:0.3;stroke-dasharray:1px,3px"/>
          
          
            <g transform="matrix(0.38,0,0,0.38,844,217)">
              <use href="#fet" style="fill:#4c4c4c"/>
            </g>
            <text x="828" y="192" dx="69" dy="59" style="font-size:26px;fill:#000">Import</text>
          
          
            <g transform="matrix(0.38,0,0,0.38,1012,217)">
              <use href="#fdt" style="fill:#4c4c4c"/>
            </g>
            <text x="994" y="192" dx="69" dy="59" style="font-size:26px;fill:#000">Export</text>
          
          
            <rect x="1176" y="212" width="1" height="61" style="fill:none;stroke:#000;stroke-opacity:0.3;stroke-dasharray:1px,3px"/>
          
          
            <g transform="matrix(0.38,0,0,0.38,1193,217)">
              <use href="#sls" style="fill:#4c4c4c"/>
            </g>
            <text x="1178" y="192" dx="69" dy="59" style="font-size:26px;fill:#000">Settings</text>
          
          
            
              <rect x="1473" y="223" width="125" height="32" rx="8" style="fill:#fff;stroke:url(#brm);stroke-width:0.4px;filter:url(#btm)"/>
              
                <rect x="1568.6" y="226" width="26" height="26" rx="8" style="fill:url(#bsm);stroke:url(#brm);stroke-opacity:0.06;stroke-width:2px"/>
                
                  
                    <g transform="matrix(0.19,0,0,0.19,1575.4,228.2)">
                      <use href="#anm" style="fill:#fff"/>
                    </g>
                    <g transform="matrix(0.19,0,0,-0.19,1575.4,250.8)">
                      <use href="#anm" style="fill:#fff"/>
                    </g>
                  
                  
                  
                
              
              <text x="1473" y="224" dx="12" dy="22" style="font-size:20px;fill:#000" transform="matrix(1,0,0,1,0,0)">Profile 1</text>
            
          
          
            <text x="1617" y="192" dx="15" dy="59" style="font-size:26px;fill:#000">Connect</text>
          
        
        
          <g transform="matrix(0.9,0,0,0.95,1770,234)">
            
              <use href="#aow" transform="matrix(0,0.23,-0.23,0,0,0)" style="fill:#646464"/>
            
            
              <use href="#aow" transform="matrix(0,0.23,-0.23,0,9.4,0)" style="fill:#646464"/>
            
          </g>
        
        <rect x="500" y="192" width="1300" height="100" style="fill:none;stroke:#d0d0d0;stroke-width:2.4px;clip-path:inset(0px 2px)"/>
      
      
        <rect x="502" y="291" width="1296" height="807" style="fill:#f3f4f4"/>
        
          
            
            <text x="502" y="291" dx="10" dy="32" style="font-weight:bold;font-size:20px;fill:#000">Picons</text>
            
              
                
                <g transform="matrix(0.38,0,0,0.38,1751,303)">
                  <use href="#liu" style="fill:#505050"/>
                </g>
              
            
          
          
            
              <rect x="502" y="346" width="1296" height="659" style="fill:#fff"/>
              
                
                  <rect x="526" y="371" width="220" height="171" rx="16" style="fill:none;stroke:#dcdcdc;stroke-width:12px;stroke-dasharray:37px,21px,36px,0" transform="matrix(0.98,0,0,0.96,13,17)"/>
                  <rect x="570" y="399" width="130" height="75" rx="6" style="fill:url(#pwg);stroke:#aaabbb;stroke-width:1.7px"/>
                  <g transform="matrix(0.34,0,0,0.34,588,422)">
                    <rect x="0" y="0" width="273" height="88" style="fill:#f5b4e4"/>
                    <rect x="188" y="0" width="85" height="88" style="fill:#ff9689"/>
                    <g style="font-family:Arial,Helvetica,sans-serif;font-weight:bold">
                      <text x="18" y="0" dy="73" style="font-size:80px;letter-spacing:2px" transform="matrix(1.1,0,0,1,0,0)">NTI</text>
                      <text x="185" y="0" dy="81" style="font-size:88px" transform="matrix(1.2,0,0,0.9,-22,0)">1</text>
                    </g>
                  </g>
                  <text x="526" y="493" dx="106" dy="18" text-anchor="middle" style="font-size:18px">NTI 1</text>
                
                
                  <rect x="792" y="371" width="220" height="171" rx="16" style="fill:none;stroke:#dcdcdc;stroke-width:12px;stroke-dasharray:37px,21px,36px,0" transform="matrix(0.98,0,0,0.96,18,17)"/>
                  <rect x="837" y="399" width="130" height="75" rx="6" style="fill:url(#pwg);stroke:#aaabbb;stroke-width:1.7px"/>
                  <g transform="matrix(0.34,0,0,0.34,856,422)">
                    <rect x="0" y="0" width="273" height="88" style="fill:#f5b4e4"/>
                    <rect x="188" y="0" width="85" height="88" style="fill:#ff9689"/>
                    <g style="font-family:Arial,Helvetica,sans-serif;font-weight:bold">
                      <text x="18" y="0" dy="73" style="font-size:80px;letter-spacing:2px" transform="matrix(1.1,0,0,1,0,0)">NTI</text>
                      <text x="185" y="0" dy="81" style="font-size:102px;stroke:#000;stroke-width:2px" transform="matrix(0.95,0,0,0.75,26,10)">2</text>
                    </g>
                  </g>
                  <text x="792" y="493" dx="108" dy="18" text-anchor="middle" style="font-size:18px">NTI 2</text>
                
                
                  <rect x="1058" y="371" width="220" height="171" rx="16" style="fill:none;stroke:#dcdcdc;stroke-width:12px;stroke-dasharray:37px,21px,36px,0" transform="matrix(0.98,0,0,0.96,23,17)"/>
                  <rect x="1103" y="399" width="130" height="75" rx="6" style="fill:url(#pwg);stroke:#aaabbb;stroke-width:1.7px"/>
                  <g transform="matrix(0.32,0,0,0.32,1111,420)">
                    <rect x="256" y="21" width="93" height="65" style="fill:#cb0000"/>
                    <text x="10" y="0" dx="112" dy="78" text-anchor="middle" style="font-family:cursive,serif;font-size:96px;fill:#cb0000">image</text>
                    <text x="262" y="0" dy="78" style="font-family:Arial,Helvetica,sans-serif;font-weight:bold;font-size:50px;fill:#eee">4K</text>
                  </g>
                  <text x="1058" y="493" dx="108" dy="18" text-anchor="middle" style="font-size:18px">Image 4K</text>
                
                
                  <rect x="1324" y="371" width="220" height="171" rx="16" style="fill:none;stroke:#dcdcdc;stroke-width:12px;stroke-dasharray:37px,21px,36px,0" transform="matrix(0.98,0,0,0.96,28,17)"/>
                  <rect x="1369" y="399" width="130" height="75" rx="6" style="fill:url(#pwg);stroke:#aaabbb;stroke-width:1.7px"/>
                  <g transform="matrix(0.23,0,0,0.23,1401,415)">
                    <rect x="50" y="4" width="180" height="180" style="fill:#881"/>
                    <rect x="2" y="28" width="274" height="134" style="fill:#881"/>
                    <text x="50" y="38" dx="56" dy="80" text-anchor="middle" style="font-family:'Times New Roman',serif;font-weight:bold;font-size:122px;letter-spacing:-4px;fill:#fff;stroke:#fff;stroke-width:4px" transform="matrix(1.3,0,0,1.2,0,0)">22</text>
                  </g>
                  <text x="1324" y="493" dx="109" dy="18" text-anchor="middle" style="font-size:18px">VIDEO 22</text>
                

                
                  <rect x="525" y="578" width="223" height="173.5" rx="20" style="fill:#0044e2"/>
                  <rect x="526" y="580" width="220" height="171" rx="16" style="fill:none;stroke:#dcdcdc;stroke-width:12px;stroke-dasharray:37px,21px,36px,0" transform="matrix(0.98,0,0,0.96,13,26)"/>
                  <g transform="matrix(0.9,0,0,0.9,566.5,608)">
                    <use href="#pvn"/>
                  </g>
                  <text x="526" y="701" dx="106" dy="18" text-anchor="middle" style="font-size:18px;fill:#fff">7 Channel</text>
                
                
                  <rect x="792" y="580" width="220" height="171" rx="16" style="fill:none;stroke:#dcdcdc;stroke-width:11px;stroke-dasharray:37px,21px,36px,0" transform="matrix(0.98,0,0,0.96,18,26)"/>
                  
                  <rect x="837" y="609" width="130" height="75" rx="6" style="fill:url(#pwg);stroke:#aaabbb;stroke-width:1.7px"/>
                  <g transform="matrix(0.13,0,0,0.13,849,631)">
                    <ellipse cx="186" cy="116" rx="178" ry="118" style="fill:#64d8b1"/>
                    <g style="font-family:Arial,Helvetica,sans-serif">
                      <text x="42" y="0" dy="140" style="font-weight:bold;font-size:102px;letter-spacing:-1px;stroke:#000;stroke-width:4px;font-style:italic" transform="matrix(1,0,0,1.2,0,0)">RIBA</text>
                      <text x="389" y="0" dy="142" style="font-size:100px;stroke:#000;stroke-width:5px" transform="matrix(1,0,0,1.2,0,0)">SPORTS</text>
                    </g>
                  </g>
                  <text x="792" y="701" dx="110" dy="18" text-anchor="middle" style="font-size:18px;fill:#000">RIBA Sports</text>
                
                
                  <rect x="1058" y="580" width="220" height="171" rx="16" style="fill:none;stroke:#dcdcdc;stroke-width:11px;stroke-dasharray:37px,21px,36px,0" transform="matrix(0.98,0,0,0.96,23,26)"/>
                  <rect x="1103" y="609" width="130" height="75" rx="6" style="fill:url(#pwg);stroke:#aaabbb;stroke-width:1.7px"/>
                  <g transform="matrix(0.13,0,0,0.13,1109,631)">
                    <ellipse cx="186" cy="116" rx="178" ry="118" style="fill:#64d8b1"/>
                    <g style="font-family:Arial,Helvetica,sans-serif">
                      <text x="42" y="0" dy="140" style="font-weight:bold;font-size:102px;letter-spacing:-1px;stroke:#000;stroke-width:4px;font-style:italic" transform="matrix(1,0,0,1.2,0,0)">RIBA</text>
                      <text x="389" y="0" dy="142" style="font-size:100px;stroke:#000;stroke-width:5px" transform="matrix(1,0,0,1.2,0,0)">PREMIERE</text>
                    </g>
                  </g>
                  <text x="1058" y="701" dx="107" dy="18" text-anchor="middle" style="font-size:18px">RIBA Premiere</text>
                
                
                  <rect x="1324" y="580" width="220" height="171" rx="16" style="fill:none;stroke:#dcdcdc;stroke-width:11px;stroke-dasharray:37px,21px,36px,0" transform="matrix(0.98,0,0,0.96,28,26)"/>
                  <rect x="1369" y="609" width="130" height="75" rx="6" style="fill:url(#pwg);stroke:#aaabbb;stroke-width:1.7px"/>
                  <g transform="matrix(0.21,0,0,0.21,1385,634)">
                    <rect x="0" y="0" width="462" height="120" rx="48" style="fill:#771"/>
                    <g style="font-family:Arial,Helvetica,sans-serif;font-size:96px">
                      <text x="32" y="0" dx="171" dy="96" text-anchor="middle" style="fill:#fff;stroke:#fff;stroke-width:6px" transform="matrix(0.9,0,0,1,0,0)">SERIAL</text>
                      <text x="412" y="0" dx="71" dy="96" text-anchor="middle" style="letter-spacing:8px;fill:#fff;stroke:#fff;stroke-width:6px" transform="matrix(0.8,0,0,1,0,-0.9)">TV</text>
                    </g>
                  </g>
                  <text x="1324" y="701" dx="106" dy="18" text-anchor="middle" style="font-size:18px">Serial TV</text>
                

                
                  <rect x="526" y="788" width="220" height="171" rx="16" style="fill:none;stroke:#dcdcdc;stroke-width:11px;stroke-dasharray:37px,21px,36px,0" transform="matrix(0.98,0,0,0.96,13,35)"/>
                  <rect x="570" y="818" width="130" height="75" rx="6" style="fill:url(#pwg);stroke:#aaabbb;stroke-width:1.7px"/>
                  <g transform="matrix(0.31,0,0,0.31,592,837)">
                    <rect x="0" y="0" width="275" height="102" rx="24" style="fill:#fff"/>
                    <rect x="0" y="0" width="106" height="102" rx="24" style="fill:#7ec6d6"/>
                    <text x="16" y="0" dy="102" style="font-family:'Times New Roman',serif;font-weight:bold;font-size:150px;fill:#333">Q</text>
                    <text x="224" y="0" dy="84" style="font-family:Arial,Helvetica,sans-serif;font-weight:bold;font-size:72px;letter-spacing:1px;fill:#4f4f4f" transform="matrix(0.6,0,0,1,0,0)">NEWS</text>
                  </g>
                  <text x="526" y="911" dx="106" dy="18" text-anchor="middle" style="font-size:18px">Q NEWS</text>
                
                
                  <rect x="792" y="788" width="220" height="171" rx="16" style="fill:none;stroke:#dcdcdc;stroke-width:11px;stroke-dasharray:37px,21px,36px,0" transform="matrix(0.98,0,0,0.96,18,35)"/>
                  <rect x="837" y="818" width="130" height="75" rx="6" style="fill:url(#pwg);stroke:#aaabbb;stroke-width:1.7px"/>
                  <g transform="matrix(0.21,0,0,0.21,846,846)">
                    <rect x="433" y="0" width="96" height="96" style="fill:#099"/>
                    <text x="0" y="0" dx="208" dy="80" text-anchor="middle" style="font-family:Arial,Helvetica,sans-serif;font-weight:bold;font-size:96px;letter-spacing:-3px;fill:#333">Shopping</text>
                    <text x="433" y="0" dx="8" dy="80" style="font-family:'Times New Roman',serif;font-weight:bold;font-size:99px;fill:#fff;stroke:#fff;stroke-width:5px">G</text>
                  </g>
                  <text x="792" y="911" dx="107" dy="18" text-anchor="middle" style="font-size:18px">Shopping G</text>
                
                
                  <rect x="1058" y="788" width="220" height="171" rx="16" style="fill:none;stroke:#dcdcdc;stroke-width:11px;stroke-dasharray:37px,21px,36px,0" transform="matrix(0.98,0,0,0.96,23,35)"/>
                  <g transform="matrix(0.9,0,0,0.9,1099.5,816)">
                    <use href="#pvn"/>
                  </g>
                  <text x="1058" y="911" dx="107" dy="18" text-anchor="middle" style="font-size:18px">Service 1120</text>
                
                
                  <rect x="1324" y="788" width="220" height="171" rx="16" style="fill:none;stroke:#dcdcdc;stroke-width:11px;stroke-dasharray:37px,21px,36px,0" transform="matrix(0.98,0,0,0.96,28,35)"/>
                  <rect x="1369" y="818" width="130" height="75" rx="6" style="fill:url(#pwg);stroke:#aaabbb;stroke-width:1.7px"/>
                  <g transform="matrix(0.2,0,0,0.2,1377,844)">
                    <text x="0" y="0" dx="368" dy="96" text-anchor="middle" style="font-family:Arial,Helvetica,sans-serif;font-weight:bold;font-size:97px;fill:#600900;stroke:#600900;stroke-width:3.5px" transform="matrix(0.76,0,0,1,0,0)">GLOBALFLARE</text>
                  </g>
                  <text x="1324" y="911" dx="109" dy="18" text-anchor="middle" style="font-size:18px">Globalflare HD</text>
                
              
            
            
              
              
              
              
              
              <rect x="1782" y="349" width="12" height="44" rx="7" style="fill:#7f7f7f"/>
            
            
             
          
          
            <rect x="502" y="964" width="1296" height="61" style="fill:#fafafa"/>
            
              <rect x="513" y="976" width="136" height="32" rx="8" style="fill:#fff;stroke:url(#brm);stroke-width:0.4px;filter:url(#btm)"/>
              <text x="513" y="977" dx="12" dy="22" style="font-size:20px;fill:#000">Name</text>
              
                <rect x="619.6" y="979" width="26" height="26" rx="8" style="fill:url(#bsm);stroke:url(#brm);stroke-opacity:0.06;stroke-width:2px"/>
                
                  
                    <g transform="matrix(0.19,0,0,0.19,626.4,981.2)">
                      <use href="#anm" style="fill:#fff"/>
                    </g>
                    <g transform="matrix(0.19,0,0,-0.19,626.4,1003.8)">
                      <use href="#anm" style="fill:#fff"/>
                    </g>
                  
                  
                  
                
              
            
            
              <rect x="656" y="975" width="208" height="33" rx="0" style="fill:#fff;stroke:#d1d2d2;stroke-width:2.4px;clip-path:inset(1.8px 1.8px 0.4px)"/>
              <text x="656" y="975" dx="4" dy="23" style="font-size:19px;fill:#000">riba</text>
            
            
              <rect x="874" y="975" width="82" height="33" rx="4" style="fill:#ececec"/>
              <text x="874" y="975" dx="40" dy="23" text-anchor="middle" style="font-size:19px;fill:#000;fill-opacity:0.89">Find</text>
            
            
              <rect x="965" y="975" width="166" height="33" rx="4" style="fill:#ececec"/>
              <text x="965" y="975" dx="83" dy="23" text-anchor="middle" style="font-size:19px;fill:#000;fill-opacity:0.89">Find Previous</text>
            
            
              <rect x="1140" y="975" width="110" height="33" rx="4" style="fill:#ececec"/>
              <text x="1140" y="975" dx="55" dy="23" text-anchor="middle" style="font-size:19px;fill:#000;fill-opacity:0.89">Find All</text>
            
            
              <rect x="1283" y="976" width="126" height="31" rx="4" style="fill:#b1d7ff;stroke:#d1d2d2;stroke-width:1px"/>
              <text x="1283" y="976" dx="62" dy="22" text-anchor="middle" style="font-size:18px;fill:#fff;fill-opacity:0.9">Highlight</text>
            
            <g transform="matrix(0.23,0,0,0.23,1764,985)">
              <use href="#cce" style="fill:#666"/>
            </g>
          
          
            <rect x="502" y="1026" width="1296" height="73" style="fill:#f7f8f8"/>
            <rect x="500" y="1025" width="1300" height="73" style="fill:none;stroke:#e9eaea;stroke-width:2.4px;clip-path:inset(0px 2px 2px)"/>
            
              
                <text x="509" y="1044" dx="4" dy="23" style="font-size:19px;fill:#000">Folder</text>
                <rect x="580" y="1044" width="208" height="33" rx="0" style="fill:#fff;stroke:#d1d2d2;stroke-width:2.8px;clip-path:inset(2px 2px 0.8px)"/>
                <rect x="800" y="1044" width="126" height="32" rx="8" style="fill:#fff;stroke:url(#brm);stroke-width:0.4px;filter:url(#btm)"/>
                <text x="800" y="1044" dx="24" dy="22" style="font-size:20px;fill:#000">Browse<tspan style="font-size:15px">…</tspan></text>
              
              
                <rect x="1652" y="1044" width="128" height="32" rx="8" style="fill:#fff;stroke:url(#brm);stroke-width:0.4px;filter:url(#btm)"/>
                <g transform="matrix(0.38,0,0,0.38,1664,1047)">
                  <use href="#skh" style="fill:#545454"/>
                </g>
                <text x="1652" y="1044" dx="46" dy="22" style="font-size:20px;fill:#000">Find<tspan style="font-size:15px">…</tspan></text>
              
            
          
        
        <rect x="500" y="291" width="1300" height="807" style="fill:none;stroke:#d5d6d6;stroke-width:2.4px;clip-path:inset(0px 2px)"/>
      
    
    
      
      
        
          <text x="518" y="1115.5" dx="29" dy="33" style="font-weight:bold;font-size:24px;fill:#000">Tools</text>
        
        
          <rect x="631" y="1120" width="1" height="38" style="fill:none;stroke:#000;stroke-opacity:0.3;stroke-dasharray:1.4px,2.68px"/>
        
        
          <text x="627" y="1115.5" dx="29" dy="33" style="font-weight:bold;font-size:24px;fill:#000">Inspect</text>
        
        
          <text x="1660" dx="11" y="1115.5" dy="33" style="font-weight:bold;font-size:24px;fill:#000">autofix</text>
        
      
    
    
      <rect x="502" y="1164" width="1296" height="56" rx="15" style="fill:#f3f4f4;clip-path:inset(15px 0px 0px)"/>
      <rect x="500" y="1179" width="1300" height="42" style="fill:none;stroke:#d8d9d9;stroke-width:2.5px;clip-path:inset(0px 2px 42px)"/>
      <text x="502" y="1179" dx="29" dy="29" style="font-size:20px;fill:#000">Filename: ribasports.png</text>
      
      
      
      
        
        <g transform="matrix(0.38,0,0,0.38,1741,1188)">
          <use href="#ffo" style="fill:#545454"/>
        </g>
      
      
        
      
    
    <rect x="501" y="81" width="1298" height="1140" rx="15" style="fill:none;stroke:#a6bbb9;stroke-width:1px"/>
    <rect x="503" y="83" width="1294" height="1136" rx="15" style="fill:none;stroke:#fff;stroke-opacity:0.09;stroke-width:1px"/>
  </g>

  
    
      <rect x="119.3" y="680.5" width="211" height="212" rx="10" style="fill:#101;fill-opacity:0.26;stroke:#b1b2b3;stroke-width:3px"/>
      
        <g style="clip-path:polygon(-4% -56%,104% 30%,104% 104%,-4% 104%)">
          <g style="filter:url(#ixm)">
            <rect x="159" y="701" width="132" height="171" rx="7" style="fill:#f4f3f1"/>
          </g>
        </g>
        <g style="clip-path:polygon(-13% 0%,108% 120%,200% 200%,-200% 200%)">
          <g style="filter:url(#iym)">
            <rect x="246" y="693" width="51" height="55" rx="8" style="fill:#f4f3f1;clip-path:polygon(0px 13%,90% 100%,0px 100%,0px 0px)"/>
          </g>
        </g>
        
        <text x="159" y="837" dx="67" dy="20" text-anchor="middle" style="font-family:'Helvetica Neue',sans-serif-thin,Helvetica,sans-serif;font-weight:300;font-size:26px;letter-spacing:2px;fill:#707080;stroke:#707080;stroke-width:1.5px">PNG</text>
        
      
      <g transform="matrix(0.95,0,0,0.95,170.6,762)">
        <rect x="0" y="0" width="114" height="39" style="fill:#fff"/>
        <g transform="matrix(0.22,0,0,0.22,5,5)">
          <rect x="-4" y="-4" width="483" height="141" style="fill:#0be"/>
          <ellipse cx="67" cy="67" rx="67" ry="67" style="fill:#fff"/>
          <text x="18" y="0" dy="107" style="font-family:Arial,Helvetica,sans-serif;font-size:122px;fill:#00afef;stroke:#00afef;stroke-width:10px" transform="matrix(1.3,0,0,1.2,1,0)">7</text>
          <text x="315" y="0" dy="121" style="font-family:'Times New Roman',serif;font-weight:bold;font-size:144px;letter-spacing:-2px;fill:#fff" transform="matrix(0.45,0,0,1,0,0)">CHANNEL</text>
        </g>
      </g>
      <rect x="166" y="899" width="116" height="32" rx="5" style="fill:#0044e2"/>
      <text x="108" y="903" dx="116" dy="19" text-anchor="middle" style="font-family:'Helvetica Neue',Helvetica,sans-serif;font-weight:bold;font-size:23px;letter-spacing:-0.5px;fill:#f5f6f7;text-shadow:none">picon.png</text>
    
    <g transform="matrix(0.8,-0.8,0.5,0.6,-192,686)">
      <g style="fill:none;stroke:#0bbbcc;stroke-width:22px">
        <path d="M290.5 341.28160095214844Q434.5 59.28160095214844 509.5 560.2816009521484" style="marker-end:url(#aud)"/>
      </g>
    </g>
  

  
  
  
  

  
  
  
</svg>
