<?xml version="1.0" encoding="UTF-8" standalone="no"?><!DOCTYPE svg PUBLIC "-//W3C//DTD SVG 1.1//EN" "http://www.w3.org/Graphics/SVG/1.1/DTD/svg11.dtd"><svg width="100%" height="100%" viewBox="0 0 64 64" version="1.1" xmlns="http://www.w3.org/2000/svg" xmlns:xlink="http://www.w3.org/1999/xlink" xml:space="preserve" xmlns:serif="http://www.serif.com/" style="fill-rule:evenodd;clip-rule:evenodd;stroke-linejoin:round;stroke-miterlimit:2;"><path d="M12.958,43.571l-4.385,0c-4.18,0 -7.573,-3.393 -7.573,-7.572l-0,-26.926c-0,-4.18 3.393,-7.573 7.573,-7.573l46.854,0c4.18,0 7.573,3.393 7.573,7.573l-0,26.926c-0,4.179 -3.393,7.572 -7.573,7.572l-24.973,0l-17.146,19.429l-0.35,-19.429Zm19.042,-37.975l23.604,0c2.86,0 5.182,2.322 5.182,5.182l-0,23.516c-0,2.859 -2.322,5.181 -5.182,5.181l-23.604,0l-0,-33.879Zm-2.768,0l-21.335,0c-2.584,0 -4.683,2.099 -4.683,4.684l0,24.512c0,2.585 2.099,4.683 4.683,4.683l21.335,0l0,-33.879Zm8.689,10.734c0.837,3.043 2.485,6.378 4.906,9.498c-2.726,2.486 -5.555,3.823 -7.934,4.194l-1.484,0.231l1.689,3.401l0.709,-0.026c2.935,-0.107 6.498,-1.582 9.86,-4.637c3.584,3.402 7.435,5.022 10.577,5.137l1.032,0.037l2.136,-4.301l-2.159,-0.336c-2.421,-0.377 -5.313,-1.797 -8.073,-4.443c2.162,-2.891 3.657,-5.945 4.449,-8.755l6.042,0l0,-4.146l-11.623,0l-0,-1.457l0.724,-0.736l-0.5,-1.191l-3.534,0l-0,3.384l-11.624,0l0,4.146l4.807,0Zm-15.415,17.394l0.061,0.163l5.369,-0l-8.663,-22.437l-6.099,0l-8.697,22.437l5.42,-0l2.067,-5.605c0,0 8.535,0 8.535,0c0,0 2.007,5.442 2.007,5.442Zm-6.272,-17.801l0.099,0.308c0.001,0.001 0.713,2.122 0.713,2.122c0.001,0.003 2.178,5.973 2.178,5.973c0,-0 -5.985,-0 -5.985,-0c1.667,-4.568 2.575,-7.085 2.726,-7.551c0.099,-0.305 0.188,-0.589 0.269,-0.852Zm33.287,0.407l-6.428,0c0.799,1.817 1.886,3.7 3.253,5.522c1.336,-1.828 2.397,-3.71 3.175,-5.522Z"/></svg>