<?xml version="1.0" encoding="UTF-8" standalone="no"?><!DOCTYPE svg PUBLIC "-//W3C//DTD SVG 1.1//EN" "http://www.w3.org/Graphics/SVG/1.1/DTD/svg11.dtd"><svg width="100%" height="100%" viewBox="0 0 64 64" version="1.1" xmlns="http://www.w3.org/2000/svg" xmlns:xlink="http://www.w3.org/1999/xlink" xml:space="preserve" xmlns:serif="http://www.serif.com/" style="fill-rule:evenodd;clip-rule:evenodd;stroke-linejoin:round;stroke-miterlimit:2;"><path d="M26.325,49.775l-21.156,1.342c-1.197,0.076 -2.169,-0.838 -2.169,-2.04l-0,-33.068c-0,-1.201 0.972,-2.239 2.169,-2.315l26.642,-1.69l0.378,0l26.642,1.69c1.197,0.076 2.169,1.114 2.169,2.315l-0,33.068c-0,1.202 -0.972,2.116 -2.169,2.04l-21.156,-1.342c-0.793,1.332 -2.247,2.225 -3.908,2.225l-3.534,0c-1.661,0 -3.115,-0.893 -3.908,-2.225Zm27.675,-11.275l-18.5,0l-0,2.5l18.5,0l-0,-2.5Zm-25.5,-0l-18.5,-0l-0,2.5l18.5,-0l-0,-2.5Zm25.5,-6l-18.5,-0l-0,2.5l18.5,-0l-0,-2.5Zm-25.5,-0l-18.5,-0l-0,2.5l18.5,-0l-0,-2.5Zm-0,-6l-18.5,0l-0,2.5l18.5,0l-0,-2.5Zm25.5,-0l-18.5,-0l-0,2.5l18.5,-0l-0,-2.5Zm-0.01,-6l-18.5,0l0,2.5l18.5,0l0,-2.5Zm-25.49,-0l-18.5,-0l-0,2.5l18.5,-0l-0,-2.5Z"/></svg>