<!-- Generated by IcoMoon.io -->
<svg version="1.1" xmlns="http://www.w3.org/2000/svg" width="64" height="64" viewBox="0 0 64 64">
<title></title>
<g id="icomoon-ignore">
</g>
<path fill="#000" d="M18.504 59c-4.142 0-7.504-3.362-7.504-7.504v-22.326c0-2.67 1.397-5.016 3.5-6.346v-7.052c0-7.368 5.982-13.351 13.351-13.351h8.298c7.369 0 13.351 5.983 13.351 13.351v7.052c2.103 1.33 3.5 3.676 3.5 6.346v22.326c0 4.109-3.31 7.452-7.407 7.503l-27.089 0.001zM44.728 37.712h-9.528v-9.528h-6.4v9.528h-9.528v6.4h9.528v9.528h6.4v-9.528h9.528v-6.4zM42.5 15.772c0-3.505-2.846-6.351-6.351-6.351h-8.298c-3.505 0-6.351 2.846-6.351 6.351v5.895h21v-5.895z"></path>
</svg>
