<?xml version="1.0" encoding="UTF-8" standalone="no"?><!DOCTYPE svg PUBLIC "-//W3C//DTD SVG 1.1//EN" "http://www.w3.org/Graphics/SVG/1.1/DTD/svg11.dtd"><svg width="100%" height="100%" viewBox="0 0 64 64" version="1.1" xmlns="http://www.w3.org/2000/svg" xmlns:xlink="http://www.w3.org/1999/xlink" xml:space="preserve" xmlns:serif="http://www.serif.com/" style="fill-rule:evenodd;clip-rule:evenodd;stroke-linejoin:round;stroke-miterlimit:2;"><path d="M59,13.72l0,36.56c0,5.365 -4.355,9.72 -9.72,9.72l-34.56,0c-5.365,0 -9.72,-4.355 -9.72,-9.72l0,-36.56c0,-5.365 4.355,-9.72 9.72,-9.72l34.56,0c5.365,0 9.72,4.355 9.72,9.72Zm-32.5,35.507l0,4.781l4.4,0l0,-4.516c0.312,0.005 0.627,0.008 0.946,0.008c0.903,0 1.787,-0.021 2.654,-0.062l0,4.57l4.4,0l0,-4.981c2.693,-0.384 5.183,-1 7.47,-1.847c4.45,-1.647 6.63,-4.42 6.63,-8.25c0,-3.109 -1.731,-5.512 -5.279,-7.146c-1.918,-0.874 -4.638,-1.571 -8.163,-2.075l-0.658,-0.094l0,-8.95c1.073,0.354 1.967,0.811 2.681,1.376c1,0.805 1.636,1.97 1.943,3.477l0.123,0.607l7.868,0l-0,-0.753c-0,-3.838 -1.996,-6.649 -6.039,-8.396c-1.972,-0.853 -4.164,-1.486 -6.576,-1.899l0,-5.085l-4.4,-0l0,4.591c-0.938,-0.055 -1.904,-0.083 -2.896,-0.083c-0.237,0 -0.472,0.002 -0.704,0.005l0,-4.513l-4.4,-0l0,4.78c-3.547,0.409 -6.444,1.274 -8.695,2.58c-3.434,1.993 -5.11,4.568 -5.11,7.674c-0,2.927 1.732,5.169 5.308,6.64c1.729,0.708 4.56,1.369 8.497,1.969l0,10.262c-2.492,-0.464 -4.392,-1.283 -5.693,-2.483c-1.065,-1.001 -1.659,-2.308 -1.802,-3.911l-0.062,-0.687l-7.926,-0l-0.015,0.737c-0.074,3.704 1.784,6.656 5.638,8.819c2.586,1.462 5.872,2.419 9.86,2.855Zm12.4,-5.474l0,-8.217c1.539,0.332 2.782,0.691 3.729,1.08c1.407,0.6 2.124,1.596 2.124,3.006c-0,0.925 -0.426,1.701 -1.248,2.343c-0.954,0.744 -2.391,1.308 -4.297,1.723c-0.102,0.023 -0.205,0.044 -0.308,0.065Zm-8,0.587l0,-10.076l3.6,0.51l0,9.53c-0.704,0.039 -1.428,0.058 -2.171,0.058c-0.489,0 -0.966,-0.007 -1.429,-0.022Zm0,-15.874l0,-8.739c0.163,-0.002 0.329,-0.003 0.496,-0.003c1.109,0 2.144,0.04 3.104,0.121l0,9.142l-2.058,-0.294c-0.536,-0.077 -1.05,-0.153 -1.542,-0.227Zm-4.4,-8.394l0,7.663c-1.442,-0.272 -2.488,-0.517 -3.137,-0.737c-1.68,-0.585 -2.593,-1.444 -2.593,-2.707c-0,-1.185 0.805,-2.184 2.293,-3.079c0.862,-0.518 2.008,-0.895 3.437,-1.14Z"/></svg>