<svg viewBox="0 0 1880 1300" xmlns="http://www.w3.org/2000/svg" xmlns:xlink="http://www.w3.org/1999/xlink">
  <link xmlns="http://www.w3.org/1999/xhtml" rel="stylesheet" href="prova.css" type="text/css" />
  <defs>
    <symbol id="add">
      <path d="M37.75,37.75L55.877,37.75L55.877,26.25L37.75,26.25C37.75,26.25 37.75,8.123 37.75,8.123L26.25,8.123L26.25,26.25C26.25,26.25 8.123,26.25 8.123,26.25L8.123,37.75L26.25,37.75C26.25,37.75 26.25,55.877 26.25,55.877L37.75,55.877L37.75,37.75Z" />
    </symbol>
    <symbol id="channelbook-view">
      <path d="M4,14.973C2.23,15.791 1,17.583 1,19.66L1,52.34C1,55.188 3.312,57.5 6.16,57.5L57.84,57.5C60.688,57.5 63,55.188 63,52.34L63,19.66C63,17.583 61.77,15.791 60,14.973L60,53.738L4,53.738L4,14.973ZM7,50.167C10.141,49.887 15.021,49.5 18,49.5C18.95,49.5 20.094,49.539 21.312,49.602C22.274,49.638 23.326,49.708 24.371,49.793C27.049,49.984 29.634,50.221 31,50.352L31,14.451C31,14.451 24.39,13 21.037,13C17.037,13 7,14.451 7,14.451L7,50.167ZM33,50.352C34.365,50.221 36.951,49.984 39.629,49.793C40.674,49.708 41.726,49.638 42.688,49.602C43.906,49.539 45.05,49.5 46,49.5C48.979,49.5 53.859,49.887 57,50.167L57,14.451C57,14.451 46.963,13 42.963,13C39.61,13 33,14.451 33,14.451L33,50.352ZM28.5,42.5C28.5,41.396 27.604,40.5 26.5,40.5L12.5,40.5C11.396,40.5 10.5,41.396 10.5,42.5C10.5,43.604 11.396,44.5 12.5,44.5L26.5,44.5C27.604,44.5 28.5,43.604 28.5,42.5ZM53.5,42.5C53.5,41.396 52.604,40.5 51.5,40.5L37.5,40.5C36.396,40.5 35.5,41.396 35.5,42.5C35.5,43.604 36.396,44.5 37.5,44.5L51.5,44.5C52.604,44.5 53.5,43.604 53.5,42.5ZM28.5,35.5C28.5,34.396 27.604,33.5 26.5,33.5L12.5,33.5C11.396,33.5 10.5,34.396 10.5,35.5C10.5,36.604 11.396,37.5 12.5,37.5L26.5,37.5C27.604,37.5 28.5,36.604 28.5,35.5ZM53.5,35.5C53.5,34.396 52.604,33.5 51.5,33.5L37.5,33.5C36.396,33.5 35.5,34.396 35.5,35.5C35.5,36.604 36.396,37.5 37.5,37.5L51.5,37.5C52.604,37.5 53.5,36.604 53.5,35.5ZM28.5,28.5C28.5,27.396 27.604,26.5 26.5,26.5L12.5,26.5C11.396,26.5 10.5,27.396 10.5,28.5C10.5,29.604 11.396,30.5 12.5,30.5L26.5,30.5C27.604,30.5 28.5,29.604 28.5,28.5ZM53.5,28.5C53.5,27.396 52.604,26.5 51.5,26.5L37.5,26.5C36.396,26.5 35.5,27.396 35.5,28.5C35.5,29.604 36.396,30.5 37.5,30.5L51.5,30.5C52.604,30.5 53.5,29.604 53.5,28.5ZM28.5,21.5C28.5,20.396 27.604,19.5 26.5,19.5L12.5,19.5C11.396,19.5 10.5,20.396 10.5,21.5C10.5,22.604 11.396,23.5 12.5,23.5L26.5,23.5C27.604,23.5 28.5,22.604 28.5,21.5ZM53.5,21.5C53.5,20.396 52.604,19.5 51.5,19.5L37.5,19.5C36.396,19.5 35.5,20.396 35.5,21.5C35.5,22.604 36.396,23.5 37.5,23.5L51.5,23.5C52.604,23.5 53.5,22.604 53.5,21.5Z" />
    </symbol>
    <symbol id="close">
      <path d="M62.328,7.276L56.724,1.672L32,26.396C32,26.396 7.276,1.672 7.276,1.672L1.672,7.276L26.396,32C26.396,32 1.672,56.724 1.672,56.724L7.276,62.328L32,37.604C32,37.604 56.724,62.328 56.724,62.328L62.328,56.724L37.604,32C37.604,32 62.328,7.276 62.328,7.276Z" />
    </symbol>
    <symbol id="crypted">
      <path d="M11.087,56L44.927,56L45.057,55.999C50.561,55.929 55.007,51.44 55.007,45.92L55.007,18.08C55.007,12.517 50.491,8 44.927,8L11.087,8C5.524,8 1.007,12.517 1.007,18.08L1.007,45.92C1.007,51.483 5.524,56 11.087,56ZM30.853,14.994L30.853,10.981L25.06,10.981L25.06,15.029C20.86,15.585 16.954,17.29 15.105,20.066C12.1,24.578 16.011,30.878 22.295,33.056C23.063,33.322 24.017,33.568 25.06,33.824L25.06,44.725C22.446,44.138 20.522,42.301 18.9,40.922L14.007,43.71L16.098,45.531C18.509,47.586 21.519,48.802 25.06,49.234L25.06,52.981L30.853,52.981L30.853,49.198C39.081,48.051 44.896,42.337 40.496,36.217C39.733,35.156 38.675,34.19 37.498,33.336C35.764,32.078 33.343,31.35 30.853,30.696L30.853,19.499C33.491,20.074 35.428,21.925 37.06,23.313L41.953,20.525L39.862,18.703C37.441,16.639 34.415,15.422 30.853,14.994ZM30.853,35.422L30.853,44.499C34.497,43.605 37.174,41.369 35.219,38.28C34.414,37.007 32.767,36.113 30.853,35.422ZM25.06,19.742C21.436,20.645 18.83,22.892 20.739,25.988C21.612,27.404 23.18,28.324 25.06,29.032L25.06,19.742Z" />
    </symbol>
    <symbol id="export">
      <path d="M56.256,31.057L13.818,31.057C6.744,31.057 1,36.801 1,43.875L1,105.17C1,112.244 6.744,117.988 13.818,117.988L68.294,117.988C75.369,117.988 81.112,112.244 81.112,105.17L81.112,54.119C64.496,68.159 64.463,84.4 64.087,91.084C63.936,93.771 62.218,96.118 59.702,97.074C57.186,98.03 54.343,97.417 52.445,95.509C38.024,81.007 36.264,52.376 56.256,31.057ZM57.293,90.694C42.669,75.989 44.254,44.706 72.527,26.35L62.162,13.988L105,15.072L97.737,56.416L85.929,42.334C57.802,59.326 57.779,82.062 57.293,90.694Z" />
    </symbol>
    <symbol id="import">
      <path d="M87.8,55.714L96.288,55.714C102.2,55.714 107,60.467 107,66.32L107,111.394C107,117.248 102.2,122 96.288,122L11.712,122C5.8,122 1,117.248 1,111.394L1,66.32C1,60.467 5.8,55.714 11.712,55.714L31.5,55.714L54,77.541C55.413,78.915 58.32,79.674 60.3,79.65C62.28,79.627 65.121,78.822 66.5,77.414L87.8,55.714ZM93.982,6.385C76.101,3.303 44.4,18.916 49.061,45.91L33.544,45.91L60.671,72.286L86.518,45.91L72.108,45.91C67.275,21.748 87.952,10.789 93.982,6.385Z" />
    </symbol>
    <symbol id="list-prefs-menu">
      <path d="M56.25,57.423C56.25,55.035 54.311,53.096 51.923,53.096L12.077,53.096C9.689,53.096 7.75,55.035 7.75,57.423C7.75,59.811 9.689,61.75 12.077,61.75C12.077,61.75 51.923,61.75 51.923,61.75C54.311,61.75 56.25,59.811 56.25,57.423ZM56.25,44.903C56.25,42.514 54.311,40.575 51.923,40.575L12.077,40.575C9.689,40.575 7.75,42.514 7.75,44.903C7.75,47.291 9.689,49.23 12.077,49.23C12.077,49.23 51.923,49.23 51.923,49.23C54.311,49.23 56.25,47.291 56.25,44.903ZM56.25,32.382C56.25,29.994 54.311,28.055 51.923,28.055L12.077,28.055C9.689,28.055 7.75,29.994 7.75,32.382C7.75,34.77 9.689,36.709 12.077,36.709L51.923,36.709C54.311,36.709 56.25,34.77 56.25,32.382ZM13.803,19.471L13.803,22.917L19.086,22.917L23.381,22.92L23.385,22.917L24.382,22.917L24.382,17.073C25.219,16.7 26.006,16.225 26.725,15.663C28.962,13.918 30.072,11.595 30.096,9.271C30.119,6.948 29.057,4.6 26.857,2.8L26.857,2.8C25.97,2.075 24.906,1.527 23.833,1.098L22.461,2.016L22.399,8.17C22.396,8.456 22.232,8.673 21.997,8.829C21.621,9.078 21.098,9.193 20.525,9.193L17.675,9.193C17.11,9.185 16.593,9.051 16.223,8.787C15.981,8.614 15.81,8.381 15.813,8.085C15.813,8.085 15.875,1.93 15.875,1.93L14.527,0.983C13.444,1.386 12.369,1.907 11.467,2.611C9.23,4.357 8.12,6.679 8.096,9.003C8.073,11.326 9.135,13.674 11.335,15.474C12.06,16.067 12.902,16.541 13.772,16.928C13.788,17.545 13.798,18.535 13.803,19.471Z" />
    </symbol>
    <symbol id="open">
      <path d="M21,42.973L110.077,42.973C112.86,42.973 114.72,45.233 114.23,48.015L104.89,100.958C104.399,103.741 101.741,106 98.958,106L7.84,106C5.721,106 4,104.279 4,102.16L4,22L71.2,22L88,36L16,36L16,68L21,68L21,42.973Z" />
    </symbol>
    <symbol id="picons-view">
      <path d="M14.762,29.23L49.252,29.23C49.252,29.23 63.18,43.708 60.715,44.826C59.648,45.309 54.588,43.709 49.191,41.739L49.191,62L14.802,62L14.802,41.747C9.413,43.714 4.365,45.309 3.3,44.826C0.835,43.708 14.762,29.23 14.762,29.23ZM36.774,11.359L16.299,11.359L16.299,24.549L22.663,24.549L22.663,13.997L36.774,13.997L36.774,11.359ZM38.538,16.635L24.427,16.635L24.427,24.549L38.538,24.549L38.538,16.635ZM45.299,10.4L45.299,24.549L41.016,24.549L41.016,15.316L38.538,15.316L38.538,10.4L45.299,10.4ZM36.632,3.482L18.459,3.482L18.459,8.758L36.632,8.758L36.632,3.482Z" />
    </symbol>
    <symbol id="save">
      <path d="M114,22L109,16L17.84,16C15.721,16 14,17.721 14,19.84L14,108.16C14,110.279 15.721,112 17.84,112L110.16,112C112.279,112 114,110.279 114,108.16L114,22ZM94,59.014L94,19.014L38,19.014L38,59.014L94,59.014ZM84.5,26L84.5,56L69.5,56L69.5,26L84.5,26Z" />
    </symbol>
    <symbol id="search">
      <path d="M40.023,45.152C36.546,47.743 32.294,49.344 27.616,49.373C17.21,49.439 7.34,41.113 5.81,30.674C4.079,18.86 13.39,6.51 25.93,5.634C26.491,5.595 27.054,5.579 27.616,5.581C37.616,5.676 46.996,13.331 48.953,23.2C50.109,29.029 48.516,35.12 45.083,39.958L58.903,53.777L53.775,58.905L40.023,45.152ZM27.395,14.645C21.159,14.705 15.395,19.815 14.718,26.076C14.13,31.512 17.409,37.152 22.491,39.305C29.111,42.111 37.837,38.138 39.843,30.914C41.898,23.51 36.084,14.883 27.811,14.649C27.672,14.646 27.533,14.645 27.395,14.645Z" />
    </symbol>
    <symbol id="service-blacklist">
      <path d="M18.504,59L45.496,59L45.593,58.999C49.69,58.948 53,55.605 53,51.496L53,29.17C53,26.5 51.603,24.154 49.5,22.824L49.5,15.772C49.5,8.404 43.518,2.421 36.149,2.421L27.851,2.421C20.482,2.421 14.5,8.404 14.5,15.772L14.5,22.824C12.397,24.154 11,26.5 11,29.17L11,51.496C11,55.638 14.362,59 18.504,59ZM44.728,37.712L35.2,37.712L35.2,28.184L28.8,28.184L28.8,37.712L19.272,37.712L19.272,44.112L28.8,44.112L28.8,53.64L35.2,53.64L35.2,44.112L44.728,44.112L44.728,37.712ZM42.5,15.772C42.5,12.267 39.654,9.421 36.149,9.421L27.851,9.421C24.346,9.421 21.5,12.267 21.5,15.772L21.5,21.667L42.5,21.667L42.5,15.772Z" />
    </symbol>
    <symbol id="services-sets-menu">
      <path d="M19.144,57.582C19.144,55.281 17.276,53.413 14.975,53.413C14.975,53.413 7.418,53.413 7.418,53.413C5.118,53.413 3.25,55.281 3.25,57.582C3.25,59.882 5.118,61.75 7.418,61.75C7.418,61.75 14.975,61.75 14.975,61.75C17.276,61.75 19.144,59.882 19.144,57.582ZM60.75,57.582C60.75,55.281 58.882,53.413 56.582,53.413C56.582,53.413 27.435,53.413 27.435,53.413C25.134,53.413 23.266,55.281 23.266,57.582C23.266,59.882 25.134,61.75 27.435,61.75C27.435,61.75 56.582,61.75 56.582,61.75C58.882,61.75 60.75,59.882 60.75,57.582ZM19.144,45.617C19.144,43.316 17.276,41.448 14.975,41.448L7.418,41.448C5.118,41.448 3.25,43.316 3.25,45.617C3.25,47.918 5.118,49.785 7.418,49.785L14.975,49.785C17.276,49.785 19.144,47.918 19.144,45.617ZM60.75,45.617C60.75,43.316 58.882,41.448 56.582,41.448L27.435,41.448C25.134,41.448 23.266,43.316 23.266,45.617C23.266,47.918 25.134,49.785 27.435,49.785L56.582,49.785C58.882,49.785 60.75,47.918 60.75,45.617ZM19.144,33.652C19.144,31.352 17.276,29.484 14.975,29.484C14.975,29.484 7.418,29.484 7.418,29.484C5.118,29.484 3.25,31.352 3.25,33.652C3.25,35.953 5.118,37.821 7.418,37.821C7.418,37.821 14.975,37.821 14.975,37.821C17.276,37.821 19.144,35.953 19.144,33.652ZM60.75,33.652C60.75,31.352 58.882,29.484 56.582,29.484C56.582,29.484 27.435,29.484 27.435,29.484C25.134,29.484 23.266,31.352 23.266,33.652C23.266,35.953 25.134,37.821 27.435,37.821C27.435,37.821 56.582,37.821 56.582,37.821C58.882,37.821 60.75,35.953 60.75,33.652ZM19.144,21.688C19.144,19.387 17.276,17.519 14.975,17.519C14.975,17.519 7.418,17.519 7.418,17.519C5.118,17.519 3.25,19.387 3.25,21.688C3.25,23.988 5.118,25.856 7.418,25.856C7.418,25.856 14.975,25.856 14.975,25.856C17.276,25.856 19.144,23.988 19.144,21.688ZM48.088,15.692L52.947,20.55C54.561,22.164 57.181,22.164 58.795,20.55C60.408,18.937 60.408,16.316 58.795,14.703C58.795,14.703 51.084,6.992 51.084,6.992C50.259,6.167 49.17,5.764 48.088,5.782C47.006,5.764 45.918,6.167 45.093,6.992C45.093,6.992 37.382,14.703 37.382,14.703C35.768,16.316 35.768,18.937 37.382,20.55C38.996,22.164 41.616,22.164 43.229,20.55L48.088,15.692Z"/>
    </symbol>
    <symbol id="settings">
      <path d="M73.934,15.359C67.443,14.057 60.757,14.057 54.266,15.359C55.094,19.487 55.718,23.646 56.137,27.836C51.785,28.784 47.637,30.502 43.888,32.909C41.222,29.65 38.723,26.268 36.389,22.763C30.878,26.433 26.151,31.16 22.481,36.671C25.986,39.005 29.368,41.505 32.627,44.17C30.22,47.919 28.502,52.067 27.554,56.419C23.364,56 19.205,55.376 15.077,54.548C13.774,61.039 13.774,67.725 15.077,74.216C19.205,73.388 23.364,72.764 27.554,72.345C28.502,76.697 30.22,80.846 32.627,84.594C29.368,87.26 25.986,89.759 22.481,92.093C26.151,97.604 30.878,102.331 36.389,106.001C38.723,102.496 41.222,99.114 43.888,95.855C47.637,98.262 51.785,99.98 56.137,100.929C55.718,105.118 55.094,109.277 54.266,113.405C60.757,114.708 67.443,114.708 73.934,113.405C73.106,109.277 72.482,105.118 72.063,100.929C76.415,99.98 80.563,98.262 84.312,95.855C86.978,99.114 89.477,102.496 91.811,106.001C97.322,102.331 102.049,97.604 105.719,92.093C102.214,89.759 98.832,87.26 95.573,84.594C97.98,80.846 99.698,76.697 100.646,72.345C104.836,72.764 108.995,73.388 113.123,74.216C114.426,67.725 114.426,61.039 113.123,54.548C108.995,55.376 104.836,56 100.646,56.419C99.698,52.067 97.98,47.919 95.573,44.17C98.832,41.505 102.214,39.005 105.719,36.671C102.049,31.16 97.322,26.433 91.811,22.763C89.477,26.268 86.978,29.65 84.312,32.909C80.563,30.502 76.415,28.784 72.063,27.836C72.482,23.646 73.106,19.487 73.934,15.359ZM64.1,50.882C71.551,50.882 77.6,56.931 77.6,64.382C77.6,71.833 71.551,77.882 64.1,77.882C56.649,77.882 50.6,71.833 50.6,64.382C50.6,56.931 56.649,50.882 64.1,50.882Z" />
    </symbol>
    <symbol id="transponders-view">
      <path d="M18.707,48.333L15.707,48.333C14.603,48.333 13.707,49.23 13.707,50.333C13.707,51.437 14.603,52.333 15.707,52.333L27.707,52.333C28.811,52.333 29.707,51.437 29.707,50.333C29.707,49.23 28.811,48.333 27.707,48.333L24.707,48.333L24.707,45.333C24.707,43.678 23.363,42.333 21.707,42.333C20.052,42.333 18.707,43.678 18.707,45.333L18.707,48.333ZM25.286,39.498C25.191,39.499 25.096,39.5 25,39.5C14.928,39.5 6.75,31.098 6.75,20.75C6.75,10.402 14.928,2 25,2C35.072,2 43.25,10.402 43.25,20.75C43.25,24.057 42.415,27.166 40.949,29.865L52,25.842L52,22.771C52,21.943 52.672,21.271 53.5,21.271L56.5,21.271C57.328,21.271 58,21.943 58,22.771L58,33.771C58,34.599 57.328,35.271 56.5,35.271L53.5,35.271C52.672,35.271 52,34.599 52,33.771L52,32.228L26.074,41.664L25.286,39.498Z" />
    </symbol>
    <linearGradient id="btn-bg-m" x1="0" y1="0" x2="0" y2="1"><stop offset="0" style="stop-color:#e2e2e2"/><stop offset="0.7" style="stop-color:#f7f7f7"/></linearGradient>
    <linearGradient id="btn-stroke-m" x1="0" y1="0" x2="0" y2="1"><stop offset="0" style="stop-color:#000;stop-opacity:0.15"/><stop offset="1" style="stop-color:#000;stop-opacity:0.19"/></linearGradient>
    <linearGradient id="btn-bg-d-m" x1="0" y1="0" x2="0" y2="1"><stop offset="0" style="stop-color:#5b6564"/><stop offset="0.6" style="stop-color:#626c6c"/></linearGradient>
    <linearGradient id="btn-stroke-d-m" x1="0" y1="0" x2="0" y2="1"><stop offset="0" style="stop-color:#fff;stop-opacity:0.19"/><stop offset="1" style="stop-color:#000;stop-opacity:0.34"/></linearGradient>
    <linearGradient id="btn-bg-a-m" x1="0" y1="0" x2="0" y2="1"><stop offset="0.4" style="stop-color:#0095ff"/><stop offset="1" style="stop-color:#0d7bff"/></linearGradient>
    <linearGradient id="btn-bg-a-d-m" x1="0" y1="0" x2="0" y2="1"><stop offset="0.4" style="stop-color:#007df4"/><stop offset="1" style="stop-color:#0073e4"/></linearGradient>
  </defs>
  <g id="system">
    <rect id="wallpaper" x="0" y="0" width="1880" height="1300" style="fill:#b4d0cd" />
  </g>
  <g id="window" class="l" style="font-family:'SF Pro','Helvetica Neue','Droid Sans',sans-serif;opacity:1">
    <rect id="w-bg" x="81" y="81" width="1718" height="1140" rx="15" style="fill:#e7e8e8;stroke:#a6bbb9;stroke-width:1px" />
    <g id="titlebar">
      <rect id="t-bg" x="82" y="82" width="1716" height="57" rx="15" style="fill:#f8f9f9;stroke:#fff;stroke-width:1px;clip-path:inset(0 0 15px)" />
      <rect id="t-stroke" x="81" y="124" width="1718" height="1" style="fill:none;stroke:#cdcece;stroke-width:2px;clip-path:inset(0 1px)" />
      <text id="t-txt" x="82" y="82" dx="857" dy="28" text-anchor="middle" style="font-weight:bold;font-size:20px;fill:#494949;">e2 SAT Editor</text>
      <g id="t-ico-w" style="display:none">
      </g>
      <g id="t-ctrs-w" style="display:none">
      </g>
      <g id="t-ctrs-m">
        <ellipse cx="103" cy="103" rx="8.8" style="fill:#ff5f5a;stroke:#000;stroke-opacity:0.1" />
        <ellipse cx="133" cy="103" rx="8.8" style="fill:#febc2e;stroke:#000;stroke-opacity:0.1" />
        <ellipse cx="164" cy="103" rx="8.8" style="fill:#28c840;stroke:#000;stroke-opacity:0.1" />
      </g>
      <g id="t-ctrs-l" style="display:none">
      </g>
    </g>
    <g id="menubar" style="display:none">
      <text id="mb-txt" x="82" y="124" dx="12" dy="22" style="font-size:19px;fill:#000"><tspan><tspan>F</tspan>ile</tspan> <tspan dx="15"><tspan>E</tspan>dit</tspan> <tspan dx="15"><tspan>F</tspan>ind</tspan> <tspan dx="15"><tspan>T</tspan>ools</tspan> <tspan dx="15"><tspan>W</tspan>indow</tspan> <tspan dx="15"><tspan>H</tspan>elp</tspan></text>
      <rect id="mb-stroke" x="81" y="154" width="1718" height="1" style="fill:#aaa" />
    </g>
    <g id="w-inner">
      <g id="tabbar">
        <rect class="bg" x="82" y="125" width="1716" height="67" style="fill:#f3f4f4" />
        <g id="tb-corner">
          <rect class="bg" x="82" y="125" width="120" height="67" style="fill:#e7e8e8" />
          <g class="tb-button">
            <rect x="82" y="131" width="112" height="53" style="fill:url(#btn-bg-m);stroke:#afafaf;stroke-width:1px" />
            <g class="tb-ico ico" transform="matrix(0.26,0,0,0.26,88,149)">
              <use href="#add" style="fill:#4f4f4f" />
            </g>
            <text x="82" y="131" dx="27" dy="33" style="font-weight:bold;font-size:19px;fill:#000">New Tab</text>
          </g>
        </g>
        <g id="tb-tabs">
          <rect id="tb-start" x="202" y="124" width="0.6" height="69" style="fill:none;stroke:#95c1f1;stroke-width:1px;clip-path:inset(1px 0 1px);transform:translate(0.5px,0)" />
          <g class="tb-tab active">
            <rect x="203" y="124" width="157" height="69" style="fill:#9dcdff;stroke:#91bdef;stroke-width:1px;clip-path:inset(1px 0 1px)" />
            <text x="203" y="124" dx="15" dy="41" style="font-size:20px;fill:#000">enigma_db</text>
            <g class="tb-ico ico" transform="matrix(0.21,0,0,0.21,334,151)">
              <use href="#close" style="fill:#fff" />
            </g>
          </g>
          <g class="tb-tab">
            <rect x="360" y="124" width="292" height="69" style="fill:#ececec;stroke:#d2d3d3;stroke-width:1px;clip-path:inset(1px 0 1px)" />
            <g class="tb-ico ico" transform="matrix(0.38,0,0,0.38,372,144)">
              <use href="#picons-view" fill="#000" />
            </g>
            <text x="360" y="124" dx="46" dy="41" style="font-size:20px;fill:#000">enigma_db - Picons <tspan class="ellipsis" style="font-size:15px">…</tspan></text>
            <g class="ico" transform="matrix(0.21,0,0,0.21,627,151)">
              <use href="#close" style="fill:#666" />
            </g>
          </g>
          <g class="tb-tab">
            <rect x="652" y="124" width="154" height="69" style="fill:#ececec;stroke:#d2d3d3;stroke-width:1px;clip-path:inset(1px 0 1px)" />
            <text x="652" y="124" dx="15" dy="41" style="font-size:20px;fill:#000">out</text>
            <g class="ico" transform="matrix(0.21,0,0,0.21,781,151)">
              <use href="#close" style="fill:#666" />
            </g>
          </g>
          <g class="tb-tab">
            <rect x="806" y="124" width="292" height="69" style="fill:#ececec;stroke:#d2d3d3;stroke-width:1px;clip-path:inset(1px 0 1px)" />
            <g class="tb-ico ico" transform="matrix(0.38,0,0,0.38,818,144)">
              <use href="#transponders-view" fill="#000" />
            </g>
            <text x="806" y="124" dx="46" dy="41" style="font-size:20px;fill:#000">out - Edit Transpond<tspan class="ellipsis" style="font-size:15px">…</tspan></text>
            <g class="ico" transform="matrix(0.21,0,0,0.21,1074,151)">
              <use href="#close" style="fill:#666" />
            </g>
          </g>
          <g class="tb-tab">
            <rect x="1098" y="124" width="293" height="69" style="fill:#ececec;stroke:#d2d3d3;stroke-width:1px;clip-path:inset(1px 0 1px)" />
            <g class="tb-ico ico" transform="matrix(0.38,0,0,0.38,1111,144)">
              <use href="#channelbook-view" fill="#000" />
            </g>
            <text x="1098" y="124" dx="46" dy="41" style="font-size:20px;fill:#000">enigma_db - Channe<tspan class="ellipsis" style="font-size:15px">…</tspan></text>
            <g class="ico" transform="matrix(0.21,0,0,0.21,1366,151)">
              <use href="#close" style="fill:#666" />
            </g>
          </g>
          <rect id="tb-end" x="1391" y="124" width="0.6" height="69" style="fill:none;stroke:#d5d6d6;stroke-width:1px;clip-path:inset(1px 0 1px)" />
        </g>
      </g>
      <g id="menu">
        <rect id="menu-bg" class="bg" x="82" y="192" width="1716" height="100" style="fill:#fff" />
        <g id="menu-items">
          <g class="menu-item">
            <rect x="90" y="192" width="150" height="99" style="fill:none" />
            <g class="ico" transform="matrix(0.38,0,0,0.38,106,217)">
              <use href="#open" style="fill:#4c4c4c" />
            </g>
            <text x="90" y="192" dx="69" dy="59" style="font-size:26px;fill:#000">Open</text>
          </g>
          <g class="menu-item">
            <rect x="246" y="192" width="146" height="99" style="fill:none" />
            <g class="ico" transform="matrix(0.38,0,0,0.38,261,217)">
              <use href="#save" style="fill:#4c4c4c" />
            </g>
            <text x="246" y="192" dx="69" dy="59" style="font-size:26px;fill:#000">Save</text>
          </g>
          <g class="menu-divid">
            <rect x="406" y="192" width="4" height="99" style="fill:red" />
          </g>
          <g class="menu-item">
            <rect x="410" y="192" width="160" height="99" style="fill:none" />
            <g class="ico" transform="matrix(0.38,0,0,0.38,426,217)">
              <use href="#import" style="fill:#4c4c4c" />
            </g>
            <text x="410" y="192" dx="69" dy="59" style="font-size:26px;fill:#000">Import</text>
          </g>
          <g class="menu-item">
            <rect x="577" y="192" width="160" height="99" style="fill:none" />
            <g class="ico" transform="matrix(0.38,0,0,0.38,595,217)">
              <use href="#export" style="fill:#4c4c4c" />
            </g>
            <text x="577" y="192" dx="69" dy="59" style="font-size:26px;fill:#000">Export</text>
          </g>
          <g class="menu-divid">
            <rect x="760" y="192" width="4" height="99" style="fill:red" />
          </g>
          <g class="menu-item">
            <rect x="764" y="192" width="180" height="99" style="fill:none" />
            <g class="ico" transform="matrix(0.38,0,0,0.38,779,217)">
              <use href="#settings" style="fill:#4c4c4c" />
            </g>
            <text x="764" y="192" dx="69" dy="59" style="font-size:26px;fill:#000">Settings</text>
          </g>
          <g class="menu-item">
            <rect x="1020" y="192" width="150" height="99" style="fill:none" />
            <rect class="btn-bg" x="1033" y="224" width="125" height="30" rx="8" style="fill:#fff;stroke:url(#btn-stroke-m);stroke-width:1px" />
            <g class="btn-caret" transform="matrix(1,0,0,1,1130,226)">
              <rect class="fx" x="0" y="0" width="24" height="24" rx="8" style="fill:none;filter:drop-shadow(0 0.5px 1px #333);transform:translate(0.5px,1px)" />
              <rect class="bg" x="0" y="0" width="24" height="24" rx="8" style="fill:url(#btn-bg-a-m);stroke:url(#btn-stroke-m);stroke-opacity:0.06;stroke-width:2px;transform:translate(0.5px,1px)" />
              <g class="ico" transform="matrix(0.18,0,0,0.18,7,7)">
                <use href="#close" style="fill:#fff" />
              </g>
            </g>
            <text class="btn-txt" x="1033" y="224" dx="12" dy="22" style="font-size:20px;fill:#000">Default</text>
          </g>
          <g class="menu-item">
            <rect x="1181" y="192" width="133" height="99" style="fill:none" />
            <text x="1181" y="192" dx="15" dy="59" style="font-size:26px;fill:#000">Connect</text>
          </g>
          <g class="menu-item">
            <rect x="1318" y="192" width="160" height="99" style="fill:none" />
            <text x="1318" y="192" dx="15" dy="59" style="font-size:26px;fill:#000">Disconnect</text>
          </g>
          <g class="menu-divid">
            <rect x="1488" y="192" width="4" height="99" style="fill:none" />
            <rect class="divid" x="1490" y="212" width="1" height="61" style="fill:none;stroke:#fff;stroke-opacity:0.3;stroke-width:1px;stroke-style:dashed;stroke-dasharray:1px 3px" />
          </g>
          <g class="menu-item">
            <rect x="1502" y="192" width="120" height="99" style="fill:none" />
            <text x="1502" y="192" dx="15" dy="59" style="font-size:26px;fill:#000">Upload</text>
          </g>
          <g class="menu-item">
            <rect x="1630" y="192" width="150" height="99" style="fill:none" />
            <text x="1630" y="192" dx="15" dy="59" style="font-size:26px;fill:#000">Download</text>
          </g>
        </g>
        <rect id="menu-stroke" class="stroke" x="80" y="192" width="1720" height="100" style="fill:none;stroke:#d5d6d6;stroke-width:2px;clip-path:inset(0 2px)" />
      </g>
      <g id="main">
        <rect id="main-bg" class="bg" x="82" y="291" width="1716" height="835" style="fill:#f3f4f4" />
        <g id="split-start">
          <rect id="ss-bg" class="bg" x="82" y="291" width="380" height="835" style="fill:#e7e8e8" />
          <g id="side" class="tree-group">
            <g class="tree-title">
              <rect class="bg" x="82" y="291" width="380" height="49" style="fill:none" />
              <text x="82" y="291" dx="10" dy="33" style="font-weight:bold;font-size:20px;fill:#000">Services</text>
              <g class="ico" transform="matrix(0.38,0,0,0.38,412,303)">
                <use href="#services-sets-menu" style="fill:#505050" />
              </g>
            </g>
            <g class="tree-items">
              <g>
                <rect class="focused" x="82" y="340" width="380" height="55" style="fill:#d5d6d6" />
                <text x="82" y="340" dx="23" dy="34" style="font-size:20px;fill:#000">All services</text>
              </g>
              <text x="82" y="395" dx="23" dy="34" style="font-size:20px;fill:#000">TV</text>
              <text x="82" y="450" dx="23" dy="34" style="font-size:20px;fill:#000">Radio</text>
              <text x="82" y="505" dx="23" dy="34" style="font-size:20px;fill:#000">Data</text>
            </g>
          </g>
          <g id="tree" class="tree-group">
            <g class="tree-title">
              <rect class="bg" x="82" y="595" width="380" height="49" style="fill:none" />
              <text x="82" y="595" dx="10" dy="33" style="font-weight:bold;font-size:20px;fill:#000">Bouquets</text>
            </g>
            <g>
              <text x="82" y="643" dx="24" dy="34" style="font-size:20px;fill:#000">TV</text>
            </g>
            <text x="82" y="697" dx="25" dy="34" style="font-size:20px;fill:#000">Swiss</text>
            <g>
              <rect class="focused" x="82" y="750" width="380" height="55" style="fill:#d5d6d6" />
              <text x="82" y="750" dx="25" dy="34" style="font-size:20px;fill:#000">Italy</text>
            </g>
            <text x="82" y="804" dx="25" dy="34" style="font-size:20px;fill:#000">Tests</text>
            <text x="82" y="857" dx="25" dy="34" style="font-size:20px;fill:#000">Tests 1</text>
            <g>
              <text x="82" y="910" dx="24" dy="34" style="font-size:20px;fill:#000">Radio</text>
            </g>
            <text x="82" y="964" dx="25" dy="34" style="font-size:20px;fill:#000">Swiss</text>
            <text x="82" y="1017" dx="25" dy="34" style="font-size:20px;fill:#000">Italy</text>
          </g>
          <g id="side-tool">
            <rect class="bg" x="82" y="1054" width="380" height="73" style="fill:#eff0f0" />
            <rect class="stroke" x="80" y="1053" width="384" height="73" style="fill:none;stroke:#e2e2e2;stroke-width:2px;clip-path:inset(0 2px 2px)" />
            <g id="st-items">
              <g id="st-item">
                <rect x="95" y="1064" width="174" height="53" style="fill:none" />
                <g class="tool-ico ico" transform="matrix(0.25,0,0,0.25,101,1080)">
                  <use href="#add" style="fill:#545454" />
                </g>
                <text class="tool-txt" x="95" y="1064" dx="28" dy="33" style="font-weight:bold;font-size:21px;fill:#000">New Bouquet</text>
              </g>
              <g class="st-item">
                <!--<rect x="301" y="1064" width="153" height="53" style="fill:#eee;fill-opacity:.6" />-->
                <rect x="301" y="1064" width="153" height="53" style="fill:none" />
                <rect class="btn-bg" x="314" y="1072" width="128" height="32" rx="8" style="fill:#fff;stroke:url(#btn-stroke-m);stroke-width:1px" />
                <g class="btn-ico ico" transform="matrix(0.38,0,0,0.38,334,1075)">
                  <use href="#search" style="fill:#545454" />
                </g>
                <text class="btn-txt" x="314" y="1072" dx="54" dy="22" style="font-size:20px;fill:#000">Find<tspan class="ellipsis" style="font-size:15px">…</tspan></text>
              </g>
            </g>
          </g>
        </g>
        <g id="split">
          <rect class="bg" x="462" y="291" width="11" height="836" style="fill:none" />
          <ellipse cx="467.4" cy="708.4" rx="4" style="fill:#ccc" />
        </g>
        <g id="split-end">
          <rect class="bg" x="473" y="291" width="1325" height="835" style="fill:none" />
          <g class="tree-title">
            <rect x="473" y="291" width="1326" height="49" style="fill:none" />
            <text x="473" y="291" dx="10" dy="32" style="font-weight:bold;font-size:20px;fill:#000">Channels</text>
            <g class="ico" transform="matrix(0.38,0,0,0.38,1751,303)">
              <use href="#list-prefs-menu" style="fill:#505050" />
            </g>
          </g>
          <g class="tree">
            <g class="tree-cols">
              <rect class="bg" x="473" y="340" width="1325" height="26" style="fill:#ececec" />
              <text x="473" y="340" dy="18" style="font-size:17px;fill:#000"><tspan x="479">Index</tspan> <tspan x="578">Name</tspan> <tspan x="883">Parental</tspan> <tspan x="989">Service ID</tspan> <tspan x="1112">Transport ID</tspan> <tspan x="1234">Type</tspan> <tspan x="1363">CAS</tspan> <tspan x="1432">Provider</tspan> <tspan x="1702">System</tspan></text>
              <rect class="ruler" x="571" y="343" width="0.5" height="19" style="fill:none;stroke:#c7c7c7;stroke-width:1px" />
              <rect class="ruler" x="876" y="343" width="0.5" height="19" style="fill:none;stroke:#c7c7c7;stroke-width:1px" />
              <rect class="ruler" x="982" y="343" width="0.5" height="19" style="fill:none;stroke:#c7c7c7;stroke-width:1px" />
              <rect class="ruler" x="1105" y="343" width="0.5" height="19" style="fill:none;stroke:#c7c7c7;stroke-width:1px" />
              <rect class="ruler" x="1226" y="343" width="0.5" height="19" style="fill:none;stroke:#c7c7c7;stroke-width:1px" />
              <rect class="ruler" x="1356" y="343" width="0.5" height="19" style="fill:none;stroke:#c7c7c7;stroke-width:1px" />
              <rect class="ruler" x="1425" y="343" width="0.5" height="19" style="fill:none;stroke:#c7c7c7;stroke-width:1px" />
              <rect class="ruler" x="1696" y="343" width="0.5" height="19" style="fill:none;stroke:#c7c7c7;stroke-width:1px" />
            </g>
            <g class="tree-vp">
              <rect class="bg" x="473" y="366" width="1325" height="687" style="fill:#fff" />
              <rect class="focused" x="473" y="707" width="1325" height="49" style="fill:#0044e2" />
              <text x="473" y="366" dx="0" dy="31" style="font-size:19px;fill:#000"><tspan x="500">38</tspan> <tspan x="580">Giallo</tspan> <tspan x="990">4322</tspan> <tspan x="1114">1000</tspan> <tspan x="1235">HD</tspan> <tspan class="ellipsis" x="1400" style="font-size:15px">...</tspan> <tspan x="1433">TVN</tspan> <tspan x="1703">DVB-S</tspan></text>
              <g class="ico" transform="matrix(0.38,0,0,0.38,884,378)">
                <use href="#service-blacklist" style="fill:#545454" />
              </g>
              <g class="ico" transform="matrix(0.38,0,0,0.38,1364,378)">
                <use href="#crypted" style="fill:#545454" />
              </g>
              <text x="473" y="415" dx="0" dy="31" style="font-size:19px;fill:#000"><tspan x="500">39</tspan> <tspan x="580">TOPcrime HD</tspan> <tspan x="990">132</tspan> <tspan x="1114">1200</tspan> <tspan x="1235">HD</tspan> <tspan class="ellipsis" x="1400" style="font-size:15px">...</tspan> <tspan x="1433">Mediaset</tspan> <tspan x="1703">DVB-S</tspan></text>
              <g class="ico" transform="matrix(0.38,0,0,0.38,884,427)">
                <use href="#service-blacklist" style="fill:#545454" />
              </g>
              <g class="ico" transform="matrix(0.38,0,0,0.38,1364,427)">
                <use href="#crypted" style="fill:#545454" />
              </g>
              <text x="473" y="464" dy="31" style="font-size:19px;fill:#000"><tspan x="500">40</tspan> <tspan x="580">Boing HD</tspan> <tspan x="990">126</tspan> <tspan x="1114">1200</tspan> <tspan x="1235">HD</tspan> <tspan class="ellipsis" x="1400" style="font-size:15px">...</tspan> <tspan x="1434">Mediaset</tspan> <tspan x="1703">DVB-S</tspan></text>
              <g class="ico" transform="matrix(0.38,0,0,0.38,1364,476)">
                <use href="#crypted" style="fill:#545454" />
              </g>
              <text x="473" y="512" dy="31" style="font-size:19px;fill:#000"><tspan x="500">41</tspan> <tspan x="580">K2</tspan> <tspan x="990">15204</tspan> <tspan x="1114">300</tspan> <tspan x="1235">H.264</tspan> <tspan class="ellipsis" x="1400" style="font-size:15px">...</tspan> <tspan x="1433">TVN Discovery Group</tspan> <tspan x="1703">DVB-S</tspan></text>
              <g class="ico" transform="matrix(0.38,0,0,0.38,1364,524)">
                <use href="#crypted" style="fill:#545454" />
              </g>
              <text x="473" y="561" dy="31" style="font-size:19px;fill:#000"><tspan x="500">42</tspan> <tspan x="580">Rai Gulp HD</tspan> <tspan x="990">17712</tspan> <tspan x="1114">12500</tspan> <tspan x="1235">HD</tspan> <tspan x="1400"></tspan> <tspan x="1434">Rai</tspan> <tspan x="1703">DVB-S</tspan></text>
              <text x="473" y="610" dy="31" style="font-size:19px;fill:#000"><tspan x="500">43</tspan> <tspan x="580">Rai YoYo HD</tspan> <tspan x="990">8511</tspan> <tspan x="1114">12400</tspan> <tspan x="1235">HD</tspan> <tspan class="ellipsis" x="1400" style="font-size:15px">...</tspan> <tspan x="1433">RAI</tspan> <tspan x="1703">DVB-S</tspan></text>
              <g class="ico" transform="matrix(0.38,0,0,0.38,1364,622)">
                <use href="#crypted" style="fill:#545454" />
              </g>
              <text x="473" y="658" dy="31" style="font-size:19px;fill:#000"><tspan x="500">44</tspan> <tspan x="580">Frisbee</tspan> <tspan x="990">15205</tspan> <tspan x="1114">300</tspan> <tspan x="1235">H.264</tspan> <tspan class="ellipsis" x="1400" style="font-size:15px">...</tspan> <tspan x="1433">TVN Discovery Group</tspan> <tspan x="1703">DVB-S</tspan></text>
              <g class="ico" transform="matrix(0.38,0,0,0.38,1364,670)">
                <use href="#crypted" style="fill:#545454" />
              </g>
              <text x="473" y="707" dy="31" style="font-size:19px;fill:#fff"><tspan x="500">45</tspan> <tspan x="580">NASA TV HD</tspan> <tspan x="990">504</tspan> <tspan x="1114">900</tspan> <tspan x="1235">TV</tspan> <tspan x="1434">NoName</tspan> <tspan x="1703">DVB-S</tspan></text>
              <text x="473" y="756" dy="31" style="font-size:19px;fill:#000"><tspan x="500">46</tspan> <tspan x="580">Cartoonito HD</tspan> <tspan x="990">133</tspan> <tspan x="1114">1200</tspan> <tspan x="1235">HD</tspan> <tspan class="ellipsis" x="1400" style="font-size:15px">...</tspan> <tspan x="1433">Mediaset</tspan> <tspan x="1703">DVB-S</tspan></text>
              <g class="ico" transform="matrix(0.38,0,0,0.38,1364,768)">
                <use href="#crypted" style="fill:#545454" />
              </g>
              <text x="473" y="805" dy="31" style="font-size:19px;fill:#000"><tspan x="500">47</tspan> <tspan x="580">Super!</tspan> <tspan x="990">1327</tspan> <tspan x="1114">15700</tspan> <tspan x="1235">H.264</tspan> <tspan class="ellipsis" x="1400" style="font-size:15px">...</tspan> <tspan x="1433">M-ThreeSatcom Srl</tspan> <tspan x="1703">DVB-S</tspan></text>
              <g class="ico" transform="matrix(0.38,0,0,0.38,1364,817)">
                <use href="#crypted" style="fill:#545454" />
              </g>
              <text x="473" y="854" dy="31" style="font-size:19px;fill:#000"><tspan x="500">48</tspan> <tspan x="580">Rai News 24 HD</tspan> <tspan x="990">17711</tspan> <tspan x="1114">12500</tspan> <tspan x="1235">HD</tspan> <tspan x="1434">Rai</tspan> <tspan x="1703">DVB-S</tspan></text>
              <text x="473" y="902" dy="31" style="font-size:19px;fill:#000"><tspan x="500">49</tspan> <tspan x="580">Mediaset Italia2 HD</tspan> <tspan x="990">130</tspan> <tspan x="1114">1200</tspan> <tspan x="1235">HD</tspan> <tspan class="ellipsis" x="1400" style="font-size:15px">...</tspan> <tspan x="1433">Mediaset</tspan> <tspan x="1703">DVB-S</tspan></text>
              <g class="ico" transform="matrix(0.38,0,0,0.38,1364,914)">
                <use href="#crypted" style="fill:#545454" />
              </g>
              <text x="473" y="951" dy="31" style="font-size:19px;fill:#000"><tspan x="500">50</tspan> <tspan x="580">Explorer HD Channel</tspan> <tspan x="990">13534</tspan> <tspan x="1114">6900</tspan> <tspan x="1235">HD</tspan> <tspan x="1433">SkyItalia</tspan> <tspan x="1703">DVB-S</tspan></text>
            </g>
            <g class="tree-search">
              <rect class="bg" x="473" y="992" width="1325" height="61" style="fill:#fafafa" />
              <g class="search-item">
                <rect class="btn-bg" x="483" y="1004" width="136" height="30" rx="8" style="fill:#fff;stroke:url(#btn-stroke-m);stroke-width:1px" />
                <text class="btn-txt" x="483" y="1004" dx="12" dy="22" style="font-size:20px;fill:#000">Name</text>
                <g class="btn-caret" transform="matrix(1,0,0,1,592,1006)">
                  <rect class="bg" x="0" y="0" width="24" height="24" rx="8" style="fill:url(#btn-bg-a-m);stroke:url(#btn-stroke-m);stroke-opacity:0.06;stroke-width:2px;transform:translate(0.5px,1px)" />
                  <rect class="fx" x="0" y="0" width="24" height="24" rx="8" style="fill:none;filter:drop-shadow(0 0.5px 1px #333);transform:translate(0.5px,1px)" />
                  <g class="ico" transform="matrix(0.18,0,0,0.18,7,7)">
                    <use href="#close" style="fill:#fff" />
                  </g>
                </g>
              </g>
              <g class="search-item">
                <rect class="input-bg" x="627" y="1003" width="208" height="33" style="fill:#fff;stroke:#d1d2d2;stroke-width:1px" />
                <text class="input-txt" x="627" y="1003" dx="4" dy="23" style="font-size:19px;fill:#000">Nasa</text>
              </g>
              <g class="search-item">
                <rect class="find-bg" x="845" y="1003" width="82" height="33" rx="4" style="fill:#ececec" />
                <text class="find-txt" x="845" y="1003" dx="40" dy="23" text-anchor="middle" style="font-size:19px;fill:#000;fill-opacity:0.89">Find</text>
              </g>
              <g class="search-item">
                <rect class="find-bg" x="936" y="1003" width="166" height="33" rx="4" style="fill:#ececec" />
                <text class="find-txt" x="936" y="1003" dx="83" dy="23" text-anchor="middle" style="font-size:19px;fill:#000;fill-opacity:0.89">Find Previous</text>
              </g>
              <g class="search-item">
                <rect class="find-bg" x="1111" y="1003" width="110" height="33" rx="4" style="fill:#ececec" />
                <text class="find-txt" x="1111" y="1003" dx="55" dy="23" text-anchor="middle" style="font-size:19px;fill:#000;fill-opacity:0.89">Find All</text>
              </g>
              <g class="search-item">
                <rect class="find-h-bg" x="1254" y="1004" width="126" height="31" rx="4" style="fill:#b1d7ff;stroke:#d1d2d2;stroke-width:1px" />
                <text class="find-h-txt" x="1254" y="1004" dx="62" dy="22" text-anchor="middle" style="font-size:18px;fill:#fff;fill-opacity:0.9">Highlight</text>
              </g>
              <g class="ico" transform="matrix(0.23,0,0,0.23,1764,1013)">
                <use href="#close" style="fill:#666" />
              </g>
            </g>
          </g>
          <g id="tree-tool">
            <rect class="bg" x="473" y="1054" width="1325" height="73" style="fill:#f7f8f8" />
            <rect class="stroke" x="471" y="1053" width="1329" height="73" style="fill:none;stroke:#e9eaea;stroke-width:2px;clip-path:inset(0 2px 2px)" />
            <g id="tt-items">
              <g id="tt-item">
                <rect x="487" y="1064" width="174" height="53" style="fill:none" />
                <g class="tool-ico ico" transform="matrix(0.26,0,0,0.26,492,1080)">
                  <use href="#add" style="fill:#545454" />
                </g>
                <text class="tool-txt" x="487" y="1064" dx="28" dy="33" style="font-weight:bold;font-size:21px;fill:#000">Add Channel</text>
              </g>
              <g id="tt-item">
                <rect x="675" y="1064" width="162" height="53" style="fill:none" />
                <g class="tool-ico ico" transform="matrix(0.26,0,0,0.26,679,1080)">
                  <use href="#add" style="fill:#545454" />
                </g>
                <text class="tool-txt" x="675" y="1064" dx="28" dy="33" style="font-weight:bold;font-size:21px;fill:#000">Add Marker</text>
              </g>
              <g id="tt-item" style="opacity:0.24">
                <rect x="850" y="1064" width="162" height="53" style="fill:none" />
                <g class="tool-ico ico" transform="matrix(0.26,0,0,0.26,855,1080)">
                  <use href="#add" style="fill:#545454" />
                </g>
                <text class="tool-txt" x="850" y="1064" dx="28" dy="33" style="font-weight:bold;font-size:21px;fill:#000">New Service</text>
              </g>
              <g class="tt-item">
                <rect x="1021" y="1064" width="161" height="53" style="fill:none" />
                <rect class="btn-fx" x="1034" y="1072" width="135" height="32" rx="8" style="fill:none;filter:drop-shadow(0 1px 2px #d5d6d6)" />
                <rect class="btn-bg" x="1034" y="1072" width="135" height="32" rx="8" style="fill:#fff;stroke:url(#btn-stroke-m);stroke-width:1px" />
                <text class="btn-txt" x="1034" y="1072" dx="22" dy="22" style="font-size:20px;fill:#000">Reference</text>
              </g>
              <g class="tt-item" style="opacity:0.24">
                <rect x="1186" y="1064" width="173" height="53" style="fill:none" />
                <rect class="btn-bg" x="1199" y="1072" width="147" height="32" rx="8" style="fill:#fff;stroke:#000;stroke:url(#btn-stroke-m);stroke-width:1px" />
                <text class="btn-txt" x="1199" y="1072" dx="25" dy="22" style="font-size:20px;fill:#000">Drag&amp;Drop</text>
              </g>
              <g class="tt-item">
                <!--<rect x="1638" y="1064" width="153" height="53" style="fill:#eee;fill-opacity:.6" />-->
                <rect x="1638" y="1064" width="153" height="53" style="fill:none" />
                <rect class="btn-bg" x="1652" y="1072" width="128" height="32" rx="8" style="fill:#fff;stroke:url(#btn-stroke-m);stroke-width:1px" />
                <g class="btn-ico ico" transform="matrix(0.38,0,0,0.38,1664,1075)">
                  <use href="#search" style="fill:#545454" />
                </g>
                <text class="btn-txt"  x="1652" y="1072" dx="46" dy="22" style="font-size:20px;fill:#000">Find<tspan class="ellipsis" style="font-size:15px">…</tspan></text>
              </g>
            </g>
          </g>
        </g>
        <rect id="main-stroke" class="stroke" x="80" y="291" width="1720" height="836" style="fill:none;stroke:#d5d6d6;stroke-width:2px;clip-path:inset(0 2px)" />
      </g>
    </g>
    <g id="statusbar">
      <rect id="sb-bg" x="82" y="1164" width="1716" height="56" rx="15" style="fill:#f3f4f4;clip-path:inset(15px 0 0)" />
      <rect id="sb-stroke" x="80" y="1179" width="1720" height="42" style="fill:none;stroke:#d8d9d9;stroke-width:2px;clip-path:inset(0 2px 2px)" />
      <text x="82" y="1179" dx="29" dy="29" style="font-size:20px;fill:#000"><tspan>Channels: 138</tspan> <tspan dx="10">Bouquet: userbouquet.dbe01.tv</tspan></text>
      <text x="82" y="1179" dx="1281" dy="29" style="font-size:20px;fill:#000"><tspan>TV: 1180</tspan> <tspan dx="10">Radio: 281</tspan> <tspan dx="10">Data: 151</tspan> <tspan dx="10">Total: 1612</tspan></text>
    </g>
    <rect id="w-stroke" x="81" y="81" width="1718" height="1140" rx="15" style="fill:none;stroke:#a6bbb9;stroke-width:1px" />
    <rect id="w-shade" x="83" y="83" width="1714" height="1136" rx="15" style="fill:none;stroke:#fff;stroke-opacity:0.09;stroke-width:1px" />
  </g>

  <!--<image id="screen" href="screenshot.png" width="1880" height="1300" style="opacity:0.5" />-->
  <!--<image id="screen-flip" href="screenshot.png" width="1880" height="1300" style="opacity:0.5" transform="matrix(-1,0,0,1,1880,0)" />-->

  <g id="test" transform="matrix(1,0,0,1,50,1270)">
    <text id="test_light-m" dx="100">m light</text>
    <text id="test_dark-m" dx="200">m dark</text>
    <text id="test_light-w" dx="300">w light</text>
    <text id="test_dark-w" dx="400">w dark</text>
    <text id="test_light-l" dx="500">l light</text>
    <text id="test_dark-l" dx="600">l dark</text>
  </g>
  <script type="text/javascript">
    document.getElementById('test').addEventListener('click', function(e) {
      var id = e.target.getAttribute('id');
      document.getElementById('window').setAttribute('class', id[id.length - 1] + ' ' + id.replace('test_', ''));
    });
  </script>
</svg>
