<?xml version="1.0" encoding="UTF-8" standalone="no"?>
<!DOCTYPE svg PUBLIC "-//W3C//DTD SVG 1.1//EN" "http://www.w3.org/Graphics/SVG/1.1/DTD/svg11.dtd">
<svg width="100%" height="100%" viewBox="0 0 64 64" version="1.1" xmlns="http://www.w3.org/2000/svg" xmlns:xlink="http://www.w3.org/1999/xlink" xml:space="preserve" xmlns:serif="http://www.serif.com/" style="fill-rule:evenodd;clip-rule:evenodd;stroke-linejoin:round;stroke-miterlimit:2;">
    <g transform="matrix(1,0,0,1,-256,0)">
        <g id="ecup" transform="matrix(0.952898,0,0,1.15578,256,-9.96988)">
            <g transform="matrix(1.04943,0,0,0.865217,-268.654,8.62611)">
                <path d="M295.22,11.039L298,3.4L302.698,5.11L300.541,11.039L302.465,11.039C305.134,11.039 307.046,13.205 306.733,15.874L302.548,51.567C302.065,55.691 298.324,59.039 294.201,59.039L281.799,59.039C277.676,59.039 273.935,55.691 273.452,51.567L269.267,15.874C268.954,13.205 270.866,11.039 273.535,11.039L295.22,11.039ZM286.741,46.442L286.741,48.625L289.175,48.625L289.175,46.35C291.143,46.137 292.719,45.457 293.912,44.33C295.225,43.09 295.891,41.464 295.891,39.446C295.891,37.888 295.458,36.592 294.608,35.551C293.784,34.542 292.397,33.677 290.426,32.989L289.175,32.566C289.175,32.566 289.175,25.92 289.175,25.92C289.638,25.983 290.098,26.089 290.553,26.238C291.066,26.407 291.471,26.592 291.763,26.807C291.763,26.807 292.297,29.659 292.297,29.659L294.356,29.659L294.356,24.268L293.947,24.175C292.351,23.813 290.761,23.589 289.175,23.501C289.175,23.501 289.175,21.453 289.175,21.453L286.741,21.453L286.741,23.557C284.928,23.769 283.46,24.358 282.33,25.305C281.053,26.376 280.413,27.758 280.413,29.453C280.413,30.168 280.503,30.816 280.68,31.399C280.862,31.996 281.126,32.525 281.47,32.986C281.812,33.444 282.218,33.842 282.689,34.182C283.143,34.509 283.655,34.805 284.227,35.069C284.728,35.301 285.566,35.612 286.741,36.001C286.741,36.001 286.741,44.069 286.741,44.069C285.985,43.979 285.238,43.786 284.499,43.492C283.707,43.176 283.139,42.858 282.812,42.51C282.812,42.509 282.183,39.175 282.183,39.175L280.109,39.175L280.109,45.147L280.427,45.283C281.07,45.56 282.067,45.824 283.418,46.067C284.562,46.272 285.67,46.397 286.741,46.442ZM291.972,40.354C291.972,41.421 291.699,42.266 291.12,42.878C290.641,43.384 289.991,43.728 289.175,43.926C289.175,43.926 289.175,36.881 289.175,36.881C290.161,37.293 290.866,37.733 291.277,38.222C291.747,38.781 291.972,39.493 291.972,40.354ZM284.298,28.608C284.298,27.893 284.54,27.302 285.034,26.84C285.456,26.446 286.027,26.179 286.741,26.024C286.741,26.024 286.741,31.681 286.741,31.681C286.122,31.412 285.667,31.168 285.378,30.943C285.027,30.67 284.757,30.348 284.572,29.976C284.385,29.6 284.298,29.143 284.298,28.608Z"/>
            </g>
        </g>
    </g>
</svg>
