<?xml version="1.0" encoding="UTF-8" standalone="no"?>
<!DOCTYPE svg PUBLIC "-//W3C//DTD SVG 1.1//EN" "http://www.w3.org/Graphics/SVG/1.1/DTD/svg11.dtd">
<svg width="100%" height="100%" viewBox="0 0 64 64" version="1.1" xmlns="http://www.w3.org/2000/svg" xmlns:xlink="http://www.w3.org/1999/xlink" xml:space="preserve" xmlns:serif="http://www.serif.com/" style="fill-rule:evenodd;clip-rule:evenodd;stroke-linejoin:round;stroke-miterlimit:2;">
    <g transform="matrix(1,0,0,1,-256,0)">
        <g id="ecup" transform="matrix(0.952898,0,0,1.15578,256,-9.96988)">
            <g transform="matrix(1.04943,0,0,0.865217,-268.654,8.62611)">
                <path d="M294.346,12.039L298,2L302.698,3.71L299.667,12.039L306.633,12.039C307.663,12.039 308.4,12.876 308.277,13.906L303.471,54.103C302.948,58.483 298.966,62.039 294.586,62.039L281.414,62.039C277.034,62.039 273.052,58.483 272.529,54.103L267.723,13.906C267.6,12.876 268.337,12.039 269.367,12.039L294.346,12.039ZM289.561,22.96L289.561,21L286.561,21L286.561,23.011C284.408,23.195 282.666,23.719 281.329,24.566C279.53,25.707 278.638,27.285 278.638,29.291C278.638,30.453 278.875,31.428 279.33,32.221C279.782,33.008 280.374,33.667 281.108,34.2C281.816,34.714 282.62,35.139 283.521,35.474C284.384,35.795 285.272,36.087 286.183,36.351C286.31,36.387 286.436,36.424 286.561,36.46L286.561,44.826C285.725,44.75 284.88,44.57 284.026,44.286C282.997,43.944 282.243,43.568 281.778,43.131C281.777,43.13 281.004,39.787 281.004,39.787L278.678,39.787L278.678,46.007L279.067,46.133C280.242,46.514 281.582,46.816 283.089,47.035C284.25,47.205 285.408,47.308 286.561,47.346L286.561,51.198L289.561,51.198L289.561,47.267C291.775,47.044 293.536,46.43 294.849,45.447C296.599,44.138 297.484,42.295 297.484,39.909C297.484,38.716 297.249,37.714 296.796,36.9C296.346,36.093 295.756,35.409 295.027,34.848C294.318,34.303 293.509,33.853 292.599,33.5C291.727,33.162 290.835,32.857 289.922,32.588C289.801,32.552 289.681,32.516 289.561,32.481L289.561,25.538C290.87,25.66 292.014,25.992 292.992,26.542C292.992,26.542 293.751,29.515 293.751,29.515L296.067,29.515L296.067,23.762L295.609,23.676C293.463,23.27 291.447,23.032 289.561,22.96ZM289.561,37.372L289.561,44.655C290.342,44.477 291.005,44.185 291.548,43.771C292.466,43.073 292.917,42.105 292.917,40.874C292.917,40.201 292.758,39.642 292.417,39.204C292.05,38.73 291.566,38.333 290.97,38.005C290.54,37.769 290.07,37.558 289.561,37.372ZM286.561,25.611C285.712,25.743 284.999,25.979 284.422,26.327C283.592,26.828 283.165,27.512 283.165,28.394C283.165,28.98 283.32,29.471 283.649,29.859C284.017,30.292 284.501,30.66 285.098,30.967C285.542,31.196 286.03,31.402 286.561,31.586L286.561,25.611Z"/>
            </g>
        </g>
    </g>
</svg>
