<?xml version="1.0" encoding="UTF-8" standalone="no"?>
<!DOCTYPE svg PUBLIC "-//W3C//DTD SVG 1.1//EN" "http://www.w3.org/Graphics/SVG/1.1/DTD/svg11.dtd">
<svg width="100%" height="100%" viewBox="0 0 64 64" version="1.1" xmlns="http://www.w3.org/2000/svg" xmlns:xlink="http://www.w3.org/1999/xlink" xml:space="preserve" xmlns:serif="http://www.serif.com/" style="fill-rule:evenodd;clip-rule:evenodd;stroke-linejoin:round;stroke-miterlimit:2;">
    <g transform="matrix(1,0,0,1,-128,0)">
        <g id="l10n" transform="matrix(0.952898,0,0,1.15578,128,-9.96988)">
            <g transform="matrix(1.04943,0,0,0.865217,-134.327,8.62611)">
                <path d="M140.958,43.571L136.573,43.571C132.393,43.571 129,40.178 129,35.999L129,9.073C129,4.893 132.393,1.5 136.573,1.5L183.427,1.5C187.607,1.5 191,4.893 191,9.073L191,35.999C191,40.178 187.607,43.571 183.427,43.571L158.454,43.571L141.308,63L140.958,43.571ZM160,5.596L183.604,5.596C186.464,5.596 188.786,7.918 188.786,10.778L188.786,34.294C188.786,37.153 186.464,39.475 183.604,39.475L160,39.475L160,5.596ZM157.232,5.596L135.898,5.596C133.313,5.596 131.214,7.695 131.214,10.28L131.214,34.792C131.214,37.377 133.313,39.475 135.898,39.475L157.232,39.475L157.232,5.596ZM165.921,16.33C166.758,19.373 168.406,22.708 170.827,25.828C168.101,28.314 165.272,29.651 162.893,30.022L161.409,30.253L163.098,33.654L163.807,33.628C166.742,33.521 170.305,32.046 173.668,28.991C177.251,32.393 181.102,34.013 184.244,34.128L185.276,34.165L187.412,29.864L185.253,29.528C182.832,29.151 179.94,27.731 177.18,25.085C179.342,22.194 180.837,19.14 181.629,16.33L187.671,16.33L187.671,12.184L176.048,12.184L176.048,10.727L176.772,9.991L176.272,8.8L172.738,8.8L172.738,12.184L161.114,12.184L161.114,16.33L165.921,16.33ZM150.507,33.724L150.567,33.887L155.936,33.887L147.273,11.45L141.174,11.45L132.477,33.887L137.897,33.887L139.964,28.282C139.964,28.282 148.499,28.282 148.499,28.282C148.499,28.282 150.507,33.724 150.507,33.724ZM144.234,15.923L144.333,16.231C144.334,16.232 145.046,18.353 145.046,18.353C145.047,18.356 147.224,24.326 147.224,24.326C147.224,24.326 141.239,24.326 141.239,24.326C142.906,19.758 143.814,17.241 143.965,16.775C144.064,16.47 144.153,16.186 144.234,15.923ZM177.521,16.33L171.093,16.33C171.892,18.147 172.979,20.03 174.346,21.852C175.682,20.024 176.743,18.142 177.521,16.33Z"/>
            </g>
        </g>
    </g>
</svg>
