<?xml version="1.0" encoding="UTF-8" standalone="no"?>
<!DOCTYPE svg PUBLIC "-//W3C//DTD SVG 1.1//EN" "http://www.w3.org/Graphics/SVG/1.1/DTD/svg11.dtd">
<svg width="100%" height="100%" viewBox="0 0 64 64" version="1.1" xmlns="http://www.w3.org/2000/svg" xmlns:xlink="http://www.w3.org/1999/xlink" xml:space="preserve" xmlns:serif="http://www.serif.com/" style="fill-rule:evenodd;clip-rule:evenodd;stroke-linejoin:round;stroke-miterlimit:2;">
    <g transform="matrix(1,0,0,1,-128,0)">
        <g id="l10n" transform="matrix(0.952898,0,0,1.15578,128,-9.96988)">
            <g transform="matrix(1.04943,0,0,0.865217,-134.327,8.62611)">
                <path d="M142.799,44L138.84,44C135.065,44 132,40.935 132,37.16L132,12.84C132,9.065 135.065,6 138.84,6L181.16,6C184.935,6 188,9.065 188,12.84L188,37.16C188,40.935 184.935,44 181.16,44L158.709,44L143.117,61.668L142.799,44ZM160,9.7L181.32,9.7C183.903,9.7 186,11.797 186,14.38L186,35.62C186,38.203 183.903,40.3 181.32,40.3L160,40.3L160,9.7ZM157.5,9.7L138.23,9.7C135.895,9.7 134,11.595 134,13.93L134,36.07C134,38.405 135.895,40.3 138.23,40.3L157.5,40.3L157.5,9.7ZM165.744,20.063C166.465,22.584 167.808,25.32 169.742,27.911C167.276,30.254 164.698,31.513 162.537,31.85L160.533,32.162L162.499,36.119L163.457,36.084C166.282,35.981 169.742,34.535 172.968,31.498C176.019,34.26 179.25,35.592 181.911,35.689L182.613,35.714L184.224,32.47L182.755,32.241C180.627,31.91 178.1,30.715 175.662,28.499C177.799,25.726 179.263,22.77 180.02,20.063L185.087,20.063L185.087,16.13L174.575,16.13L174.575,14.954L175.212,14.306L174.697,13.078L173.432,13.078L173.42,13.087L171.425,13.087L171.425,16.13L160.913,16.13L160.913,20.063L165.744,20.063ZM151.405,35.7L151.465,35.862L156.361,35.862L148.52,15.552L142.981,15.552L135.109,35.862L140.051,35.862L141.918,30.799C141.918,30.799 149.597,30.799 149.597,30.799C149.597,30.799 151.405,35.7 151.405,35.7ZM145.76,19.687L145.829,19.899C145.829,19.901 146.473,21.816 146.473,21.816C146.474,21.819 148.429,27.182 148.429,27.182C148.429,27.182 143.086,27.182 143.086,27.182C144.584,23.075 145.402,20.811 145.538,20.39C145.618,20.14 145.693,19.906 145.76,19.687ZM175.248,20.063L169.672,20.063C170.358,21.634 171.28,23.259 172.431,24.843C173.604,23.264 174.546,21.637 175.248,20.063ZM145.698,19.03L145.75,19.099L145.788,18.969L145.75,18.852L145.698,19.03Z"/>
            </g>
        </g>
    </g>
</svg>
