<?xml version="1.0" encoding="UTF-8" standalone="no"?>
<!DOCTYPE svg PUBLIC "-//W3C//DTD SVG 1.1//EN" "http://www.w3.org/Graphics/SVG/1.1/DTD/svg11.dtd">
<svg width="100%" height="100%" viewBox="0 0 64 64" version="1.1" xmlns="http://www.w3.org/2000/svg" xmlns:xlink="http://www.w3.org/1999/xlink" xml:space="preserve" xmlns:serif="http://www.serif.com/" style="fill-rule:evenodd;clip-rule:evenodd;stroke-linejoin:round;stroke-miterlimit:2;">
    <g transform="matrix(1,0,0,1,-192,0)">
        <g id="read" transform="matrix(0.952898,0,0,1.15578,192,-9.96988)">
            <g transform="matrix(1.04943,0,0,0.865217,-201.491,8.62611)">
                <path d="M218.325,49.775L197.169,51.117C195.972,51.193 195,50.279 195,49.077L195,16.009C195,14.808 195.972,13.77 197.169,13.694L223.811,12.004L224.189,12.004L250.831,13.694C252.028,13.77 253,14.808 253,16.009L253,49.077C253,50.279 252.028,51.193 250.831,51.117L229.675,49.775C228.882,51.107 227.428,52 225.767,52L222.233,52C220.572,52 219.118,51.107 218.325,49.775ZM246,38.5L227.5,38.5L227.5,41L246,41L246,38.5ZM220.5,38.5L202,38.5L202,41L220.5,41L220.5,38.5ZM246,32.5L227.5,32.5L227.5,35L246,35L246,32.5ZM220.5,32.5L202,32.5L202,35L220.5,35L220.5,32.5ZM220.5,26.5L202,26.5L202,29L220.5,29L220.5,26.5ZM246,26.5L227.5,26.5L227.5,29L246,29L246,26.5ZM245.99,20.5L227.49,20.5L227.49,23L245.99,23L245.99,20.5ZM220.5,20.5L202,20.5L202,23L220.5,23L220.5,20.5Z"/>
            </g>
        </g>
    </g>
</svg>
