<?xml version="1.0" encoding="UTF-8" standalone="no"?>
<!DOCTYPE svg PUBLIC "-//W3C//DTD SVG 1.1//EN" "http://www.w3.org/Graphics/SVG/1.1/DTD/svg11.dtd">
<svg width="100%" height="100%" viewBox="0 0 64 64" version="1.1" xmlns="http://www.w3.org/2000/svg" xmlns:xlink="http://www.w3.org/1999/xlink" xml:space="preserve" xmlns:serif="http://www.serif.com/" style="fill-rule:evenodd;clip-rule:evenodd;stroke-linejoin:round;stroke-miterlimit:2;">
    <g transform="matrix(1,0,0,1,-192,0)">
        <g id="read" transform="matrix(0.952898,0,0,1.15578,192,-9.96988)">
            <g transform="matrix(1.04943,0,0,0.865217,-201.491,8.62611)">
                <path d="M224,16.066C224.045,16.065 224.091,16.066 224.137,16.069L243.41,17.417C244.276,17.477 244.979,18.233 244.979,19.103L244.979,45.789C244.979,46.659 244.276,47.316 243.41,47.255L228.193,46.191C227.644,47.242 226.545,47.959 225.278,47.959L222.722,47.959C221.455,47.959 220.356,47.242 219.807,46.191L204.59,47.255C203.724,47.316 203.021,46.659 203.021,45.789L203.021,19.103C203.021,18.233 203.724,17.477 204.59,17.417L223.863,16.069C223.909,16.066 223.955,16.065 224,16.066ZM239.6,37.3L226.6,37.3L226.6,39L239.6,39L239.6,37.3ZM221.3,37.3L208.3,37.3L208.3,39L221.3,39L221.3,37.3ZM239.6,32.767L226.6,32.767L226.6,34.467L239.6,34.467L239.6,32.767ZM221.3,32.767L208.3,32.767L208.3,34.467L221.3,34.467L221.3,32.767ZM239.6,28.233L226.6,28.233L226.6,29.933L239.6,29.933L239.6,28.233ZM221.3,28.233L208.3,28.233L208.3,29.933L221.3,29.933L221.3,28.233ZM221.3,23.7L208.3,23.7L208.3,25.4L221.3,25.4L221.3,23.7ZM239.6,23.7L226.6,23.7L226.6,25.4L239.6,25.4L239.6,23.7Z"/>
            </g>
        </g>
    </g>
</svg>
