<?xml version="1.0" encoding="UTF-8" standalone="no"?>
<!DOCTYPE svg PUBLIC "-//W3C//DTD SVG 1.1//EN" "http://www.w3.org/Graphics/SVG/1.1/DTD/svg11.dtd">
<svg width="100%" height="100%" viewBox="0 0 64 64" version="1.1" xmlns="http://www.w3.org/2000/svg" xmlns:xlink="http://www.w3.org/1999/xlink" xml:space="preserve" xmlns:serif="http://www.serif.com/" style="fill-rule:evenodd;clip-rule:evenodd;stroke-linejoin:round;stroke-miterlimit:2;">
    <g id="tone" transform="matrix(0.952898,0,0,1.15578,0,-9.96988)">
        <g transform="matrix(1.04943,0,0,0.865217,0,8.62611)">
            <path d="M7,32L7,32C7,18.202 18.202,7 32,7C32.501,7 33.001,7.015 33.5,7.045L33.5,7.045C46.601,7.822 57,18.706 57,32C57,45.608 46.105,56.691 32.569,56.994L32,57C18.202,57 7,45.798 7,32ZM33.5,9.049C45.496,9.822 55,19.81 55,32C55,44.19 45.496,54.178 33.5,54.952L33.5,9.049Z"/>
        </g>
    </g>
</svg>
