<?xml version="1.0" encoding="UTF-8" standalone="no"?>
<!DOCTYPE svg PUBLIC "-//W3C//DTD SVG 1.1//EN" "http://www.w3.org/Graphics/SVG/1.1/DTD/svg11.dtd">
<svg width="100%" height="100%" viewBox="0 0 64 64" version="1.1" xmlns="http://www.w3.org/2000/svg" xmlns:xlink="http://www.w3.org/1999/xlink" xml:space="preserve" xmlns:serif="http://www.serif.com/" style="fill-rule:evenodd;clip-rule:evenodd;stroke-linejoin:round;stroke-miterlimit:2;">
    <path d="M32,36.23L11.77,16.573C10.515,15.353 8.476,15.353 7.221,16.573C7.221,16.573 5.308,18.432 5.308,18.432C4.039,19.665 4.039,21.667 5.308,22.9C5.308,22.9 31.878,48.718 31.878,48.718L32,48.6C32,48.6 32.12,48.72 32.12,48.72L58.692,22.9C59.961,21.667 59.961,19.665 58.692,18.432C58.692,18.432 56.329,16.135 56.329,16.135C55.322,15.157 53.687,15.157 52.68,16.135L32,36.23Z"/>
</svg>
