<svg xmlns="http://www.w3.org/2000/svg" xml:space="preserve" style="fill-rule:evenodd;clip-rule:evenodd;stroke-linejoin:round;stroke-miterlimit:2" viewBox="0 0 64 64"><path d="M38.346 12.039 42 2l4.698 1.71-3.03 8.329h6.965c1.03 0 1.767.837 1.644 1.867l-4.806 40.197c-.523 4.38-4.505 7.936-8.885 7.936H25.414c-4.38 0-8.362-3.556-8.885-7.936l-4.806-40.197c-.123-1.03.614-1.867 1.644-1.867h24.98ZM33.561 22.96V21h-3v2.011c-2.153.184-3.895.708-5.232 1.555-1.799 1.141-2.69 2.719-2.69 4.725 0 1.162.236 2.137.691 2.93a6.287 6.287 0 0 0 1.778 1.979c.708.514 1.512.939 2.413 1.274.863.321 1.751.613 2.662.877l.378.109v8.366a11.248 11.248 0 0 1-2.535-.54c-1.029-.342-1.783-.718-2.248-1.155l-.774-3.344h-2.326v6.22l.39.126c1.174.381 2.514.683 4.021.902a31 31 0 0 0 3.472.311v3.852h3v-3.931c2.214-.223 3.975-.837 5.288-1.82 1.75-1.309 2.635-3.152 2.635-5.538 0-1.193-.235-2.195-.688-3.009a6.648 6.648 0 0 0-1.769-2.052A9.73 9.73 0 0 0 36.6 33.5a33.96 33.96 0 0 0-2.677-.912l-.36-.107v-6.943c1.308.122 2.452.454 3.43 1.004l.76 2.973h2.315v-5.753l-.458-.086c-2.146-.406-4.162-.644-6.048-.716Zm0 14.412v7.283c.781-.178 1.444-.47 1.987-.884.918-.698 1.37-1.666 1.37-2.897 0-.673-.16-1.232-.5-1.67-.368-.474-.852-.871-1.448-1.199-.43-.236-.9-.447-1.409-.633Zm-3-11.761c-.849.132-1.562.368-2.139.716-.83.501-1.257 1.185-1.257 2.067 0 .586.155 1.077.484 1.465.368.433.852.801 1.45 1.108.443.229.931.435 1.462.619v-5.975Z"/></svg>
