<svg xmlns="http://www.w3.org/2000/svg" xml:space="preserve" style="fill-rule:evenodd;clip-rule:evenodd;stroke-linejoin:round;stroke-miterlimit:2" viewBox="0 0 64 64"><path d="M12.958 43.571H8.573A7.576 7.576 0 0 1 1 35.999V9.073A7.576 7.576 0 0 1 8.573 1.5h46.854A7.576 7.576 0 0 1 63 9.073v26.926a7.576 7.576 0 0 1-7.573 7.572H30.454L13.308 63l-.35-19.429ZM32 5.596h23.604a5.184 5.184 0 0 1 5.182 5.182v23.516a5.184 5.184 0 0 1-5.182 5.181H32V5.596Zm-2.768 0H7.898a4.686 4.686 0 0 0-4.684 4.684v24.512a4.686 4.686 0 0 0 4.684 4.683h21.334V5.596Zm8.689 10.734c.837 3.043 2.485 6.378 4.906 9.498-2.726 2.486-5.555 3.823-7.934 4.194l-1.484.231 1.689 3.401.709-.026c2.935-.107 6.498-1.582 9.861-4.637 3.583 3.402 7.434 5.022 10.576 5.137l1.032.037 2.136-4.301-2.159-.336c-2.421-.377-5.313-1.797-8.073-4.443 2.162-2.891 3.657-5.945 4.449-8.755h6.042v-4.146H48.048v-1.457l.724-.736-.5-1.191h-3.534v3.384H33.114v4.146h4.807ZM22.507 33.724l.06.163h5.369L19.273 11.45h-6.099L4.477 33.887h5.42l2.067-5.605h8.535l2.008 5.442Zm-6.273-17.801.099.308.713 2.122 2.178 5.973h-5.985c1.667-4.568 2.575-7.085 2.726-7.551.099-.305.188-.589.269-.852Zm33.287.407h-6.428a28.18 28.18 0 0 0 3.253 5.522 28.482 28.482 0 0 0 3.175-5.522Z"/></svg>
