<svg xmlns="http://www.w3.org/2000/svg" xml:space="preserve" style="fill-rule:evenodd;clip-rule:evenodd;stroke-linejoin:round;stroke-miterlimit:2" viewBox="0 0 64 64"><path d="M26.325 49.775 5.169 51.117a2.016 2.016 0 0 1-2.17-2.04V16.009c0-1.201.973-2.239 2.17-2.315l26.642-1.69h.378l26.642 1.69C60.028 13.77 61 14.808 61 16.009v33.068a2.016 2.016 0 0 1-2.17 2.04l-21.155-1.342A4.544 4.544 0 0 1 33.767 52h-3.534a4.544 4.544 0 0 1-3.908-2.225ZM54 38.5H35.5V41H54v-2.5Zm-25.5 0H10V41h18.5v-2.5Zm25.5-6H35.5V35H54v-2.5Zm-25.5 0H10V35h18.5v-2.5Zm0-6H10V29h18.5v-2.5Zm25.5 0H35.5V29H54v-2.5Zm-.01-6h-18.5V23h18.5v-2.5Zm-25.49 0H10V23h18.5v-2.5Z"/></svg>
