<svg xmlns="http://www.w3.org/2000/svg" xml:space="preserve" style="fill-rule:evenodd;clip-rule:evenodd;stroke-linejoin:round;stroke-miterlimit:2" viewBox="0 0 64 64"><path d="M59 13.7v36.6c0 5.3-4.4 9.7-9.7 9.7H14.7A9.7 9.7 0 0 1 5 50.3V13.7C5 8.4 9.4 4 14.7 4h34.6c5.3 0 9.7 4.4 9.7 9.7ZM26.5 49.2V54h4.4v-4.5a59 59 0 0 0 3.6 0V54h4.4v-5c2.7-.4 5.2-1 7.5-1.8 4.4-1.7 6.6-4.4 6.6-8.3 0-3-1.7-5.5-5.3-7.1a31 31 0 0 0-8.1-2l-.7-.2v-9c1 .4 2 .9 2.7 1.4 1 .8 1.6 2 2 3.5v.6h8v-.7c0-3.9-2-6.7-6.1-8.4-2-.9-4.2-1.5-6.6-2v-5h-4.4v4.6a49.5 49.5 0 0 0-3.6-.1V10h-4.4v4.8c-3.5.4-6.4 1.2-8.7 2.6-3.4 2-5.1 4.5-5.1 7.6 0 3 1.7 5.2 5.3 6.7 1.7.7 4.6 1.3 8.5 2v10.2c-2.5-.5-4.4-1.3-5.7-2.5a6 6 0 0 1-1.8-3.9v-.7h-8v.8c0 3.7 1.8 6.6 5.6 8.8a27 27 0 0 0 9.9 2.8Zm12.4-5.4v-8.3c1.5.4 2.8.7 3.7 1.1 1.4.6 2.2 1.6 2.2 3 0 1-.5 1.7-1.3 2.4a10.8 10.8 0 0 1-4.6 1.8Zm-8 .5v-10l3.6.5v9.5a39.3 39.3 0 0 1-3.6 0Zm0-15.8v-8.8a40.5 40.5 0 0 1 3.6.1V29l-2-.3-1.6-.2ZM26.5 20v7.6c-1.4-.2-2.5-.5-3.1-.7-1.7-.6-2.6-1.4-2.6-2.7 0-1.2.8-2.2 2.3-3 .8-.6 2-1 3.4-1.2Z"/></svg>