<?xml version="1.0" encoding="UTF-8" standalone="no"?>
<!DOCTYPE svg PUBLIC "-//W3C//DTD SVG 1.1//EN" "http://www.w3.org/Graphics/SVG/1.1/DTD/svg11.dtd">
<svg width="100%" height="100%" viewBox="0 0 64 64" version="1.1" xmlns="http://www.w3.org/2000/svg" xmlns:xlink="http://www.w3.org/1999/xlink" xml:space="preserve" xmlns:serif="http://www.serif.com/" style="fill-rule:evenodd;clip-rule:evenodd;stroke-linejoin:round;stroke-miterlimit:2;">
    <path d="M11.087,56L44.927,56L45.057,55.999C50.561,55.929 55.007,51.44 55.007,45.92L55.007,18.08C55.007,12.517 50.491,8 44.927,8L11.087,8C5.524,8 1.007,12.517 1.007,18.08L1.007,45.92C1.007,51.483 5.524,56 11.087,56ZM30.853,14.994L30.853,10.981L25.06,10.981L25.06,15.029C20.86,15.585 16.954,17.29 15.105,20.066C12.1,24.578 16.011,30.878 22.295,33.056C23.063,33.322 24.017,33.568 25.06,33.824L25.06,44.725C22.446,44.138 20.522,42.301 18.9,40.922L14.007,43.71L16.098,45.531C18.509,47.586 21.519,48.802 25.06,49.234L25.06,52.981L30.853,52.981L30.853,49.198C39.081,48.051 44.896,42.337 40.496,36.217C39.733,35.156 38.675,34.19 37.498,33.336C35.764,32.078 33.343,31.35 30.853,30.696L30.853,19.499C33.491,20.074 35.428,21.925 37.06,23.313L41.953,20.525L39.862,18.703C37.441,16.639 34.415,15.422 30.853,14.994ZM30.853,35.422L30.853,44.499C34.497,43.605 37.174,41.369 35.219,38.28C34.414,37.007 32.767,36.113 30.853,35.422ZM25.06,19.742C21.436,20.645 18.83,22.892 20.739,25.988C21.612,27.404 23.18,28.324 25.06,29.032L25.06,19.742Z"/>
</svg>
