<?xml version="1.0" encoding="UTF-8" standalone="no"?>
<!DOCTYPE svg PUBLIC "-//W3C//DTD SVG 1.1//EN" "http://www.w3.org/Graphics/SVG/1.1/DTD/svg11.dtd">
<svg width="100%" height="100%" viewBox="0 0 64 64" version="1.1" xmlns="http://www.w3.org/2000/svg" xmlns:xlink="http://www.w3.org/1999/xlink" xml:space="preserve" xmlns:serif="http://www.serif.com/" style="fill-rule:evenodd;clip-rule:evenodd;stroke-linejoin:round;stroke-miterlimit:2;">
    <path d="M14.762,29.23L49.252,29.23C49.252,29.23 63.18,43.708 60.715,44.826C59.648,45.309 54.588,43.709 49.191,41.739L49.191,62L14.802,62L14.802,41.747C9.413,43.714 4.365,45.309 3.3,44.826C0.835,43.708 14.762,29.23 14.762,29.23ZM36.774,11.359L16.299,11.359L16.299,24.549L22.663,24.549L22.663,13.997L36.774,13.997L36.774,11.359ZM38.538,16.635L24.427,16.635L24.427,24.549L38.538,24.549L38.538,16.635ZM45.299,10.4L45.299,24.549L41.016,24.549L41.016,15.316L38.538,15.316L38.538,10.4L45.299,10.4ZM36.632,3.482L18.459,3.482L18.459,8.758L36.632,8.758L36.632,3.482Z"/>
</svg>
