<?xml version="1.0" encoding="UTF-8" standalone="no"?>
<!DOCTYPE svg PUBLIC "-//W3C//DTD SVG 1.1//EN" "http://www.w3.org/Graphics/SVG/1.1/DTD/svg11.dtd">
<svg width="100%" height="100%" viewBox="0 0 64 64" version="1.1" xmlns="http://www.w3.org/2000/svg" xmlns:xlink="http://www.w3.org/1999/xlink" xml:space="preserve" xmlns:serif="http://www.serif.com/" style="fill-rule:evenodd;clip-rule:evenodd;stroke-linejoin:round;stroke-miterlimit:2;">
    <path d="M40.023,45.152C36.546,47.743 32.294,49.344 27.616,49.373C17.21,49.439 7.34,41.113 5.81,30.674C4.079,18.86 13.39,6.51 25.93,5.634C26.491,5.595 27.054,5.579 27.616,5.581C37.616,5.676 46.996,13.331 48.953,23.2C50.109,29.029 48.516,35.12 45.083,39.958L58.903,53.777L53.775,58.905L40.023,45.152ZM27.395,14.645C21.159,14.705 15.395,19.815 14.718,26.076C14.13,31.512 17.409,37.152 22.491,39.305C29.111,42.111 37.837,38.138 39.843,30.914C41.898,23.51 36.084,14.883 27.811,14.649C27.672,14.646 27.533,14.645 27.395,14.645Z"/>
</svg>
