<?xml version="1.0" encoding="UTF-8" standalone="no"?>
<!DOCTYPE svg PUBLIC "-//W3C//DTD SVG 1.1//EN" "http://www.w3.org/Graphics/SVG/1.1/DTD/svg11.dtd">
<svg width="100%" height="100%" viewBox="0 0 64 64" version="1.1" xmlns="http://www.w3.org/2000/svg" xmlns:xlink="http://www.w3.org/1999/xlink" xml:space="preserve" xmlns:serif="http://www.serif.com/" style="fill-rule:evenodd;clip-rule:evenodd;stroke-linejoin:round;stroke-miterlimit:2;">
    <path d="M19.144,57.582C19.144,55.281 17.276,53.413 14.975,53.413C14.975,53.413 7.418,53.413 7.418,53.413C5.118,53.413 3.25,55.281 3.25,57.582C3.25,59.882 5.118,61.75 7.418,61.75C7.418,61.75 14.975,61.75 14.975,61.75C17.276,61.75 19.144,59.882 19.144,57.582ZM60.75,57.582C60.75,55.281 58.882,53.413 56.582,53.413C56.582,53.413 27.435,53.413 27.435,53.413C25.134,53.413 23.266,55.281 23.266,57.582C23.266,59.882 25.134,61.75 27.435,61.75C27.435,61.75 56.582,61.75 56.582,61.75C58.882,61.75 60.75,59.882 60.75,57.582ZM19.144,45.617C19.144,43.316 17.276,41.448 14.975,41.448L7.418,41.448C5.118,41.448 3.25,43.316 3.25,45.617C3.25,47.918 5.118,49.785 7.418,49.785L14.975,49.785C17.276,49.785 19.144,47.918 19.144,45.617ZM60.75,45.617C60.75,43.316 58.882,41.448 56.582,41.448L27.435,41.448C25.134,41.448 23.266,43.316 23.266,45.617C23.266,47.918 25.134,49.785 27.435,49.785L56.582,49.785C58.882,49.785 60.75,47.918 60.75,45.617ZM19.144,33.652C19.144,31.352 17.276,29.484 14.975,29.484C14.975,29.484 7.418,29.484 7.418,29.484C5.118,29.484 3.25,31.352 3.25,33.652C3.25,35.953 5.118,37.821 7.418,37.821C7.418,37.821 14.975,37.821 14.975,37.821C17.276,37.821 19.144,35.953 19.144,33.652ZM60.75,33.652C60.75,31.352 58.882,29.484 56.582,29.484C56.582,29.484 27.435,29.484 27.435,29.484C25.134,29.484 23.266,31.352 23.266,33.652C23.266,35.953 25.134,37.821 27.435,37.821C27.435,37.821 56.582,37.821 56.582,37.821C58.882,37.821 60.75,35.953 60.75,33.652ZM19.144,21.688C19.144,19.387 17.276,17.519 14.975,17.519C14.975,17.519 7.418,17.519 7.418,17.519C5.118,17.519 3.25,19.387 3.25,21.688C3.25,23.988 5.118,25.856 7.418,25.856C7.418,25.856 14.975,25.856 14.975,25.856C17.276,25.856 19.144,23.988 19.144,21.688ZM48.088,15.692L52.947,20.55C54.561,22.164 57.181,22.164 58.795,20.55C60.408,18.937 60.408,16.316 58.795,14.703C58.795,14.703 51.084,6.992 51.084,6.992C50.259,6.167 49.17,5.764 48.088,5.782C47.006,5.764 45.918,6.167 45.093,6.992C45.093,6.992 37.382,14.703 37.382,14.703C35.768,16.316 35.768,18.937 37.382,20.55C38.996,22.164 41.616,22.164 43.229,20.55L48.088,15.692Z"/>
</svg>
