<?xml version="1.0" encoding="UTF-8" standalone="no"?>
<!DOCTYPE svg PUBLIC "-//W3C//DTD SVG 1.1//EN" "http://www.w3.org/Graphics/SVG/1.1/DTD/svg11.dtd">
<svg width="100%" height="100%" viewBox="0 0 128 128" version="1.1" xmlns="http://www.w3.org/2000/svg" xmlns:xlink="http://www.w3.org/1999/xlink" xml:space="preserve" xmlns:serif="http://www.serif.com/" style="fill-rule:evenodd;clip-rule:evenodd;stroke-linejoin:round;stroke-miterlimit:2;">
    <path d="M73.934,15.359C67.443,14.057 60.757,14.057 54.266,15.359C55.094,19.487 55.718,23.646 56.137,27.836C51.785,28.784 47.637,30.502 43.888,32.909C41.222,29.65 38.723,26.268 36.389,22.763C30.878,26.433 26.151,31.16 22.481,36.671C25.986,39.005 29.368,41.505 32.627,44.17C30.22,47.919 28.502,52.067 27.554,56.419C23.364,56 19.205,55.376 15.077,54.548C13.774,61.039 13.774,67.725 15.077,74.216C19.205,73.388 23.364,72.764 27.554,72.345C28.502,76.697 30.22,80.846 32.627,84.594C29.368,87.26 25.986,89.759 22.481,92.093C26.151,97.604 30.878,102.331 36.389,106.001C38.723,102.496 41.222,99.114 43.888,95.855C47.637,98.262 51.785,99.98 56.137,100.929C55.718,105.118 55.094,109.277 54.266,113.405C60.757,114.708 67.443,114.708 73.934,113.405C73.106,109.277 72.482,105.118 72.063,100.929C76.415,99.98 80.563,98.262 84.312,95.855C86.978,99.114 89.477,102.496 91.811,106.001C97.322,102.331 102.049,97.604 105.719,92.093C102.214,89.759 98.832,87.26 95.573,84.594C97.98,80.846 99.698,76.697 100.646,72.345C104.836,72.764 108.995,73.388 113.123,74.216C114.426,67.725 114.426,61.039 113.123,54.548C108.995,55.376 104.836,56 100.646,56.419C99.698,52.067 97.98,47.919 95.573,44.17C98.832,41.505 102.214,39.005 105.719,36.671C102.049,31.16 97.322,26.433 91.811,22.763C89.477,26.268 86.978,29.65 84.312,32.909C80.563,30.502 76.415,28.784 72.063,27.836C72.482,23.646 73.106,19.487 73.934,15.359ZM64.1,50.882C71.551,50.882 77.6,56.931 77.6,64.382C77.6,71.833 71.551,77.882 64.1,77.882C56.649,77.882 50.6,71.833 50.6,64.382C50.6,56.931 56.649,50.882 64.1,50.882Z"/>
</svg>
