<svg xmlns="http://www.w3.org/2000/svg" style="pointer-events:none;user-select:none" viewBox="0 0 1880 1300"><defs><symbol id="aad"><path d="M37.75 37.75h18.127v-11.5H37.75V8.123h-11.5V26.25H8.123v11.5H26.25v18.127h11.5V37.75z"/></symbol><symbol id="cbw"><path d="m60 14.973-3-.522v35.716c-3.141-.28-8.021-.667-11-.667-.95 0-2.094.039-3.312.102-.962.036-2.014.106-3.059.191-2.678.191-5.264.428-6.629.559V14.451S39.61 13 42.963 13c4 0 14.037 1.451 14.037 1.451l3.001.522A5.166 5.166 0 0 1 63 19.66v32.68a5.162 5.162 0 0 1-5.16 5.16H6.16A5.162 5.162 0 0 1 1 52.34V19.66a5.164 5.164 0 0 1 3-4.687l3-.522S17.037 13 21.037 13C24.39 13 31 14.451 31 14.451v35.901a285.977 285.977 0 0 0-6.629-.559 71.578 71.578 0 0 0-3.059-.191A66.645 66.645 0 0 0 18 49.5c-2.979 0-7.859.387-11 .667V14.451l-3 .522v38.765h56V14.973zM28.5 42.5a2 2 0 0 0-2-2h-14a2 2 0 0 0 0 4h14a2 2 0 0 0 2-2zm25 0a2 2 0 0 0-2-2h-14a2 2 0 0 0 0 4h14a2 2 0 0 0 2-2zm-25-7a2 2 0 0 0-2-2h-14a2 2 0 0 0 0 4h14a2 2 0 0 0 2-2zm25 0a2 2 0 0 0-2-2h-14a2 2 0 0 0 0 4h14a2 2 0 0 0 2-2zm-25-7a2 2 0 0 0-2-2h-14a2 2 0 0 0 0 4h14a2 2 0 0 0 2-2zm25 0a2 2 0 0 0-2-2h-14a2 2 0 0 0 0 4h14a2 2 0 0 0 2-2zm-25-7a2 2 0 0 0-2-2h-14a2 2 0 0 0 0 4h14a2 2 0 0 0 2-2zm25 0a2 2 0 0 0-2-2h-14a2 2 0 0 0 0 4h14a2 2 0 0 0 2-2z"/></symbol><symbol id="cce"><path d="m62.328 7.276-5.604-5.604L32 26.396 7.276 1.672 1.672 7.276 26.396 32 1.672 56.724l5.604 5.604L32 37.604l24.724 24.724 5.604-5.604L37.604 32 62.328 7.276z"/></symbol><symbol id="cdd"><path d="M11.087 56c-5.563 0-10.08-4.517-10.08-10.08V18.08C1.007 12.517 5.524 8 11.087 8h33.84c5.564 0 10.08 4.517 10.08 10.08v27.84c0 5.52-4.446 10.009-9.95 10.079L11.087 56zm19.766-41.006v-4.013H25.06v4.048c-4.2.556-8.106 2.261-9.955 5.037-3.005 4.512.906 10.812 7.19 12.99.768.266 1.722.512 2.765.768v10.901c-2.614-.587-4.538-2.424-6.16-3.803l-4.893 2.788 2.091 1.821c2.411 2.055 5.421 3.271 8.962 3.703v3.747h5.793v-3.783c8.228-1.147 14.043-6.861 9.643-12.981-.763-1.061-1.821-2.027-2.998-2.881-1.734-1.258-4.155-1.986-6.645-2.64V19.499c2.638.575 4.575 2.426 6.207 3.814l4.893-2.788-2.091-1.822c-2.421-2.064-5.447-3.281-9.009-3.709zm0 20.428v9.077c3.644-.894 6.321-3.13 4.366-6.219-.805-1.273-2.452-2.167-4.366-2.858zm-5.793-15.68c-3.624.903-6.23 3.15-4.321 6.246.873 1.416 2.441 2.336 4.321 3.044v-9.29z"/></symbol><symbol id="eet"><path d="M56.256 31.057H13.818C6.744 31.057 1 36.801 1 43.875v61.295c0 7.074 5.744 12.818 12.818 12.818h54.476c7.075 0 12.818-5.744 12.818-12.818V54.119C64.496 68.159 64.463 84.4 64.087 91.084a6.817 6.817 0 0 1-11.642 4.425c-14.421-14.502-16.181-43.133 3.811-64.452zm1.037 59.637C42.669 75.989 44.254 44.706 72.527 26.35L62.162 13.988 105 15.072l-7.263 41.344-11.808-14.082c-28.127 16.992-28.15 39.728-28.636 48.36z"/></symbol><symbol id="ift"><path d="M87.8 55.714h8.488C102.2 55.714 107 60.467 107 66.32v45.074c0 5.854-4.8 10.606-10.712 10.606H11.712C5.8 122 1 117.248 1 111.394V66.32c0-5.853 4.8-10.606 10.712-10.606H31.5L54 77.541c1.413 1.374 4.32 2.133 6.3 2.109 1.98-.023 4.821-.828 6.2-2.236l21.3-21.7zm6.182-49.329C76.101 3.303 44.4 18.916 49.061 45.91H33.544l27.127 26.376L86.518 45.91h-14.41C67.275 21.748 87.952 10.789 93.982 6.385z"/></symbol><symbol id="lgu"><path d="M56.25 57.423a4.33 4.33 0 0 0-4.327-4.327H12.077c-2.388 0-4.327 1.939-4.327 4.327s1.939 4.327 4.327 4.327h39.846a4.33 4.33 0 0 0 4.327-4.327zm0-12.52a4.33 4.33 0 0 0-4.327-4.328H12.077a4.33 4.33 0 0 0-4.327 4.328 4.33 4.33 0 0 0 4.327 4.327h39.846a4.33 4.33 0 0 0 4.327-4.327zm0-12.521a4.33 4.33 0 0 0-4.327-4.327H12.077c-2.388 0-4.327 1.939-4.327 4.327s1.939 4.327 4.327 4.327h39.846a4.33 4.33 0 0 0 4.327-4.327zM13.803 19.471v3.446h10.579v-5.844a11.23 11.23 0 0 0 2.343-1.41c2.237-1.745 3.347-4.068 3.371-6.392S29.057 4.6 26.857 2.8c-.887-.725-1.951-1.273-3.024-1.702l-1.372.918-.062 6.154c-.003.286-.167.503-.402.659-.376.249-.899.364-1.472.364h-2.85c-.565-.008-1.082-.142-1.452-.406-.242-.173-.413-.406-.41-.702l.062-6.155-1.348-.947c-1.083.403-2.158.924-3.06 1.628C9.23 4.357 8.12 6.679 8.096 9.003c-.023 2.323 1.039 4.671 3.239 6.471.725.593 1.567 1.067 2.437 1.454.016.617.026 1.607.031 2.543z"/></symbol><symbol id="ohn"><path d="M21 42.973h89.077c2.783 0 4.643 2.26 4.153 5.042l-9.34 52.943c-.491 2.783-3.149 5.042-5.932 5.042H7.84A3.842 3.842 0 0 1 4 102.16V22h67.2L88 36H16v32h5V42.973z"/></symbol><symbol id="piw"><path d="M14.762 29.23h34.49S63.18 43.708 60.715 44.826c-1.067.483-6.127-1.117-11.524-3.087V62H14.802V41.747C9.413 43.714 4.365 45.309 3.3 44.826.835 43.708 14.762 29.23 14.762 29.23zm22.012-17.871H16.299v13.19h6.364V13.997h14.111v-2.638zm1.764 5.276H24.427v7.914h14.111v-7.914zm6.761-6.235v14.149h-4.283v-9.233h-2.478V10.4h6.761zm-8.667-6.918H18.459v5.276h18.173V3.482z"/></symbol><symbol id="sje"><path d="M114 22v86.16a3.842 3.842 0 0 1-3.84 3.84H17.84a3.842 3.842 0 0 1-3.84-3.84V19.84A3.842 3.842 0 0 1 17.84 16H109l5 6zM94 59.014v-40H38v40h56zM84.5 26v30h-15V26h15z"/></symbol><symbol id="skh"><path d="M40.023 45.152c-3.477 2.591-7.729 4.192-12.407 4.221-10.406.066-20.276-8.26-21.806-18.699C4.079 18.86 13.39 6.51 25.93 5.634a23.135 23.135 0 0 1 1.686-.053c10 .095 19.38 7.75 21.337 17.619 1.156 5.829-.437 11.92-3.87 16.758l13.82 13.819-5.128 5.128-13.752-13.753zM27.395 14.645c-6.236.06-12 5.17-12.677 11.431-.588 5.436 2.691 11.076 7.773 13.229 6.62 2.806 15.346-1.167 17.352-8.391 2.055-7.404-3.759-16.031-12.032-16.265a19.293 19.293 0 0 0-.416-.004z"/></symbol><symbol id="slt"><path d="M18.504 59A7.507 7.507 0 0 1 11 51.496V29.17a7.5 7.5 0 0 1 3.5-6.346v-7.052c0-7.368 5.982-13.351 13.351-13.351h8.298c7.369 0 13.351 5.983 13.351 13.351v7.052A7.5 7.5 0 0 1 53 29.17v22.326a7.507 7.507 0 0 1-7.407 7.503L18.504 59zm26.224-21.288H35.2v-9.528h-6.4v9.528h-9.528v6.4H28.8v9.528h6.4v-9.528h9.528v-6.4zM42.5 15.772a6.354 6.354 0 0 0-6.351-6.351h-8.298a6.354 6.354 0 0 0-6.351 6.351v5.895h21v-5.895z"/></symbol><symbol id="smu"><path d="M19.144 57.582a4.17 4.17 0 0 0-4.169-4.169H7.418c-2.3 0-4.168 1.868-4.168 4.169s1.868 4.168 4.168 4.168h7.557a4.17 4.17 0 0 0 4.169-4.168zm41.606 0a4.17 4.17 0 0 0-4.168-4.169H27.435c-2.301 0-4.169 1.868-4.169 4.169s1.868 4.168 4.169 4.168h29.147a4.17 4.17 0 0 0 4.168-4.168zM19.144 45.617a4.17 4.17 0 0 0-4.169-4.169H7.418c-2.3 0-4.168 1.868-4.168 4.169s1.868 4.168 4.168 4.168h7.557a4.17 4.17 0 0 0 4.169-4.168zm41.606 0a4.17 4.17 0 0 0-4.168-4.169H27.435c-2.301 0-4.169 1.868-4.169 4.169s1.868 4.168 4.169 4.168h29.147a4.17 4.17 0 0 0 4.168-4.168zM19.144 33.652a4.17 4.17 0 0 0-4.169-4.168H7.418a4.17 4.17 0 0 0-4.168 4.168 4.17 4.17 0 0 0 4.168 4.169h7.557a4.17 4.17 0 0 0 4.169-4.169zm41.606 0a4.17 4.17 0 0 0-4.168-4.168H27.435a4.17 4.17 0 0 0-4.169 4.168 4.17 4.17 0 0 0 4.169 4.169h29.147a4.17 4.17 0 0 0 4.168-4.169zM19.144 21.688a4.17 4.17 0 0 0-4.169-4.169H7.418a4.17 4.17 0 0 0-4.168 4.169 4.17 4.17 0 0 0 4.168 4.168h7.557a4.17 4.17 0 0 0 4.169-4.168zm28.944-5.996 4.859 4.858a4.137 4.137 0 0 0 5.848 0 4.137 4.137 0 0 0 0-5.847l-7.711-7.711a4.127 4.127 0 0 0-2.996-1.21 4.125 4.125 0 0 0-2.995 1.21l-7.711 7.711a4.136 4.136 0 0 0 5.847 5.847l4.859-4.858z"/></symbol><symbol id="sns"><path d="M73.934 15.359a50.006 50.006 0 0 0-19.668 0 128.34 128.34 0 0 1 1.871 12.477 37.41 37.41 0 0 0-12.249 5.073 128.485 128.485 0 0 1-7.499-10.146 50.018 50.018 0 0 0-13.908 13.908 128.735 128.735 0 0 1 10.146 7.499 37.41 37.41 0 0 0-5.073 12.249 128.34 128.34 0 0 1-12.477-1.871 49.968 49.968 0 0 0 0 19.668 128.34 128.34 0 0 1 12.477-1.871 37.4 37.4 0 0 0 5.073 12.249 128.485 128.485 0 0 1-10.146 7.499 50.018 50.018 0 0 0 13.908 13.908 128.485 128.485 0 0 1 7.499-10.146 37.433 37.433 0 0 0 12.249 5.074 128.366 128.366 0 0 1-1.871 12.476 49.968 49.968 0 0 0 19.668 0 128.366 128.366 0 0 1-1.871-12.476 37.433 37.433 0 0 0 12.249-5.074 128.485 128.485 0 0 1 7.499 10.146 50.018 50.018 0 0 0 13.908-13.908 128.485 128.485 0 0 1-10.146-7.499 37.4 37.4 0 0 0 5.073-12.249 128.34 128.34 0 0 1 12.477 1.871 49.968 49.968 0 0 0 0-19.668 128.34 128.34 0 0 1-12.477 1.871 37.41 37.41 0 0 0-5.073-12.249 128.735 128.735 0 0 1 10.146-7.499 50.018 50.018 0 0 0-13.908-13.908 128.485 128.485 0 0 1-7.499 10.146 37.41 37.41 0 0 0-12.249-5.073 128.34 128.34 0 0 1 1.871-12.477zM64.1 50.882c7.451 0 13.5 6.049 13.5 13.5s-6.049 13.5-13.5 13.5-13.5-6.049-13.5-13.5 6.049-13.5 13.5-13.5z"/></symbol><symbol id="tow"><path d="M64 64V45H0v19h64zm-25.025-5.747.001 1.834a1.948 1.948 0 1 1-3.897 0l-.002-6.41-1.968 1.774a2.105 2.105 0 0 1-1.48.524 2.105 2.105 0 0 1-1.48-.524l-1.968-1.774-.003 6.41a1.95 1.95 0 0 1-3.897 0l.002-5.24h-6.669l4.099 3.89c.751.713.751 1.869.002 2.581-.75.711-1.968.71-2.719-.002l-4.104-3.895-4.104 3.895a1.999 1.999 0 0 1-2.719.002 1.76 1.76 0 0 1 .002-2.581l4.104-3.895-4.104-3.895c-.751-.712-.752-1.868-.002-2.58s1.968-.711 2.719.002l4.104 3.895 4.104-3.895a1.998 1.998 0 0 1 2.719-.002 1.76 1.76 0 0 1-.002 2.58l-4.099 3.89h6.669l.002-5.24.002-.072a1.674 1.674 0 0 1 .571-1.356c.276-.249.614-.408.97-.477a1.942 1.942 0 0 1 .578-.036c.454.033.899.206 1.247.52l3.976 3.583 3.975-3.583a2.084 2.084 0 0 1 1.248-.52 1.94 1.94 0 0 1 .578.036c.356.069.694.228.97.477.412.371.602.868.571 1.356l.001.072.003 8.646h2.912l.003-8.83a1.95 1.95 0 0 1 3.897 0l-.004 8.839 6.372.002a1.798 1.798 0 0 1 0 3.597l-8.471-.003a1.8 1.8 0 0 1-1.798-1.799l.001-1.796h-2.912zM25.286 39.498 25 39.5c-10.072 0-18.25-8.402-18.25-18.75S14.928 2 25 2s18.25 8.402 18.25 18.75a19.05 19.05 0 0 1-2.301 9.115L52 25.842v-3.071a1.5 1.5 0 0 1 1.5-1.5h3a1.5 1.5 0 0 1 1.5 1.5v11a1.5 1.5 0 0 1-1.5 1.5h-3a1.5 1.5 0 0 1-1.5-1.5v-1.543l-25.926 9.436-.788-2.166z"/></symbol><symbol id="apl"><path d="m32 45.423 26.667-26.846H5.333L32 45.423z"/></symbol><linearGradient id="bqf" x1="0" x2="0" y1="0" y2="1"><stop offset="0" style="stop-color:#3d3c3b"/><stop offset="1" style="stop-color:#333332"/></linearGradient><linearGradient id="brf" x1="0" x2="1" y1="0" y2="0"><stop offset="0" style="stop-color:#3d3c3b"/><stop offset="1" style="stop-color:#333332"/></linearGradient><linearGradient id="bsf" x1="0" x2="0" y1="0" y2="1"><stop offset="0" style="stop-color:#545452"/><stop offset="1" style="stop-color:#4b4b4a"/></linearGradient><filter id="btf" color-interpolation-filters="sRGB"><feDropShadow dx="0" dy="0" stdDeviation=".75"/><feDropShadow dx="0" dy="0" stdDeviation=".5"/><feDropShadow dx="0" dy="0" stdDeviation="1"/></filter></defs><rect width="1880" height="1300" style="fill:#b4d0cd"/><g style="font-family:'Sans-Serif',system-ui,sans-serif"><rect width="1718" height="1140" x="81" y="81" rx="0" style="fill:#171717;stroke:#acc6c3;stroke-width:1px"/><rect width="1718" height="48" x="81" y="81" rx="0" style="fill:#3a3a3a;stroke:#131312;stroke-width:2px;clip-path:inset(1px 1px 0)"/><rect width="1718" height="1" x="81" y="127" style="fill:none;stroke:#222020;stroke-width:2px;clip-path:inset(0 1px)"/><text x="81" y="83.5" dx="855" dy="28" style="font-family:'Sans-Serif',system-ui,sans-serif;font-weight:700;font-size:19px;fill:#aaa" text-anchor="middle">e2 SAT Editor</text><rect width="10.5" height="1" x="1670" y="107" style="fill:none;stroke:#fdfdfd;stroke-width:1.1px"/><g transform="matrix(.9 0 0 .9 1715 100)"><rect width="15" height="13" style="fill:none;stroke:#fdfdfd;stroke-width:3px;clip-path:inset(0 0 2px)"/><rect width="13" height="7" x="1" y="4" style="fill:none;stroke:#fdfdfd;stroke-width:1.7px"/></g><g transform="rotate(45 773.49 2187.224)"><rect width="15" height="1" y="7" style="fill:none;stroke:#fdfdfd;stroke-width:1.3px"/><rect width="1" height="15" x="7" style="fill:none;stroke:#fdfdfd;stroke-width:1.3px"/></g><rect width="1716" height="36" x="82" y="129" style="fill:#222020"/><text x="83" y="131" dx="12" dy="24" style="font-size:20px;word-spacing:15px;fill:#fff;fill-opacity:.9">File Edit Find Tools Window Help</text><rect width="1718" height="1" x="81" y="165.5" style="fill:#e2e2e2;stroke:#1d1c1c"/><rect width="1716" height="67" x="82" y="167" style="fill:#222020"/><rect width="128" height="67" x="82" y="167" style="fill:#222020"/><rect width="112" height="53" x="90" y="173" rx="3" style="fill:url(#bqf);stroke:url(#bsf);stroke-width:1px;filter:url(#btf)"/><use href="#aad" style="fill:#c3c3c3" transform="matrix(.26 0 0 .26 96 191)"/><text x="90" y="173" dx="27" dy="33" style="font-weight:700;font-size:18px;fill:#fff">New Tab</text><rect width="1" height="67" x="210" y="167" style="fill:#95c1f1;stroke:#12608a"/><rect width="157" height="69" x="211" y="166" style="fill:#12608a;stroke:#12608a;stroke-width:2px;clip-path:inset(1px 0)"/><text x="211" y="165.5" dx="15" dy="41" style="font-size:19px;fill:#fff">enigma_db</text><g transform="matrix(.9 0 0 .9 341 195.5)"><rect width="22" height="22" x="-4.5" y="-4.5" rx="11" style="fill:#aaa;fill-opacity:.44"/><use href="#cce" style="fill:#fff" transform="matrix(.17 0 0 .17 1.2 1.2)"/></g><rect width="292" height="69" x="368" y="166" style="fill:#2a2a29;stroke:#363636;stroke-width:2px;clip-path:inset(1px 0)"/><use href="#piw" style="fill:#fff" transform="matrix(.38 0 0 .38 380 186)"/><text x="368" y="165.5" dx="46" dy="41" style="font-size:19px;fill:#fff">enigma_db - Picons <tspan style="font-size:15px">…</tspan></text><g transform="matrix(.9 0 0 .9 634 195.5)"><rect width="22" height="22" x="-4.5" y="-4.5" rx="11" style="fill:#aaa;fill-opacity:.44"/><use href="#cce" style="fill:#fff" transform="matrix(.17 0 0 .17 1.2 1.2)"/></g><rect width="154" height="69" x="660" y="166" style="fill:#2a2a29;stroke:#363636;stroke-width:2px;clip-path:inset(1px 0)"/><text x="660" y="165.5" dx="15" dy="41" style="font-size:19px;fill:#fff">neutrino</text><g transform="matrix(.9 0 0 .9 788 195.5)"><rect width="22" height="22" x="-4.5" y="-4.5" rx="11" style="fill:#aaa;fill-opacity:.44"/><use href="#cce" style="fill:#fff" transform="matrix(.17 0 0 .17 1.2 1.2)"/></g><rect width="292" height="69" x="814" y="166" style="fill:#2a2a29;stroke:#363636;stroke-width:2px;clip-path:inset(1px 0)"/><use href="#tow" style="fill:#fff" transform="matrix(.38 0 0 .38 826 186)"/><text x="814" y="165.5" dx="46" dy="41" style="font-size:19px;fill:#fff">enigma_db - Edit Set<tspan style="font-size:15px">…</tspan></text><g transform="matrix(.9 0 0 .9 1081 195.5)"><rect width="22" height="22" x="-4.5" y="-4.5" rx="11" style="fill:#aaa;fill-opacity:.44"/><use href="#cce" style="fill:#fff" transform="matrix(.17 0 0 .17 1.2 1.2)"/></g><rect width="293" height="69" x="1106" y="166" style="fill:#2a2a29;stroke:#363636;stroke-width:2px;clip-path:inset(1px 0)"/><use href="#cbw" style="fill:#fff" transform="matrix(.38 0 0 .38 1119 186)"/><text x="1106" y="165.5" dx="46" dy="41" style="font-size:19px;fill:#fff">enigma_db - Channe<tspan style="font-size:15px">…</tspan></text><g transform="matrix(.9 0 0 .9 1373 195.5)"><rect width="22" height="22" x="-4.5" y="-4.5" rx="11" style="fill:#aaa;fill-opacity:.44"/><use href="#cce" style="fill:#fff" transform="matrix(.17 0 0 .17 1.2 1.2)"/></g><rect width="2" height="67" x="1398" y="167" style="fill:#333"/><rect width="1716" height="95" x="82" y="234" style="fill:#171717"/><use href="#ohn" style="fill:#c4c4c4" transform="matrix(.38 0 0 .38 106 257)"/><text x="88.5" y="232" dx="69" dy="59" style="font-size:25.5px;fill:#fff">Open</text><use href="#sje" style="fill:#c4c4c4" transform="matrix(.38 0 0 .38 251 257)"/><text x="234.5" y="232" dx="69" dy="59" style="font-size:25.5px;fill:#fff">Save</text><rect width="4" height="44" x="388" y="262" style="fill:#252323;stroke:#1d1c1c;stroke-width:2px;clip-path:inset(1px 1px 1px 0)"/><use href="#ift" style="fill:#c4c4c4" transform="matrix(.38 0 0 .38 400 257)"/><text x="382.5" y="232" dx="69" dy="59" style="font-size:25.5px;fill:#fff">Import</text><use href="#eet" style="fill:#c4c4c4" transform="matrix(.38 0 0 .38 560 257)"/><text x="540.5" y="232" dx="69" dy="59" style="font-size:25.5px;fill:#fff">Export</text><rect width="4" height="44" x="714" y="262" style="fill:#252323;stroke:#1d1c1c;stroke-width:2px;clip-path:inset(1px 1px 1px 0)"/><use href="#sns" style="fill:#c4c4c4" transform="matrix(.38 0 0 .38 725 257)"/><text x="708.5" y="232" dx="69" dy="59" style="font-size:25.5px;fill:#fff">Settings</text><rect width="100" height="34" x="1134" y="264" rx="3" style="fill:url(#bqf);stroke:url(#bsf);stroke-width:1px;filter:url(#btf)"/><rect width="24" height="24" x="1226.5" y="269" rx="8" style="fill:none;stroke:none;stroke-opacity:.06;stroke-width:2px"/><use href="#apl" style="fill:#b5b5b4" transform="matrix(.23 0 0 .23 1214 273)"/><text x="1129" y="266" dx="12" dy="22" style="font-size:20px;fill:#fff">Default</text><text x="1242.5" y="232" dx="15" dy="59" style="font-size:25.5px;fill:#fff">Connect</text><text x="1367.5" y="232" dx="15" dy="59" style="font-size:25.5px;fill:#fff">Disconnect</text><rect width="4" height="44" x="1527" y="262" style="fill:#252323;stroke:#1d1c1c;stroke-width:2px;clip-path:inset(1px 1px 1px 0)"/><text x="1527.5" y="232" dx="15" dy="59" style="font-size:25.5px;fill:#fff">Upload</text><text x="1638.5" y="232" dx="15" dy="59" style="font-size:25.5px;fill:#fff">Download</text><rect width="1720" height="95" x="80" y="234" style="fill:none;stroke:#fff;stroke-opacity:.09;stroke-width:2px;clip-path:inset(0 2px)"/><rect width="1716" height="820" x="82" y="328" style="fill:#222020"/><rect width="380" height="820" x="82" y="328" style="fill:#222020"/><text x="82" y="328" dx="10" dy="33" style="font-weight:700;font-size:19px;fill:#fff">Services</text><rect width="38" height="32" x="420" y="335" rx="3" style="fill:url(#bqf);stroke:url(#bsf);filter:url(#btf)"/><use href="#smu" style="fill:#c4c4c4" transform="matrix(.38 0 0 .38 427 338)"/><rect width="380" height="55" x="82" y="340" style="fill:#12608a" transform="matrix(1 0 0 .996 0 38.2)"/><text x="80" y="378" dx="23" dy="34" style="font-size:19.5px;fill:#fff">All services</text><text x="80" y="433" dx="23" dy="34" style="font-size:19.5px;fill:#fff">TV</text><text x="80" y="488" dx="23" dy="34" style="font-size:19.5px;fill:#fff">Radio</text><text x="80" y="543" dx="23" dy="34" style="font-size:19.5px;fill:#fff">Data</text><text x="82" y="632" dx="10" dy="33" style="font-weight:700;font-size:19px;fill:#fff">Bouquets</text><text x="80" y="681" dx="24" dy="34" style="font-size:19.5px;fill:#fff">TV</text><use href="#apl" style="fill:#adacac" transform="matrix(.22 0 0 .22 86 701)"/><text x="80" y="735" dx="25" dy="34" style="font-size:19.5px;fill:#fff">Swiss</text><rect width="380" height="55" x="82" y="750" style="fill:#12608a" transform="matrix(1 0 0 .996 0 39.4)"/><text x="80" y="788" dx="25" dy="34" style="font-size:19.5px;fill:#fff">Italy</text><text x="80" y="842" dx="25" dy="34" style="font-size:19.5px;fill:#fff">Tests</text><text x="80" y="895" dx="25" dy="34" style="font-size:19.5px;fill:#fff">Tests 1</text><text x="80" y="948" dx="24" dy="34" style="font-size:19.5px;fill:#fff">Radio</text><use href="#apl" style="fill:#adacac" transform="matrix(.22 0 0 .22 86 968)"/><text x="80" y="1002" dx="25" dy="34" style="font-size:19.5px;fill:#fff">Swiss</text><text x="80" y="1055" dx="25" dy="34" style="font-size:19.5px;fill:#fff">Italy</text><g style="clip-path:inset(0 0 0-2px);filter:url(#btf)" transform="matrix(.997 0 0 .997 -7.5 37)"><rect width="23" height="404" x="448" y="644" style="fill:#1d1c1c;stroke:#2e2d2c;stroke-width:2px;clip-path:inset(0 1px 0 0)"/><rect width="22" height="22" x="448.5" y="644.5" rx="0" style="fill:url(#brf);stroke:#4f4f4e;filter:url(#btf)"/><use href="#apl" style="fill:#d3d2d2" transform="matrix(.22 0 0 -.22 452.3 662.5)"/><rect width="22" height="22" x="448.5" y="1025.5" rx="0" style="fill:url(#brf);stroke:#4f4f4e;filter:url(#btf)"/><use href="#apl" style="fill:#d3d2d2" transform="matrix(.22 0 0 .22 452.3 1030)"/><rect width="22" height="318" x="448.5" y="669.5" rx="0" style="fill:url(#brf);fill-opacity:.7;stroke:#4f4f4e;stroke-opacity:.8"/></g><rect width="380" height="65" x="82" y="1084" style="fill:#3d3d3d"/><rect width="384" height="65" x="80" y="1083" style="fill:none;stroke:#4e4d4d;stroke-width:2px;clip-path:inset(0 2px 2px)"/><use href="#aad" style="fill:#c4c4c4" transform="matrix(.25 0 0 .25 101 1106.5)"/><text x="95" y="1090.5" dx="28" dy="33" style="font-weight:700;font-size:20.5px;fill:#fff">New Bouquet</text><rect width="100" height="34" x="349" y="1099" rx="3" style="fill:url(#bqf);stroke:url(#bsf);stroke-width:1px;filter:url(#btf)"/><use x="15" href="#skh" style="fill:#c4c4c4" transform="matrix(.38 0 0 .38 354 1103)"/><text x="334" y="1101" dx="54" dy="22" style="font-size:20px;fill:#fff">Find<tspan style="font-size:15px">…</tspan></text><rect width=".5" height="28" x="465.5" y="706" style="fill:none;stroke:#fff;stroke-opacity:.25;stroke-dasharray:0,2px,0"/><text x="469" y="328" dx="10" dy="32" style="font-weight:700;font-size:19px;fill:#fff">Channels</text><rect width="38" height="32" x="1755" y="335" rx="3" style="fill:url(#bqf);stroke:url(#bsf);filter:url(#btf)"/><use href="#lgu" style="fill:#c4c4c4" transform="matrix(.38 0 0 .38 1762 338)"/><rect width="1325" height="26" x="469" y="377" style="fill:url(#bqf);stroke:#4e4d4d;stroke-width:2px;clip-path:inset(1px 1px 0)"/><text x="469" y="379" dy="18" style="font-size:17px;fill:#fff"><tspan x="472">Index</tspan> <tspan x="571">Name</tspan> <tspan x="876">Parental</tspan> <tspan x="982">Service ID</tspan> <tspan x="1105">Transport ID</tspan> <tspan x="1227">Type</tspan> <tspan x="1356">CAS</tspan> <tspan x="1425">Provider</tspan> <tspan x="1695">System</tspan></text><rect width="3" height="26" x="564" y="377" style="fill:#4e4d4d;stroke:#171717;stroke-width:1px;clip-path:inset(1px 0 1px 1px)"/><rect width="3" height="26" x="869" y="377" style="fill:#4e4d4d;stroke:#171717;stroke-width:1px;clip-path:inset(1px 0 1px 1px)"/><rect width="3" height="26" x="975" y="377" style="fill:#4e4d4d;stroke:#171717;stroke-width:1px;clip-path:inset(1px 0 1px 1px)"/><rect width="3" height="26" x="1098" y="377" style="fill:#4e4d4d;stroke:#171717;stroke-width:1px;clip-path:inset(1px 0 1px 1px)"/><rect width="3" height="26" x="1219" y="377" style="fill:#4e4d4d;stroke:#171717;stroke-width:1px;clip-path:inset(1px 0 1px 1px)"/><rect width="3" height="26" x="1349" y="377" style="fill:#4e4d4d;stroke:#171717;stroke-width:1px;clip-path:inset(1px 0 1px 1px)"/><rect width="3" height="26" x="1418" y="377" style="fill:#4e4d4d;stroke:#171717;stroke-width:1px;clip-path:inset(1px 0 1px 1px)"/><rect width="3" height="26" x="1689" y="377" style="fill:#4e4d4d;stroke:#171717;stroke-width:1px;clip-path:inset(1px 0 1px 1px)"/><rect width="1325" height="687" x="469" y="403" style="fill:#131312"/><rect width="1325" height="49" x="473" y="707" style="fill:#12608a" transform="matrix(1 0 0 .996 -4 39.1)"/><text x="469" y="404" dy="31" style="font-size:20px;fill:#fff"><tspan x="492">38</tspan> <tspan x="572">Giallo</tspan> <tspan x="982">4322</tspan> <tspan x="1106">1000</tspan> <tspan x="1227">HD</tspan> <tspan x="1392" style="font-size:15px">...</tspan> <tspan x="1425">TVN</tspan> <tspan x="1695">DVB-S</tspan></text><use href="#slt" style="fill:#c4c4c4" transform="matrix(.38 0 0 .38 880 416)"/><use href="#cdd" style="fill:#c4c4c4" transform="matrix(.38 0 0 .38 1360 416)"/><text x="469" y="453" dy="31" style="font-size:20px;fill:#fff"><tspan x="492">39</tspan> <tspan x="572">TOPcrime HD</tspan> <tspan x="982">132</tspan> <tspan x="1106">1200</tspan> <tspan x="1227">HD</tspan> <tspan x="1392" style="font-size:15px">...</tspan> <tspan x="1425">Mediaset</tspan> <tspan x="1695">DVB-S</tspan></text><use href="#slt" style="fill:#c4c4c4" transform="matrix(.38 0 0 .38 880 465)"/><use href="#cdd" style="fill:#c4c4c4" transform="matrix(.38 0 0 .38 1360 465)"/><text x="469" y="502" dy="31" style="font-size:20px;fill:#fff"><tspan x="492">40</tspan> <tspan x="572">Boing HD</tspan> <tspan x="982">126</tspan> <tspan x="1106">1200</tspan> <tspan x="1227">HD</tspan> <tspan x="1392" style="font-size:15px">...</tspan> <tspan x="1426">Mediaset</tspan> <tspan x="1695">DVB-S</tspan></text><use href="#cdd" style="fill:#c4c4c4" transform="matrix(.38 0 0 .38 1360 514)"/><text x="469" y="550" dy="31" style="font-size:20px;fill:#fff"><tspan x="492">41</tspan> <tspan x="572">K2</tspan> <tspan x="982">15204</tspan> <tspan x="1106">300</tspan> <tspan x="1227">H.264</tspan> <tspan x="1392" style="font-size:15px">...</tspan> <tspan x="1425">TVN Discovery Group</tspan> <tspan x="1695">DVB-S</tspan></text><use href="#cdd" style="fill:#c4c4c4" transform="matrix(.38 0 0 .38 1360 562)"/><text x="469" y="599" dy="31" style="font-size:20px;fill:#fff"><tspan x="492">42</tspan> <tspan x="572">Rai Gulp HD</tspan> <tspan x="982">17712</tspan> <tspan x="1106">12500</tspan> <tspan x="1227">HD</tspan>  <tspan x="1426">Rai</tspan> <tspan x="1695">DVB-S</tspan></text><text x="469" y="648" dy="31" style="font-size:20px;fill:#fff"><tspan x="492">43</tspan> <tspan x="572">Rai YoYo HD</tspan> <tspan x="982">8511</tspan> <tspan x="1106">12400</tspan> <tspan x="1227">HD</tspan> <tspan x="1392" style="font-size:15px">...</tspan> <tspan x="1425">RAI</tspan> <tspan x="1695">DVB-S</tspan></text><use href="#cdd" style="fill:#c4c4c4" transform="matrix(.38 0 0 .38 1360 660)"/><text x="469" y="696" dy="31" style="font-size:20px;fill:#fff"><tspan x="492">44</tspan> <tspan x="572">Frisbee</tspan> <tspan x="982">15205</tspan> <tspan x="1106">300</tspan> <tspan x="1227">H.264</tspan> <tspan x="1392" style="font-size:15px">...</tspan> <tspan x="1425">TVN Discovery Group</tspan> <tspan x="1695">DVB-S</tspan></text><use href="#cdd" style="fill:#c4c4c4" transform="matrix(.38 0 0 .38 1360 708)"/><text x="469" y="745" dy="31" style="font-size:20px;fill:#fff"><tspan x="492">45</tspan> <tspan x="572">NASA TV HD</tspan> <tspan x="982">504</tspan> <tspan x="1106">900</tspan> <tspan x="1227">TV</tspan> <tspan x="1426">NoName</tspan> <tspan x="1695">DVB-S</tspan></text><text x="469" y="794" dy="31" style="font-size:20px;fill:#fff"><tspan x="492">46</tspan> <tspan x="572">Cartoonito HD</tspan> <tspan x="982">133</tspan> <tspan x="1106">1200</tspan> <tspan x="1227">HD</tspan> <tspan x="1392" style="font-size:15px">...</tspan> <tspan x="1425">Mediaset</tspan> <tspan x="1695">DVB-S</tspan></text><use href="#cdd" style="fill:#c4c4c4" transform="matrix(.38 0 0 .38 1360 806)"/><text x="469" y="843" dy="31" style="font-size:20px;fill:#fff"><tspan x="492">47</tspan> <tspan x="572">Super!</tspan> <tspan x="982">1327</tspan> <tspan x="1106">15700</tspan> <tspan x="1227">H.264</tspan> <tspan x="1392" style="font-size:15px">...</tspan> <tspan x="1425">M-ThreeSatcom Srl</tspan> <tspan x="1695">DVB-S</tspan></text><use href="#cdd" style="fill:#c4c4c4" transform="matrix(.38 0 0 .38 1360 855)"/><text x="469" y="892" dy="31" style="font-size:20px;fill:#fff"><tspan x="492">48</tspan> <tspan x="572">Rai News 24 HD</tspan> <tspan x="982">17711</tspan> <tspan x="1106">12500</tspan> <tspan x="1227">HD</tspan> <tspan x="1426">Rai</tspan> <tspan x="1695">DVB-S</tspan></text><text x="469" y="940" dy="31" style="font-size:20px;fill:#fff"><tspan x="492">49</tspan> <tspan x="572">Mediaset Italia2 HD</tspan> <tspan x="982">130</tspan> <tspan x="1106">1200</tspan> <tspan x="1227">HD</tspan> <tspan x="1392" style="font-size:15px">...</tspan> <tspan x="1425">Mediaset</tspan> <tspan x="1695">DVB-S</tspan></text><use href="#cdd" style="fill:#c4c4c4" transform="matrix(.38 0 0 .38 1360 952)"/><text x="469" y="989" dy="31" style="font-size:20px;fill:#fff"><tspan x="492">50</tspan> <tspan x="572">Explorer HD Channel</tspan> <tspan x="982">13534</tspan> <tspan x="1106">6900</tspan> <tspan x="1227">HD</tspan> <tspan x="1425">SkyItalia</tspan> <tspan x="1695">DVB-S</tspan></text><g style="clip-path:inset(0 0 0-2px);filter:url(#btf)" transform="matrix(.997 0 0 .997 -4.5 37.5)"><rect width="23" height="635.5" x="1784" y="341" style="fill:#1d1c1c;stroke:#2e2d2c;stroke-width:2px;clip-path:inset(0 1px 0 0)"/><rect width="22" height="22" x="1784.5" y="341.5" rx="0" style="fill:url(#brf);stroke:#4f4f4e;filter:url(#btf)"/><use href="#apl" style="fill:#d3d2d2" transform="matrix(.22 0 0 -.22 1788.3 359.5)"/><rect width="22" height="22" x="1784.5" y="954" rx="0" style="fill:url(#brf);stroke:#4f4f4e;filter:url(#btf)"/><use href="#apl" style="fill:#d3d2d2" transform="matrix(.22 0 0 .22 1788.3 959)"/><rect width="22" height="70" x="1784.5" y="498.5" rx="0" style="fill:url(#brf);fill-opacity:.7;stroke:#4f4f4e;stroke-opacity:.8"/></g><g style="clip-path:inset(-1px 0 0);filter:url(#btf)" transform="matrix(.997 0 0 .997 -2 17)"><rect width="1308" height="23" x="473" y="997" style="fill:#1d1c1c;stroke:#2e2d2c;stroke-width:2px;clip-path:inset(0 0 1px)"/><rect width="22" height="22" x="473.5" y="997.5" rx="0" style="fill:url(#bqf);stroke:#4f4f4e;filter:url(#btf)"/><use href="#apl" style="fill:#d3d2d2" transform="matrix(0 .22 -.22 0 490.5 1001.3)"/><rect width="22" height="22" x="1758.5" y="997.5" rx="0" style="fill:url(#bqf);stroke:#4f4f4e;filter:url(#btf)"/><use href="#apl" style="fill:#d3d2d2" transform="matrix(0 .22 .22 0 1763.5 1001.3)"/><rect width="900" height="22" x="498.5" y="997.5" rx="0" style="fill:url(#bqf);fill-opacity:.7;stroke:#4f4f4e;stroke-opacity:.8"/></g><rect width="26" height="24" x="1774" y="1011" style="fill:#1d1c1c;stroke-width:2px;clip-path:inset(0 1px 1px 0)"/><rect width="1329" height="50" x="469" y="1034" style="fill:#0c0b0b"/><rect width="123" height="34" x="477" y="1040" rx="3" style="fill:url(#bqf);stroke:url(#bsf);stroke-width:1px;filter:url(#btf)"/><text x="474" y="1042" dx="12" dy="22" style="font-size:20px;fill:#fff">Name</text><rect width="1329" height="50" x="588.5" y="1045" rx="8" style="fill:none;stroke:none;stroke-opacity:.06;stroke-width:2px"/><use href="#apl" style="fill:#b5b5b4" transform="matrix(.23 0 0 .23 581 1049)"/><rect width="308" height="34" x="607" y="1040" rx="3" style="fill:#131312;stroke:#4e4d4d;stroke-width:1px;clip-path:none"/><text x="608" y="1041" dx="4" dy="23" style="font-size:19px;fill:#fff">Nasa</text><rect width="82" height="33" x="927" y="1040" rx="4" style="fill:#2a2a29"/><text x="927" y="1041" dx="40" dy="23" style="font-size:19.5px;fill:#fff;fill-opacity:.89" text-anchor="middle">Find</text><rect width="166" height="33" x="1018" y="1040" rx="4" style="fill:#2a2a29"/><text x="1018" y="1041" dx="83" dy="23" style="font-size:19.5px;fill:#fff;fill-opacity:.89" text-anchor="middle">Find Previous</text><rect width="110" height="33" x="1193" y="1040" rx="4" style="fill:#2a2a29"/><text x="1193" y="1041" dx="55" dy="23" style="font-size:19.5px;fill:#fff;fill-opacity:.89" text-anchor="middle">Find All</text><rect width="126" height="31" x="1333" y="1041" rx="4" style="fill:#0d4867;stroke:#2a2a29;stroke-width:1px"/><text x="1333" y="1042" dx="62" dy="22" style="font-size:19.5px;fill:#fff;fill-opacity:.9" text-anchor="middle">Highlight</text><use href="#cce" style="fill:#c4c4c4" transform="matrix(.23 0 0 .23 1767 1052)"/><rect width="1329" height="65" x="469" y="1084" style="fill:#3d3d3d"/><rect width="1333" height="65" x="467" y="1083" style="fill:none;stroke:#4e4d4d;stroke-width:2px;clip-path:inset(0 2px 2px)"/><use href="#aad" style="fill:#c4c4c4" transform="matrix(.26 0 0 .26 488 1106.5)"/><text x="483" y="1090.5" dx="28" dy="33" style="font-weight:700;font-size:20.5px;fill:#fff">Add Channel</text><use href="#aad" style="fill:#c4c4c4" transform="matrix(.26 0 0 .26 667 1106.5)"/><text x="663" y="1090.5" dx="28" dy="33" style="font-weight:700;font-size:20.5px;fill:#fff">Add Marker</text><g style="opacity:.25"><use href="#aad" style="fill:#c4c4c4" transform="matrix(.26 0 0 .26 831 1106.5)"/><text x="826" y="1090.5" dx="28" dy="33" style="font-weight:700;font-size:20.5px;fill:#fff">New Service</text></g><rect width="135" height="34" x="1008" y="1099" rx="3" style="fill:url(#bqf);stroke:url(#bsf);stroke-width:1px;filter:url(#btf)"/><text x="1008" y="1100.5" dx="22" dy="22" style="font-size:20px;fill:#fff">Reference</text><g style="opacity:.25"><rect width="147" height="34" x="1171" y="1099" rx="3" style="fill:url(#bqf);stroke:url(#bsf);stroke-width:1px;filter:url(#btf)"/><text x="1171" y="1100.5" dx="25" dy="22" style="font-size:20px;fill:#fff">Drag&amp;Drop</text></g><rect width="100" height="34" x="1685" y="1099" rx="3" style="fill:url(#bqf);stroke:url(#bsf);stroke-width:1px;filter:url(#btf)"/><use x="15" href="#skh" style="fill:#c4c4c4" transform="matrix(.38 0 0 .38 1687 1103)"/><text x="1675" y="1101.5" dx="46" dy="22" style="font-size:20px;fill:#fff">Find<tspan style="font-size:15px">…</tspan></text><rect width="1720" height="822" x="80" y="328" style="fill:none;stroke:#fff;stroke-opacity:.05;stroke-width:1.5px;clip-path:inset(0 2px)"/><rect width="1716" height="51" x="82" y="1169" rx="0" style="fill:#222020;clip-path:inset(15px 0 0)"/><rect width="1720" height="37" x="80" y="1184" style="fill:none;stroke:#1d1c1c;stroke-width:2px;clip-path:inset(0 2px 2px)"/><text x="76" y="1181" dx="29" dy="29" style="font-size:19.5px;fill:#fff"><tspan>Channels: 138</tspan> <tspan dx="10">Bouquet: userbouquet.dbe01.tv</tspan></text><text x="110" y="1181" dx="1281" dy="29" style="font-size:19.5px;fill:#fff"><tspan>TV: 1180</tspan> <tspan dx="10">Radio: 281</tspan> <tspan dx="10">Data: 151</tspan> <tspan dx="10">Total: 1612</tspan></text><rect width="1718" height="1140" x="81" y="81" rx="0" style="fill:none;stroke:#a7bfba;stroke-width:1px"/></g></svg>