<svg xmlns="http://www.w3.org/2000/svg" style="pointer-events:none;user-select:none" viewBox="0 0 1880 1300"><defs><symbol id="aad"><path d="M37.75 37.75h18.127v-11.5H37.75V8.123h-11.5V26.25H8.123v11.5H26.25v18.127h11.5V37.75z"/></symbol><symbol id="cbw"><path d="m60 14.973-3-.522v35.716c-3.141-.28-8.021-.667-11-.667-.95 0-2.094.039-3.312.102-.962.036-2.014.106-3.059.191-2.678.191-5.264.428-6.629.559V14.451S39.61 13 42.963 13c4 0 14.037 1.451 14.037 1.451l3.001.522A5.166 5.166 0 0 1 63 19.66v32.68a5.162 5.162 0 0 1-5.16 5.16H6.16A5.162 5.162 0 0 1 1 52.34V19.66a5.164 5.164 0 0 1 3-4.687l3-.522S17.037 13 21.037 13C24.39 13 31 14.451 31 14.451v35.901a285.977 285.977 0 0 0-6.629-.559 71.578 71.578 0 0 0-3.059-.191A66.645 66.645 0 0 0 18 49.5c-2.979 0-7.859.387-11 .667V14.451l-3 .522v38.765h56V14.973zM28.5 42.5a2 2 0 0 0-2-2h-14a2 2 0 0 0 0 4h14a2 2 0 0 0 2-2zm25 0a2 2 0 0 0-2-2h-14a2 2 0 0 0 0 4h14a2 2 0 0 0 2-2zm-25-7a2 2 0 0 0-2-2h-14a2 2 0 0 0 0 4h14a2 2 0 0 0 2-2zm25 0a2 2 0 0 0-2-2h-14a2 2 0 0 0 0 4h14a2 2 0 0 0 2-2zm-25-7a2 2 0 0 0-2-2h-14a2 2 0 0 0 0 4h14a2 2 0 0 0 2-2zm25 0a2 2 0 0 0-2-2h-14a2 2 0 0 0 0 4h14a2 2 0 0 0 2-2zm-25-7a2 2 0 0 0-2-2h-14a2 2 0 0 0 0 4h14a2 2 0 0 0 2-2zm25 0a2 2 0 0 0-2-2h-14a2 2 0 0 0 0 4h14a2 2 0 0 0 2-2z"/></symbol><symbol id="cce"><path d="m62.328 7.276-5.604-5.604L32 26.396 7.276 1.672 1.672 7.276 26.396 32 1.672 56.724l5.604 5.604L32 37.604l24.724 24.724 5.604-5.604L37.604 32 62.328 7.276z"/></symbol><symbol id="edt"><path d="M56.256 31.057H13.818C6.744 31.057 1 36.801 1 43.875v61.295c0 7.074 5.744 12.818 12.818 12.818h54.476c7.075 0 12.818-5.744 12.818-12.818V54.119C64.496 68.159 64.463 84.4 64.087 91.084a6.817 6.817 0 0 1-11.642 4.425c-14.421-14.502-16.181-43.133 3.811-64.452zm1.037 59.637C42.669 75.989 44.254 44.706 72.527 26.35L62.162 13.988 105 15.072l-7.263 41.344-11.808-14.082c-28.127 16.992-28.15 39.728-28.636 48.36z"/></symbol><symbol id="iet"><path d="M87.8 55.714h8.488C102.2 55.714 107 60.467 107 66.32v45.074c0 5.854-4.8 10.606-10.712 10.606H11.712C5.8 122 1 117.248 1 111.394V66.32c0-5.853 4.8-10.606 10.712-10.606H31.5L54 77.541c1.413 1.374 4.32 2.133 6.3 2.109 1.98-.023 4.821-.828 6.2-2.236l21.3-21.7zm6.182-49.329C76.101 3.303 44.4 18.916 49.061 45.91H33.544l27.127 26.376L86.518 45.91h-14.41C67.275 21.748 87.952 10.789 93.982 6.385z"/></symbol><symbol id="lfu"><path d="M56.25 57.423a4.33 4.33 0 0 0-4.327-4.327H12.077c-2.388 0-4.327 1.939-4.327 4.327s1.939 4.327 4.327 4.327h39.846a4.33 4.33 0 0 0 4.327-4.327zm0-12.52a4.33 4.33 0 0 0-4.327-4.328H12.077a4.33 4.33 0 0 0-4.327 4.328 4.33 4.33 0 0 0 4.327 4.327h39.846a4.33 4.33 0 0 0 4.327-4.327zm0-12.521a4.33 4.33 0 0 0-4.327-4.327H12.077c-2.388 0-4.327 1.939-4.327 4.327s1.939 4.327 4.327 4.327h39.846a4.33 4.33 0 0 0 4.327-4.327zM13.803 19.471v3.446h10.579v-5.844a11.23 11.23 0 0 0 2.343-1.41c2.237-1.745 3.347-4.068 3.371-6.392S29.057 4.6 26.857 2.8c-.887-.725-1.951-1.273-3.024-1.702l-1.372.918-.062 6.154c-.003.286-.167.503-.402.659-.376.249-.899.364-1.472.364h-2.85c-.565-.008-1.082-.142-1.452-.406-.242-.173-.413-.406-.41-.702l.062-6.155-1.348-.947c-1.083.403-2.158.924-3.06 1.628C9.23 4.357 8.12 6.679 8.096 9.003c-.023 2.323 1.039 4.671 3.239 6.471.725.593 1.567 1.067 2.437 1.454.016.617.026 1.607.031 2.543z"/></symbol><symbol id="ogn"><path d="M21 42.973h89.077c2.783 0 4.643 2.26 4.153 5.042l-9.34 52.943c-.491 2.783-3.149 5.042-5.932 5.042H7.84A3.842 3.842 0 0 1 4 102.16V22h67.2L88 36H16v32h5V42.973z"/></symbol><symbol id="phw"><path d="M14.762 29.23h34.49S63.18 43.708 60.715 44.826c-1.067.483-6.127-1.117-11.524-3.087V62H14.802V41.747C9.413 43.714 4.365 45.309 3.3 44.826.835 43.708 14.762 29.23 14.762 29.23zm22.012-17.871H16.299v13.19h6.364V13.997h14.111v-2.638zm1.764 5.276H24.427v7.914h14.111v-7.914zm6.761-6.235v14.149h-4.283v-9.233h-2.478V10.4h6.761zm-8.667-6.918H18.459v5.276h18.173V3.482z"/></symbol><symbol id="sie"><path d="M114 22v86.16a3.842 3.842 0 0 1-3.84 3.84H17.84a3.842 3.842 0 0 1-3.84-3.84V19.84A3.842 3.842 0 0 1 17.84 16H109l5 6zM94 59.014v-40H38v40h56zM84.5 26v30h-15V26h15z"/></symbol><symbol id="sjh"><path d="M40.023 45.152c-3.477 2.591-7.729 4.192-12.407 4.221-10.406.066-20.276-8.26-21.806-18.699C4.079 18.86 13.39 6.51 25.93 5.634a23.135 23.135 0 0 1 1.686-.053c10 .095 19.38 7.75 21.337 17.619 1.156 5.829-.437 11.92-3.87 16.758l13.82 13.819-5.128 5.128-13.752-13.753zM27.395 14.645c-6.236.06-12 5.17-12.677 11.431-.588 5.436 2.691 11.076 7.773 13.229 6.62 2.806 15.346-1.167 17.352-8.391 2.055-7.404-3.759-16.031-12.032-16.265a19.293 19.293 0 0 0-.416-.004z"/></symbol><symbol id="sks"><path d="M73.934 15.359a50.006 50.006 0 0 0-19.668 0 128.34 128.34 0 0 1 1.871 12.477 37.41 37.41 0 0 0-12.249 5.073 128.485 128.485 0 0 1-7.499-10.146 50.018 50.018 0 0 0-13.908 13.908 128.735 128.735 0 0 1 10.146 7.499 37.41 37.41 0 0 0-5.073 12.249 128.34 128.34 0 0 1-12.477-1.871 49.968 49.968 0 0 0 0 19.668 128.34 128.34 0 0 1 12.477-1.871 37.4 37.4 0 0 0 5.073 12.249 128.485 128.485 0 0 1-10.146 7.499 50.018 50.018 0 0 0 13.908 13.908 128.485 128.485 0 0 1 7.499-10.146 37.433 37.433 0 0 0 12.249 5.074 128.366 128.366 0 0 1-1.871 12.476 49.968 49.968 0 0 0 19.668 0 128.366 128.366 0 0 1-1.871-12.476 37.433 37.433 0 0 0 12.249-5.074 128.485 128.485 0 0 1 7.499 10.146 50.018 50.018 0 0 0 13.908-13.908 128.485 128.485 0 0 1-10.146-7.499 37.4 37.4 0 0 0 5.073-12.249 128.34 128.34 0 0 1 12.477 1.871 49.968 49.968 0 0 0 0-19.668 128.34 128.34 0 0 1-12.477 1.871 37.41 37.41 0 0 0-5.073-12.249 128.735 128.735 0 0 1 10.146-7.499 50.018 50.018 0 0 0-13.908-13.908 128.485 128.485 0 0 1-7.499 10.146 37.41 37.41 0 0 0-12.249-5.073 128.34 128.34 0 0 1 1.871-12.477zM64.1 50.882c7.451 0 13.5 6.049 13.5 13.5s-6.049 13.5-13.5 13.5-13.5-6.049-13.5-13.5 6.049-13.5 13.5-13.5z"/></symbol><symbol id="tlw"><path d="M64 64V45H0v19h64zm-25.025-5.747.001 1.834a1.948 1.948 0 1 1-3.897 0l-.002-6.41-1.968 1.774a2.105 2.105 0 0 1-1.48.524 2.105 2.105 0 0 1-1.48-.524l-1.968-1.774-.003 6.41a1.95 1.95 0 0 1-3.897 0l.002-5.24h-6.669l4.099 3.89c.751.713.751 1.869.002 2.581-.75.711-1.968.71-2.719-.002l-4.104-3.895-4.104 3.895a1.999 1.999 0 0 1-2.719.002 1.76 1.76 0 0 1 .002-2.581l4.104-3.895-4.104-3.895c-.751-.712-.752-1.868-.002-2.58s1.968-.711 2.719.002l4.104 3.895 4.104-3.895a1.998 1.998 0 0 1 2.719-.002 1.76 1.76 0 0 1-.002 2.58l-4.099 3.89h6.669l.002-5.24.002-.072a1.674 1.674 0 0 1 .571-1.356c.276-.249.614-.408.97-.477a1.942 1.942 0 0 1 .578-.036c.454.033.899.206 1.247.52l3.976 3.583 3.975-3.583a2.084 2.084 0 0 1 1.248-.52 1.94 1.94 0 0 1 .578.036c.356.069.694.228.97.477.412.371.602.868.571 1.356l.001.072.003 8.646h2.912l.003-8.83a1.95 1.95 0 0 1 3.897 0l-.004 8.839 6.372.002a1.798 1.798 0 0 1 0 3.597l-8.471-.003a1.8 1.8 0 0 1-1.798-1.799l.001-1.796h-2.912zM25.286 39.498 25 39.5c-10.072 0-18.25-8.402-18.25-18.75S14.928 2 25 2s18.25 8.402 18.25 18.75a19.05 19.05 0 0 1-2.301 9.115L52 25.842v-3.071a1.5 1.5 0 0 1 1.5-1.5h3a1.5 1.5 0 0 1 1.5 1.5v11a1.5 1.5 0 0 1-1.5 1.5h-3a1.5 1.5 0 0 1-1.5-1.5v-1.543l-25.926 9.436-.788-2.166z"/></symbol><symbol id="amw"><path d="m32 30.114 27.467 29.239V34.738L32 5.498 4.533 34.738v24.615L32 30.114z"/></symbol><symbol id="anw"><path d="M32 36.23 11.77 16.573a3.284 3.284 0 0 0-4.549 0l-1.913 1.859a3.098 3.098 0 0 0 0 4.468l26.57 25.818L32 48.6l.12.12L58.692 22.9a3.098 3.098 0 0 0 0-4.468l-2.363-2.297a2.636 2.636 0 0 0-3.649 0L32 36.23z"/></symbol><symbol id="aol"><path d="m32 45.423 26.667-26.846H5.333L32 45.423z"/></symbol><symbol id="psn"><g transform="matrix(.75 0 0 .75 20.3 11.9)"><rect width="50" height="32" x="48.3" y="24.2" style="fill:none;stroke:silver;stroke-opacity:.96;stroke-width:2.5px"/><rect width="2.5" height="56" style="fill:silver;fill-opacity:.96" transform="rotate(-58 48.857 -30.704)"/><rect width="2.5" height="56" x="23" y="-42" style="fill:silver;fill-opacity:.96" transform="rotate(58 .143 57.704)"/></g><rect width="148" height="78" x="2" y="2" style="fill:none;stroke:#c4c4c4;stroke-opacity:.9;stroke-width:3.3px"/></symbol><linearGradient id="bpf" x1="0" x2="0" y1="0" y2="1"><stop offset="0" style="stop-color:#fdfdfd"/><stop offset="1" style="stop-color:#eee"/></linearGradient><linearGradient id="bqf" x1="0" x2="1" y1="0" y2="0"><stop offset="0" style="stop-color:#fdfdfd"/><stop offset="1" style="stop-color:#eee"/></linearGradient><linearGradient id="ptg" x1="0" x2="0" y1="0" y2="1"><stop offset=".5" style="stop-color:#f4f4f4"/><stop offset="1" style="stop-color:#e2e2e2"/></linearGradient><marker id="ard" markerHeight="3" markerWidth="3" orient="auto" refX="1.75" refY="1.75" viewBox="0 0 3.5 3.5"><polygon points="0.7,3.5 0,1.75 0.7,0 3.5,1.75" style="fill:#0bbbcc"/></marker><filter id="iuf" color-interpolation-filters="sRGB"><feDropShadow dx="0" dy="1" flood-opacity=".3" stdDeviation="2.5"/></filter></defs><rect width="1880" height="1300" style="fill:#b4d0cd"/><g style="font-family:&quot;Sans-Serif&quot;,system-ui,sans-serif"><rect width="1298" height="1140" x="501" y="81" rx="0" style="fill:#f9f9f9;stroke:#acc6c3;stroke-width:1px"/><rect width="1298" height="48" x="501" y="81" rx="0" style="fill:#fafafa;stroke:#e8e8e8;stroke-width:2px;clip-path:inset(1px 1px 0)"/><rect width="1298" height="1" x="501" y="127" style="fill:none;stroke:#cbcdcc;stroke-width:2px;clip-path:inset(0 1px)"/><text x="499" y="83.5" dx="649" dy="28" style="font-family:&quot;Sans-Serif&quot;,system-ui,sans-serif;font-weight:700;font-size:19px;fill:#5a5a5a" text-anchor="middle">e2 SAT Editor</text><rect width="10.5" height="1" x="1670" y="107" style="fill:none;stroke:#333;stroke-width:1.1px"/><g transform="matrix(.9 0 0 .9 1715 100)"><rect width="15" height="13" style="fill:none;stroke:#333;stroke-width:3px;clip-path:inset(0 0 2px)"/><rect width="13" height="7" x="1" y="4" style="fill:none;stroke:#333;stroke-width:1.7px"/></g><g transform="rotate(45 773.49 2187.224)"><rect width="15" height="1" y="7" style="fill:none;stroke:#333;stroke-width:1px"/><rect width="1" height="15" x="7" style="fill:none;stroke:#333;stroke-width:1px"/></g><rect width="1296" height="36" x="502" y="129" style="fill:#eee"/><text x="503" y="131" dx="12" dy="24" style="font-size:20px;word-spacing:15px;fill:#000;fill-opacity:.75">File Edit Find Tools Window Help</text><rect width="1298" height="1" x="501" y="165.5" style="fill:#e2e2e2;stroke:#dcdddd"/><rect width="1296" height="67" x="502" y="167" style="fill:#efefef"/><rect width="128" height="67" x="502" y="167" style="fill:#efefef"/><rect width="112" height="53" x="510" y="173" rx="3" style="fill:url(#bpf);stroke:#ababab;stroke-width:1px"/><use href="#aad" style="fill:#4f4f4f" transform="matrix(.26 0 0 .26 516 191)"/><text x="510" y="173" dx="27" dy="33" style="font-weight:700;font-size:18px;fill:#000">New Tab</text><rect width="1" height="67" x="630" y="167" style="fill:#d5d6d6"/><rect width="157" height="69" x="631" y="166" style="fill:#efefef;stroke:#dfdfdf;stroke-width:2px;clip-path:inset(1px 0)"/><text x="631" y="165.5" dx="15" dy="41" style="font-size:19px;fill:#000">enigma_db</text><g transform="matrix(.9 0 0 .9 761 195.5)"><rect width="22" height="22" x="-4.5" y="-4.5" rx="11" style="fill:#000;fill-opacity:.33"/><use href="#cce" style="fill:#fff" transform="matrix(.17 0 0 .17 1.2 1.2)"/></g><rect width="292" height="69" x="788" y="166" style="fill:#308cc6;stroke:#308cc6;stroke-width:2px;clip-path:inset(1px 0)"/><use href="#phw" style="fill:#000" transform="matrix(.38 0 0 .38 800 186)"/><text x="788" y="165.5" dx="46" dy="41" style="font-size:19px;fill:#fff">enigma_db - Picons <tspan style="font-size:15px">…</tspan></text><g transform="matrix(.9 0 0 .9 1054 195.5)"><rect width="22" height="22" x="-4.5" y="-4.5" rx="11" style="fill:#000;fill-opacity:.33"/><use href="#cce" style="fill:#fff" transform="matrix(.17 0 0 .17 1.2 1.2)"/></g><rect width="154" height="69" x="1080" y="166" style="fill:#efefef;stroke:#dfdfdf;stroke-width:2px;clip-path:inset(1px 0)"/><text x="1080" y="165.5" dx="15" dy="41" style="font-size:19px;fill:#000">neutrino</text><g transform="matrix(.9 0 0 .9 1208 195.5)"><rect width="22" height="22" x="-4.5" y="-4.5" rx="11" style="fill:#000;fill-opacity:.33"/><use href="#cce" style="fill:#fff" transform="matrix(.17 0 0 .17 1.2 1.2)"/></g><rect width="292" height="69" x="1234" y="166" style="fill:#efefef;stroke:#dfdfdf;stroke-width:2px;clip-path:inset(1px 0)"/><use href="#tlw" style="fill:#000" transform="matrix(.38 0 0 .38 1246 186)"/><text x="1234" y="165.5" dx="46" dy="41" style="font-size:19px;fill:#000">enigma_db - Edit Set<tspan style="font-size:15px">…</tspan></text><g transform="matrix(.9 0 0 .9 1501 195.5)"><rect width="22" height="22" x="-4.5" y="-4.5" rx="11" style="fill:#000;fill-opacity:.33"/><use href="#cce" style="fill:#fff" transform="matrix(.17 0 0 .17 1.2 1.2)"/></g><rect width="256" height="69" x="1526" y="166" style="fill:#efefef;stroke:#dfdfdf;stroke-width:2px;clip-path:inset(1px 0)"/><use href="#cbw" style="fill:#000" transform="matrix(.38 0 0 .38 1539 186)"/><text x="1526" y="165.5" dx="46" dy="41" style="font-size:19px;fill:#000">enigma_db - Cha<tspan style="font-size:15px">…</tspan></text><rect width="2" height="67" x="1781" y="167" style="fill:#dfdfdf"/><rect width="23" height="66" x="1750" y="167.5" style="fill:#efefef;stroke:#dfdfdf;stroke-width:1.5px"/><g style="opacity:.25"><use href="#anw" style="stroke:#000;stroke-width:2.7px" transform="matrix(0 .3 -.3 0 1773.2 192)"/></g><rect width="23" height="66" x="1774" y="167.5" style="fill:#efefef;stroke:#dfdfdf;stroke-width:1.5px"/><use href="#anw" style="stroke:#000;stroke-width:2.7px" transform="matrix(0 -.3 .3 0 1776.1 211.1)"/><rect width="1296" height="95" x="502" y="234" style="fill:#f9f9f9"/><use href="#ogn" style="fill:#5c5c5c" transform="matrix(.38 0 0 .38 526 257)"/><text x="508.5" y="232" dx="69" dy="59" style="font-size:25.5px;fill:#000">Open</text><use href="#sie" style="fill:#5c5c5c" transform="matrix(.38 0 0 .38 671 257)"/><text x="654.5" y="232" dx="69" dy="59" style="font-size:25.5px;fill:#000">Save</text><rect width="4" height="44" x="808" y="262" style="fill:#fff;stroke:#dfdfdf;stroke-width:2px;clip-path:inset(1px 1px 1px 0)"/><use href="#iet" style="fill:#5c5c5c" transform="matrix(.38 0 0 .38 820 257)"/><text x="802.5" y="232" dx="69" dy="59" style="font-size:25.5px;fill:#000">Import</text><use href="#edt" style="fill:#5c5c5c" transform="matrix(.38 0 0 .38 980 257)"/><text x="960.5" y="232" dx="69" dy="59" style="font-size:25.5px;fill:#000">Export</text><rect width="4" height="44" x="1134" y="262" style="fill:#fff;stroke:#dfdfdf;stroke-width:2px;clip-path:inset(1px 1px 1px 0)"/><use href="#sks" style="fill:#5c5c5c" transform="matrix(.38 0 0 .38 1145 257)"/><text x="1128.5" y="232" dx="69" dy="59" style="font-size:25.5px;fill:#000">Settings</text><rect width="100" height="34" x="1520" y="264" rx="3" style="fill:url(#bpf);stroke:#ababab;stroke-width:1px;filter:none"/><rect width="24" height="24" x="1612.5" y="269" rx="8" style="fill:none;stroke:none;stroke-opacity:.06;stroke-width:2px"/><use href="#aol" style="fill:#676767" transform="matrix(.23 0 0 .23 1600 273)"/><text x="1515" y="266" dx="12" dy="22" style="font-size:20px;fill:#000">Default</text><text x="1625.5" y="232" dx="15" dy="59" style="font-size:25.5px;fill:#000">Connect</text><g transform="matrix(.9 0 0 .95 1770 276)"><use href="#amw" style="fill:#646464" transform="rotate(90) scale(.23)"/><use href="#amw" style="fill:#646464" transform="matrix(0 .23 -.23 0 9.4 0)"/></g><rect width="1300" height="95" x="500" y="234" style="fill:none;stroke:#d1d2d2;stroke-width:2px;clip-path:inset(0 2px)"/><rect width="1296" height="820" x="502" y="328" style="fill:#efefef"/><text x="502" y="328" dx="10" dy="32" style="font-weight:700;font-size:19px;fill:#000">Picons</text><rect width="38" height="32" x="1755" y="335" rx="3" style="fill:url(#bpf);stroke:#ababab"/><use href="#lfu" style="fill:#505050" transform="matrix(.38 0 0 .38 1762 338)"/><rect width="1296" height="687" x="502" y="380" style="fill:#fff"/><rect width="220" height="171" x="526" y="405" rx="16" style="fill:none;stroke:#eee;stroke-width:11px;stroke-dasharray:15px,0,48px,16px"/><rect width="130" height="75" x="570" y="433" rx="6" style="fill:url(#ptg);stroke:#aaabbb;stroke-width:1.7px"/><g transform="matrix(.34 0 0 .34 588 456)"><rect width="273" height="88" style="fill:#f5b4e4"/><rect width="85" height="88" x="188" style="fill:#ff9689"/><g style="font-family:Arial,Helvetica,sans-serif;font-weight:700"><text x="18" dy="73" style="font-size:80px;letter-spacing:2px" transform="scale(1.1 1)">NTI</text><text x="185" dy="81" style="font-size:88px" transform="matrix(1.2 0 0 .9 -22 0)">1</text></g></g><text x="526" y="527" dx="106" dy="18" style="font-size:18px" text-anchor="middle">NTI 1</text><rect width="220" height="171" x="792" y="405" rx="16" style="fill:none;stroke:#eee;stroke-width:11px;stroke-dasharray:15px,0,48px,16px"/><rect width="130" height="75" x="837" y="433" rx="6" style="fill:url(#ptg);stroke:#aaabbb;stroke-width:1.7px"/><g transform="matrix(.34 0 0 .34 856 456)"><rect width="273" height="88" style="fill:#f5b4e4"/><rect width="85" height="88" x="188" style="fill:#ff9689"/><g style="font-family:Arial,Helvetica,sans-serif;font-weight:700"><text x="18" dy="73" style="font-size:80px;letter-spacing:2px" transform="scale(1.1 1)">NTI</text><text x="185" dy="81" style="font-size:102px;stroke:#000;stroke-width:2px" transform="matrix(.95 0 0 .75 26 10)">2</text></g></g><text x="792" y="527" dx="108" dy="18" style="font-size:18px" text-anchor="middle">NTI 2</text><rect width="220" height="171" x="1058" y="405" rx="16" style="fill:none;stroke:#eee;stroke-width:11px;stroke-dasharray:15px,0,48px,16px"/><rect width="130" height="75" x="1103" y="433" rx="6" style="fill:url(#ptg);stroke:#aaabbb;stroke-width:1.7px"/><g transform="matrix(.32 0 0 .32 1111 454)"><rect width="93" height="65" x="256" y="21" style="fill:#cb0000"/><text x="10" dy="78" style="font-family:cursive,serif;font-size:96px;fill:#cb0000">image</text><text x="262" dy="78" style="font-family:Arial,Helvetica,sans-serif;font-weight:700;font-size:50px;fill:#eee">4K</text></g><text x="1058" y="527" dx="108" dy="18" style="font-size:18px" text-anchor="middle">Image 4K</text><rect width="220" height="171" x="1324" y="405" rx="16" style="fill:none;stroke:#eee;stroke-width:11px;stroke-dasharray:15px,0,48px,16px"/><rect width="130" height="75" x="1369" y="433" rx="6" style="fill:url(#ptg);stroke:#aaabbb;stroke-width:1.7px"/><g transform="matrix(.23 0 0 .23 1401 449)"><rect width="180" height="180" x="50" y="4" style="fill:#881"/><rect width="274" height="134" x="2" y="28" style="fill:#881"/><text x="50" y="38" dy="80" style="font-family:&quot;Times New Roman&quot;,Times,sans-serif;font-weight:700;font-size:122px;letter-spacing:-4px;fill:#fff;stroke:#fff;stroke-width:4px" transform="scale(1.3 1.2)">22</text></g><text x="1324" y="527" dx="109" dy="18" style="font-size:18px" text-anchor="middle">VIDEO 22</text><rect width="223" height="174" x="525" y="579" rx="20" style="fill:#308cc6" transform="matrix(1 0 0 .996 0 35.1)"/><rect width="220" height="171" x="526" y="614" rx="16" style="fill:none;stroke:#eee;stroke-width:11px;stroke-dasharray:15px,0,48px,16px"/><use href="#psn" transform="matrix(.9 0 0 .9 566.5 642)"/><text x="526" y="735" dx="106" dy="18" style="font-size:18px;fill:#fff" text-anchor="middle">7 Channel</text><rect width="220" height="171" x="792" y="614" rx="16" style="fill:none;stroke:#eee;stroke-width:11px;stroke-dasharray:15px,0,48px,16px"/><rect width="130" height="75" x="837" y="643" rx="6" style="fill:url(#ptg);stroke:#aaabbb;stroke-width:1.7px"/><g transform="matrix(.13 0 0 .13 849 665)"><ellipse cx="186" cy="116" rx="178" ry="118" style="fill:#64d8b1"/><g style="font-family:Arial,Helvetica,sans-serif"><text x="42" dy="140" style="font-weight:700;font-size:102px;letter-spacing:-1px;stroke:#000;stroke-width:4px;font-style:italic" transform="scale(1 1.2)">RIBA</text><text x="389" dy="142" style="font-size:100px;stroke:#000;stroke-width:5px" transform="scale(1 1.2)">SPORTS</text></g></g><text x="792" y="735" dx="110" dy="18" style="font-size:18px;fill:#000" text-anchor="middle">RIBA Sports</text><rect width="220" height="171" x="1058" y="614" rx="16" style="fill:none;stroke:#eee;stroke-width:11px;stroke-dasharray:15px,0,48px,16px"/><rect width="130" height="75" x="1103" y="643" rx="6" style="fill:url(#ptg);stroke:#aaabbb;stroke-width:1.7px"/><g transform="matrix(.13 0 0 .13 1109 665)"><ellipse cx="186" cy="116" rx="178" ry="118" style="fill:#64d8b1"/><g style="font-family:Arial,Helvetica,sans-serif"><text x="42" dy="140" style="font-weight:700;font-size:102px;letter-spacing:-1px;stroke:#000;stroke-width:4px;font-style:italic" transform="scale(1 1.2)">RIBA</text><text x="389" dy="142" style="font-size:100px;stroke:#000;stroke-width:5px" transform="scale(1 1.2)">PREMIERE</text></g></g><text x="1058" y="735" dx="107" dy="18" style="font-size:18px" text-anchor="middle">RIBA Premiere</text><rect width="220" height="171" x="1324" y="614" rx="16" style="fill:none;stroke:#eee;stroke-width:11px;stroke-dasharray:15px,0,48px,16px"/><rect width="130" height="75" x="1369" y="643" rx="6" style="fill:url(#ptg);stroke:#aaabbb;stroke-width:1.7px"/><g transform="matrix(.21 0 0 .21 1385 668)"><rect width="462" height="120" rx="48" style="fill:#771"/><g style="font-family:Arial,Helvetica,sans-serif;font-size:96px"><text x="32" dy="96" style="fill:#fff;stroke:#fff;stroke-width:6px" transform="scale(.9 1)">SERIAL</text><text x="412" dy="96" style="letter-spacing:8px;fill:#fff;stroke:#fff;stroke-width:6px" transform="matrix(.8 0 0 1 0 -.9)">TV</text></g></g><text x="1324" y="735" dx="106" dy="18" style="font-size:18px" text-anchor="middle">Serial TV</text><rect width="220" height="171" x="526" y="822" rx="16" style="fill:none;stroke:#eee;stroke-width:11px;stroke-dasharray:15px,0,48px,16px"/><rect width="130" height="75" x="570" y="852" rx="6" style="fill:url(#ptg);stroke:#aaabbb;stroke-width:1.7px"/><g transform="matrix(.31 0 0 .31 592 871)"><rect width="275" height="102" rx="24" style="fill:#fff"/><rect width="106" height="102" rx="24" style="fill:#7ec6d6"/><text x="16" dy="102" style="font-family:&quot;Times New Roman&quot;,Times,sans-serif;font-weight:700;font-size:150px;fill:#333">Q</text><text x="224" dy="84" style="font-family:Arial,Helvetica,sans-serif;font-weight:700;font-size:72px;letter-spacing:1px;fill:#4f4f4f" transform="scale(.6 1)">NEWS</text></g><text x="526" y="945" dx="106" dy="18" style="font-size:18px" text-anchor="middle">Q NEWS</text><rect width="220" height="171" x="792" y="822" rx="16" style="fill:none;stroke:#eee;stroke-width:11px;stroke-dasharray:15px,0,48px,16px"/><rect width="130" height="75" x="837" y="852" rx="6" style="fill:url(#ptg);stroke:#aaabbb;stroke-width:1.7px"/><g transform="matrix(.21 0 0 .21 846 880)"><rect width="96" height="96" x="433" style="fill:#099"/><text dy="80" style="font-family:Arial,Helvetica,sans-serif;font-weight:700;font-size:96px;letter-spacing:-3px;fill:#333">Shopping</text><text x="433" dx="8" dy="80" style="font-family:&quot;Times New Roman&quot;,Times,sans-serif;font-weight:700;font-size:99px;fill:#fff;stroke:#fff;stroke-width:5px">G</text></g><text x="792" y="945" dx="107" dy="18" style="font-size:18px" text-anchor="middle">Shopping G</text><rect width="220" height="171" x="1058" y="822" rx="16" style="fill:none;stroke:#eee;stroke-width:11px;stroke-dasharray:15px,0,48px,16px"/><use href="#psn" transform="matrix(.9 0 0 .9 1099.5 850)"/><text x="1058" y="945" dx="107" dy="18" style="font-size:18px" text-anchor="middle">Service 1120</text><rect width="220" height="171" x="1324" y="822" rx="16" style="fill:none;stroke:#eee;stroke-width:11px;stroke-dasharray:15px,0,48px,16px"/><rect width="130" height="75" x="1369" y="852" rx="6" style="fill:url(#ptg);stroke:#aaabbb;stroke-width:1.7px"/><text dy="96" style="font-family:Arial,Helvetica,sans-serif;font-weight:700;font-size:97px;fill:#600900;stroke-width:1px" transform="matrix(.15 0 0 .2 1377 878)">GLOBALFLARE</text><text x="1324" y="945" dx="109" dy="18" style="font-size:18px" text-anchor="middle">Globalflare HD</text><g style="clip-path:inset(1px 1px 0 0)"><rect width="23" height="656" x="1776" y="379" style="fill:#e6e6e6;stroke:#bcbcbc;stroke-width:2px"/><rect width="22" height="22" x="1776.5" y="379.5" rx="0" style="fill:url(#bqf);stroke:#ababab"/><use href="#aol" style="fill:#5c5c5c" transform="matrix(.22 0 0 -.22 1780.3 397.5)"/><rect width="22" height="22" x="1776.5" y="1012.5" rx="0" style="fill:url(#bqf);stroke:#ababab"/><use href="#aol" style="fill:#5c5c5c" transform="matrix(.22 0 0 .22 1780.3 1017.5)"/><rect width="22" height="44" x="1776.5" y="402" rx="0" style="fill:url(#bqf);fill-opacity:.8;stroke:#ababab;stroke-opacity:.6"/></g><rect width="1296" height="61" x="502" y="1034" style="fill:#fafafa"/><rect width="123" height="34" x="511" y="1040" rx="3" style="fill:url(#bpf);stroke:#ababab;stroke-width:1px;filter:none"/><text x="508" y="1042" dx="12" dy="22" style="font-size:20px;fill:#000">Name</text><rect width="24" height="24" x="621.5" y="1045" rx="8" style="fill:none;stroke:none;stroke-opacity:.06;stroke-width:2px"/><use href="#aol" style="fill:#676767" transform="matrix(.23 0 0 .23 614 1049)"/><rect width="308" height="34" x="640" y="1040" rx="3" style="fill:#fff;stroke:#ababab;stroke-width:1px;clip-path:none"/><text x="641" y="1041" dx="4" dy="23" style="font-size:19px;fill:#000">riba</text><rect width="82" height="33" x="960" y="1040" rx="4" style="fill:#ececec"/><text x="960" y="1041" dx="40" dy="23" style="font-size:19.5px;fill:#000;fill-opacity:.89" text-anchor="middle">Find</text><rect width="166" height="33" x="1051" y="1040" rx="4" style="fill:#ececec"/><text x="1051" y="1041" dx="83" dy="23" style="font-size:19.5px;fill:#000;fill-opacity:.89" text-anchor="middle">Find Previous</text><rect width="110" height="33" x="1226" y="1040" rx="4" style="fill:#ececec"/><text x="1226" y="1041" dx="55" dy="23" style="font-size:19.5px;fill:#000;fill-opacity:.89" text-anchor="middle">Find All</text><rect width="126" height="31" x="1366" y="1041" rx="4" style="fill:#68c5ff;stroke:#d1d2d2;stroke-width:1px"/><text x="1366" y="1042" dx="62" dy="22" style="font-size:19.5px;fill:#fff;fill-opacity:.9" text-anchor="middle">Highlight</text><use href="#cce" style="fill:#666" transform="matrix(.23 0 0 .23 1767 1052)"/><rect width="1296" height="65" x="502" y="1084" style="fill:#fff"/><rect width="1300" height="65" x="500" y="1083" style="fill:none;stroke:#e9eaea;stroke-width:2px;clip-path:inset(0 2px 2px)"/><text x="511" y="1099" dx="4" dy="23" style="font-size:19px;fill:#000">Folder</text><rect width="308" height="33" x="582" y="1099.5" rx="3" style="fill:#fff;stroke:#ababab;stroke-width:1px;clip-path:none"/><rect width="114" height="34" x="897" y="1099" rx="3" style="fill:url(#bpf);stroke:#ababab;stroke-width:1px;filter:none"/><text x="891" y="1101" dx="24" dy="22" style="font-size:20px;fill:#000">Browse<tspan style="font-size:15px">…</tspan></text><rect width="100" height="34" x="1685" y="1099" rx="3" style="fill:url(#bpf);stroke:#ababab;stroke-width:1px;filter:none"/><use x="15" href="#sjh" style="fill:#545454" transform="matrix(.38 0 0 .38 1687 1103)"/><text x="1675" y="1101.5" dx="46" dy="22" style="font-size:20px;fill:#000">Find<tspan style="font-size:15px">…</tspan></text><rect width="1300" height="822" x="500" y="328" style="fill:none;stroke:#d5d6d6;stroke-width:1.5px;clip-path:inset(0 2px)"/><rect width="1296" height="51" x="502" y="1169" rx="0" style="fill:#efefef;clip-path:inset(15px 0 0)"/><rect width="1300" height="37" x="500" y="1184" style="fill:none;stroke:#e4e4e4;stroke-width:2px;clip-path:inset(0 2px 2px)"/><text x="496" y="1181" dx="29" dy="29" style="font-size:19.5px;fill:#000">Filename: ribasports.png</text><rect width="1298" height="1140" x="501" y="81" rx="0" style="fill:none;stroke:#9bb1ab;stroke-width:1px"/></g><g style="font-family:&quot;Sans-Serif&quot;,system-ui,sans-serif"><rect width="260" height="250" x="95.5" y="689" rx="17" style="fill:#308cc6;fill-opacity:1;stroke:#fff;stroke-opacity:.25;stroke-width:1.3px"/><g style="clip-path:polygon(-4% -56%,104% 30%,104% 104%,-4% 104%)"><g style="filter:none"><rect width="134" height="167" x="159" y="706" rx="4.4" style="fill:#f1f0f0;stroke:#000;stroke-opacity:.25;stroke-width:.9px"/></g></g><g style="clip-path:polygon(-13%0,108% 120%,200% 200%,-200% 200%)"><g style="filter:url(#iuf)"><rect width="50" height="51" x="248" y="700" rx="4.4" style="fill:#efeeee;stroke-opacity:.25;stroke-width:.9px;clip-path:polygon(0 13%,90% 100%,0 100%,0 0)"/></g></g><rect width=".1" height="64" x="98.5" y="99" rx="4.4" style="fill-opacity:.2;stroke:#000;stroke-opacity:.25;stroke-width:.9px" transform="rotate(-45 906.245 222.814)"/><text x="156" y="827" dx="67" dy="20" style="font-size:32px;fill:#999" text-anchor="middle"><tspan style="font-size:35.2px">.</tspan>png</text><g transform="matrix(.9 0 0 .9 174.5 766)"><rect width="114" height="39" style="fill:#fff"/><g transform="matrix(.22 0 0 .22 5 5)"><rect width="483" height="141" x="-4" y="-4" style="fill:#0be"/><circle cx="67" cy="67" r="67" style="fill:#fff"/><text x="18" dy="107" style="font-family:Arial,Helvetica,sans-serif;font-size:122px;fill:#00afef;stroke:#00afef;stroke-width:10px" transform="matrix(1.3 0 0 1.2 1 0)">7</text><text x="315" dy="121" style="font-family:&quot;Times New Roman&quot;,Times,sans-serif;font-weight:700;font-size:144px;letter-spacing:-2px;fill:#fff" transform="scale(.45 1)">CHANNEL</text></g></g><rect width="116" height="33" x="167" y="894" rx="3" style="fill:#308cc6;stroke:#000;stroke-opacity:.25"/><text x="109.5" y="898" dx="116" dy="19" style="font-family:&quot;Sans-Serif&quot;,system-ui,sans-serif;font-weight:400;font-size:22px;letter-spacing:.1px;fill:#fff;text-shadow:none" text-anchor="middle">picon.png</text><g style="fill:none;stroke:#0bbbcc;stroke-width:22px"><path d="M290.5 341.282q144-282 219 219" style="marker-end:url(#ard)" transform="matrix(.8 -.8 .5 .6 -192 686)"/></g></g></svg>