<svg xmlns="http://www.w3.org/2000/svg" style="pointer-events:none;user-select:none" viewBox="0 0 1880 1300"><defs><symbol id="aad"><path d="M37.75 37.75h18.127v-11.5H37.75V8.123h-11.5V26.25H8.123v11.5H26.25v18.127h11.5V37.75z"/></symbol><symbol id="cbw"><path d="m60 14.973-3-.522v35.716c-3.141-.28-8.021-.667-11-.667-.95 0-2.094.039-3.312.102-.962.036-2.014.106-3.059.191-2.678.191-5.264.428-6.629.559V14.451S39.61 13 42.963 13c4 0 14.037 1.451 14.037 1.451l3.001.522A5.166 5.166 0 0 1 63 19.66v32.68a5.162 5.162 0 0 1-5.16 5.16H6.16A5.162 5.162 0 0 1 1 52.34V19.66a5.164 5.164 0 0 1 3-4.687l3-.522S17.037 13 21.037 13C24.39 13 31 14.451 31 14.451v35.901a285.977 285.977 0 0 0-6.629-.559 71.578 71.578 0 0 0-3.059-.191A66.645 66.645 0 0 0 18 49.5c-2.979 0-7.859.387-11 .667V14.451l-3 .522v38.765h56V14.973zM28.5 42.5a2 2 0 0 0-2-2h-14a2 2 0 0 0 0 4h14a2 2 0 0 0 2-2zm25 0a2 2 0 0 0-2-2h-14a2 2 0 0 0 0 4h14a2 2 0 0 0 2-2zm-25-7a2 2 0 0 0-2-2h-14a2 2 0 0 0 0 4h14a2 2 0 0 0 2-2zm25 0a2 2 0 0 0-2-2h-14a2 2 0 0 0 0 4h14a2 2 0 0 0 2-2zm-25-7a2 2 0 0 0-2-2h-14a2 2 0 0 0 0 4h14a2 2 0 0 0 2-2zm25 0a2 2 0 0 0-2-2h-14a2 2 0 0 0 0 4h14a2 2 0 0 0 2-2zm-25-7a2 2 0 0 0-2-2h-14a2 2 0 0 0 0 4h14a2 2 0 0 0 2-2zm25 0a2 2 0 0 0-2-2h-14a2 2 0 0 0 0 4h14a2 2 0 0 0 2-2z"/></symbol><symbol id="cce"><path d="m62.328 7.276-5.604-5.604L32 26.396 7.276 1.672 1.672 7.276 26.396 32 1.672 56.724l5.604 5.604L32 37.604l24.724 24.724 5.604-5.604L37.604 32 62.328 7.276z"/></symbol><symbol id="cdd"><path d="M11.087 56c-5.563 0-10.08-4.517-10.08-10.08V18.08C1.007 12.517 5.524 8 11.087 8h33.84c5.564 0 10.08 4.517 10.08 10.08v27.84c0 5.52-4.446 10.009-9.95 10.079L11.087 56zm19.766-41.006v-4.013H25.06v4.048c-4.2.556-8.106 2.261-9.955 5.037-3.005 4.512.906 10.812 7.19 12.99.768.266 1.722.512 2.765.768v10.901c-2.614-.587-4.538-2.424-6.16-3.803l-4.893 2.788 2.091 1.821c2.411 2.055 5.421 3.271 8.962 3.703v3.747h5.793v-3.783c8.228-1.147 14.043-6.861 9.643-12.981-.763-1.061-1.821-2.027-2.998-2.881-1.734-1.258-4.155-1.986-6.645-2.64V19.499c2.638.575 4.575 2.426 6.207 3.814l4.893-2.788-2.091-1.822c-2.421-2.064-5.447-3.281-9.009-3.709zm0 20.428v9.077c3.644-.894 6.321-3.13 4.366-6.219-.805-1.273-2.452-2.167-4.366-2.858zm-5.793-15.68c-3.624.903-6.23 3.15-4.321 6.246.873 1.416 2.441 2.336 4.321 3.044v-9.29z"/></symbol><symbol id="fet"><path d="M56.256 31.057H13.818C6.744 31.057 1 36.801 1 43.875v61.295c0 7.074 5.744 12.818 12.818 12.818h54.476c7.075 0 12.818-5.744 12.818-12.818V54.119C64.496 68.159 64.463 84.4 64.087 91.084a6.817 6.817 0 0 1-11.642 4.425c-14.421-14.502-16.181-43.133 3.811-64.452zm1.037 59.637C42.669 75.989 44.254 44.706 72.527 26.35L62.162 13.988 105 15.072l-7.263 41.344-11.808-14.082c-28.127 16.992-28.15 39.728-28.636 48.36z"/></symbol><symbol id="fft"><path d="M87.8 55.714h8.488C102.2 55.714 107 60.467 107 66.32v45.074c0 5.854-4.8 10.606-10.712 10.606H11.712C5.8 122 1 117.248 1 111.394V66.32c0-5.853 4.8-10.606 10.712-10.606H31.5L54 77.541c1.413 1.374 4.32 2.133 6.3 2.109 1.98-.023 4.821-.828 6.2-2.236l21.3-21.7zm6.182-49.329C76.101 3.303 44.4 18.916 49.061 45.91H33.544l27.127 26.376L86.518 45.91h-14.41C67.275 21.748 87.952 10.789 93.982 6.385z"/></symbol><symbol id="fgo"><path d="M32 62.5C15.167 62.5 1.5 48.833 1.5 32S15.167 1.5 32 1.5v9.611A5.366 5.366 0 0 0 30.91 11c-2.99 0-5.42 2.43-5.42 5.41A5.424 5.424 0 0 0 32 21.719v5.111l-7.44.18 2.82 1.23v22.7L24.56 53H32v9.5zm0-51.389V1.5c16.833 0 30.5 13.667 30.5 30.5S48.833 62.5 32 62.5V53h9.46l-5.76-2.06v-24.2l-3.7.09v-5.111a5.427 5.427 0 0 0 4.32-5.309c0-2.607-1.86-4.793-4.32-5.299z"/></symbol><symbol id="fhn"><path d="M21 42.973h89.077c2.783 0 4.643 2.26 4.153 5.042l-9.34 52.943c-.491 2.783-3.149 5.042-5.932 5.042H7.84A3.842 3.842 0 0 1 4 102.16V22h67.2L88 36H16v32h5V42.973z"/></symbol><symbol id="fie"><path d="M114 22v86.16a3.842 3.842 0 0 1-3.84 3.84H17.84a3.842 3.842 0 0 1-3.84-3.84V19.84A3.842 3.842 0 0 1 17.84 16H109l5 6zM94 59.014v-40H38v40h56zM84.5 26v30h-15V26h15z"/></symbol><symbol id="lju"><path d="M56.25 57.423a4.33 4.33 0 0 0-4.327-4.327H12.077c-2.388 0-4.327 1.939-4.327 4.327s1.939 4.327 4.327 4.327h39.846a4.33 4.33 0 0 0 4.327-4.327zm0-12.52a4.33 4.33 0 0 0-4.327-4.328H12.077a4.33 4.33 0 0 0-4.327 4.328 4.33 4.33 0 0 0 4.327 4.327h39.846a4.33 4.33 0 0 0 4.327-4.327zm0-12.521a4.33 4.33 0 0 0-4.327-4.327H12.077c-2.388 0-4.327 1.939-4.327 4.327s1.939 4.327 4.327 4.327h39.846a4.33 4.33 0 0 0 4.327-4.327zM13.803 19.471v3.446h10.579v-5.844a11.23 11.23 0 0 0 2.343-1.41c2.237-1.745 3.347-4.068 3.371-6.392S29.057 4.6 26.857 2.8c-.887-.725-1.951-1.273-3.024-1.702l-1.372.918-.062 6.154c-.003.286-.167.503-.402.659-.376.249-.899.364-1.472.364h-2.85c-.565-.008-1.082-.142-1.452-.406-.242-.173-.413-.406-.41-.702l.062-6.155-1.348-.947c-1.083.403-2.158.924-3.06 1.628C9.23 4.357 8.12 6.679 8.096 9.003c-.023 2.323 1.039 4.671 3.239 6.471.725.593 1.567 1.067 2.437 1.454.016.617.026 1.607.031 2.543z"/></symbol><symbol id="pkw"><path d="M14.762 29.23h34.49S63.18 43.708 60.715 44.826c-1.067.483-6.127-1.117-11.524-3.087V62H14.802V41.747C9.413 43.714 4.365 45.309 3.3 44.826.835 43.708 14.762 29.23 14.762 29.23zm22.012-17.871H16.299v13.19h6.364V13.997h14.111v-2.638zm1.764 5.276H24.427v7.914h14.111v-7.914zm6.761-6.235v14.149h-4.283v-9.233h-2.478V10.4h6.761zm-8.667-6.918H18.459v5.276h18.173V3.482z"/></symbol><symbol id="slh"><path d="M40.023 45.152c-3.477 2.591-7.729 4.192-12.407 4.221-10.406.066-20.276-8.26-21.806-18.699C4.079 18.86 13.39 6.51 25.93 5.634a23.135 23.135 0 0 1 1.686-.053c10 .095 19.38 7.75 21.337 17.619 1.156 5.829-.437 11.92-3.87 16.758l13.82 13.819-5.128 5.128-13.752-13.753zM27.395 14.645c-6.236.06-12 5.17-12.677 11.431-.588 5.436 2.691 11.076 7.773 13.229 6.62 2.806 15.346-1.167 17.352-8.391 2.055-7.404-3.759-16.031-12.032-16.265a19.293 19.293 0 0 0-.416-.004z"/></symbol><symbol id="smt"><path d="M18.504 59A7.507 7.507 0 0 1 11 51.496V29.17a7.5 7.5 0 0 1 3.5-6.346v-7.052c0-7.368 5.982-13.351 13.351-13.351h8.298c7.369 0 13.351 5.983 13.351 13.351v7.052A7.5 7.5 0 0 1 53 29.17v22.326a7.507 7.507 0 0 1-7.407 7.503L18.504 59zm26.224-21.288H35.2v-9.528h-6.4v9.528h-9.528v6.4H28.8v9.528h6.4v-9.528h9.528v-6.4zM42.5 15.772a6.354 6.354 0 0 0-6.351-6.351h-8.298a6.354 6.354 0 0 0-6.351 6.351v5.895h21v-5.895z"/></symbol><symbol id="snu"><path d="M19.144 57.582a4.17 4.17 0 0 0-4.169-4.169H7.418c-2.3 0-4.168 1.868-4.168 4.169s1.868 4.168 4.168 4.168h7.557a4.17 4.17 0 0 0 4.169-4.168zm41.606 0a4.17 4.17 0 0 0-4.168-4.169H27.435c-2.301 0-4.169 1.868-4.169 4.169s1.868 4.168 4.169 4.168h29.147a4.17 4.17 0 0 0 4.168-4.168zM19.144 45.617a4.17 4.17 0 0 0-4.169-4.169H7.418c-2.3 0-4.168 1.868-4.168 4.169s1.868 4.168 4.168 4.168h7.557a4.17 4.17 0 0 0 4.169-4.168zm41.606 0a4.17 4.17 0 0 0-4.168-4.169H27.435c-2.301 0-4.169 1.868-4.169 4.169s1.868 4.168 4.169 4.168h29.147a4.17 4.17 0 0 0 4.168-4.168zM19.144 33.652a4.17 4.17 0 0 0-4.169-4.168H7.418a4.17 4.17 0 0 0-4.168 4.168 4.17 4.17 0 0 0 4.168 4.169h7.557a4.17 4.17 0 0 0 4.169-4.169zm41.606 0a4.17 4.17 0 0 0-4.168-4.168H27.435a4.17 4.17 0 0 0-4.169 4.168 4.17 4.17 0 0 0 4.169 4.169h29.147a4.17 4.17 0 0 0 4.168-4.169zM19.144 21.688a4.17 4.17 0 0 0-4.169-4.169H7.418a4.17 4.17 0 0 0-4.168 4.169 4.17 4.17 0 0 0 4.168 4.168h7.557a4.17 4.17 0 0 0 4.169-4.168zm28.944-5.996 4.859 4.858a4.137 4.137 0 0 0 5.848 0 4.137 4.137 0 0 0 0-5.847l-7.711-7.711a4.127 4.127 0 0 0-2.996-1.21 4.125 4.125 0 0 0-2.995 1.21l-7.711 7.711a4.136 4.136 0 0 0 5.847 5.847l4.859-4.858z"/></symbol><symbol id="sos"><path d="M73.934 15.359a50.006 50.006 0 0 0-19.668 0 128.34 128.34 0 0 1 1.871 12.477 37.41 37.41 0 0 0-12.249 5.073 128.485 128.485 0 0 1-7.499-10.146 50.018 50.018 0 0 0-13.908 13.908 128.735 128.735 0 0 1 10.146 7.499 37.41 37.41 0 0 0-5.073 12.249 128.34 128.34 0 0 1-12.477-1.871 49.968 49.968 0 0 0 0 19.668 128.34 128.34 0 0 1 12.477-1.871 37.4 37.4 0 0 0 5.073 12.249 128.485 128.485 0 0 1-10.146 7.499 50.018 50.018 0 0 0 13.908 13.908 128.485 128.485 0 0 1 7.499-10.146 37.433 37.433 0 0 0 12.249 5.074 128.366 128.366 0 0 1-1.871 12.476 49.968 49.968 0 0 0 19.668 0 128.366 128.366 0 0 1-1.871-12.476 37.433 37.433 0 0 0 12.249-5.074 128.485 128.485 0 0 1 7.499 10.146 50.018 50.018 0 0 0 13.908-13.908 128.485 128.485 0 0 1-10.146-7.499 37.4 37.4 0 0 0 5.073-12.249 128.34 128.34 0 0 1 12.477 1.871 49.968 49.968 0 0 0 0-19.668 128.34 128.34 0 0 1-12.477 1.871 37.41 37.41 0 0 0-5.073-12.249 128.735 128.735 0 0 1 10.146-7.499 50.018 50.018 0 0 0-13.908-13.908 128.485 128.485 0 0 1-7.499 10.146 37.41 37.41 0 0 0-12.249-5.073 128.34 128.34 0 0 1 1.871-12.477zM64.1 50.882c7.451 0 13.5 6.049 13.5 13.5s-6.049 13.5-13.5 13.5-13.5-6.049-13.5-13.5 6.049-13.5 13.5-13.5z"/></symbol><symbol id="tpw"><path d="M64 64V45H0v19h64zm-25.025-5.747.001 1.834a1.948 1.948 0 1 1-3.897 0l-.002-6.41-1.968 1.774a2.105 2.105 0 0 1-1.48.524 2.105 2.105 0 0 1-1.48-.524l-1.968-1.774-.003 6.41a1.95 1.95 0 0 1-3.897 0l.002-5.24h-6.669l4.099 3.89c.751.713.751 1.869.002 2.581-.75.711-1.968.71-2.719-.002l-4.104-3.895-4.104 3.895a1.999 1.999 0 0 1-2.719.002 1.76 1.76 0 0 1 .002-2.581l4.104-3.895-4.104-3.895c-.751-.712-.752-1.868-.002-2.58s1.968-.711 2.719.002l4.104 3.895 4.104-3.895a1.998 1.998 0 0 1 2.719-.002 1.76 1.76 0 0 1-.002 2.58l-4.099 3.89h6.669l.002-5.24.002-.072a1.674 1.674 0 0 1 .571-1.356c.276-.249.614-.408.97-.477a1.942 1.942 0 0 1 .578-.036c.454.033.899.206 1.247.52l3.976 3.583 3.975-3.583a2.084 2.084 0 0 1 1.248-.52 1.94 1.94 0 0 1 .578.036c.356.069.694.228.97.477.412.371.602.868.571 1.356l.001.072.003 8.646h2.912l.003-8.83a1.95 1.95 0 0 1 3.897 0l-.004 8.839 6.372.002a1.798 1.798 0 0 1 0 3.597l-8.471-.003a1.8 1.8 0 0 1-1.798-1.799l.001-1.796h-2.912zM25.286 39.498 25 39.5c-10.072 0-18.25-8.402-18.25-18.75S14.928 2 25 2s18.25 8.402 18.25 18.75a19.05 19.05 0 0 1-2.301 9.115L52 25.842v-3.071a1.5 1.5 0 0 1 1.5-1.5h3a1.5 1.5 0 0 1 1.5 1.5v11a1.5 1.5 0 0 1-1.5 1.5h-3a1.5 1.5 0 0 1-1.5-1.5v-1.543l-25.926 9.436-.788-2.166z"/></symbol><symbol id="aqm"><path d="M32 13.243a6.495 6.495 0 0 0-4.608 1.907L2.907 39.635c-2.543 2.543-2.543 6.672 0 9.215s6.672 2.543 9.215 0L32 28.972 51.878 48.85c2.543 2.543 6.672 2.543 9.215 0s2.543-6.672 0-9.215L36.608 15.15A6.495 6.495 0 0 0 32 13.243z"/></symbol><linearGradient id="brm" x1="0" x2="0" y1="0" y2="1"><stop offset="0" style="stop-color:#e2e2e2"/><stop offset=".7" style="stop-color:#f7f7f7"/></linearGradient><linearGradient id="bsm" x1="0" x2="0" y1="0" y2="1"><stop offset="0" style="stop-color:#000;stop-opacity:.15"/><stop offset="1" style="stop-color:#000;stop-opacity:.19"/></linearGradient><linearGradient id="btm" x1="0" x2="0" y1="0" y2="1"><stop offset=".4" style="stop-color:#0095ff"/><stop offset="1" style="stop-color:#0d7bff"/></linearGradient><filter id="bum" color-interpolation-filters="sRGB"><feDropShadow dx="0" dy="1.5" flood-opacity=".06" stdDeviation="1"/><feDropShadow dx="0" dy="0" flood-opacity=".2" stdDeviation=".8"/></filter></defs><path d="M0 0h1880v1300H0z" style="fill:#b4d0cd"/><g style="font-family:'Helvetica Neue',sans-serif-light,Helvetica,sans-serif"><rect width="1718" height="1140" x="81" y="81" rx="15" style="fill:#e7e8e8;stroke:#a6bbb9;stroke-width:1px"/><rect width="1716" height="57" x="82" y="82" rx="15" style="fill:#f8f9f9;stroke:#fff;stroke-width:1px;clip-path:inset(0 0 15px)"/><path d="M81 124h1718v1H81z" style="fill:none;stroke:#cdcece;stroke-width:.5px"/><text x="82" y="82" dx="857" dy="28" style="font-family:'Helvetica Neue',Helvetica,sans-serif;font-weight:700;font-size:20px;fill:#494949" text-anchor="middle">e2 SAT Editor</text><ellipse cx="103" cy="103" rx="8.8" style="fill:#ff5f5a;stroke:#000;stroke-opacity:.1"/><ellipse cx="133" cy="103" rx="8.8" style="fill:#febc2e;stroke:#000;stroke-opacity:.1"/><ellipse cx="164" cy="103" rx="8.8" style="fill:#28c840;stroke:#000;stroke-opacity:.1"/><path d="M82 125h1716v67H82z" style="fill:#f3f4f4"/><path d="M82 125h120v67H82z" style="fill:#e7e8e8"/><rect width="112" height="53" x="82" y="131" rx="0" style="fill:url(#brm);stroke:#afafaf;stroke-width:1.5px"/><use href="#aad" style="fill:#4f4f4f" transform="matrix(.26 0 0 .26 88 149)"/><text x="82" y="131" dx="27" dy="33" style="font-weight:700;font-size:19px;fill:#000">New Tab</text><path d="M202 125h1v67h-1z" style="fill:#95c1f1"/><path d="M203 124h157v69H203z" style="fill:#9dcdff;stroke:#91bdef;stroke-width:1.5px;clip-path:inset(1px 0)"/><text x="203" y="124" dx="15" dy="41" style="font-size:20px;fill:#000">enigma_db</text><use href="#cce" style="fill:#fff" transform="matrix(.2 0 0 .2 335 152)"/><path d="M360 124h292v69H360z" style="fill:#ececec;stroke:#d2d3d3;stroke-width:1.5px;clip-path:inset(1px 0)"/><use href="#pkw" style="fill:#000" transform="matrix(.38 0 0 .38 372 144)"/><text x="360" y="124" dx="46" dy="41" style="font-size:20px;fill:#000">enigma_db - Picons <tspan style="font-size:15px">…</tspan></text><use href="#cce" style="fill:#666" transform="matrix(.2 0 0 .2 628 152)"/><path d="M652 124h154v69H652z" style="fill:#ececec;stroke:#d2d3d3;stroke-width:1.5px;clip-path:inset(1px 0)"/><text x="652" y="124" dx="15" dy="41" style="font-size:20px;fill:#000">neutrino</text><use href="#cce" style="fill:#666" transform="matrix(.2 0 0 .2 782 152)"/><path d="M806 124h292v69H806z" style="fill:#ececec;stroke:#d2d3d3;stroke-width:1.5px;clip-path:inset(1px 0)"/><use href="#tpw" style="fill:#000" transform="matrix(.38 0 0 .38 818 144)"/><text x="806" y="124" dx="46" dy="41" style="font-size:20px;fill:#000">enigma_db - Edit Set<tspan style="font-size:15px">…</tspan></text><use href="#cce" style="fill:#666" transform="matrix(.2 0 0 .2 1075 152)"/><path d="M1098 124h293v69h-293z" style="fill:#ececec;stroke:#d2d3d3;stroke-width:1.5px;clip-path:inset(1px 0)"/><use href="#cbw" style="fill:#000" transform="matrix(.38 0 0 .38 1111 144)"/><text x="1098" y="124" dx="46" dy="41" style="font-size:20px;fill:#000">enigma_db - Channe<tspan style="font-size:15px">…</tspan></text><use href="#cce" style="fill:#666" transform="matrix(.2 0 0 .2 1367 152)"/><path d="M1390 125h1v67h-1z" style="fill:#d5d6d6"/><path d="M82 192h1716v100H82z" style="fill:#e7e8e8"/><use href="#fhn" style="fill:#4c4c4c" transform="matrix(.38 0 0 .38 106 217)"/><text x="90" y="192" dx="69" dy="59" style="font-size:26px;fill:#000">Open</text><use href="#fie" style="fill:#4c4c4c" transform="matrix(.38 0 0 .38 259 217)"/><text x="244" y="192" dx="69" dy="59" style="font-size:26px;fill:#000">Save</text><path d="M406 212h1v61h-1z" style="fill:none;stroke:#000;stroke-opacity:.3;stroke-dasharray:1px,3px"/><use href="#fft" style="fill:#4c4c4c" transform="matrix(.38 0 0 .38 424 217)"/><text x="408" y="192" dx="69" dy="59" style="font-size:26px;fill:#000">Import</text><use href="#fet" style="fill:#4c4c4c" transform="matrix(.38 0 0 .38 592 217)"/><text x="574" y="192" dx="69" dy="59" style="font-size:26px;fill:#000">Export</text><path d="M756 212h1v61h-1z" style="fill:none;stroke:#000;stroke-opacity:.3;stroke-dasharray:1px,3px"/><use href="#sos" style="fill:#4c4c4c" transform="matrix(.38 0 0 .38 773 217)"/><text x="758" y="192" dx="69" dy="59" style="font-size:26px;fill:#000">Settings</text><rect width="125" height="30" x="1049" y="224" rx="8" style="fill:#fff;stroke:url(#bsm);stroke-width:.4px;filter:url(#bum)"/><rect width="24" height="24" x="1146.5" y="227" rx="8" style="fill:url(#btm);stroke:url(#bsm);stroke-opacity:.06;stroke-width:2px"/><use href="#aqm" style="fill:#fff" transform="matrix(.16 0 0 .16 1153.4 229.7)"/><use href="#aqm" style="fill:#fff" transform="matrix(.16 0 0 -.16 1153.4 248.7)"/><text x="1049" y="224" dx="12" dy="22" style="font-size:20px;fill:#000">Profile 1</text><text x="1196" y="192" dx="15" dy="59" style="font-size:26px;fill:#000">Connect</text><text x="1329" y="192" dx="15" dy="59" style="font-size:26px;fill:#000">Disconnect</text><path d="M1501 212h1v61h-1z" style="fill:none;stroke:#000;stroke-opacity:.3;stroke-dasharray:1px,3px"/><text x="1513" y="192" dx="15" dy="59" style="font-size:26px;fill:#000">Upload</text><text x="1632" y="192" dx="15" dy="59" style="font-size:26px;fill:#000">Download</text><path d="M80 192h1720v100H80z" style="fill:none;stroke:#d0d0d0;stroke-width:2.4px;clip-path:inset(0 2px)"/><path d="M82 291h1716v835H82z" style="fill:#f3f4f4"/><path d="M82 291h380v835H82z" style="fill:#e7e8e8"/><text x="82" y="291" dx="10" dy="33" style="font-weight:700;font-size:20px;fill:#000">Services</text><use href="#snu" style="fill:#505050" transform="matrix(.38 0 0 .38 412 303)"/><path d="M82 340h380v55H82z" style="fill:#d5d6d6"/><text x="82" y="340" dx="23" dy="34" style="font-size:20px;fill:#000">All services</text><text x="82" y="395" dx="23" dy="34" style="font-size:20px;fill:#000">TV</text><text x="82" y="450" dx="23" dy="34" style="font-size:20px;fill:#000">Radio</text><text x="82" y="505" dx="23" dy="34" style="font-size:20px;fill:#000">Data</text><text x="82" y="595" dx="10" dy="33" style="font-weight:700;font-size:20px;fill:#000">Bouquets</text><text x="82" y="643" dx="24" dy="34" style="font-size:20px;fill:#000">TV</text><use href="#aqm" style="fill:#bfbfbf" transform="matrix(.19 0 0 -.19 90 678)"/><text x="82" y="697" dx="25" dy="34" style="font-size:20px;fill:#000">Swiss</text><path d="M82 750h380v55H82z" style="fill:#d5d6d6"/><text x="82" y="750" dx="25" dy="34" style="font-size:20px;fill:#000">Italy</text><text x="82" y="804" dx="25" dy="34" style="font-size:20px;fill:#000">Tests</text><text x="82" y="857" dx="25" dy="34" style="font-size:20px;fill:#000">Tests 1</text><text x="82" y="910" dx="24" dy="34" style="font-size:20px;fill:#000">Radio</text><use href="#aqm" style="fill:#bfbfbf" transform="matrix(.19 0 0 -.19 90 945)"/><text x="82" y="964" dx="25" dy="34" style="font-size:20px;fill:#000">Swiss</text><text x="82" y="1017" dx="25" dy="34" style="font-size:20px;fill:#000">Italy</text><path d="M82 1054h380v73H82z" style="fill:#eff0f0"/><path d="M80 1053h384v73H80z" style="fill:none;stroke:#e2e2e2;stroke-width:2.4px;clip-path:inset(0 2px 2px)"/><use href="#aad" style="fill:#545454" transform="matrix(.25 0 0 .25 101 1080)"/><text x="95" y="1064" dx="28" dy="33" style="font-weight:700;font-size:21px;fill:#000">Bouquet</text><rect width="128" height="32" x="314" y="1072" rx="8" style="fill:#fff;stroke:url(#bsm);stroke-width:.4px;filter:url(#bum)"/><use href="#slh" style="fill:#545454" transform="matrix(.38 0 0 .38 334 1075)"/><text x="314" y="1072" dx="54" dy="22" style="font-size:20px;fill:#000">Find<tspan style="font-size:15px">…</tspan></text><ellipse cx="467.4" cy="708.4" rx="4" style="fill:#dadbdb"/><text x="473" y="291" dx="10" dy="32" style="font-weight:700;font-size:20px;fill:#000">Channels</text><use href="#lju" style="fill:#505050" transform="matrix(.38 0 0 .38 1751 303)"/><path d="M473 340h1325v26H473z" style="fill:#ececec"/><text x="473" y="340" dy="18" style="font-size:17px;fill:#000"><tspan x="479">Index</tspan> <tspan x="578">Name</tspan> <tspan x="883">Parental</tspan> <tspan x="989">Service ID</tspan> <tspan x="1112">Transport ID</tspan> <tspan x="1234">Type</tspan> <tspan x="1363">CAS</tspan> <tspan x="1432">Provider</tspan> <tspan x="1702">System</tspan></text><path d="M571 343h.5v19h-.5z" style="fill:none;stroke:#c7c7c7;stroke-width:1px"/><path d="M876 343h.5v19h-.5z" style="fill:none;stroke:#c7c7c7;stroke-width:1px"/><path d="M982 343h.5v19h-.5z" style="fill:none;stroke:#c7c7c7;stroke-width:1px"/><path d="M1105 343h.5v19h-.5z" style="fill:none;stroke:#c7c7c7;stroke-width:1px"/><path d="M1226 343h.5v19h-.5z" style="fill:none;stroke:#c7c7c7;stroke-width:1px"/><path d="M1356 343h.5v19h-.5z" style="fill:none;stroke:#c7c7c7;stroke-width:1px"/><path d="M1425 343h.5v19h-.5z" style="fill:none;stroke:#c7c7c7;stroke-width:1px"/><path d="M1696 343h.5v19h-.5z" style="fill:none;stroke:#c7c7c7;stroke-width:1px"/><path d="M473 366h1325v687H473z" style="fill:#fff"/><path d="M473 707h1325v49H473z" style="fill:#0044e2"/><text x="473" y="366" dy="31" style="font-size:19px;fill:#000"><tspan x="500">38</tspan> <tspan x="580">Giallo</tspan> <tspan x="990">4322</tspan> <tspan x="1114">1000</tspan> <tspan x="1235">HD</tspan> <tspan x="1400" style="font-size:15px">...</tspan> <tspan x="1433">TVN WBD</tspan> <tspan x="1703">DVB-S2</tspan></text><use href="#smt" style="fill:#545454" transform="matrix(.38 0 0 .38 884 378)"/><use href="#cdd" style="fill:#545454" transform="matrix(.38 0 0 .38 1364 378)"/><text x="473" y="415" dy="31" style="font-size:19px;fill:#000"><tspan x="500">39</tspan> <tspan x="580">TOPcrime HD</tspan> <tspan x="990">132</tspan> <tspan x="1114">1200</tspan> <tspan x="1235">HD</tspan> <tspan x="1400" style="font-size:15px">...</tspan> <tspan x="1433">Mediaset</tspan> <tspan x="1703">DVB-S2</tspan></text><use href="#smt" style="fill:#545454" transform="matrix(.38 0 0 .38 884 427)"/><use href="#cdd" style="fill:#545454" transform="matrix(.38 0 0 .38 1364 427)"/><text x="473" y="464" dy="31" style="font-size:19px;fill:#000"><tspan x="500">40</tspan> <tspan x="580">Boing HD</tspan> <tspan x="990">126</tspan> <tspan x="1114">1200</tspan> <tspan x="1235">HD</tspan> <tspan x="1400" style="font-size:15px">...</tspan> <tspan x="1434">Mediaset</tspan> <tspan x="1703">DVB-S2</tspan></text><use href="#cdd" style="fill:#545454" transform="matrix(.38 0 0 .38 1364 476)"/><text x="473" y="512" dy="31" style="font-size:19px;fill:#000"><tspan x="500">41</tspan> <tspan x="580">K2</tspan> <tspan x="990">15204</tspan> <tspan x="1114">300</tspan> <tspan x="1235">H.264</tspan> <tspan x="1400" style="font-size:15px">...</tspan> <tspan x="1433">Warner Bros. Discovery</tspan> <tspan x="1703">DVB-S2</tspan></text><use href="#cdd" style="fill:#545454" transform="matrix(.38 0 0 .38 1364 524)"/><text x="473" y="561" dy="31" style="font-size:19px;fill:#000"><tspan x="500">42</tspan> <tspan x="580">Rai Gulp HD</tspan> <tspan x="990">17712</tspan> <tspan x="1114">12500</tspan> <tspan x="1235">HD</tspan>  <tspan x="1434">Rai</tspan> <tspan x="1703">DVB-S2</tspan></text><text x="473" y="610" dy="31" style="font-size:19px;fill:#000"><tspan x="500">43</tspan> <tspan x="580">Rai YoYo HD</tspan> <tspan x="990">8511</tspan> <tspan x="1114">12400</tspan> <tspan x="1235">HD</tspan> <tspan x="1400" style="font-size:15px">...</tspan> <tspan x="1433">RAI</tspan> <tspan x="1703">DVB-S2</tspan></text><use href="#cdd" style="fill:#545454" transform="matrix(.38 0 0 .38 1364 622)"/><text x="473" y="658" dy="31" style="font-size:19px;fill:#000"><tspan x="500">44</tspan> <tspan x="580">Frisbee</tspan> <tspan x="990">15205</tspan> <tspan x="1114">300</tspan> <tspan x="1235">H.264</tspan> <tspan x="1400" style="font-size:15px">...</tspan> <tspan x="1433">Warner Bros. Discovery</tspan> <tspan x="1703">DVB-S2</tspan></text><use href="#cdd" style="fill:#545454" transform="matrix(.38 0 0 .38 1364 670)"/><text x="473" y="707" dy="31" style="font-size:19px;fill:#fff"><tspan x="500">45</tspan> <tspan x="580">NASA+</tspan> <tspan x="990">1958</tspan> <tspan x="1114">0</tspan> <tspan x="1235">STREAM</tspan> <tspan x="1703">[eservice]</tspan></text><text x="473" y="756" dy="31" style="font-size:19px;fill:#000"><tspan x="500">46</tspan> <tspan x="580">Cartoonito HD</tspan> <tspan x="990">133</tspan> <tspan x="1114">1200</tspan> <tspan x="1235">HD</tspan> <tspan x="1400" style="font-size:15px">...</tspan> <tspan x="1433">Mediaset</tspan> <tspan x="1703">DVB-S2</tspan></text><use href="#cdd" style="fill:#545454" transform="matrix(.38 0 0 .38 1364 768)"/><text x="473" y="805" dy="31" style="font-size:19px;fill:#000"><tspan x="500">47</tspan> <tspan x="580">Super!</tspan> <tspan x="990">55</tspan> <tspan x="1114">512</tspan> <tspan x="1235">H.264</tspan> <tspan x="1433">Persidera</tspan> <tspan x="1703">DVB-T</tspan></text><text x="473" y="854" dy="31" style="font-size:19px;fill:#000"><tspan x="500">48</tspan> <tspan x="580">Rai News 24 HD</tspan> <tspan x="990">17711</tspan> <tspan x="1114">12500</tspan> <tspan x="1235">HD</tspan> <tspan x="1434">Rai</tspan> <tspan x="1703">DVB-S2</tspan></text><text x="473" y="902" dy="31" style="font-size:19px;fill:#000"><tspan x="500">49</tspan> <tspan x="580">Mediaset Italia2 HD</tspan> <tspan x="990">130</tspan> <tspan x="1114">1200</tspan> <tspan x="1235">HD</tspan> <tspan x="1400" style="font-size:15px">...</tspan> <tspan x="1433">Mediaset</tspan> <tspan x="1703">DVB-S2</tspan></text><use href="#cdd" style="fill:#545454" transform="matrix(.38 0 0 .38 1364 914)"/><text x="473" y="949" dy="31" style="font-size:19px;fill:#000"><tspan x="500">50</tspan> <tspan x="580">Sky TG24</tspan> <tspan x="990">90</tspan> <tspan x="1114">512</tspan> <tspan x="1235">H.264</tspan> <tspan x="1433">Persidera</tspan> <tspan x="1703">DVB-T</tspan></text><rect width="12" height="77" x="1782" y="541" rx="7" style="fill:#7f7f7f"/><path d="M473 992h1325v61H473z" style="fill:#fafafa"/><rect width="136" height="30" x="483" y="1004" rx="8" style="fill:#fff;stroke:url(#bsm);stroke-width:.4px;filter:url(#bum)"/><text x="483" y="1004" dx="12" dy="22" style="font-size:20px;fill:#000">Name</text><rect width="24" height="24" x="592.5" y="1007" rx="8" style="fill:url(#btm);stroke:url(#bsm);stroke-opacity:.06;stroke-width:2px"/><use href="#aqm" style="fill:#fff" transform="matrix(.16 0 0 .16 599.4 1009.7)"/><use href="#aqm" style="fill:#fff" transform="matrix(.16 0 0 -.16 599.4 1028.7)"/><rect width="208" height="33" x="627" y="1003" rx="0" style="fill:#fff;stroke:#d1d2d2;stroke-width:2.4px;clip-path:inset(1.8px 1.8px .4px)"/><text x="627" y="1003" dx="4" dy="23" style="font-size:19px;fill:#000">Nasa</text><rect width="82" height="33" x="845" y="1003" rx="4" style="fill:#ececec"/><text x="845" y="1003" dx="40" dy="23" style="font-size:19px;fill:#000;fill-opacity:.89" text-anchor="middle">Find</text><rect width="166" height="33" x="936" y="1003" rx="4" style="fill:#ececec"/><text x="936" y="1003" dx="83" dy="23" style="font-size:19px;fill:#000;fill-opacity:.89" text-anchor="middle">Find Previous</text><rect width="110" height="33" x="1111" y="1003" rx="4" style="fill:#ececec"/><text x="1111" y="1003" dx="55" dy="23" style="font-size:19px;fill:#000;fill-opacity:.89" text-anchor="middle">Find All</text><rect width="126" height="31" x="1254" y="1004" rx="4" style="fill:#b1d7ff;stroke:#d1d2d2;stroke-width:1px"/><text x="1254" y="1004" dx="62" dy="22" style="font-size:18px;fill:#fff;fill-opacity:.9" text-anchor="middle">Highlight</text><use href="#cce" style="fill:#666" transform="matrix(.23 0 0 .23 1764 1013)"/><path d="M473 1054h1325v73H473z" style="fill:#f7f8f8"/><path d="M471 1053h1329v73H471z" style="fill:none;stroke:#e9eaea;stroke-width:2.4px;clip-path:inset(0 2px 2px)"/><use href="#aad" style="fill:#545454" transform="matrix(.26 0 0 .26 492 1080)"/><text x="487" y="1064" dx="28" dy="33" style="font-weight:700;font-size:21px;fill:#000">Channel</text><use href="#aad" style="fill:#545454" transform="matrix(.26 0 0 .26 625 1080)"/><text x="621" y="1064" dx="28" dy="33" style="font-weight:700;font-size:21px;fill:#000">Stream</text><use href="#aad" style="fill:#545454" transform="matrix(.26 0 0 .26 746 1080)"/><text x="742" y="1064" dx="28" dy="33" style="font-weight:700;font-size:21px;fill:#000">Marker</text><g style="opacity:.24"><use href="#aad" style="fill:#545454" transform="matrix(.26 0 0 .26 867 1080)"/><text x="862" y="1064" dx="28" dy="33" style="font-weight:700;font-size:21px;fill:#000">Service</text></g><rect width="135" height="32" x="993" y="1072" rx="8" style="fill:#fff;stroke:url(#bsm);stroke-width:.4px;filter:url(#bum)"/><text x="993" y="1072" dx="22" dy="22" style="font-size:20px;fill:#000">Reference</text><g style="opacity:.24"><rect width="147" height="32" x="1157" y="1072" rx="8" style="fill:#fff;stroke:url(#bsm);stroke-width:.4px;filter:url(#bum)"/><text x="1157" y="1072" dx="25" dy="22" style="font-size:20px;fill:#000">Drag&amp;Drop</text></g><rect width="128" height="32" x="1652" y="1072" rx="8" style="fill:#fff;stroke:url(#bsm);stroke-width:.4px;filter:url(#bum)"/><use href="#slh" style="fill:#545454" transform="matrix(.38 0 0 .38 1664 1075)"/><text x="1652" y="1072" dx="46" dy="22" style="font-size:20px;fill:#000">Find<tspan style="font-size:15px">…</tspan></text><path d="M80 291h1720v836H80z" style="fill:none;stroke:#d5d6d6;stroke-width:2.4px;clip-path:inset(0 2px)"/><rect width="1716" height="56" x="82" y="1164" rx="15" style="fill:#f3f4f4;clip-path:inset(15px 0 0)"/><path d="M80 1179h1720v42H80z" style="fill:none;stroke:#d8d9d9;stroke-width:2.5px;clip-path:inset(0 2px 42px)"/><text x="82" y="1179" dx="29" dy="29" style="font-size:20px;fill:#000"><tspan>Channels: 143</tspan> <tspan dx="10">Bouquet: userbouquet.dbe01.tv</tspan></text><text x="82" y="1179" dx="1212" dy="29" style="font-size:20px;fill:#000"><tspan>TV: 1240</tspan> <tspan dx="10">Radio: 304</tspan> <tspan dx="10">Data: 148</tspan> <tspan dx="10">Total: 1692</tspan></text><use href="#fgo" style="fill:#545454" transform="matrix(.38 0 0 .38 1741 1188)"/><rect width="1718" height="1140" x="81" y="81" rx="15" style="fill:none;stroke:#a6bbb9;stroke-width:1px"/><rect width="1714" height="1136" x="83" y="83" rx="15" style="fill:none;stroke:#fff;stroke-opacity:.09;stroke-width:1px"/></g></svg>