<svg xmlns="http://www.w3.org/2000/svg" style="pointer-events:none;user-select:none" viewBox="0 0 1880 1300"><defs><symbol id="aad"><path d="M37.8 37.8h18V26.3h-18V8H26.3v18.1H8v11.6h18.1v18h11.6v-18z"/></symbol><symbol id="cbw"><path d="m60 15-3-.5v35.7a150.1 150.1 0 0 0-14.3-.6l-3 .2-6.7.6v-36S39.6 13 43 13c4 0 14 1.5 14 1.5l3 .5a5 5 0 0 1 3 4.7v32.6c0 2.9-2.3 5.2-5.2 5.2H6.2A5.2 5.2 0 0 1 1 52.3V19.7A5 5 0 0 1 4 15l3-.5S17 13 21 13c3.4 0 10 1.5 10 1.5v35.9a286 286 0 0 0-13-.9c-3 0-7.9.4-11 .7V14.5L4 15v38.7h56V15zM28.5 42.5a2 2 0 0 0-2-2h-14a2 2 0 0 0 0 4h14a2 2 0 0 0 2-2zm25 0a2 2 0 0 0-2-2h-14a2 2 0 0 0 0 4h14a2 2 0 0 0 2-2zm-25-7a2 2 0 0 0-2-2h-14a2 2 0 0 0 0 4h14a2 2 0 0 0 2-2zm25 0a2 2 0 0 0-2-2h-14a2 2 0 0 0 0 4h14a2 2 0 0 0 2-2zm-25-7a2 2 0 0 0-2-2h-14a2 2 0 0 0 0 4h14a2 2 0 0 0 2-2zm25 0a2 2 0 0 0-2-2h-14a2 2 0 0 0 0 4h14a2 2 0 0 0 2-2zm-25-7a2 2 0 0 0-2-2h-14a2 2 0 0 0 0 4h14a2 2 0 0 0 2-2zm25 0a2 2 0 0 0-2-2h-14a2 2 0 0 0 0 4h14a2 2 0 0 0 2-2z"/></symbol><symbol id="cce"><path d="m62.3 7.3-5.6-5.6L32 26.4 7.3 1.7 1.7 7.3 26.4 32 1.7 56.7l5.6 5.6L32 37.6l24.7 24.7 5.6-5.6L37.6 32 62.3 7.3z"/></symbol><symbol id="fdt"><path d="M56.3 31H13.8A13 13 0 0 0 1 44v61.3c0 7 5.7 12.8 12.8 12.8h54.5c7 0 12.8-5.8 12.8-12.8v-51c-16.6 14-16.6 30.2-17 36.9a6.8 6.8 0 0 1-11.7 4.4C38 81 36.3 52.4 56.3 31.1zm1 59.7c-14.6-14.7-13-46 15.2-64.3L62.2 14l42.8 1-7.3 41.4-11.8-14C57.8 59.3 57.8 82 57.3 90.6z"/></symbol><symbol id="fet"><path d="M87.8 55.7h8.5c5.9 0 10.7 4.8 10.7 10.6v45c0 6-4.8 10.7-10.7 10.7H11.7C5.8 122 1 117.2 1 111.4v-45c0-6 4.8-10.7 10.7-10.7h19.8L54 77.5a10 10 0 0 0 6.3 2.1c2 0 4.8-.8 6.2-2.2l21.3-21.7zM94 6.4C76 3.3 44.4 18.9 49 45.9H33.6l27.2 26.4 25.8-26.4H72.1C67.3 21.7 88 10.8 94 6.4z"/></symbol><symbol id="ffo"><path d="M32 62.5a30.5 30.5 0 0 1 0-61v9.6l-1-.1a5.4 5.4 0 1 0 1 10.7v5.1l-7.4.2 2.8 1.2V51l-2.8 2H32v9.5zm0-51.4V1.5a30.5 30.5 0 0 1 0 61V53h9.5l-5.8-2V26.6l-3.7.1v-5A5.4 5.4 0 0 0 32 11z"/></symbol><symbol id="fgn"><path d="M21 43h89c2.9 0 4.7 2.2 4.2 5l-9.3 53c-.5 2.7-3.2 5-6 5H8a3.8 3.8 0 0 1-3.9-3.8V22h67.2L88 36H16v32h5V43z"/></symbol><symbol id="fhe"><path d="M114 22v86.2c0 2-1.7 3.8-3.8 3.8H17.8a3.8 3.8 0 0 1-3.8-3.8V19.8c0-2 1.7-3.8 3.8-3.8H109l5 6zM94 59V19H38v40h56zm-9.5-33v30h-15V26h15z"/></symbol><symbol id="liu"><path d="M56.3 57.4c0-2.4-2-4.3-4.4-4.3H12.1a4.3 4.3 0 0 0 0 8.6h39.8c2.4 0 4.4-1.9 4.4-4.3zm0-12.5c0-2.4-2-4.3-4.4-4.3H12.1a4.3 4.3 0 0 0 0 8.6h39.8c2.4 0 4.4-2 4.4-4.3zm0-12.5c0-2.4-2-4.3-4.4-4.3H12.1a4.3 4.3 0 0 0 0 8.6h39.8c2.4 0 4.4-2 4.4-4.3zm-42.5-13V23h10.6v-5.8l2.3-1.4c2.3-1.8 3.4-4.1 3.4-6.4s-1-4.7-3.2-6.5c-1-.7-2-1.3-3-1.7l-1.4 1-.1 6c0 .4-.2.6-.4.7-.4.3-.9.4-1.5.4h-2.8c-.6 0-1.1-.1-1.5-.4-.2-.2-.4-.4-.4-.7V1.9l-1.3-1c-1 .5-2.1 1-3 1.7A8.2 8.2 0 0 0 8 9c0 2.3 1 4.7 3.2 6.5.8.6 1.6 1 2.5 1.4v2.6z"/></symbol><symbol id="pjw"><path d="M14.8 29.2h34.5s13.9 14.5 11.4 15.6c-1 .5-6.1-1-11.5-3V62H14.8V41.7c-5.4 2-10.4 3.6-11.5 3.1-2.5-1 11.5-15.6 11.5-15.6zm22-17.8H16.3v13.1h6.4V14h14v-2.6zm1.7 5.2h-14v8h14v-8zm6.8-6.2v14.1H41v-9.2h-2.5v-4.9h6.8zm-8.7-7H18.5v5.4h18.1V3.5z"/></symbol><symbol id="skh"><path d="M40 45.2a20.9 20.9 0 0 1-12.4 4.2A22.6 22.6 0 0 1 5.8 30.7 22.5 22.5 0 0 1 27.6 5.6c10 0 19.4 7.7 21.4 17.6A22 22 0 0 1 45 40l14 13.8-5.1 5.1L40 45.2zM27.4 14.6c-6.2.1-12 5.2-12.7 11.5-.6 5.4 2.7 11 7.8 13.2A13.3 13.3 0 0 0 39.8 31a13.2 13.2 0 0 0-12.4-16.3z"/></symbol><symbol id="sls"><path d="M74 15.4a50 50 0 0 0-19.7 0c.8 4 1.4 8.2 1.8 12.4-4.3 1-8.5 2.7-12.2 5.1-2.7-3.2-5.2-6.6-7.5-10.1a50 50 0 0 0-14 13.9c3.6 2.3 7 4.8 10.2 7.5a37.4 37.4 0 0 0-5 12.2c-4.2-.4-8.4-1-12.5-1.9a50 50 0 0 0 0 19.7 171 171 0 0 1 12.5-1.9c.9 4.4 2.6 8.5 5 12.3-3.2 2.7-6.6 5.2-10.1 7.5A50 50 0 0 0 36.4 106c2.3-3.5 4.8-6.9 7.5-10.1 3.7 2.4 7.9 4 12.2 5-.4 4.2-1 8.4-1.8 12.5a50 50 0 0 0 19.6 0c-.8-4.1-1.4-8.3-1.8-12.5 4.3-1 8.5-2.6 12.2-5 2.7 3.2 5.2 6.6 7.5 10.1a50 50 0 0 0 14-14c-3.6-2.2-7-4.7-10.2-7.4 2.4-3.8 4.1-7.9 5-12.3 4.2.5 8.4 1 12.5 2a50 50 0 0 0 0-19.8c-4.1.9-8.3 1.5-12.5 2-.9-4.4-2.6-8.6-5-12.3 3.2-2.7 6.6-5.2 10.1-7.5a50 50 0 0 0-13.9-14c-2.3 3.6-4.8 7-7.5 10.2a37.4 37.4 0 0 0-12.2-5c.4-4.3 1-8.4 1.8-12.5zM64 50.9a13.5 13.5 0 1 1 0 27 13.5 13.5 0 0 1 0-27z"/></symbol><symbol id="tmw"><path d="M64 64V45H0v19h64zm-25-5.7V60a2 2 0 1 1-4 0v-6.4l-1.9 1.8c-.4.3-1 .5-1.5.5s-1-.2-1.5-.5l-2-1.8V60a2 2 0 0 1-3.8 0v-5.3h-6.7l4.1 4c.8.7.8 1.8 0 2.5a2 2 0 0 1-2.7 0l-4.1-3.9-4.1 4a2 2 0 0 1-2.7 0c-.8-.8-.8-2 0-2.7l4-3.9-4-3.9c-.8-.7-.8-1.8 0-2.5s2-.7 2.7 0l4 3.9 4.2-4a2 2 0 0 1 2.7 0c.8.8.8 2 0 2.6l-4 4h6.6v-5.3c0-.6.1-1 .6-1.4a2 2 0 0 1 1.3-.6h.2c.5 0 .9.3 1.3.6l4 3.6 3.9-3.6a2 2 0 0 1 1.8-.5c.4 0 .7.2 1 .5.4.3.6.8.6 1.3v8.7h2.9v-8.8a2 2 0 0 1 3.9 0v8.9h6.4a1.8 1.8 0 0 1 0 3.6h-8.5c-1 0-1.8-.9-1.8-1.9v-1.7h-3zM25.3 39.5H25c-10 0-18.3-8.4-18.3-18.8S15 2 25 2s18.3 8.4 18.3 18.8a19 19 0 0 1-2.4 9l11.1-4v-3c0-.9.7-1.5 1.5-1.5h3c.8 0 1.5.6 1.5 1.5v11c0 .8-.7 1.5-1.5 1.5h-3c-.8 0-1.5-.7-1.5-1.5v-1.6l-26 9.5-.7-2.2z"/></symbol><symbol id="anm"><path d="M32 13.2c-1.7 0-3.3.7-4.6 2L2.9 39.5a6.5 6.5 0 0 0 9.2 9.2L32 29l19.9 19.8a6.5 6.5 0 0 0 9.2-9.2L36.6 15.1a7 7 0 0 0-4.6-1.9z"/></symbol><symbol id="aow"><path d="m32 30.1 27.5 29.3V34.7L32 5.5 4.5 34.7v24.7L32 30z"/></symbol><symbol id="apw"><path d="M32 36.2 11.8 16.6a3.3 3.3 0 0 0-4.6 0l-1.9 1.8a3.1 3.1 0 0 0 0 4.5L32 48.7l.1-.1.1.1L58.7 23a3.1 3.1 0 0 0 0-4.5l-2.4-2.3c-1-1-2.6-1-3.6 0L32 36.2z"/></symbol><symbol id="pvn"><g transform="matrix(.75 0 0 .75 20.3 11.9)"><rect width="50" height="32" x="48.3" y="24.2" style="fill:none;stroke:silver;stroke-opacity:.96;stroke-width:2.5px"/><rect width="2.5" height="56" style="fill:silver;fill-opacity:.96" transform="rotate(-58 48.9 -30.7)"/><rect width="2.5" height="56" x="23" y="-42" style="fill:silver;fill-opacity:.96" transform="rotate(58 .1 57.7)"/></g><rect width="148" height="78" x="2" y="2" style="fill:none;stroke:#c4c4c4;stroke-opacity:.9;stroke-width:3.3px"/></symbol><linearGradient id="bqm" x1="0" x2="0" y1="0" y2="1"><stop offset="0" style="stop-color:#e2e2e2"/><stop offset=".7" style="stop-color:#f7f7f7"/></linearGradient><linearGradient id="brm" x1="0" x2="0" y1="0" y2="1"><stop offset="0" style="stop-color:#000;stop-opacity:.15"/><stop offset="1" style="stop-color:#000;stop-opacity:.19"/></linearGradient><linearGradient id="bsm" x1="0" x2="0" y1="0" y2="1"><stop offset=".4" style="stop-color:#0095ff"/><stop offset="1" style="stop-color:#0d7bff"/></linearGradient><linearGradient id="pwg" x1="0" x2="0" y1="0" y2="1"><stop offset=".5" style="stop-color:#f4f4f4"/><stop offset="1" style="stop-color:#e2e2e2"/></linearGradient><filter id="btm" color-interpolation-filters="sRGB"><feDropShadow dx="0" dy="1.5" flood-opacity=".1" stdDeviation="1"/><feDropShadow dx="0" dy="0" flood-opacity=".2" stdDeviation=".8"/></filter><filter id="ixm" color-interpolation-filters="sRGB"><feDropShadow dx="0" dy="2.3" flood-opacity=".4" stdDeviation="2"/></filter><filter id="iym" color-interpolation-filters="sRGB"><feDropShadow dx="-1.8" dy="1.7" flood-opacity=".3" stdDeviation="3"/><feDropShadow dx="0" dy="0" flood-opacity=".1" stdDeviation="2"/></filter><marker id="aud" markerHeight="3" markerWidth="3" orient="auto" refX="1.8" refY="1.8" viewBox="0 0 3.5 3.5"><polygon points="0.7,3.5 0,1.75 0.7,0 3.5,1.75" style="fill:#0bbbcc"/></marker></defs><rect width="1880" height="1300" style="fill:#b4d0cd"/><g style="font-family:&quot;Helvetica Neue&quot;,sans-serif-light,Helvetica,sans-serif"><rect width="1298" height="1140" x="501" y="81" rx="15" style="fill:#e7e8e8;stroke:#191919;stroke-width:1px"/><rect width="1296" height="57" x="502" y="82" rx="15" style="fill:#f8f9f9;stroke:#fff;stroke-width:1px;clip-path:inset(0 0 15px)"/><rect width="1298" height="1" x="501" y="124" style="fill:none;stroke:#cdcece;stroke-width:.5px"/><text x="502" y="82" dx="649" dy="28" style="font-family:&quot;Helvetica Neue&quot;,Helvetica,sans-serif;font-weight:700;font-size:20px;fill:#494949" text-anchor="middle">e2 SAT Editor</text><ellipse cx="523" cy="103" rx="8.8" style="fill:#ff5f5a;stroke:#000;stroke-opacity:.1"/><ellipse cx="553" cy="103" rx="8.8" style="fill:#febc2e;stroke:#000;stroke-opacity:.1"/><ellipse cx="584" cy="103" rx="8.8" style="fill:#28c840;stroke:#000;stroke-opacity:.1"/><rect width="1296" height="67" x="502" y="125" style="fill:#f3f4f4"/><rect width="120" height="67" x="502" y="125" style="fill:#e7e8e8"/><rect width="112" height="53" x="502" y="131" rx="0" style="fill:url(#bqm);stroke:#afafaf;stroke-width:1.5px"/><use href="#aad" style="fill:#4f4f4f" transform="matrix(.26 0 0 .26 508 149)"/><text x="502" y="131" dx="27" dy="33" style="font-weight:700;font-size:19px;fill:#000">New Tab</text><rect width="1" height="67" x="622" y="125" style="fill:#d5d6d6"/><rect width="157" height="69" x="623" y="124" style="fill:#ececec;stroke:#d2d3d3;stroke-width:1.5px;clip-path:inset(1.76px 0 1px)"/><text x="623" y="124" dx="15" dy="41" style="font-size:20px;fill:#000">enigma_db</text><use href="#cce" style="fill:#666" transform="matrix(.2 0 0 .2 755 152)"/><rect width="292" height="69" x="780" y="124" style="fill:#9dcdff;stroke:#91bdef;stroke-width:1.5px;clip-path:inset(1.76px 0 1px)"/><use href="#pjw" style="fill:#000" transform="matrix(.38 0 0 .38 792 144)"/><text x="780" y="124" dx="46" dy="41" style="font-size:20px;fill:#000">enigma_db - Picons <tspan style="font-size:15px">…</tspan></text><use href="#cce" style="fill:#fff" transform="matrix(.2 0 0 .2 1048 152)"/><rect width="154" height="69" x="1072" y="124" style="fill:#ececec;stroke:#d2d3d3;stroke-width:1.5px;clip-path:inset(1.76px 0 1px)"/><text x="1072" y="124" dx="15" dy="41" style="font-size:20px;fill:#000">neutrino</text><use href="#cce" style="fill:#666" transform="matrix(.2 0 0 .2 1202 152)"/><rect width="292" height="69" x="1226" y="124" style="fill:#ececec;stroke:#d2d3d3;stroke-width:1.5px;clip-path:inset(1.76px 0 1px)"/><use href="#tmw" style="fill:#000" transform="matrix(.38 0 0 .38 1238 144)"/><text x="1226" y="124" dx="46" dy="41" style="font-size:20px;fill:#000">enigma_db - Edit Set<tspan style="font-size:15px">…</tspan></text><use href="#cce" style="fill:#666" transform="matrix(.2 0 0 .2 1495 152)"/><rect width="256" height="69" x="1518" y="124" style="fill:#ececec;stroke:#d2d3d3;stroke-width:1.5px;clip-path:inset(1.76px 0 1px)"/><use href="#cbw" style="fill:#000" transform="matrix(.38 0 0 .38 1531 144)"/><text x="1518" y="124" dx="46" dy="41" style="font-size:20px;fill:#000">enigma_db - Cha<tspan style="font-size:15px">…</tspan></text><rect width="1" height="67" x="1773" y="125" style="fill:#d5d6d6"/><rect width="23" height="66" x="1750" y="125.5" style="fill:#ececec;stroke:#d2d3d3;stroke-width:1.5px"/><g style="opacity:.25"><use href="#apw" style="stroke:#000;stroke-width:2.7px" transform="matrix(0 .3 -.3 0 1773.2 150)"/></g><rect width="23" height="66" x="1774" y="125.5" style="fill:#ececec;stroke:#d2d3d3;stroke-width:1.5px"/><use href="#apw" style="stroke:#000;stroke-width:2.7px" transform="matrix(0 -.3 .3 0 1776.1 169.1)"/><rect width="1296" height="100" x="502" y="192" style="fill:#e7e8e8"/><use href="#fgn" style="fill:#4c4c4c" transform="matrix(.38 0 0 .38 526 217)"/><text x="510" y="192" dx="69" dy="59" style="font-size:26px;fill:#000">Open</text><use href="#fhe" style="fill:#4c4c4c" transform="matrix(.38 0 0 .38 679 217)"/><text x="664" y="192" dx="69" dy="59" style="font-size:26px;fill:#000">Save</text><rect width="1" height="61" x="826" y="212" style="fill:none;stroke:#000;stroke-opacity:.3;stroke-dasharray:1px,3px"/><use href="#fet" style="fill:#4c4c4c" transform="matrix(.38 0 0 .38 844 217)"/><text x="828" y="192" dx="69" dy="59" style="font-size:26px;fill:#000">Import</text><use href="#fdt" style="fill:#4c4c4c" transform="matrix(.38 0 0 .38 1012 217)"/><text x="994" y="192" dx="69" dy="59" style="font-size:26px;fill:#000">Export</text><rect width="1" height="61" x="1176" y="212" style="fill:none;stroke:#000;stroke-opacity:.3;stroke-dasharray:1px,3px"/><use href="#sls" style="fill:#4c4c4c" transform="matrix(.38 0 0 .38 1193 217)"/><text x="1178" y="192" dx="69" dy="59" style="font-size:26px;fill:#000">Settings</text><rect width="125" height="32" x="1473" y="223" rx="8" style="fill:#fff;stroke:url(#brm);stroke-width:.4px;filter:url(#btm)"/><rect width="26" height="26" x="1568.6" y="226" rx="8" style="fill:url(#bsm);stroke:url(#brm);stroke-opacity:.06;stroke-width:2px"/><use href="#anm" style="fill:#fff" transform="matrix(.19 0 0 .19 1575.4 228.2)"/><use href="#anm" style="fill:#fff" transform="matrix(.19 0 0 -.19 1575.4 250.8)"/><text x="1473" y="224" dx="12" dy="22" style="font-size:20px;fill:#000">Profile 1</text><text x="1617" y="192" dx="15" dy="59" style="font-size:26px;fill:#000">Connect</text><g transform="matrix(.9 0 0 .95 1770 234)"><use href="#aow" style="fill:#646464" transform="rotate(90) scale(.23)"/><use href="#aow" style="fill:#646464" transform="matrix(0 .23 -.23 0 9.4 0)"/></g><rect width="1300" height="100" x="500" y="192" style="fill:none;stroke:#d0d0d0;stroke-width:2.4px;clip-path:inset(0 2px)"/><rect width="1296" height="807" x="502" y="291" style="fill:#f3f4f4"/><text x="502" y="291" dx="10" dy="32" style="font-weight:700;font-size:20px;fill:#000">Picons</text><use href="#liu" style="fill:#505050" transform="matrix(.38 0 0 .38 1751 303)"/><rect width="1296" height="659" x="502" y="346" style="fill:#fff"/><rect width="220" height="171" x="526" y="371" rx="16" style="fill:none;stroke:#dcdcdc;stroke-width:12px;stroke-dasharray:37px,21px,36px,0" transform="matrix(.98 0 0 .96 13 17)"/><rect width="130" height="75" x="570" y="399" rx="6" style="fill:url(#pwg);stroke:#aaabbb;stroke-width:1.7px"/><g transform="matrix(.34 0 0 .34 588 422)"><rect width="273" height="88" style="fill:#f5b4e4"/><rect width="85" height="88" x="188" style="fill:#ff9689"/><g style="font-family:Arial,Helvetica,sans-serif;font-weight:700"><text x="18" dy="73" style="font-size:80px;letter-spacing:2px" transform="scale(1.1 1)">NTI</text><text x="185" dy="81" style="font-size:88px" transform="matrix(1.2 0 0 .9 -22 0)">1</text></g></g><text x="526" y="493" dx="106" dy="18" style="font-size:18px" text-anchor="middle">NTI 1</text><rect width="220" height="171" x="792" y="371" rx="16" style="fill:none;stroke:#dcdcdc;stroke-width:12px;stroke-dasharray:37px,21px,36px,0" transform="matrix(.98 0 0 .96 18 17)"/><rect width="130" height="75" x="837" y="399" rx="6" style="fill:url(#pwg);stroke:#aaabbb;stroke-width:1.7px"/><g transform="matrix(.34 0 0 .34 856 422)"><rect width="273" height="88" style="fill:#f5b4e4"/><rect width="85" height="88" x="188" style="fill:#ff9689"/><g style="font-family:Arial,Helvetica,sans-serif;font-weight:700"><text x="18" dy="73" style="font-size:80px;letter-spacing:2px" transform="scale(1.1 1)">NTI</text><text x="185" dy="81" style="font-size:102px;stroke:#000;stroke-width:2px" transform="matrix(.95 0 0 .75 26 10)">2</text></g></g><text x="792" y="493" dx="108" dy="18" style="font-size:18px" text-anchor="middle">NTI 2</text><rect width="220" height="171" x="1058" y="371" rx="16" style="fill:none;stroke:#dcdcdc;stroke-width:12px;stroke-dasharray:37px,21px,36px,0" transform="matrix(.98 0 0 .96 23 17)"/><rect width="130" height="75" x="1103" y="399" rx="6" style="fill:url(#pwg);stroke:#aaabbb;stroke-width:1.7px"/><g transform="matrix(.32 0 0 .32 1111 420)"><rect width="93" height="65" x="256" y="21" style="fill:#cb0000"/><text x="10" dx="112" dy="78" style="font-family:cursive,serif;font-size:96px;fill:#cb0000" text-anchor="middle">image</text><text x="262" dy="78" style="font-family:Arial,Helvetica,sans-serif;font-weight:700;font-size:50px;fill:#eee">4K</text></g><text x="1058" y="493" dx="108" dy="18" style="font-size:18px" text-anchor="middle">Image 4K</text><rect width="220" height="171" x="1324" y="371" rx="16" style="fill:none;stroke:#dcdcdc;stroke-width:12px;stroke-dasharray:37px,21px,36px,0" transform="matrix(.98 0 0 .96 28 17)"/><rect width="130" height="75" x="1369" y="399" rx="6" style="fill:url(#pwg);stroke:#aaabbb;stroke-width:1.7px"/><g transform="matrix(.23 0 0 .23 1401 415)"><rect width="180" height="180" x="50" y="4" style="fill:#881"/><rect width="274" height="134" x="2" y="28" style="fill:#881"/><text x="50" y="38" dx="56" dy="80" style="font-family:&quot;Times New Roman&quot;,serif;font-weight:700;font-size:122px;letter-spacing:-4px;fill:#fff;stroke:#fff;stroke-width:4px" text-anchor="middle" transform="scale(1.3 1.2)">22</text></g><text x="1324" y="493" dx="109" dy="18" style="font-size:18px" text-anchor="middle">VIDEO 22</text><rect width="223" height="173.5" x="525" y="578" rx="20" style="fill:#0044e2"/><rect width="220" height="171" x="526" y="580" rx="16" style="fill:none;stroke:#dcdcdc;stroke-width:12px;stroke-dasharray:37px,21px,36px,0" transform="matrix(.98 0 0 .96 13 26)"/><use href="#pvn" transform="matrix(.9 0 0 .9 566.5 608)"/><text x="526" y="701" dx="106" dy="18" style="font-size:18px;fill:#fff" text-anchor="middle">7 Channel</text><rect width="220" height="171" x="792" y="580" rx="16" style="fill:none;stroke:#dcdcdc;stroke-width:11px;stroke-dasharray:37px,21px,36px,0" transform="matrix(.98 0 0 .96 18 26)"/><rect width="130" height="75" x="837" y="609" rx="6" style="fill:url(#pwg);stroke:#aaabbb;stroke-width:1.7px"/><g transform="matrix(.13 0 0 .13 849 631)"><ellipse cx="186" cy="116" rx="178" ry="118" style="fill:#64d8b1"/><g style="font-family:Arial,Helvetica,sans-serif"><text x="42" dy="140" style="font-weight:700;font-size:102px;letter-spacing:-1px;stroke:#000;stroke-width:4px;font-style:italic" transform="scale(1 1.2)">RIBA</text><text x="389" dy="142" style="font-size:100px;stroke:#000;stroke-width:5px" transform="scale(1 1.2)">SPORTS</text></g></g><text x="792" y="701" dx="110" dy="18" style="font-size:18px;fill:#000" text-anchor="middle">RIBA Sports</text><rect width="220" height="171" x="1058" y="580" rx="16" style="fill:none;stroke:#dcdcdc;stroke-width:11px;stroke-dasharray:37px,21px,36px,0" transform="matrix(.98 0 0 .96 23 26)"/><rect width="130" height="75" x="1103" y="609" rx="6" style="fill:url(#pwg);stroke:#aaabbb;stroke-width:1.7px"/><g transform="matrix(.13 0 0 .13 1109 631)"><ellipse cx="186" cy="116" rx="178" ry="118" style="fill:#64d8b1"/><g style="font-family:Arial,Helvetica,sans-serif"><text x="42" dy="140" style="font-weight:700;font-size:102px;letter-spacing:-1px;stroke:#000;stroke-width:4px;font-style:italic" transform="scale(1 1.2)">RIBA</text><text x="389" dy="142" style="font-size:100px;stroke:#000;stroke-width:5px" transform="scale(1 1.2)">PREMIERE</text></g></g><text x="1058" y="701" dx="107" dy="18" style="font-size:18px" text-anchor="middle">RIBA Premiere</text><rect width="220" height="171" x="1324" y="580" rx="16" style="fill:none;stroke:#dcdcdc;stroke-width:11px;stroke-dasharray:37px,21px,36px,0" transform="matrix(.98 0 0 .96 28 26)"/><rect width="130" height="75" x="1369" y="609" rx="6" style="fill:url(#pwg);stroke:#aaabbb;stroke-width:1.7px"/><g transform="matrix(.21 0 0 .21 1385 634)"><rect width="462" height="120" rx="48" style="fill:#771"/><g style="font-family:Arial,Helvetica,sans-serif;font-size:96px" text-anchor="middle"><text x="32" dx="171" dy="96" style="fill:#fff;stroke:#fff;stroke-width:6px" transform="scale(.9 1)">SERIAL</text><text x="412" dx="71" dy="96" style="letter-spacing:8px;fill:#fff;stroke:#fff;stroke-width:6px" transform="matrix(.8 0 0 1 0 -.9)">TV</text></g></g><text x="1324" y="701" dx="106" dy="18" style="font-size:18px" text-anchor="middle">Serial TV</text><rect width="220" height="171" x="526" y="788" rx="16" style="fill:none;stroke:#dcdcdc;stroke-width:11px;stroke-dasharray:37px,21px,36px,0" transform="matrix(.98 0 0 .96 13 35)"/><rect width="130" height="75" x="570" y="818" rx="6" style="fill:url(#pwg);stroke:#aaabbb;stroke-width:1.7px"/><g transform="matrix(.31 0 0 .31 592 837)"><rect width="275" height="102" rx="24" style="fill:#fff"/><rect width="106" height="102" rx="24" style="fill:#7ec6d6"/><text x="16" dy="102" style="font-family:&quot;Times New Roman&quot;,serif;font-weight:700;font-size:150px;fill:#333">Q</text><text x="224" dy="84" style="font-family:Arial,Helvetica,sans-serif;font-weight:700;font-size:72px;letter-spacing:1px;fill:#4f4f4f" transform="scale(.6 1)">NEWS</text></g><text x="526" y="911" dx="106" dy="18" style="font-size:18px" text-anchor="middle">Q NEWS</text><rect width="220" height="171" x="792" y="788" rx="16" style="fill:none;stroke:#dcdcdc;stroke-width:11px;stroke-dasharray:37px,21px,36px,0" transform="matrix(.98 0 0 .96 18 35)"/><rect width="130" height="75" x="837" y="818" rx="6" style="fill:url(#pwg);stroke:#aaabbb;stroke-width:1.7px"/><g transform="matrix(.21 0 0 .21 846 846)"><rect width="96" height="96" x="433" style="fill:#099"/><text dx="208" dy="80" style="font-family:Arial,Helvetica,sans-serif;font-weight:700;font-size:96px;letter-spacing:-3px;fill:#333" text-anchor="middle">Shopping</text><text x="433" dx="8" dy="80" style="font-family:&quot;Times New Roman&quot;,serif;font-weight:700;font-size:99px;fill:#fff;stroke:#fff;stroke-width:5px">G</text></g><text x="792" y="911" dx="107" dy="18" style="font-size:18px" text-anchor="middle">Shopping G</text><rect width="220" height="171" x="1058" y="788" rx="16" style="fill:none;stroke:#dcdcdc;stroke-width:11px;stroke-dasharray:37px,21px,36px,0" transform="matrix(.98 0 0 .96 23 35)"/><use href="#pvn" transform="matrix(.9 0 0 .9 1099.5 816)"/><text x="1058" y="911" dx="107" dy="18" style="font-size:18px" text-anchor="middle">Service 1120</text><rect width="220" height="171" x="1324" y="788" rx="16" style="fill:none;stroke:#dcdcdc;stroke-width:11px;stroke-dasharray:37px,21px,36px,0" transform="matrix(.98 0 0 .96 28 35)"/><rect width="130" height="75" x="1369" y="818" rx="6" style="fill:url(#pwg);stroke:#aaabbb;stroke-width:1.7px"/><text dx="368" dy="96" style="font-family:Arial,Helvetica,sans-serif;font-weight:700;font-size:97px;fill:#600900;stroke:#600900;stroke-width:3.5px" text-anchor="middle" transform="matrix(.15 0 0 .2 1377 844)">GLOBALFLARE</text><text x="1324" y="911" dx="109" dy="18" style="font-size:18px" text-anchor="middle">Globalflare HD</text><rect width="12" height="44" x="1782" y="349" rx="7" style="fill:#7f7f7f"/><rect width="1296" height="61" x="502" y="964" style="fill:#fafafa"/><rect width="136" height="32" x="513" y="976" rx="8" style="fill:#fff;stroke:url(#brm);stroke-width:.4px;filter:url(#btm)"/><text x="513" y="977" dx="12" dy="22" style="font-size:20px;fill:#000">Name</text><rect width="26" height="26" x="619.6" y="979" rx="8" style="fill:url(#bsm);stroke:url(#brm);stroke-opacity:.06;stroke-width:2px"/><use href="#anm" style="fill:#fff" transform="matrix(.19 0 0 .19 626.4 981.2)"/><use href="#anm" style="fill:#fff" transform="matrix(.19 0 0 -.19 626.4 1003.8)"/><rect width="208" height="33" x="656" y="975" rx="0" style="fill:#fff;stroke:#d1d2d2;stroke-width:2.4px;clip-path:inset(1.8px 1.8px .4px)"/><text x="656" y="975" dx="4" dy="23" style="font-size:19px;fill:#000">riba</text><rect width="82" height="33" x="874" y="975" rx="4" style="fill:#ececec"/><text x="874" y="975" dx="40" dy="23" style="font-size:19px;fill:#000;fill-opacity:.89" text-anchor="middle">Find</text><rect width="166" height="33" x="965" y="975" rx="4" style="fill:#ececec"/><text x="965" y="975" dx="83" dy="23" style="font-size:19px;fill:#000;fill-opacity:.89" text-anchor="middle">Find Previous</text><rect width="110" height="33" x="1140" y="975" rx="4" style="fill:#ececec"/><text x="1140" y="975" dx="55" dy="23" style="font-size:19px;fill:#000;fill-opacity:.89" text-anchor="middle">Find All</text><rect width="126" height="31" x="1283" y="976" rx="4" style="fill:#b1d7ff;stroke:#d1d2d2;stroke-width:1px"/><text x="1283" y="976" dx="62" dy="22" style="font-size:18px;fill:#fff;fill-opacity:.9" text-anchor="middle">Highlight</text><use href="#cce" style="fill:#666" transform="matrix(.23 0 0 .23 1764 985)"/><rect width="1296" height="73" x="502" y="1026" style="fill:#f7f8f8"/><rect width="1300" height="73" x="500" y="1025" style="fill:none;stroke:#e9eaea;stroke-width:2.4px;clip-path:inset(0 2px 2px)"/><text x="509" y="1044" dx="4" dy="23" style="font-size:19px;fill:#000">Folder</text><rect width="208" height="33" x="580" y="1044" rx="0" style="fill:#fff;stroke:#d1d2d2;stroke-width:2.8px;clip-path:inset(2px 2px .8px)"/><rect width="126" height="32" x="800" y="1044" rx="8" style="fill:#fff;stroke:url(#brm);stroke-width:.4px;filter:url(#btm)"/><text x="800" y="1044" dx="24" dy="22" style="font-size:20px;fill:#000">Browse<tspan style="font-size:15px">…</tspan></text><rect width="128" height="32" x="1652" y="1044" rx="8" style="fill:#fff;stroke:url(#brm);stroke-width:.4px;filter:url(#btm)"/><use href="#skh" style="fill:#545454" transform="matrix(.38 0 0 .38 1664 1047)"/><text x="1652" y="1044" dx="46" dy="22" style="font-size:20px;fill:#000">Find<tspan style="font-size:15px">…</tspan></text><rect width="1300" height="807" x="500" y="291" style="fill:none;stroke:#d5d6d6;stroke-width:2.4px;clip-path:inset(0 2px)"/><text x="518" y="1115.5" dx="29" dy="33" style="font-weight:700;font-size:24px;fill:#000">Tools</text><rect width="1" height="38" x="631" y="1120" style="fill:none;stroke:#000;stroke-opacity:.3;stroke-dasharray:1.4px,2.68px"/><text x="627" y="1115.5" dx="29" dy="33" style="font-weight:700;font-size:24px;fill:#000">Inspect</text><text x="1660" y="1115.5" dx="11" dy="33" style="font-weight:700;font-size:24px;fill:#000">autofix</text><rect width="1296" height="56" x="502" y="1164" rx="15" style="fill:#f3f4f4;clip-path:inset(15px 0 0)"/><rect width="1300" height="42" x="500" y="1179" style="fill:none;stroke:#d8d9d9;stroke-width:2.5px;clip-path:inset(0 2px 42px)"/><text x="502" y="1179" dx="29" dy="29" style="font-size:20px;fill:#000">Filename: ribasports.png</text><use href="#ffo" style="fill:#545454" transform="matrix(.38 0 0 .38 1741 1188)"/><rect width="1298" height="1140" x="501" y="81" rx="15" style="fill:none;stroke:#a6bbb9;stroke-width:1px"/><rect width="1294" height="1136" x="503" y="83" rx="15" style="fill:none;stroke:#fff;stroke-opacity:.09;stroke-width:1px"/></g><rect width="211" height="212" x="119.3" y="680.5" rx="10" style="fill:#101;fill-opacity:.26;stroke:#b1b2b3;stroke-width:3px"/><g style="clip-path:polygon(-4% -56%,104% 30%,104% 104%,-4% 104%)"><g style="filter:url(#ixm)"><rect width="132" height="171" x="159" y="701" rx="7" style="fill:#f4f3f1"/></g></g><g style="clip-path:polygon(-13%0,108% 120%,200% 200%,-200% 200%)"><g style="filter:url(#iym)"><rect width="51" height="55" x="246" y="693" rx="8" style="fill:#f4f3f1;clip-path:polygon(0 13%,90% 100%,0 100%,0 0)"/></g></g><text x="159" y="837" dx="67" dy="20" style="font-family:&quot;Helvetica Neue&quot;,sans-serif-thin,Helvetica,sans-serif;font-weight:300;font-size:26px;letter-spacing:2px;fill:#707080;stroke:#707080;stroke-width:1.5px" text-anchor="middle">PNG</text><g transform="matrix(.95 0 0 .95 170.6 762)"><rect width="114" height="39" style="fill:#fff"/><g transform="matrix(.22 0 0 .22 5 5)"><rect width="483" height="141" x="-4" y="-4" style="fill:#0be"/><circle cx="67" cy="67" r="67" style="fill:#fff"/><text x="18" dy="107" style="font-family:Arial,Helvetica,sans-serif;font-size:122px;fill:#00afef;stroke:#00afef;stroke-width:10px" transform="matrix(1.3 0 0 1.2 1 0)">7</text><text x="315" dy="121" style="font-family:&quot;Times New Roman&quot;,serif;font-weight:700;font-size:144px;letter-spacing:-2px;fill:#fff" transform="scale(.45 1)">CHANNEL</text></g></g><rect width="116" height="32" x="166" y="899" rx="5" style="fill:#0044e2"/><text x="108" y="903" dx="116" dy="19" style="font-family:&quot;Helvetica Neue&quot;,Helvetica,sans-serif;font-weight:700;font-size:23px;letter-spacing:-.5px;fill:#f5f6f7;text-shadow:none" text-anchor="middle">picon.png</text><g style="fill:none;stroke:#0bbbcc;stroke-width:22px"><path d="M290.5 341.3q144-282 219 219" style="marker-end:url(#aud)" transform="matrix(.8 -.8 .5 .6 -192 686)"/></g></svg>