<svg xmlns="http://www.w3.org/2000/svg" style="pointer-events:none;user-select:none;text-rendering:geometricprecision" viewBox="0 0 1880 1300"><defs><symbol id="aad"><path d="M37.8 37.8h18V26.3h-18V8H26.3v18.1H8v11.6h18.1v18h11.6v-18z"/></symbol><symbol id="cbw"><path d="m60 15-3-.5v35.7a150.1 150.1 0 0 0-14.3-.6l-3 .2-6.7.6v-36S39.6 13 43 13c4 0 14 1.5 14 1.5l3 .5a5 5 0 0 1 3 4.7v32.6c0 2.9-2.3 5.2-5.2 5.2H6.2A5.2 5.2 0 0 1 1 52.3V19.7A5 5 0 0 1 4 15l3-.5S17 13 21 13c3.4 0 10 1.5 10 1.5v35.9a286 286 0 0 0-13-.9c-3 0-7.9.4-11 .7V14.5L4 15v38.7h56V15zM28.5 42.5a2 2 0 0 0-2-2h-14a2 2 0 0 0 0 4h14a2 2 0 0 0 2-2zm25 0a2 2 0 0 0-2-2h-14a2 2 0 0 0 0 4h14a2 2 0 0 0 2-2zm-25-7a2 2 0 0 0-2-2h-14a2 2 0 0 0 0 4h14a2 2 0 0 0 2-2zm25 0a2 2 0 0 0-2-2h-14a2 2 0 0 0 0 4h14a2 2 0 0 0 2-2zm-25-7a2 2 0 0 0-2-2h-14a2 2 0 0 0 0 4h14a2 2 0 0 0 2-2zm25 0a2 2 0 0 0-2-2h-14a2 2 0 0 0 0 4h14a2 2 0 0 0 2-2zm-25-7a2 2 0 0 0-2-2h-14a2 2 0 0 0 0 4h14a2 2 0 0 0 2-2zm25 0a2 2 0 0 0-2-2h-14a2 2 0 0 0 0 4h14a2 2 0 0 0 2-2z"/></symbol><symbol id="cce"><path d="m62.3 7.3-5.6-5.6L32 26.4 7.3 1.7 1.7 7.3 26.4 32 1.7 56.7l5.6 5.6L32 37.6l24.7 24.7 5.6-5.6L37.6 32 62.3 7.3z"/></symbol><symbol id="fdt"><path d="M56.3 31H13.8A13 13 0 0 0 1 44v61.3c0 7 5.7 12.8 12.8 12.8h54.5c7 0 12.8-5.8 12.8-12.8v-51c-16.6 14-16.6 30.2-17 36.9a6.8 6.8 0 0 1-11.7 4.4C38 81 36.3 52.4 56.3 31.1zm1 59.7c-14.6-14.7-13-46 15.2-64.3L62.2 14l42.8 1-7.3 41.4-11.8-14C57.8 59.3 57.8 82 57.3 90.6z"/></symbol><symbol id="fet"><path d="M87.8 55.7h8.5c5.9 0 10.7 4.8 10.7 10.6v45c0 6-4.8 10.7-10.7 10.7H11.7C5.8 122 1 117.2 1 111.4v-45c0-6 4.8-10.7 10.7-10.7h19.8L54 77.5a10 10 0 0 0 6.3 2.1c2 0 4.8-.8 6.2-2.2l21.3-21.7zM94 6.4C76 3.3 44.4 18.9 49 45.9H33.6l27.2 26.4 25.8-26.4H72.1C67.3 21.7 88 10.8 94 6.4z"/></symbol><symbol id="ffo"><path d="M32 62.5a30.5 30.5 0 0 1 0-61v9.6l-1-.1a5.4 5.4 0 1 0 1 10.7v5.1l-7.4.2 2.8 1.2V51l-2.8 2H32v9.5zm0-51.4V1.5a30.5 30.5 0 0 1 0 61V53h9.5l-5.8-2V26.6l-3.7.1v-5A5.4 5.4 0 0 0 32 11z"/></symbol><symbol id="fgn"><path d="M21 43h89c2.9 0 4.7 2.2 4.2 5l-9.3 53c-.5 2.7-3.2 5-6 5H8a3.8 3.8 0 0 1-3.9-3.8V22h67.2L88 36H16v32h5V43z"/></symbol><symbol id="fhe"><path d="M114 22v86.2c0 2-1.7 3.8-3.8 3.8H17.8a3.8 3.8 0 0 1-3.8-3.8V19.8c0-2 1.7-3.8 3.8-3.8H109l5 6zM94 59V19H38v40h56zm-9.5-33v30h-15V26h15z"/></symbol><symbol id="liu"><path d="M56.3 57.4c0-2.4-2-4.3-4.4-4.3H12.1a4.3 4.3 0 0 0 0 8.6h39.8c2.4 0 4.4-1.9 4.4-4.3zm0-12.5c0-2.4-2-4.3-4.4-4.3H12.1a4.3 4.3 0 0 0 0 8.6h39.8c2.4 0 4.4-2 4.4-4.3zm0-12.5c0-2.4-2-4.3-4.4-4.3H12.1a4.3 4.3 0 0 0 0 8.6h39.8c2.4 0 4.4-2 4.4-4.3zm-42.5-13V23h10.6v-5.8l2.3-1.4c2.3-1.8 3.4-4.1 3.4-6.4s-1-4.7-3.2-6.5c-1-.7-2-1.3-3-1.7l-1.4 1-.1 6c0 .4-.2.6-.4.7-.4.3-.9.4-1.5.4h-2.8c-.6 0-1.1-.1-1.5-.4-.2-.2-.4-.4-.4-.7V1.9l-1.3-1c-1 .5-2.1 1-3 1.7A8.2 8.2 0 0 0 8 9c0 2.3 1 4.7 3.2 6.5.8.6 1.6 1 2.5 1.4v2.6z"/></symbol><symbol id="pjw"><path d="M14.8 29.2h34.5s13.9 14.5 11.4 15.6c-1 .5-6.1-1-11.5-3V62H14.8V41.7c-5.4 2-10.4 3.6-11.5 3.1-2.5-1 11.5-15.6 11.5-15.6zm22-17.8H16.3v13.1h6.4V14h14v-2.6zm1.7 5.2h-14v8h14v-8zm6.8-6.2v14.1H41v-9.2h-2.5v-4.9h6.8zm-8.7-7H18.5v5.4h18.1V3.5z"/></symbol><symbol id="skh"><path d="M40 45.2a20.9 20.9 0 0 1-12.4 4.2A22.6 22.6 0 0 1 5.8 30.7 22.5 22.5 0 0 1 27.6 5.6c10 0 19.4 7.7 21.4 17.6A22 22 0 0 1 45 40l14 13.8-5.1 5.1L40 45.2zM27.4 14.6c-6.2.1-12 5.2-12.7 11.5-.6 5.4 2.7 11 7.8 13.2A13.3 13.3 0 0 0 39.8 31a13.2 13.2 0 0 0-12.4-16.3z"/></symbol><symbol id="sls"><path d="M74 15.4a50 50 0 0 0-19.7 0c.8 4 1.4 8.2 1.8 12.4-4.3 1-8.5 2.7-12.2 5.1-2.7-3.2-5.2-6.6-7.5-10.1a50 50 0 0 0-14 13.9c3.6 2.3 7 4.8 10.2 7.5a37.4 37.4 0 0 0-5 12.2c-4.2-.4-8.4-1-12.5-1.9a50 50 0 0 0 0 19.7 171 171 0 0 1 12.5-1.9c.9 4.4 2.6 8.5 5 12.3-3.2 2.7-6.6 5.2-10.1 7.5A50 50 0 0 0 36.4 106c2.3-3.5 4.8-6.9 7.5-10.1 3.7 2.4 7.9 4 12.2 5-.4 4.2-1 8.4-1.8 12.5a50 50 0 0 0 19.6 0c-.8-4.1-1.4-8.3-1.8-12.5 4.3-1 8.5-2.6 12.2-5 2.7 3.2 5.2 6.6 7.5 10.1a50 50 0 0 0 14-14c-3.6-2.2-7-4.7-10.2-7.4 2.4-3.8 4.1-7.9 5-12.3 4.2.5 8.4 1 12.5 2a50 50 0 0 0 0-19.8c-4.1.9-8.3 1.5-12.5 2-.9-4.4-2.6-8.6-5-12.3 3.2-2.7 6.6-5.2 10.1-7.5a50 50 0 0 0-13.9-14c-2.3 3.6-4.8 7-7.5 10.2a37.4 37.4 0 0 0-12.2-5c.4-4.3 1-8.4 1.8-12.5zM64 50.9a13.5 13.5 0 1 1 0 27 13.5 13.5 0 0 1 0-27z"/></symbol><symbol id="tmw"><path d="M64 64V45H0v19h64zm-25-5.7V60a2 2 0 1 1-4 0v-6.4l-1.9 1.8c-.4.3-1 .5-1.5.5s-1-.2-1.5-.5l-2-1.8V60a2 2 0 0 1-3.8 0v-5.3h-6.7l4.1 4c.8.7.8 1.8 0 2.5a2 2 0 0 1-2.7 0l-4.1-3.9-4.1 4a2 2 0 0 1-2.7 0c-.8-.8-.8-2 0-2.7l4-3.9-4-3.9c-.8-.7-.8-1.8 0-2.5s2-.7 2.7 0l4 3.9 4.2-4a2 2 0 0 1 2.7 0c.8.8.8 2 0 2.6l-4 4h6.6v-5.3c0-.6.1-1 .6-1.4a2 2 0 0 1 1.3-.6h.2c.5 0 .9.3 1.3.6l4 3.6 3.9-3.6a2 2 0 0 1 1.8-.5c.4 0 .7.2 1 .5.4.3.6.8.6 1.3v8.7h2.9v-8.8a2 2 0 0 1 3.9 0v8.9h6.4a1.8 1.8 0 0 1 0 3.6h-8.5c-1 0-1.8-.9-1.8-1.9v-1.7h-3zM25.3 39.5H25c-10 0-18.3-8.4-18.3-18.8S15 2 25 2s18.3 8.4 18.3 18.8a19 19 0 0 1-2.4 9l11.1-4v-3c0-.9.7-1.5 1.5-1.5h3c.8 0 1.5.6 1.5 1.5v11c0 .8-.7 1.5-1.5 1.5h-3c-.8 0-1.5-.7-1.5-1.5v-1.6l-26 9.5-.7-2.2z"/></symbol><symbol id="anw"><path d="m32 30.1 27.5 29.3V34.7L32 5.5 4.5 34.7v24.7L32 30z"/></symbol><symbol id="aow"><path d="M32 36.2 11.8 16.6a3.3 3.3 0 0 0-4.6 0l-1.9 1.8a3.1 3.1 0 0 0 0 4.5L32 48.7l.1-.1.1.1L58.7 23a3.1 3.1 0 0 0 0-4.5l-2.4-2.3c-1-1-2.6-1-3.6 0L32 36.2z"/></symbol><symbol id="apl"><path d="m32 45.4 26.7-26.8H5.3L32 45.4z"/></symbol><symbol id="pvn"><g transform="matrix(.75 0 0 .75 20.3 11.9)"><rect width="50" height="32" x="48.3" y="24.2" style="fill:none;stroke:silver;stroke-opacity:.96;stroke-width:2.5px"/><rect width="2.5" height="56" style="fill:silver;fill-opacity:.96" transform="rotate(-58 48.9 -30.7)"/><rect width="2.5" height="56" x="23" y="-42" style="fill:silver;fill-opacity:.96" transform="rotate(58 .1 57.7)"/></g><rect width="148" height="78" x="2" y="2" style="fill:none;stroke:#c4c4c4;stroke-opacity:.9;stroke-width:3.3px"/></symbol><linearGradient id="bqf" x1="0" x2="0" y1="0" y2="1"><stop offset="0" style="stop-color:#3d3c3b"/><stop offset="1" style="stop-color:#333332"/></linearGradient><linearGradient id="brf" x1="0" x2="1" y1="0" y2="0"><stop offset="0" style="stop-color:#3d3c3b"/><stop offset="1" style="stop-color:#333332"/></linearGradient><linearGradient id="bsf" x1="0" x2="0" y1="0" y2="1"><stop offset="0" style="stop-color:#545452"/><stop offset="1" style="stop-color:#4b4b4a"/></linearGradient><linearGradient id="pwg" x1="0" x2="0" y1="0" y2="1"><stop offset=".5" style="stop-color:#f4f4f4"/><stop offset="1" style="stop-color:#e2e2e2"/></linearGradient><filter id="btf" color-interpolation-filters="sRGB"><feDropShadow dx="0" dy="0" stdDeviation=".8"/><feDropShadow dx="0" dy="0" stdDeviation=".5"/><feDropShadow dx="0" dy="0" stdDeviation="1"/></filter><filter id="ixf" color-interpolation-filters="sRGB"><feDropShadow dx="0" dy="1" flood-opacity=".3" stdDeviation="2.5"/></filter><marker id="aud" markerHeight="3" markerWidth="3" orient="auto" refX="1.8" refY="1.8" viewBox="0 0 3.5 3.5"><polygon points="0.7,3.5 0,1.75 0.7,0 3.5,1.75" style="fill:#0bbbcc"/></marker></defs><rect width="1880" height="1300" style="fill:#b4d0cd"/><g style="font-family:&quot;Sans-Serif&quot;,system-ui,sans-serif"><rect width="1298" height="1140" x="501" y="81" rx="0" style="fill:#171717;stroke:#acc6c3;stroke-width:1px"/><rect width="1298" height="48" x="501" y="81" rx="0" style="fill:#3a3a3a;stroke:#131312;stroke-width:2px;clip-path:inset(1px 1.5px 0)"/><rect width="1298" height="1" x="501" y="130.5" style="fill:none;stroke:#222020;stroke-width:2px;clip-path:inset(0 1px)"/><text x="499" y="83.5" dx="649" dy="28" style="font-family:&quot;Sans-Serif&quot;,system-ui,sans-serif;font-weight:700;font-size:19px;fill:#aaa" text-anchor="middle">e2 SAT Editor</text><rect width="10.5" height=".8" x="1670" y="107" style="fill:none;stroke:#fdfdfd;stroke-width:1px"/><g transform="matrix(.9 0 0 .9 1715 100)"><rect width="15" height="13" style="fill:none;stroke:#fdfdfd;stroke-width:3px;clip-path:inset(.8px 1.4px 2.6px)"/><rect width="13" height="7" x="1" y="4" style="fill:none;stroke:#fdfdfd;stroke-width:1.7px"/></g><g transform="rotate(45 773.5 2187.2)"><rect width="15" height="1" y="7" style="fill:none;stroke:#fdfdfd;stroke-width:1.3px"/><rect width="1" height="15" x="7" style="fill:none;stroke:#fdfdfd;stroke-width:1.3px"/></g><rect width="1296" height="36" x="502" y="129" style="fill:#222020"/><text x="505.5" y="130.5" dx="12" dy="24" style="font-size:20px;word-spacing:16px;fill:#fff;fill-opacity:.9">File Edit Find Tools Editor Window Help</text><rect width="1297" height="1" x="501" y="165.5" style="fill:#e2e2e2;stroke:#1d1c1c"/><rect width="1296" height="67" x="502" y="167" style="fill:#222020"/><rect width="128" height="67" x="502" y="167" style="fill:#222020"/><rect width="112" height="53" x="510" y="173" rx="3" style="fill:url(#bqf);stroke:url(#bsf);stroke-width:1px;filter:url(#btf)"/><use href="#aad" style="fill:#c3c3c3" transform="matrix(.26 0 0 .26 516 191)"/><text x="510" y="173" dx="27" dy="33" style="font-weight:700;font-size:18px;fill:#fff">New Tab</text><rect width="1" height="67" x="630" y="167" style="fill:#333"/><rect width="157" height="69" x="631" y="166" style="fill:#2a2a29;stroke:#363636;stroke-width:2px;clip-path:inset(1px 0)"/><text x="631" y="165.5" dx="15" dy="41" style="font-size:19px;fill:#fff">enigma_db</text><g transform="matrix(.9 0 0 .9 761 195.5)"><rect width="22" height="22" x="-4.5" y="-4.5" rx="11" style="fill:#aaa;fill-opacity:.44"/><use href="#cce" style="fill:#fff" transform="matrix(.17 0 0 .17 1.2 1.2)"/></g><rect width="292" height="69" x="788" y="166" style="fill:#12608a;stroke:#12608a;stroke-width:2px;clip-path:inset(1px 0)"/><use href="#pjw" style="fill:#fff" transform="matrix(.38 0 0 .38 800 186)"/><text x="788" y="165.5" dx="46" dy="41" style="font-size:19px;fill:#fff">enigma_db - Picons <tspan style="font-size:15px">…</tspan></text><g transform="matrix(.9 0 0 .9 1054 195.5)"><rect width="22" height="22" x="-4.5" y="-4.5" rx="11" style="fill:#aaa;fill-opacity:.44"/><use href="#cce" style="fill:#fff" transform="matrix(.17 0 0 .17 1.2 1.2)"/></g><rect width="154" height="69" x="1080" y="166" style="fill:#2a2a29;stroke:#363636;stroke-width:2px;clip-path:inset(1px 0)"/><text x="1080" y="165.5" dx="15" dy="41" style="font-size:19px;fill:#fff">neutrino</text><g transform="matrix(.9 0 0 .9 1208 195.5)"><rect width="22" height="22" x="-4.5" y="-4.5" rx="11" style="fill:#aaa;fill-opacity:.44"/><use href="#cce" style="fill:#fff" transform="matrix(.17 0 0 .17 1.2 1.2)"/></g><rect width="292" height="69" x="1234" y="166" style="fill:#2a2a29;stroke:#363636;stroke-width:2px;clip-path:inset(1px 0)"/><use href="#tmw" style="fill:#fff" transform="matrix(.38 0 0 .38 1246 186)"/><text x="1234" y="165.5" dx="46" dy="41" style="font-size:19px;fill:#fff">enigma_db - Edit Set<tspan style="font-size:15px">…</tspan></text><g transform="matrix(.9 0 0 .9 1501 195.5)"><rect width="22" height="22" x="-4.5" y="-4.5" rx="11" style="fill:#aaa;fill-opacity:.44"/><use href="#cce" style="fill:#fff" transform="matrix(.17 0 0 .17 1.2 1.2)"/></g><rect width="256" height="69" x="1526" y="166" style="fill:#2a2a29;stroke:#363636;stroke-width:2px;clip-path:inset(1px 0)"/><use href="#cbw" style="fill:#fff" transform="matrix(.38 0 0 .38 1539 186)"/><text x="1526" y="165.5" dx="46" dy="41" style="font-size:19px;fill:#fff">enigma_db - Cha<tspan style="font-size:15px">…</tspan></text><rect width="2" height="67" x="1781" y="167" style="fill:#333"/><rect width="23" height="66" x="1748" y="166.7" style="fill:#2a2a29;stroke:#363636;stroke-width:1.5px"/><g style="opacity:.25"><use href="#aow" style="fill:#fff;stroke:#fff;stroke-width:2.7px" transform="rotate(90 790 981.2) scale(.3)"/></g><rect width="23" height="66" x="1772" y="166.7" style="fill:#2a2a29;stroke:#363636;stroke-width:1.5px"/><use href="#aow" style="fill:#fff;stroke:#fff;stroke-width:2.7px" transform="matrix(0 -.3 .3 0 1774.1 210.3)"/><rect width="1296" height="95" x="502" y="234" style="fill:#222020"/><use href="#fgn" style="fill:#c4c4c4" transform="matrix(.38 0 0 .38 526 257)"/><text x="508.5" y="232" dx="69" dy="59" style="font-size:25.5px;fill:#fff">Open</text><use href="#fhe" style="fill:#c4c4c4" transform="matrix(.38 0 0 .38 671 257)"/><text x="654.5" y="232" dx="69" dy="59" style="font-size:25.5px;fill:#fff">Save</text><rect width="4" height="42" x="808" y="260" style="fill:#252323;stroke:#090909;stroke-width:2px;clip-path:inset(2px 2px 2px .5px)"/><use href="#fet" style="fill:#c4c4c4" transform="matrix(.38 0 0 .38 820 257)"/><text x="802.5" y="232" dx="69" dy="59" style="font-size:25.5px;fill:#fff">Import</text><use href="#fdt" style="fill:#c4c4c4" transform="matrix(.38 0 0 .38 977 257)"/><text x="957.5" y="232" dx="69" dy="59" style="font-size:25.5px;fill:#fff">Export</text><rect width="4" height="42" x="1128" y="260" style="fill:#252323;stroke:#090909;stroke-width:2px;clip-path:inset(2px 2px 2px .5px)"/><use href="#sls" style="fill:#c4c4c4" transform="matrix(.38 0 0 .38 1139 257)"/><text x="1122.5" y="232" dx="69" dy="59" style="font-size:25.5px;fill:#fff">Settings</text><rect width="100" height="34" x="1520" y="265" rx="3" style="fill:url(#bqf);stroke:url(#bsf);stroke-width:1.2px;filter:url(#btf)"/><rect width="24" height="24" x="1612.5" y="270" rx="8" style="fill:none;stroke:none;stroke-opacity:.06;stroke-width:2px"/><use href="#apl" style="fill:#b5b5b4" transform="matrix(.23 0 0 .23 1600 274)"/><text x="1515" y="267" dx="12" dy="22" style="font-size:20px;fill:#fff">Profile 1</text><text x="1625.5" y="232" dx="15" dy="59" style="font-size:25.5px;fill:#fff">Connect</text><g transform="matrix(.9 0 0 .95 1770 276)"><use href="#anw" style="fill:#646464" transform="rotate(90) scale(.23)"/><use href="#anw" style="fill:#646464" transform="matrix(0 .23 -.23 0 9.4 0)"/></g><rect width="1300" height="95" x="500" y="234" style="fill:none;stroke:#fff;stroke-opacity:.09;stroke-width:2px;clip-path:inset(0 2px)"/><rect width="1296" height="779" x="502" y="328" style="fill:#222020"/><text x="502" y="327" dx="10" dy="32" style="font-weight:700;font-size:19px;fill:#fff">Picons</text><rect width="38" height="32" x="1755" y="333" rx="3" style="fill:url(#bqf);stroke:url(#bsf);stroke-width:1.2px;filter:url(#btf)"/><use href="#liu" style="fill:#c4c4c4" transform="matrix(.38 0 0 .38 1762 336)"/><rect width="1296" height="687" x="502" y="380" style="fill:#131312"/><rect width="220" height="171" x="526" y="371" rx="16" style="fill:none;stroke:#323232;stroke-width:12px;stroke-dasharray:37px,21px,36px,0" transform="matrix(.98 0 0 .96 13 51)"/><rect width="130" height="75" x="570" y="433" rx="6" style="fill:url(#pwg);stroke:#aaabbb;stroke-width:1.7px"/><g style="text-rendering:auto" transform="matrix(.34 0 0 .34 588 456)"><rect width="273" height="88" style="fill:#f5b4e4"/><rect width="85" height="88" x="188" style="fill:#ff9689"/><g style="font-family:Arial,Helvetica,sans-serif;font-weight:700"><text x="18" dy="73" style="font-size:80px;letter-spacing:2px" transform="scale(1.1 1)">NTI</text><text x="185" dy="81" style="font-size:88px" transform="matrix(1.2 0 0 .9 -22 0)">1</text></g></g><text x="526" y="527" dx="106" dy="18" style="font-size:18px;fill:#fff" text-anchor="middle">NTI 1</text><rect width="220" height="171" x="792" y="371" rx="16" style="fill:none;stroke:#323232;stroke-width:12px;stroke-dasharray:37px,21px,36px,0" transform="matrix(.98 0 0 .96 18 51)"/><rect width="130" height="75" x="837" y="433" rx="6" style="fill:url(#pwg);stroke:#aaabbb;stroke-width:1.7px"/><g style="text-rendering:auto" transform="matrix(.34 0 0 .34 856 456)"><rect width="273" height="88" style="fill:#f5b4e4"/><rect width="85" height="88" x="188" style="fill:#ff9689"/><g style="font-family:Arial,Helvetica,sans-serif;font-weight:700"><text x="18" dy="73" style="font-size:80px;letter-spacing:2px" transform="scale(1.1 1)">NTI</text><text x="185" dy="81" style="font-size:102px;stroke:#000;stroke-width:2px" transform="matrix(.95 0 0 .75 26 10)">2</text></g></g><text x="792" y="527" dx="108" dy="18" style="font-size:18px;fill:#fff" text-anchor="middle">NTI 2</text><rect width="220" height="171" x="1058" y="371" rx="16" style="fill:none;stroke:#323232;stroke-width:12px;stroke-dasharray:37px,21px,36px,0" transform="matrix(.98 0 0 .96 23 51)"/><rect width="130" height="75" x="1103" y="433" rx="6" style="fill:url(#pwg);stroke:#aaabbb;stroke-width:1.7px"/><g style="text-rendering:auto" transform="matrix(.32 0 0 .32 1111 454)"><rect width="93" height="65" x="256" y="21" style="fill:#cb0000"/><text x="10" dx="112" dy="78" style="font-family:cursive,serif;font-size:102px;fill:#cb0000" text-anchor="middle">image</text><text x="262" dy="78" style="font-family:Arial,Helvetica,sans-serif;font-weight:700;font-size:50px;fill:#eee">4K</text></g><text x="1058" y="527" dx="108" dy="18" style="font-size:18px;fill:#fff" text-anchor="middle">Image 4K</text><rect width="220" height="171" x="1324" y="371" rx="16" style="fill:none;stroke:#323232;stroke-width:12px;stroke-dasharray:37px,21px,36px,0" transform="matrix(.98 0 0 .96 28 51)"/><rect width="130" height="75" x="1369" y="433" rx="6" style="fill:url(#pwg);stroke:#aaabbb;stroke-width:1.7px"/><g style="text-rendering:auto" transform="matrix(.23 0 0 .23 1401 449)"><rect width="180" height="180" x="50" y="4" style="fill:#881"/><rect width="274" height="134" x="2" y="28" style="fill:#881"/><text x="50" y="38" dx="56" dy="80" style="font-family:&quot;Times New Roman&quot;,serif;font-weight:700;font-size:122px;letter-spacing:-4px;fill:#fff;stroke:#fff;stroke-width:4px" text-anchor="middle" transform="scale(1.3 1.2)">22</text></g><text x="1324" y="527" dx="109" dy="18" style="font-size:18px;fill:#fff" text-anchor="middle">VIDEO 22</text><rect width="223" height="174" x="525" y="579" rx="20" style="fill:#12608a" transform="matrix(1 0 0 .996 0 35.5)"/><rect width="220" height="171" x="526" y="580" rx="16" style="fill:none;stroke:#323232;stroke-width:12px;stroke-dasharray:37px,21px,36px,0" transform="matrix(.98 0 0 .96 13 60)"/><use href="#pvn" transform="matrix(.9 0 0 .9 566.5 642)"/><text x="526" y="735" dx="106" dy="18" style="font-size:18px;fill:#fff" text-anchor="middle">7 Channel</text><rect width="220" height="171" x="792" y="580" rx="16" style="fill:none;stroke:#323232;stroke-width:11px;stroke-dasharray:37px,21px,36px,0" transform="matrix(.98 0 0 .96 18 60)"/><rect width="130" height="75" x="837" y="643" rx="6" style="fill:url(#pwg);stroke:#aaabbb;stroke-width:1.7px"/><g style="text-rendering:auto" transform="matrix(.13 0 0 .13 849 665)"><ellipse cx="186" cy="116" rx="178" ry="118" style="fill:#64d8b1"/><g style="font-family:Arial,Helvetica,sans-serif"><text x="42" dy="140" style="font-weight:700;font-size:102px;letter-spacing:-1px;stroke:#000;stroke-width:4px;font-style:italic" transform="scale(1 1.2)">RIBA</text><text x="389" dy="142" style="font-size:100px;stroke:#000;stroke-width:5px" transform="scale(1 1.2)">SPORTS</text></g></g><text x="792" y="735" dx="110" dy="18" style="font-size:18px;fill:#fff" text-anchor="middle">RIBA Sports</text><rect width="220" height="171" x="1058" y="580" rx="16" style="fill:none;stroke:#323232;stroke-width:11px;stroke-dasharray:37px,21px,36px,0" transform="matrix(.98 0 0 .96 23 60)"/><rect width="130" height="75" x="1103" y="643" rx="6" style="fill:url(#pwg);stroke:#aaabbb;stroke-width:1.7px"/><g style="text-rendering:auto" transform="matrix(.13 0 0 .13 1109 665)"><ellipse cx="186" cy="116" rx="178" ry="118" style="fill:#64d8b1"/><g style="font-family:Arial,Helvetica,sans-serif"><text x="42" dy="140" style="font-weight:700;font-size:102px;letter-spacing:-1px;stroke:#000;stroke-width:4px;font-style:italic" transform="scale(1 1.2)">RIBA</text><text x="389" dy="142" style="font-size:100px;stroke:#000;stroke-width:5px" transform="scale(1 1.2)">PREMIERE</text></g></g><text x="1058" y="735" dx="107" dy="18" style="font-size:18px;fill:#fff" text-anchor="middle">RIBA Premiere</text><rect width="220" height="171" x="1324" y="580" rx="16" style="fill:none;stroke:#323232;stroke-width:11px;stroke-dasharray:37px,21px,36px,0" transform="matrix(.98 0 0 .96 28 60)"/><rect width="130" height="75" x="1369" y="643" rx="6" style="fill:url(#pwg);stroke:#aaabbb;stroke-width:1.7px"/><g style="text-rendering:auto" transform="matrix(.21 0 0 .21 1385 668)"><rect width="462" height="120" rx="48" style="fill:#771"/><g style="font-family:Arial,Helvetica,sans-serif;font-size:96px" text-anchor="middle"><text x="32" dx="171" dy="96" style="fill:#fff;stroke:#fff;stroke-width:6px" transform="scale(.9 1)">SERIAL</text><text x="412" dx="71" dy="96" style="letter-spacing:8px;fill:#fff;stroke:#fff;stroke-width:6px" transform="matrix(.8 0 0 1 0 -.9)">TV</text></g></g><text x="1324" y="735" dx="106" dy="18" style="font-size:18px;fill:#fff" text-anchor="middle">Serial TV</text><rect width="220" height="171" x="526" y="788" rx="16" style="fill:none;stroke:#323232;stroke-width:11px;stroke-dasharray:37px,21px,36px,0" transform="matrix(.98 0 0 .96 13 69)"/><rect width="130" height="75" x="570" y="852" rx="6" style="fill:url(#pwg);stroke:#aaabbb;stroke-width:1.7px"/><g style="text-rendering:auto" transform="matrix(.31 0 0 .31 592 871)"><rect width="275" height="102" rx="24" style="fill:#fff"/><rect width="106" height="102" rx="24" style="fill:#7ec6d6"/><text x="16" dy="102" style="font-family:&quot;Times New Roman&quot;,serif;font-weight:700;font-size:150px;fill:#333">Q</text><text x="224" dy="84" style="font-family:Arial,Helvetica,sans-serif;font-weight:700;font-size:72px;letter-spacing:1px;fill:#4f4f4f" transform="scale(.6 1)">NEWS</text></g><text x="526" y="945" dx="106" dy="18" style="font-size:18px;fill:#fff" text-anchor="middle">Q NEWS</text><rect width="220" height="171" x="792" y="788" rx="16" style="fill:none;stroke:#323232;stroke-width:11px;stroke-dasharray:37px,21px,36px,0" transform="matrix(.98 0 0 .96 18 69)"/><rect width="130" height="75" x="837" y="852" rx="6" style="fill:url(#pwg);stroke:#aaabbb;stroke-width:1.7px"/><g style="text-rendering:auto" transform="matrix(.21 0 0 .21 846 880)"><rect width="96" height="96" x="433" style="fill:#099"/><text dx="208" dy="80" style="font-family:Arial,Helvetica,sans-serif;font-weight:700;font-size:96px;letter-spacing:-3px;fill:#333" text-anchor="middle">Shopping</text><text x="433" dx="8" dy="80" style="font-family:&quot;Times New Roman&quot;,serif;font-weight:700;font-size:99px;fill:#fff;stroke:#fff;stroke-width:5px">G</text></g><text x="792" y="945" dx="107" dy="18" style="font-size:18px;fill:#fff" text-anchor="middle">Shopping G</text><rect width="220" height="171" x="1058" y="788" rx="16" style="fill:none;stroke:#323232;stroke-width:11px;stroke-dasharray:37px,21px,36px,0" transform="matrix(.98 0 0 .96 23 69)"/><use href="#pvn" transform="matrix(.9 0 0 .9 1099.5 850)"/><text x="1058" y="945" dx="107" dy="18" style="font-size:18px;fill:#fff" text-anchor="middle">Service 1120</text><rect width="220" height="171" x="1324" y="788" rx="16" style="fill:none;stroke:#323232;stroke-width:11px;stroke-dasharray:37px,21px,36px,0" transform="matrix(.98 0 0 .96 28 69)"/><rect width="130" height="75" x="1369" y="852" rx="6" style="fill:url(#pwg);stroke:#aaabbb;stroke-width:1.7px"/><g style="text-rendering:auto"><text dx="368" dy="96" style="font-family:Arial,Helvetica,sans-serif;font-weight:700;font-size:97px;fill:#600900;stroke:#600900;stroke-width:3.5px" text-anchor="middle" transform="matrix(.15 0 0 .2 1377 878)">GLOBALFLARE</text></g><text x="1324" y="945" dx="109" dy="18" style="font-size:18px;fill:#fff" text-anchor="middle">Globalflare HD</text><g style="clip-path:inset(0 0 0-2px);filter:url(#btf)" transform="matrix(.997 0 0 .997 -4.5 66)"><rect width="23" height="611" x="1784" y="315" style="fill:#1d1c1c;stroke:#2e2d2c;stroke-width:2px;clip-path:inset(0 1px 0 0)"/><rect width="22" height="22" x="1784.5" y="315.5" rx="0" style="fill:url(#brf);stroke:#4f4f4e;stroke-width:1.2px;filter:url(#btf)"/><use href="#apl" style="fill:#d3d2d2" transform="matrix(.22 0 0 -.22 1788.3 333.5)"/><rect width="22" height="22" x="1784.5" y="904.5" rx="0" style="fill:url(#brf);stroke:#4f4f4e;stroke-width:1.2px;filter:url(#btf)"/><use href="#apl" style="fill:#d3d2d2" transform="matrix(.22 0 0 .22 1788.3 910.5)"/><rect width="22" height="44" x="1784.5" y="340.5" rx="0" style="fill:url(#brf);fill-opacity:.7;stroke:#4f4f4e;stroke-opacity:.8;stroke-width:1.2px"/></g><rect width="1296" height="61" x="502" y="991" style="fill:#232222"/><rect width="123" height="34" x="511" y="997" rx="3" style="fill:url(#bqf);stroke:url(#bsf);stroke-width:1.2px;filter:url(#btf)"/><text x="508" y="999" dx="12" dy="22" style="font-size:20px;fill:#fff">Name</text><rect width="24" height="24" x="621.5" y="1002" rx="8" style="fill:none;stroke:none;stroke-opacity:.06;stroke-width:2px"/><use href="#apl" style="fill:#b5b5b4" transform="matrix(.23 0 0 .23 614 1006)"/><rect width="308" height="34" x="640" y="997" rx="3" style="fill:#131312;stroke:#4e4d4d;stroke-width:1.2px;clip-path:none"/><text x="641" y="998" dx="4" dy="23" style="font-size:19px;fill:#fff">riba</text><rect width="82" height="33" x="960" y="997" rx="4" style="fill:#323235"/><text x="960" y="998" dx="40" dy="23" style="font-size:19.5px;fill:#fff;fill-opacity:.89" text-anchor="middle">Find</text><rect width="166" height="33" x="1051" y="997" rx="4" style="fill:#323235"/><text x="1051" y="998" dx="83" dy="23" style="font-size:19.5px;fill:#fff;fill-opacity:.89" text-anchor="middle">Find Previous</text><rect width="110" height="33" x="1226" y="997" rx="4" style="fill:#323235"/><text x="1226" y="998" dx="55" dy="23" style="font-size:19.5px;fill:#fff;fill-opacity:.89" text-anchor="middle">Find All</text><rect width="126" height="31" x="1366" y="998" rx="4" style="fill:#0d4867;stroke:#2a2a29;stroke-width:1px"/><text x="1366" y="999" dx="62" dy="22" style="font-size:19.5px;fill:#fff;fill-opacity:.9" text-anchor="middle">Highlight</text><use href="#cce" style="fill:#c4c4c4" transform="matrix(.23 0 0 .23 1767 1009)"/><rect width="1296" height="65" x="502" y="1043" style="fill:#222020"/><rect width="1299" height="65" x="500" y="1042" style="fill:none;stroke:#4e4d4d;stroke-width:2px;clip-path:inset(1px 2px 2px)"/><text x="511" y="1058" dx="4" dy="23" style="font-size:19px;fill:#fff">Folder</text><rect width="308" height="33" x="582" y="1058.5" rx="3" style="fill:#131312;stroke:#4e4d4d;stroke-width:1.2px;clip-path:none"/><rect width="114" height="34" x="897" y="1058" rx="3" style="fill:url(#bqf);stroke:url(#bsf);stroke-width:1.2px;filter:url(#btf)"/><text x="891" y="1060" dx="24" dy="22" style="font-size:20px;fill:#fff">Browse<tspan style="font-size:15px">…</tspan></text><rect width="100" height="34" x="1681" y="1058" rx="3" style="fill:url(#bqf);stroke:url(#bsf);stroke-width:1.2px;filter:url(#btf)"/><use x="15" href="#skh" style="fill:#c4c4c4" transform="matrix(.38 0 0 .38 1683 1062)"/><text x="1671" y="1060.5" dx="46" dy="22" style="font-size:20px;fill:#fff">Find<tspan style="font-size:15px">…</tspan></text><rect width="1300" height="781" x="500" y="328" style="fill:none;stroke:#fff;stroke-opacity:.09;stroke-width:1.8px;clip-path:inset(0 2px)"/><rect width="1296" height="73" x="502" y="1109" style="fill:#222020;stroke:#4e4d4d;clip-path:inset(.5px 1px 0)"/><text x="515" y="1120" dx="29" dy="33" style="font-weight:700;font-size:24px;fill:#fff">Tools</text><rect width="4" height="25" x="627" y="1133" style="fill:#252323;stroke:#090909;stroke-width:2px;clip-path:inset(2px 2px 2px .5px)"/><text x="617" y="1120" dx="29" dy="33" style="font-weight:700;font-size:24px;fill:#fff">Inspect</text><text x="1665" y="1120" dx="11" dy="33" style="font-weight:700;font-size:24px;fill:#fff">autofix</text><rect width="1296" height="36.4" x="502" y="1184" rx="0" style="fill:#222020;clip-path:none"/><rect width="1300" height="37" x="500" y="1184" style="fill:none;stroke:#1d1c1c;stroke-width:2px;clip-path:inset(0 2px 37.3px)"/><text x="505" y="1181" dx="29" dy="29" style="font-size:19.5px;fill:#fff">Filename: ribasports.png</text><use href="#ffo" style="fill:#c4c4c4" transform="matrix(.38 0 0 .38 1751 1191)"/><rect width="1298" height="1140" x="501" y="81" rx="0" style="fill:none;stroke:#96bfba;stroke-width:1px"/></g><g style="font-family:&quot;Sans-Serif&quot;,system-ui,sans-serif"><rect width="260" height="250" x="95.5" y="689" rx="1.5" style="fill:#12608a;fill-opacity:1;stroke:#fff;stroke-opacity:.25;stroke-width:1.3px"/><g style="clip-path:polygon(-4% -56%,104% 30%,104% 104%,-4% 104%)"><g style="filter:none"><rect width="134" height="167" x="159" y="706" rx="4.4" style="fill:#f1f0f0;stroke:#000;stroke-opacity:.25;stroke-width:.9px"/></g></g><g style="clip-path:polygon(-13%0,108% 120%,200% 200%,-200% 200%)"><g style="filter:url(#ixf)"><rect width="50" height="51" x="248" y="700" rx="4.4" style="fill:#efeeee;stroke-opacity:.25;stroke-width:.9px;clip-path:polygon(0 13%,90% 100%,0 100%,0 0)"/></g></g><rect width=".1" height="64" x="98.5" y="99" rx="4.4" style="fill-opacity:.2;stroke:#000;stroke-opacity:.25;stroke-width:.9px" transform="rotate(-45 906.2 222.8)"/><text x="156" y="827" dx="67" dy="20" style="font-size:32px;fill:#999" text-anchor="middle"><tspan style="font-size:35.2px">.</tspan>png</text><g transform="matrix(.9 0 0 .9 174.5 766)"><rect width="114" height="39" style="fill:#fff"/><g style="text-rendering:auto" transform="matrix(.22 0 0 .22 5 5)"><rect width="483" height="141" x="-4" y="-4" style="fill:#0be"/><circle cx="67" cy="67" r="67" style="fill:#fff"/><text x="18" dy="107" style="font-family:Arial,Helvetica,sans-serif;font-size:122px;fill:#00afef;stroke:#00afef;stroke-width:10px" transform="matrix(1.3 0 0 1.2 1 0)">7</text><text x="315" dy="121" style="font-family:&quot;Times New Roman&quot;,serif;font-weight:700;font-size:144px;letter-spacing:-2px;fill:#fff" transform="scale(.45 1)">CHANNEL</text></g></g><rect width="116" height="33" x="167" y="894" rx="3" style="fill:#12608a;stroke:#000;stroke-opacity:.25"/><text x="109.5" y="898" dx="116" dy="19" style="font-family:&quot;Sans-Serif&quot;,system-ui,sans-serif;font-weight:400;font-size:22px;letter-spacing:.1px;fill:#fff;text-shadow:none" text-anchor="middle">picon.png</text><g style="fill:none;stroke:#0bbbcc;stroke-width:22px"><path d="M290.5 341.3q144-282 219 219" style="marker-end:url(#aud)" transform="matrix(.8 -.8 .5 .6 -192 686)"/></g></g></svg>