<svg xmlns="http://www.w3.org/2000/svg" style="pointer-events:none;user-select:none;text-rendering:geometricprecision" viewBox="0 0 1880 1300"><defs><symbol id="aad"><path d="M37.8 37.8h18V26.3h-18V8H26.3v18.1H8v11.6h18.1v18h11.6v-18z"/></symbol><symbol id="fbt"><path d="M56.3 31H13.8A13 13 0 0 0 1 44v61.3c0 7 5.7 12.8 12.8 12.8h54.5c7 0 12.8-5.8 12.8-12.8v-51c-16.6 14-16.6 30.2-17 36.9a6.8 6.8 0 0 1-11.7 4.4C38 81 36.3 52.4 56.3 31.1zm1 59.7c-14.6-14.7-13-46 15.2-64.3L62.2 14l42.8 1-7.3 41.4-11.8-14C57.8 59.3 57.8 82 57.3 90.6z"/></symbol><symbol id="lcu"><path d="M56.3 57.4c0-2.4-2-4.3-4.4-4.3H12.1a4.3 4.3 0 0 0 0 8.6h39.8c2.4 0 4.4-1.9 4.4-4.3zm0-12.5c0-2.4-2-4.3-4.4-4.3H12.1a4.3 4.3 0 0 0 0 8.6h39.8c2.4 0 4.4-2 4.4-4.3zm0-12.5c0-2.4-2-4.3-4.4-4.3H12.1a4.3 4.3 0 0 0 0 8.6h39.8c2.4 0 4.4-2 4.4-4.3zm-42.5-13V23h10.6v-5.8l2.3-1.4c2.3-1.8 3.4-4.1 3.4-6.4s-1-4.7-3.2-6.5c-1-.7-2-1.3-3-1.7l-1.4 1-.1 6c0 .4-.2.6-.4.7-.4.3-.9.4-1.5.4h-2.8c-.6 0-1.1-.1-1.5-.4-.2-.2-.4-.4-.4-.7V1.9l-1.3-1c-1 .5-2.1 1-3 1.7A8.2 8.2 0 0 0 8 9c0 2.3 1 4.7 3.2 6.5.8.6 1.6 1 2.5 1.4v2.6z"/></symbol><symbol id="sdh"><path d="M40 45.2a20.9 20.9 0 0 1-12.4 4.2A22.6 22.6 0 0 1 5.8 30.7 22.5 22.5 0 0 1 27.6 5.6c10 0 19.4 7.7 21.4 17.6A22 22 0 0 1 45 40l14 13.8-5.1 5.1L40 45.2zM27.4 14.6c-6.2.1-12 5.2-12.7 11.5-.6 5.4 2.7 11 7.8 13.2A13.3 13.3 0 0 0 39.8 31a13.2 13.2 0 0 0-12.4-16.3z"/></symbol><symbol id="ses"><path d="M74 15.4a50 50 0 0 0-19.7 0c.8 4 1.4 8.2 1.8 12.4-4.3 1-8.5 2.7-12.2 5.1-2.7-3.2-5.2-6.6-7.5-10.1a50 50 0 0 0-14 13.9c3.6 2.3 7 4.8 10.2 7.5a37.4 37.4 0 0 0-5 12.2c-4.2-.4-8.4-1-12.5-1.9a50 50 0 0 0 0 19.7 171 171 0 0 1 12.5-1.9c.9 4.4 2.6 8.5 5 12.3-3.2 2.7-6.6 5.2-10.1 7.5A50 50 0 0 0 36.4 106c2.3-3.5 4.8-6.9 7.5-10.1 3.7 2.4 7.9 4 12.2 5-.4 4.2-1 8.4-1.8 12.5a50 50 0 0 0 19.6 0c-.8-4.1-1.4-8.3-1.8-12.5 4.3-1 8.5-2.6 12.2-5 2.7 3.2 5.2 6.6 7.5 10.1a50 50 0 0 0 14-14c-3.6-2.2-7-4.7-10.2-7.4 2.4-3.8 4.1-7.9 5-12.3 4.2.5 8.4 1 12.5 2a50 50 0 0 0 0-19.8c-4.1.9-8.3 1.5-12.5 2-.9-4.4-2.6-8.6-5-12.3 3.2-2.7 6.6-5.2 10.1-7.5a50 50 0 0 0-13.9-14c-2.3 3.6-4.8 7-7.5 10.2a37.4 37.4 0 0 0-12.2-5c.4-4.3 1-8.4 1.8-12.5zM64 50.9a13.5 13.5 0 1 1 0 27 13.5 13.5 0 0 1 0-27z"/></symbol><symbol id="afl"><path d="m32 45.4 26.7-26.8H5.3L32 45.4z"/></symbol><symbol id="cgk"><path d="m5.6 32 18.9 18.9 33.9-34-3.8-3.8-30.1 30.2-15.1-15L5.6 32z"/></symbol><linearGradient id="bhf" x1="0" x2="0" y1="0" y2="1"><stop offset="0" style="stop-color:#fdfdfd"/><stop offset="1" style="stop-color:#eee"/></linearGradient><linearGradient id="bif" x1="0" x2="1" y1="0" y2="0"><stop offset="0" style="stop-color:#fdfdfd"/><stop offset="1" style="stop-color:#eee"/></linearGradient><filter id="mjf" color-interpolation-filters="sRGB"><feDropShadow dx="-3" dy="12" flood-opacity=".2" stdDeviation="20"/><feDropShadow dx="3" dy="12" flood-opacity=".2" stdDeviation="10"/></filter></defs><rect width="1880" height="1300" style="fill:#b4d0cd"/><rect width="1880" height="1330" style="font-family:&quot;Sans-Serif&quot;,system-ui,sans-serif;fill:#000;fill-opacity:.2"/><g style="font-family:&quot;Sans-Serif&quot;,system-ui,sans-serif;opacity:.8" transform="matrix(1.41 0 0 1.41 -656 -271)"><rect width="1718" height="1140" x="81" y="81" rx="0" style="fill:#f9f9f9;stroke:#acc6c3;stroke-width:1px"/><rect width="1716" height="95" x="82" y="192" style="fill:#efefef"/><text x="398.5" y="190" dx="69" dy="59" style="font-size:25.5px;fill:#000">Import</text><use href="#fbt" style="fill:#5c5c5c" transform="matrix(.38 0 0 .38 575 215)"/><text x="557.5" y="190" dx="69" dy="59" style="font-size:25.5px;fill:#000">Export</text><rect width="4" height="42" x="729" y="218" style="fill:#fff;stroke:#dfdfdf;stroke-width:2px;clip-path:inset(2px 2px 2px .5px)"/><use href="#ses" style="fill:#5c5c5c" transform="matrix(.38 0 0 .38 741 215)"/><text x="723.5" y="190" dx="69" dy="59" style="font-size:25.5px;fill:#000">Settings</text><rect width="100" height="34" x="1154" y="222" rx="3" style="fill:url(#bhf);stroke:#ababab;stroke-width:1.2px;filter:none"/><rect width="24" height="24" x="1246.5" y="227" rx="8" style="fill:none;stroke:none;stroke-opacity:.06;stroke-width:2px"/><use href="#afl" style="fill:#676767" transform="matrix(.23 0 0 .23 1234 231)"/><text x="1149" y="224" dx="12" dy="22" style="font-size:20px;fill:#000">Profile 1</text><text x="1257.5" y="190" dx="15" dy="59" style="font-size:25.5px;fill:#000">Connect</text><text x="1378.5" y="190" dx="15" dy="59" style="font-size:25.5px;fill:#000">Disconnect</text><rect width="4" height="42" x="1533" y="218" style="fill:#fff;stroke:#dfdfdf;stroke-width:2px;clip-path:inset(2px 2px 2px .5px)"/><text x="1537.5" y="190" dx="15" dy="59" style="font-size:25.5px;fill:#000">Upload</text><text x="1645.5" y="190" dx="15" dy="59" style="font-size:25.5px;fill:#000">Download</text><rect width="1720" height="95" x="80" y="192" style="fill:none;stroke:#d1d2d2;stroke-width:2px;clip-path:inset(0 2px)"/><rect width="1716" height="779" x="82" y="286" style="fill:#efefef"/><text x="469" y="285" dx="10" dy="32" style="font-weight:700;font-size:19px;fill:#000">Channels</text><rect width="38" height="32" x="1755" y="291" rx="3" style="fill:url(#bhf);stroke:#ababab;stroke-width:1.2px"/><use href="#lcu" style="fill:#505050" transform="matrix(.38 0 0 .38 1762 294)"/><rect width="1325" height="26" x="469" y="335" style="fill:url(#bhf);stroke:#c8c8c8;stroke-width:2px;clip-path:inset(1px 1px 0)"/><text x="469" y="337" dy="18" style="font-size:17px;fill:#000"><tspan x="472">Index</tspan> <tspan x="571">Name</tspan></text><rect width="3" height="26" x="565" y="335" style="fill:#ddd;stroke:#cdcdcd;stroke-width:1px;clip-path:inset(1px 1px 1px 0)"/><rect width="1325" height="687" x="469" y="361" style="fill:#fff"/><rect width="1325" height="49" x="473" y="707" style="fill:#308cc6" transform="matrix(1 0 0 .996 -4 -2.9)"/><text x="469" y="362" dy="31" style="font-size:20px;fill:#000"><tspan x="492">38</tspan> <tspan x="572">Giallo HD HD</tspan></text><text x="469" y="411" dy="31" style="font-size:20px;fill:#000"><tspan x="492">39</tspan> <tspan x="572">TOPcrime HD</tspan></text><text x="469" y="460" dy="31" style="font-size:20px;fill:#000"><tspan x="492">40</tspan> <tspan x="572">Boing HD</tspan></text><text x="469" y="508" dy="31" style="font-size:20px;fill:#000"><tspan x="492">41</tspan> <tspan x="572">K2</tspan></text><text x="469" y="557" dy="31" style="font-size:20px;fill:#000"><tspan x="492">42</tspan> <tspan x="572">Rai Gulp HD</tspan></text><text x="469" y="606" dy="31" style="font-size:20px;fill:#000"><tspan x="492">43</tspan> <tspan x="572">Rai YoYo HD</tspan></text><text x="469" y="654" dy="31" style="font-size:20px;fill:#000"><tspan x="492">44</tspan> <tspan x="572">Frisbee</tspan></text><text x="469" y="703" dy="31" style="font-size:20px;fill:#fff"><tspan x="492">45</tspan> <tspan x="572">NASA+</tspan></text><text x="469" y="752" dy="31" style="font-size:20px;fill:#000"><tspan x="492">46</tspan> <tspan x="572">Cartoonito HD</tspan></text><text x="469" y="801" dy="31" style="font-size:20px;fill:#000"><tspan x="492">47</tspan> <tspan x="572">Super!</tspan></text><text x="469" y="850" dy="31" style="font-size:20px;fill:#000"><tspan x="492">48</tspan> <tspan x="572">Rai News 24 HD</tspan></text><text x="469" y="898" dy="31" style="font-size:20px;fill:#000"><tspan x="492">49</tspan> <tspan x="572">Mediaset Italia2 HD</tspan></text><text x="469" y="947" dy="31" style="font-size:20px;fill:#000"><tspan x="492">50</tspan> <tspan x="572">Sky TG24</tspan> <tspan x="982">90</tspan> <tspan x="1106">512</tspan> <tspan x="1227">H.264</tspan> <tspan x="1425">Persidera</tspan> <tspan x="1695">DVB-T</tspan></text><g style="clip-path:inset(1px 1px 0 .5px)"><rect width="23" height="693" x="1775" y="335" style="fill:#e6e6e6;stroke:#bcbcbc;stroke-width:2px"/><rect width="22" height="22" x="1775.5" y="335.5" rx="0" style="fill:url(#bif);stroke:#ababab;stroke-width:1.2px"/><use href="#afl" style="fill:#5c5c5c" transform="matrix(.22 0 0 -.22 1779.3 353.5)"/><rect width="22" height="22" x="1775.5" y="983.5" rx="0" style="fill:url(#bif);stroke:#ababab;stroke-width:1.2px"/><use href="#afl" style="fill:#5c5c5c" transform="matrix(.22 0 0 .22 1779.3 988)"/><rect width="22" height="80" x="1775.5" y="490" rx="0" style="fill:url(#bif);fill-opacity:.8;stroke:#ababab;stroke-opacity:.6;stroke-width:1.2px"/></g><g style="clip-path:inset(.5px .5px 0 0)"><rect width="1308" height="23" x="467" y="1006" style="fill:#e6e6e6;stroke:#bcbcbc;stroke-width:2px"/><rect width="22" height="22" x="467.5" y="1006.5" rx="0" style="fill:url(#bhf);stroke:#ababab;stroke-width:1.2px"/><use href="#afl" style="fill:#5c5c5c" transform="matrix(0 .22 -.22 0 484.5 1010.3)"/><rect width="22" height="22" x="1752.5" y="1006.5" rx="0" style="fill:url(#bhf);stroke:#ababab;stroke-width:1.2px"/><use href="#afl" style="fill:#5c5c5c" transform="matrix(0 .22 .22 0 1757.5 1010.3)"/><rect width="900" height="22" x="490" y="1006.5" rx="0" style="fill:url(#bhf);fill-opacity:.8;stroke:#ababab;stroke-opacity:.6;stroke-width:1.2px"/></g><rect width="26" height="24.5" x="1775" y="1006" style="fill:#e6e6e6;stroke:#bcbcbc;stroke-width:2px;clip-path:inset(0 2px 2px 0)"/><rect width="1330" height="65" x="469" y="1031" style="fill:#efefef"/><rect width="1332" height="65" x="467" y="1030" style="fill:none;stroke:#e9eaea;stroke-width:2px;clip-path:inset(0 2px 2px)"/><use href="#aad" style="fill:#545454" transform="matrix(.26 0 0 .26 488 1053.5)"/><text x="483" y="1037.5" dx="28" dy="33" style="font-weight:700;font-size:20.5px;fill:#000">Channel</text><use href="#aad" style="fill:#545454" transform="matrix(.26 0 0 .26 613 1053.5)"/><text x="609" y="1037.5" dx="28" dy="33" style="font-weight:700;font-size:20.5px;fill:#000">Stream</text><use href="#aad" style="fill:#545454" transform="matrix(.26 0 0 .26 728 1053.5)"/><text x="724" y="1037.5" dx="28" dy="33" style="font-weight:700;font-size:20.5px;fill:#000">Marker</text><g style="opacity:.25"><use href="#aad" style="fill:#545454" transform="matrix(.26 0 0 .26 841 1053.5)"/><text x="836" y="1037.5" dx="28" dy="33" style="font-weight:700;font-size:20.5px;fill:#000">Service</text></g><rect width="135" height="34" x="967" y="1046" rx="3" style="fill:url(#bhf);stroke:#ababab;stroke-width:1.2px;filter:none"/><text x="967" y="1047.5" dx="22" dy="22" style="font-size:20px;fill:#000">Reference</text><rect width="4" height="24" x="1112.5" y="1051" style="fill:#fff;stroke:#dfdfdf;stroke-width:2px;clip-path:inset(2px 4px 2px .5px)"/><g style="opacity:.25"><rect width="147" height="34" x="1121" y="1046" rx="3" style="fill:url(#bhf);stroke:#ababab;stroke-width:1.2px;filter:none"/><text x="1121" y="1047.5" dx="25" dy="22" style="font-size:20px;fill:#000">Drag&amp;Drop</text></g><rect width="100" height="34" x="1685" y="1046" rx="3" style="fill:url(#bhf);stroke:#ababab;stroke-width:1.2px;filter:none"/><use x="15" href="#sdh" style="fill:#545454" transform="matrix(.38 0 0 .38 1687 1050)"/><text x="1675" y="1048.5" dx="46" dy="22" style="font-size:20px;fill:#000">Find<tspan style="font-size:15px">…</tspan></text><rect width="1720" height="810" x="80" y="286" style="fill:none;stroke:#d5d6d6;stroke-width:1.8px;clip-path:inset(0 2px)"/><rect width="1718" height="1140" x="81" y="81" style="fill:#000;opacity:.1"/></g><g style="font-family:&quot;Sans-Serif&quot;,system-ui,sans-serif" transform="matrix(1.41 0 0 1.41 315 182)"><rect width="1061" height="650" x="1" y="1" rx="0" style="fill:#efefef;stroke:#acc6c3;stroke-width:1px;filter:url(#mjf)"/><rect width="1062" height="48" y="1" rx="0" style="fill:#fafafa;stroke:#e8e8e8;stroke-width:2px;clip-path:inset(1px 1.5px 0)"/><rect width="1059" height="1" x="2" y="47" style="fill:none;stroke:#cbcdcc;stroke-width:2px;clip-path:inset(0 1px 1.1px)"/><text x="-1" y="3.5" dx="529" dy="28" style="font-family:&quot;Sans-Serif&quot;,system-ui,sans-serif;font-weight:700;font-size:19px;fill:#5a5a5a" text-anchor="middle">Add Channel</text><g transform="rotate(45 502.2 1262.9)"><rect width="15" height="1" y="7" style="fill:none;stroke:#333;stroke-width:1px"/><rect width="1" height="15" x="7" style="fill:none;stroke:#333;stroke-width:1px"/></g><rect width="138" height="26" x="922" y="49.5" rx="3" style="fill:url(#bhf);stroke:#ababab;stroke-width:1.2px"/><use href="#afl" style="fill:#676767" transform="matrix(-.22 0 0 -.22 940 69.5)"/><text x="945" y="53.5" dy="15" style="font-weight:400;font-size:16.5px;fill:#000">collapse</text><text x="-2" y="78" dx="22" dy="38" style="font-size:21.5px">Services</text><text x="-2" y="138" dx="22" dy="38" style="font-size:21.5px">Bouquets</text><text x="-2" y="199" dx="22" dy="38" style="font-size:21.5px">Positions</text><rect width="227" height="60" x="1" y="257" style="fill:#308cc6" transform="matrix(1 0 0 .996 0 2.7)"/><text x="-2" y="259" dx="22" dy="38" style="font-size:21.5px;fill:#fff">Providers</text><text x="-2" y="320" dx="22" dy="38" style="font-size:21.5px">Resolution</text><text x="-2" y="381" dx="22" dy="38" style="font-size:21.5px">Encryption</text><text x="-2" y="440" dx="22" dy="38" style="font-size:21.5px">A-Z</text><rect width="263" height="507" x="228" y="77" style="fill:#fff"/><rect width="263" height="34" x="228" y="347" style="fill:#308cc6" transform="matrix(1 0 0 .996 0 -.3)"/><text x="253" y="75" dy="29" style="font-size:19.5px">M7 Group</text><text x="253" y="108" dy="29" style="font-size:19.5px">MB Satellite</text><text x="253" y="141" dy="29" style="font-size:19.5px">MCEU</text><text x="253" y="175" dy="29" style="font-size:19.5px">MTHREE SATCOM</text><text x="253" y="208" dy="29" style="font-size:19.5px">Mediaset</text><text x="253" y="241" dy="29" style="font-size:19.5px">NOVA</text><text x="253" y="274" dy="29" style="font-size:19.5px">NURTS</text><text x="253" y="306" dy="29" style="font-size:19.5px">Nimbus</text><text x="253" y="341" dy="29" style="font-size:19.5px;fill:#fff">NoName</text><text x="253" y="378" dy="29" style="font-size:19.5px">Persidera</text><text x="253" y="412" dy="29" style="font-size:19.5px">PlayBox Neo Suite</text><text x="253" y="446" dy="29" style="font-size:19.5px">RAI</text><text x="253" y="479" dy="29" style="font-size:19.5px">Radio RTR</text><text x="253" y="512" dy="29" style="font-size:19.5px">Radio Television Suisse</text><text x="253" y="544" dy="29" style="font-size:19.5px">Radio ZET Gold</text><g style="clip-path:inset(1px 1px 0 .5px)"><rect width="23" height="511" x="472" y="77" style="fill:#e6e6e6;stroke:#bcbcbc;stroke-width:2px"/><rect width="22" height="22" x="472.5" y="75.5" rx="0" style="fill:url(#bif);stroke:#ababab;stroke-width:1.2px"/><use href="#afl" style="fill:#5c5c5c" transform="matrix(.22 0 0 -.22 475.9 93.5)"/><rect width="22" height="22" x="472" y="563" rx="0" style="fill:url(#bif);stroke:#ababab;stroke-width:1.2px"/><use href="#afl" style="fill:#5c5c5c" transform="matrix(.22 0 0 .22 475.9 568)"/><rect width="22" height="108" x="472.5" y="320" rx="0" style="fill:url(#bif);fill-opacity:1;stroke:#ababab;stroke-opacity:.6;stroke-width:1.2px"/></g><rect width=".5" height="28" x="497.5" y="323" style="fill:none;stroke:#000;stroke-opacity:.25;stroke-dasharray:0,2px,0"/><rect width="559" height="26" x="502" y="77" style="fill:url(#bhf);stroke:#c8c8c8;stroke-width:2px;clip-path:inset(1px 1px 0)"/><text x="502" y="79" dy="18" style="font-size:17px;fill:#000"><tspan x="506">Index</tspan> <tspan x="594">Name</tspan> <tspan x="820">Type</tspan> <tspan x="935">Provider</tspan></text><rect width="3" height="26" x="587" y="77" style="fill:#ddd;stroke:#cdcdcd;stroke-width:1px;clip-path:inset(1px 1px 1px 0)"/><rect width="3" height="26" x="813" y="77" style="fill:#ddd;stroke:#cdcdcd;stroke-width:1px;clip-path:inset(1px 1px 1px 0)"/><rect width="3" height="26" x="927" y="77" style="fill:#ddd;stroke:#cdcdcd;stroke-width:1px;clip-path:inset(1px 1px 1px 0)"/><rect width="559" height="481" x="502" y="103" style="fill:#fff"/><rect width="559" height="34" x="502" y="469" style="fill:#308cc6" transform="matrix(1 0 0 .996 0 4)"/><text x="502" y="98" dy="29" style="font-size:20px;opacity:.25"><tspan x="525">26</tspan> <tspan x="594">CH4441</tspan> <tspan x="820">Data</tspan> <tspan x="935">NoName</tspan></text><text x="502" y="131" dy="29" style="font-size:20px;opacity:.25"><tspan x="525">27</tspan> <tspan x="594">CH4442</tspan> <tspan x="820">Data</tspan> <tspan x="935">NoName</tspan></text><text x="502" y="165" dy="29" style="font-size:20px;opacity:.25"><tspan x="525">28</tspan> <tspan x="594">CH4443</tspan> <tspan x="820">Data</tspan> <tspan x="935">NoName</tspan></text><text x="502" y="198" dy="29" style="font-size:20px;opacity:.25"><tspan x="525">29</tspan> <tspan x="594">CH4445</tspan> <tspan x="820">Data</tspan> <tspan x="935">NoName</tspan></text><text x="502" y="231" dy="29" style="font-size:20px;opacity:.25"><tspan x="525">30</tspan> <tspan x="594">CH4447</tspan> <tspan x="820">Data</tspan> <tspan x="935">NoName</tspan></text><text x="502" y="265" dy="29" style="font-size:20px;opacity:.25"><tspan x="525">31</tspan> <tspan x="594">CH4448</tspan> <tspan x="820">Data</tspan> <tspan x="935">NoName</tspan></text><text x="502" y="299" dy="29" style="font-size:20px"><tspan x="525">39</tspan> <tspan x="594">Museum 4K</tspan> <tspan x="820">TV</tspan> <tspan x="935">NoName</tspan></text><text x="502" y="333" dy="29" style="font-size:20px"><tspan x="525">40</tspan> <tspan x="594">MyZen 4K</tspan> <tspan x="820">TV</tspan> <tspan x="935">NoName</tspan></text><text x="502" y="366" dy="29" style="font-size:20px"><tspan x="525">63</tspan> <tspan x="594">Fokus TV HD</tspan> <tspan x="820">TV</tspan> <tspan x="935">NoName</tspan></text><text x="502" y="399" dy="29" style="font-size:20px;opacity:.25"><tspan x="525">94</tspan> <tspan x="594">CH15790</tspan> <tspan x="820">Radio</tspan> <tspan x="935">NoName</tspan></text><text x="502" y="431" dy="29" style="font-size:20px;opacity:.25"><tspan x="525">95</tspan> <tspan x="594">CH15797</tspan> <tspan x="820">Data</tspan> <tspan x="935">NoName</tspan></text><text x="502" y="467" dy="29" style="font-size:20px;fill:#fff"><tspan x="525">130</tspan> <tspan x="594">HotBird 4K1</tspan> <tspan x="820">TV</tspan> <tspan x="935">NoName</tspan></text><text x="502" y="503" dy="29" style="font-size:20px;opacity:.25"><tspan x="525">246</tspan> <tspan x="820">Data</tspan> <tspan x="935">NoName</tspan></text><text x="502" y="536" dy="29" style="font-size:20px;opacity:.25"><tspan x="525">247</tspan> <tspan x="820">Data</tspan> <tspan x="935">NoName</tspan></text><text x="502" y="568" dy="29" style="font-size:20px;opacity:.25"><tspan x="525">248</tspan> <tspan x="820">Data</tspan> <tspan x="935">NoName</tspan></text><g style="clip-path:inset(1px 1px 0 .5px)"><rect width="23" height="505" x="1039" y="78.5" style="fill:#e6e6e6;stroke:#bcbcbc;stroke-width:2px"/><rect width="22" height="22" x="1039.5" y="77" rx="0" style="fill:url(#bif);stroke:#ababab;stroke-width:1.2px"/><use href="#afl" style="fill:#5c5c5c" transform="matrix(.22 0 0 -.22 1043 95)"/><rect width="22" height="22" x="1039.5" y="539.5" rx="0" style="fill:url(#bif);stroke:#ababab;stroke-width:1.2px"/><use href="#afl" style="fill:#5c5c5c" transform="matrix(.22 0 0 .22 1043 544.5)"/><rect width="22" height="46" x="1039.5" y="99.5" rx="0" style="fill:url(#bif);fill-opacity:1;stroke:#ababab;stroke-opacity:.6;stroke-width:1.2px"/></g><g style="clip-path:inset(.5px 1px 1px)"><rect width="539" height="23" x="501" y="561.5" style="fill:#e6e6e6;stroke:#bcbcbc;stroke-width:2px"/><rect width="22" height="22" x="499.5" y="562" rx="0" style="fill:url(#bhf);stroke:#ababab;stroke-width:1.2px"/><use href="#afl" style="fill:#5c5c5c" transform="matrix(0 .22 -.22 0 516.5 566)"/><rect width="22" height="22" x="1017.5" y="562" rx="0" style="fill:url(#bhf);stroke:#ababab;stroke-width:1.2px"/><use href="#afl" style="fill:#5c5c5c" transform="matrix(0 .22 .22 0 1022.5 566)"/><rect width="204" height="22" x="522" y="562" rx="0" style="fill:url(#bhf);fill-opacity:1;stroke:#ababab;stroke-opacity:.6;stroke-width:1.2px"/></g><rect width="22.5" height="24.5" x="1040.5" y="562.5" style="fill:#e6e6e6;stroke:#bcbcbc;stroke-width:2px;clip-path:inset(0 2px 2px 0)"/><rect width="1059" height="66" x="2" y="584" rx="0" style="fill:#f9f9f9;clip-path:none"/><g transform="matrix(.9 0 0 .9 13 606.5)"><rect width="21" height="21" x="1.5" y="3" rx="0" style="fill:#fff;stroke:#ababab;stroke-opacity:1;stroke-width:1.4px"/><use href="#cgk" style="fill:#000;stroke:#000;stroke-width:5.1px" transform="matrix(.2 0 0 .32 5.8 3.6)"/></g><text x="41" y="606.5" dy="19" style="font-size:19.5px">Filters for service type</text><text x="833" y="592" dx="28" dy="34" style="font-size:23px;fill:#000">Cancel</text><use href="#aad" style="fill:#505050" transform="matrix(.34 0 0 .34 958 606)"/><text x="955" y="592" dx="28" dy="34" style="font-size:23px;fill:#000">Add</text><rect width="1059" height="1.2" x="2" y="584" style="fill:#d7d7d9"/><rect width="1061" height="650" x="1" y="1" rx="0" style="fill:none;stroke:#808e8c;stroke-width:1.2px"/><rect width="1060" height="649" x="1.5" y="1.5" rx="0" style="fill:none;stroke:#ccc;stroke-opacity:.75;stroke-width:.5px"/></g></svg>