<svg xmlns="http://www.w3.org/2000/svg" style="pointer-events:none;user-select:none" viewBox="0 0 1880 1300"><defs><symbol id="aad"><path d="M37.75 37.75h18.127v-11.5H37.75V8.123h-11.5V26.25H8.123v11.5H26.25v18.127h11.5V37.75z"/></symbol><symbol id="cbw"><path d="m60 14.973-3-.522v35.716c-3.141-.28-8.021-.667-11-.667-.95 0-2.094.039-3.312.102-.962.036-2.014.106-3.059.191-2.678.191-5.264.428-6.629.559V14.451S39.61 13 42.963 13c4 0 14.037 1.451 14.037 1.451l3.001.522A5.166 5.166 0 0 1 63 19.66v32.68a5.162 5.162 0 0 1-5.16 5.16H6.16A5.162 5.162 0 0 1 1 52.34V19.66a5.164 5.164 0 0 1 3-4.687l3-.522S17.037 13 21.037 13C24.39 13 31 14.451 31 14.451v35.901a285.977 285.977 0 0 0-6.629-.559 71.578 71.578 0 0 0-3.059-.191A66.645 66.645 0 0 0 18 49.5c-2.979 0-7.859.387-11 .667V14.451l-3 .522v38.765h56V14.973zM28.5 42.5a2 2 0 0 0-2-2h-14a2 2 0 0 0 0 4h14a2 2 0 0 0 2-2zm25 0a2 2 0 0 0-2-2h-14a2 2 0 0 0 0 4h14a2 2 0 0 0 2-2zm-25-7a2 2 0 0 0-2-2h-14a2 2 0 0 0 0 4h14a2 2 0 0 0 2-2zm25 0a2 2 0 0 0-2-2h-14a2 2 0 0 0 0 4h14a2 2 0 0 0 2-2zm-25-7a2 2 0 0 0-2-2h-14a2 2 0 0 0 0 4h14a2 2 0 0 0 2-2zm25 0a2 2 0 0 0-2-2h-14a2 2 0 0 0 0 4h14a2 2 0 0 0 2-2zm-25-7a2 2 0 0 0-2-2h-14a2 2 0 0 0 0 4h14a2 2 0 0 0 2-2zm25 0a2 2 0 0 0-2-2h-14a2 2 0 0 0 0 4h14a2 2 0 0 0 2-2z"/></symbol><symbol id="cce"><path d="m62.328 7.276-5.604-5.604L32 26.396 7.276 1.672 1.672 7.276 26.396 32 1.672 56.724l5.604 5.604L32 37.604l24.724 24.724 5.604-5.604L37.604 32 62.328 7.276z"/></symbol><symbol id="fdt"><path d="M56.256 31.057H13.818C6.744 31.057 1 36.801 1 43.875v61.295c0 7.074 5.744 12.818 12.818 12.818h54.476c7.075 0 12.818-5.744 12.818-12.818V54.119C64.496 68.159 64.463 84.4 64.087 91.084a6.817 6.817 0 0 1-11.642 4.425c-14.421-14.502-16.181-43.133 3.811-64.452zm1.037 59.637C42.669 75.989 44.254 44.706 72.527 26.35L62.162 13.988 105 15.072l-7.263 41.344-11.808-14.082c-28.127 16.992-28.15 39.728-28.636 48.36z"/></symbol><symbol id="fet"><path d="M87.8 55.714h8.488C102.2 55.714 107 60.467 107 66.32v45.074c0 5.854-4.8 10.606-10.712 10.606H11.712C5.8 122 1 117.248 1 111.394V66.32c0-5.853 4.8-10.606 10.712-10.606H31.5L54 77.541c1.413 1.374 4.32 2.133 6.3 2.109 1.98-.023 4.821-.828 6.2-2.236l21.3-21.7zm6.182-49.329C76.101 3.303 44.4 18.916 49.061 45.91H33.544l27.127 26.376L86.518 45.91h-14.41C67.275 21.748 87.952 10.789 93.982 6.385z"/></symbol><symbol id="ffo"><path d="M32 62.5C15.167 62.5 1.5 48.833 1.5 32S15.167 1.5 32 1.5v9.611A5.366 5.366 0 0 0 30.91 11c-2.99 0-5.42 2.43-5.42 5.41A5.424 5.424 0 0 0 32 21.719v5.111l-7.44.18 2.82 1.23v22.7L24.56 53H32v9.5zm0-51.389V1.5c16.833 0 30.5 13.667 30.5 30.5S48.833 62.5 32 62.5V53h9.46l-5.76-2.06v-24.2l-3.7.09v-5.111a5.427 5.427 0 0 0 4.32-5.309c0-2.607-1.86-4.793-4.32-5.299z"/></symbol><symbol id="fgn"><path d="M21 42.973h89.077c2.783 0 4.643 2.26 4.153 5.042l-9.34 52.943c-.491 2.783-3.149 5.042-5.932 5.042H7.84A3.842 3.842 0 0 1 4 102.16V22h67.2L88 36H16v32h5V42.973z"/></symbol><symbol id="fhe"><path d="M114 22v86.16a3.842 3.842 0 0 1-3.84 3.84H17.84a3.842 3.842 0 0 1-3.84-3.84V19.84A3.842 3.842 0 0 1 17.84 16H109l5 6zM94 59.014v-40H38v40h56zM84.5 26v30h-15V26h15z"/></symbol><symbol id="liu"><path d="M56.25 57.423a4.33 4.33 0 0 0-4.327-4.327H12.077c-2.388 0-4.327 1.939-4.327 4.327s1.939 4.327 4.327 4.327h39.846a4.33 4.33 0 0 0 4.327-4.327zm0-12.52a4.33 4.33 0 0 0-4.327-4.328H12.077a4.33 4.33 0 0 0-4.327 4.328 4.33 4.33 0 0 0 4.327 4.327h39.846a4.33 4.33 0 0 0 4.327-4.327zm0-12.521a4.33 4.33 0 0 0-4.327-4.327H12.077c-2.388 0-4.327 1.939-4.327 4.327s1.939 4.327 4.327 4.327h39.846a4.33 4.33 0 0 0 4.327-4.327zM13.803 19.471v3.446h10.579v-5.844a11.23 11.23 0 0 0 2.343-1.41c2.237-1.745 3.347-4.068 3.371-6.392S29.057 4.6 26.857 2.8c-.887-.725-1.951-1.273-3.024-1.702l-1.372.918-.062 6.154c-.003.286-.167.503-.402.659-.376.249-.899.364-1.472.364h-2.85c-.565-.008-1.082-.142-1.452-.406-.242-.173-.413-.406-.41-.702l.062-6.155-1.348-.947c-1.083.403-2.158.924-3.06 1.628C9.23 4.357 8.12 6.679 8.096 9.003c-.023 2.323 1.039 4.671 3.239 6.471.725.593 1.567 1.067 2.437 1.454.016.617.026 1.607.031 2.543z"/></symbol><symbol id="pjw"><path d="M14.762 29.23h34.49S63.18 43.708 60.715 44.826c-1.067.483-6.127-1.117-11.524-3.087V62H14.802V41.747C9.413 43.714 4.365 45.309 3.3 44.826.835 43.708 14.762 29.23 14.762 29.23zm22.012-17.871H16.299v13.19h6.364V13.997h14.111v-2.638zm1.764 5.276H24.427v7.914h14.111v-7.914zm6.761-6.235v14.149h-4.283v-9.233h-2.478V10.4h6.761zm-8.667-6.918H18.459v5.276h18.173V3.482z"/></symbol><symbol id="skh"><path d="M40.023 45.152c-3.477 2.591-7.729 4.192-12.407 4.221-10.406.066-20.276-8.26-21.806-18.699C4.079 18.86 13.39 6.51 25.93 5.634a23.135 23.135 0 0 1 1.686-.053c10 .095 19.38 7.75 21.337 17.619 1.156 5.829-.437 11.92-3.87 16.758l13.82 13.819-5.128 5.128-13.752-13.753zM27.395 14.645c-6.236.06-12 5.17-12.677 11.431-.588 5.436 2.691 11.076 7.773 13.229 6.62 2.806 15.346-1.167 17.352-8.391 2.055-7.404-3.759-16.031-12.032-16.265a19.293 19.293 0 0 0-.416-.004z"/></symbol><symbol id="sls"><path d="M73.934 15.359a50.006 50.006 0 0 0-19.668 0 128.34 128.34 0 0 1 1.871 12.477 37.41 37.41 0 0 0-12.249 5.073 128.485 128.485 0 0 1-7.499-10.146 50.018 50.018 0 0 0-13.908 13.908 128.735 128.735 0 0 1 10.146 7.499 37.41 37.41 0 0 0-5.073 12.249 128.34 128.34 0 0 1-12.477-1.871 49.968 49.968 0 0 0 0 19.668 128.34 128.34 0 0 1 12.477-1.871 37.4 37.4 0 0 0 5.073 12.249 128.485 128.485 0 0 1-10.146 7.499 50.018 50.018 0 0 0 13.908 13.908 128.485 128.485 0 0 1 7.499-10.146 37.433 37.433 0 0 0 12.249 5.074 128.366 128.366 0 0 1-1.871 12.476 49.968 49.968 0 0 0 19.668 0 128.366 128.366 0 0 1-1.871-12.476 37.433 37.433 0 0 0 12.249-5.074 128.485 128.485 0 0 1 7.499 10.146 50.018 50.018 0 0 0 13.908-13.908 128.485 128.485 0 0 1-10.146-7.499 37.4 37.4 0 0 0 5.073-12.249 128.34 128.34 0 0 1 12.477 1.871 49.968 49.968 0 0 0 0-19.668 128.34 128.34 0 0 1-12.477 1.871 37.41 37.41 0 0 0-5.073-12.249 128.735 128.735 0 0 1 10.146-7.499 50.018 50.018 0 0 0-13.908-13.908 128.485 128.485 0 0 1-7.499 10.146 37.41 37.41 0 0 0-12.249-5.073 128.34 128.34 0 0 1 1.871-12.477zM64.1 50.882c7.451 0 13.5 6.049 13.5 13.5s-6.049 13.5-13.5 13.5-13.5-6.049-13.5-13.5 6.049-13.5 13.5-13.5z"/></symbol><symbol id="tmw"><path d="M64 64V45H0v19h64zm-25.025-5.747.001 1.834a1.948 1.948 0 1 1-3.897 0l-.002-6.41-1.968 1.774a2.105 2.105 0 0 1-1.48.524 2.105 2.105 0 0 1-1.48-.524l-1.968-1.774-.003 6.41a1.95 1.95 0 0 1-3.897 0l.002-5.24h-6.669l4.099 3.89c.751.713.751 1.869.002 2.581-.75.711-1.968.71-2.719-.002l-4.104-3.895-4.104 3.895a1.999 1.999 0 0 1-2.719.002 1.76 1.76 0 0 1 .002-2.581l4.104-3.895-4.104-3.895c-.751-.712-.752-1.868-.002-2.58s1.968-.711 2.719.002l4.104 3.895 4.104-3.895a1.998 1.998 0 0 1 2.719-.002 1.76 1.76 0 0 1-.002 2.58l-4.099 3.89h6.669l.002-5.24.002-.072a1.674 1.674 0 0 1 .571-1.356c.276-.249.614-.408.97-.477a1.942 1.942 0 0 1 .578-.036c.454.033.899.206 1.247.52l3.976 3.583 3.975-3.583a2.084 2.084 0 0 1 1.248-.52 1.94 1.94 0 0 1 .578.036c.356.069.694.228.97.477.412.371.602.868.571 1.356l.001.072.003 8.646h2.912l.003-8.83a1.95 1.95 0 0 1 3.897 0l-.004 8.839 6.372.002a1.798 1.798 0 0 1 0 3.597l-8.471-.003a1.8 1.8 0 0 1-1.798-1.799l.001-1.796h-2.912zM25.286 39.498 25 39.5c-10.072 0-18.25-8.402-18.25-18.75S14.928 2 25 2s18.25 8.402 18.25 18.75a19.05 19.05 0 0 1-2.301 9.115L52 25.842v-3.071a1.5 1.5 0 0 1 1.5-1.5h3a1.5 1.5 0 0 1 1.5 1.5v11a1.5 1.5 0 0 1-1.5 1.5h-3a1.5 1.5 0 0 1-1.5-1.5v-1.543l-25.926 9.436-.788-2.166z"/></symbol><symbol id="anm"><path d="M32 13.243a6.495 6.495 0 0 0-4.608 1.907L2.907 39.635c-2.543 2.543-2.543 6.672 0 9.215s6.672 2.543 9.215 0L32 28.972 51.878 48.85c2.543 2.543 6.672 2.543 9.215 0s2.543-6.672 0-9.215L36.608 15.15A6.495 6.495 0 0 0 32 13.243z"/></symbol><symbol id="aow"><path d="m32 30.114 27.467 29.239V34.738L32 5.498 4.533 34.738v24.615L32 30.114z"/></symbol><symbol id="apw"><path d="M32 36.23 11.77 16.573a3.284 3.284 0 0 0-4.549 0l-1.913 1.859a3.098 3.098 0 0 0 0 4.468l26.57 25.818L32 48.6l.12.12L58.692 22.9a3.098 3.098 0 0 0 0-4.468l-2.363-2.297a2.636 2.636 0 0 0-3.649 0L32 36.23z"/></symbol><symbol id="pvn"><path d="M48.3 24.2h50v32h-50z" style="fill:none;stroke:silver;stroke-opacity:.96;stroke-width:2.5px" transform="matrix(.75 0 0 .75 20.3 11.9)"/><path d="M0 0h2.5v56H0z" style="fill:silver;fill-opacity:.96" transform="rotate(-58 57.528 -35.391) scale(.75)"/><path d="M23-42h2.5v56H23z" style="fill:silver;fill-opacity:.96" transform="rotate(58 -.478 67.541) scale(.75)"/><path d="M2 2h148v78H2z" style="fill:none;stroke:#c4c4c4;stroke-opacity:.9;stroke-width:3.3px"/></symbol><linearGradient id="bqm" x1="0" x2="0" y1="0" y2="1"><stop offset="0" style="stop-color:#5b6564"/><stop offset=".6" style="stop-color:#626c6c"/></linearGradient><linearGradient id="brm" x1="0" x2="0" y1="0" y2="1"><stop offset="0" style="stop-color:#fff;stop-opacity:.19"/><stop offset="1" style="stop-color:#000;stop-opacity:.34"/></linearGradient><linearGradient id="bsm" x1="0" x2="0" y1="0" y2="1"><stop offset=".4" style="stop-color:#007df4"/><stop offset="1" style="stop-color:#0073e4"/></linearGradient><linearGradient id="pwg" x1="0" x2="0" y1="0" y2="1"><stop offset=".5" style="stop-color:#f4f4f4"/><stop offset="1" style="stop-color:#e2e2e2"/></linearGradient><filter id="btm" color-interpolation-filters="sRGB"><feDropShadow dx="0" dy="1.5" flood-opacity=".25" stdDeviation="1"/><feDropShadow dx="0" dy="0" flood-opacity=".3" stdDeviation="2.2"/></filter><filter id="ixm" color-interpolation-filters="sRGB"><feDropShadow dx="0" dy="2.3" flood-opacity=".4" stdDeviation="2"/></filter><filter id="iym" color-interpolation-filters="sRGB"><feDropShadow dx="-1.8" dy="1.7" flood-opacity=".3" stdDeviation="3"/><feDropShadow dx="0" dy="0" flood-opacity=".12" stdDeviation="2"/></filter><marker id="aud" markerHeight="3" markerWidth="3" orient="auto" refX="1.75" refY="1.75" viewBox="0 0 3.5 3.5"><path d="M.7 3.5 0 1.75.7 0l2.8 1.75z" style="fill:#0bbbcc"/></marker></defs><path d="M0 0h1880v1300H0z" style="fill:#b4d0cd"/><g style="font-family:'Helvetica Neue',sans-serif-light,Helvetica,sans-serif"><rect width="1298" height="1140" x="501" y="81" rx="15" style="fill:#313333;stroke:#a6bbb9;stroke-width:1px"/><rect width="1296" height="57" x="502" y="82" rx="15" style="fill:#404242;stroke:#787979;stroke-width:1px;clip-path:inset(0 0 15px)"/><path d="M501 124h1298v1H501z" style="fill:none;stroke:#000;stroke-opacity:.89;stroke-width:.5px"/><text x="502" y="82" dx="649" dy="28" style="font-family:'Helvetica Neue',Helvetica,sans-serif;font-weight:700;font-size:20px;fill:#bcbebe" text-anchor="middle">e2 SAT Editor</text><ellipse cx="523" cy="103" rx="8.8" style="fill:#ff5f5a;stroke:none;stroke-opacity:.1"/><ellipse cx="553" cy="103" rx="8.8" style="fill:#febc2e;stroke:none;stroke-opacity:.1"/><ellipse cx="584" cy="103" rx="8.8" style="fill:#28c840;stroke:none;stroke-opacity:.1"/><path d="M502 125h1296v67H502z" style="fill:#2f3131"/><path d="M502 125h120v67H502z" style="fill:#485352"/><rect width="112" height="53" x="502" y="131" rx="0" style="fill:url(#bqm);stroke:#fff;stroke-opacity:.23;stroke-width:1.5px"/><use href="#aad" style="fill:#dad4d6" transform="matrix(.26 0 0 .26 508 149)"/><text x="502" y="131" dx="27" dy="33" style="font-weight:700;font-size:19px;fill:#fff;fill-opacity:.89">New Tab</text><path d="M622 125h1v67h-1z" style="fill:#3a5165"/><path d="M623 124h157v69H623z" style="fill:#323232;stroke:#3e3e3e;stroke-width:1.5px;clip-path:inset(1px 0)"/><text x="623" y="124" dx="15" dy="41" style="font-size:20px;fill:#fff">enigma_db</text><use href="#cce" style="fill:#646464" transform="matrix(.2 0 0 .2 755 152)"/><path d="M780 124h292v69H780z" style="fill:#2a4f7b;stroke:#234065;stroke-width:1.5px;clip-path:inset(1px 0)"/><use href="#pjw" style="fill:#fff" transform="matrix(.38 0 0 .38 792 144)"/><text x="780" y="124" dx="46" dy="41" style="font-size:20px;fill:#fff">enigma_db - Picons <tspan style="font-size:15px">…</tspan></text><use href="#cce" style="fill:#fff" transform="matrix(.2 0 0 .2 1048 152)"/><path d="M1072 124h154v69h-154z" style="fill:#323232;stroke:#3e3e3e;stroke-width:1.5px;clip-path:inset(1px 0)"/><text x="1072" y="124" dx="15" dy="41" style="font-size:20px;fill:#fff">neutrino</text><use href="#cce" style="fill:#646464" transform="matrix(.2 0 0 .2 1202 152)"/><path d="M1226 124h292v69h-292z" style="fill:#323232;stroke:#3e3e3e;stroke-width:1.5px;clip-path:inset(1px 0)"/><use href="#tmw" style="fill:#fff" transform="matrix(.38 0 0 .38 1238 144)"/><text x="1226" y="124" dx="46" dy="41" style="font-size:20px;fill:#fff">enigma_db - Edit Set<tspan style="font-size:15px">…</tspan></text><use href="#cce" style="fill:#646464" transform="matrix(.2 0 0 .2 1495 152)"/><path d="M1518 124h256v69h-256z" style="fill:#323232;stroke:#3e3e3e;stroke-width:1.5px;clip-path:inset(1px 0)"/><use href="#cbw" style="fill:#fff" transform="matrix(.38 0 0 .38 1531 144)"/><text x="1518" y="124" dx="46" dy="41" style="font-size:20px;fill:#fff">enigma_db - Cha<tspan style="font-size:15px">…</tspan></text><path d="M1773 125h1v67h-1z" style="fill:#3a3a3a"/><path d="M1748 125.5h23v66h-23z" style="fill:#323232;stroke:#3e3e3e;stroke-width:1.5px"/><g style="opacity:.25"><use href="#apw" style="fill:#fff;stroke:#fff;stroke-width:2.7px" transform="matrix(0 .3 -.3 0 1771.2 150)"/></g><path d="M1772 125.5h23v66h-23z" style="fill:#323232;stroke:#3e3e3e;stroke-width:1.5px"/><use href="#apw" style="fill:#fff;stroke:#fff;stroke-width:2.7px" transform="matrix(0 -.3 .3 0 1774.1 169.1)"/><path d="M502 192h1296v100H502z" style="fill:#313333"/><use href="#fgn" style="fill:#c7c8c8" transform="matrix(.38 0 0 .38 526 217)"/><text x="510" y="192" dx="69" dy="59" style="font-size:26px;fill:#fff;fill-opacity:.89;text-shadow:0 .5px 1px #090909">Open</text><use href="#fhe" style="fill:#c7c8c8" transform="matrix(.38 0 0 .38 679 217)"/><text x="664" y="192" dx="69" dy="59" style="font-size:26px;fill:#fff;fill-opacity:.89;text-shadow:0 .5px 1px #090909">Save</text><path d="M826 212h1v61h-1z" style="fill:none;stroke:#fff;stroke-opacity:.3;stroke-dasharray:1px,3px"/><use href="#fet" style="fill:#c7c8c8" transform="matrix(.38 0 0 .38 844 217)"/><text x="828" y="192" dx="69" dy="59" style="font-size:26px;fill:#fff;fill-opacity:.89;text-shadow:0 .5px 1px #090909">Import</text><use href="#fdt" style="fill:#c7c8c8" transform="matrix(.38 0 0 .38 1012 217)"/><text x="994" y="192" dx="69" dy="59" style="font-size:26px;fill:#fff;fill-opacity:.89;text-shadow:0 .5px 1px #090909">Export</text><path d="M1176 212h1v61h-1z" style="fill:none;stroke:#fff;stroke-opacity:.3;stroke-dasharray:1px,3px"/><use href="#sls" style="fill:#c7c8c8" transform="matrix(.38 0 0 .38 1193 217)"/><text x="1178" y="192" dx="69" dy="59" style="font-size:26px;fill:#fff;fill-opacity:.89;text-shadow:0 .5px 1px #090909">Settings</text><rect width="125" height="30" x="1473" y="224" rx="8" style="fill:#fff;fill-opacity:.24;stroke:url(#brm);stroke-width:.4px;filter:url(#btm)"/><rect width="24" height="24" x="1570.5" y="227" rx="8" style="fill:url(#bsm);stroke:url(#brm);stroke-opacity:.06;stroke-width:2px"/><use href="#anm" style="fill:#fff" transform="matrix(.16 0 0 .16 1577.4 229.7)"/><use href="#anm" style="fill:#fff" transform="matrix(.16 0 0 -.16 1577.4 248.7)"/><text x="1473" y="224" dx="12" dy="22" style="font-size:20px;fill:#fff;fill-opacity:.92">Default</text><text x="1617" y="192" dx="15" dy="59" style="font-size:26px;fill:#fff;fill-opacity:.89;text-shadow:0 .5px 1px #090909">Connect</text><g transform="matrix(.9 0 0 .95 1770 234)"><use href="#aow" style="fill:#646464" transform="rotate(90) scale(.23)"/><use href="#aow" style="fill:#646464" transform="matrix(0 .23 -.23 0 9.4 0)"/></g><path d="M500 192h1300v100H500z" style="fill:none;stroke:#324040;stroke-width:2.4px;clip-path:inset(0 2px)"/><path d="M502 291h1296v835H502z" style="fill:#2f3131"/><text x="502" y="291" dx="10" dy="32" style="font-weight:700;font-size:20px;fill:#fff">Picons</text><use href="#liu" style="fill:#c7c7c7" transform="matrix(.38 0 0 .38 1751 303)"/><path d="M502 346h1296v687H502z" style="fill:#171717"/><rect width="220" height="171" x="526" y="371" rx="16" style="fill:none;stroke:#272727;stroke-width:11px;stroke-dasharray:15px,0,48px,16px"/><rect width="130" height="75" x="570" y="399" rx="6" style="fill:url(#pwg);stroke:#aaabbb;stroke-width:1.7px"/><path d="M0 0h273v88H0z" style="fill:#f5b4e4" transform="matrix(.34 0 0 .34 588 422)"/><path d="M188 0h85v88h-85z" style="fill:#ff9689" transform="matrix(.34 0 0 .34 588 422)"/><g style="font-family:Arial,Helvetica,sans-serif;font-weight:700"><text x="18" dy="73" style="font-size:80px;letter-spacing:2px" transform="matrix(.37 0 0 .34 588 422)">NTI</text><text x="185" dy="81" style="font-size:88px" transform="matrix(.4 0 0 .3 580.52 422)">1</text></g><text x="526" y="493" dx="106" dy="18" style="font-size:18px;fill:#fff" text-anchor="middle">NTI 1</text><rect width="220" height="171" x="792" y="371" rx="16" style="fill:none;stroke:#272727;stroke-width:11px;stroke-dasharray:15px,0,48px,16px"/><rect width="130" height="75" x="837" y="399" rx="6" style="fill:url(#pwg);stroke:#aaabbb;stroke-width:1.7px"/><path d="M0 0h273v88H0z" style="fill:#f5b4e4" transform="matrix(.34 0 0 .34 856 422)"/><path d="M188 0h85v88h-85z" style="fill:#ff9689" transform="matrix(.34 0 0 .34 856 422)"/><g style="font-family:Arial,Helvetica,sans-serif;font-weight:700"><text x="18" dy="73" style="font-size:80px;letter-spacing:2px" transform="matrix(.37 0 0 .34 856 422)">NTI</text><text x="185" dy="81" style="font-size:102px;stroke:#000;stroke-width:2px" transform="matrix(.32 0 0 .26 864.84 425.4)">2</text></g><text x="792" y="493" dx="108" dy="18" style="font-size:18px;fill:#fff" text-anchor="middle">NTI 2</text><rect width="220" height="171" x="1058" y="371" rx="16" style="fill:none;stroke:#272727;stroke-width:11px;stroke-dasharray:15px,0,48px,16px"/><rect width="130" height="75" x="1103" y="399" rx="6" style="fill:url(#pwg);stroke:#aaabbb;stroke-width:1.7px"/><path d="M256 21h93v65h-93z" style="fill:#cb0000" transform="matrix(.32 0 0 .32 1111 420)"/><text x="10" dy="78" style="font-family:cursive,serif;font-size:96px;fill:#cb0000" transform="matrix(.32 0 0 .32 1111 420)">image</text><text x="262" dy="78" style="font-family:Arial,Helvetica,sans-serif;font-weight:700;font-size:50px;fill:#eee" transform="matrix(.32 0 0 .32 1111 420)">4K</text><text x="1058" y="493" dx="108" dy="18" style="font-size:18px;fill:#fff" text-anchor="middle">Image 4K</text><rect width="220" height="171" x="1324" y="371" rx="16" style="fill:none;stroke:#272727;stroke-width:11px;stroke-dasharray:15px,0,48px,16px"/><rect width="130" height="75" x="1369" y="399" rx="6" style="fill:url(#pwg);stroke:#aaabbb;stroke-width:1.7px"/><path d="M50 4h180v180H50z" style="fill:#881" transform="matrix(.23 0 0 .23 1401 415)"/><path d="M2 28h274v134H2z" style="fill:#881" transform="matrix(.23 0 0 .23 1401 415)"/><text x="50" y="38" dy="80" style="font-family:'Times New Roman',Times,sans-serif;font-weight:700;font-size:122px;letter-spacing:-4px;fill:#fff;stroke:#fff;stroke-width:4px" transform="matrix(.3 0 0 .28 1401 415)">22</text><text x="1324" y="493" dx="109" dy="18" style="font-size:18px;fill:#fff" text-anchor="middle">VIDEO 22</text><rect width="223" height="174" x="525" y="579" rx="20" style="fill:#023acd"/><rect width="220" height="171" x="526" y="580" rx="16" style="fill:none;stroke:#272727;stroke-width:11px;stroke-dasharray:15px,0,48px,16px"/><use href="#pvn" transform="matrix(.9 0 0 .9 566.5 608)"/><text x="526" y="701" dx="106" dy="18" style="font-size:18px;fill:#fff" text-anchor="middle">7 Channel</text><rect width="220" height="171" x="792" y="580" rx="16" style="fill:none;stroke:#272727;stroke-width:11px;stroke-dasharray:15px,0,48px,16px"/><rect width="130" height="75" x="837" y="609" rx="6" style="fill:url(#pwg);stroke:#aaabbb;stroke-width:1.7px"/><g transform="matrix(.13 0 0 .13 849 631)"><ellipse cx="186" cy="116" rx="178" ry="118" style="fill:#64d8b1"/><g style="font-family:Arial,Helvetica,sans-serif"><text x="42" dy="140" style="font-weight:700;font-size:102px;letter-spacing:-1px;stroke:#000;stroke-width:4px;font-style:italic" transform="scale(1 1.2)">RIBA</text><text x="389" dy="142" style="font-size:100px;stroke:#000;stroke-width:5px" transform="scale(1 1.2)">SPORTS</text></g></g><text x="792" y="701" dx="110" dy="18" style="font-size:18px;fill:#fff" text-anchor="middle">RIBA Sports</text><rect width="220" height="171" x="1058" y="580" rx="16" style="fill:none;stroke:#272727;stroke-width:11px;stroke-dasharray:15px,0,48px,16px"/><rect width="130" height="75" x="1103" y="609" rx="6" style="fill:url(#pwg);stroke:#aaabbb;stroke-width:1.7px"/><g transform="matrix(.13 0 0 .13 1109 631)"><ellipse cx="186" cy="116" rx="178" ry="118" style="fill:#64d8b1"/><g style="font-family:Arial,Helvetica,sans-serif"><text x="42" dy="140" style="font-weight:700;font-size:102px;letter-spacing:-1px;stroke:#000;stroke-width:4px;font-style:italic" transform="scale(1 1.2)">RIBA</text><text x="389" dy="142" style="font-size:100px;stroke:#000;stroke-width:5px" transform="scale(1 1.2)">PREMIERE</text></g></g><text x="1058" y="701" dx="107" dy="18" style="font-size:18px;fill:#fff" text-anchor="middle">RIBA Premiere</text><rect width="220" height="171" x="1324" y="580" rx="16" style="fill:none;stroke:#272727;stroke-width:11px;stroke-dasharray:15px,0,48px,16px"/><rect width="130" height="75" x="1369" y="609" rx="6" style="fill:url(#pwg);stroke:#aaabbb;stroke-width:1.7px"/><g transform="matrix(.21 0 0 .21 1385 634)"><rect width="462" height="120" rx="48" style="fill:#771"/><g style="font-family:Arial,Helvetica,sans-serif;font-size:96px"><text x="32" dy="96" style="fill:#fff;stroke:#fff;stroke-width:6px" transform="scale(.9 1)">SERIAL</text><text x="412" dy="96" style="letter-spacing:8px;fill:#fff;stroke:#fff;stroke-width:6px" transform="matrix(.8 0 0 1 0 -.9)">TV</text></g></g><text x="1324" y="701" dx="106" dy="18" style="font-size:18px;fill:#fff" text-anchor="middle">Serial TV</text><rect width="220" height="171" x="526" y="788" rx="16" style="fill:none;stroke:#272727;stroke-width:11px;stroke-dasharray:15px,0,48px,16px"/><rect width="130" height="75" x="570" y="818" rx="6" style="fill:url(#pwg);stroke:#aaabbb;stroke-width:1.7px"/><g transform="matrix(.31 0 0 .31 592 837)"><rect width="275" height="102" rx="24" style="fill:#fff"/><rect width="106" height="102" rx="24" style="fill:#7ec6d6"/><text x="16" dy="102" style="font-family:'Times New Roman',Times,sans-serif;font-weight:700;font-size:150px;fill:#333">Q</text><text x="224" dy="84" style="font-family:Arial,Helvetica,sans-serif;font-weight:700;font-size:72px;letter-spacing:1px;fill:#4f4f4f" transform="scale(.6 1)">NEWS</text></g><text x="526" y="911" dx="106" dy="18" style="font-size:18px;fill:#fff" text-anchor="middle">Q NEWS</text><rect width="220" height="171" x="792" y="788" rx="16" style="fill:none;stroke:#272727;stroke-width:11px;stroke-dasharray:15px,0,48px,16px"/><rect width="130" height="75" x="837" y="818" rx="6" style="fill:url(#pwg);stroke:#aaabbb;stroke-width:1.7px"/><path d="M433 0h96v96h-96z" style="fill:#099" transform="matrix(.21 0 0 .21 846 846)"/><text dy="80" style="font-family:Arial,Helvetica,sans-serif;font-weight:700;font-size:96px;letter-spacing:-3px;fill:#333" transform="matrix(.21 0 0 .21 846 846)">Shopping</text><text x="433" dx="8" dy="80" style="font-family:'Times New Roman',Times,sans-serif;font-weight:700;font-size:99px;fill:#fff;stroke:#fff;stroke-width:5px" transform="matrix(.21 0 0 .21 846 846)">G</text><text x="792" y="911" dx="107" dy="18" style="font-size:18px;fill:#fff" text-anchor="middle">Shopping G</text><rect width="220" height="171" x="1058" y="788" rx="16" style="fill:none;stroke:#272727;stroke-width:11px;stroke-dasharray:15px,0,48px,16px"/><use href="#pvn" transform="matrix(.9 0 0 .9 1099.5 816)"/><text x="1058" y="911" dx="107" dy="18" style="font-size:18px;fill:#fff" text-anchor="middle">Service 1120</text><rect width="220" height="171" x="1324" y="788" rx="16" style="fill:none;stroke:#272727;stroke-width:11px;stroke-dasharray:15px,0,48px,16px"/><rect width="130" height="75" x="1369" y="818" rx="6" style="fill:url(#pwg);stroke:#aaabbb;stroke-width:1.7px"/><text dy="96" style="font-family:Arial,Helvetica,sans-serif;font-weight:700;font-size:97px;fill:#600900;stroke-width:1px" transform="matrix(.15 0 0 .2 1377 844)">GLOBALFLARE</text><text x="1324" y="911" dx="109" dy="18" style="font-size:18px;fill:#fff" text-anchor="middle">Globalflare HD</text><rect width="12" height="44" x="1782" y="349" rx="7" style="fill:#8b8b8b"/><path d="M502 992h1296v61H502z" style="fill:#101010"/><rect width="136" height="30" x="513" y="1004" rx="8" style="fill:#fff;fill-opacity:.24;stroke:url(#brm);stroke-width:.4px;filter:url(#btm)"/><text x="513" y="1004" dx="12" dy="22" style="font-size:20px;fill:#fff;fill-opacity:.92">Name</text><rect width="24" height="24" x="621.5" y="1007" rx="8" style="fill:url(#bsm);stroke:url(#brm);stroke-opacity:.06;stroke-width:2px"/><use href="#anm" style="fill:#fff" transform="matrix(.16 0 0 .16 628.4 1009.7)"/><use href="#anm" style="fill:#fff" transform="matrix(.16 0 0 -.16 628.4 1028.7)"/><rect width="208" height="33" x="656" y="1003" rx="0" style="fill:#fff;fill-opacity:.08;stroke:#fff;stroke-opacity:.11;stroke-width:4px;clip-path:inset(3px 3px .4px)"/><text x="656" y="1003" dx="4" dy="23" style="font-size:19px;fill:#fff">riba</text><rect width="82" height="33" x="874" y="1003" rx="4" style="fill:#323232"/><text x="874" y="1003" dx="40" dy="23" style="font-size:19px;fill:#fff;fill-opacity:.78" text-anchor="middle">Find</text><rect width="166" height="33" x="965" y="1003" rx="4" style="fill:#323232"/><text x="965" y="1003" dx="83" dy="23" style="font-size:19px;fill:#fff;fill-opacity:.78" text-anchor="middle">Find Previous</text><rect width="110" height="33" x="1140" y="1003" rx="4" style="fill:#323232"/><text x="1140" y="1003" dx="55" dy="23" style="font-size:19px;fill:#fff;fill-opacity:.78" text-anchor="middle">Find All</text><rect width="126" height="31" x="1283" y="1004" rx="4" style="fill:#25456c;stroke:#d1d2d2;stroke-width:1px"/><text x="1283" y="1004" dx="62" dy="22" style="font-size:18px;fill:#fff;fill-opacity:.9" text-anchor="middle">Highlight</text><use href="#cce" style="fill:#c7c7c7" transform="matrix(.23 0 0 .23 1764 1013)"/><path d="M502 1054h1296v73H502z" style="fill:#202121"/><path d="M500 1053h1300v73H500z" style="fill:none;stroke:#2d2e2e;stroke-width:2.4px;clip-path:inset(0 2px 2px)"/><text x="509" y="1072" dx="4" dy="23" style="font-size:19px;fill:#fff">Folder</text><rect width="208" height="33" x="580" y="1072" fill="none" rx="0" style="fill:#fff;fill-opacity:0;stroke:#fff;stroke-opacity:.13;stroke-width:4px;clip-path:inset(2.8px 2.8px .4px)"/><rect width="126" height="32" x="800" y="1072" rx="8" style="fill:#fff;fill-opacity:.24;stroke:url(#brm);stroke-width:.4px;filter:url(#btm)"/><text x="800" y="1072" dx="24" dy="22" style="font-size:20px;fill:#fff;fill-opacity:.78">Browse<tspan style="font-size:15px">…</tspan></text><rect width="128" height="32" x="1652" y="1072" rx="8" style="fill:#fff;fill-opacity:.24;stroke:url(#brm);stroke-width:.4px;filter:url(#btm)"/><use href="#skh" style="fill:#c7c7c7" transform="matrix(.38 0 0 .38 1664 1075)"/><text x="1652" y="1072" dx="46" dy="22" style="font-size:20px;fill:#fff;fill-opacity:.78">Find<tspan style="font-size:15px">…</tspan></text><path d="M500 291h1300v836H500z" style="fill:none;stroke:#404242;stroke-width:2.4px;clip-path:inset(0 2px)"/><rect width="1296" height="56" x="502" y="1164" rx="15" style="fill:#2f3131;clip-path:inset(15px 0 0)"/><path d="M500 1179h1300v42H500z" style="fill:none;stroke:#404242;stroke-width:2.5px;clip-path:inset(0 2px 42px)"/><text x="502" y="1179" dx="29" dy="29" style="font-size:20px;fill:#fff">Filename: ribasports.png</text><use href="#ffo" style="fill:#fff;fill-opacity:.76" transform="matrix(.38 0 0 .38 1741 1188)"/><rect width="1298" height="1140" x="501" y="81" rx="15" style="fill:none;stroke:#a6bbb9;stroke-width:1px"/><rect width="1294" height="1136" x="503" y="83" rx="15" style="fill:none;stroke:#fff;stroke-opacity:.24;stroke-width:1px"/></g><rect width="211" height="212" x="119.3" y="680.5" rx="10" style="fill:#101;fill-opacity:.26;stroke:#b1b2b3;stroke-width:3px"/><g style="clip-path:polygon(-4% -56%,104% 30%,104% 104%,-4% 104%)"><g style="filter:url(#ixm)"><rect width="132" height="171" x="159" y="701" rx="7" style="fill:#f4f3f1"/></g></g><g style="clip-path:polygon(-13%0,108% 120%,200% 200%,-200% 200%)"><g style="filter:url(#iym)"><rect width="51" height="55" x="246" y="693" rx="8" style="fill:#f4f3f1;clip-path:polygon(0 13%,90% 100%,0 100%,0 0)"/></g></g><text x="159" y="837" dx="67" dy="20" style="font-family:'Helvetica Neue',sans-serif-thin,Helvetica,sans-serif;font-weight:300;font-size:26px;letter-spacing:2px;fill:#707080;stroke:#707080;stroke-width:1.5px" text-anchor="middle">PNG</text><path d="M0 0h114v39H0z" style="fill:#fff" transform="matrix(.95 0 0 .95 170.6 762)"/><g transform="matrix(.2 0 0 .2 175.35 766.75)"><path d="M-4-4h483v141H-4z" style="fill:#0be"/><circle cx="67" cy="67" r="67" style="fill:#fff"/><text x="18" dy="107" style="font-family:Arial,Helvetica,sans-serif;font-size:122px;fill:#00afef;stroke:#00afef;stroke-width:10px" transform="matrix(1.3 0 0 1.2 1 0)">7</text><text x="315" dy="121" style="font-family:'Times New Roman',Times,sans-serif;font-weight:700;font-size:144px;letter-spacing:-2px;fill:#fff" transform="scale(.45 1)">CHANNEL</text></g><rect width="116" height="32" x="166" y="899" rx="5" style="fill:#023acd"/><text x="108" y="903" dx="116" dy="19" style="font-family:'Helvetica Neue',Helvetica,sans-serif;font-weight:700;font-size:23px;letter-spacing:-.5px;fill:#f5f6f7;text-shadow:none" text-anchor="middle">picon.png</text><g style="fill:none;stroke:#0bbbcc;stroke-width:22px"><path d="M290.5 341.282q144-282 219 219" style="marker-end:url(#aud)" transform="matrix(.8 -.8 .5 .6 -192 686)"/></g></svg>