<svg xmlns="http://www.w3.org/2000/svg" style="pointer-events:none;user-select:none" viewBox="0 0 1880 1300"><defs><symbol id="aad"><path d="M37.8 37.8h18V26.3h-18V8H26.3v18.1H8v11.6h18.1v18h11.6v-18z"/></symbol><symbol id="fbt"><path d="M56.3 31H13.8A13 13 0 0 0 1 44v61.3c0 7 5.7 12.8 12.8 12.8h54.5c7 0 12.8-5.8 12.8-12.8v-51c-16.6 14-16.6 30.2-17 36.9a6.8 6.8 0 0 1-11.7 4.4C38 81 36.3 52.4 56.3 31.1zm1 59.7c-14.6-14.7-13-46 15.2-64.3L62.2 14l42.8 1-7.3 41.4-11.8-14C57.8 59.3 57.8 82 57.3 90.6z"/></symbol><symbol id="lcu"><path d="M56.3 57.4c0-2.4-2-4.3-4.4-4.3H12.1a4.3 4.3 0 0 0 0 8.6h39.8c2.4 0 4.4-1.9 4.4-4.3zm0-12.5c0-2.4-2-4.3-4.4-4.3H12.1a4.3 4.3 0 0 0 0 8.6h39.8c2.4 0 4.4-2 4.4-4.3zm0-12.5c0-2.4-2-4.3-4.4-4.3H12.1a4.3 4.3 0 0 0 0 8.6h39.8c2.4 0 4.4-2 4.4-4.3zm-42.5-13V23h10.6v-5.8l2.3-1.4c2.3-1.8 3.4-4.1 3.4-6.4s-1-4.7-3.2-6.5c-1-.7-2-1.3-3-1.7l-1.4 1-.1 6c0 .4-.2.6-.4.7-.4.3-.9.4-1.5.4h-2.8c-.6 0-1.1-.1-1.5-.4-.2-.2-.4-.4-.4-.7V1.9l-1.3-1c-1 .5-2.1 1-3 1.7A8.2 8.2 0 0 0 8 9c0 2.3 1 4.7 3.2 6.5.8.6 1.6 1 2.5 1.4v2.6z"/></symbol><symbol id="sdh"><path d="M40 45.2a20.9 20.9 0 0 1-12.4 4.2A22.6 22.6 0 0 1 5.8 30.7 22.5 22.5 0 0 1 27.6 5.6c10 0 19.4 7.7 21.4 17.6A22 22 0 0 1 45 40l14 13.8-5.1 5.1L40 45.2zM27.4 14.6c-6.2.1-12 5.2-12.7 11.5-.6 5.4 2.7 11 7.8 13.2A13.3 13.3 0 0 0 39.8 31a13.2 13.2 0 0 0-12.4-16.3z"/></symbol><symbol id="ses"><path d="M74 15.4a50 50 0 0 0-19.7 0c.8 4 1.4 8.2 1.8 12.4-4.3 1-8.5 2.7-12.2 5.1-2.7-3.2-5.2-6.6-7.5-10.1a50 50 0 0 0-14 13.9c3.6 2.3 7 4.8 10.2 7.5a37.4 37.4 0 0 0-5 12.2c-4.2-.4-8.4-1-12.5-1.9a50 50 0 0 0 0 19.7 171 171 0 0 1 12.5-1.9c.9 4.4 2.6 8.5 5 12.3-3.2 2.7-6.6 5.2-10.1 7.5A50 50 0 0 0 36.4 106c2.3-3.5 4.8-6.9 7.5-10.1 3.7 2.4 7.9 4 12.2 5-.4 4.2-1 8.4-1.8 12.5a50 50 0 0 0 19.6 0c-.8-4.1-1.4-8.3-1.8-12.5 4.3-1 8.5-2.6 12.2-5 2.7 3.2 5.2 6.6 7.5 10.1a50 50 0 0 0 14-14c-3.6-2.2-7-4.7-10.2-7.4 2.4-3.8 4.1-7.9 5-12.3 4.2.5 8.4 1 12.5 2a50 50 0 0 0 0-19.8c-4.1.9-8.3 1.5-12.5 2-.9-4.4-2.6-8.6-5-12.3 3.2-2.7 6.6-5.2 10.1-7.5a50 50 0 0 0-13.9-14c-2.3 3.6-4.8 7-7.5 10.2a37.4 37.4 0 0 0-12.2-5c.4-4.3 1-8.4 1.8-12.5zM64 50.9a13.5 13.5 0 1 1 0 27 13.5 13.5 0 0 1 0-27z"/></symbol><symbol id="afm"><path d="M32 13.2c-1.7 0-3.3.7-4.6 2L2.9 39.5a6.5 6.5 0 0 0 9.2 9.2L32 29l19.9 19.8a6.5 6.5 0 0 0 9.2-9.2L36.6 15.1a7 7 0 0 0-4.6-1.9z"/></symbol><symbol id="cgk"><path d="m5.6 32 18.9 18.9 33.9-34-3.8-3.8-30.1 30.2-15.1-15L5.6 32z"/></symbol><linearGradient id="bhm" x1="0" x2="0" y1="0" y2="1"><stop offset="0" style="stop-color:#000;stop-opacity:.15"/><stop offset="1" style="stop-color:#000;stop-opacity:.19"/></linearGradient><linearGradient id="bim" x1="0" x2="0" y1="0" y2="1"><stop offset=".4" style="stop-color:#0095ff"/><stop offset="1" style="stop-color:#0d7bff"/></linearGradient><filter id="bjm" color-interpolation-filters="sRGB"><feDropShadow dx="0" dy="1.5" flood-opacity=".1" stdDeviation="1"/><feDropShadow dx="0" dy="0" flood-opacity=".2" stdDeviation=".8"/></filter><filter id="mkm" color-interpolation-filters="sRGB"><feDropShadow dx="-2" dy="19" flood-opacity=".1" stdDeviation="8"/><feDropShadow dx="0" dy="10" flood-opacity=".3" stdDeviation="23"/></filter></defs><rect width="1880" height="1300" style="fill:#b4d0cd"/><rect width="1880" height="1330" style="fill:#000;fill-opacity:.2"/><g style="font-family:&quot;Helvetica Neue&quot;,sans-serif-light,Helvetica,sans-serif;opacity:.8" transform="matrix(1.41 0 0 1.41 -656 -271)"><rect width="1718" height="1140" x="81" y="81" rx="15" style="fill:#e7e8e8;stroke:#191919;stroke-width:1px"/><rect width="1716" height="100" x="82" y="192" style="fill:#e7e8e8"/><text x="409" y="192" dx="69" dy="59" style="font-size:26px;fill:#000">Import</text><use href="#fbt" style="fill:#4c4c4c" transform="matrix(.38 0 0 .38 594 217)"/><text x="578" y="192" dx="69" dy="59" style="font-size:26px;fill:#000">Export</text><rect width="1" height="61" x="761" y="212" style="fill:none;stroke:#000;stroke-opacity:.3;stroke-dasharray:1px,3px"/><use href="#ses" style="fill:#4c4c4c" transform="matrix(.38 0 0 .38 779 217)"/><text x="763" y="192" dx="69" dy="59" style="font-size:26px;fill:#000">Settings</text><rect width="125" height="32" x="1045" y="222" rx="8" style="fill:#fff;stroke:url(#bhm);stroke-width:.4px;filter:url(#bjm)"/><rect width="26" height="26" x="1140.6" y="225" rx="8" style="fill:url(#bim);stroke:url(#bhm);stroke-opacity:.06;stroke-width:2px"/><use href="#afm" style="fill:#fff" transform="matrix(.19 0 0 .19 1147.4 227.2)"/><use href="#afm" style="fill:#fff" transform="matrix(.19 0 0 -.19 1147.4 249.8)"/><text x="1045" y="223" dx="12" dy="22" style="font-size:20px;fill:#000">Profile 1</text><text x="1193" y="192" dx="15" dy="59" style="font-size:26px;fill:#000">Connect</text><text x="1329" y="192" dx="15" dy="59" style="font-size:26px;fill:#000">Disconnect</text><rect width="1" height="61" x="1501" y="212" style="fill:none;stroke:#000;stroke-opacity:.3;stroke-dasharray:1px,3px"/><text x="1513" y="192" dx="15" dy="59" style="font-size:26px;fill:#000">Upload</text><text x="1633" y="192" dx="15" dy="59" style="font-size:26px;fill:#000">Download</text><rect width="1720" height="100" x="80" y="192" style="fill:none;stroke:#d0d0d0;stroke-width:2.4px;clip-path:inset(0 2px)"/><rect width="1716" height="807" x="82" y="291" style="fill:#f3f4f4"/><text x="473" y="291" dx="10" dy="32" style="font-weight:700;font-size:20px;fill:#000">Channels</text><use href="#lcu" style="fill:#505050" transform="matrix(.38 0 0 .38 1751 303)"/><rect width="1325" height="26" x="473" y="340" style="fill:#ececec"/><text x="473" y="340" dy="18" style="font-size:17px;fill:#000"><tspan x="479">Index</tspan> <tspan x="578">Name</tspan></text><rect width=".5" height="19" x="571" y="343" style="fill:none;stroke:#c7c7c7;stroke-width:1px"/><rect width="1325" height="659" x="473" y="366" style="fill:#fff"/><rect width="1325" height="49" x="473" y="707" style="fill:#0044e2"/><text x="473" y="366" dy="31" style="font-size:19px;fill:#000"><tspan x="500">38</tspan> <tspan x="580">Giallo HD HD</tspan></text><text x="473" y="415" dy="31" style="font-size:19px;fill:#000"><tspan x="500">39</tspan> <tspan x="580">TOPcrime HD</tspan></text><text x="473" y="464" dy="31" style="font-size:19px;fill:#000"><tspan x="500">40</tspan> <tspan x="580">Boing HD</tspan></text><text x="473" y="512" dy="31" style="font-size:19px;fill:#000"><tspan x="500">41</tspan> <tspan x="580">K2</tspan></text><text x="473" y="561" dy="31" style="font-size:19px;fill:#000"><tspan x="500">42</tspan> <tspan x="580">Rai Gulp HD</tspan></text><text x="473" y="610" dy="31" style="font-size:19px;fill:#000"><tspan x="500">43</tspan> <tspan x="580">Rai YoYo HD</tspan></text><text x="473" y="658" dy="31" style="font-size:19px;fill:#000"><tspan x="500">44</tspan> <tspan x="580">Frisbee</tspan></text><text x="473" y="707" dy="31" style="font-size:19px;fill:#fff"><tspan x="500">45</tspan> <tspan x="580">NASA+</tspan></text><text x="473" y="756" dy="31" style="font-size:19px;fill:#000"><tspan x="500">46</tspan> <tspan x="580">Cartoonito HD</tspan></text><text x="473" y="805" dy="31" style="font-size:19px;fill:#000"><tspan x="500">47</tspan> <tspan x="580">Super!</tspan></text><text x="473" y="854" dy="31" style="font-size:19px;fill:#000"><tspan x="500">48</tspan> <tspan x="580">Rai News 24 HD</tspan></text><text x="473" y="902" dy="31" style="font-size:19px;fill:#000"><tspan x="500">49</tspan> <tspan x="580">Mediaset Italia2 HD</tspan></text><text x="473" y="951" dy="31" style="font-size:19px;fill:#000"><tspan x="500">50</tspan> <tspan x="580">Sky TG24</tspan> <tspan x="990">90</tspan> <tspan x="1114">512</tspan> <tspan x="1235">H.264</tspan> <tspan x="1433">Persidera</tspan> <tspan x="1703">DVB-T</tspan></text><text x="473" y="997" dy="31" style="font-size:19px;fill:#000"><tspan x="500">51</tspan> <tspan x="580">TGCOM24 HD</tspan> <tspan x="990">128</tspan> <tspan x="1114">1200</tspan> <tspan x="1235">HD</tspan> <tspan x="1433">Mediaset</tspan> <tspan x="1703">DVB-S2</tspan></text><rect width="12" height="77" x="1782" y="541" rx="7" style="fill:#7f7f7f"/><rect width="1325" height="73" x="473" y="1026" style="fill:#f7f8f8"/><rect width="1329" height="73" x="471" y="1025" style="fill:none;stroke:#e9eaea;stroke-width:2.4px;clip-path:inset(0 2px 2px)"/><use href="#aad" style="fill:#545454" transform="matrix(.26 0 0 .26 492 1052)"/><text x="487" y="1036" dx="28" dy="33" style="font-weight:700;font-size:21px;fill:#000">Channel</text><use href="#aad" style="fill:#545454" transform="matrix(.26 0 0 .26 625 1052)"/><text x="621" y="1036" dx="28" dy="33" style="font-weight:700;font-size:21px;fill:#000">Stream</text><use href="#aad" style="fill:#545454" transform="matrix(.26 0 0 .26 746 1052)"/><text x="742" y="1036" dx="28" dy="33" style="font-weight:700;font-size:21px;fill:#000">Marker</text><g style="opacity:.24"><use href="#aad" style="fill:#545454" transform="matrix(.26 0 0 .26 867 1052)"/><text x="862" y="1036" dx="28" dy="33" style="font-weight:700;font-size:21px;fill:#000">Service</text></g><rect width="135" height="32" x="993" y="1044" rx="8" style="fill:#fff;stroke:url(#bhm);stroke-width:.4px;filter:url(#bjm)"/><text x="993" y="1044" dx="22" dy="22" style="font-size:20px;fill:#000">Reference</text><g style="opacity:.24"><rect width="147" height="32" x="1157" y="1044" rx="8" style="fill:#fff;stroke:url(#bhm);stroke-width:.4px;filter:url(#bjm)"/><text x="1157" y="1044" dx="25" dy="22" style="font-size:20px;fill:#000">Drag&amp;Drop</text></g><rect width="128" height="32" x="1652" y="1044" rx="8" style="fill:#fff;stroke:url(#bhm);stroke-width:.4px;filter:url(#bjm)"/><use href="#sdh" style="fill:#545454" transform="matrix(.38 0 0 .38 1664 1047)"/><text x="1652" y="1044" dx="46" dy="22" style="font-size:20px;fill:#000">Find<tspan style="font-size:15px">…</tspan></text><rect width="1720" height="807" x="80" y="291" style="fill:none;stroke:#d5d6d6;stroke-width:2.4px;clip-path:inset(0 2px)"/><rect width="1718" height="1140" x="81" y="81" style="fill:#000;opacity:.1"/></g><g style="font-family:&quot;Helvetica Neue&quot;,sans-serif-light,Helvetica,sans-serif" transform="matrix(1.41 0 0 1.41 321 189)"><rect width="1061" height="650" x="1" y="1" rx="15" style="fill:#f3f4f4;stroke:#191919;stroke-width:1.088px;filter:url(#mkm)"/><rect width="1059" height="57" x="2" y="2" rx="15" style="fill:#f8f9f9;stroke:#fff;stroke-width:1px;clip-path:inset(0 0 15px)"/><rect width="1061" height="1" x="1" y="44" style="fill:none;stroke:#cdcece;stroke-width:.5px"/><text x="2" y="2" dx="529" dy="28" style="font-family:&quot;Helvetica Neue&quot;,Helvetica,sans-serif;font-weight:700;font-size:20px;fill:#494949" text-anchor="middle">Add Channel</text><ellipse cx="21" cy="23" rx="8.8" style="fill:#ff5f5a;stroke:#000;stroke-opacity:.1"/><ellipse cx="52" cy="23" rx="8.8" style="fill:#dedfcf;stroke:#000;stroke-opacity:.1"/><ellipse cx="83" cy="23" rx="8.8" style="fill:#28c840;stroke:#000;stroke-opacity:.1"/><use href="#afm" style="fill:#252525" transform="matrix(-.26 0 0 .26 971 53)"/><text x="976" y="51" dy="15" style="font-weight:700;font-size:16.5px;fill:#252525">collapse</text><rect width="227" height="507" x="1" y="75" style="fill:#e7e8e8"/><text x="1" y="76" dx="22" dy="38" style="font-size:22.5px">Services</text><text x="1" y="136" dx="22" dy="38" style="font-size:22.5px">Bouquets</text><text x="1" y="197" dx="22" dy="38" style="font-size:22.5px">Positions</text><rect width="227" height="60" x="1" y="257" style="fill:#d5d6d6"/><text x="1" y="257" dx="22" dy="38" style="font-size:22.5px">Providers</text><text x="1" y="318" dx="22" dy="38" style="font-size:22.5px">Resolution</text><text x="1" y="379" dx="22" dy="38" style="font-size:22.5px">Encryption</text><text x="1" y="438" dx="22" dy="38" style="font-size:22.5px">A-Z</text><rect width="263" height="507" x="228" y="75" style="fill:#fff"/><rect width="263" height="34" x="228" y="347" style="fill:#ebebeb"/><text x="255" y="75" dy="29" style="font-size:19.5px">M7 Group</text><text x="255" y="108" dy="29" style="font-size:19.5px">MB Satellite</text><text x="255" y="141" dy="29" style="font-size:19.5px">MCEU</text><text x="255" y="175" dy="29" style="font-size:19.5px">MTHREE SATCOM</text><text x="255" y="208" dy="29" style="font-size:19.5px">Mediaset</text><text x="255" y="241" dy="29" style="font-size:19.5px">NOVA</text><text x="255" y="274" dy="29" style="font-size:19.5px">NURTS</text><text x="255" y="306" dy="29" style="font-size:19.5px">Nimbus</text><text x="255" y="341" dy="29" style="font-size:19.5px">NoName</text><text x="255" y="378" dy="29" style="font-size:19.5px">Persidera</text><text x="255" y="412" dy="29" style="font-size:19.5px">PlayBox Neo Suite</text><text x="255" y="446" dy="29" style="font-size:19.5px">RAI</text><text x="255" y="479" dy="29" style="font-size:19.5px">Radio RTR</text><text x="255" y="512" dy="29" style="font-size:19.5px">Radio Television Suisse</text><text x="255" y="544" dy="29" style="font-size:19.5px">Radio ZET Gold</text><rect width="12" height="94" x="477" y="299" rx="7" style="fill:#000;fill-opacity:.46"/><ellipse cx="496.3" cy="329.4" rx="4" style="fill:#dadbdb"/><rect width="559" height="26" x="502" y="75" style="fill:#ececec"/><text x="502" y="75" dy="18" style="font-size:17px;fill:#000"><tspan x="508">Index</tspan> <tspan x="596">Name</tspan> <tspan x="822">Type</tspan> <tspan x="937">Provider</tspan></text><rect width=".5" height="19" x="589" y="78" style="fill:none;stroke:#c7c7c7;stroke-width:1px"/><rect width=".5" height="19" x="815" y="78" style="fill:none;stroke:#c7c7c7;stroke-width:1px"/><rect width=".5" height="19" x="929" y="78" style="fill:none;stroke:#c7c7c7;stroke-width:1px"/><rect width="559" height="481" x="502" y="101" style="fill:#fff"/><rect width="559" height="34" x="502" y="469" style="fill:#0044e2"/><text x="502" y="95" dy="29" style="font-size:19.5px;opacity:.25"><tspan x="528">26</tspan> <tspan x="597">CH4441</tspan> <tspan x="823">Data</tspan> <tspan x="938">NoName</tspan></text><text x="502" y="128" dy="29" style="font-size:19.5px;opacity:.25"><tspan x="528">27</tspan> <tspan x="597">CH4442</tspan> <tspan x="823">Data</tspan> <tspan x="938">NoName</tspan></text><text x="502" y="162" dy="29" style="font-size:19.5px;opacity:.25"><tspan x="528">28</tspan> <tspan x="597">CH4443</tspan> <tspan x="823">Data</tspan> <tspan x="938">NoName</tspan></text><text x="502" y="195" dy="29" style="font-size:19.5px;opacity:.25"><tspan x="528">29</tspan> <tspan x="597">CH4445</tspan> <tspan x="823">Data</tspan> <tspan x="938">NoName</tspan></text><text x="502" y="228" dy="29" style="font-size:19.5px;opacity:.25"><tspan x="528">30</tspan> <tspan x="597">CH4447</tspan> <tspan x="823">Data</tspan> <tspan x="938">NoName</tspan></text><text x="502" y="262" dy="29" style="font-size:19.5px;opacity:.25"><tspan x="528">31</tspan> <tspan x="597">CH4448</tspan> <tspan x="823">Data</tspan> <tspan x="938">NoName</tspan></text><text x="502" y="296" dy="29" style="font-size:19.5px"><tspan x="528">39</tspan> <tspan x="597">Museum 4K</tspan> <tspan x="823">TV</tspan> <tspan x="938">NoName</tspan></text><text x="502" y="330" dy="29" style="font-size:19.5px"><tspan x="528">40</tspan> <tspan x="597">MyZen 4K</tspan> <tspan x="823">TV</tspan> <tspan x="938">NoName</tspan></text><text x="502" y="363" dy="29" style="font-size:19.5px"><tspan x="528">63</tspan> <tspan x="597">Fokus TV HD</tspan> <tspan x="823">TV</tspan> <tspan x="938">NoName</tspan></text><text x="502" y="396" dy="29" style="font-size:19.5px;opacity:.25"><tspan x="528">94</tspan> <tspan x="597">CH15790</tspan> <tspan x="823">Radio</tspan> <tspan x="938">NoName</tspan></text><text x="502" y="428" dy="29" style="font-size:19.5px;opacity:.25"><tspan x="528">95</tspan> <tspan x="597">CH15797</tspan> <tspan x="823">Data</tspan> <tspan x="938">NoName</tspan></text><text x="502" y="464" dy="29" style="font-size:19.5px;fill:#fff"><tspan x="528">130</tspan> <tspan x="597">HotBird 4K1</tspan> <tspan x="823">TV</tspan> <tspan x="938">NoName</tspan></text><text x="502" y="500" dy="29" style="font-size:19.5px;opacity:.25"><tspan x="528">246</tspan> <tspan x="823">Data</tspan> <tspan x="938">NoName</tspan></text><text x="502" y="533" dy="29" style="font-size:19.5px;opacity:.25"><tspan x="528">247</tspan> <tspan x="823">Data</tspan> <tspan x="938">NoName</tspan></text><text x="502" y="565" dy="29" style="font-size:19.5px;opacity:.25"><tspan x="528">248</tspan> <tspan x="823">Data</tspan> <tspan x="938">NoName</tspan></text><rect width="12" height="51" x="1048" y="102" rx="7" style="fill:#000;fill-opacity:.46"/><rect width="257" height="12" x="503" y="568" rx="7" style="fill:#000;fill-opacity:.46"/><rect width="1061" height="82" x="1" y="568" rx="15" style="fill:#f3f4f4;clip-path:inset(15px 0 0)"/><g transform="matrix(.9 0 0 .9 15 604)"><rect width="24" height="24" x=".5" y="1" rx="8" style="fill:url(#bim);stroke:url(#bhm);stroke-opacity:.06;stroke-width:2px"/><use href="#cgk" style="fill:#fff;stroke:#fff;stroke-width:7.1px" transform="matrix(.22 0 0 .3 5.8 3.6)"/></g><text x="43" y="604" dy="19" style="font-size:20.5px">Filters for service type</text><text x="821" y="591" dx="28" dy="34" style="font-size:23.5px;fill:#000">Cancel</text><use href="#aad" style="fill:#505050" transform="matrix(.34 0 0 .34 955 605)"/><text x="955" y="591" dx="28" dy="34" style="font-size:23.5px;fill:#000">Add</text><rect width="1061" height="1.4" x="1" y="582" style="fill:#e0e1e1"/><rect width="1061" height="650" x="1" y="1" rx="15" style="fill:none;stroke:#c1c1c1;stroke-width:1px"/><rect width="1057" height="646" x="3" y="3" rx="15" style="fill:none;stroke:#fff;stroke-opacity:.09;stroke-width:1px"/></g></svg>