<svg xmlns="http://www.w3.org/2000/svg" style="pointer-events:none;user-select:none" viewBox="0 0 1880 1300"><defs><symbol id="aad"><path d="M37.8 37.8h18V26.3h-18V8H26.3v18.1H8v11.6h18.1v18h11.6v-18z"/></symbol><symbol id="cbw"><path d="m60 15-3-.5v35.7a150.1 150.1 0 0 0-14.3-.6l-3 .2-6.7.6v-36S39.6 13 43 13c4 0 14 1.5 14 1.5l3 .5a5 5 0 0 1 3 4.7v32.6c0 2.9-2.3 5.2-5.2 5.2H6.2A5.2 5.2 0 0 1 1 52.3V19.7A5 5 0 0 1 4 15l3-.5S17 13 21 13c3.4 0 10 1.5 10 1.5v35.9a286 286 0 0 0-13-.9c-3 0-7.9.4-11 .7V14.5L4 15v38.7h56V15zM28.5 42.5a2 2 0 0 0-2-2h-14a2 2 0 0 0 0 4h14a2 2 0 0 0 2-2zm25 0a2 2 0 0 0-2-2h-14a2 2 0 0 0 0 4h14a2 2 0 0 0 2-2zm-25-7a2 2 0 0 0-2-2h-14a2 2 0 0 0 0 4h14a2 2 0 0 0 2-2zm25 0a2 2 0 0 0-2-2h-14a2 2 0 0 0 0 4h14a2 2 0 0 0 2-2zm-25-7a2 2 0 0 0-2-2h-14a2 2 0 0 0 0 4h14a2 2 0 0 0 2-2zm25 0a2 2 0 0 0-2-2h-14a2 2 0 0 0 0 4h14a2 2 0 0 0 2-2zm-25-7a2 2 0 0 0-2-2h-14a2 2 0 0 0 0 4h14a2 2 0 0 0 2-2zm25 0a2 2 0 0 0-2-2h-14a2 2 0 0 0 0 4h14a2 2 0 0 0 2-2z"/></symbol><symbol id="cce"><path d="m62.3 7.3-5.6-5.6L32 26.4 7.3 1.7 1.7 7.3 26.4 32 1.7 56.7l5.6 5.6L32 37.6l24.7 24.7 5.6-5.6L37.6 32 62.3 7.3z"/></symbol><symbol id="cdd"><path d="M11 56A10 10 0 0 1 1 46V18A10 10 0 0 1 11 8h34a10 10 0 0 1 10 10v28a10 10 0 0 1-10 10H11zm20-41v-4h-6v4c-4.2.6-8.1 2.3-10 5-3 4.6 1 10.9 7.2 13 .8.3 1.7.6 2.8.8v11c-2.7-.7-4.6-2.5-6.2-3.9L14 43.7l2.1 1.8c2.4 2 5.4 3.3 9 3.7V53h5.8v-3.8c8.2-1.1 14-6.9 9.6-13-.8-1-1.8-2-3-2.9-1.7-1.2-4.2-2-6.6-2.6V19.5c2.6.6 4.5 2.4 6.2 3.8l4.9-2.8-2.1-1.8c-2.5-2-5.5-3.3-9-3.7zm0 20.4v9.1c3.6-.9 6.3-3.1 4.3-6.2-.8-1.3-2.4-2.2-4.3-2.9zm-6-15.7c-3.7 1-6.3 3.2-4.4 6.3 1 1.4 2.5 2.3 4.4 3v-9.3z"/></symbol><symbol id="fet"><path d="M56.3 31H13.8A13 13 0 0 0 1 44v61.3c0 7 5.7 12.8 12.8 12.8h54.5c7 0 12.8-5.8 12.8-12.8v-51c-16.6 14-16.6 30.2-17 36.9a6.8 6.8 0 0 1-11.7 4.4C38 81 36.3 52.4 56.3 31.1zm1 59.7c-14.6-14.7-13-46 15.2-64.3L62.2 14l42.8 1-7.3 41.4-11.8-14C57.8 59.3 57.8 82 57.3 90.6z"/></symbol><symbol id="fft"><path d="M87.8 55.7h8.5c5.9 0 10.7 4.8 10.7 10.6v45c0 6-4.8 10.7-10.7 10.7H11.7C5.8 122 1 117.2 1 111.4v-45c0-6 4.8-10.7 10.7-10.7h19.8L54 77.5a10 10 0 0 0 6.3 2.1c2 0 4.8-.8 6.2-2.2l21.3-21.7zM94 6.4C76 3.3 44.4 18.9 49 45.9H33.6l27.2 26.4 25.8-26.4H72.1C67.3 21.7 88 10.8 94 6.4z"/></symbol><symbol id="fgo"><path d="M32 62.5a30.5 30.5 0 0 1 0-61v9.6l-1-.1a5.4 5.4 0 1 0 1 10.7v5.1l-7.4.2 2.8 1.2V51l-2.8 2H32v9.5zm0-51.4V1.5a30.5 30.5 0 0 1 0 61V53h9.5l-5.8-2V26.6l-3.7.1v-5A5.4 5.4 0 0 0 32 11z"/></symbol><symbol id="fhn"><path d="M21 43h89c2.9 0 4.7 2.2 4.2 5l-9.3 53c-.5 2.7-3.2 5-6 5H8a3.8 3.8 0 0 1-3.9-3.8V22h67.2L88 36H16v32h5V43z"/></symbol><symbol id="fie"><path d="M114 22v86.2c0 2-1.7 3.8-3.8 3.8H17.8a3.8 3.8 0 0 1-3.8-3.8V19.8c0-2 1.7-3.8 3.8-3.8H109l5 6zM94 59V19H38v40h56zm-9.5-33v30h-15V26h15z"/></symbol><symbol id="lju"><path d="M56.3 57.4c0-2.4-2-4.3-4.4-4.3H12.1a4.3 4.3 0 0 0 0 8.6h39.8c2.4 0 4.4-1.9 4.4-4.3zm0-12.5c0-2.4-2-4.3-4.4-4.3H12.1a4.3 4.3 0 0 0 0 8.6h39.8c2.4 0 4.4-2 4.4-4.3zm0-12.5c0-2.4-2-4.3-4.4-4.3H12.1a4.3 4.3 0 0 0 0 8.6h39.8c2.4 0 4.4-2 4.4-4.3zm-42.5-13V23h10.6v-5.8l2.3-1.4c2.3-1.8 3.4-4.1 3.4-6.4s-1-4.7-3.2-6.5c-1-.7-2-1.3-3-1.7l-1.4 1-.1 6c0 .4-.2.6-.4.7-.4.3-.9.4-1.5.4h-2.8c-.6 0-1.1-.1-1.5-.4-.2-.2-.4-.4-.4-.7V1.9l-1.3-1c-1 .5-2.1 1-3 1.7A8.2 8.2 0 0 0 8 9c0 2.3 1 4.7 3.2 6.5.8.6 1.6 1 2.5 1.4v2.6z"/></symbol><symbol id="pkw"><path d="M14.8 29.2h34.5s13.9 14.5 11.4 15.6c-1 .5-6.1-1-11.5-3V62H14.8V41.7c-5.4 2-10.4 3.6-11.5 3.1-2.5-1 11.5-15.6 11.5-15.6zm22-17.8H16.3v13.1h6.4V14h14v-2.6zm1.7 5.2h-14v8h14v-8zm6.8-6.2v14.1H41v-9.2h-2.5v-4.9h6.8zm-8.7-7H18.5v5.4h18.1V3.5z"/></symbol><symbol id="slh"><path d="M40 45.2a20.9 20.9 0 0 1-12.4 4.2A22.6 22.6 0 0 1 5.8 30.7 22.5 22.5 0 0 1 27.6 5.6c10 0 19.4 7.7 21.4 17.6A22 22 0 0 1 45 40l14 13.8-5.1 5.1L40 45.2zM27.4 14.6c-6.2.1-12 5.2-12.7 11.5-.6 5.4 2.7 11 7.8 13.2A13.3 13.3 0 0 0 39.8 31a13.2 13.2 0 0 0-12.4-16.3z"/></symbol><symbol id="smt"><path d="M18.5 59a7.5 7.5 0 0 1-7.5-7.5V29.2c0-2.7 1.4-5 3.5-6.4v-7c0-7.4 6-13.4 13.4-13.4H36c7.4 0 13.4 6 13.4 13.4v7a7.5 7.5 0 0 1 3.5 6.4v22.3c0 4.1-3.3 7.4-7.4 7.5h-27zm26.2-21.3h-9.5v-9.5h-6.4v9.5h-9.5v6.4h9.5v9.5h6.4v-9.5h9.5v-6.4zm-2.2-22c0-3.4-2.8-6.3-6.4-6.3H28a6.4 6.4 0 0 0-6.4 6.4v5.9h21v-6z"/></symbol><symbol id="snu"><path d="M19.1 57.6c0-2.3-1.8-4.2-4.1-4.2H7.4a4.2 4.2 0 0 0 0 8.4H15c2.3 0 4.1-2 4.1-4.2zm41.6 0c0-2.3-1.8-4.2-4.1-4.2H27.4a4.2 4.2 0 0 0 0 8.4h29.2c2.3 0 4.1-2 4.1-4.2zm-41.6-12c0-2.3-1.8-4.2-4.1-4.2H7.4a4.2 4.2 0 0 0 0 8.4H15c2.3 0 4.1-1.9 4.1-4.2zm41.6 0c0-2.3-1.8-4.2-4.1-4.2H27.4a4.2 4.2 0 0 0 0 8.4h29.2c2.3 0 4.1-1.9 4.1-4.2zm-41.6-12c0-2.2-1.8-4.1-4.1-4.1H7.4a4.2 4.2 0 0 0 0 8.3H15a4 4 0 0 0 4.1-4.1zm41.6 0c0-2.2-1.8-4.1-4.1-4.1H27.4a4.2 4.2 0 0 0 0 8.3h29.2a4 4 0 0 0 4.1-4.1zm-41.6-12a4 4 0 0 0-4.1-4H7.4a4.2 4.2 0 0 0 0 8.3H15c2.3 0 4.1-2 4.1-4.2zm29-6 4.8 5a4.1 4.1 0 0 0 5.9-5.9L51 7c-.8-.8-2-1.2-3-1.2s-2.2.4-3 1.2l-7.7 7.7a4.1 4.1 0 0 0 5.8 5.9l4.9-5z"/></symbol><symbol id="sos"><path d="M74 15.4a50 50 0 0 0-19.7 0c.8 4 1.4 8.2 1.8 12.4-4.3 1-8.5 2.7-12.2 5.1-2.7-3.2-5.2-6.6-7.5-10.1a50 50 0 0 0-14 13.9c3.6 2.3 7 4.8 10.2 7.5a37.4 37.4 0 0 0-5 12.2c-4.2-.4-8.4-1-12.5-1.9a50 50 0 0 0 0 19.7 171 171 0 0 1 12.5-1.9c.9 4.4 2.6 8.5 5 12.3-3.2 2.7-6.6 5.2-10.1 7.5A50 50 0 0 0 36.4 106c2.3-3.5 4.8-6.9 7.5-10.1 3.7 2.4 7.9 4 12.2 5-.4 4.2-1 8.4-1.8 12.5a50 50 0 0 0 19.6 0c-.8-4.1-1.4-8.3-1.8-12.5 4.3-1 8.5-2.6 12.2-5 2.7 3.2 5.2 6.6 7.5 10.1a50 50 0 0 0 14-14c-3.6-2.2-7-4.7-10.2-7.4 2.4-3.8 4.1-7.9 5-12.3 4.2.5 8.4 1 12.5 2a50 50 0 0 0 0-19.8c-4.1.9-8.3 1.5-12.5 2-.9-4.4-2.6-8.6-5-12.3 3.2-2.7 6.6-5.2 10.1-7.5a50 50 0 0 0-13.9-14c-2.3 3.6-4.8 7-7.5 10.2a37.4 37.4 0 0 0-12.2-5c.4-4.3 1-8.4 1.8-12.5zM64 50.9a13.5 13.5 0 1 1 0 27 13.5 13.5 0 0 1 0-27z"/></symbol><symbol id="tpw"><path d="M64 64V45H0v19h64zm-25-5.7V60a2 2 0 1 1-4 0v-6.4l-1.9 1.8c-.4.3-1 .5-1.5.5s-1-.2-1.5-.5l-2-1.8V60a2 2 0 0 1-3.8 0v-5.3h-6.7l4.1 4c.8.7.8 1.8 0 2.5a2 2 0 0 1-2.7 0l-4.1-3.9-4.1 4a2 2 0 0 1-2.7 0c-.8-.8-.8-2 0-2.7l4-3.9-4-3.9c-.8-.7-.8-1.8 0-2.5s2-.7 2.7 0l4 3.9 4.2-4a2 2 0 0 1 2.7 0c.8.8.8 2 0 2.6l-4 4h6.6v-5.3c0-.6.1-1 .6-1.4a2 2 0 0 1 1.3-.6h.2c.5 0 .9.3 1.3.6l4 3.6 3.9-3.6a2 2 0 0 1 1.8-.5c.4 0 .7.2 1 .5.4.3.6.8.6 1.3v8.7h2.9v-8.8a2 2 0 0 1 3.9 0v8.9h6.4a1.8 1.8 0 0 1 0 3.6h-8.5c-1 0-1.8-.9-1.8-1.9v-1.7h-3zM25.3 39.5H25c-10 0-18.3-8.4-18.3-18.8S15 2 25 2s18.3 8.4 18.3 18.8a19 19 0 0 1-2.4 9l11.1-4v-3c0-.9.7-1.5 1.5-1.5h3c.8 0 1.5.6 1.5 1.5v11c0 .8-.7 1.5-1.5 1.5h-3c-.8 0-1.5-.7-1.5-1.5v-1.6l-26 9.5-.7-2.2z"/></symbol><symbol id="aqm"><path d="M32 13.2c-1.7 0-3.3.7-4.6 2L2.9 39.5a6.5 6.5 0 0 0 9.2 9.2L32 29l19.9 19.8a6.5 6.5 0 0 0 9.2-9.2L36.6 15.1a7 7 0 0 0-4.6-1.9z"/></symbol><linearGradient id="brm" x1="0" x2="0" y1="0" y2="1"><stop offset="0" style="stop-color:#e2e2e2"/><stop offset=".7" style="stop-color:#f7f7f7"/></linearGradient><linearGradient id="bsm" x1="0" x2="0" y1="0" y2="1"><stop offset="0" style="stop-color:#000;stop-opacity:.15"/><stop offset="1" style="stop-color:#000;stop-opacity:.19"/></linearGradient><linearGradient id="btm" x1="0" x2="0" y1="0" y2="1"><stop offset=".4" style="stop-color:#0095ff"/><stop offset="1" style="stop-color:#0d7bff"/></linearGradient><filter id="bum" color-interpolation-filters="sRGB"><feDropShadow dx="0" dy="1.5" flood-opacity=".1" stdDeviation="1"/><feDropShadow dx="0" dy="0" flood-opacity=".2" stdDeviation=".8"/></filter></defs><rect width="1880" height="1300" style="fill:#b4d0cd"/><g style="font-family:&quot;Helvetica Neue&quot;,sans-serif-light,Helvetica,sans-serif"><rect width="1718" height="1140" x="81" y="81" rx="15" style="fill:#e7e8e8;stroke:#191919;stroke-width:1px"/><rect width="1716" height="57" x="82" y="82" rx="15" style="fill:#f8f9f9;stroke:#fff;stroke-width:1px;clip-path:inset(0 0 15px)"/><rect width="1718" height="1" x="81" y="124" style="fill:none;stroke:#cdcece;stroke-width:.5px"/><text x="82" y="82" dx="857" dy="28" style="font-family:&quot;Helvetica Neue&quot;,Helvetica,sans-serif;font-weight:700;font-size:20px;fill:#494949" text-anchor="middle">e2 SAT Editor</text><ellipse cx="103" cy="103" rx="8.8" style="fill:#ff5f5a;stroke:#000;stroke-opacity:.1"/><ellipse cx="133" cy="103" rx="8.8" style="fill:#febc2e;stroke:#000;stroke-opacity:.1"/><ellipse cx="164" cy="103" rx="8.8" style="fill:#28c840;stroke:#000;stroke-opacity:.1"/><rect width="1716" height="67" x="82" y="125" style="fill:#f3f4f4"/><rect width="120" height="67" x="82" y="125" style="fill:#e7e8e8"/><rect width="112" height="53" x="82" y="131" rx="0" style="fill:url(#brm);stroke:#afafaf;stroke-width:1.5px"/><use href="#aad" style="fill:#4f4f4f" transform="matrix(.26 0 0 .26 88 149)"/><text x="82" y="131" dx="27" dy="33" style="font-weight:700;font-size:19px;fill:#000">New Tab</text><rect width="1" height="67" x="202" y="125" style="fill:#95c1f1"/><rect width="157" height="69" x="203" y="124" style="fill:#9dcdff;stroke:#91bdef;stroke-width:1.5px;clip-path:inset(1.76px 0 1px)"/><text x="203" y="124" dx="15" dy="41" style="font-size:20px;fill:#000">enigma_db</text><use href="#cce" style="fill:#fff" transform="matrix(.2 0 0 .2 335 152)"/><rect width="292" height="69" x="360" y="124" style="fill:#ececec;stroke:#d2d3d3;stroke-width:1.5px;clip-path:inset(1.76px 0 1px)"/><use href="#pkw" style="fill:#000" transform="matrix(.38 0 0 .38 372 144)"/><text x="360" y="124" dx="46" dy="41" style="font-size:20px;fill:#000">enigma_db - Picons <tspan style="font-size:15px">…</tspan></text><use href="#cce" style="fill:#666" transform="matrix(.2 0 0 .2 628 152)"/><rect width="154" height="69" x="652" y="124" style="fill:#ececec;stroke:#d2d3d3;stroke-width:1.5px;clip-path:inset(1.76px 0 1px)"/><text x="652" y="124" dx="15" dy="41" style="font-size:20px;fill:#000">neutrino</text><use href="#cce" style="fill:#666" transform="matrix(.2 0 0 .2 782 152)"/><rect width="292" height="69" x="806" y="124" style="fill:#ececec;stroke:#d2d3d3;stroke-width:1.5px;clip-path:inset(1.76px 0 1px)"/><use href="#tpw" style="fill:#000" transform="matrix(.38 0 0 .38 818 144)"/><text x="806" y="124" dx="46" dy="41" style="font-size:20px;fill:#000">enigma_db - Edit Set<tspan style="font-size:15px">…</tspan></text><use href="#cce" style="fill:#666" transform="matrix(.2 0 0 .2 1075 152)"/><rect width="293" height="69" x="1098" y="124" style="fill:#ececec;stroke:#d2d3d3;stroke-width:1.5px;clip-path:inset(1.76px 0 1px)"/><use href="#cbw" style="fill:#000" transform="matrix(.38 0 0 .38 1111 144)"/><text x="1098" y="124" dx="46" dy="41" style="font-size:20px;fill:#000">enigma_db - Channe<tspan style="font-size:15px">…</tspan></text><use href="#cce" style="fill:#666" transform="matrix(.2 0 0 .2 1367 152)"/><rect width="1" height="67" x="1390" y="125" style="fill:#d5d6d6"/><rect width="1716" height="100" x="82" y="192" style="fill:#e7e8e8"/><use href="#fhn" style="fill:#4c4c4c" transform="matrix(.38 0 0 .38 106 217)"/><text x="90" y="192" dx="69" dy="59" style="font-size:26px;fill:#000">Open</text><use href="#fie" style="fill:#4c4c4c" transform="matrix(.38 0 0 .38 260 217)"/><text x="244" y="192" dx="69" dy="59" style="font-size:26px;fill:#000">Save</text><rect width="1" height="61" x="408" y="212" style="fill:none;stroke:#000;stroke-opacity:.3;stroke-dasharray:1px,3px"/><use href="#fft" style="fill:#4c4c4c" transform="matrix(.38 0 0 .38 426 217)"/><text x="409" y="192" dx="69" dy="59" style="font-size:26px;fill:#000">Import</text><use href="#fet" style="fill:#4c4c4c" transform="matrix(.38 0 0 .38 594 217)"/><text x="578" y="192" dx="69" dy="59" style="font-size:26px;fill:#000">Export</text><rect width="1" height="61" x="761" y="212" style="fill:none;stroke:#000;stroke-opacity:.3;stroke-dasharray:1px,3px"/><use href="#sos" style="fill:#4c4c4c" transform="matrix(.38 0 0 .38 779 217)"/><text x="763" y="192" dx="69" dy="59" style="font-size:26px;fill:#000">Settings</text><rect width="125" height="32" x="1045" y="222" rx="8" style="fill:#fff;stroke:url(#bsm);stroke-width:.4px;filter:url(#bum)"/><rect width="26" height="26" x="1140.6" y="225" rx="8" style="fill:url(#btm);stroke:url(#bsm);stroke-opacity:.06;stroke-width:2px"/><use href="#aqm" style="fill:#fff" transform="matrix(.19 0 0 .19 1147.4 227.2)"/><use href="#aqm" style="fill:#fff" transform="matrix(.19 0 0 -.19 1147.4 249.8)"/><text x="1045" y="223" dx="12" dy="22" style="font-size:20px;fill:#000">Profile 1</text><text x="1193" y="192" dx="15" dy="59" style="font-size:26px;fill:#000">Connect</text><text x="1329" y="192" dx="15" dy="59" style="font-size:26px;fill:#000">Disconnect</text><rect width="1" height="61" x="1501" y="212" style="fill:none;stroke:#000;stroke-opacity:.3;stroke-dasharray:1px,3px"/><text x="1513" y="192" dx="15" dy="59" style="font-size:26px;fill:#000">Upload</text><text x="1633" y="192" dx="15" dy="59" style="font-size:26px;fill:#000">Download</text><rect width="1720" height="100" x="80" y="192" style="fill:none;stroke:#d0d0d0;stroke-width:2.4px;clip-path:inset(0 2px)"/><rect width="1716" height="807" x="82" y="291" style="fill:#f3f4f4"/><rect width="380" height="807" x="82" y="291" style="fill:#e7e8e8"/><text x="82" y="291" dx="10" dy="33" style="font-weight:700;font-size:20px;fill:#000">Services</text><use href="#snu" style="fill:#505050" transform="matrix(.38 0 0 .38 412 303)"/><rect width="380" height="55" x="82" y="340" style="fill:#d5d6d6"/><text x="82" y="340" dx="23" dy="34" style="font-size:20px;fill:#000">All services</text><text x="82" y="395" dx="23" dy="34" style="font-size:20px;fill:#000">TV</text><text x="82" y="450" dx="23" dy="34" style="font-size:20px;fill:#000">Radio</text><text x="82" y="505" dx="23" dy="34" style="font-size:20px;fill:#000">Data</text><text x="82" y="595" dx="10" dy="33" style="font-weight:700;font-size:20px;fill:#000">Bouquets</text><text x="82" y="643" dx="24" dy="34" style="font-size:20px;fill:#000">TV</text><use href="#aqm" style="fill:#bfbfbf" transform="matrix(.19 0 0 -.19 90 678)"/><text x="82" y="697" dx="25" dy="34" style="font-size:20px;fill:#000">Swiss</text><rect width="380" height="55" x="82" y="750" style="fill:#d5d6d6"/><text x="82" y="750" dx="25" dy="34" style="font-size:20px;fill:#000">Italy</text><text x="82" y="804" dx="25" dy="34" style="font-size:20px;fill:#000">Tests</text><text x="82" y="857" dx="25" dy="34" style="font-size:20px;fill:#000">Tests 1</text><text x="82" y="910" dx="24" dy="34" style="font-size:20px;fill:#000">Radio</text><use href="#aqm" style="fill:#bfbfbf" transform="matrix(.19 0 0 -.19 90 945)"/><text x="82" y="964" dx="25" dy="34" style="font-size:20px;fill:#000">Swiss</text><text x="82" y="1017" dx="25" dy="34" style="font-size:20px;fill:#000">Italy</text><rect width="380" height="73" x="82" y="1026" style="fill:#eff0f0"/><rect width="384" height="73" x="80" y="1025" style="fill:none;stroke:#e2e2e2;stroke-width:2.4px;clip-path:inset(0 2px 2px)"/><use href="#aad" style="fill:#545454" transform="matrix(.25 0 0 .25 101 1052)"/><text x="95" y="1036" dx="28" dy="33" style="font-weight:700;font-size:21px;fill:#000">Bouquet</text><rect width="128" height="32" x="314" y="1044" rx="8" style="fill:#fff;stroke:url(#bsm);stroke-width:.4px;filter:url(#bum)"/><use href="#slh" style="fill:#545454" transform="matrix(.38 0 0 .38 334 1047)"/><text x="314" y="1044" dx="54" dy="22" style="font-size:20px;fill:#000">Find<tspan style="font-size:15px">…</tspan></text><ellipse cx="467.4" cy="708.4" rx="4" style="fill:#dadbdb"/><text x="473" y="291" dx="10" dy="32" style="font-weight:700;font-size:20px;fill:#000">Channels</text><use href="#lju" style="fill:#505050" transform="matrix(.38 0 0 .38 1751 303)"/><rect width="1325" height="26" x="473" y="340" style="fill:#ececec"/><text x="473" y="340" dy="18" style="font-size:17px;fill:#000"><tspan x="479">Index</tspan> <tspan x="578">Name</tspan> <tspan x="883">Parental</tspan> <tspan x="989">Service ID</tspan> <tspan x="1112">Transport ID</tspan> <tspan x="1234">Type</tspan> <tspan x="1363">CAS</tspan> <tspan x="1432">Provider</tspan> <tspan x="1702">System</tspan></text><rect width=".5" height="19" x="571" y="343" style="fill:none;stroke:#c7c7c7;stroke-width:1px"/><rect width=".5" height="19" x="876" y="343" style="fill:none;stroke:#c7c7c7;stroke-width:1px"/><rect width=".5" height="19" x="982" y="343" style="fill:none;stroke:#c7c7c7;stroke-width:1px"/><rect width=".5" height="19" x="1105" y="343" style="fill:none;stroke:#c7c7c7;stroke-width:1px"/><rect width=".5" height="19" x="1226" y="343" style="fill:none;stroke:#c7c7c7;stroke-width:1px"/><rect width=".5" height="19" x="1356" y="343" style="fill:none;stroke:#c7c7c7;stroke-width:1px"/><rect width=".5" height="19" x="1425" y="343" style="fill:none;stroke:#c7c7c7;stroke-width:1px"/><rect width=".5" height="19" x="1696" y="343" style="fill:none;stroke:#c7c7c7;stroke-width:1px"/><rect width="1325" height="659" x="473" y="366" style="fill:#fff"/><rect width="1325" height="49" x="473" y="707" style="fill:#0044e2"/><text x="473" y="366" dy="31" style="font-size:19px;fill:#000"><tspan x="500">38</tspan> <tspan x="580">Giallo</tspan> <tspan x="990">4322</tspan> <tspan x="1114">1000</tspan> <tspan x="1235">HD</tspan> <tspan x="1400" style="font-size:15px">...</tspan> <tspan x="1433">TVN WBD</tspan> <tspan x="1703">DVB-S2</tspan></text><use href="#smt" style="fill:#545454" transform="matrix(.38 0 0 .38 884 378)"/><use href="#cdd" style="fill:#545454" transform="matrix(.38 0 0 .38 1364 378)"/><text x="473" y="415" dy="31" style="font-size:19px;fill:#000"><tspan x="500">39</tspan> <tspan x="580">TOPcrime HD</tspan> <tspan x="990">132</tspan> <tspan x="1114">1200</tspan> <tspan x="1235">HD</tspan> <tspan x="1400" style="font-size:15px">...</tspan> <tspan x="1433">Mediaset</tspan> <tspan x="1703">DVB-S2</tspan></text><use href="#smt" style="fill:#545454" transform="matrix(.38 0 0 .38 884 427)"/><use href="#cdd" style="fill:#545454" transform="matrix(.38 0 0 .38 1364 427)"/><text x="473" y="464" dy="31" style="font-size:19px;fill:#000"><tspan x="500">40</tspan> <tspan x="580">Boing HD</tspan> <tspan x="990">126</tspan> <tspan x="1114">1200</tspan> <tspan x="1235">HD</tspan> <tspan x="1400" style="font-size:15px">...</tspan> <tspan x="1434">Mediaset</tspan> <tspan x="1703">DVB-S2</tspan></text><use href="#cdd" style="fill:#545454" transform="matrix(.38 0 0 .38 1364 476)"/><text x="473" y="512" dy="31" style="font-size:19px;fill:#000"><tspan x="500">41</tspan> <tspan x="580">K2</tspan> <tspan x="990">15204</tspan> <tspan x="1114">300</tspan> <tspan x="1235">H.264</tspan> <tspan x="1400" style="font-size:15px">...</tspan> <tspan x="1433">Warner Bros. Discovery</tspan> <tspan x="1703">DVB-S2</tspan></text><use href="#cdd" style="fill:#545454" transform="matrix(.38 0 0 .38 1364 524)"/><text x="473" y="561" dy="31" style="font-size:19px;fill:#000"><tspan x="500">42</tspan> <tspan x="580">Rai Gulp HD</tspan> <tspan x="990">17712</tspan> <tspan x="1114">12500</tspan> <tspan x="1235">HD</tspan>  <tspan x="1434">Rai</tspan> <tspan x="1703">DVB-S2</tspan></text><text x="473" y="610" dy="31" style="font-size:19px;fill:#000"><tspan x="500">43</tspan> <tspan x="580">Rai YoYo HD</tspan> <tspan x="990">8511</tspan> <tspan x="1114">12400</tspan> <tspan x="1235">HD</tspan> <tspan x="1400" style="font-size:15px">...</tspan> <tspan x="1433">RAI</tspan> <tspan x="1703">DVB-S2</tspan></text><use href="#cdd" style="fill:#545454" transform="matrix(.38 0 0 .38 1364 622)"/><text x="473" y="658" dy="31" style="font-size:19px;fill:#000"><tspan x="500">44</tspan> <tspan x="580">Frisbee</tspan> <tspan x="990">15205</tspan> <tspan x="1114">300</tspan> <tspan x="1235">H.264</tspan> <tspan x="1400" style="font-size:15px">...</tspan> <tspan x="1433">Warner Bros. Discovery</tspan> <tspan x="1703">DVB-S2</tspan></text><use href="#cdd" style="fill:#545454" transform="matrix(.38 0 0 .38 1364 670)"/><text x="473" y="707" dy="31" style="font-size:19px;fill:#fff"><tspan x="500">45</tspan> <tspan x="580">NASA+</tspan> <tspan x="990">1958</tspan> <tspan x="1114">0</tspan> <tspan x="1235">STREAM</tspan> <tspan x="1703">[eservice]</tspan></text><text x="473" y="756" dy="31" style="font-size:19px;fill:#000"><tspan x="500">46</tspan> <tspan x="580">Cartoonito HD</tspan> <tspan x="990">133</tspan> <tspan x="1114">1200</tspan> <tspan x="1235">HD</tspan> <tspan x="1400" style="font-size:15px">...</tspan> <tspan x="1433">Mediaset</tspan> <tspan x="1703">DVB-S2</tspan></text><use href="#cdd" style="fill:#545454" transform="matrix(.38 0 0 .38 1364 768)"/><text x="473" y="805" dy="31" style="font-size:19px;fill:#000"><tspan x="500">47</tspan> <tspan x="580">Super!</tspan> <tspan x="990">55</tspan> <tspan x="1114">512</tspan> <tspan x="1235">H.264</tspan> <tspan x="1433">Persidera</tspan> <tspan x="1703">DVB-T</tspan></text><text x="473" y="854" dy="31" style="font-size:19px;fill:#000"><tspan x="500">48</tspan> <tspan x="580">Rai News 24 HD</tspan> <tspan x="990">17711</tspan> <tspan x="1114">12500</tspan> <tspan x="1235">HD</tspan> <tspan x="1434">Rai</tspan> <tspan x="1703">DVB-S2</tspan></text><text x="473" y="902" dy="31" style="font-size:19px;fill:#000"><tspan x="500">49</tspan> <tspan x="580">Mediaset Italia2 HD</tspan> <tspan x="990">130</tspan> <tspan x="1114">1200</tspan> <tspan x="1235">HD</tspan> <tspan x="1400" style="font-size:15px">...</tspan> <tspan x="1433">Mediaset</tspan> <tspan x="1703">DVB-S2</tspan></text><use href="#cdd" style="fill:#545454" transform="matrix(.38 0 0 .38 1364 914)"/><text x="473" y="949" dy="31" style="font-size:19px;fill:#000"><tspan x="500">50</tspan> <tspan x="580">Sky TG24</tspan> <tspan x="990">90</tspan> <tspan x="1114">512</tspan> <tspan x="1235">H.264</tspan> <tspan x="1433">Persidera</tspan> <tspan x="1703">DVB-T</tspan></text><rect width="12" height="77" x="1782" y="541" rx="7" style="fill:#7f7f7f"/><rect width="1325" height="61" x="473" y="964" style="fill:#fafafa"/><rect width="136" height="32" x="483" y="976" rx="8" style="fill:#fff;stroke:url(#bsm);stroke-width:.4px;filter:url(#bum)"/><text x="483" y="977" dx="12" dy="22" style="font-size:20px;fill:#000">Name</text><rect width="26" height="26" x="590.6" y="979" rx="8" style="fill:url(#btm);stroke:url(#bsm);stroke-opacity:.06;stroke-width:2px"/><use href="#aqm" style="fill:#fff" transform="matrix(.19 0 0 .19 597.4 981.2)"/><use href="#aqm" style="fill:#fff" transform="matrix(.19 0 0 -.19 597.4 1003.8)"/><rect width="208" height="33" x="627" y="975" rx="0" style="fill:#fff;stroke:#d1d2d2;stroke-width:2.4px;clip-path:inset(1.8px 1.8px .4px)"/><text x="627" y="975" dx="4" dy="23" style="font-size:19px;fill:#000">Nasa</text><rect width="82" height="33" x="845" y="975" rx="4" style="fill:#ececec"/><text x="845" y="975" dx="40" dy="23" style="font-size:19px;fill:#000;fill-opacity:.89" text-anchor="middle">Find</text><rect width="166" height="33" x="936" y="975" rx="4" style="fill:#ececec"/><text x="936" y="975" dx="83" dy="23" style="font-size:19px;fill:#000;fill-opacity:.89" text-anchor="middle">Find Previous</text><rect width="110" height="33" x="1111" y="975" rx="4" style="fill:#ececec"/><text x="1111" y="975" dx="55" dy="23" style="font-size:19px;fill:#000;fill-opacity:.89" text-anchor="middle">Find All</text><rect width="126" height="31" x="1254" y="976" rx="4" style="fill:#b1d7ff;stroke:#bfbfbf;stroke-width:1px"/><text x="1254" y="976" dx="62" dy="22" style="font-size:18px;fill:#fff;fill-opacity:.9" text-anchor="middle">Highlight</text><use href="#cce" style="fill:#666" transform="matrix(.23 0 0 .23 1764 985)"/><rect width="1325" height="73" x="473" y="1026" style="fill:#f7f8f8"/><rect width="1329" height="73" x="471" y="1025" style="fill:none;stroke:#e9eaea;stroke-width:2.4px;clip-path:inset(0 2px 2px)"/><use href="#aad" style="fill:#545454" transform="matrix(.26 0 0 .26 492 1052)"/><text x="487" y="1036" dx="28" dy="33" style="font-weight:700;font-size:21px;fill:#000">Channel</text><use href="#aad" style="fill:#545454" transform="matrix(.26 0 0 .26 632 1052)"/><text x="627" y="1036" dx="28" dy="33" style="font-weight:700;font-size:21px;fill:#000">Stream</text><use href="#aad" style="fill:#545454" transform="matrix(.26 0 0 .26 761 1052)"/><text x="756" y="1036" dx="28" dy="33" style="font-weight:700;font-size:21px;fill:#000">Marker</text><g style="opacity:.24"><use href="#aad" style="fill:#545454" transform="matrix(.26 0 0 .26 889 1052)"/><text x="884" y="1036" dx="28" dy="33" style="font-weight:700;font-size:21px;fill:#000">Service</text></g><rect width="135" height="32" x="1017" y="1044" rx="8" style="fill:#fff;stroke:url(#bsm);stroke-width:.4px;filter:url(#bum)"/><text x="1017" y="1044" dx="22" dy="22" style="font-size:20px;fill:#000">Reference</text><g style="opacity:.24"><rect width="147" height="32" x="1182" y="1044" rx="8" style="fill:#fff;stroke:url(#bsm);stroke-width:.4px;filter:url(#bum)"/><text x="1182" y="1044" dx="24" dy="22" style="font-size:20px;fill:#000">Drag&amp;Drop</text></g><rect width="128" height="32" x="1652" y="1044" rx="8" style="fill:#fff;stroke:url(#bsm);stroke-width:.4px;filter:url(#bum)"/><use href="#slh" style="fill:#545454" transform="matrix(.38 0 0 .38 1664 1047)"/><text x="1652" y="1044" dx="46" dy="22" style="font-size:20px;fill:#000">Find<tspan style="font-size:15px">…</tspan></text><rect width="1720" height="807" x="80" y="291" style="fill:none;stroke:#d5d6d6;stroke-width:2.4px;clip-path:inset(0 2px)"/><text x="98" y="1115.5" dx="29" dy="33" style="font-weight:700;font-size:24px;fill:#000">Tools</text><rect width="1" height="38" x="211" y="1120" style="fill:none;stroke:#000;stroke-opacity:.3;stroke-dasharray:1.4px,2.68px"/><text x="207" y="1115.5" dx="29" dy="33" style="font-weight:700;font-size:24px;fill:#000">Inspect</text><text x="1660" y="1115.5" dx="11" dy="33" style="font-weight:700;font-size:24px;fill:#000">autofix</text><rect width="1716" height="56" x="82" y="1164" rx="15" style="fill:#f3f4f4;clip-path:inset(15px 0 0)"/><rect width="1720" height="42" x="80" y="1179" style="fill:none;stroke:#d8d9d9;stroke-width:2.5px;clip-path:inset(0 2px 42px)"/><text x="82" y="1179" dx="29" dy="29" style="font-size:20px;fill:#000"><tspan>Channels: 143</tspan> <tspan dx="10">Bouquet: userbouquet.dbe01.tv</tspan></text><text x="82" y="1179" dx="1212" dy="29" style="font-size:20px;fill:#000"><tspan>TV: 1240</tspan> <tspan dx="10">Radio: 304</tspan> <tspan dx="10">Data: 148</tspan> <tspan dx="10">Total: 1692</tspan></text><use href="#fgo" style="fill:#545454" transform="matrix(.38 0 0 .38 1741 1188)"/><rect width="1718" height="1140" x="81" y="81" rx="15" style="fill:none;stroke:#a6bbb9;stroke-width:1px"/><rect width="1714" height="1136" x="83" y="83" rx="15" style="fill:none;stroke:#fff;stroke-opacity:.09;stroke-width:1px"/></g></svg>