<svg xmlns="http://www.w3.org/2000/svg" style="pointer-events:none;user-select:none;text-rendering:geometricprecision" viewBox="0 0 1880 1300"><defs><symbol id="aad"><path d="M37.8 37.8h18V26.3h-18V8H26.3v18.1H8v11.6h18.1v18h11.6v-18z"/></symbol><symbol id="cbw"><path d="m60 15-3-.5v35.7a150.1 150.1 0 0 0-14.3-.6l-3 .2-6.7.6v-36S39.6 13 43 13c4 0 14 1.5 14 1.5l3 .5a5 5 0 0 1 3 4.7v32.6c0 2.9-2.3 5.2-5.2 5.2H6.2A5.2 5.2 0 0 1 1 52.3V19.7A5 5 0 0 1 4 15l3-.5S17 13 21 13c3.4 0 10 1.5 10 1.5v35.9a286 286 0 0 0-13-.9c-3 0-7.9.4-11 .7V14.5L4 15v38.7h56V15zM28.5 42.5a2 2 0 0 0-2-2h-14a2 2 0 0 0 0 4h14a2 2 0 0 0 2-2zm25 0a2 2 0 0 0-2-2h-14a2 2 0 0 0 0 4h14a2 2 0 0 0 2-2zm-25-7a2 2 0 0 0-2-2h-14a2 2 0 0 0 0 4h14a2 2 0 0 0 2-2zm25 0a2 2 0 0 0-2-2h-14a2 2 0 0 0 0 4h14a2 2 0 0 0 2-2zm-25-7a2 2 0 0 0-2-2h-14a2 2 0 0 0 0 4h14a2 2 0 0 0 2-2zm25 0a2 2 0 0 0-2-2h-14a2 2 0 0 0 0 4h14a2 2 0 0 0 2-2zm-25-7a2 2 0 0 0-2-2h-14a2 2 0 0 0 0 4h14a2 2 0 0 0 2-2zm25 0a2 2 0 0 0-2-2h-14a2 2 0 0 0 0 4h14a2 2 0 0 0 2-2z"/></symbol><symbol id="cce"><path d="m62.3 7.3-5.6-5.6L32 26.4 7.3 1.7 1.7 7.3 26.4 32 1.7 56.7l5.6 5.6L32 37.6l24.7 24.7 5.6-5.6L37.6 32 62.3 7.3z"/></symbol><symbol id="cdd"><path d="M11 56A10 10 0 0 1 1 46V18A10 10 0 0 1 11 8h34a10 10 0 0 1 10 10v28a10 10 0 0 1-10 10H11zm20-41v-4h-6v4c-4.2.6-8.1 2.3-10 5-3 4.6 1 10.9 7.2 13 .8.3 1.7.6 2.8.8v11c-2.7-.7-4.6-2.5-6.2-3.9L14 43.7l2.1 1.8c2.4 2 5.4 3.3 9 3.7V53h5.8v-3.8c8.2-1.1 14-6.9 9.6-13-.8-1-1.8-2-3-2.9-1.7-1.2-4.2-2-6.6-2.6V19.5c2.6.6 4.5 2.4 6.2 3.8l4.9-2.8-2.1-1.8c-2.5-2-5.5-3.3-9-3.7zm0 20.4v9.1c3.6-.9 6.3-3.1 4.3-6.2-.8-1.3-2.4-2.2-4.3-2.9zm-6-15.7c-3.7 1-6.3 3.2-4.4 6.3 1 1.4 2.5 2.3 4.4 3v-9.3z"/></symbol><symbol id="fet"><path d="M56.3 31H13.8A13 13 0 0 0 1 44v61.3c0 7 5.7 12.8 12.8 12.8h54.5c7 0 12.8-5.8 12.8-12.8v-51c-16.6 14-16.6 30.2-17 36.9a6.8 6.8 0 0 1-11.7 4.4C38 81 36.3 52.4 56.3 31.1zm1 59.7c-14.6-14.7-13-46 15.2-64.3L62.2 14l42.8 1-7.3 41.4-11.8-14C57.8 59.3 57.8 82 57.3 90.6z"/></symbol><symbol id="fft"><path d="M87.8 55.7h8.5c5.9 0 10.7 4.8 10.7 10.6v45c0 6-4.8 10.7-10.7 10.7H11.7C5.8 122 1 117.2 1 111.4v-45c0-6 4.8-10.7 10.7-10.7h19.8L54 77.5a10 10 0 0 0 6.3 2.1c2 0 4.8-.8 6.2-2.2l21.3-21.7zM94 6.4C76 3.3 44.4 18.9 49 45.9H33.6l27.2 26.4 25.8-26.4H72.1C67.3 21.7 88 10.8 94 6.4z"/></symbol><symbol id="fgo"><path d="M32 62.5a30.5 30.5 0 0 1 0-61v9.6l-1-.1a5.4 5.4 0 1 0 1 10.7v5.1l-7.4.2 2.8 1.2V51l-2.8 2H32v9.5zm0-51.4V1.5a30.5 30.5 0 0 1 0 61V53h9.5l-5.8-2V26.6l-3.7.1v-5A5.4 5.4 0 0 0 32 11z"/></symbol><symbol id="fhn"><path d="M21 43h89c2.9 0 4.7 2.2 4.2 5l-9.3 53c-.5 2.7-3.2 5-6 5H8a3.8 3.8 0 0 1-3.9-3.8V22h67.2L88 36H16v32h5V43z"/></symbol><symbol id="fie"><path d="M114 22v86.2c0 2-1.7 3.8-3.8 3.8H17.8a3.8 3.8 0 0 1-3.8-3.8V19.8c0-2 1.7-3.8 3.8-3.8H109l5 6zM94 59V19H38v40h56zm-9.5-33v30h-15V26h15z"/></symbol><symbol id="lju"><path d="M56.3 57.4c0-2.4-2-4.3-4.4-4.3H12.1a4.3 4.3 0 0 0 0 8.6h39.8c2.4 0 4.4-1.9 4.4-4.3zm0-12.5c0-2.4-2-4.3-4.4-4.3H12.1a4.3 4.3 0 0 0 0 8.6h39.8c2.4 0 4.4-2 4.4-4.3zm0-12.5c0-2.4-2-4.3-4.4-4.3H12.1a4.3 4.3 0 0 0 0 8.6h39.8c2.4 0 4.4-2 4.4-4.3zm-42.5-13V23h10.6v-5.8l2.3-1.4c2.3-1.8 3.4-4.1 3.4-6.4s-1-4.7-3.2-6.5c-1-.7-2-1.3-3-1.7l-1.4 1-.1 6c0 .4-.2.6-.4.7-.4.3-.9.4-1.5.4h-2.8c-.6 0-1.1-.1-1.5-.4-.2-.2-.4-.4-.4-.7V1.9l-1.3-1c-1 .5-2.1 1-3 1.7A8.2 8.2 0 0 0 8 9c0 2.3 1 4.7 3.2 6.5.8.6 1.6 1 2.5 1.4v2.6z"/></symbol><symbol id="pkw"><path d="M14.8 29.2h34.5s13.9 14.5 11.4 15.6c-1 .5-6.1-1-11.5-3V62H14.8V41.7c-5.4 2-10.4 3.6-11.5 3.1-2.5-1 11.5-15.6 11.5-15.6zm22-17.8H16.3v13.1h6.4V14h14v-2.6zm1.7 5.2h-14v8h14v-8zm6.8-6.2v14.1H41v-9.2h-2.5v-4.9h6.8zm-8.7-7H18.5v5.4h18.1V3.5z"/></symbol><symbol id="slh"><path d="M40 45.2a20.9 20.9 0 0 1-12.4 4.2A22.6 22.6 0 0 1 5.8 30.7 22.5 22.5 0 0 1 27.6 5.6c10 0 19.4 7.7 21.4 17.6A22 22 0 0 1 45 40l14 13.8-5.1 5.1L40 45.2zM27.4 14.6c-6.2.1-12 5.2-12.7 11.5-.6 5.4 2.7 11 7.8 13.2A13.3 13.3 0 0 0 39.8 31a13.2 13.2 0 0 0-12.4-16.3z"/></symbol><symbol id="smt"><path d="M18.5 59a7.5 7.5 0 0 1-7.5-7.5V29.2c0-2.7 1.4-5 3.5-6.4v-7c0-7.4 6-13.4 13.4-13.4H36c7.4 0 13.4 6 13.4 13.4v7a7.5 7.5 0 0 1 3.5 6.4v22.3c0 4.1-3.3 7.4-7.4 7.5h-27zm26.2-21.3h-9.5v-9.5h-6.4v9.5h-9.5v6.4h9.5v9.5h6.4v-9.5h9.5v-6.4zm-2.2-22c0-3.4-2.8-6.3-6.4-6.3H28a6.4 6.4 0 0 0-6.4 6.4v5.9h21v-6z"/></symbol><symbol id="snu"><path d="M19.1 57.6c0-2.3-1.8-4.2-4.1-4.2H7.4a4.2 4.2 0 0 0 0 8.4H15c2.3 0 4.1-2 4.1-4.2zm41.6 0c0-2.3-1.8-4.2-4.1-4.2H27.4a4.2 4.2 0 0 0 0 8.4h29.2c2.3 0 4.1-2 4.1-4.2zm-41.6-12c0-2.3-1.8-4.2-4.1-4.2H7.4a4.2 4.2 0 0 0 0 8.4H15c2.3 0 4.1-1.9 4.1-4.2zm41.6 0c0-2.3-1.8-4.2-4.1-4.2H27.4a4.2 4.2 0 0 0 0 8.4h29.2c2.3 0 4.1-1.9 4.1-4.2zm-41.6-12c0-2.2-1.8-4.1-4.1-4.1H7.4a4.2 4.2 0 0 0 0 8.3H15a4 4 0 0 0 4.1-4.1zm41.6 0c0-2.2-1.8-4.1-4.1-4.1H27.4a4.2 4.2 0 0 0 0 8.3h29.2a4 4 0 0 0 4.1-4.1zm-41.6-12a4 4 0 0 0-4.1-4H7.4a4.2 4.2 0 0 0 0 8.3H15c2.3 0 4.1-2 4.1-4.2zm29-6 4.8 5a4.1 4.1 0 0 0 5.9-5.9L51 7c-.8-.8-2-1.2-3-1.2s-2.2.4-3 1.2l-7.7 7.7a4.1 4.1 0 0 0 5.8 5.9l4.9-5z"/></symbol><symbol id="sos"><path d="M74 15.4a50 50 0 0 0-19.7 0c.8 4 1.4 8.2 1.8 12.4-4.3 1-8.5 2.7-12.2 5.1-2.7-3.2-5.2-6.6-7.5-10.1a50 50 0 0 0-14 13.9c3.6 2.3 7 4.8 10.2 7.5a37.4 37.4 0 0 0-5 12.2c-4.2-.4-8.4-1-12.5-1.9a50 50 0 0 0 0 19.7 171 171 0 0 1 12.5-1.9c.9 4.4 2.6 8.5 5 12.3-3.2 2.7-6.6 5.2-10.1 7.5A50 50 0 0 0 36.4 106c2.3-3.5 4.8-6.9 7.5-10.1 3.7 2.4 7.9 4 12.2 5-.4 4.2-1 8.4-1.8 12.5a50 50 0 0 0 19.6 0c-.8-4.1-1.4-8.3-1.8-12.5 4.3-1 8.5-2.6 12.2-5 2.7 3.2 5.2 6.6 7.5 10.1a50 50 0 0 0 14-14c-3.6-2.2-7-4.7-10.2-7.4 2.4-3.8 4.1-7.9 5-12.3 4.2.5 8.4 1 12.5 2a50 50 0 0 0 0-19.8c-4.1.9-8.3 1.5-12.5 2-.9-4.4-2.6-8.6-5-12.3 3.2-2.7 6.6-5.2 10.1-7.5a50 50 0 0 0-13.9-14c-2.3 3.6-4.8 7-7.5 10.2a37.4 37.4 0 0 0-12.2-5c.4-4.3 1-8.4 1.8-12.5zM64 50.9a13.5 13.5 0 1 1 0 27 13.5 13.5 0 0 1 0-27z"/></symbol><symbol id="tpw"><path d="M64 64V45H0v19h64zm-25-5.7V60a2 2 0 1 1-4 0v-6.4l-1.9 1.8c-.4.3-1 .5-1.5.5s-1-.2-1.5-.5l-2-1.8V60a2 2 0 0 1-3.8 0v-5.3h-6.7l4.1 4c.8.7.8 1.8 0 2.5a2 2 0 0 1-2.7 0l-4.1-3.9-4.1 4a2 2 0 0 1-2.7 0c-.8-.8-.8-2 0-2.7l4-3.9-4-3.9c-.8-.7-.8-1.8 0-2.5s2-.7 2.7 0l4 3.9 4.2-4a2 2 0 0 1 2.7 0c.8.8.8 2 0 2.6l-4 4h6.6v-5.3c0-.6.1-1 .6-1.4a2 2 0 0 1 1.3-.6h.2c.5 0 .9.3 1.3.6l4 3.6 3.9-3.6a2 2 0 0 1 1.8-.5c.4 0 .7.2 1 .5.4.3.6.8.6 1.3v8.7h2.9v-8.8a2 2 0 0 1 3.9 0v8.9h6.4a1.8 1.8 0 0 1 0 3.6h-8.5c-1 0-1.8-.9-1.8-1.9v-1.7h-3zM25.3 39.5H25c-10 0-18.3-8.4-18.3-18.8S15 2 25 2s18.3 8.4 18.3 18.8a19 19 0 0 1-2.4 9l11.1-4v-3c0-.9.7-1.5 1.5-1.5h3c.8 0 1.5.6 1.5 1.5v11c0 .8-.7 1.5-1.5 1.5h-3c-.8 0-1.5-.7-1.5-1.5v-1.6l-26 9.5-.7-2.2z"/></symbol><symbol id="aql"><path d="m32 45.4 26.7-26.8H5.3L32 45.4z"/></symbol><linearGradient id="brf" x1="0" x2="0" y1="0" y2="1"><stop offset="0" style="stop-color:#fdfdfd"/><stop offset="1" style="stop-color:#eee"/></linearGradient><linearGradient id="bsf" x1="0" x2="1" y1="0" y2="0"><stop offset="0" style="stop-color:#fdfdfd"/><stop offset="1" style="stop-color:#eee"/></linearGradient></defs><rect width="1880" height="1300" style="fill:#b4d0cd"/><g style="font-family:&quot;Sans-Serif&quot;,system-ui,sans-serif"><rect width="1718" height="1140" x="81" y="81" rx="0" style="fill:#f9f9f9;stroke:#acc6c3;stroke-width:1px"/><rect width="1718" height="48" x="81" y="81" rx="0" style="fill:#fafafa;stroke:#e8e8e8;stroke-width:2px;clip-path:inset(1px 1.5px 0)"/><rect width="1718" height="1" x="81" y="127" style="fill:none;stroke:#cbcdcc;stroke-width:2px;clip-path:inset(0 1px 1.1px)"/><text x="79" y="83.5" dx="857" dy="28" style="font-family:&quot;Sans-Serif&quot;,system-ui,sans-serif;font-weight:700;font-size:19px;fill:#5a5a5a" text-anchor="middle">e2 SAT Editor</text><rect width="10.5" height=".8" x="1670" y="107" style="fill:none;stroke:#333;stroke-width:1px"/><g transform="matrix(.9 0 0 .9 1715 100)"><rect width="15" height="13" style="fill:none;stroke:#333;stroke-width:3px;clip-path:inset(.8px 1.4px 2.6px)"/><rect width="13" height="7" x="1" y="4" style="fill:none;stroke:#333;stroke-width:1.7px"/></g><g transform="rotate(45 773.5 2187.2)"><rect width="15" height="1" y="7" style="fill:none;stroke:#333;stroke-width:1px"/><rect width="1" height="15" x="7" style="fill:none;stroke:#333;stroke-width:1px"/></g><rect width="1716" height="36" x="82" y="129" style="fill:#eee"/><text x="85.5" y="130.5" dx="12" dy="24" style="font-size:20px;word-spacing:16px;fill:#000;fill-opacity:.75">File Edit Find Tools Editor Window Help</text><rect width="1717" height="1" x="81" y="165.5" style="fill:#e2e2e2;stroke:#dcdddd"/><rect width="1716" height="67" x="82" y="167" style="fill:#efefef"/><rect width="128" height="67" x="82" y="167" style="fill:#efefef"/><rect width="112" height="53" x="90" y="173" rx="3" style="fill:url(#brf);stroke:#ababab;stroke-width:1px"/><use href="#aad" style="fill:#4f4f4f" transform="matrix(.26 0 0 .26 96 191)"/><text x="90" y="173" dx="27" dy="33" style="font-weight:700;font-size:18px;fill:#000">New Tab</text><rect width="1" height="67" x="210" y="167" style="fill:#95c1f1"/><rect width="157" height="69" x="211" y="166" style="fill:#308cc6;stroke:#308cc6;stroke-width:2px;clip-path:inset(1px 0)"/><text x="211" y="165.5" dx="15" dy="41" style="font-size:19px;fill:#fff">enigma_db</text><g transform="matrix(.9 0 0 .9 341 195.5)"><rect width="22" height="22" x="-4.5" y="-4.5" rx="11" style="fill:#000;fill-opacity:.33"/><use href="#cce" style="fill:#fff" transform="matrix(.17 0 0 .17 1.2 1.2)"/></g><rect width="292" height="69" x="368" y="166" style="fill:#efefef;stroke:#dfdfdf;stroke-width:2px;clip-path:inset(1px 0)"/><use href="#pkw" style="fill:#000" transform="matrix(.38 0 0 .38 380 186)"/><text x="368" y="165.5" dx="46" dy="41" style="font-size:19px;fill:#000">enigma_db - Picons <tspan style="font-size:15px">…</tspan></text><g transform="matrix(.9 0 0 .9 634 195.5)"><rect width="22" height="22" x="-4.5" y="-4.5" rx="11" style="fill:#000;fill-opacity:.33"/><use href="#cce" style="fill:#fff" transform="matrix(.17 0 0 .17 1.2 1.2)"/></g><rect width="154" height="69" x="660" y="166" style="fill:#efefef;stroke:#dfdfdf;stroke-width:2px;clip-path:inset(1px 0)"/><text x="660" y="165.5" dx="15" dy="41" style="font-size:19px;fill:#000">neutrino</text><g transform="matrix(.9 0 0 .9 788 195.5)"><rect width="22" height="22" x="-4.5" y="-4.5" rx="11" style="fill:#000;fill-opacity:.33"/><use href="#cce" style="fill:#fff" transform="matrix(.17 0 0 .17 1.2 1.2)"/></g><rect width="292" height="69" x="814" y="166" style="fill:#efefef;stroke:#dfdfdf;stroke-width:2px;clip-path:inset(1px 0)"/><use href="#tpw" style="fill:#000" transform="matrix(.38 0 0 .38 826 186)"/><text x="814" y="165.5" dx="46" dy="41" style="font-size:19px;fill:#000">enigma_db - Edit Set<tspan style="font-size:15px">…</tspan></text><g transform="matrix(.9 0 0 .9 1081 195.5)"><rect width="22" height="22" x="-4.5" y="-4.5" rx="11" style="fill:#000;fill-opacity:.33"/><use href="#cce" style="fill:#fff" transform="matrix(.17 0 0 .17 1.2 1.2)"/></g><rect width="293" height="69" x="1106" y="166" style="fill:#efefef;stroke:#dfdfdf;stroke-width:2px;clip-path:inset(1px 0)"/><use href="#cbw" style="fill:#000" transform="matrix(.38 0 0 .38 1119 186)"/><text x="1106" y="165.5" dx="46" dy="41" style="font-size:19px;fill:#000">enigma_db - Channe<tspan style="font-size:15px">…</tspan></text><g transform="matrix(.9 0 0 .9 1373 195.5)"><rect width="22" height="22" x="-4.5" y="-4.5" rx="11" style="fill:#000;fill-opacity:.33"/><use href="#cce" style="fill:#fff" transform="matrix(.17 0 0 .17 1.2 1.2)"/></g><rect width="2" height="67" x="1398" y="167" style="fill:#dfdfdf"/><rect width="1716" height="95" x="82" y="234" style="fill:#efefef"/><use href="#fhn" style="fill:#5c5c5c" transform="matrix(.38 0 0 .38 106 257)"/><text x="88.5" y="232" dx="69" dy="59" style="font-size:25.5px;fill:#000">Open</text><use href="#fie" style="fill:#5c5c5c" transform="matrix(.38 0 0 .38 252 257)"/><text x="234.5" y="232" dx="69" dy="59" style="font-size:25.5px;fill:#000">Save</text><rect width="4" height="42" x="390" y="260" style="fill:#fff;stroke:#dfdfdf;stroke-width:2px;clip-path:inset(2px 2px 2px .5px)"/><use href="#fft" style="fill:#5c5c5c" transform="matrix(.38 0 0 .38 402 257)"/><text x="383.5" y="232" dx="69" dy="59" style="font-size:25.5px;fill:#000">Import</text><use href="#fet" style="fill:#5c5c5c" transform="matrix(.38 0 0 .38 559 257)"/><text x="541.5" y="232" dx="69" dy="59" style="font-size:25.5px;fill:#000">Export</text><rect width="4" height="42" x="713" y="260" style="fill:#fff;stroke:#dfdfdf;stroke-width:2px;clip-path:inset(2px 2px 2px .5px)"/><use href="#sos" style="fill:#5c5c5c" transform="matrix(.38 0 0 .38 725 257)"/><text x="707.5" y="232" dx="69" dy="59" style="font-size:25.5px;fill:#000">Settings</text><rect width="100" height="34" x="1148" y="264" rx="3" style="fill:url(#brf);stroke:#ababab;stroke-width:1.2px;filter:none"/><rect width="24" height="24" x="1240.5" y="269" rx="8" style="fill:none;stroke:none;stroke-opacity:.06;stroke-width:2px"/><use href="#aql" style="fill:#676767" transform="matrix(.23 0 0 .23 1228 273)"/><text x="1143" y="266" dx="12" dy="22" style="font-size:20px;fill:#000">Profile 1</text><text x="1251.5" y="232" dx="15" dy="59" style="font-size:25.5px;fill:#000">Connect</text><text x="1372.5" y="232" dx="15" dy="59" style="font-size:25.5px;fill:#000">Disconnect</text><rect width="4" height="42" x="1527" y="260" style="fill:#fff;stroke:#dfdfdf;stroke-width:2px;clip-path:inset(2px 2px 2px .5px)"/><text x="1531.5" y="232" dx="15" dy="59" style="font-size:25.5px;fill:#000">Upload</text><text x="1639.5" y="232" dx="15" dy="59" style="font-size:25.5px;fill:#000">Download</text><rect width="1720" height="95" x="80" y="234" style="fill:none;stroke:#d1d2d2;stroke-width:2px;clip-path:inset(0 2px)"/><rect width="1716" height="779" x="82" y="328" style="fill:#efefef"/><rect width="380" height="779" x="82" y="328" style="fill:#efefef"/><text x="82" y="327" dx="10" dy="33" style="font-weight:700;font-size:19px;fill:#000">Services</text><rect width="38" height="32" x="420" y="333" rx="3" style="fill:url(#brf);stroke:#ababab;stroke-width:1.2px"/><use href="#snu" style="fill:#505050" transform="matrix(.38 0 0 .38 427 336)"/><rect width="380" height="55" x="82" y="340" style="fill:#308cc6" transform="matrix(1 0 0 .996 0 38.2)"/><text x="80" y="378" dx="23" dy="34" style="font-size:19.5px;fill:#fff">All services</text><text x="80" y="433" dx="23" dy="34" style="font-size:19.5px;fill:#000">TV</text><text x="80" y="488" dx="23" dy="34" style="font-size:19.5px;fill:#000">Radio</text><text x="80" y="543" dx="23" dy="34" style="font-size:19.5px;fill:#000">Data</text><text x="82" y="631" dx="10" dy="33" style="font-weight:700;font-size:19px;fill:#000">Bouquets</text><text x="80" y="681" dx="24" dy="34" style="font-size:19.5px;fill:#000">TV</text><use href="#aql" style="fill:#636363" transform="matrix(.22 0 0 .22 86 701)"/><text x="80" y="735" dx="25" dy="34" style="font-size:19.5px;fill:#000">Swiss</text><rect width="380" height="55" x="82" y="750" style="fill:#308cc6" transform="matrix(1 0 0 .996 0 39.4)"/><text x="80" y="788" dx="25" dy="34" style="font-size:19.5px;fill:#fff">Italy</text><text x="80" y="842" dx="25" dy="34" style="font-size:19.5px;fill:#000">Tests</text><text x="80" y="895" dx="25" dy="34" style="font-size:19.5px;fill:#000">Tests 1</text><text x="80" y="948" dx="24" dy="34" style="font-size:19.5px;fill:#000">Radio</text><use href="#aql" style="fill:#636363" transform="matrix(.22 0 0 .22 86 968)"/><text x="80" y="1002" dx="25" dy="34" style="font-size:19.5px;fill:#000">Swiss</text><text x="80" y="1055" dx="25" dy="34" style="font-size:19.5px;fill:#000">Italy</text><g style="clip-path:inset(1px 1px 0 .5px)"><rect width="23" height="359" x="440" y="680" style="fill:#e6e6e6;stroke:#bcbcbc;stroke-width:2px"/><rect width="22" height="22" x="440.5" y="680.5" rx="0" style="fill:url(#bsf);stroke:#ababab;stroke-width:1.2px"/><use href="#aql" style="fill:#5c5c5c" transform="matrix(.22 0 0 -.22 444.3 698.5)"/><rect width="22" height="22" x="440.5" y="1018.5" rx="0" style="fill:url(#bsf);stroke:#ababab;stroke-width:1.2px"/><use href="#aql" style="fill:#5c5c5c" transform="matrix(.22 0 0 .22 444.3 1024)"/><rect width="22" height="227" x="440.5" y="703" rx="0" style="fill:url(#bsf);fill-opacity:.8;stroke:#ababab;stroke-opacity:.6;stroke-width:1.2px"/></g><rect width="1332" height="65" x="82" y="1043" style="fill:#efefef"/><rect width="1332" height="65" x="80" y="1042" style="fill:none;stroke:#e2e2e2;stroke-width:2px;clip-path:inset(0 2px 2px)"/><use href="#aad" style="fill:#545454" transform="matrix(.25 0 0 .25 101 1065.5)"/><text x="95" y="1049.5" dx="28" dy="33" style="font-weight:700;font-size:20.5px;fill:#000">Bouquet</text><rect width="100" height="34" x="349" y="1058" rx="3" style="fill:url(#brf);stroke:#ababab;stroke-width:1.2px;filter:none"/><use x="15" href="#slh" style="fill:#545454" transform="matrix(.38 0 0 .38 354 1062)"/><text x="334" y="1060" dx="54" dy="22" style="font-size:20px;fill:#000">Find<tspan style="font-size:15px">…</tspan></text><rect width=".5" height="28" x="465.5" y="706" style="fill:none;stroke:#000;stroke-opacity:.25;stroke-dasharray:0,2px,0"/><text x="469" y="327" dx="10" dy="32" style="font-weight:700;font-size:19px;fill:#000">Channels</text><rect width="38" height="32" x="1755" y="333" rx="3" style="fill:url(#brf);stroke:#ababab;stroke-width:1.2px"/><use href="#lju" style="fill:#505050" transform="matrix(.38 0 0 .38 1762 336)"/><rect width="1325" height="26" x="469" y="377" style="fill:url(#brf);stroke:#c8c8c8;stroke-width:2px;clip-path:inset(1px 1px 0)"/><text x="469" y="379" dy="18" style="font-size:17px;fill:#000"><tspan x="472">Index</tspan> <tspan x="571">Name</tspan> <tspan x="876">Parental</tspan> <tspan x="982">Service ID</tspan> <tspan x="1105">Transport ID</tspan> <tspan x="1227">Type</tspan> <tspan x="1356">CAS</tspan> <tspan x="1425">Provider</tspan> <tspan x="1695">System</tspan></text><rect width="3" height="26" x="565" y="377" style="fill:#ddd;stroke:#cdcdcd;stroke-width:1px;clip-path:inset(1px 1px 1px 0)"/><rect width="3" height="26" x="870" y="377" style="fill:#ddd;stroke:#cdcdcd;stroke-width:1px;clip-path:inset(1px 1px 1px 0)"/><rect width="3" height="26" x="976" y="377" style="fill:#ddd;stroke:#cdcdcd;stroke-width:1px;clip-path:inset(1px 1px 1px 0)"/><rect width="3" height="26" x="1099" y="377" style="fill:#ddd;stroke:#cdcdcd;stroke-width:1px;clip-path:inset(1px 1px 1px 0)"/><rect width="3" height="26" x="1220" y="377" style="fill:#ddd;stroke:#cdcdcd;stroke-width:1px;clip-path:inset(1px 1px 1px 0)"/><rect width="3" height="26" x="1350" y="377" style="fill:#ddd;stroke:#cdcdcd;stroke-width:1px;clip-path:inset(1px 1px 1px 0)"/><rect width="3" height="26" x="1419" y="377" style="fill:#ddd;stroke:#cdcdcd;stroke-width:1px;clip-path:inset(1px 1px 1px 0)"/><rect width="3" height="26" x="1690" y="377" style="fill:#ddd;stroke:#cdcdcd;stroke-width:1px;clip-path:inset(1px 1px 1px 0)"/><rect width="1325" height="687" x="469" y="403" style="fill:#fff"/><rect width="1325" height="49" x="473" y="707" style="fill:#308cc6" transform="matrix(1 0 0 .996 -4 39.1)"/><text x="469" y="404" dy="31" style="font-size:20px;fill:#000"><tspan x="492">38</tspan> <tspan x="572">Giallo HD HD</tspan> <tspan x="982">4322</tspan> <tspan x="1106">1000</tspan> <tspan x="1227">HD</tspan> <tspan x="1392" style="font-size:15px">...</tspan> <tspan x="1425">TVN WBD</tspan> <tspan x="1695">DVB-S2</tspan></text><use href="#smt" style="fill:#545454" transform="matrix(.38 0 0 .38 880 416)"/><use href="#cdd" style="fill:#545454" transform="matrix(.38 0 0 .38 1360 416)"/><text x="469" y="453" dy="31" style="font-size:20px;fill:#000"><tspan x="492">39</tspan> <tspan x="572">TOPcrime HD</tspan> <tspan x="982">132</tspan> <tspan x="1106">1200</tspan> <tspan x="1227">HD</tspan> <tspan x="1392" style="font-size:15px">...</tspan> <tspan x="1425">Mediaset</tspan> <tspan x="1695">DVB-S2</tspan></text><use href="#smt" style="fill:#545454" transform="matrix(.38 0 0 .38 880 465)"/><use href="#cdd" style="fill:#545454" transform="matrix(.38 0 0 .38 1360 465)"/><text x="469" y="502" dy="31" style="font-size:20px;fill:#000"><tspan x="492">40</tspan> <tspan x="572">Boing HD</tspan> <tspan x="982">126</tspan> <tspan x="1106">1200</tspan> <tspan x="1227">HD</tspan> <tspan x="1392" style="font-size:15px">...</tspan> <tspan x="1426">Mediaset</tspan> <tspan x="1695">DVB-S2</tspan></text><use href="#cdd" style="fill:#545454" transform="matrix(.38 0 0 .38 1360 514)"/><text x="469" y="550" dy="31" style="font-size:20px;fill:#000"><tspan x="492">41</tspan> <tspan x="572">K2</tspan> <tspan x="982">15204</tspan> <tspan x="1106">300</tspan> <tspan x="1227">H.264</tspan> <tspan x="1392" style="font-size:15px">...</tspan> <tspan x="1425">Warner Bros. Discovery</tspan> <tspan x="1695">DVB-S2</tspan></text><use href="#cdd" style="fill:#545454" transform="matrix(.38 0 0 .38 1360 562)"/><text x="469" y="599" dy="31" style="font-size:20px;fill:#000"><tspan x="492">42</tspan> <tspan x="572">Rai Gulp HD</tspan> <tspan x="982">17712</tspan> <tspan x="1106">12500</tspan> <tspan x="1227">HD</tspan>  <tspan x="1426">Rai</tspan> <tspan x="1695">DVB-S2</tspan></text><text x="469" y="648" dy="31" style="font-size:20px;fill:#000"><tspan x="492">43</tspan> <tspan x="572">Rai YoYo HD</tspan> <tspan x="982">8511</tspan> <tspan x="1106">12400</tspan> <tspan x="1227">HD</tspan> <tspan x="1392" style="font-size:15px">...</tspan> <tspan x="1425">RAI</tspan> <tspan x="1695">DVB-S2</tspan></text><use href="#cdd" style="fill:#545454" transform="matrix(.38 0 0 .38 1360 660)"/><text x="469" y="696" dy="31" style="font-size:20px;fill:#000"><tspan x="492">44</tspan> <tspan x="572">Frisbee</tspan> <tspan x="982">15205</tspan> <tspan x="1106">300</tspan> <tspan x="1227">H.264</tspan> <tspan x="1392" style="font-size:15px">...</tspan> <tspan x="1425">Warner Bros. Discovery</tspan> <tspan x="1695">DVB-S2</tspan></text><use href="#cdd" style="fill:#545454" transform="matrix(.38 0 0 .38 1360 708)"/><text x="469" y="745" dy="31" style="font-size:20px;fill:#fff"><tspan x="492">45</tspan> <tspan x="572">NASA+</tspan> <tspan x="982">1958</tspan> <tspan x="1106">0</tspan> <tspan x="1227">STREAM</tspan> <tspan x="1695">[eservice]</tspan></text><text x="469" y="794" dy="31" style="font-size:20px;fill:#000"><tspan x="492">46</tspan> <tspan x="572">Cartoonito HD</tspan> <tspan x="982">133</tspan> <tspan x="1106">1200</tspan> <tspan x="1227">HD</tspan> <tspan x="1392" style="font-size:15px">...</tspan> <tspan x="1425">Mediaset</tspan> <tspan x="1695">DVB-S2</tspan></text><use href="#cdd" style="fill:#545454" transform="matrix(.38 0 0 .38 1360 806)"/><text x="469" y="843" dy="31" style="font-size:20px;fill:#000"><tspan x="492">47</tspan> <tspan x="572">Super!</tspan> <tspan x="982">55</tspan> <tspan x="1106">512</tspan> <tspan x="1227">H.264</tspan> <tspan x="1425">Persidera</tspan> <tspan x="1695">DVB-T</tspan></text><text x="469" y="892" dy="31" style="font-size:20px;fill:#000"><tspan x="492">48</tspan> <tspan x="572">Rai News 24 HD</tspan> <tspan x="982">17711</tspan> <tspan x="1106">12500</tspan> <tspan x="1227">HD</tspan> <tspan x="1426">Rai</tspan> <tspan x="1695">DVB-S2</tspan></text><text x="469" y="940" dy="31" style="font-size:20px;fill:#000"><tspan x="492">49</tspan> <tspan x="572">Mediaset Italia2 HD</tspan> <tspan x="982">130</tspan> <tspan x="1106">1200</tspan> <tspan x="1227">HD</tspan> <tspan x="1392" style="font-size:15px">...</tspan> <tspan x="1425">Mediaset</tspan> <tspan x="1695">DVB-S2</tspan></text><use href="#cdd" style="fill:#545454" transform="matrix(.38 0 0 .38 1360 952)"/><text x="469" y="987" dy="31" style="font-size:20px;fill:#000"><tspan x="492">50</tspan> <tspan x="572">Sky TG24</tspan> <tspan x="982">90</tspan> <tspan x="1106">512</tspan> <tspan x="1227">H.264</tspan> <tspan x="1425">Persidera</tspan> <tspan x="1695">DVB-T</tspan></text><g style="clip-path:inset(1px 1px 0 .5px)"><rect width="23" height="590.5" x="1776" y="377" style="fill:#e6e6e6;stroke:#bcbcbc;stroke-width:2px"/><rect width="22" height="22" x="1776.5" y="377.5" rx="0" style="fill:url(#bsf);stroke:#ababab;stroke-width:1.2px"/><use href="#aql" style="fill:#5c5c5c" transform="matrix(.22 0 0 -.22 1780.3 395.5)"/><rect width="22" height="22" x="1776.5" y="945" rx="0" style="fill:url(#bsf);stroke:#ababab;stroke-width:1.2px"/><use href="#aql" style="fill:#5c5c5c" transform="matrix(.22 0 0 .22 1780.3 951)"/><rect width="22" height="80" x="1776.5" y="532" rx="0" style="fill:url(#bsf);fill-opacity:.8;stroke:#ababab;stroke-opacity:.6;stroke-width:1.2px"/></g><g style="clip-path:inset(.5px 1px 1px)"><rect width="1308" height="23" x="469" y="967.7" style="fill:#e6e6e6;stroke:#bcbcbc;stroke-width:2px"/><rect width="22" height="22" x="469.5" y="968.2" rx="0" style="fill:url(#brf);stroke:#ababab;stroke-width:1.2px"/><use href="#aql" style="fill:#5c5c5c" transform="matrix(0 .22 -.22 0 486.5 972)"/><rect width="22" height="22" x="1754.5" y="968.2" rx="0" style="fill:url(#brf);stroke:#ababab;stroke-width:1.2px"/><use href="#aql" style="fill:#5c5c5c" transform="matrix(0 .22 .22 0 1759.5 972)"/><rect width="900" height="22" x="492" y="968.2" rx="0" style="fill:url(#brf);fill-opacity:.8;stroke:#ababab;stroke-opacity:.6;stroke-width:1.2px"/></g><rect width="22.5" height="24.5" x="1776.5" y="967.5" style="fill:#e6e6e6;stroke:#bcbcbc;stroke-width:2px;clip-path:inset(0 2px 2px 0)"/><rect width="1329" height="52" x="469" y="991" style="fill:#fafafa"/><rect width="123" height="34" x="477" y="997" rx="3" style="fill:url(#brf);stroke:#ababab;stroke-width:1.2px;filter:none"/><text x="474" y="999" dx="12" dy="22" style="font-size:20px;fill:#000">Name</text><rect width="1329" height="52" x="588.5" y="1002" rx="8" style="fill:none;stroke:none;stroke-opacity:.06;stroke-width:2px"/><use href="#aql" style="fill:#676767" transform="matrix(.23 0 0 .23 581 1006)"/><rect width="308" height="34" x="607" y="997" rx="3" style="fill:#fff;stroke:#ababab;stroke-width:1.2px;clip-path:none"/><text x="608" y="998" dx="4" dy="23" style="font-size:19px;fill:#000">Nasa</text><rect width="82" height="33" x="927" y="997" rx="4" style="fill:#ececec"/><text x="927" y="998" dx="40" dy="23" style="font-size:19.5px;fill:#000;fill-opacity:.89" text-anchor="middle">Find</text><rect width="166" height="33" x="1018" y="997" rx="4" style="fill:#ececec"/><text x="1018" y="998" dx="83" dy="23" style="font-size:19.5px;fill:#000;fill-opacity:.89" text-anchor="middle">Find Previous</text><rect width="110" height="33" x="1193" y="997" rx="4" style="fill:#ececec"/><text x="1193" y="998" dx="55" dy="23" style="font-size:19.5px;fill:#000;fill-opacity:.89" text-anchor="middle">Find All</text><rect width="126" height="31" x="1333" y="998" rx="4" style="fill:#68c5ff;stroke:#bfbfbf;stroke-width:1px"/><text x="1333" y="999" dx="62" dy="22" style="font-size:19.5px;fill:#fff;fill-opacity:.9" text-anchor="middle">Highlight</text><use href="#cce" style="fill:#666" transform="matrix(.23 0 0 .23 1767 1009)"/><rect width="1329" height="65" x="469" y="1043" style="fill:#efefef"/><rect width="1333" height="65" x="467" y="1042" style="fill:none;stroke:#e9eaea;stroke-width:2px;clip-path:inset(0 2px 2px)"/><use href="#aad" style="fill:#545454" transform="matrix(.26 0 0 .26 488 1065.5)"/><text x="483" y="1049.5" dx="28" dy="33" style="font-weight:700;font-size:20.5px;fill:#000">Channel</text><use href="#aad" style="fill:#545454" transform="matrix(.26 0 0 .26 620 1065.5)"/><text x="615" y="1049.5" dx="28" dy="33" style="font-weight:700;font-size:20.5px;fill:#000">Stream</text><use href="#aad" style="fill:#545454" transform="matrix(.26 0 0 .26 743 1065.5)"/><text x="738" y="1049.5" dx="28" dy="33" style="font-weight:700;font-size:20.5px;fill:#000">Marker</text><g style="opacity:.25"><use href="#aad" style="fill:#545454" transform="matrix(.26 0 0 .26 863 1065.5)"/><text x="858" y="1049.5" dx="28" dy="33" style="font-weight:700;font-size:20.5px;fill:#000">Service</text></g><rect width="135" height="34" x="991" y="1058" rx="3" style="fill:url(#brf);stroke:#ababab;stroke-width:1.2px;filter:none"/><text x="991" y="1059.5" dx="22" dy="22" style="font-size:20px;fill:#000">Reference</text><rect width="4" height="24" x="1136.5" y="1063" style="fill:#fff;stroke:#dfdfdf;stroke-width:2px;clip-path:inset(2px 2px 2px .5px)"/><g style="opacity:.25"><rect width="147" height="34" x="1146" y="1058" rx="3" style="fill:url(#brf);stroke:#ababab;stroke-width:1.2px;filter:none"/><text x="1146" y="1059.5" dx="24" dy="22" style="font-size:20px;fill:#000">Drag&amp;Drop</text></g><rect width="100" height="34" x="1685" y="1058" rx="3" style="fill:url(#brf);stroke:#ababab;stroke-width:1.2px;filter:none"/><use x="15" href="#slh" style="fill:#545454" transform="matrix(.38 0 0 .38 1687 1062)"/><text x="1675" y="1060.5" dx="46" dy="22" style="font-size:20px;fill:#000">Find<tspan style="font-size:15px">…</tspan></text><rect width="1720" height="780" x="80" y="328" style="fill:none;stroke:#d5d6d6;stroke-width:1.8px;clip-path:inset(0 2px)"/><rect width="1716" height="75" x="82" y="1109" style="fill:#efefef"/><text x="95" y="1120" dx="29" dy="33" style="font-weight:700;font-size:24px;fill:#000">Tools</text><rect width="4" height="25" x="207" y="1133" style="fill:#fff;stroke:#dfdfdf;stroke-width:2px;clip-path:inset(2px 2px 2px .5px)"/><text x="197" y="1120" dx="29" dy="33" style="font-weight:700;font-size:24px;fill:#000">Inspect</text><text x="1665" y="1120" dx="11" dy="33" style="font-weight:700;font-size:24px;fill:#000">autofix</text><rect width="1716" height="36.4" x="82" y="1184" rx="0" style="fill:#efefef;clip-path:none"/><rect width="1720" height="37" x="80" y="1184" style="fill:none;stroke:#d5d6d6;stroke-width:2px;clip-path:inset(0 2px 37.3px)"/><text x="85" y="1181" dx="29" dy="29" style="font-size:19.5px;fill:#000"><tspan>Channels: 143</tspan> <tspan dx="10">Bouquet: userbouquet.dbe01.tv</tspan></text><text x="112" y="1181" dx="1212" dy="29" style="font-size:19.5px;fill:#000"><tspan>TV: 1240</tspan> <tspan dx="10">Radio: 304</tspan> <tspan dx="10">Data: 148</tspan> <tspan dx="10">Total: 1692</tspan></text><use href="#fgo" style="fill:#5c5c5c" transform="matrix(.38 0 0 .38 1751 1191)"/><rect width="1718" height="1140" x="81" y="81" rx="0" style="fill:none;stroke:#8c9695;stroke-width:1px"/></g></svg>