<svg xmlns="http://www.w3.org/2000/svg" style="pointer-events:none;user-select:none" viewBox="0 0 1880 1300"><defs><symbol id="aad"><path d="M37.75 37.75h18.127v-11.5H37.75V8.123h-11.5V26.25H8.123v11.5H26.25v18.127h11.5V37.75z"/></symbol><symbol id="fbt"><path d="M56.256 31.057H13.818C6.744 31.057 1 36.801 1 43.875v61.295c0 7.074 5.744 12.818 12.818 12.818h54.476c7.075 0 12.818-5.744 12.818-12.818V54.119C64.496 68.159 64.463 84.4 64.087 91.084a6.817 6.817 0 0 1-11.642 4.425c-14.421-14.502-16.181-43.133 3.811-64.452zm1.037 59.637C42.669 75.989 44.254 44.706 72.527 26.35L62.162 13.988 105 15.072l-7.263 41.344-11.808-14.082c-28.127 16.992-28.15 39.728-28.636 48.36z"/></symbol><symbol id="lcu"><path d="M56.25 57.423a4.33 4.33 0 0 0-4.327-4.327H12.077c-2.388 0-4.327 1.939-4.327 4.327s1.939 4.327 4.327 4.327h39.846a4.33 4.33 0 0 0 4.327-4.327zm0-12.52a4.33 4.33 0 0 0-4.327-4.328H12.077a4.33 4.33 0 0 0-4.327 4.328 4.33 4.33 0 0 0 4.327 4.327h39.846a4.33 4.33 0 0 0 4.327-4.327zm0-12.521a4.33 4.33 0 0 0-4.327-4.327H12.077c-2.388 0-4.327 1.939-4.327 4.327s1.939 4.327 4.327 4.327h39.846a4.33 4.33 0 0 0 4.327-4.327zM13.803 19.471v3.446h10.579v-5.844a11.23 11.23 0 0 0 2.343-1.41c2.237-1.745 3.347-4.068 3.371-6.392S29.057 4.6 26.857 2.8c-.887-.725-1.951-1.273-3.024-1.702l-1.372.918-.062 6.154c-.003.286-.167.503-.402.659-.376.249-.899.364-1.472.364h-2.85c-.565-.008-1.082-.142-1.452-.406-.242-.173-.413-.406-.41-.702l.062-6.155-1.348-.947c-1.083.403-2.158.924-3.06 1.628C9.23 4.357 8.12 6.679 8.096 9.003c-.023 2.323 1.039 4.671 3.239 6.471.725.593 1.567 1.067 2.437 1.454.016.617.026 1.607.031 2.543z"/></symbol><symbol id="sdh"><path d="M40.023 45.152c-3.477 2.591-7.729 4.192-12.407 4.221-10.406.066-20.276-8.26-21.806-18.699C4.079 18.86 13.39 6.51 25.93 5.634a23.135 23.135 0 0 1 1.686-.053c10 .095 19.38 7.75 21.337 17.619 1.156 5.829-.437 11.92-3.87 16.758l13.82 13.819-5.128 5.128-13.752-13.753zM27.395 14.645c-6.236.06-12 5.17-12.677 11.431-.588 5.436 2.691 11.076 7.773 13.229 6.62 2.806 15.346-1.167 17.352-8.391 2.055-7.404-3.759-16.031-12.032-16.265a19.293 19.293 0 0 0-.416-.004z"/></symbol><symbol id="ses"><path d="M73.934 15.359a50.006 50.006 0 0 0-19.668 0 128.34 128.34 0 0 1 1.871 12.477 37.41 37.41 0 0 0-12.249 5.073 128.485 128.485 0 0 1-7.499-10.146 50.018 50.018 0 0 0-13.908 13.908 128.735 128.735 0 0 1 10.146 7.499 37.41 37.41 0 0 0-5.073 12.249 128.34 128.34 0 0 1-12.477-1.871 49.968 49.968 0 0 0 0 19.668 128.34 128.34 0 0 1 12.477-1.871 37.4 37.4 0 0 0 5.073 12.249 128.485 128.485 0 0 1-10.146 7.499 50.018 50.018 0 0 0 13.908 13.908 128.485 128.485 0 0 1 7.499-10.146 37.433 37.433 0 0 0 12.249 5.074 128.366 128.366 0 0 1-1.871 12.476 49.968 49.968 0 0 0 19.668 0 128.366 128.366 0 0 1-1.871-12.476 37.433 37.433 0 0 0 12.249-5.074 128.485 128.485 0 0 1 7.499 10.146 50.018 50.018 0 0 0 13.908-13.908 128.485 128.485 0 0 1-10.146-7.499 37.4 37.4 0 0 0 5.073-12.249 128.34 128.34 0 0 1 12.477 1.871 49.968 49.968 0 0 0 0-19.668 128.34 128.34 0 0 1-12.477 1.871 37.41 37.41 0 0 0-5.073-12.249 128.735 128.735 0 0 1 10.146-7.499 50.018 50.018 0 0 0-13.908-13.908 128.485 128.485 0 0 1-7.499 10.146 37.41 37.41 0 0 0-12.249-5.073 128.34 128.34 0 0 1 1.871-12.477zM64.1 50.882c7.451 0 13.5 6.049 13.5 13.5s-6.049 13.5-13.5 13.5-13.5-6.049-13.5-13.5 6.049-13.5 13.5-13.5z"/></symbol><symbol id="afm"><path d="M32 13.243a6.495 6.495 0 0 0-4.608 1.907L2.907 39.635c-2.543 2.543-2.543 6.672 0 9.215s6.672 2.543 9.215 0L32 28.972 51.878 48.85c2.543 2.543 6.672 2.543 9.215 0s2.543-6.672 0-9.215L36.608 15.15A6.495 6.495 0 0 0 32 13.243z"/></symbol><symbol id="cgk"><path d="m5.601 32 18.857 18.856 33.941-33.941-3.772-3.771-30.169 30.17L9.373 28.229 5.601 32z"/></symbol><linearGradient id="bhm" x1="0" x2="0" y1="0" y2="1"><stop offset="0" style="stop-color:#000;stop-opacity:.15"/><stop offset="1" style="stop-color:#000;stop-opacity:.19"/></linearGradient><linearGradient id="bim" x1="0" x2="0" y1="0" y2="1"><stop offset=".4" style="stop-color:#0095ff"/><stop offset="1" style="stop-color:#0d7bff"/></linearGradient><filter id="bjm" color-interpolation-filters="sRGB"><feDropShadow dx="0" dy="1.5" flood-opacity=".06" stdDeviation="1"/><feDropShadow dx="0" dy="0" flood-opacity=".2" stdDeviation=".8"/></filter><filter id="mkm" color-interpolation-filters="sRGB"><feDropShadow dx="-2" dy="19" flood-opacity=".1" stdDeviation="8"/><feDropShadow dx="0" dy="10" flood-opacity=".3" stdDeviation="23"/></filter></defs><path d="M0 0h1880v1300H0z" style="fill:#b4d0cd"/><path d="M0 0h1880v1330H0z" style="fill:#000;fill-opacity:.2"/><g style="font-family:'Helvetica Neue',sans-serif-light,Helvetica,sans-serif;opacity:.8" transform="matrix(1.41 0 0 1.41 -656 -271)"><rect width="1718" height="1140" x="81" y="81" rx="15" style="fill:#e7e8e8;stroke:#a6bbb9;stroke-width:1px"/><path d="M82 192h1716v100H82z" style="fill:#e7e8e8"/><text x="408" y="192" dx="69" dy="59" style="font-size:26px;fill:#000">Import</text><use href="#fbt" style="fill:#4c4c4c" transform="matrix(.38 0 0 .38 592 217)"/><text x="574" y="192" dx="69" dy="59" style="font-size:26px;fill:#000">Export</text><path d="M756 212h1v61h-1z" style="fill:none;stroke:#000;stroke-opacity:.3;stroke-dasharray:1px,3px"/><use href="#ses" style="fill:#4c4c4c" transform="matrix(.38 0 0 .38 773 217)"/><text x="758" y="192" dx="69" dy="59" style="font-size:26px;fill:#000">Settings</text><rect width="125" height="30" x="1049" y="224" rx="8" style="fill:#fff;stroke:url(#bhm);stroke-width:.4px;filter:url(#bjm)"/><rect width="24" height="24" x="1146.5" y="227" rx="8" style="fill:url(#bim);stroke:url(#bhm);stroke-opacity:.06;stroke-width:2px"/><use href="#afm" style="fill:#fff" transform="matrix(.16 0 0 .16 1153.4 229.7)"/><use href="#afm" style="fill:#fff" transform="matrix(.16 0 0 -.16 1153.4 248.7)"/><text x="1049" y="224" dx="12" dy="22" style="font-size:20px;fill:#000">Profile 1</text><text x="1196" y="192" dx="15" dy="59" style="font-size:26px;fill:#000">Connect</text><text x="1329" y="192" dx="15" dy="59" style="font-size:26px;fill:#000">Disconnect</text><path d="M1501 212h1v61h-1z" style="fill:none;stroke:#000;stroke-opacity:.3;stroke-dasharray:1px,3px"/><text x="1513" y="192" dx="15" dy="59" style="font-size:26px;fill:#000">Upload</text><text x="1632" y="192" dx="15" dy="59" style="font-size:26px;fill:#000">Download</text><path d="M80 192h1720v100H80z" style="fill:none;stroke:#d0d0d0;stroke-width:2.4px;clip-path:inset(0 2px)"/><path d="M82 291h1716v835H82z" style="fill:#f3f4f4"/><text x="473" y="291" dx="10" dy="32" style="font-weight:700;font-size:20px;fill:#000">Channels</text><use href="#lcu" style="fill:#505050" transform="matrix(.38 0 0 .38 1751 303)"/><path d="M473 340h1325v26H473z" style="fill:#ececec"/><text x="473" y="340" dy="18" style="font-size:17px;fill:#000"><tspan x="479">Index</tspan> <tspan x="578">Name</tspan></text><path d="M571 343h.5v19h-.5z" style="fill:none;stroke:#c7c7c7;stroke-width:1px"/><path d="M473 366h1325v687H473z" style="fill:#fff"/><path d="M473 707h1325v49H473z" style="fill:#0044e2"/><text x="473" y="366" dy="31" style="font-size:19px;fill:#000"><tspan x="500">38</tspan> <tspan x="580">Giallo</tspan></text><text x="473" y="415" dy="31" style="font-size:19px;fill:#000"><tspan x="500">39</tspan> <tspan x="580">TOPcrime HD</tspan></text><text x="473" y="464" dy="31" style="font-size:19px;fill:#000"><tspan x="500">40</tspan> <tspan x="580">Boing HD</tspan></text><text x="473" y="512" dy="31" style="font-size:19px;fill:#000"><tspan x="500">41</tspan> <tspan x="580">K2</tspan></text><text x="473" y="561" dy="31" style="font-size:19px;fill:#000"><tspan x="500">42</tspan> <tspan x="580">Rai Gulp HD</tspan></text><text x="473" y="610" dy="31" style="font-size:19px;fill:#000"><tspan x="500">43</tspan> <tspan x="580">Rai YoYo HD</tspan></text><text x="473" y="658" dy="31" style="font-size:19px;fill:#000"><tspan x="500">44</tspan> <tspan x="580">Frisbee</tspan></text><text x="473" y="707" dy="31" style="font-size:19px;fill:#fff"><tspan x="500">45</tspan> <tspan x="580">NASA+</tspan></text><text x="473" y="756" dy="31" style="font-size:19px;fill:#000"><tspan x="500">46</tspan> <tspan x="580">Cartoonito HD</tspan></text><text x="473" y="805" dy="31" style="font-size:19px;fill:#000"><tspan x="500">47</tspan> <tspan x="580">Super!</tspan></text><text x="473" y="854" dy="31" style="font-size:19px;fill:#000"><tspan x="500">48</tspan> <tspan x="580">Rai News 24 HD</tspan></text><text x="473" y="902" dy="31" style="font-size:19px;fill:#000"><tspan x="500">49</tspan> <tspan x="580">Mediaset Italia2 HD</tspan></text><text x="473" y="951" dy="31" style="font-size:19px;fill:#000"><tspan x="500">50</tspan> <tspan x="580">Sky TG24</tspan> <tspan x="990">90</tspan> <tspan x="1114">512</tspan> <tspan x="1235">H.264</tspan> <tspan x="1433">Persidera</tspan> <tspan x="1703">DVB-T</tspan></text><text x="473" y="997" dy="31" style="font-size:19px;fill:#000"><tspan x="500">51</tspan> <tspan x="580">TGCOM24 HD</tspan> <tspan x="990">128</tspan> <tspan x="1114">1200</tspan> <tspan x="1235">HD</tspan> <tspan x="1433">Mediaset</tspan> <tspan x="1703">DVB-S2</tspan></text><rect width="12" height="77" x="1782" y="541" rx="7" style="fill:#7f7f7f"/><path d="M473 1026h1325v73H473z" style="fill:#f7f8f8"/><path d="M471 1025h1329v73H471z" style="fill:none;stroke:#e9eaea;stroke-width:2.4px;clip-path:inset(0 2px 2px)"/><use href="#aad" style="fill:#545454" transform="matrix(.26 0 0 .26 492 1052)"/><text x="487" y="1036" dx="28" dy="33" style="font-weight:700;font-size:21px;fill:#000">Channel</text><use href="#aad" style="fill:#545454" transform="matrix(.26 0 0 .26 625 1052)"/><text x="621" y="1036" dx="28" dy="33" style="font-weight:700;font-size:21px;fill:#000">Stream</text><use href="#aad" style="fill:#545454" transform="matrix(.26 0 0 .26 746 1052)"/><text x="742" y="1036" dx="28" dy="33" style="font-weight:700;font-size:21px;fill:#000">Marker</text><g style="opacity:.24"><use href="#aad" style="fill:#545454" transform="matrix(.26 0 0 .26 867 1052)"/><text x="862" y="1036" dx="28" dy="33" style="font-weight:700;font-size:21px;fill:#000">Service</text></g><rect width="135" height="32" x="993" y="1044" rx="8" style="fill:#fff;stroke:url(#bhm);stroke-width:.4px;filter:url(#bjm)"/><text x="993" y="1044" dx="22" dy="22" style="font-size:20px;fill:#000">Reference</text><g style="opacity:.24"><rect width="147" height="32" x="1157" y="1044" rx="8" style="fill:#fff;stroke:url(#bhm);stroke-width:.4px;filter:url(#bjm)"/><text x="1157" y="1044" dx="25" dy="22" style="font-size:20px;fill:#000">Drag&amp;Drop</text></g><rect width="128" height="32" x="1652" y="1044" rx="8" style="fill:#fff;stroke:url(#bhm);stroke-width:.4px;filter:url(#bjm)"/><use href="#sdh" style="fill:#545454" transform="matrix(.38 0 0 .38 1664 1047)"/><text x="1652" y="1044" dx="46" dy="22" style="font-size:20px;fill:#000">Find<tspan style="font-size:15px">…</tspan></text><path d="M80 291h1720v836H80z" style="fill:none;stroke:#d5d6d6;stroke-width:2.4px;clip-path:inset(0 2px)"/><path d="M81 81h1718v1140H81z" style="fill:#000;opacity:.1"/></g><g style="font-family:'Helvetica Neue',sans-serif-light,Helvetica,sans-serif" transform="matrix(1.41 0 0 1.41 321 189)"><rect width="1061" height="650" x="1" y="1" rx="15" style="fill:#f3f4f4;stroke:#a6bbb9;stroke-width:1px;filter:url(#mkm)"/><rect width="1059" height="57" x="2" y="2" rx="15" style="fill:#f8f9f9;stroke:#fff;stroke-width:1px;clip-path:inset(0 0 15px)"/><path d="M1 44h1061v1H1z" style="fill:none;stroke:#cdcece;stroke-width:.5px"/><text x="2" y="2" dx="529" dy="28" style="font-family:'Helvetica Neue',Helvetica,sans-serif;font-weight:700;font-size:20px;fill:#494949" text-anchor="middle">Add Channel</text><ellipse cx="21" cy="23" rx="8.8" style="fill:#ff5f5a;stroke:#000;stroke-opacity:.1"/><ellipse cx="52" cy="23" rx="8.8" style="fill:#dedfcf;stroke:#000;stroke-opacity:.1"/><ellipse cx="83" cy="23" rx="8.8" style="fill:#28c840;stroke:#000;stroke-opacity:.1"/><use href="#afm" style="fill:#252525" transform="matrix(-.26 0 0 .26 971 53)"/><text x="976" y="51" dy="15" style="font-weight:700;font-size:16.5px;fill:#252525">collapse</text><path d="M1 75h227v507H1z" style="fill:#e7e8e8"/><text x="1" y="76" dx="22" dy="38" style="font-size:22.5px">Services</text><text x="1" y="136" dx="22" dy="38" style="font-size:22.5px">Bouquets</text><text x="1" y="197" dx="22" dy="38" style="font-size:22.5px">Positions</text><path d="M1 257h227v60H1z" style="fill:#d5d6d6"/><text x="1" y="257" dx="22" dy="38" style="font-size:22.5px">Providers</text><text x="1" y="318" dx="22" dy="38" style="font-size:22.5px">Resolution</text><text x="1" y="379" dx="22" dy="38" style="font-size:22.5px">Encryption</text><text x="1" y="438" dx="22" dy="38" style="font-size:22.5px">A-Z</text><path d="M228 75h263v507H228z" style="fill:#fff"/><path d="M228 347h263v34H228z" style="fill:#ebebeb"/><text x="255" y="75" dy="29" style="font-size:19.5px">M7 Group</text><text x="255" y="108" dy="29" style="font-size:19.5px">MB Satellite</text><text x="255" y="141" dy="29" style="font-size:19.5px">MCEU</text><text x="255" y="175" dy="29" style="font-size:19.5px">MTHREE SATCOM</text><text x="255" y="208" dy="29" style="font-size:19.5px">Mediaset</text><text x="255" y="241" dy="29" style="font-size:19.5px">NOVA</text><text x="255" y="274" dy="29" style="font-size:19.5px">NURTS</text><text x="255" y="306" dy="29" style="font-size:19.5px">Nimbus</text><text x="255" y="341" dy="29" style="font-size:19.5px">NoName</text><text x="255" y="378" dy="29" style="font-size:19.5px">Persidera</text><text x="255" y="412" dy="29" style="font-size:19.5px">PlayBox Neo Suite</text><text x="255" y="446" dy="29" style="font-size:19.5px">RAI</text><text x="255" y="479" dy="29" style="font-size:19.5px">Radio RTR</text><text x="255" y="512" dy="29" style="font-size:19.5px">Radio Television Suisse</text><text x="255" y="544" dy="29" style="font-size:19.5px">Radio ZET Gold</text><rect width="12" height="94" x="477" y="299" rx="7" style="fill:#000;fill-opacity:.46"/><ellipse cx="496.3" cy="329.4" rx="4" style="fill:#dadbdb"/><path d="M502 75h559v26H502z" style="fill:#ececec"/><text x="502" y="75" dy="18" style="font-size:17px;fill:#000"><tspan x="508">Index</tspan> <tspan x="596">Name</tspan> <tspan x="822">Type</tspan> <tspan x="937">Provider</tspan></text><path d="M589 78h.5v19h-.5z" style="fill:none;stroke:#c7c7c7;stroke-width:1px"/><path d="M815 78h.5v19h-.5z" style="fill:none;stroke:#c7c7c7;stroke-width:1px"/><path d="M929 78h.5v19h-.5z" style="fill:none;stroke:#c7c7c7;stroke-width:1px"/><path d="M502 101h559v481H502z" style="fill:#fff"/><path d="M502 469h559v34H502z" style="fill:#0044e2"/><text x="502" y="95" dy="29" style="font-size:19.5px;opacity:.25"><tspan x="528">26</tspan> <tspan x="597">CH4441</tspan> <tspan x="823">Data</tspan> <tspan x="938">NoName</tspan></text><text x="502" y="128" dy="29" style="font-size:19.5px;opacity:.25"><tspan x="528">27</tspan> <tspan x="597">CH4442</tspan> <tspan x="823">Data</tspan> <tspan x="938">NoName</tspan></text><text x="502" y="162" dy="29" style="font-size:19.5px;opacity:.25"><tspan x="528">28</tspan> <tspan x="597">CH4443</tspan> <tspan x="823">Data</tspan> <tspan x="938">NoName</tspan></text><text x="502" y="195" dy="29" style="font-size:19.5px;opacity:.25"><tspan x="528">29</tspan> <tspan x="597">CH4445</tspan> <tspan x="823">Data</tspan> <tspan x="938">NoName</tspan></text><text x="502" y="228" dy="29" style="font-size:19.5px;opacity:.25"><tspan x="528">30</tspan> <tspan x="597">CH4447</tspan> <tspan x="823">Data</tspan> <tspan x="938">NoName</tspan></text><text x="502" y="262" dy="29" style="font-size:19.5px;opacity:.25"><tspan x="528">31</tspan> <tspan x="597">CH4448</tspan> <tspan x="823">Data</tspan> <tspan x="938">NoName</tspan></text><text x="502" y="296" dy="29" style="font-size:19.5px"><tspan x="528">39</tspan> <tspan x="597">Museum 4K</tspan> <tspan x="823">TV</tspan> <tspan x="938">NoName</tspan></text><text x="502" y="330" dy="29" style="font-size:19.5px"><tspan x="528">40</tspan> <tspan x="597">MyZen 4K</tspan> <tspan x="823">TV</tspan> <tspan x="938">NoName</tspan></text><text x="502" y="363" dy="29" style="font-size:19.5px"><tspan x="528">63</tspan> <tspan x="597">Fokus TV HD</tspan> <tspan x="823">TV</tspan> <tspan x="938">NoName</tspan></text><text x="502" y="396" dy="29" style="font-size:19.5px;opacity:.25"><tspan x="528">94</tspan> <tspan x="597">CH15790</tspan> <tspan x="823">Radio</tspan> <tspan x="938">NoName</tspan></text><text x="502" y="428" dy="29" style="font-size:19.5px;opacity:.25"><tspan x="528">95</tspan> <tspan x="597">CH15797</tspan> <tspan x="823">Data</tspan> <tspan x="938">NoName</tspan></text><text x="502" y="464" dy="29" style="font-size:19.5px;fill:#fff"><tspan x="528">130</tspan> <tspan x="597">HotBird 4K1</tspan> <tspan x="823">TV</tspan> <tspan x="938">NoName</tspan></text><text x="502" y="500" dy="29" style="font-size:19.5px;opacity:.25"><tspan x="528">246</tspan> <tspan x="823">Data</tspan> <tspan x="938">NoName</tspan></text><text x="502" y="533" dy="29" style="font-size:19.5px;opacity:.25"><tspan x="528">247</tspan> <tspan x="823">Data</tspan> <tspan x="938">NoName</tspan></text><text x="502" y="565" dy="29" style="font-size:19.5px;opacity:.25"><tspan x="528">248</tspan> <tspan x="823">Data</tspan> <tspan x="938">NoName</tspan></text><rect width="12" height="51" x="1048" y="102" rx="7" style="fill:#000;fill-opacity:.46"/><rect width="257" height="12" x="503" y="568" rx="7" style="fill:#000;fill-opacity:.46"/><rect width="1061" height="82" x="1" y="568" rx="15" style="fill:#f3f4f4;clip-path:inset(15px 0 0)"/><g transform="matrix(.9 0 0 .9 15 604)"><rect width="24" height="24" x=".5" y="1" rx="8" style="fill:url(#bim);stroke:url(#bhm);stroke-opacity:.06;stroke-width:2px"/><use href="#cgk" style="fill:#fff;stroke:#fff;stroke-width:7.1px" transform="matrix(.22 0 0 .3 5.8 3.6)"/></g><text x="43" y="604" dy="19" style="font-size:20.5px">Filters for service type</text><text x="821" y="591" dx="28" dy="34" style="font-size:23.5px;fill:#000">Cancel</text><use href="#aad" style="fill:#505050" transform="matrix(.34 0 0 .34 955 605)"/><text x="955" y="591" dx="28" dy="34" style="font-size:23.5px;fill:#000">Add</text><path d="M1 582h1061v1.4H1z" style="fill:#e0e1e1"/><rect width="1061" height="650" x="1" y="1" rx="15" style="fill:none;stroke:#c1c1c1;stroke-width:1px"/><rect width="1057" height="646" x="3" y="3" rx="15" style="fill:none;stroke:#fff;stroke-opacity:.09;stroke-width:1px"/></g></svg>