<svg xmlns="http://www.w3.org/2000/svg" style="pointer-events:none;user-select:none" viewBox="0 0 1880 1300"><defs><symbol id="aad"><path d="M37.8 37.8h18V26.3h-18V8H26.3v18.2H8v11.5h18.2v18h11.5z"/></symbol><symbol id="fbt"><path d="M56.3 31H13.8A13 13 0 0 0 1 44v61.3c0 7 5.7 12.8 12.8 12.8h54.5c7 0 12.8-5.8 12.8-12.8v-51c-16.6 14-16.6 30.2-17 36.9a6.8 6.8 0 0 1-11.7 4.4C38 81 36.3 52.4 56.3 31.1m1 59.7c-14.6-14.7-13-46 15.2-64.3L62.2 14l42.8 1-7.3 41.4-11.8-14C57.8 59.3 57.8 82 57.3 90.6"/></symbol><symbol id="lcu"><path d="M56.3 57.4c0-2.4-2-4.3-4.4-4.3H12.1a4.3 4.3 0 0 0 0 8.6h39.8c2.4 0 4.4-1.9 4.4-4.3m0-12.5c0-2.4-2-4.3-4.4-4.3H12.1a4.3 4.3 0 0 0 0 8.6h39.8c2.4 0 4.4-2 4.4-4.3m0-12.5c0-2.4-2-4.3-4.4-4.3H12.1a4.3 4.3 0 0 0 0 8.6h39.8c2.4 0 4.4-2 4.4-4.3m-42.5-13V23h10.6v-5.8l2.3-1.4q3.4-2.8 3.4-6.4c0-3.6-1-4.7-3.2-6.5q-1.5-1-3-1.7l-1.4 1-.1 6q0 .6-.4.7-.6.4-1.5.4h-2.8q-.9 0-1.5-.4-.4-.3-.4-.7V1.9l-1.3-1q-1.6.7-3 1.7A8 8 0 0 0 8 9q0 3.6 3.2 6.5 1.2.9 2.5 1.4z"/></symbol><symbol id="sdh"><path d="M40 45.2a21 21 0 0 1-12.4 4.2A22.6 22.6 0 0 1 5.8 30.7 22.5 22.5 0 0 1 27.6 5.6c10 0 19.4 7.7 21.4 17.6A22 22 0 0 1 45 40l14 13.8-5.1 5.1zM27.4 14.6c-6.2.1-12 5.2-12.7 11.5-.6 5.4 2.7 11 7.8 13.2A13.3 13.3 0 0 0 39.8 31a13.2 13.2 0 0 0-12.4-16.3"/></symbol><symbol id="ses"><path d="M74 15.4a50 50 0 0 0-19.7 0q1.2 6 1.8 12.4Q49.6 29.3 44 33q-4-4.8-7.5-10.1a50 50 0 0 0-14 13.9q5.4 3.4 10.2 7.5a37 37 0 0 0-5 12.2q-6.3-.6-12.5-1.9a50 50 0 0 0 0 19.7q6.2-1.2 12.5-1.9 1.4 6.6 5 12.3-4.8 4-10.1 7.5A50 50 0 0 0 36.4 106q3.4-5.3 7.5-10.1 5.6 3.5 12.2 5-.6 6.3-1.8 12.5a50 50 0 0 0 19.6 0q-1.2-6.2-1.8-12.5 6.5-1.4 12.2-5 4 4.8 7.5 10.1a50 50 0 0 0 14-14q-5.4-3.3-10.2-7.4 3.6-5.7 5-12.3 6.3.6 12.5 2a50 50 0 0 0 0-19.8q-6.2 1.3-12.5 2-1.4-6.7-5-12.3 4.8-4 10.1-7.5a50 50 0 0 0-13.9-14q-3.4 5.4-7.5 10.2a37 37 0 0 0-12.2-5q.6-6.4 1.8-12.5M64 50.9a13.5 13.5 0 1 1 0 27 13.5 13.5 0 0 1 0-27"/></symbol><symbol id="afm"><path d="M32 13.2q-2.6 0-4.6 2L2.9 39.6a6.5 6.5 0 0 0 9.2 9.2L32 29l19.9 19.8a6.5 6.5 0 0 0 9.2-9.2L36.6 15.1q-2-1.8-4.6-1.9"/></symbol><symbol id="cgk"><path d="m5.6 32 18.9 18.9 33.9-34-3.8-3.8-30.1 30.2-15.1-15z"/></symbol><linearGradient id="bhm" x1="0" x2="0" y1="0" y2="1"><stop offset="0" style="stop-color:#fff;stop-opacity:.19"/><stop offset="1" style="stop-color:#000;stop-opacity:.34"/></linearGradient><linearGradient id="bim" x1="0" x2="0" y1="0" y2="1"><stop offset=".4" style="stop-color:#007df4"/><stop offset="1" style="stop-color:#0073e4"/></linearGradient><filter id="bjm" color-interpolation-filters="sRGB"><feDropShadow dx="0" dy="1.5" flood-opacity=".3" stdDeviation="1"/><feDropShadow dx="0" dy="0" flood-opacity=".3" stdDeviation="2.2"/></filter><filter id="mkm" color-interpolation-filters="sRGB"><feDropShadow dx="-2" dy="19" flood-opacity=".1" stdDeviation="8"/><feDropShadow dx="0" dy="10" flood-opacity=".3" stdDeviation="23"/></filter></defs><rect width="1880" height="1300" style="fill:#b4d0cd"/><rect width="1880" height="1330" style="fill:#000;fill-opacity:.7"/><g style="font-family:&quot;Helvetica Neue&quot;,sans-serif-light,Helvetica,sans-serif;opacity:.8" transform="translate(-656 -271)scale(1.41)"><rect width="1718" height="1140" x="81" y="81" rx="15" style="fill:#313333;stroke:#191919;stroke-width:1px"/><rect width="1716" height="100" x="82" y="192" style="fill:#313333"/><text x="409" y="192" dx="69" dy="59" style="font-size:26px;fill:#fff;fill-opacity:.89;text-shadow:0 .5px 1px #090909">Import</text><use href="#fbt" style="fill:#c7c8c8" transform="matrix(.38 0 0 .38 594 217)"/><text x="578" y="192" dx="69" dy="59" style="font-size:26px;fill:#fff;fill-opacity:.89;text-shadow:0 .5px 1px #090909">Export</text><rect width="1" height="61" x="761" y="212" style="fill:none;stroke:#fff;stroke-opacity:.3;stroke-dasharray:1px,3px"/><use href="#ses" style="fill:#c7c8c8" transform="matrix(.38 0 0 .38 779 217)"/><text x="763" y="192" dx="69" dy="59" style="font-size:26px;fill:#fff;fill-opacity:.89;text-shadow:0 .5px 1px #090909">Settings</text><rect width="125" height="32" x="1045" y="222" rx="8" style="fill:#fff;fill-opacity:.24;stroke:url(#bhm);stroke-width:.4px;filter:url(#bjm)"/><use href="#afm" style="fill:#fff" transform="matrix(.19 0 0 .19 1147.4 227.2)"/><use href="#afm" style="fill:#fff" transform="matrix(.19 0 0 -.19 1147.4 249.8)"/><text x="1045" y="223" dx="12" dy="22" style="font-size:20px;fill:#fff;fill-opacity:.92">Profile 1</text><text x="1193" y="192" dx="15" dy="59" style="font-size:26px;fill:#fff;fill-opacity:.89;text-shadow:0 .5px 1px #090909">Connect</text><text x="1329" y="192" dx="15" dy="59" style="font-size:26px;fill:#fff;fill-opacity:.89;text-shadow:0 .5px 1px #090909">Disconnect</text><rect width="1" height="61" x="1501" y="212" style="fill:none;stroke:#fff;stroke-opacity:.3;stroke-dasharray:1px,3px"/><text x="1513" y="192" dx="15" dy="59" style="font-size:26px;fill:#fff;fill-opacity:.89;text-shadow:0 .5px 1px #090909">Upload</text><text x="1633" y="192" dx="15" dy="59" style="font-size:26px;fill:#fff;fill-opacity:.89;text-shadow:0 .5px 1px #090909">Download</text><rect width="1720" height="100" x="80" y="192" style="fill:none;stroke:#324040;stroke-width:2.4px;clip-path:inset(0 2px)"/><rect width="1716" height="807" x="82" y="291" style="fill:#2f3131"/><text x="473" y="291" dx="10" dy="32" style="font-weight:700;font-size:20px;fill:#fff">Channels</text><use href="#lcu" style="fill:#c7c7c7" transform="matrix(.38 0 0 .38 1751 303)"/><rect width="1325" height="26" x="473" y="340" style="fill:#323232"/><text x="473" y="340" dy="18" style="font-size:17px;fill:#fff"><tspan x="479">Index</tspan> <tspan x="578">Name</tspan></text><rect width=".5" height="19" x="571" y="343" style="fill:none;stroke:#c7c7c7;stroke-width:1px"/><rect width="1325" height="659" x="473" y="366" style="fill:#171717"/><rect width="1325" height="49" x="473" y="707" style="fill:#303030"/><text x="473" y="366" dy="31" style="font-size:19px;fill:#fff"><tspan x="500">38</tspan> <tspan x="580">Giallo HD</tspan></text><text x="473" y="415" dy="31" style="font-size:19px;fill:#fff"><tspan x="500">39</tspan> <tspan x="580">TOPcrime HD</tspan></text><text x="473" y="464" dy="31" style="font-size:19px;fill:#fff"><tspan x="500">40</tspan> <tspan x="580">Boing HD</tspan></text><text x="473" y="512" dy="31" style="font-size:19px;fill:#fff"><tspan x="500">41</tspan> <tspan x="580">K2</tspan></text><text x="473" y="561" dy="31" style="font-size:19px;fill:#fff"><tspan x="500">42</tspan> <tspan x="580">Rai Gulp HD</tspan></text><text x="473" y="610" dy="31" style="font-size:19px;fill:#fff"><tspan x="500">43</tspan> <tspan x="580">Rai YoYo HD</tspan></text><text x="473" y="658" dy="31" style="font-size:19px;fill:#fff"><tspan x="500">44</tspan> <tspan x="580">Frisbee</tspan></text><text x="473" y="707" dy="31" style="font-size:19px;fill:#fff"><tspan x="500">45</tspan> <tspan x="580">NASA+</tspan></text><text x="473" y="756" dy="31" style="font-size:19px;fill:#fff"><tspan x="500">46</tspan> <tspan x="580">Cartoonito HD</tspan></text><text x="473" y="805" dy="31" style="font-size:19px;fill:#fff"><tspan x="500">47</tspan> <tspan x="580">Super!</tspan></text><text x="473" y="854" dy="31" style="font-size:19px;fill:#fff"><tspan x="500">48</tspan> <tspan x="580">Rai News 24 HD</tspan></text><text x="473" y="902" dy="31" style="font-size:19px;fill:#fff"><tspan x="500">49</tspan> <tspan x="580">Mediaset Italia2 HD</tspan></text><text x="473" y="951" dy="31" style="font-size:19px;fill:#fff"><tspan x="500">50</tspan> <tspan x="580">Sky TG24</tspan> <tspan x="990">90</tspan> <tspan x="1114">512</tspan> <tspan x="1235">H.264</tspan> <tspan x="1433">Persidera</tspan> <tspan x="1703">DVB-T</tspan></text><text x="473" y="997" dy="31" style="font-size:19px;fill:#fff"><tspan x="500">51</tspan> <tspan x="580">TGCOM24 HD</tspan> <tspan x="990">128</tspan> <tspan x="1114">1200</tspan> <tspan x="1235">HD</tspan> <tspan x="1433">Mediaset</tspan> <tspan x="1703">DVB-S2</tspan></text><rect width="1325" height="73" x="473" y="1026" style="fill:#202121"/><rect width="1329" height="73" x="471" y="1025" style="fill:none;stroke:#2d2e2e;stroke-width:2.4px;clip-path:inset(0 2px 2px)"/><use href="#aad" style="fill:#c7c7c7" transform="matrix(.26 0 0 .26 492 1052)"/><text x="487" y="1036" dx="28" dy="33" style="font-weight:700;font-size:21px;fill:#fff;fill-opacity:.89;text-shadow:0 .5px 1px #090909">Channel</text><use href="#aad" style="fill:#c7c7c7" transform="matrix(.26 0 0 .26 625 1052)"/><text x="621" y="1036" dx="28" dy="33" style="font-weight:700;font-size:21px;fill:#fff;fill-opacity:.89;text-shadow:0 .5px 1px #090909">Stream</text><use href="#aad" style="fill:#c7c7c7" transform="matrix(.26 0 0 .26 746 1052)"/><text x="742" y="1036" dx="28" dy="33" style="font-weight:700;font-size:21px;fill:#fff;fill-opacity:.89;text-shadow:0 .5px 1px #090909">Marker</text><g style="opacity:.24"><use href="#aad" style="fill:#c7c7c7" transform="matrix(.26 0 0 .26 867 1052)"/><text x="862" y="1036" dx="28" dy="33" style="font-weight:700;font-size:21px;fill:#fff;fill-opacity:.89;text-shadow:0 .5px 1px #090909">Service</text></g><rect width="135" height="32" x="993" y="1044" rx="8" style="fill:#fff;fill-opacity:.24;stroke:url(#bhm);stroke-width:.4px;filter:url(#bjm)"/><text x="993" y="1044.5" dx="22" dy="22" style="font-size:20px;fill:#fff;fill-opacity:.78">Reference</text><g style="opacity:.24"><rect width="147" height="32" x="1157" y="1044" rx="8" style="fill:#fff;fill-opacity:.24;stroke:url(#bhm);stroke-width:.4px;filter:url(#bjm)"/><text x="1157" y="1044.5" dx="25" dy="22" style="font-size:20px;fill:#fff;fill-opacity:.78">Drag&amp;Drop</text></g><rect width="128" height="32" x="1652" y="1044" rx="8" style="fill:#fff;fill-opacity:.24;stroke:url(#bhm);stroke-width:.4px;filter:url(#bjm)"/><use href="#sdh" style="fill:#c7c7c7" transform="matrix(.38 0 0 .38 1664 1047)"/><text x="1652" y="1044.5" dx="46" dy="22" style="font-size:20px;fill:#fff;fill-opacity:.78">Find<tspan style="font-size:15px">…</tspan></text><rect width="1720" height="807" x="80" y="291" style="fill:none;stroke:#404242;stroke-width:2.4px;clip-path:inset(0 2px)"/><rect width="1718" height="1140" x="81" y="81" style="fill:#000;opacity:.1"/></g><g style="font-family:&quot;Helvetica Neue&quot;,sans-serif-light,Helvetica,sans-serif" transform="translate(321 189)scale(1.41)"><rect width="1061" height="650" x="1" y="1" rx="15" style="fill:#313333;stroke:#191919;stroke-width:1.088px;filter:url(#mkm)"/><rect width="1059" height="57" x="2" y="2" rx="15" style="fill:#404242;stroke:#787979;stroke-width:1px;clip-path:inset(0 0 15px)"/><rect width="1061" height=".5" x="1" y="44" style="fill:none;stroke:#000;stroke-opacity:.89;stroke-width:.5px"/><text x="2" y="2" dx="529" dy="28" style="font-family:&quot;Helvetica Neue&quot;,Helvetica,sans-serif;font-weight:700;font-size:20px;fill:#bcbebe" text-anchor="middle">Add Channel</text><ellipse cx="21" cy="23" rx="8.8" style="fill:#ff5f5a;stroke:none;stroke-opacity:.1"/><ellipse cx="52" cy="23" rx="8.8" style="fill:#636766;stroke:none;stroke-opacity:.1"/><ellipse cx="83" cy="23" rx="8.8" style="fill:#28c840;stroke:none;stroke-opacity:.1"/><use href="#afm" style="fill:#dfe0e0" transform="matrix(-.26 0 0 .26 971 53)"/><text x="976" y="51" dy="15" style="font-weight:700;font-size:16.5px;fill:#dfe0e0">collapse</text><rect width="227" height="507" x="1" y="75" style="fill:#2d2e2e"/><text x="1" y="76" dx="22" dy="38" style="font-size:22.5px;fill:#fff">Services</text><text x="1" y="136" dx="22" dy="38" style="font-size:22.5px;fill:#fff">Bouquets</text><text x="1" y="197" dx="22" dy="38" style="font-size:22.5px;fill:#fff">Positions</text><rect width="227" height="60" x="1" y="257" style="fill:#444545"/><text x="1" y="257" dx="22" dy="38" style="font-size:22.5px;fill:#fff">Providers</text><text x="1" y="318" dx="22" dy="38" style="font-size:22.5px;fill:#fff">Resolution</text><text x="1" y="379" dx="22" dy="38" style="font-size:22.5px;fill:#fff">Encryption</text><text x="1" y="438" dx="22" dy="38" style="font-size:22.5px;fill:#fff">A-Z</text><rect width="263" height="507" x="228" y="75" style="fill:#171717"/><rect width="263" height="34" x="228" y="248" style="fill:#303030"/><text x="255" y="75" dy="29" style="font-size:19.5px;fill:#fff">M7 Group</text><text x="255" y="108" dy="29" style="font-size:19.5px;fill:#fff">MB Satellite</text><text x="255" y="141" dy="29" style="font-size:19.5px;fill:#fff">MTHREE SATCOM</text><text x="255" y="173" dy="29" style="font-size:19.5px;fill:#fff">Mediaset</text><text x="255" y="206" dy="29" style="font-size:19.5px;fill:#fff">NOVA</text><text x="255" y="243" dy="29" style="font-size:19.5px;fill:#fff">NoName</text><text x="255" y="281" dy="29" style="font-size:19.5px;fill:#fff">PEOPLETV-RETE7</text><text x="255" y="315" dy="29" style="font-size:19.5px;fill:#fff">Persidera</text><text x="255" y="348" dy="29" style="font-size:19.5px;fill:#fff">RAI</text><text x="255" y="381" dy="29" style="font-size:19.5px;fill:#fff">Radio RTR</text><text x="255" y="414" dy="29" style="font-size:19.5px;fill:#fff">Radio Television Suisse</text><text x="255" y="447" dy="29" style="font-size:19.5px;fill:#fff">Radio ZET Gold</text><text x="255" y="481" dy="29" style="font-size:19.5px;fill:#fff">Radiotelevisione svizzera</text><text x="255" y="513" dy="29" style="font-size:19.5px;fill:#fff">Rai</text><text x="255" y="544" dy="29" style="font-size:19.5px;fill:#fff">SCP2100</text><rect width="12" height="94" x="477" y="299" rx="7" style="fill:#fff;fill-opacity:.46"/><ellipse cx="496.3" cy="329.4" rx="4" style="fill:#444646"/><rect width="559" height="26" x="502" y="75" style="fill:#323232"/><text x="502" y="75" dy="18" style="font-size:17px;fill:#fff"><tspan x="508">Index</tspan> <tspan x="606">Name</tspan> <tspan x="832">Type</tspan> <tspan x="948">Provider</tspan></text><rect width=".5" height="19" x="599" y="78" style="fill:none;stroke:#c7c7c7;stroke-width:1px"/><rect width=".5" height="19" x="825" y="78" style="fill:none;stroke:#c7c7c7;stroke-width:1px"/><rect width=".5" height="19" x="941" y="78" style="fill:none;stroke:#c7c7c7;stroke-width:1px"/><rect width="559" height="481" x="502" y="101" style="fill:#171717"/><rect width="559" height="34" x="502" y="469" style="fill:#023acd"/><text x="502" y="95" dy="29" style="font-size:19.5px;fill:#fff;opacity:.25"><tspan x="528">27</tspan> <tspan x="607">CH4441</tspan> <tspan x="834">Data</tspan> <tspan x="949">NoName</tspan></text><text x="502" y="128" dy="29" style="font-size:19.5px;fill:#fff;opacity:.25"><tspan x="528">28</tspan> <tspan x="607">CH4442</tspan> <tspan x="834">Data</tspan> <tspan x="949">NoName</tspan></text><text x="502" y="161" dy="29" style="font-size:19.5px;fill:#fff;opacity:.25"><tspan x="528">29</tspan> <tspan x="607">CH4443</tspan> <tspan x="834">Data</tspan> <tspan x="949">NoName</tspan></text><text x="502" y="194" dy="29" style="font-size:19.5px;fill:#fff;opacity:.25"><tspan x="528">30</tspan> <tspan x="607">CH4445</tspan> <tspan x="834">Data</tspan> <tspan x="949">NoName</tspan></text><text x="502" y="227" dy="29" style="font-size:19.5px;fill:#fff;opacity:.25"><tspan x="528">31</tspan> <tspan x="607">CH4447</tspan> <tspan x="834">Data</tspan> <tspan x="949">NoName</tspan></text><text x="502" y="260" dy="29" style="font-size:19.5px;fill:#fff;opacity:.25"><tspan x="528">32</tspan> <tspan x="607">CH4448</tspan> <tspan x="834">Data</tspan> <tspan x="949">NoName</tspan></text><text x="502" y="293" dy="29" style="font-size:19.5px;fill:#fff;opacity:.25"><tspan x="528">39</tspan> <tspan x="607">CH4491</tspan> <tspan x="834">Data</tspan> <tspan x="949">NoName</tspan></text><text x="502" y="327" dy="29" style="font-size:19.5px;fill:#fff"><tspan x="528">41</tspan> <tspan x="607">Museum 4K</tspan> <tspan x="834">TV</tspan> <tspan x="949">NoName</tspan></text><text x="502" y="361" dy="29" style="font-size:19.5px;fill:#fff"><tspan x="528">42</tspan> <tspan x="607">MyZen 4K</tspan> <tspan x="834">TV</tspan> <tspan x="949">NoName</tspan></text><text x="502" y="394" dy="29" style="font-size:19.5px;fill:#fff"><tspan x="528">44</tspan> <tspan x="607">GEB TV</tspan> <tspan x="834">TV</tspan> <tspan x="949">NoName</tspan></text><text x="502" y="427" dy="29" style="font-size:19.5px;fill:#fff"><tspan x="528">69</tspan> <tspan x="607">Fokus TV HD</tspan> <tspan x="834">TV</tspan> <tspan x="949">NoName</tspan></text><text x="502" y="464" dy="29" style="font-size:19.5px;fill:#fff"><tspan x="528">130</tspan> <tspan x="607">HotBird 4K1</tspan> <tspan x="834">TV</tspan> <tspan x="949">NoName</tspan></text><text x="502" y="501" dy="29" style="font-size:19.5px;fill:#fff;opacity:.25"><tspan x="528">134</tspan> <tspan x="607">CH15790</tspan> <tspan x="834">Radio</tspan> <tspan x="949">NoName</tspan></text><text x="502" y="533" dy="29" style="font-size:19.5px;fill:#fff;opacity:.25"><tspan x="528">135</tspan> <tspan x="607">CH15797</tspan> <tspan x="834">Data</tspan> <tspan x="949">NoName</tspan></text><text x="502" y="565" dy="29" style="font-size:19.5px;fill:#fff"><tspan x="528">209</tspan> <tspan x="607">Polsat Film 2 HD</tspan> <tspan x="834">TV</tspan> <tspan x="949">NoName</tspan></text><rect width="12" height="51" x="1046" y="103" rx="7" style="fill:#fff;fill-opacity:.46"/><rect width="257" height="12" x="503" y="568" rx="7" style="fill:#fff;fill-opacity:.46"/><rect width="1061" height="82" x="1" y="568" rx="15" style="fill:#2f3131;clip-path:inset(15px 0 0)"/><g transform="matrix(.9 0 0 .9 15 604)"><rect width="24" height="24" x=".5" y="1" rx="8" style="fill:url(#bim);stroke:url(#bhm);stroke-opacity:.06;stroke-width:2px"/><use href="#cgk" style="fill:#fff;stroke:#fff;stroke-width:7.1px" transform="matrix(.22 0 0 .3 5.8 3.6)"/></g><text x="43" y="604" dy="19" style="font-size:20.5px;fill:#fff">Filters for service type</text><text x="821" y="591" dx="28" dy="34" style="font-size:23.5px;fill:#fff;fill-opacity:.89;text-shadow:0 .5px 1px #090909">Cancel</text><use href="#aad" style="fill:#c7c7c7" transform="matrix(.34 0 0 .34 955 605)"/><text x="955" y="591" dx="28" dy="34" style="font-size:23.5px;fill:#fff;fill-opacity:.89;text-shadow:0 .5px 1px #090909">Add</text><rect width="1061" height="1.4" x="1" y="582" style="fill:#3f4040"/><rect width="1061" height="650" x="1" y="1" rx="15" style="fill:none;stroke:#020202;stroke-width:1px"/><rect width="1057" height="646" x="3" y="3" rx="15" style="fill:none;stroke:#fff;stroke-opacity:.09;stroke-width:1px"/></g></svg>