<svg xmlns="http://www.w3.org/2000/svg" style="pointer-events:none;user-select:none;text-rendering:geometricprecision" viewBox="0 0 3318 1300"><defs><symbol id="aad"><path d="M37.8 37.8h18V26.3h-18V8H26.3v18.1H8v11.6h18.1v18h11.6v-18z"/></symbol><symbol id="cbw"><path d="m60 15-3-.5v35.7a150.1 150.1 0 0 0-14.3-.6l-3 .2-6.7.6v-36S39.6 13 43 13c4 0 14 1.5 14 1.5l3 .5a5 5 0 0 1 3 4.7v32.6c0 2.9-2.3 5.2-5.2 5.2H6.2A5.2 5.2 0 0 1 1 52.3V19.7A5 5 0 0 1 4 15l3-.5S17 13 21 13c3.4 0 10 1.5 10 1.5v35.9a286 286 0 0 0-13-.9c-3 0-7.9.4-11 .7V14.5L4 15v38.7h56V15zM28.5 42.5a2 2 0 0 0-2-2h-14a2 2 0 0 0 0 4h14a2 2 0 0 0 2-2zm25 0a2 2 0 0 0-2-2h-14a2 2 0 0 0 0 4h14a2 2 0 0 0 2-2zm-25-7a2 2 0 0 0-2-2h-14a2 2 0 0 0 0 4h14a2 2 0 0 0 2-2zm25 0a2 2 0 0 0-2-2h-14a2 2 0 0 0 0 4h14a2 2 0 0 0 2-2zm-25-7a2 2 0 0 0-2-2h-14a2 2 0 0 0 0 4h14a2 2 0 0 0 2-2zm25 0a2 2 0 0 0-2-2h-14a2 2 0 0 0 0 4h14a2 2 0 0 0 2-2zm-25-7a2 2 0 0 0-2-2h-14a2 2 0 0 0 0 4h14a2 2 0 0 0 2-2zm25 0a2 2 0 0 0-2-2h-14a2 2 0 0 0 0 4h14a2 2 0 0 0 2-2z"/></symbol><symbol id="cce"><path d="m62.3 7.3-5.6-5.6L32 26.4 7.3 1.7 1.7 7.3 26.4 32 1.7 56.7l5.6 5.6L32 37.6l24.7 24.7 5.6-5.6L37.6 32 62.3 7.3z"/></symbol><symbol id="edt"><path d="M13.6 42.3 46.8 9c2-2 5.5-1.7 7.8.7 2.4 2.3 2.7 5.8.7 7.8L22.1 50.7 9.4 55l4.2-12.7z"/></symbol><symbol id="ees"><path d="M32 50.5a17 17 0 0 1-8-14.7c0-9.3 7-16.9 15.6-16.9 8.7 0 15.7 7.6 15.7 16.9s-7 16.9-15.7 16.9l-2.7-.3-.2 10.5-4.9-.1.2-12.3zM6 26.8v15c-.8.4-1.6.9-2.3 1.5a9 9 0 0 0 0 14c1 .8 2.1 1.5 3.3 2l1.4-1v-7.2c0-1 .8-1.6 1.8-1.6H13c.5 0 1 .2 1.4.5.3.3.5.7.5 1v7.1l1.4 1c1-.5 2-1 2.8-1.8a9 9 0 0 0 0-14c-.7-.6-1.6-1.1-2.5-1.5v-15c.9-.4 1.7-1 2.5-1.6a9 9 0 0 0 0-14c-1-.7-2-1.3-3.1-1.8l-1.4 1V17c0 .9-.8 1.5-1.8 1.5h-3c-1 0-1.8-.6-1.8-1.5v-6.8l-1.4-.9c-1 .5-2.1 1-3 1.8a9 9 0 0 0 0 14c.7.7 1.6 1.2 2.5 1.6zm44.3 25-.6-.4-5.4 3.4.7 2 6-1.2c1.2 1.2 2.8 1.5 3.8.8l7.4-4.6c.8-.5 1.3-1.5 1.4-2.7 0-.8-.2-1.3-.5-1.5-.2-.2-.5-.4-1-.4a5 5 0 0 0-1.2.4l-.8.2h-.4c-1-.6-2-.6-2.8 0l-6.6 4z"/></symbol><symbol id="fft"><path d="M56.3 31H13.8A13 13 0 0 0 1 44v61.3c0 7 5.7 12.8 12.8 12.8h54.5c7 0 12.8-5.8 12.8-12.8v-51c-16.6 14-16.6 30.2-17 36.9a6.8 6.8 0 0 1-11.7 4.4C38 81 36.3 52.4 56.3 31.1zm1 59.7c-14.6-14.7-13-46 15.2-64.3L62.2 14l42.8 1-7.3 41.4-11.8-14C57.8 59.3 57.8 82 57.3 90.6z"/></symbol><symbol id="fgt"><path d="M87.8 55.7h8.5c5.9 0 10.7 4.8 10.7 10.6v45c0 6-4.8 10.7-10.7 10.7H11.7C5.8 122 1 117.2 1 111.4v-45c0-6 4.8-10.7 10.7-10.7h19.8L54 77.5a10 10 0 0 0 6.3 2.1c2 0 4.8-.8 6.2-2.2l21.3-21.7zM94 6.4C76 3.3 44.4 18.9 49 45.9H33.6l27.2 26.4 25.8-26.4H72.1C67.3 21.7 88 10.8 94 6.4z"/></symbol><symbol id="fho"><path d="M32 62.5a30.5 30.5 0 0 1 0-61v9.6l-1-.1a5.4 5.4 0 1 0 1 10.7v5.1l-7.4.2 2.8 1.2V51l-2.8 2H32v9.5zm0-51.4V1.5a30.5 30.5 0 0 1 0 61V53h9.5l-5.8-2V26.6l-3.7.1v-5A5.4 5.4 0 0 0 32 11z"/></symbol><symbol id="fin"><path d="M21 43h89c2.9 0 4.7 2.2 4.2 5l-9.3 53c-.5 2.7-3.2 5-6 5H8a3.8 3.8 0 0 1-3.9-3.8V22h67.2L88 36H16v32h5V43z"/></symbol><symbol id="fje"><path d="M114 22v86.2c0 2-1.7 3.8-3.8 3.8H17.8a3.8 3.8 0 0 1-3.8-3.8V19.8c0-2 1.7-3.8 3.8-3.8H109l5 6zM94 59V19H38v40h56zm-9.5-33v30h-15V26h15z"/></symbol><symbol id="pkw"><path d="M14.8 29.2h34.5s13.9 14.5 11.4 15.6c-1 .5-6.1-1-11.5-3V62H14.8V41.7c-5.4 2-10.4 3.6-11.5 3.1-2.5-1 11.5-15.6 11.5-15.6zm22-17.8H16.3v13.1h6.4V14h14v-2.6zm1.7 5.2h-14v8h14v-8zm6.8-6.2v14.1H41v-9.2h-2.5v-4.9h6.8zm-8.7-7H18.5v5.4h18.1V3.5z"/></symbol><symbol id="slh"><path d="M40 45.2a20.9 20.9 0 0 1-12.4 4.2A22.6 22.6 0 0 1 5.8 30.7 22.5 22.5 0 0 1 27.6 5.6c10 0 19.4 7.7 21.4 17.6A22 22 0 0 1 45 40l14 13.8-5.1 5.1L40 45.2zM27.4 14.6c-6.2.1-12 5.2-12.7 11.5-.6 5.4 2.7 11 7.8 13.2A13.3 13.3 0 0 0 39.8 31a13.2 13.2 0 0 0-12.4-16.3z"/></symbol><symbol id="sms"><path d="M74 15.4a50 50 0 0 0-19.7 0c.8 4 1.4 8.2 1.8 12.4-4.3 1-8.5 2.7-12.2 5.1-2.7-3.2-5.2-6.6-7.5-10.1a50 50 0 0 0-14 13.9c3.6 2.3 7 4.8 10.2 7.5a37.4 37.4 0 0 0-5 12.2c-4.2-.4-8.4-1-12.5-1.9a50 50 0 0 0 0 19.7 171 171 0 0 1 12.5-1.9c.9 4.4 2.6 8.5 5 12.3-3.2 2.7-6.6 5.2-10.1 7.5A50 50 0 0 0 36.4 106c2.3-3.5 4.8-6.9 7.5-10.1 3.7 2.4 7.9 4 12.2 5-.4 4.2-1 8.4-1.8 12.5a50 50 0 0 0 19.6 0c-.8-4.1-1.4-8.3-1.8-12.5 4.3-1 8.5-2.6 12.2-5 2.7 3.2 5.2 6.6 7.5 10.1a50 50 0 0 0 14-14c-3.6-2.2-7-4.7-10.2-7.4 2.4-3.8 4.1-7.9 5-12.3 4.2.5 8.4 1 12.5 2a50 50 0 0 0 0-19.8c-4.1.9-8.3 1.5-12.5 2-.9-4.4-2.6-8.6-5-12.3 3.2-2.7 6.6-5.2 10.1-7.5a50 50 0 0 0-13.9-14c-2.3 3.6-4.8 7-7.5 10.2a37.4 37.4 0 0 0-12.2-5c.4-4.3 1-8.4 1.8-12.5zM64 50.9a13.5 13.5 0 1 1 0 27 13.5 13.5 0 0 1 0-27z"/></symbol><symbol id="tnw"><path d="M64 64V45H0v19h64zm-25-5.7V60a2 2 0 1 1-4 0v-6.4l-1.9 1.8c-.4.3-1 .5-1.5.5s-1-.2-1.5-.5l-2-1.8V60a2 2 0 0 1-3.8 0v-5.3h-6.7l4.1 4c.8.7.8 1.8 0 2.5a2 2 0 0 1-2.7 0l-4.1-3.9-4.1 4a2 2 0 0 1-2.7 0c-.8-.8-.8-2 0-2.7l4-3.9-4-3.9c-.8-.7-.8-1.8 0-2.5s2-.7 2.7 0l4 3.9 4.2-4a2 2 0 0 1 2.7 0c.8.8.8 2 0 2.6l-4 4h6.6v-5.3c0-.6.1-1 .6-1.4a2 2 0 0 1 1.3-.6h.2c.5 0 .9.3 1.3.6l4 3.6 3.9-3.6a2 2 0 0 1 1.8-.5c.4 0 .7.2 1 .5.4.3.6.8.6 1.3v8.7h2.9v-8.8a2 2 0 0 1 3.9 0v8.9h6.4a1.8 1.8 0 0 1 0 3.6h-8.5c-1 0-1.8-.9-1.8-1.9v-1.7h-3zM25.3 39.5H25c-10 0-18.3-8.4-18.3-18.8S15 2 25 2s18.3 8.4 18.3 18.8a19 19 0 0 1-2.4 9l11.1-4v-3c0-.9.7-1.5 1.5-1.5h3c.8 0 1.5.6 1.5 1.5v11c0 .8-.7 1.5-1.5 1.5h-3c-.8 0-1.5-.7-1.5-1.5v-1.6l-26 9.5-.7-2.2z"/></symbol><symbol id="aol"><path d="m32 45.4 26.7-26.8H5.3L32 45.4z"/></symbol><linearGradient id="bpf" x1="0" x2="0" y1="0" y2="1"><stop offset="0" style="stop-color:#fdfdfd"/><stop offset="1" style="stop-color:#eee"/></linearGradient><linearGradient id="bqf" x1="0" x2="1" y1="0" y2="0"><stop offset="0" style="stop-color:#fdfdfd"/><stop offset="1" style="stop-color:#eee"/></linearGradient><filter id="mrf" color-interpolation-filters="sRGB"><feDropShadow dx="-3" dy="12" flood-opacity=".2" stdDeviation="20"/><feDropShadow dx="3" dy="12" flood-opacity=".2" stdDeviation="10"/></filter></defs><rect width="3318" height="1300" style="fill:#b4d0cd"/><g style="font-family:&quot;Sans-Serif&quot;,system-ui,sans-serif" transform="matrix(1.19 0 0 1.19 102 161)"><rect width="960" height="820" x="1" y="1" rx="0" style="fill:#efefef;stroke:#acc6c3;stroke-width:1px;filter:url(#mrf)"/><rect width="960" height="48" x="1" y="1" rx="0" style="fill:#fafafa;stroke:#e8e8e8;stroke-width:2px;clip-path:inset(1px 1.5px 0)"/><rect width="962" height="1" x="1" y="47" style="fill:none;stroke:#cbcdcc;stroke-width:2px;clip-path:inset(0 1px 1.1px)"/><text x="-1" y="3.5" dx="478" dy="28" style="font-family:&quot;Sans-Serif&quot;,system-ui,sans-serif;font-weight:700;font-size:19px;fill:#5a5a5a" text-anchor="middle">Edit Service</text><g transform="rotate(45 451.1 1139.8)"><rect width="15" height="1" y="7" style="fill:none;stroke:#333;stroke-width:1px"/><rect width="1" height="15" x="7" style="fill:none;stroke:#333;stroke-width:1px"/></g><rect width="894" height="601" x="33" y="124" rx="0" style="fill:#f9f9f9;fill-opacity:1;stroke:#ccc;stroke-opacity:1;stroke-width:1.8px"/><g style="clip-path:none"><rect width="106" height="48" x="32" y="79.5" rx="3" style="fill:#f9f9f9;stroke:#ccc;stroke-width:3.8px;clip-path:inset(1.5px 1.5px 4.2px)"/><text x="38.5" y="87.5" dx="46" dy="22" style="font-size:19.5px;letter-spacing:normal;fill:#000" text-anchor="middle">Service</text></g><g style="clip-path:none"><rect width="151" height="42" x="136" y="83.5" rx="3" style="fill:#efefef;stroke:#ccc;stroke-width:3.8px;clip-path:inset(1.5px 1.5px 4.2px 4.2px)"/><text x="131.5" y="89.5" dx="80" dy="22" style="font-size:19.5px;letter-spacing:normal;fill:#000;fill-opacity:.9" text-anchor="middle">Transponder</text></g><g style="clip-path:none"><rect width="121" height="42" x="285" y="83.5" rx="3" style="fill:#efefef;stroke:#ccc;stroke-width:3.8px;clip-path:inset(1.5px 1.5px 4.2px 4.2px)"/><text x="278.5" y="89.5" dx="67" dy="22" style="font-size:19.5px;letter-spacing:normal;fill:#000;fill-opacity:.9" text-anchor="middle">Favourite</text></g><rect width="442" height="304" x="52" y="174" rx="2.5" style="fill:#000;fill-opacity:.015;stroke:#000;stroke-opacity:.15;stroke-width:1.2px"/><text x="43" y="145" dx="10" dy="17" style="font-size:20px;letter-spacing:normal;fill:#000">Service</text><text x="70" y="190" dy="22" style="font-size:20px;fill:#000">Service name</text><rect width="406" height="40" x="70" y="228" rx="3" style="fill:#fff;stroke:#ababab;stroke-opacity:1;stroke-width:1.1px;clip-path:none"/><text x="70.5" y="232.5" dx="4" dy="23" style="font-size:20px;fill:#000">HotBird 4K1</text><text x="70" y="286" dy="22" style="font-size:20px;fill:#000">Service type</text><rect width="151" height="38" x="70" y="325" rx="3" style="fill:url(#bpf);stroke:#ababab;stroke-width:1.1px;filter:none"/><text x="65" y="329" dx="12" dy="22" style="font-size:20px;word-spacing:8px;fill:#000">1 TV</text><rect width="24" height="24" x="198.5" y="334" rx="8" style="fill:none;stroke:none;stroke-opacity:.06;stroke-width:2px"/><use href="#aol" style="fill:#676767" transform="matrix(.23 0 0 .23 198 338)"/><rect width="241" height="38" x="232.5" y="325.5" rx="3" style="fill:url(#bpf);stroke:#8bb9d1;stroke-width:2.2px;filter:none"/><rect width="249" height="46" x="228.5" y="321.5" rx="8" style="fill:#308cc6;fill-opacity:.07"/><text x="299" y="331" dx="20" dy="20" style="font-size:19.5px;word-spacing:8px;fill:#000">custom</text><text x="70" y="382" dy="22" style="font-size:20px;fill:#000">Service ID</text><rect width="90" height="40" x="70" y="420" rx="3" style="fill:#fff;stroke:#ababab;stroke-opacity:1;stroke-width:1.1px;clip-path:none"/><text x="70" y="424.5" dx="4" dy="23" style="font-size:19.5px;fill:#000">1209</text><text x="170" y="423" dy="23" style="font-size:20px;fill:#000">[SID]</text><rect width="442" height="186" x="52" y="523" rx="2.5" style="fill:#000;fill-opacity:.015;stroke:#000;stroke-opacity:.15;stroke-width:1.2px"/><text x="43" y="494" dx="10" dy="17" style="font-size:20px;letter-spacing:normal;fill:#000">Tuner</text><text x="70" y="544" dy="22" style="font-size:20px;fill:#000">Satellite</text><rect width="274" height="38" x="202" y="540" rx="3" style="fill:#fff;stroke:#ababab;stroke-width:1.1px;filter:none"/><text x="195" y="544" dx="12" dy="22" style="font-size:20px;fill:#000">Hot Bird</text><rect width="31" height="39" x="445" y="539.5" rx="2.2" style="fill:url(#bpf);stroke:#ababab;stroke-width:2.2px;clip-path:inset(1.3px 1.1px 1.3px 0)"/><rect width="24" height="24" x="454.2" y="548" rx="8" style="fill:none;stroke:none;stroke-opacity:.06;stroke-width:2px"/><use href="#aol" style="fill:#676767" transform="matrix(.23 0 0 .23 453.7 552)"/><text x="70" y="602" dy="22" style="font-size:20px;fill:#000">Transponder</text><rect width="274" height="38" x="202" y="597" rx="3" style="fill:#fff;stroke:#ababab;stroke-width:1.1px;filter:none"/><text x="195" y="601" dx="12" dy="22" style="font-size:20px;fill:#000">12558/V/27500</text><rect width="31" height="39" x="445" y="596.5" rx="2.2" style="fill:url(#bpf);stroke:#ababab;stroke-width:2.2px;clip-path:inset(1.3px 1.1px 1.3px 0)"/><rect width="24" height="24" x="454.2" y="605" rx="8" style="fill:none;stroke:none;stroke-opacity:.06;stroke-width:2px"/><use href="#aol" style="fill:#676767" transform="matrix(.23 0 0 .23 453.7 609)"/><rect width="274" height="38" x="202" y="654" rx="3" style="fill:url(#bpf);stroke:#ababab;stroke-width:1.1px;filter:none"/><text x="244" y="659" dx="20" dy="21" style="font-size:19.5px;fill:#000">New Transponder</text><rect width="403" height="535" x="507" y="174" rx="2.5" style="fill:#000;fill-opacity:.015;stroke:#000;stroke-opacity:.15;stroke-width:1.2px"/><text x="497" y="145" dx="10" dy="17" style="font-size:20px;letter-spacing:normal;fill:#000">Parameters</text><rect width="314" height="5" x="522" y="195" style="fill:#bdbdbd;stroke:#fff;stroke-width:3px;clip-path:inset(3px 3px 1px)"/><rect width="32" height="5" x="861" y="225" style="fill:#bdbdbd;stroke:#fff;stroke-width:3px;clip-path:inset(3px 3px 1px 2px)"/><rect width="46" height="5" x="222" y="-222" style="fill:#bdbdbd;stroke:#fff;stroke-width:3px;clip-path:inset(3px 3px 1px)" transform="rotate(45 25.2 726.5)"/><text x="522" y="196" dx="8" dy="26" style="font-size:19.5px;fill:#000">Package</text><rect width="314" height="5" x="522" y="237" style="fill:#bdbdbd;stroke:#fff;stroke-width:3px;clip-path:inset(3px 3px 1px)"/><rect width="32" height="5" x="861" y="267" style="fill:#bdbdbd;stroke:#fff;stroke-width:3px;clip-path:inset(3px 3px 1px 2px)"/><rect width="46" height="5" x="222" y="-222" style="fill:#bdbdbd;stroke:#fff;stroke-width:3px;clip-path:inset(3px 3px 1px)" transform="rotate(45 -25.4 747.5)"/><text x="522" y="238" dx="8" dy="26" style="font-size:19.5px;fill:#000">PIDs</text><g style="clip-path:inset(0 0 22px)"><rect width="367" height="237" x="524" y="281" style="fill:#efefef;fill-opacity:1"/><text x="537" y="303" dy="22" style="font-size:19.5px;fill:#000">video</text><rect width="73" height="40" x="671" y="297" rx="3" style="fill:#fff;stroke:#ababab;stroke-opacity:1;stroke-width:1.1px;clip-path:none"/><text x="671.5" y="301.5" dx="4" dy="23" style="font-size:19px;fill:#000">2091</text><text x="754" y="301" dy="23" style="font-size:19px;fill:#000">[VPID]</text><text x="537" y="354" dy="22" style="font-size:19.5px;fill:#000">mpeg-audio</text><rect width="73" height="40" x="671" y="348" rx="3" style="fill:#fff;stroke:#ababab;stroke-opacity:1;stroke-width:1.1px;clip-path:none"/><text x="671.5" y="352.5" dx="4" dy="23" style="font-size:19px;fill:#000">8191</text><text x="754" y="352" dy="23" style="font-size:19px;fill:#000">[APID]</text><text x="537" y="404" dy="22" style="font-size:19.5px;fill:#000">tp</text><rect width="73" height="40" x="671" y="398" rx="3" style="fill:#fff;stroke:#ababab;stroke-opacity:1;stroke-width:1.1px;clip-path:none"/><text x="754" y="402" dy="23" style="font-size:19px;fill:#000">[TXTPID]</text><text x="537" y="454" dy="22" style="font-size:19.5px;fill:#000">pcr</text><rect width="73" height="40" x="671" y="448" rx="3" style="fill:#fff;stroke:#ababab;stroke-opacity:1;stroke-width:1.1px;clip-path:none"/><text x="671.5" y="452.5" dx="4" dy="23" style="font-size:19px;fill:#000">2091</text><text x="754" y="452" dy="23" style="font-size:19px;fill:#000">[PCRPID]</text><text x="537" y="505" dy="22" style="font-size:19.5px;fill:#000">ac3</text><rect width="73" height="40" x="671" y="499" rx="3" style="fill:#fff;stroke:#ababab;stroke-opacity:1;stroke-width:1.1px;clip-path:none"/><text x="754" y="503" dy="23" style="font-size:19px;fill:#000">[AC3PID]</text></g><g style="clip-path:inset(1px 1px 1px 0)"><rect width="23" height="236" x="868.5" y="282" style="fill:#e6e6e6;stroke:#bcbcbc;stroke-width:2px"/><rect width="22" height="22" x="869" y="280.5" rx="0" style="fill:url(#bqf);stroke:#ababab;stroke-width:1.2px"/><use href="#aol" style="fill:#5c5c5c" transform="matrix(.22 0 0 -.22 872.8 299)"/><rect width="22" height="22" x="869" y="496" rx="0" style="fill:url(#bqf);stroke:#ababab;stroke-width:1.2px"/><use href="#aol" style="fill:#5c5c5c" transform="matrix(.22 0 0 .22 872.8 500.5)"/><rect width="22" height="58" x="869" y="302.5" rx="0" style="fill:url(#bqf);fill-opacity:1;stroke:#ababab;stroke-opacity:.6;stroke-width:1.2px"/></g><rect width="314" height="5" x="522" y="527" style="fill:#bdbdbd;stroke:#fff;stroke-width:3px;clip-path:inset(3px 3px 1px)"/><rect width="32" height="5" x="861" y="557" style="fill:#bdbdbd;stroke:#fff;stroke-width:3px;clip-path:inset(3px 3px 1px 2px)"/><rect width="46" height="5" x="222" y="-222" style="fill:#bdbdbd;stroke:#fff;stroke-width:3px;clip-path:inset(3px 3px 1px)" transform="rotate(45 -375.5 892.5)"/><text x="522" y="528" dx="8" dy="26" style="font-size:19.5px;fill:#000">CAIDs</text><rect width="314" height="5" x="522" y="569" style="fill:#bdbdbd;stroke:#fff;stroke-width:3px;clip-path:inset(3px 3px 1px)"/><rect width="32" height="5" x="861" y="599" style="fill:#bdbdbd;stroke:#fff;stroke-width:3px;clip-path:inset(3px 3px 1px 2px)"/><rect width="46" height="5" x="222" y="-222" style="fill:#bdbdbd;stroke:#fff;stroke-width:3px;clip-path:inset(3px 3px 1px)" transform="rotate(45 -426.2 913.5)"/><text x="522" y="570" dx="8" dy="26" style="font-size:19.5px;fill:#000">Flags</text><rect width="314" height="5" x="522" y="611" style="fill:#bdbdbd;stroke:#fff;stroke-width:3px;clip-path:inset(3px 3px 1px)"/><rect width="32" height="5" x="861" y="641" style="fill:#bdbdbd;stroke:#fff;stroke-width:3px;clip-path:inset(3px 3px 1px 2px)"/><rect width="46" height="5" x="222" y="-222" style="fill:#bdbdbd;stroke:#fff;stroke-width:3px;clip-path:inset(3px 3px 1px)" transform="rotate(45 -477 934.6)"/><text x="522" y="612" dx="8" dy="26" style="font-size:19.5px;fill:#000">Custom</text><rect width="314" height="5" x="522" y="651" style="fill:#bdbdbd;stroke:#fff;stroke-width:3px;clip-path:inset(3px 3px 1px)"/><rect width="32" height="5" x="861" y="681" style="fill:#bdbdbd;stroke:#fff;stroke-width:3px;clip-path:inset(3px 3px 1px 2px)"/><rect width="46" height="5" x="222" y="-222" style="fill:#bdbdbd;stroke:#fff;stroke-width:3px;clip-path:inset(3px 3px 1px)" transform="rotate(45 -525.2 954.6)"/><text x="522" y="652" dx="8" dy="26" style="font-size:19.5px;fill:#000">Extras</text><rect width="960" height="81" x="1" y="739" rx="0" style="fill:#f9f9f9;clip-path:inset(15px 0 0)"/><text x="727" y="764" dx="26" dy="34" style="font-size:23.5px;fill:#000">Cancel</text><use href="#edt" style="fill:#505050" transform="matrix(.36 0 0 .36 848 778)"/><text x="848" y="764" dx="26" dy="34" style="font-size:23.5px;fill:#000">Save</text><rect width="960" height="1.1" x="1" y="754" style="fill:#d7d7d9"/><rect width="960" height="820" x="1" y="1" rx="0" style="fill:none;stroke:#808e8c;stroke-width:1.2px"/><rect width="959" height="819" x="1.5" y="1.5" rx="0" style="fill:none;stroke:#ccc;stroke-opacity:.75;stroke-width:.5px"/></g><g style="font-family:&quot;Sans-Serif&quot;,system-ui,sans-serif"><rect width="1718" height="1140" x="1521" y="81" rx="0" style="fill:#f9f9f9;stroke:#acc6c3;stroke-width:1px"/><rect width="1716" height="48" x="1522" y="81" rx="0" style="fill:#fafafa;stroke:#e8e8e8;stroke-width:2px;clip-path:inset(1px 1.5px 0)"/><rect width="1718" height="1" x="1521" y="127" style="fill:none;stroke:#cbcdcc;stroke-width:2px;clip-path:inset(0 1px 1.1px)"/><text x="1519" y="83.5" dx="857" dy="28" style="font-family:&quot;Sans-Serif&quot;,system-ui,sans-serif;font-weight:700;font-size:19px;fill:#5a5a5a" text-anchor="middle">e2 SAT Editor</text><rect width="10.5" height=".8" x="3110" y="107" style="fill:none;stroke:#333;stroke-width:1px"/><g transform="matrix(.9 0 0 .9 3155 100)"><rect width="15" height="13" style="fill:none;stroke:#333;stroke-width:3px;clip-path:inset(.8px 1.4px 2.6px)"/><rect width="13" height="7" x="1" y="4" style="fill:none;stroke:#333;stroke-width:1.7px"/></g><g transform="rotate(45 1493.9 3925.5)"><rect width="15" height="1" y="7" style="fill:none;stroke:#333;stroke-width:1px"/><rect width="1" height="15" x="7" style="fill:none;stroke:#333;stroke-width:1px"/></g><rect width="1716" height="36" x="1522" y="129" style="fill:#eee"/><text x="1525.5" y="130.5" dx="12" dy="24" style="font-size:20px;word-spacing:16px;fill:#000;fill-opacity:.75">File Edit Find Tools Editor Window Help</text><rect width="1718" height="1" x="1521" y="165.5" style="fill:#e2e2e2;stroke:#dcdddd"/><rect width="1716" height="67" x="1522" y="167" style="fill:#efefef"/><rect width="128" height="67" x="1522" y="167" style="fill:#efefef"/><rect width="112" height="53" x="1530" y="173" rx="3" style="fill:url(#bpf);stroke:#ababab;stroke-width:1px"/><use href="#aad" style="fill:#4f4f4f" transform="matrix(.26 0 0 .26 1536 191)"/><text x="1530" y="173" dx="27" dy="33" style="font-weight:700;font-size:18px;fill:#000">New Tab</text><rect width="1" height="67" x="1650" y="167" style="fill:#d5d6d6"/><rect width="157" height="69" x="1651" y="166" style="fill:#efefef;stroke:#dfdfdf;stroke-width:2px;clip-path:inset(1px 0)"/><text x="1651" y="165.5" dx="15" dy="41" style="font-size:19px;fill:#000">enigma_db</text><g transform="matrix(.9 0 0 .9 1781 195.5)"><rect width="22" height="22" x="-4.5" y="-4.5" rx="11" style="fill:#000;fill-opacity:.33"/><use href="#cce" style="fill:#fff" transform="matrix(.17 0 0 .17 1.2 1.2)"/></g><rect width="292" height="69" x="1808" y="166" style="fill:#efefef;stroke:#dfdfdf;stroke-width:2px;clip-path:inset(1px 0)"/><use href="#pkw" style="fill:#000" transform="matrix(.38 0 0 .38 1820 186)"/><text x="1808" y="165.5" dx="46" dy="41" style="font-size:19px;fill:#000">enigma_db - Picons <tspan style="font-size:15px">…</tspan></text><g transform="matrix(.9 0 0 .9 2074 195.5)"><rect width="22" height="22" x="-4.5" y="-4.5" rx="11" style="fill:#000;fill-opacity:.33"/><use href="#cce" style="fill:#fff" transform="matrix(.17 0 0 .17 1.2 1.2)"/></g><rect width="154" height="69" x="2100" y="166" style="fill:#efefef;stroke:#dfdfdf;stroke-width:2px;clip-path:inset(1px 0)"/><text x="2100" y="165.5" dx="15" dy="41" style="font-size:19px;fill:#000">neutrino</text><g transform="matrix(.9 0 0 .9 2228 195.5)"><rect width="22" height="22" x="-4.5" y="-4.5" rx="11" style="fill:#000;fill-opacity:.33"/><use href="#cce" style="fill:#fff" transform="matrix(.17 0 0 .17 1.2 1.2)"/></g><rect width="292" height="69" x="2254" y="166" style="fill:#308cc6;stroke:#308cc6;stroke-width:2px;clip-path:inset(1px 0)"/><use href="#tnw" style="fill:#000" transform="matrix(.38 0 0 .38 2266 186)"/><text x="2254" y="165.5" dx="46" dy="41" style="font-size:19px;fill:#fff">enigma_db - Edit Set<tspan style="font-size:15px">…</tspan></text><g transform="matrix(.9 0 0 .9 2521 195.5)"><rect width="22" height="22" x="-4.5" y="-4.5" rx="11" style="fill:#000;fill-opacity:.33"/><use href="#cce" style="fill:#fff" transform="matrix(.17 0 0 .17 1.2 1.2)"/></g><rect width="293" height="69" x="2546" y="166" style="fill:#efefef;stroke:#dfdfdf;stroke-width:2px;clip-path:inset(1px 0)"/><use href="#cbw" style="fill:#000" transform="matrix(.38 0 0 .38 2559 186)"/><text x="2546" y="165.5" dx="46" dy="41" style="font-size:19px;fill:#000">enigma_db - Channe<tspan style="font-size:15px">…</tspan></text><g transform="matrix(.9 0 0 .9 2813 195.5)"><rect width="22" height="22" x="-4.5" y="-4.5" rx="11" style="fill:#000;fill-opacity:.33"/><use href="#cce" style="fill:#fff" transform="matrix(.17 0 0 .17 1.2 1.2)"/></g><rect width="2" height="67" x="2838" y="167" style="fill:#dfdfdf"/><rect width="1716" height="95" x="1522" y="234" style="fill:#efefef"/><use href="#fin" style="fill:#5c5c5c" transform="matrix(.38 0 0 .38 1546 257)"/><text x="1528.5" y="232" dx="69" dy="59" style="font-size:25.5px;fill:#000">Open</text><use href="#fje" style="fill:#5c5c5c" transform="matrix(.38 0 0 .38 1692 257)"/><text x="1674.5" y="232" dx="69" dy="59" style="font-size:25.5px;fill:#000">Save</text><rect width="4" height="42" x="1830" y="260" style="fill:#fff;stroke:#dfdfdf;stroke-width:2px;clip-path:inset(2px 2px 2px .5px)"/><use href="#fgt" style="fill:#5c5c5c" transform="matrix(.38 0 0 .38 1842 257)"/><text x="1823.5" y="232" dx="69" dy="59" style="font-size:25.5px;fill:#000">Import</text><use href="#fft" style="fill:#5c5c5c" transform="matrix(.38 0 0 .38 1999 257)"/><text x="1981.5" y="232" dx="69" dy="59" style="font-size:25.5px;fill:#000">Export</text><rect width="4" height="42" x="2153" y="260" style="fill:#fff;stroke:#dfdfdf;stroke-width:2px;clip-path:inset(2px 2px 2px .5px)"/><use href="#sms" style="fill:#5c5c5c" transform="matrix(.38 0 0 .38 2165 257)"/><text x="2147.5" y="232" dx="69" dy="59" style="font-size:25.5px;fill:#000">Settings</text><rect width="100" height="34" x="2588" y="264" rx="3" style="fill:url(#bpf);stroke:#ababab;stroke-width:1.2px;filter:none"/><rect width="24" height="24" x="2680.5" y="269" rx="8" style="fill:none;stroke:none;stroke-opacity:.06;stroke-width:2px"/><use href="#aol" style="fill:#676767" transform="matrix(.23 0 0 .23 2668 273)"/><text x="2583" y="266" dx="12" dy="22" style="font-size:20px;fill:#000">Profile 1</text><text x="2691.5" y="232" dx="15" dy="59" style="font-size:25.5px;fill:#000">Connect</text><text x="2812.5" y="232" dx="15" dy="59" style="font-size:25.5px;fill:#000">Disconnect</text><rect width="4" height="42" x="2967" y="260" style="fill:#fff;stroke:#dfdfdf;stroke-width:2px;clip-path:inset(2px 2px 2px .5px)"/><text x="2971.5" y="232" dx="15" dy="59" style="font-size:25.5px;fill:#000">Upload</text><text x="3079.5" y="232" dx="15" dy="59" style="font-size:25.5px;fill:#000">Download</text><rect width="1720" height="95" x="1520" y="234" style="fill:none;stroke:#d1d2d2;stroke-width:2px;clip-path:inset(0 2px)"/><rect width="1716" height="779" x="1522" y="328" style="fill:#efefef"/><rect width="380" height="779" x="1522" y="328" style="fill:#efefef"/><text x="1522" y="327" dx="10" dy="33" style="font-weight:700;font-size:19px;fill:#000">Satellites</text><rect width="38" height="32" x="1860" y="333" rx="3" style="fill:url(#bpf);stroke:#ababab;stroke-width:1.2px"/><use href="#ees" style="fill:#505050" transform="matrix(.38 0 0 .38 1868 336)"/><rect width="380" height="26" x="1522" y="377" style="fill:url(#bpf);stroke:#c8c8c8;stroke-width:2px;clip-path:inset(1px 1px 0)"/><text x="1522" y="379" dy="18" style="font-size:17px;fill:#000"><tspan x="1526">Name</tspan> <tspan x="1823">Position</tspan></text><rect width="3" height="26" x="1818" y="377" style="fill:#ddd;stroke:#cdcdcd;stroke-width:1px;clip-path:inset(1px 1px 1px 0)"/><rect width="380" height="687" x="1522" y="403" style="fill:#fff"/><rect width="380" height="44" x="82" y="448" style="fill:#308cc6" transform="matrix(1 0 0 .996 1440 40.4)"/><text x="1522" y="404" dy="29" style="font-size:20px;fill:#000"><tspan x="1533">Hispasat 30W</tspan> <tspan x="1825">30.0W</tspan></text><text x="1522" y="445" dy="29" style="font-size:20px;fill:#000"><tspan x="1533">Eutelsat 7W</tspan> <tspan x="1825">7.0W</tspan></text><text x="1522" y="486" dy="29" style="font-size:20px;fill:#fff"><tspan x="1533">Hot Bird</tspan> <tspan x="1825">13.0E</tspan></text><text x="1522" y="529" dy="29" style="font-size:20px;fill:#000"><tspan x="1533">Badr 5/7/8 C</tspan> <tspan x="1825">26.0E</tspan></text><text x="1522" y="569" dy="29" style="font-size:20px;fill:#000"><tspan x="1533">Badr 5/7/8 Ku</tspan> <tspan x="1825">26.0E</tspan></text><rect width="1332" height="65" x="1522" y="1043" style="fill:#efefef"/><rect width="1332" height="65" x="1520" y="1042" style="fill:none;stroke:#e9eaea;stroke-width:2px;clip-path:inset(0 2px 2px)"/><use href="#aad" style="fill:#545454" transform="matrix(.25 0 0 .25 1541 1065.5)"/><text x="1535" y="1049.5" dx="28" dy="33" style="font-weight:700;font-size:20.5px;fill:#000">Position</text><rect width="100" height="34" x="1789" y="1058" rx="3" style="fill:url(#bpf);stroke:#ababab;stroke-width:1.2px;filter:none"/><use x="15" href="#slh" style="fill:#545454" transform="matrix(.38 0 0 .38 1794 1062)"/><text x="1774" y="1060" dx="54" dy="22" style="font-size:20px;fill:#000">Find<tspan style="font-size:15px">…</tspan></text><rect width=".5" height="28" x="1905.5" y="706" style="fill:none;stroke:#000;stroke-opacity:.25;stroke-dasharray:0,2px,0"/><text x="1909" y="327" dx="10" dy="32" style="font-weight:700;font-size:19px;fill:#000">Transponders</text><rect width="1325" height="26" x="1909" y="377" style="fill:url(#bpf);stroke:#c8c8c8;stroke-width:2px;clip-path:inset(1px 1px 0)"/><text x="1909" y="379" dy="18" style="font-size:17px;fill:#000"><tspan x="1914">Freq/Pol/SR</tspan> <tspan x="2150">Frequency</tspan> <tspan x="2269">Polarization</tspan> <tspan x="2388">Symbol Rate</tspan> <tspan x="2508">System</tspan> <tspan x="2609">FEC</tspan> <tspan x="2708">Modulation</tspan> <tspan x="2819">Inversion</tspan> <tspan x="2913">Roll offset</tspan> <tspan x="3014">Pilot</tspan></text><rect width="3" height="26" x="2144" y="377" style="fill:#ddd;stroke:#cdcdcd;stroke-width:1px;clip-path:inset(1px 1px 1px 0)"/><rect width="3" height="26" x="2263" y="377" style="fill:#ddd;stroke:#cdcdcd;stroke-width:1px;clip-path:inset(1px 1px 1px 0)"/><rect width="3" height="26" x="2381" y="377" style="fill:#ddd;stroke:#cdcdcd;stroke-width:1px;clip-path:inset(1px 1px 1px 0)"/><rect width="3" height="26" x="2502" y="377" style="fill:#ddd;stroke:#cdcdcd;stroke-width:1px;clip-path:inset(1px 1px 1px 0)"/><rect width="3" height="26" x="2603" y="377" style="fill:#ddd;stroke:#cdcdcd;stroke-width:1px;clip-path:inset(1px 1px 1px 0)"/><rect width="3" height="26" x="2702" y="377" style="fill:#ddd;stroke:#cdcdcd;stroke-width:1px;clip-path:inset(1px 1px 1px 0)"/><rect width="3" height="26" x="2813" y="377" style="fill:#ddd;stroke:#cdcdcd;stroke-width:1px;clip-path:inset(1px 1px 1px 0)"/><rect width="3" height="26" x="2907" y="377" style="fill:#ddd;stroke:#cdcdcd;stroke-width:1px;clip-path:inset(1px 1px 1px 0)"/><rect width="3" height="26" x="3008" y="377" style="fill:#ddd;stroke:#cdcdcd;stroke-width:1px;clip-path:inset(1px 1px 1px 0)"/><rect width="1325" height="687" x="1909" y="403" style="fill:#fff"/><rect width="1325" height="44" x="473" y="576" style="fill:#308cc6" transform="matrix(1 0 0 .996 1436 39.1)"/><text x="1909" y="404" dy="29" style="font-size:20px;fill:#000"><tspan x="1916">10719/V/27500</tspan> <tspan x="2151">10719</tspan> <tspan x="2270">V</tspan> <tspan x="2389">27500</tspan> <tspan x="2507">DVB-S2</tspan> <tspan x="2610">3/4</tspan> <tspan x="2708">8PSK</tspan></text><text x="1909" y="445" dy="29" style="font-size:20px;fill:#000"><tspan x="1916">10728/H/30000</tspan> <tspan x="2151">10728</tspan> <tspan x="2270">H</tspan> <tspan x="2389">30000</tspan> <tspan x="2507">DVB-S2</tspan> <tspan x="2610">3/4</tspan> <tspan x="2708">8PSK</tspan></text><text x="1909" y="486" dy="29" style="font-size:20px;fill:#000"><tspan x="1916">10758/V/27500</tspan> <tspan x="2151">10758</tspan> <tspan x="2270">V</tspan> <tspan x="2389">27500</tspan> <tspan x="2507">DVB-S2</tspan> <tspan x="2610">3/4</tspan> <tspan x="2708">8PSK</tspan></text><text x="1909" y="529" dy="29" style="font-size:20px;fill:#000"><tspan x="1916">10775/H/27500</tspan> <tspan x="2151">10775</tspan> <tspan x="2270">H</tspan> <tspan x="2389">27500</tspan> <tspan x="2507">DVB-S</tspan> <tspan x="2610">Auto</tspan> <tspan x="2708">Auto</tspan></text><text x="1909" y="571" dy="29" style="font-size:20px;fill:#000"><tspan x="1916">10775/H/29900</tspan> <tspan x="2151">10775</tspan> <tspan x="2270">H</tspan> <tspan x="2389">29900</tspan> <tspan x="2507">DVB-S</tspan> <tspan x="2610">Auto</tspan> <tspan x="2708">Auto</tspan></text><text x="1909" y="614" dy="29" style="font-size:20px;fill:#fff"><tspan x="1916">10796/V/27500</tspan> <tspan x="2151">10796</tspan> <tspan x="2270">V</tspan> <tspan x="2389">27500</tspan> <tspan x="2507">DVB-S2</tspan> <tspan x="2610">3/4</tspan> <tspan x="2708">8PSK</tspan></text><text x="1909" y="656" dy="29" style="font-size:20px;fill:#000"><tspan x="1916">10815/H/27500</tspan> <tspan x="2151">10815</tspan> <tspan x="2270">H</tspan> <tspan x="2389">27500</tspan> <tspan x="2507">DVB-S</tspan> <tspan x="2610">5/6</tspan> <tspan x="2708">QPSK</tspan></text><text x="1909" y="700" dy="29" style="font-size:20px;fill:#000"><tspan x="1916">10834/V/27500</tspan> <tspan x="2151">10834</tspan> <tspan x="2270">V</tspan> <tspan x="2389">27500</tspan> <tspan x="2507">DVB-S</tspan> <tspan x="2610">Auto</tspan> <tspan x="2708">Auto</tspan></text><text x="1909" y="743" dy="29" style="font-size:20px;fill:#000"><tspan x="1916">10853/H/29900</tspan> <tspan x="2151">10853</tspan> <tspan x="2270">H</tspan> <tspan x="2389">29900</tspan> <tspan x="2507">DVB-S</tspan> <tspan x="2610">Auto</tspan> <tspan x="2708">Auto</tspan></text><text x="1909" y="787" dy="29" style="font-size:20px;fill:#000"><tspan x="1916">10872/V/27500</tspan> <tspan x="2151">10872</tspan> <tspan x="2270">V</tspan> <tspan x="2389">27500</tspan> <tspan x="2507">DVB-S2</tspan> <tspan x="2610">3/4</tspan> <tspan x="2708">8PSK</tspan></text><text x="1909" y="829" dy="29" style="font-size:20px;fill:#000"><tspan x="1916">10873/V/27500</tspan> <tspan x="2151">10873</tspan> <tspan x="2270">V</tspan> <tspan x="2389">27500</tspan> <tspan x="2507">DVB-S2</tspan> <tspan x="2610">3/4</tspan> <tspan x="2708">8PSK</tspan></text><text x="1909" y="872" dy="29" style="font-size:20px;fill:#000"><tspan x="1916">10892/H/27500</tspan> <tspan x="2151">10892</tspan> <tspan x="2270">H</tspan> <tspan x="2389">27500</tspan> <tspan x="2507">DVB-S</tspan> <tspan x="2610">Auto</tspan> <tspan x="2708">Auto</tspan></text><text x="1909" y="914" dy="29" style="font-size:20px;fill:#000"><tspan x="1916">10911/V/27500</tspan> <tspan x="2151">10911</tspan> <tspan x="2270">V</tspan> <tspan x="2389">27500</tspan> <tspan x="2507">DVB-S2</tspan> <tspan x="2610">3/4</tspan> <tspan x="2708">8PSK</tspan></text><text x="1909" y="956" dy="29" style="font-size:20px;fill:#000"><tspan x="1916">10930/H/30000</tspan> <tspan x="2151">10930</tspan> <tspan x="2270">H</tspan> <tspan x="2389">30000</tspan> <tspan x="2507">DVB-S2</tspan> <tspan x="2610">2/3</tspan> <tspan x="2708">8PSK</tspan></text><text x="1909" y="996" dy="29" style="font-size:20px;fill:#000"><tspan x="1916">10949/V/27500</tspan> <tspan x="2151">10949</tspan> <tspan x="2270">V</tspan> <tspan x="2389">27500</tspan> <tspan x="2507">DVB-S2</tspan> <tspan x="2610">2/3</tspan> <tspan x="2708">8PSK</tspan></text><g style="clip-path:inset(1px 1px 1px 0)"><rect width="23" height="613" x="3216" y="377" style="fill:#e6e6e6;stroke:#bcbcbc;stroke-width:2px"/><rect width="22" height="22" x="3216.5" y="377.5" rx="0" style="fill:url(#bqf);stroke:#ababab;stroke-width:1.2px"/><use href="#aol" style="fill:#5c5c5c" transform="matrix(.22 0 0 -.22 3220.3 395.5)"/><rect width="22" height="22" x="3216.5" y="967.5" rx="0" style="fill:url(#bqf);stroke:#ababab;stroke-width:1.2px"/><use href="#aol" style="fill:#5c5c5c" transform="matrix(.22 0 0 .22 3220.3 973)"/><rect width="22" height="76" x="3216.5" y="399.5" rx="0" style="fill:url(#bqf);fill-opacity:.8;stroke:#ababab;stroke-opacity:.6;stroke-width:1.2px"/></g><rect width="1329" height="52" x="1909" y="991" style="fill:#fafafa"/><rect width="162.5" height="34" x="1917" y="997" rx="3" style="fill:url(#bpf);stroke:#ababab;stroke-width:1.2px;filter:none"/><text x="1914" y="999" dx="12" dy="22" style="font-size:20px;fill:#000">Freq/Pol/SR</text><rect width="1329" height="52" x="2066.5" y="1002" rx="8" style="fill:none;stroke:none;stroke-opacity:.06;stroke-width:2px"/><use href="#aol" style="fill:#676767" transform="matrix(.23 0 0 .23 2060 1006)"/><rect width="308" height="34" x="2087" y="997" rx="3" style="fill:#fff;stroke:#ababab;stroke-width:1.2px;clip-path:none"/><text x="2088" y="998" dx="4" dy="23" style="font-size:19px;fill:#000">10796/V</text><rect width="82" height="33" x="2407" y="997" rx="4" style="fill:#ececec"/><text x="2407" y="998" dx="40" dy="23" style="font-size:19.5px;fill:#000;fill-opacity:.89" text-anchor="middle">Find</text><rect width="166" height="33" x="2498" y="997" rx="4" style="fill:#ececec"/><text x="2498" y="998" dx="83" dy="23" style="font-size:19.5px;fill:#000;fill-opacity:.89" text-anchor="middle">Find Previous</text><rect width="110" height="33" x="2673" y="997" rx="4" style="fill:#ececec"/><text x="2673" y="998" dx="55" dy="23" style="font-size:19.5px;fill:#000;fill-opacity:.89" text-anchor="middle">Find All</text><rect width="126" height="31" x="2813" y="998" rx="4" style="fill:#68c5ff;stroke:#d1d2d2;stroke-width:1px"/><text x="2813" y="999" dx="62" dy="22" style="font-size:19.5px;fill:#fff;fill-opacity:.9" text-anchor="middle">Highlight</text><use href="#cce" style="fill:#666" transform="matrix(.23 0 0 .23 3200 1012)"/><rect width="1330" height="65" x="1909" y="1043" style="fill:#efefef"/><rect width="1332" height="65" x="1907" y="1042" style="fill:none;stroke:#e9eaea;stroke-width:2px;clip-path:inset(0 2px 2px)"/><use href="#aad" style="fill:#545454" transform="matrix(.26 0 0 .26 1928 1065.5)"/><text x="1923" y="1049.5" dx="28" dy="33" style="font-weight:700;font-size:20.5px;fill:#000">Transponder</text><rect width="100" height="34" x="3125" y="1058" rx="3" style="fill:url(#bpf);stroke:#ababab;stroke-width:1.2px;filter:none"/><use x="15" href="#slh" style="fill:#545454" transform="matrix(.38 0 0 .38 3127 1062)"/><text x="3115" y="1060.5" dx="46" dy="22" style="font-size:20px;fill:#000">Find<tspan style="font-size:15px">…</tspan></text><rect width="1720" height="780" x="1520" y="328" style="fill:none;stroke:#d5d6d6;stroke-width:1.8px;clip-path:inset(0 2px)"/><rect width="1716" height="75" x="1522" y="1109" style="fill:#efefef"/><text x="1535" y="1120" dx="29" dy="33" style="font-weight:700;font-size:24px;fill:#000">Tools</text><rect width="4" height="25" x="1647" y="1133" style="fill:#fff;stroke:#dfdfdf;stroke-width:2px;clip-path:inset(2px 2px 2px .5px)"/><text x="1637" y="1120" dx="29" dy="33" style="font-weight:700;font-size:24px;fill:#000">Inspect</text><text x="3105" y="1120" dx="11" dy="33" style="font-weight:700;font-size:24px;fill:#000">autofix</text><rect width="1716" height="51" x="1522" y="1169" rx="0" style="fill:#efefef;clip-path:inset(15px 0 0)"/><rect width="1720" height="37" x="1520" y="1184" style="fill:none;stroke:#d5d6d6;stroke-width:2px;clip-path:inset(0 2px 37.3px)"/><text x="1525" y="1181" dx="29" dy="29" style="font-size:19.5px;fill:#000"><tspan>Transponders: 102</tspan> <tspan dx="10">Position: 13.0E</tspan></text><text x="1546" y="1181" dx="1535" dy="29" style="font-size:19.5px;fill:#000"><tspan>Total: 251</tspan></text><use href="#fho" style="fill:#5c5c5c" transform="matrix(.38 0 0 .38 3191 1191)"/><rect width="1718" height="1140" x="1521" y="81" rx="0" style="fill:none;stroke:#8c9695;stroke-width:1px"/></g></svg>