<svg xmlns="http://www.w3.org/2000/svg" style="pointer-events:none;user-select:none;text-rendering:geometricprecision" viewBox="0 0 1880 1300"><defs><symbol id="aad"><path d="M37.75 37.75h18.127v-11.5H37.75V8.123h-11.5V26.25H8.123v11.5H26.25v18.127h11.5V37.75z"/></symbol><symbol id="ebt"><path d="M56.256 31.057H13.818C6.744 31.057 1 36.801 1 43.875v61.295c0 7.074 5.744 12.818 12.818 12.818h54.476c7.075 0 12.818-5.744 12.818-12.818V54.119C64.496 68.159 64.463 84.4 64.087 91.084a6.817 6.817 0 0 1-11.642 4.425c-14.421-14.502-16.181-43.133 3.811-64.452zm1.037 59.637C42.669 75.989 44.254 44.706 72.527 26.35L62.162 13.988 105 15.072l-7.263 41.344-11.808-14.082c-28.127 16.992-28.15 39.728-28.636 48.36z"/></symbol><symbol id="lcu"><path d="M56.25 57.423a4.33 4.33 0 0 0-4.327-4.327H12.077c-2.388 0-4.327 1.939-4.327 4.327s1.939 4.327 4.327 4.327h39.846a4.33 4.33 0 0 0 4.327-4.327zm0-12.52a4.33 4.33 0 0 0-4.327-4.328H12.077a4.33 4.33 0 0 0-4.327 4.328 4.33 4.33 0 0 0 4.327 4.327h39.846a4.33 4.33 0 0 0 4.327-4.327zm0-12.521a4.33 4.33 0 0 0-4.327-4.327H12.077c-2.388 0-4.327 1.939-4.327 4.327s1.939 4.327 4.327 4.327h39.846a4.33 4.33 0 0 0 4.327-4.327zM13.803 19.471v3.446h10.579v-5.844a11.23 11.23 0 0 0 2.343-1.41c2.237-1.745 3.347-4.068 3.371-6.392S29.057 4.6 26.857 2.8c-.887-.725-1.951-1.273-3.024-1.702l-1.372.918-.062 6.154c-.003.286-.167.503-.402.659-.376.249-.899.364-1.472.364h-2.85c-.565-.008-1.082-.142-1.452-.406-.242-.173-.413-.406-.41-.702l.062-6.155-1.348-.947c-1.083.403-2.158.924-3.06 1.628C9.23 4.357 8.12 6.679 8.096 9.003c-.023 2.323 1.039 4.671 3.239 6.471.725.593 1.567 1.067 2.437 1.454.016.617.026 1.607.031 2.543z"/></symbol><symbol id="sdh"><path d="M40.023 45.152c-3.477 2.591-7.729 4.192-12.407 4.221-10.406.066-20.276-8.26-21.806-18.699C4.079 18.86 13.39 6.51 25.93 5.634a23.135 23.135 0 0 1 1.686-.053c10 .095 19.38 7.75 21.337 17.619 1.156 5.829-.437 11.92-3.87 16.758l13.82 13.819-5.128 5.128-13.752-13.753zM27.395 14.645c-6.236.06-12 5.17-12.677 11.431-.588 5.436 2.691 11.076 7.773 13.229 6.62 2.806 15.346-1.167 17.352-8.391 2.055-7.404-3.759-16.031-12.032-16.265a19.293 19.293 0 0 0-.416-.004z"/></symbol><symbol id="ses"><path d="M73.934 15.359a50.006 50.006 0 0 0-19.668 0 128.34 128.34 0 0 1 1.871 12.477 37.41 37.41 0 0 0-12.249 5.073 128.485 128.485 0 0 1-7.499-10.146 50.018 50.018 0 0 0-13.908 13.908 128.735 128.735 0 0 1 10.146 7.499 37.41 37.41 0 0 0-5.073 12.249 128.34 128.34 0 0 1-12.477-1.871 49.968 49.968 0 0 0 0 19.668 128.34 128.34 0 0 1 12.477-1.871 37.4 37.4 0 0 0 5.073 12.249 128.485 128.485 0 0 1-10.146 7.499 50.018 50.018 0 0 0 13.908 13.908 128.485 128.485 0 0 1 7.499-10.146 37.433 37.433 0 0 0 12.249 5.074 128.366 128.366 0 0 1-1.871 12.476 49.968 49.968 0 0 0 19.668 0 128.366 128.366 0 0 1-1.871-12.476 37.433 37.433 0 0 0 12.249-5.074 128.485 128.485 0 0 1 7.499 10.146 50.018 50.018 0 0 0 13.908-13.908 128.485 128.485 0 0 1-10.146-7.499 37.4 37.4 0 0 0 5.073-12.249 128.34 128.34 0 0 1 12.477 1.871 49.968 49.968 0 0 0 0-19.668 128.34 128.34 0 0 1-12.477 1.871 37.41 37.41 0 0 0-5.073-12.249 128.735 128.735 0 0 1 10.146-7.499 50.018 50.018 0 0 0-13.908-13.908 128.485 128.485 0 0 1-7.499 10.146 37.41 37.41 0 0 0-12.249-5.073 128.34 128.34 0 0 1 1.871-12.477zM64.1 50.882c7.451 0 13.5 6.049 13.5 13.5s-6.049 13.5-13.5 13.5-13.5-6.049-13.5-13.5 6.049-13.5 13.5-13.5z"/></symbol><symbol id="afl"><path d="m32 45.423 26.667-26.846H5.333L32 45.423z"/></symbol><symbol id="cgk"><path d="m5.601 32 18.857 18.856 33.941-33.941-3.772-3.771-30.169 30.17L9.373 28.229 5.601 32z"/></symbol><linearGradient id="bhf" x1="0" x2="0" y1="0" y2="1"><stop offset="0" style="stop-color:#fdfdfd"/><stop offset="1" style="stop-color:#eee"/></linearGradient><linearGradient id="bif" x1="0" x2="1" y1="0" y2="0"><stop offset="0" style="stop-color:#fdfdfd"/><stop offset="1" style="stop-color:#eee"/></linearGradient><filter id="mjf" color-interpolation-filters="sRGB"><feDropShadow dx="-3" dy="12" flood-opacity=".2" stdDeviation="20"/><feDropShadow dx="3" dy="12" flood-opacity=".2" stdDeviation="10"/></filter></defs><rect width="1880" height="1300" style="fill:#b4d0cd"/><rect width="1880" height="1330" style="font-family:'Sans-Serif',system-ui,sans-serif;fill:#000;fill-opacity:.2"/><g style="font-family:'Sans-Serif',system-ui,sans-serif;opacity:.8" transform="matrix(1.41 0 0 1.41 -656 -271)"><rect width="1718" height="1140" x="81" y="81" rx="0" style="fill:#f9f9f9;stroke:#acc6c3;stroke-width:1px"/><rect width="1716" height="95" x="82" y="192" style="fill:#f9f9f9"/><text x="397.5" y="190" dx="69" dy="59" style="font-size:25.5px;fill:#000">Import</text><use href="#ebt" style="fill:#5c5c5c" transform="matrix(.38 0 0 .38 575 215)"/><text x="555.5" y="190" dx="69" dy="59" style="font-size:25.5px;fill:#000">Export</text><rect width="4" height="44" x="730" y="220" style="fill:#fff;stroke:#dfdfdf;stroke-width:2px;clip-path:inset(1px 1px 1px 0)"/><use href="#ses" style="fill:#5c5c5c" transform="matrix(.38 0 0 .38 741 215)"/><text x="724.5" y="190" dx="69" dy="59" style="font-size:25.5px;fill:#000">Settings</text><rect width="100" height="34" x="1140" y="222" rx="3" style="fill:url(#bhf);stroke:#ababab;stroke-width:1px;filter:none"/><rect width="24" height="24" x="1232.5" y="227" rx="8" style="fill:none;stroke:none;stroke-opacity:.06;stroke-width:2px"/><use href="#afl" style="fill:#676767" transform="matrix(.23 0 0 .23 1220 231)"/><text x="1135" y="224" dx="12" dy="22" style="font-size:20px;fill:#000">Default</text><text x="1248.5" y="190" dx="15" dy="59" style="font-size:25.5px;fill:#000">Connect</text><text x="1373.5" y="190" dx="15" dy="59" style="font-size:25.5px;fill:#000">Disconnect</text><rect width="4" height="44" x="1533" y="220" style="fill:#fff;stroke:#dfdfdf;stroke-width:2px;clip-path:inset(1px 1px 1px 0)"/><text x="1533.5" y="190" dx="15" dy="59" style="font-size:25.5px;fill:#000">Upload</text><text x="1644.5" y="190" dx="15" dy="59" style="font-size:25.5px;fill:#000">Download</text><rect width="1720" height="95" x="80" y="192" style="fill:none;stroke:#d1d2d2;stroke-width:2px;clip-path:inset(0 2px)"/><rect width="1716" height="820" x="82" y="286" style="fill:#efefef"/><text x="469" y="286" dx="10" dy="32" style="font-weight:700;font-size:19px;fill:#000">Channels</text><rect width="38" height="32" x="1755" y="293" rx="3" style="fill:url(#bhf);stroke:#ababab"/><use href="#lcu" style="fill:#505050" transform="matrix(.38 0 0 .38 1762 296)"/><rect width="1325" height="26" x="469" y="335" style="fill:url(#bhf);stroke:#c8c8c8;stroke-width:2px;clip-path:inset(1px 1px 0)"/><text x="469" y="337" dy="18" style="font-size:17px;fill:#000"><tspan x="472">Index</tspan> <tspan x="571">Name</tspan></text><rect width="3" height="26" x="565" y="335" style="fill:#ddd;stroke:#cdcdcd;stroke-width:1px;clip-path:inset(1px 1px 1px 0)"/><rect width="1325" height="687" x="469" y="361" style="fill:#fff"/><rect width="1325" height="49" x="473" y="707" style="fill:#308cc6" transform="matrix(1 0 0 .996 -4 -2.9)"/><text x="469" y="362" dy="31" style="font-size:20px;fill:#000"><tspan x="492">38</tspan> <tspan x="572">Giallo</tspan></text><text x="469" y="411" dy="31" style="font-size:20px;fill:#000"><tspan x="492">39</tspan> <tspan x="572">TOPcrime HD</tspan></text><text x="469" y="460" dy="31" style="font-size:20px;fill:#000"><tspan x="492">40</tspan> <tspan x="572">Boing HD</tspan></text><text x="469" y="508" dy="31" style="font-size:20px;fill:#000"><tspan x="492">41</tspan> <tspan x="572">K2</tspan></text><text x="469" y="557" dy="31" style="font-size:20px;fill:#000"><tspan x="492">42</tspan> <tspan x="572">Rai Gulp HD</tspan></text><text x="469" y="606" dy="31" style="font-size:20px;fill:#000"><tspan x="492">43</tspan> <tspan x="572">Rai YoYo HD</tspan></text><text x="469" y="654" dy="31" style="font-size:20px;fill:#000"><tspan x="492">44</tspan> <tspan x="572">Frisbee</tspan></text><text x="469" y="703" dy="31" style="font-size:20px;fill:#fff"><tspan x="492">45</tspan> <tspan x="572">NASA TV HD</tspan></text><text x="469" y="752" dy="31" style="font-size:20px;fill:#000"><tspan x="492">46</tspan> <tspan x="572">Cartoonito HD</tspan></text><text x="469" y="801" dy="31" style="font-size:20px;fill:#000"><tspan x="492">47</tspan> <tspan x="572">Super!</tspan></text><text x="469" y="850" dy="31" style="font-size:20px;fill:#000"><tspan x="492">48</tspan> <tspan x="572">Rai News 24 HD</tspan></text><text x="469" y="898" dy="31" style="font-size:20px;fill:#000"><tspan x="492">49</tspan> <tspan x="572">Mediaset Italia2 HD</tspan></text><text x="469" y="947" dy="31" style="font-size:20px;fill:#000"><tspan x="492">50</tspan> <tspan x="572">Explorer HD Channel</tspan> <tspan x="982">13534</tspan> <tspan x="1106">6900</tspan> <tspan x="1227">HD</tspan> <tspan x="1425">SkyItalia</tspan> <tspan x="1695">DVB-S</tspan></text><g style="clip-path:inset(1px 1px 0 0)"><rect width="23" height="696" x="1776" y="335" style="fill:#e6e6e6;stroke:#bcbcbc;stroke-width:2px"/><rect width="22" height="22" x="1776.5" y="335.5" rx="0" style="fill:url(#bif);stroke:#ababab"/><use href="#afl" style="fill:#5c5c5c" transform="matrix(.22 0 0 -.22 1780.3 353.5)"/><rect width="22" height="22" x="1776.5" y="986.5" rx="0" style="fill:url(#bif);stroke:#ababab"/><use href="#afl" style="fill:#5c5c5c" transform="matrix(.22 0 0 .22 1780.3 991)"/><rect width="22" height="70" x="1776.5" y="490" rx="0" style="fill:url(#bif);fill-opacity:.8;stroke:#ababab;stroke-opacity:.6"/></g><g style="clip-path:inset(0 0 1px 1px)"><rect width="1308" height="23" x="469" y="1008" style="fill:#e6e6e6;stroke:#bcbcbc;stroke-width:2px"/><rect width="22" height="22" x="469.5" y="1008.5" rx="0" style="fill:url(#bhf);stroke:#ababab"/><use href="#afl" style="fill:#5c5c5c" transform="matrix(0 .22 -.22 0 486.5 1012.3)"/><rect width="22" height="22" x="1754.5" y="1008.5" rx="0" style="fill:url(#bhf);stroke:#ababab"/><use href="#afl" style="fill:#5c5c5c" transform="matrix(0 .22 .22 0 1759.5 1012.3)"/><rect width="900" height="22" x="492" y="1008.5" rx="0" style="fill:url(#bhf);fill-opacity:.8;stroke:#ababab;stroke-opacity:.6"/></g><rect width="24" height="24" x="1776" y="1008" style="fill:#e6e6e6;stroke:#bcbcbc;stroke-width:2px;clip-path:inset(0 1px 1px 0)"/><rect width="1330" height="65" x="469" y="1031" style="fill:#fff"/><rect width="1329" height="65" x="467" y="1030" style="fill:none;stroke:#e9eaea;stroke-width:2px;clip-path:inset(0 2px 2px)"/><use href="#aad" style="fill:#545454" transform="matrix(.26 0 0 .26 488 1053.5)"/><text x="483" y="1037.5" dx="28" dy="33" style="font-weight:700;font-size:20.5px;fill:#000">Add Channel</text><use href="#aad" style="fill:#545454" transform="matrix(.26 0 0 .26 667 1053.5)"/><text x="663" y="1037.5" dx="28" dy="33" style="font-weight:700;font-size:20.5px;fill:#000">Add Marker</text><g style="opacity:.25"><use href="#aad" style="fill:#545454" transform="matrix(.26 0 0 .26 831 1053.5)"/><text x="826" y="1037.5" dx="28" dy="33" style="font-weight:700;font-size:20.5px;fill:#000">New Service</text></g><rect width="135" height="34" x="1008" y="1046" rx="3" style="fill:url(#bhf);stroke:#ababab;stroke-width:1px;filter:none"/><text x="1008" y="1047.5" dx="22" dy="22" style="font-size:20px;fill:#000">Reference</text><g style="opacity:.25"><rect width="147" height="34" x="1171" y="1046" rx="3" style="fill:url(#bhf);stroke:#ababab;stroke-width:1px;filter:none"/><text x="1171" y="1047.5" dx="25" dy="22" style="font-size:20px;fill:#000">Drag&amp;Drop</text></g><rect width="100" height="34" x="1685" y="1046" rx="3" style="fill:url(#bhf);stroke:#ababab;stroke-width:1px;filter:none"/><use x="15" href="#sdh" style="fill:#545454" transform="matrix(.38 0 0 .38 1687 1050)"/><text x="1675" y="1048.5" dx="46" dy="22" style="font-size:20px;fill:#000">Find<tspan style="font-size:15px">…</tspan></text><rect width="1720" height="810" x="80" y="286" style="fill:none;stroke:#d5d6d6;stroke-width:1.5px;clip-path:inset(0 2px)"/><rect width="1718" height="1140" x="81" y="81" style="fill:#000;opacity:.1"/></g><g style="font-family:'Sans-Serif',system-ui,sans-serif" transform="matrix(1.41 0 0 1.41 315 182)"><rect width="1061" height="650" x="1" y="1" rx="0" style="fill:#efefef;stroke:#acc6c3;stroke-width:1px;filter:url(#mjf)"/><rect width="1063" height="48" y="1" rx="0" style="fill:#fafafa;stroke:#e8e8e8;stroke-width:2px;clip-path:inset(1px 1px 0)"/><rect width="1063" height="1" y="47" style="fill:none;stroke:#cbcdcc;stroke-width:2px;clip-path:inset(0 1px)"/><text x="-1" y="3.5" dx="529" dy="28" style="font-family:'Sans-Serif',system-ui,sans-serif;font-weight:700;font-size:19px;fill:#5a5a5a" text-anchor="middle">Add Channel</text><g transform="rotate(45 502.162 1262.895)"><rect width="15" height="1" y="7" style="fill:none;stroke:#333;stroke-width:1px"/><rect width="1" height="15" x="7" style="fill:none;stroke:#333;stroke-width:1px"/></g><rect width="138" height="26" x="923" y="49.5" rx="3" style="fill:url(#bhf);stroke:#ababab"/><use href="#afl" style="fill:#676767" transform="matrix(-.22 0 0 -.22 941 69.5)"/><text x="946" y="53.5" dy="15" style="font-weight:400;font-size:16.5px;fill:#000">collapse</text><text x="-2" y="78" dx="22" dy="38" style="font-size:21.5px">Services</text><text x="-2" y="138" dx="22" dy="38" style="font-size:21.5px">Bouquets</text><text x="-2" y="199" dx="22" dy="38" style="font-size:21.5px">Positions</text><rect width="227" height="60" x="1" y="257" style="fill:#308cc6" transform="matrix(1 0 0 .996 0 2.7)"/><text x="-2" y="259" dx="22" dy="38" style="font-size:21.5px;fill:#fff">Providers</text><text x="-2" y="320" dx="22" dy="38" style="font-size:21.5px">Resolution</text><text x="-2" y="381" dx="22" dy="38" style="font-size:21.5px">Encryption</text><text x="-2" y="440" dx="22" dy="38" style="font-size:21.5px">A-Z</text><rect width="263" height="507" x="228" y="77" style="fill:#fff"/><text x="253" y="75" dy="29" style="font-size:19.5px">M.-Three satcom</text><text x="253" y="108" dy="29" style="font-size:19.5px">M7 Group</text><text x="253" y="141" dy="29" style="font-size:19.5px">MB Satellite</text><text x="253" y="175" dy="29" style="font-size:19.5px">MIT-xperts GmbH</text><text x="253" y="208" dy="29" style="font-size:19.5px">MTHREE SATCOM</text><text x="253" y="241" dy="29" style="font-size:19.5px">MX1</text><text x="253" y="275" dy="29" style="font-size:19.5px">Mediaset</text><text x="253" y="308" dy="29" style="font-size:19.5px">NOVA</text><rect width="263" height="34" x="228" y="347" style="fill:#308cc6" transform="matrix(1 0 0 .996 0 -.3)"/><text x="253" y="341" dy="29" style="font-size:19.5px;fill:#fff">NoName</text><text x="253" y="375" dy="29" style="font-size:19.5px">ONT TUNISIA</text><text x="253" y="408" dy="29" style="font-size:19.5px">PolastBox</text><text x="253" y="441" dy="29" style="font-size:19.5px">RAI</text><text x="253" y="475" dy="29" style="font-size:19.5px">RBN Media</text><text x="253" y="508" dy="29" style="font-size:19.5px">Radio Mojdeh</text><text x="253" y="541" dy="29" style="font-size:19.5px">Radio RTR</text><g style="clip-path:inset(1px 1px 0 0)"><rect width="23" height="511" x="472" y="77" style="fill:#e6e6e6;stroke:#bcbcbc;stroke-width:2px"/><rect width="22" height="22" x="472.5" y="75.5" rx="0" style="fill:url(#bif);stroke:#ababab"/><use href="#afl" style="fill:#5c5c5c" transform="matrix(.22 0 0 -.22 475.9 93.5)"/><rect width="22" height="22" x="472" y="563" rx="0" style="fill:url(#bif);stroke:#ababab"/><use href="#afl" style="fill:#5c5c5c" transform="matrix(.22 0 0 .22 475.9 568)"/><rect width="22" height="108" x="472.5" y="320" rx="0" style="fill:url(#bif);fill-opacity:1;stroke:#ababab;stroke-opacity:.6"/></g><rect width=".5" height="28" x="497.5" y="323" style="fill:none;stroke:#000;stroke-opacity:.25;stroke-dasharray:0,2px,0"/><rect width="559" height="26" x="502" y="77" style="fill:url(#bhf);stroke:#c8c8c8;stroke-width:2px;clip-path:inset(1px 1px 0)"/><text x="502" y="79" dy="18" style="font-size:17px;fill:#000"><tspan x="506">Index</tspan> <tspan x="594">Name</tspan> <tspan x="820">Type</tspan> <tspan x="935">Provider</tspan></text><rect width="3" height="26" x="587" y="77" style="fill:#ddd;stroke:#cdcdcd;stroke-width:1px;clip-path:inset(1px 1px 1px 0)"/><rect width="3" height="26" x="813" y="77" style="fill:#ddd;stroke:#cdcdcd;stroke-width:1px;clip-path:inset(1px 1px 1px 0)"/><rect width="3" height="26" x="927" y="77" style="fill:#ddd;stroke:#cdcdcd;stroke-width:1px;clip-path:inset(1px 1px 1px 0)"/><rect width="559" height="481" x="502" y="103" style="fill:#fff"/><rect width="559" height="34" x="502" y="300" style="fill:#308cc6" transform="matrix(1 0 0 .996 0 4)"/><text x="502" y="98" dy="29" style="font-size:20px;opacity:.25"><tspan x="525">9</tspan> <tspan x="594">CH4441</tspan> <tspan x="820">Data</tspan> <tspan x="935">NoName</tspan></text><text x="502" y="131" dy="29" style="font-size:20px;opacity:.25"><tspan x="525">10</tspan> <tspan x="594">CH4442</tspan> <tspan x="820">Data</tspan> <tspan x="935">NoName</tspan></text><text x="502" y="165" dy="29" style="font-size:20px;opacity:.25"><tspan x="525">11</tspan> <tspan x="594">CH4443</tspan> <tspan x="820">Data</tspan> <tspan x="935">NoName</tspan></text><text x="502" y="198" dy="29" style="font-size:20px;opacity:.25"><tspan x="525">12</tspan> <tspan x="594">CH4445</tspan> <tspan x="820">Data</tspan> <tspan x="935">NoName</tspan></text><text x="502" y="231" dy="29" style="font-size:20px;opacity:.25"><tspan x="525">13</tspan> <tspan x="594">CH4447</tspan> <tspan x="820">Data</tspan> <tspan x="935">NoName</tspan></text><text x="502" y="265" dy="29" style="font-size:20px;opacity:.25"><tspan x="525">14</tspan> <tspan x="594">CH4448</tspan> <tspan x="820">Data</tspan> <tspan x="935">NoName</tspan></text><text x="502" y="298" dy="29" style="font-size:20px;fill:#fff"><tspan x="525">28</tspan> <tspan x="594">Nasa TV UHD</tspan> <tspan x="820">TV</tspan> <tspan x="935">NoName</tspan></text><text x="502" y="331" dy="29" style="font-size:20px"><tspan x="525">30</tspan> <tspan x="594">Museum 4K</tspan> <tspan x="820">TV</tspan> <tspan x="935">NoName</tspan></text><text x="502" y="365" dy="29" style="font-size:20px"><tspan x="525">31</tspan> <tspan x="594">MyZen 4K</tspan> <tspan x="820">TV</tspan> <tspan x="935">NoName</tspan></text><text x="502" y="398" dy="29" style="font-size:20px"><tspan x="525">34</tspan> <tspan x="594">CH17020</tspan> <tspan x="820">TV</tspan> <tspan x="935">NoName</tspan></text><text x="502" y="431" dy="29" style="font-size:20px;opacity:.25"><tspan x="525">86</tspan> <tspan x="594">CH15790</tspan> <tspan x="820">Radio</tspan> <tspan x="935">NoName</tspan></text><text x="502" y="465" dy="29" style="font-size:20px;opacity:.25"><tspan x="525">87</tspan> <tspan x="594">CH15797</tspan> <tspan x="820">Data</tspan> <tspan x="935">NoName</tspan></text><text x="502" y="498" dy="29" style="font-size:20px"><tspan x="525">93</tspan> <tspan x="594">Eurasia Worldwide</tspan> <tspan x="820">TV</tspan> <tspan x="935">NoName</tspan></text><text x="502" y="531" dy="29" style="font-size:20px"><tspan x="525">177</tspan> <tspan x="594">Espresso TV</tspan> <tspan x="820">TV</tspan> <tspan x="935">NoName</tspan></text><text x="502" y="565" dy="29" style="font-size:20px;opacity:.25"><tspan x="525">213</tspan> <tspan x="820">Data</tspan> <tspan x="935">NoName</tspan></text><g style="clip-path:inset(1px 1px 0 0)"><rect width="23" height="511" x="1040" y="78.5" style="fill:#e6e6e6;stroke:#bcbcbc;stroke-width:2px"/><rect width="22" height="22" x="1040.5" y="77" rx="0" style="fill:url(#bif);stroke:#ababab"/><use href="#afl" style="fill:#5c5c5c" transform="matrix(.22 0 0 -.22 1044 95)"/><rect width="22" height="22" x="1040.5" y="540.5" rx="0" style="fill:url(#bif);stroke:#ababab"/><use href="#afl" style="fill:#5c5c5c" transform="matrix(.22 0 0 .22 1044 545.5)"/><rect width="22" height="46" x="1040.5" y="99.5" rx="0" style="fill:url(#bif);fill-opacity:1;stroke:#ababab;stroke-opacity:.6"/></g><g style="clip-path:inset(0 0 1px 1px)"><rect width="559" height="23" x="502" y="562" style="fill:#e6e6e6;stroke:#bcbcbc;stroke-width:2px"/><rect width="22" height="22" x="500.5" y="562.5" rx="0" style="fill:url(#bhf);stroke:#ababab"/><use href="#afl" style="fill:#5c5c5c" transform="matrix(0 .22 -.22 0 518 566.5)"/><rect width="22" height="22" x="1018.5" y="562.5" rx="0" style="fill:url(#bhf);stroke:#ababab"/><use href="#afl" style="fill:#5c5c5c" transform="matrix(0 .22 .22 0 1023 566.5)"/><rect width="204" height="22" x="523" y="562.5" rx="0" style="fill:url(#bhf);fill-opacity:1;stroke:#ababab;stroke-opacity:.6"/></g><rect width="23" height="24" x="1040" y="562" style="fill:#e6e6e6;stroke:#bcbcbc;stroke-width:2px;clip-path:inset(0 1px 1px 0)"/><rect width="1061" height="80" x="1" y="570" rx="0" style="fill:#f9f9f9;clip-path:inset(15px 0 0)"/><g transform="matrix(.9 0 0 .9 13 606.5)"><rect width="21" height="21" x="1.5" y="3" rx="0" style="fill:#fff;stroke:#ababab;stroke-opacity:1;stroke-width:1.4px"/><use href="#cgk" style="fill:#000;stroke:#000;stroke-width:5.1px" transform="matrix(.2 0 0 .32 5.8 3.6)"/></g><text x="41" y="606.5" dy="19" style="font-size:19.5px">Filters for service type</text><text x="833" y="592" dx="28" dy="34" style="font-size:23px;fill:#000">Cancel</text><use href="#aad" style="fill:#505050" transform="matrix(.34 0 0 .34 958 606)"/><text x="955" y="592" dx="28" dy="34" style="font-size:23px;fill:#000">Add</text><rect width="1061" height="1.1" x="1" y="584" style="fill:#d7d7d9"/><rect width="1061" height="650" x="1" y="1" rx="0" style="fill:none;stroke:#f9f9f9;stroke-width:1px"/></g></svg>