<svg xmlns="http://www.w3.org/2000/svg" style="pointer-events:none;user-select:none;text-rendering:geometricprecision" viewBox="0 0 3318 1300"><defs><symbol id="aad"><path d="M37.75 37.75h18.127v-11.5H37.75V8.123h-11.5V26.25H8.123v11.5H26.25v18.127h11.5V37.75z"/></symbol><symbol id="cbw"><path d="m60 14.973-3-.522v35.716c-3.141-.28-8.021-.667-11-.667-.95 0-2.094.039-3.312.102-.962.036-2.014.106-3.059.191-2.678.191-5.264.428-6.629.559V14.451S39.61 13 42.963 13c4 0 14.037 1.451 14.037 1.451l3.001.522A5.166 5.166 0 0 1 63 19.66v32.68a5.162 5.162 0 0 1-5.16 5.16H6.16A5.162 5.162 0 0 1 1 52.34V19.66a5.164 5.164 0 0 1 3-4.687l3-.522S17.037 13 21.037 13C24.39 13 31 14.451 31 14.451v35.901a285.977 285.977 0 0 0-6.629-.559 71.578 71.578 0 0 0-3.059-.191A66.645 66.645 0 0 0 18 49.5c-2.979 0-7.859.387-11 .667V14.451l-3 .522v38.765h56V14.973zM28.5 42.5a2 2 0 0 0-2-2h-14a2 2 0 0 0 0 4h14a2 2 0 0 0 2-2zm25 0a2 2 0 0 0-2-2h-14a2 2 0 0 0 0 4h14a2 2 0 0 0 2-2zm-25-7a2 2 0 0 0-2-2h-14a2 2 0 0 0 0 4h14a2 2 0 0 0 2-2zm25 0a2 2 0 0 0-2-2h-14a2 2 0 0 0 0 4h14a2 2 0 0 0 2-2zm-25-7a2 2 0 0 0-2-2h-14a2 2 0 0 0 0 4h14a2 2 0 0 0 2-2zm25 0a2 2 0 0 0-2-2h-14a2 2 0 0 0 0 4h14a2 2 0 0 0 2-2zm-25-7a2 2 0 0 0-2-2h-14a2 2 0 0 0 0 4h14a2 2 0 0 0 2-2zm25 0a2 2 0 0 0-2-2h-14a2 2 0 0 0 0 4h14a2 2 0 0 0 2-2z"/></symbol><symbol id="cce"><path d="m62.328 7.276-5.604-5.604L32 26.396 7.276 1.672 1.672 7.276 26.396 32 1.672 56.724l5.604 5.604L32 37.604l24.724 24.724 5.604-5.604L37.604 32 62.328 7.276z"/></symbol><symbol id="edt"><path d="M13.624 42.251 46.831 8.982c1.948-1.951 5.432-1.635 7.775.704 2.344 2.34 2.666 5.823.719 7.774L22.118 50.729 9.394 54.983l4.23-12.732z"/></symbol><symbol id="ees"><path d="M32.032 50.518C27.242 47.632 24 42.109 24 35.776 24 26.462 31.011 18.9 39.648 18.9c8.636 0 15.647 7.562 15.647 16.876s-7.011 16.875-15.647 16.875c-.924 0-1.828-.086-2.709-.252L36.748 62.9l-4.943-.144.227-12.238zM6.057 26.78l.023 14.969c-.866.414-1.706.922-2.43 1.563-4.358 3.853-4.35 10.108.019 13.972.971.858 2.137 1.495 3.319 1.965l1.369-.931-.011-7.239c-.001-.885.89-1.557 1.892-1.556l2.771.003c.536.001 1.068.166 1.418.476.306.27.483.677.484 1.091l.011 7.016 1.416.908c.975-.446 1.946-.994 2.763-1.716 4.357-3.853 4.35-10.108-.019-13.972-.727-.643-1.569-1.153-2.438-1.57l-.023-14.969c.866-.414 1.706-.923 2.43-1.563 4.358-3.853 4.35-10.108-.019-13.972-.895-.791-1.965-1.383-3.043-1.844l-1.393.921.01 6.793c.002.875-.84 1.502-1.829 1.501l-2.897-.003c-.992-.002-1.837-.634-1.839-1.511l-.01-6.794L6.639 9.4c-1.078.459-2.146 1.048-3.039 1.838-4.357 3.853-4.35 10.108.019 13.972.727.642 1.569 1.153 2.438 1.57zm44.214 25.031-.523-.46-5.453 3.436.662 1.988 5.986-1.196c1.277 1.246 2.819 1.484 3.871.785l7.388-4.581c.786-.485 1.326-1.441 1.398-2.711.046-.806-.219-1.238-.491-1.487a1.291 1.291 0 0 0-.917-.337c-.336.004-.81.167-1.33.351-.245.086-.508.175-.77.205-.142.017-.286.022-.415-.049-1.014-.553-2.017-.529-2.787-.049l-6.619 4.105z"/></symbol><symbol id="fft"><path d="M56.256 31.057H13.818C6.744 31.057 1 36.801 1 43.875v61.295c0 7.074 5.744 12.818 12.818 12.818h54.476c7.075 0 12.818-5.744 12.818-12.818V54.119C64.496 68.159 64.463 84.4 64.087 91.084a6.817 6.817 0 0 1-11.642 4.425c-14.421-14.502-16.181-43.133 3.811-64.452zm1.037 59.637C42.669 75.989 44.254 44.706 72.527 26.35L62.162 13.988 105 15.072l-7.263 41.344-11.808-14.082c-28.127 16.992-28.15 39.728-28.636 48.36z"/></symbol><symbol id="fgt"><path d="M87.8 55.714h8.488C102.2 55.714 107 60.467 107 66.32v45.074c0 5.854-4.8 10.606-10.712 10.606H11.712C5.8 122 1 117.248 1 111.394V66.32c0-5.853 4.8-10.606 10.712-10.606H31.5L54 77.541c1.413 1.374 4.32 2.133 6.3 2.109 1.98-.023 4.821-.828 6.2-2.236l21.3-21.7zm6.182-49.329C76.101 3.303 44.4 18.916 49.061 45.91H33.544l27.127 26.376L86.518 45.91h-14.41C67.275 21.748 87.952 10.789 93.982 6.385z"/></symbol><symbol id="fho"><path d="M32 62.5C15.167 62.5 1.5 48.833 1.5 32S15.167 1.5 32 1.5v9.611A5.366 5.366 0 0 0 30.91 11c-2.99 0-5.42 2.43-5.42 5.41A5.424 5.424 0 0 0 32 21.719v5.111l-7.44.18 2.82 1.23v22.7L24.56 53H32v9.5zm0-51.389V1.5c16.833 0 30.5 13.667 30.5 30.5S48.833 62.5 32 62.5V53h9.46l-5.76-2.06v-24.2l-3.7.09v-5.111a5.427 5.427 0 0 0 4.32-5.309c0-2.607-1.86-4.793-4.32-5.299z"/></symbol><symbol id="fin"><path d="M21 42.973h89.077c2.783 0 4.643 2.26 4.153 5.042l-9.34 52.943c-.491 2.783-3.149 5.042-5.932 5.042H7.84A3.842 3.842 0 0 1 4 102.16V22h67.2L88 36H16v32h5V42.973z"/></symbol><symbol id="fje"><path d="M114 22v86.16a3.842 3.842 0 0 1-3.84 3.84H17.84a3.842 3.842 0 0 1-3.84-3.84V19.84A3.842 3.842 0 0 1 17.84 16H109l5 6zM94 59.014v-40H38v40h56zM84.5 26v30h-15V26h15z"/></symbol><symbol id="pkw"><path d="M14.762 29.23h34.49S63.18 43.708 60.715 44.826c-1.067.483-6.127-1.117-11.524-3.087V62H14.802V41.747C9.413 43.714 4.365 45.309 3.3 44.826.835 43.708 14.762 29.23 14.762 29.23zm22.012-17.871H16.299v13.19h6.364V13.997h14.111v-2.638zm1.764 5.276H24.427v7.914h14.111v-7.914zm6.761-6.235v14.149h-4.283v-9.233h-2.478V10.4h6.761zm-8.667-6.918H18.459v5.276h18.173V3.482z"/></symbol><symbol id="slh"><path d="M40.023 45.152c-3.477 2.591-7.729 4.192-12.407 4.221-10.406.066-20.276-8.26-21.806-18.699C4.079 18.86 13.39 6.51 25.93 5.634a23.135 23.135 0 0 1 1.686-.053c10 .095 19.38 7.75 21.337 17.619 1.156 5.829-.437 11.92-3.87 16.758l13.82 13.819-5.128 5.128-13.752-13.753zM27.395 14.645c-6.236.06-12 5.17-12.677 11.431-.588 5.436 2.691 11.076 7.773 13.229 6.62 2.806 15.346-1.167 17.352-8.391 2.055-7.404-3.759-16.031-12.032-16.265a19.293 19.293 0 0 0-.416-.004z"/></symbol><symbol id="sms"><path d="M73.934 15.359a50.006 50.006 0 0 0-19.668 0 128.34 128.34 0 0 1 1.871 12.477 37.41 37.41 0 0 0-12.249 5.073 128.485 128.485 0 0 1-7.499-10.146 50.018 50.018 0 0 0-13.908 13.908 128.735 128.735 0 0 1 10.146 7.499 37.41 37.41 0 0 0-5.073 12.249 128.34 128.34 0 0 1-12.477-1.871 49.968 49.968 0 0 0 0 19.668 128.34 128.34 0 0 1 12.477-1.871 37.4 37.4 0 0 0 5.073 12.249 128.485 128.485 0 0 1-10.146 7.499 50.018 50.018 0 0 0 13.908 13.908 128.485 128.485 0 0 1 7.499-10.146 37.433 37.433 0 0 0 12.249 5.074 128.366 128.366 0 0 1-1.871 12.476 49.968 49.968 0 0 0 19.668 0 128.366 128.366 0 0 1-1.871-12.476 37.433 37.433 0 0 0 12.249-5.074 128.485 128.485 0 0 1 7.499 10.146 50.018 50.018 0 0 0 13.908-13.908 128.485 128.485 0 0 1-10.146-7.499 37.4 37.4 0 0 0 5.073-12.249 128.34 128.34 0 0 1 12.477 1.871 49.968 49.968 0 0 0 0-19.668 128.34 128.34 0 0 1-12.477 1.871 37.41 37.41 0 0 0-5.073-12.249 128.735 128.735 0 0 1 10.146-7.499 50.018 50.018 0 0 0-13.908-13.908 128.485 128.485 0 0 1-7.499 10.146 37.41 37.41 0 0 0-12.249-5.073 128.34 128.34 0 0 1 1.871-12.477zM64.1 50.882c7.451 0 13.5 6.049 13.5 13.5s-6.049 13.5-13.5 13.5-13.5-6.049-13.5-13.5 6.049-13.5 13.5-13.5z"/></symbol><symbol id="tnw"><path d="M64 64V45H0v19h64zm-25.025-5.747.001 1.834a1.948 1.948 0 1 1-3.897 0l-.002-6.41-1.968 1.774a2.105 2.105 0 0 1-1.48.524 2.105 2.105 0 0 1-1.48-.524l-1.968-1.774-.003 6.41a1.95 1.95 0 0 1-3.897 0l.002-5.24h-6.669l4.099 3.89c.751.713.751 1.869.002 2.581-.75.711-1.968.71-2.719-.002l-4.104-3.895-4.104 3.895a1.999 1.999 0 0 1-2.719.002 1.76 1.76 0 0 1 .002-2.581l4.104-3.895-4.104-3.895c-.751-.712-.752-1.868-.002-2.58s1.968-.711 2.719.002l4.104 3.895 4.104-3.895a1.998 1.998 0 0 1 2.719-.002 1.76 1.76 0 0 1-.002 2.58l-4.099 3.89h6.669l.002-5.24.002-.072a1.674 1.674 0 0 1 .571-1.356c.276-.249.614-.408.97-.477a1.942 1.942 0 0 1 .578-.036c.454.033.899.206 1.247.52l3.976 3.583 3.975-3.583a2.084 2.084 0 0 1 1.248-.52 1.94 1.94 0 0 1 .578.036c.356.069.694.228.97.477.412.371.602.868.571 1.356l.001.072.003 8.646h2.912l.003-8.83a1.95 1.95 0 0 1 3.897 0l-.004 8.839 6.372.002a1.798 1.798 0 0 1 0 3.597l-8.471-.003a1.8 1.8 0 0 1-1.798-1.799l.001-1.796h-2.912zM25.286 39.498 25 39.5c-10.072 0-18.25-8.402-18.25-18.75S14.928 2 25 2s18.25 8.402 18.25 18.75a19.05 19.05 0 0 1-2.301 9.115L52 25.842v-3.071a1.5 1.5 0 0 1 1.5-1.5h3a1.5 1.5 0 0 1 1.5 1.5v11a1.5 1.5 0 0 1-1.5 1.5h-3a1.5 1.5 0 0 1-1.5-1.5v-1.543l-25.926 9.436-.788-2.166z"/></symbol><symbol id="aol"><path d="m32 45.423 26.667-26.846H5.333L32 45.423z"/></symbol><linearGradient id="bpf" x1="0" x2="0" y1="0" y2="1"><stop offset="0" style="stop-color:#3d3c3b"/><stop offset="1" style="stop-color:#333332"/></linearGradient><linearGradient id="bqf" x1="0" x2="1" y1="0" y2="0"><stop offset="0" style="stop-color:#3d3c3b"/><stop offset="1" style="stop-color:#333332"/></linearGradient><linearGradient id="brf" x1="0" x2="0" y1="0" y2="1"><stop offset="0" style="stop-color:#545452"/><stop offset="1" style="stop-color:#4b4b4a"/></linearGradient><filter id="bsf" color-interpolation-filters="sRGB"><feDropShadow dx="0" dy="0" stdDeviation=".75"/><feDropShadow dx="0" dy="0" stdDeviation=".5"/><feDropShadow dx="0" dy="0" stdDeviation="1"/></filter><filter id="mtf" color-interpolation-filters="sRGB"><feDropShadow dx="-3" dy="12" flood-opacity=".2" stdDeviation="20"/><feDropShadow dx="3" dy="12" flood-opacity=".2" stdDeviation="10"/></filter></defs><path d="M0 0h3318v1300H0z" style="fill:#b4d0cd"/><g style="font-family:'Sans-Serif',system-ui,sans-serif" transform="matrix(1.19 0 0 1.19 102 161)"><rect width="960" height="820" x="1" y="1" rx="0" style="fill:#222020;stroke:#acc6c3;stroke-width:1px;filter:url(#mtf)"/><rect width="960" height="48" x="1" y="1" rx="0" style="fill:#3a3a3a;stroke:#131312;stroke-width:2px;clip-path:inset(1px 1px 0)"/><path d="M1 47h960v1H1z" style="fill:none;stroke:#222020;stroke-width:2px;clip-path:inset(0 1px)"/><text x="-1" y="3.5" dx="478" dy="28" style="font-family:'Sans-Serif',system-ui,sans-serif;font-weight:700;font-size:19px;fill:#aaa" text-anchor="middle">Edit Service</text><path d="M0 7h15v1H0z" style="fill:none;stroke:#fdfdfd;stroke-width:1.3px" transform="rotate(45 451.135 1139.77)"/><path d="M7 0h1v15H7z" style="fill:none;stroke:#fdfdfd;stroke-width:1.3px" transform="rotate(45 451.135 1139.77)"/><rect width="894" height="601" x="33" y="124" rx="0" style="fill:#363635;fill-opacity:1;stroke:#4e4d4d;stroke-opacity:.75;stroke-width:1.8px"/><g style="clip-path:none"><rect width="106" height="48" x="32" y="79.5" rx="3" style="fill:#363635;stroke:#4e4d4d;stroke-opacity:.75;stroke-width:3.8px;clip-path:inset(1.5px 1.5px 4.2px)"/><text x="38.5" y="87.5" dx="46" dy="22" style="font-size:19.5px;letter-spacing:normal;fill:#fff" text-anchor="middle">Service</text></g><g style="clip-path:none"><rect width="151" height="42" x="136" y="83.5" rx="3" style="fill:#303029;stroke:#4e4d4d;stroke-opacity:.75;stroke-width:3.8px;clip-path:inset(1.5px 1.5px 4.2px 4.2px)"/><text x="131.5" y="89.5" dx="80" dy="22" style="font-size:19.5px;letter-spacing:normal;fill:#fff;fill-opacity:.9" text-anchor="middle">Transponder</text></g><g style="clip-path:none"><rect width="121" height="42" x="285" y="83.5" rx="3" style="fill:#303029;stroke:#4e4d4d;stroke-opacity:.75;stroke-width:3.8px;clip-path:inset(1.5px 1.5px 4.2px 4.2px)"/><text x="278.5" y="89.5" dx="67" dy="22" style="font-size:19.5px;letter-spacing:normal;fill:#fff;fill-opacity:.9" text-anchor="middle">Favourite</text></g><rect width="442" height="304" x="52" y="174" rx="2.5" style="fill:#222020;fill-opacity:.1;stroke:#4e4d4d;stroke-opacity:.5;stroke-width:1.2px"/><text x="43" y="145" dx="10" dy="17" style="font-size:20px;letter-spacing:normal;fill:#fff">Service</text><text x="70" y="190" dy="22" style="font-size:20px;fill:#fff">Service name</text><rect width="406" height="40" x="70" y="228" rx="3" style="fill:#131312;stroke:#4e4d4d;stroke-opacity:1;stroke-width:1.1px;clip-path:none"/><text x="70.5" y="232.5" dx="4" dy="23" style="font-size:20px;fill:#fff">NASA TV HD</text><text x="70" y="286" dy="22" style="font-size:20px;fill:#fff">Service type</text><rect width="151" height="38" x="70" y="325" rx="3" style="fill:url(#bpf);stroke:url(#brf);stroke-width:1.1px;filter:url(#bsf)"/><text x="65" y="329" dx="12" dy="22" style="font-size:20px;word-spacing:8px;fill:#fff">1 TV</text><rect width="24" height="24" x="198.5" y="334" rx="8" style="fill:none;stroke:none;stroke-opacity:.06;stroke-width:2px"/><use href="#aol" style="fill:#b5b5b4" transform="matrix(.23 0 0 .23 198 338)"/><rect width="240" height="38" x="232.5" y="325.5" rx="3" style="fill:url(#bpf);stroke:#315162;stroke-width:2.2px;filter:url(#bsf)"/><rect width="249" height="47" x="228" y="321" rx="8" style="fill:#308cc6;fill-opacity:.1"/><text x="299" y="331" dx="20" dy="20" style="font-size:19.5px;word-spacing:8px;fill:#fff">custom</text><text x="70" y="382" dy="22" style="font-size:20px;fill:#fff">Service ID</text><rect width="90" height="40" x="70" y="420" rx="3" style="fill:#131312;stroke:#4e4d4d;stroke-opacity:1;stroke-width:1.1px;clip-path:none"/><text x="70" y="424.5" dx="4" dy="23" style="font-size:19.5px;fill:#fff">504</text><text x="170" y="423" dy="23" style="font-size:20px;fill:#fff">[SID]</text><rect width="442" height="186" x="52" y="523" rx="2.5" style="fill:#222020;fill-opacity:.1;stroke:#4e4d4d;stroke-opacity:.5;stroke-width:1.2px"/><text x="43" y="494" dx="10" dy="17" style="font-size:20px;letter-spacing:normal;fill:#fff">Tuner</text><text x="70" y="544" dy="22" style="font-size:20px;fill:#fff">Satellite</text><rect width="274" height="38" x="202" y="540" rx="3" style="fill:#131312;stroke:url(#brf);stroke-width:1.1px;filter:url(#bsf)"/><rect width="247" height="39" x="200.5" y="539.5" rx="3" style="clip-path:inset(0 3px 0 0);opacity:.2"/><text x="195" y="544" dx="12" dy="22" style="font-size:20px;fill:#fff">Hot Bird</text><rect width="31" height="39" x="445" y="539.5" rx="2.2" style="fill:url(#bpf);stroke:url(#brf);stroke-width:2.2px;clip-path:inset(1.3px 1.1px 1.3px 0)"/><rect width="24" height="24" x="454.2" y="548" rx="8" style="fill:none;stroke:none;stroke-opacity:.06;stroke-width:2px"/><use href="#aol" style="fill:#b5b5b4" transform="matrix(.23 0 0 .23 453.7 552)"/><text x="70" y="602" dy="22" style="font-size:20px;fill:#fff">Transponder</text><rect width="274" height="38" x="202" y="597" rx="3" style="fill:#131312;stroke:url(#brf);stroke-width:1.1px;filter:url(#bsf)"/><rect width="247" height="39" x="200.5" y="596.5" rx="3" style="clip-path:inset(0 3px 0 0);opacity:.2"/><text x="195" y="601" dx="12" dy="22" style="font-size:20px;fill:#fff">11373/H/27500</text><rect width="31" height="39" x="445" y="596.5" rx="2.2" style="fill:url(#bpf);stroke:url(#brf);stroke-width:2.2px;clip-path:inset(1.3px 1.1px 1.3px 0)"/><rect width="24" height="24" x="454.2" y="605" rx="8" style="fill:none;stroke:none;stroke-opacity:.06;stroke-width:2px"/><use href="#aol" style="fill:#b5b5b4" transform="matrix(.23 0 0 .23 453.7 609)"/><rect width="274" height="38" x="202" y="654" rx="3" style="fill:url(#bpf);stroke:url(#brf);stroke-width:1.1px;filter:url(#bsf)"/><text x="244" y="659" dx="20" dy="21" style="font-size:19.5px;fill:#fff">New Transponder</text><rect width="403" height="535" x="507" y="174" rx="2.5" style="fill:#222020;fill-opacity:.1;stroke:#4e4d4d;stroke-opacity:.5;stroke-width:1.2px"/><text x="497" y="145" dx="10" dy="17" style="font-size:20px;letter-spacing:normal;fill:#fff">Parameters</text><path d="M522 195h314v5H522z" style="fill:#222020;stroke:#5e5e5e;stroke-width:3px;clip-path:inset(3px 3px 1px)"/><path d="M861 225h32v5h-32z" style="fill:#222020;stroke:#5e5e5e;stroke-width:3px;clip-path:inset(3px 3px 1px 2px)"/><path d="M222-222h46v5h-46z" style="fill:#222020;stroke:#5e5e5e;stroke-width:3px;clip-path:inset(3px 3px 1px)" transform="rotate(45 25.249 726.453)"/><text x="522" y="196" dx="8" dy="26" style="font-size:19.5px;fill:#fff">Package</text><path d="M522 237h314v5H522z" style="fill:#222020;stroke:#5e5e5e;stroke-width:3px;clip-path:inset(3px 3px 1px)"/><path d="M861 267h32v5h-32z" style="fill:#222020;stroke:#5e5e5e;stroke-width:3px;clip-path:inset(3px 3px 1px 2px)"/><path d="M222-222h46v5h-46z" style="fill:#222020;stroke:#5e5e5e;stroke-width:3px;clip-path:inset(3px 3px 1px)" transform="rotate(45 -25.45 747.464)"/><text x="522" y="238" dx="8" dy="26" style="font-size:19.5px;fill:#fff">PIDs</text><g style="clip-path:inset(0 0 22px)"><path d="M524 281h367v237H524z" style="fill:#2a2a29;fill-opacity:1"/><text x="537" y="303" dy="22" style="font-size:19.5px;fill:#fff">video</text><rect width="73" height="40" x="671" y="297" rx="3" style="fill:#131312;stroke:#4e4d4d;stroke-opacity:1;stroke-width:1.1px;clip-path:none"/><text x="671.5" y="301.5" dx="4" dy="23" style="font-size:19px;fill:#fff">5041</text><text x="754" y="301" dy="23" style="font-size:19px;fill:#fff">[VPID]</text><text x="537" y="354" dy="22" style="font-size:19.5px;fill:#fff">mpeg-audio</text><rect width="73" height="40" x="671" y="348" rx="3" style="fill:#131312;stroke:#4e4d4d;stroke-opacity:1;stroke-width:1.1px;clip-path:none"/><text x="671.5" y="352.5" dx="4" dy="23" style="font-size:19px;fill:#fff">8191</text><text x="754" y="352" dy="23" style="font-size:19px;fill:#fff">[APID]</text><text x="537" y="404" dy="22" style="font-size:19.5px;fill:#fff">tp</text><rect width="73" height="40" x="671" y="398" rx="3" style="fill:#131312;stroke:#4e4d4d;stroke-opacity:1;stroke-width:1.1px;clip-path:none"/><text x="754" y="402" dy="23" style="font-size:19px;fill:#fff">[TXTPID]</text><text x="537" y="454" dy="22" style="font-size:19.5px;fill:#fff">pcr</text><rect width="73" height="40" x="671" y="448" rx="3" style="fill:#131312;stroke:#4e4d4d;stroke-opacity:1;stroke-width:1.1px;clip-path:none"/><text x="671.5" y="452.5" dx="4" dy="23" style="font-size:19px;fill:#fff">5041</text><text x="754" y="452" dy="23" style="font-size:19px;fill:#fff">[PCRPID]</text><text x="537" y="505" dy="22" style="font-size:19.5px;fill:#fff">ac3</text><rect width="73" height="40" x="671" y="499" rx="3" style="fill:#131312;stroke:#4e4d4d;stroke-opacity:1;stroke-width:1.1px;clip-path:none"/><text x="754" y="503" dy="23" style="font-size:19px;fill:#fff">[AC3PID]</text></g><g style="clip-path:inset(0 0 0-2px);filter:url(#bsf)" transform="matrix(.994 0 0 .994 11 7.5)"><path d="M862 277h23v236h-23z" style="fill:#1d1c1c;stroke:#2e2d2c;stroke-width:2px;clip-path:inset(0 1px 0 0)"/><rect width="22" height="22" x="862.5" y="275.5" rx="0" style="fill:url(#bqf);stroke:#4f4f4e;filter:url(#bsf)"/><use href="#aol" style="fill:#d3d2d2" transform="matrix(.22 0 0 -.22 866.3 294)"/><rect width="22" height="22" x="862.5" y="491" rx="0" style="fill:url(#bqf);stroke:#4f4f4e;filter:url(#bsf)"/><use href="#aol" style="fill:#d3d2d2" transform="matrix(.22 0 0 .22 866.3 495.5)"/><rect width="22" height="58" x="862.5" y="300" rx="0" style="fill:url(#bqf);fill-opacity:1;stroke:#4f4f4e"/></g><path d="M522 527h314v5H522z" style="fill:#222020;stroke:#5e5e5e;stroke-width:3px;clip-path:inset(3px 3px 1px)"/><path d="M861 557h32v5h-32z" style="fill:#222020;stroke:#5e5e5e;stroke-width:3px;clip-path:inset(3px 3px 1px 2px)"/><path d="M222-222h46v5h-46z" style="fill:#222020;stroke:#5e5e5e;stroke-width:3px;clip-path:inset(3px 3px 1px)" transform="rotate(45 -375.51 892.538)"/><text x="522" y="528" dx="8" dy="26" style="font-size:19.5px;fill:#fff">CAIDs</text><path d="M522 569h314v5H522z" style="fill:#222020;stroke:#5e5e5e;stroke-width:3px;clip-path:inset(3px 3px 1px)"/><path d="M861 599h32v5h-32z" style="fill:#222020;stroke:#5e5e5e;stroke-width:3px;clip-path:inset(3px 3px 1px 2px)"/><path d="M222-222h46v5h-46z" style="fill:#222020;stroke:#5e5e5e;stroke-width:3px;clip-path:inset(3px 3px 1px)" transform="rotate(45 -426.21 913.55)"/><text x="522" y="570" dx="8" dy="26" style="font-size:19.5px;fill:#fff">Flags</text><path d="M522 611h314v5H522z" style="fill:#222020;stroke:#5e5e5e;stroke-width:3px;clip-path:inset(3px 3px 1px)"/><path d="M861 641h32v5h-32z" style="fill:#222020;stroke:#5e5e5e;stroke-width:3px;clip-path:inset(3px 3px 1px 2px)"/><path d="M222-222h46v5h-46z" style="fill:#222020;stroke:#5e5e5e;stroke-width:3px;clip-path:inset(3px 3px 1px)" transform="rotate(45 -476.908 934.56)"/><text x="522" y="612" dx="8" dy="26" style="font-size:19.5px;fill:#fff">Custom</text><path d="M522 651h314v5H522z" style="fill:#222020;stroke:#5e5e5e;stroke-width:3px;clip-path:inset(3px 3px 1px)"/><path d="M861 681h32v5h-32z" style="fill:#222020;stroke:#5e5e5e;stroke-width:3px;clip-path:inset(3px 3px 1px 2px)"/><path d="M222-222h46v5h-46z" style="fill:#222020;stroke:#5e5e5e;stroke-width:3px;clip-path:inset(3px 3px 1px)" transform="rotate(45 -525.192 954.57)"/><text x="522" y="652" dx="8" dy="26" style="font-size:19.5px;fill:#fff">Extras</text><rect width="960" height="81" x="1" y="739" rx="0" style="fill:#171717;clip-path:inset(15px 0 0)"/><text x="727" y="764" dx="26" dy="34" style="font-size:23.5px;fill:#fff">Cancel</text><use href="#edt" style="fill:#c4c4c4" transform="matrix(.36 0 0 .36 848 778)"/><text x="848" y="764" dx="26" dy="34" style="font-size:23.5px;fill:#fff">Save</text><path d="M1 754h960v1.6H1z" style="fill:#131312"/><rect width="960" height="820" x="1" y="1" rx="0" style="fill:none;stroke:#000;stroke-width:1.8px"/></g><g style="font-family:'Sans-Serif',system-ui,sans-serif"><rect width="1718" height="1140" x="1521" y="81" rx="0" style="fill:#171717;stroke:#acc6c3;stroke-width:1px"/><rect width="1716" height="48" x="1522" y="81" rx="0" style="fill:#3a3a3a;stroke:#131312;stroke-width:2px;clip-path:inset(1px 1px 0)"/><path d="M1521 127h1718v1H1521z" style="fill:none;stroke:#222020;stroke-width:2px;clip-path:inset(0 1px)"/><text x="1519" y="83.5" dx="857" dy="28" style="font-family:'Sans-Serif',system-ui,sans-serif;font-weight:700;font-size:19px;fill:#aaa" text-anchor="middle">e2 SAT Editor</text><path d="M3110 107h10.5v1H3110z" style="fill:none;stroke:#fdfdfd;stroke-width:1.1px"/><path d="M0 0h15v13H0z" style="fill:none;stroke:#fdfdfd;stroke-width:3px;clip-path:inset(0 0 2px)" transform="matrix(.9 0 0 .9 3155 100)"/><path d="M1 4h13v7H1z" style="fill:none;stroke:#fdfdfd;stroke-width:1.7px" transform="matrix(.9 0 0 .9 3155 100)"/><path d="M0 7h15v1H0z" style="fill:none;stroke:#fdfdfd;stroke-width:1.3px" transform="rotate(45 1493.86 3925.458)"/><path d="M7 0h1v15H7z" style="fill:none;stroke:#fdfdfd;stroke-width:1.3px" transform="rotate(45 1493.86 3925.458)"/><path d="M1522 129h1716v36H1522z" style="fill:#222020"/><text x="1523" y="131" dx="12" dy="24" style="font-size:20px;word-spacing:15px;fill:#fff;fill-opacity:.9">File Edit Find Tools Window Help</text><path d="M1521 165.5h1718v1H1521z" style="fill:#e2e2e2;stroke:#1d1c1c"/><path d="M1522 167h1716v67H1522z" style="fill:#222020"/><path d="M1522 167h128v67h-128z" style="fill:#222020"/><rect width="112" height="53" x="1530" y="173" rx="3" style="fill:url(#bpf);stroke:url(#brf);stroke-width:1px;filter:url(#bsf)"/><use href="#aad" style="fill:#c3c3c3" transform="matrix(.26 0 0 .26 1536 191)"/><text x="1530" y="173" dx="27" dy="33" style="font-weight:700;font-size:18px;fill:#fff">New Tab</text><path d="M1650 167h1v67h-1z" style="fill:#333"/><path d="M1651 166h157v69h-157z" style="fill:#2a2a29;stroke:#363636;stroke-width:2px;clip-path:inset(1px 0)"/><text x="1651" y="165.5" dx="15" dy="41" style="font-size:19px;fill:#fff">enigma_db</text><g transform="matrix(.9 0 0 .9 1781 195.5)"><rect width="22" height="22" x="-4.5" y="-4.5" rx="11" style="fill:#aaa;fill-opacity:.44"/><use href="#cce" style="fill:#fff" transform="matrix(.17 0 0 .17 1.2 1.2)"/></g><path d="M1808 166h292v69h-292z" style="fill:#2a2a29;stroke:#363636;stroke-width:2px;clip-path:inset(1px 0)"/><use href="#pkw" style="fill:#fff" transform="matrix(.38 0 0 .38 1820 186)"/><text x="1808" y="165.5" dx="46" dy="41" style="font-size:19px;fill:#fff">enigma_db - Picons <tspan style="font-size:15px">…</tspan></text><g transform="matrix(.9 0 0 .9 2074 195.5)"><rect width="22" height="22" x="-4.5" y="-4.5" rx="11" style="fill:#aaa;fill-opacity:.44"/><use href="#cce" style="fill:#fff" transform="matrix(.17 0 0 .17 1.2 1.2)"/></g><path d="M2100 166h154v69h-154z" style="fill:#2a2a29;stroke:#363636;stroke-width:2px;clip-path:inset(1px 0)"/><text x="2100" y="165.5" dx="15" dy="41" style="font-size:19px;fill:#fff">neutrino</text><g transform="matrix(.9 0 0 .9 2228 195.5)"><rect width="22" height="22" x="-4.5" y="-4.5" rx="11" style="fill:#aaa;fill-opacity:.44"/><use href="#cce" style="fill:#fff" transform="matrix(.17 0 0 .17 1.2 1.2)"/></g><path d="M2254 166h292v69h-292z" style="fill:#12608a;stroke:#12608a;stroke-width:2px;clip-path:inset(1px 0)"/><use href="#tnw" style="fill:#fff" transform="matrix(.38 0 0 .38 2266 186)"/><text x="2254" y="165.5" dx="46" dy="41" style="font-size:19px;fill:#fff">enigma_db - Edit Set<tspan style="font-size:15px">…</tspan></text><g transform="matrix(.9 0 0 .9 2521 195.5)"><rect width="22" height="22" x="-4.5" y="-4.5" rx="11" style="fill:#aaa;fill-opacity:.44"/><use href="#cce" style="fill:#fff" transform="matrix(.17 0 0 .17 1.2 1.2)"/></g><path d="M2546 166h293v69h-293z" style="fill:#2a2a29;stroke:#363636;stroke-width:2px;clip-path:inset(1px 0)"/><use href="#cbw" style="fill:#fff" transform="matrix(.38 0 0 .38 2559 186)"/><text x="2546" y="165.5" dx="46" dy="41" style="font-size:19px;fill:#fff">enigma_db - Channe<tspan style="font-size:15px">…</tspan></text><g transform="matrix(.9 0 0 .9 2813 195.5)"><rect width="22" height="22" x="-4.5" y="-4.5" rx="11" style="fill:#aaa;fill-opacity:.44"/><use href="#cce" style="fill:#fff" transform="matrix(.17 0 0 .17 1.2 1.2)"/></g><path d="M2838 167h2v67h-2z" style="fill:#333"/><path d="M1522 234h1716v95H1522z" style="fill:#171717"/><use href="#fin" style="fill:#c4c4c4" transform="matrix(.38 0 0 .38 1546 257)"/><text x="1528.5" y="232" dx="69" dy="59" style="font-size:25.5px;fill:#fff">Open</text><use href="#fje" style="fill:#c4c4c4" transform="matrix(.38 0 0 .38 1691 257)"/><text x="1674.5" y="232" dx="69" dy="59" style="font-size:25.5px;fill:#fff">Save</text><path d="M1828 262h4v44h-4z" style="fill:#252323;stroke:#1d1c1c;stroke-width:2px;clip-path:inset(2px 2px 2px .5px)"/><use href="#fgt" style="fill:#c4c4c4" transform="matrix(.38 0 0 .38 1840 257)"/><text x="1822.5" y="232" dx="69" dy="59" style="font-size:25.5px;fill:#fff">Import</text><use href="#fft" style="fill:#c4c4c4" transform="matrix(.38 0 0 .38 2000 257)"/><text x="1980.5" y="232" dx="69" dy="59" style="font-size:25.5px;fill:#fff">Export</text><path d="M2154 262h4v44h-4z" style="fill:#252323;stroke:#1d1c1c;stroke-width:2px;clip-path:inset(2px 2px 2px .5px)"/><use href="#sms" style="fill:#c4c4c4" transform="matrix(.38 0 0 .38 2165 257)"/><text x="2148.5" y="232" dx="69" dy="59" style="font-size:25.5px;fill:#fff">Settings</text><rect width="100" height="34" x="2574" y="264" rx="3" style="fill:url(#bpf);stroke:url(#brf);stroke-width:1px;filter:url(#bsf)"/><rect width="24" height="24" x="2666.5" y="269" rx="8" style="fill:none;stroke:none;stroke-opacity:.06;stroke-width:2px"/><use href="#aol" style="fill:#b5b5b4" transform="matrix(.23 0 0 .23 2654 273)"/><text x="2569" y="266" dx="12" dy="22" style="font-size:20px;fill:#fff">Default</text><text x="2682.5" y="232" dx="15" dy="59" style="font-size:25.5px;fill:#fff">Connect</text><text x="2807.5" y="232" dx="15" dy="59" style="font-size:25.5px;fill:#fff">Disconnect</text><path d="M2967 262h4v44h-4z" style="fill:#252323;stroke:#1d1c1c;stroke-width:2px;clip-path:inset(2px 2px 2px .5px)"/><text x="2967.5" y="232" dx="15" dy="59" style="font-size:25.5px;fill:#fff">Upload</text><text x="3078.5" y="232" dx="15" dy="59" style="font-size:25.5px;fill:#fff">Download</text><path d="M1520 234h1720v95H1520z" style="fill:none;stroke:#fff;stroke-opacity:.09;stroke-width:2px;clip-path:inset(0 2px)"/><path d="M1522 328h1716v820H1522z" style="fill:#222020"/><path d="M1522 328h380v820h-380z" style="fill:#222020"/><text x="1522" y="328" dx="10" dy="33" style="font-weight:700;font-size:19px;fill:#fff">Satellites</text><rect width="38" height="32" x="1860" y="335" rx="3" style="fill:url(#bpf);stroke:url(#brf);filter:url(#bsf)"/><use href="#ees" style="fill:#c4c4c4" transform="matrix(.38 0 0 .38 1868 338)"/><path d="M1522 377h380v26h-380z" style="fill:url(#bpf);stroke:#4e4d4d;stroke-width:2px;clip-path:inset(1px 1px 0)"/><text x="1522" y="379" dy="18" style="font-size:17px;fill:#fff"><tspan x="1526">Name</tspan> <tspan x="1823">Position</tspan></text><path d="M1817 377h3v26h-3z" style="fill:#4e4d4d;stroke:#171717;stroke-width:1px;clip-path:inset(1px 0 1px 1px)"/><path d="M1522 403h380v687h-380z" style="fill:#131312"/><path d="M82 448h380v44H82z" style="fill:#12608a" transform="matrix(1 0 0 .996 1440 40.4)"/><text x="1522" y="404" dy="29" style="font-size:20px;fill:#fff"><tspan x="1533">Hispasat 30W-4-5</tspan> <tspan x="1825">30.0W</tspan></text><text x="1522" y="445" dy="29" style="font-size:20px;fill:#fff"><tspan x="1533">Eutelsat / Nilesat</tspan> <tspan x="1825">7.0W</tspan></text><text x="1522" y="486" dy="29" style="font-size:20px;fill:#fff"><tspan x="1533">Hot Bird</tspan> <tspan x="1825">13.0E</tspan></text><text x="1522" y="529" dy="29" style="font-size:20px;fill:#fff"><tspan x="1533">Badr 7</tspan> <tspan x="1825">24.0E</tspan></text><text x="1522" y="571" dy="29" style="font-size:20px;fill:#fff"><tspan x="1533">Badr 4/5/6/7</tspan> <tspan x="1825">26.0E</tspan></text><path d="M1522 1084h380v65h-380z" style="fill:#3d3d3d"/><path d="M1520 1083h384v65h-384z" style="fill:none;stroke:#4e4d4d;stroke-width:2px;clip-path:inset(0 2px 2px)"/><use href="#aad" style="fill:#c4c4c4" transform="matrix(.25 0 0 .25 1541 1106.5)"/><text x="1535" y="1090.5" dx="28" dy="33" style="font-weight:700;font-size:20.5px;fill:#fff">Position</text><rect width="100" height="34" x="1787" y="1099" rx="3" style="fill:url(#bpf);stroke:url(#brf);stroke-width:1px;filter:url(#bsf)"/><use x="15" href="#slh" style="fill:#c4c4c4" transform="matrix(.38 0 0 .38 1792 1103)"/><text x="1772" y="1101" dx="54" dy="22" style="font-size:20px;fill:#fff">Find<tspan style="font-size:15px">…</tspan></text><path d="M1905.5 706h.5v28h-.5z" style="fill:none;stroke:#fff;stroke-opacity:.25;stroke-dasharray:0,2px,0"/><text x="1909" y="328" dx="10" dy="32" style="font-weight:700;font-size:19px;fill:#fff">Transponders</text><path d="M1909 377h1325v26H1909z" style="fill:url(#bpf);stroke:#4e4d4d;stroke-width:2px;clip-path:inset(1px 1px 0)"/><text x="1909" y="379" dy="18" style="font-size:17px;fill:#fff"><tspan x="1914">Freq/Pol/SR</tspan> <tspan x="2150">Frequency</tspan> <tspan x="2269">Polarization</tspan> <tspan x="2388">Symbol Rate</tspan> <tspan x="2508">System</tspan> <tspan x="2609">FEC</tspan> <tspan x="2708">Modulation</tspan> <tspan x="2819">Inversion</tspan> <tspan x="2913">Roll offset</tspan> <tspan x="3014">Pilot</tspan></text><path d="M2143 377h3v26h-3z" style="fill:#4e4d4d;stroke:#171717;stroke-width:1px;clip-path:inset(1px 0 1px 1px)"/><path d="M2262 377h3v26h-3z" style="fill:#4e4d4d;stroke:#171717;stroke-width:1px;clip-path:inset(1px 0 1px 1px)"/><path d="M2380 377h3v26h-3z" style="fill:#4e4d4d;stroke:#171717;stroke-width:1px;clip-path:inset(1px 0 1px 1px)"/><path d="M2501 377h3v26h-3z" style="fill:#4e4d4d;stroke:#171717;stroke-width:1px;clip-path:inset(1px 0 1px 1px)"/><path d="M2602 377h3v26h-3z" style="fill:#4e4d4d;stroke:#171717;stroke-width:1px;clip-path:inset(1px 0 1px 1px)"/><path d="M2701 377h3v26h-3z" style="fill:#4e4d4d;stroke:#171717;stroke-width:1px;clip-path:inset(1px 0 1px 1px)"/><path d="M2812 377h3v26h-3z" style="fill:#4e4d4d;stroke:#171717;stroke-width:1px;clip-path:inset(1px 0 1px 1px)"/><path d="M2906 377h3v26h-3z" style="fill:#4e4d4d;stroke:#171717;stroke-width:1px;clip-path:inset(1px 0 1px 1px)"/><path d="M3007 377h3v26h-3z" style="fill:#4e4d4d;stroke:#171717;stroke-width:1px;clip-path:inset(1px 0 1px 1px)"/><path d="M1909 403h1325v687H1909z" style="fill:#131312"/><path d="M473 576h1325v44H473z" style="fill:#12608a" transform="matrix(1 0 0 .996 1436 39.1)"/><text x="1909" y="404" dy="29" style="font-size:20px;fill:#fff"><tspan x="1916">10719/V/27500</tspan> <tspan x="2151">10719</tspan> <tspan x="2270">V</tspan> <tspan x="2389">27500</tspan> <tspan x="2507">DVB-S2</tspan> <tspan x="2610">3/4</tspan> <tspan x="2708">8PSK</tspan></text><text x="1909" y="445" dy="29" style="font-size:20px;fill:#fff"><tspan x="1916">10728/H/30000</tspan> <tspan x="2151">10728</tspan> <tspan x="2270">H</tspan> <tspan x="2389">30000</tspan> <tspan x="2507">DVB-S2</tspan> <tspan x="2610">3/4</tspan> <tspan x="2708">8PSK</tspan></text><text x="1909" y="486" dy="29" style="font-size:20px;fill:#fff"><tspan x="1916">10758/V/27500</tspan> <tspan x="2151">10758</tspan> <tspan x="2270">V</tspan> <tspan x="2389">27500</tspan> <tspan x="2507">DVB-S2</tspan> <tspan x="2610">3/4</tspan> <tspan x="2708">8PSK</tspan></text><text x="1909" y="529" dy="29" style="font-size:20px;fill:#fff"><tspan x="1916">10775/H/27500</tspan> <tspan x="2151">10775</tspan> <tspan x="2270">H</tspan> <tspan x="2389">27500</tspan> <tspan x="2507">DVB-S</tspan> <tspan x="2610">Auto</tspan> <tspan x="2708">Auto</tspan></text><text x="1909" y="571" dy="29" style="font-size:20px;fill:#fff"><tspan x="1916">10775/H/29900</tspan> <tspan x="2151">10775</tspan> <tspan x="2270">H</tspan> <tspan x="2389">29900</tspan> <tspan x="2507">DVB-S</tspan> <tspan x="2610">Auto</tspan> <tspan x="2708">Auto</tspan></text><text x="1909" y="614" dy="29" style="font-size:20px;fill:#fff"><tspan x="1916">10796/V/27500</tspan> <tspan x="2151">10796</tspan> <tspan x="2270">V</tspan> <tspan x="2389">27500</tspan> <tspan x="2507">DVB-S2</tspan> <tspan x="2610">3/4</tspan> <tspan x="2708">8PSK</tspan></text><text x="1909" y="656" dy="29" style="font-size:20px;fill:#fff"><tspan x="1916">10815/H/27500</tspan> <tspan x="2151">10815</tspan> <tspan x="2270">H</tspan> <tspan x="2389">27500</tspan> <tspan x="2507">DVB-S</tspan> <tspan x="2610">5/6</tspan> <tspan x="2708">QPSK</tspan></text><text x="1909" y="700" dy="29" style="font-size:20px;fill:#fff"><tspan x="1916">10834/V/27500</tspan> <tspan x="2151">10834</tspan> <tspan x="2270">V</tspan> <tspan x="2389">27500</tspan> <tspan x="2507">DVB-S</tspan> <tspan x="2610">Auto</tspan> <tspan x="2708">Auto</tspan></text><text x="1909" y="743" dy="29" style="font-size:20px;fill:#fff"><tspan x="1916">10853/H/29900</tspan> <tspan x="2151">10853</tspan> <tspan x="2270">H</tspan> <tspan x="2389">29900</tspan> <tspan x="2507">DVB-S</tspan> <tspan x="2610">Auto</tspan> <tspan x="2708">Auto</tspan></text><text x="1909" y="787" dy="29" style="font-size:20px;fill:#fff"><tspan x="1916">10872/V/27500</tspan> <tspan x="2151">10872</tspan> <tspan x="2270">V</tspan> <tspan x="2389">27500</tspan> <tspan x="2507">DVB-S2</tspan> <tspan x="2610">3/4</tspan> <tspan x="2708">8PSK</tspan></text><text x="1909" y="829" dy="29" style="font-size:20px;fill:#fff"><tspan x="1916">10873/V/27500</tspan> <tspan x="2151">10873</tspan> <tspan x="2270">V</tspan> <tspan x="2389">27500</tspan> <tspan x="2507">DVB-S2</tspan> <tspan x="2610">3/4</tspan> <tspan x="2708">8PSK</tspan></text><text x="1909" y="872" dy="29" style="font-size:20px;fill:#fff"><tspan x="1916">10892/H/27500</tspan> <tspan x="2151">10892</tspan> <tspan x="2270">H</tspan> <tspan x="2389">27500</tspan> <tspan x="2507">DVB-S</tspan> <tspan x="2610">Auto</tspan> <tspan x="2708">Auto</tspan></text><text x="1909" y="914" dy="29" style="font-size:20px;fill:#fff"><tspan x="1916">10911/V/27500</tspan> <tspan x="2151">10911</tspan> <tspan x="2270">V</tspan> <tspan x="2389">27500</tspan> <tspan x="2507">DVB-S2</tspan> <tspan x="2610">3/4</tspan> <tspan x="2708">8PSK</tspan></text><text x="1909" y="956" dy="29" style="font-size:20px;fill:#fff"><tspan x="1916">10930/H/30000</tspan> <tspan x="2151">10930</tspan> <tspan x="2270">H</tspan> <tspan x="2389">30000</tspan> <tspan x="2507">DVB-S2</tspan> <tspan x="2610">2/3</tspan> <tspan x="2708">8PSK</tspan></text><text x="1909" y="996" dy="29" style="font-size:20px;fill:#fff"><tspan x="1916">10949/V/27500</tspan> <tspan x="2151">10949</tspan> <tspan x="2270">V</tspan> <tspan x="2389">27500</tspan> <tspan x="2507">DVB-S2</tspan> <tspan x="2610">2/3</tspan> <tspan x="2708">8PSK</tspan></text><g style="clip-path:inset(0 0 0-2px);filter:url(#bsf)" transform="matrix(.997 0 0 .997 1435.5 37.5)"><path d="M1784 341h23v658h-23z" style="fill:#1d1c1c;stroke:#2e2d2c;stroke-width:2px;clip-path:inset(0 1px 0 0)"/><rect width="22" height="22" x="1784.5" y="341.5" rx="0" style="fill:url(#bqf);stroke:#4f4f4e;filter:url(#bsf)"/><use href="#aol" style="fill:#d3d2d2" transform="matrix(.22 0 0 -.22 1788.3 359.5)"/><rect width="22" height="22" x="1784.5" y="976.5" rx="0" style="fill:url(#bqf);stroke:#4f4f4e;filter:url(#bsf)"/><use href="#aol" style="fill:#d3d2d2" transform="matrix(.22 0 0 .22 1788.3 981)"/><rect width="22" height="76" x="1784.5" y="366" rx="0" style="fill:url(#bqf);fill-opacity:.7;stroke:#4f4f4e;stroke-opacity:.8"/></g><path d="M1909 1034h1325v61H1909z" style="fill:#0c0b0b"/><rect width="162.5" height="34" x="1917" y="1040" rx="3" style="fill:url(#bpf);stroke:url(#brf);stroke-width:1px;filter:url(#bsf)"/><text x="1914" y="1042" dx="12" dy="22" style="font-size:20px;fill:#fff">Freq/Pol/SR</text><rect width="24" height="24" x="2066.5" y="1045" rx="8" style="fill:none;stroke:none;stroke-opacity:.06;stroke-width:2px"/><use href="#aol" style="fill:#b5b5b4" transform="matrix(.23 0 0 .23 2060 1049)"/><rect width="308" height="34" x="2087" y="1040" rx="3" style="fill:#131312;stroke:#4e4d4d;stroke-width:1px;clip-path:none"/><text x="2088" y="1041" dx="4" dy="23" style="font-size:19px;fill:#fff">10796/V</text><rect width="82" height="33" x="2407" y="1040" rx="4" style="fill:#2a2a29"/><text x="2407" y="1041" dx="40" dy="23" style="font-size:19.5px;fill:#fff;fill-opacity:.89" text-anchor="middle">Find</text><rect width="166" height="33" x="2498" y="1040" rx="4" style="fill:#2a2a29"/><text x="2498" y="1041" dx="83" dy="23" style="font-size:19.5px;fill:#fff;fill-opacity:.89" text-anchor="middle">Find Previous</text><rect width="110" height="33" x="2673" y="1040" rx="4" style="fill:#2a2a29"/><text x="2673" y="1041" dx="55" dy="23" style="font-size:19.5px;fill:#fff;fill-opacity:.89" text-anchor="middle">Find All</text><rect width="126" height="31" x="2813" y="1041" rx="4" style="fill:#0d4867;stroke:#2a2a29;stroke-width:1px"/><text x="2813" y="1042" dx="62" dy="22" style="font-size:19.5px;fill:#fff;fill-opacity:.9" text-anchor="middle">Highlight</text><use href="#cce" style="fill:#c4c4c4" transform="matrix(.23 0 0 .23 3200 1055)"/><path d="M1909 1084h1330v65H1909z" style="fill:#3d3d3d"/><path d="M1907 1083h1329v65H1907z" style="fill:none;stroke:#4e4d4d;stroke-width:2px;clip-path:inset(0 2px 2px)"/><use href="#aad" style="fill:#c4c4c4" transform="matrix(.26 0 0 .26 1928 1106.5)"/><text x="1923" y="1090.5" dx="28" dy="33" style="font-weight:700;font-size:20.5px;fill:#fff">Transponder</text><rect width="100" height="34" x="3121" y="1099" rx="3" style="fill:url(#bpf);stroke:url(#brf);stroke-width:1px;filter:url(#bsf)"/><use x="15" href="#slh" style="fill:#c4c4c4" transform="matrix(.38 0 0 .38 3123 1103)"/><text x="3111" y="1101.5" dx="46" dy="22" style="font-size:20px;fill:#fff">Find<tspan style="font-size:15px">…</tspan></text><path d="M1520 328h1720v822H1520z" style="fill:none;stroke:#fff;stroke-opacity:.05;stroke-width:1.5px;clip-path:inset(0 2px)"/><rect width="1716" height="51" x="1522" y="1169" rx="0" style="fill:#222020;clip-path:inset(15px 0 0)"/><path d="M1520 1184h1720v37H1520z" style="fill:none;stroke:#1d1c1c;stroke-width:2px;clip-path:inset(0 2px 2px)"/><text x="1516" y="1181" dx="29" dy="29" style="font-size:19.5px;fill:#fff"><tspan>Transponders: 119</tspan> <tspan dx="10">Position: 13.0E</tspan></text><text x="1554" y="1181" dx="1535" dy="29" style="font-size:19.5px;fill:#fff"><tspan>Total: 411</tspan></text><use href="#fho" style="fill:#c4c4c4" transform="matrix(.38 0 0 .38 3191 1191)"/><rect width="1718" height="1140" x="1521" y="81" rx="0" style="fill:none;stroke:#a7bfba;stroke-width:1px"/></g></svg>