<svg xmlns="http://www.w3.org/2000/svg" style="pointer-events:none;user-select:none" viewBox="0 0 3318 1300"><defs><symbol id="aad"><path d="M37.8 37.8h18V26.3h-18V8H26.3v18.1H8v11.6h18.1v18h11.6v-18z"/></symbol><symbol id="cbw"><path d="m60 15-3-.5v35.7a150.1 150.1 0 0 0-14.3-.6l-3 .2-6.7.6v-36S39.6 13 43 13c4 0 14 1.5 14 1.5l3 .5a5 5 0 0 1 3 4.7v32.6c0 2.9-2.3 5.2-5.2 5.2H6.2A5.2 5.2 0 0 1 1 52.3V19.7A5 5 0 0 1 4 15l3-.5S17 13 21 13c3.4 0 10 1.5 10 1.5v35.9a286 286 0 0 0-13-.9c-3 0-7.9.4-11 .7V14.5L4 15v38.7h56V15zM28.5 42.5a2 2 0 0 0-2-2h-14a2 2 0 0 0 0 4h14a2 2 0 0 0 2-2zm25 0a2 2 0 0 0-2-2h-14a2 2 0 0 0 0 4h14a2 2 0 0 0 2-2zm-25-7a2 2 0 0 0-2-2h-14a2 2 0 0 0 0 4h14a2 2 0 0 0 2-2zm25 0a2 2 0 0 0-2-2h-14a2 2 0 0 0 0 4h14a2 2 0 0 0 2-2zm-25-7a2 2 0 0 0-2-2h-14a2 2 0 0 0 0 4h14a2 2 0 0 0 2-2zm25 0a2 2 0 0 0-2-2h-14a2 2 0 0 0 0 4h14a2 2 0 0 0 2-2zm-25-7a2 2 0 0 0-2-2h-14a2 2 0 0 0 0 4h14a2 2 0 0 0 2-2zm25 0a2 2 0 0 0-2-2h-14a2 2 0 0 0 0 4h14a2 2 0 0 0 2-2z"/></symbol><symbol id="cce"><path d="m62.3 7.3-5.6-5.6L32 26.4 7.3 1.7 1.7 7.3 26.4 32 1.7 56.7l5.6 5.6L32 37.6l24.7 24.7 5.6-5.6L37.6 32 62.3 7.3z"/></symbol><symbol id="edt"><path d="M13.6 42.3 46.8 9c2-2 5.5-1.7 7.8.7 2.4 2.3 2.7 5.8.7 7.8L22.1 50.7 9.4 55l4.2-12.7z"/></symbol><symbol id="ees"><path d="M32 50.5a17 17 0 0 1-8-14.7c0-9.3 7-16.9 15.6-16.9 8.7 0 15.7 7.6 15.7 16.9s-7 16.9-15.7 16.9l-2.7-.3-.2 10.5-4.9-.1.2-12.3zM6 26.8v15c-.8.4-1.6.9-2.3 1.5a9 9 0 0 0 0 14c1 .8 2.1 1.5 3.3 2l1.4-1v-7.2c0-1 .8-1.6 1.8-1.6H13c.5 0 1 .2 1.4.5.3.3.5.7.5 1v7.1l1.4 1c1-.5 2-1 2.8-1.8a9 9 0 0 0 0-14c-.7-.6-1.6-1.1-2.5-1.5v-15c.9-.4 1.7-1 2.5-1.6a9 9 0 0 0 0-14c-1-.7-2-1.3-3.1-1.8l-1.4 1V17c0 .9-.8 1.5-1.8 1.5h-3c-1 0-1.8-.6-1.8-1.5v-6.8l-1.4-.9c-1 .5-2.1 1-3 1.8a9 9 0 0 0 0 14c.7.7 1.6 1.2 2.5 1.6zm44.3 25-.6-.4-5.4 3.4.7 2 6-1.2c1.2 1.2 2.8 1.5 3.8.8l7.4-4.6c.8-.5 1.3-1.5 1.4-2.7 0-.8-.2-1.3-.5-1.5-.2-.2-.5-.4-1-.4a5 5 0 0 0-1.2.4l-.8.2h-.4c-1-.6-2-.6-2.8 0l-6.6 4z"/></symbol><symbol id="fft"><path d="M56.3 31H13.8A13 13 0 0 0 1 44v61.3c0 7 5.7 12.8 12.8 12.8h54.5c7 0 12.8-5.8 12.8-12.8v-51c-16.6 14-16.6 30.2-17 36.9a6.8 6.8 0 0 1-11.7 4.4C38 81 36.3 52.4 56.3 31.1zm1 59.7c-14.6-14.7-13-46 15.2-64.3L62.2 14l42.8 1-7.3 41.4-11.8-14C57.8 59.3 57.8 82 57.3 90.6z"/></symbol><symbol id="fgt"><path d="M87.8 55.7h8.5c5.9 0 10.7 4.8 10.7 10.6v45c0 6-4.8 10.7-10.7 10.7H11.7C5.8 122 1 117.2 1 111.4v-45c0-6 4.8-10.7 10.7-10.7h19.8L54 77.5a10 10 0 0 0 6.3 2.1c2 0 4.8-.8 6.2-2.2l21.3-21.7zM94 6.4C76 3.3 44.4 18.9 49 45.9H33.6l27.2 26.4 25.8-26.4H72.1C67.3 21.7 88 10.8 94 6.4z"/></symbol><symbol id="fho"><path d="M32 62.5a30.5 30.5 0 0 1 0-61v9.6l-1-.1a5.4 5.4 0 1 0 1 10.7v5.1l-7.4.2 2.8 1.2V51l-2.8 2H32v9.5zm0-51.4V1.5a30.5 30.5 0 0 1 0 61V53h9.5l-5.8-2V26.6l-3.7.1v-5A5.4 5.4 0 0 0 32 11z"/></symbol><symbol id="fin"><path d="M21 43h89c2.9 0 4.7 2.2 4.2 5l-9.3 53c-.5 2.7-3.2 5-6 5H8a3.8 3.8 0 0 1-3.9-3.8V22h67.2L88 36H16v32h5V43z"/></symbol><symbol id="fje"><path d="M114 22v86.2c0 2-1.7 3.8-3.8 3.8H17.8a3.8 3.8 0 0 1-3.8-3.8V19.8c0-2 1.7-3.8 3.8-3.8H109l5 6zM94 59V19H38v40h56zm-9.5-33v30h-15V26h15z"/></symbol><symbol id="pkw"><path d="M14.8 29.2h34.5s13.9 14.5 11.4 15.6c-1 .5-6.1-1-11.5-3V62H14.8V41.7c-5.4 2-10.4 3.6-11.5 3.1-2.5-1 11.5-15.6 11.5-15.6zm22-17.8H16.3v13.1h6.4V14h14v-2.6zm1.7 5.2h-14v8h14v-8zm6.8-6.2v14.1H41v-9.2h-2.5v-4.9h6.8zm-8.7-7H18.5v5.4h18.1V3.5z"/></symbol><symbol id="slh"><path d="M40 45.2a20.9 20.9 0 0 1-12.4 4.2A22.6 22.6 0 0 1 5.8 30.7 22.5 22.5 0 0 1 27.6 5.6c10 0 19.4 7.7 21.4 17.6A22 22 0 0 1 45 40l14 13.8-5.1 5.1L40 45.2zM27.4 14.6c-6.2.1-12 5.2-12.7 11.5-.6 5.4 2.7 11 7.8 13.2A13.3 13.3 0 0 0 39.8 31a13.2 13.2 0 0 0-12.4-16.3z"/></symbol><symbol id="sms"><path d="M74 15.4a50 50 0 0 0-19.7 0c.8 4 1.4 8.2 1.8 12.4-4.3 1-8.5 2.7-12.2 5.1-2.7-3.2-5.2-6.6-7.5-10.1a50 50 0 0 0-14 13.9c3.6 2.3 7 4.8 10.2 7.5a37.4 37.4 0 0 0-5 12.2c-4.2-.4-8.4-1-12.5-1.9a50 50 0 0 0 0 19.7 171 171 0 0 1 12.5-1.9c.9 4.4 2.6 8.5 5 12.3-3.2 2.7-6.6 5.2-10.1 7.5A50 50 0 0 0 36.4 106c2.3-3.5 4.8-6.9 7.5-10.1 3.7 2.4 7.9 4 12.2 5-.4 4.2-1 8.4-1.8 12.5a50 50 0 0 0 19.6 0c-.8-4.1-1.4-8.3-1.8-12.5 4.3-1 8.5-2.6 12.2-5 2.7 3.2 5.2 6.6 7.5 10.1a50 50 0 0 0 14-14c-3.6-2.2-7-4.7-10.2-7.4 2.4-3.8 4.1-7.9 5-12.3 4.2.5 8.4 1 12.5 2a50 50 0 0 0 0-19.8c-4.1.9-8.3 1.5-12.5 2-.9-4.4-2.6-8.6-5-12.3 3.2-2.7 6.6-5.2 10.1-7.5a50 50 0 0 0-13.9-14c-2.3 3.6-4.8 7-7.5 10.2a37.4 37.4 0 0 0-12.2-5c.4-4.3 1-8.4 1.8-12.5zM64 50.9a13.5 13.5 0 1 1 0 27 13.5 13.5 0 0 1 0-27z"/></symbol><symbol id="tnw"><path d="M64 64V45H0v19h64zm-25-5.7V60a2 2 0 1 1-4 0v-6.4l-1.9 1.8c-.4.3-1 .5-1.5.5s-1-.2-1.5-.5l-2-1.8V60a2 2 0 0 1-3.8 0v-5.3h-6.7l4.1 4c.8.7.8 1.8 0 2.5a2 2 0 0 1-2.7 0l-4.1-3.9-4.1 4a2 2 0 0 1-2.7 0c-.8-.8-.8-2 0-2.7l4-3.9-4-3.9c-.8-.7-.8-1.8 0-2.5s2-.7 2.7 0l4 3.9 4.2-4a2 2 0 0 1 2.7 0c.8.8.8 2 0 2.6l-4 4h6.6v-5.3c0-.6.1-1 .6-1.4a2 2 0 0 1 1.3-.6h.2c.5 0 .9.3 1.3.6l4 3.6 3.9-3.6a2 2 0 0 1 1.8-.5c.4 0 .7.2 1 .5.4.3.6.8.6 1.3v8.7h2.9v-8.8a2 2 0 0 1 3.9 0v8.9h6.4a1.8 1.8 0 0 1 0 3.6h-8.5c-1 0-1.8-.9-1.8-1.9v-1.7h-3zM25.3 39.5H25c-10 0-18.3-8.4-18.3-18.8S15 2 25 2s18.3 8.4 18.3 18.8a19 19 0 0 1-2.4 9l11.1-4v-3c0-.9.7-1.5 1.5-1.5h3c.8 0 1.5.6 1.5 1.5v11c0 .8-.7 1.5-1.5 1.5h-3c-.8 0-1.5-.7-1.5-1.5v-1.6l-26 9.5-.7-2.2z"/></symbol><symbol id="aom"><path d="M32 13.2c-1.7 0-3.3.7-4.6 2L2.9 39.5a6.5 6.5 0 0 0 9.2 9.2L32 29l19.9 19.8a6.5 6.5 0 0 0 9.2-9.2L36.6 15.1a7 7 0 0 0-4.6-1.9z"/></symbol><linearGradient id="bpm" x1="0" x2="0" y1="0" y2="1"><stop offset="0" style="stop-color:#5b6564"/><stop offset=".6" style="stop-color:#626c6c"/></linearGradient><linearGradient id="bqm" x1="0" x2="0" y1="0" y2="1"><stop offset="0" style="stop-color:#fff;stop-opacity:.19"/><stop offset="1" style="stop-color:#000;stop-opacity:.34"/></linearGradient><linearGradient id="brm" x1="0" x2="0" y1="0" y2="1"><stop offset=".4" style="stop-color:#007df4"/><stop offset="1" style="stop-color:#0073e4"/></linearGradient><filter id="bsm" color-interpolation-filters="sRGB"><feDropShadow dx="0" dy="1.5" flood-opacity=".3" stdDeviation="1"/><feDropShadow dx="0" dy="0" flood-opacity=".3" stdDeviation="2.2"/></filter><filter id="mtm" color-interpolation-filters="sRGB"><feDropShadow dx="-2" dy="19" flood-opacity=".1" stdDeviation="8"/><feDropShadow dx="0" dy="10" flood-opacity=".3" stdDeviation="23"/></filter></defs><rect width="3318" height="1300" style="fill:#b4d0cd"/><g style="font-family:&quot;Helvetica Neue&quot;,sans-serif-light,Helvetica,sans-serif" transform="matrix(1.19 0 0 1.19 102 161)"><rect width="960" height="820" x="1" y="1" rx="15" style="fill:#313333;stroke:#191919;stroke-width:1.088px;filter:url(#mtm)"/><rect width="958" height="57" x="2" y="2" rx="15" style="fill:#404242;stroke:#787979;stroke-width:1px;clip-path:inset(0 0 15px)"/><rect width="960" height="1" x="1" y="44" style="fill:none;stroke:#000;stroke-opacity:.89;stroke-width:.5px"/><text x="2" y="2" dx="478" dy="28" style="font-family:&quot;Helvetica Neue&quot;,Helvetica,sans-serif;font-weight:700;font-size:20px;fill:#bcbebe" text-anchor="middle">Edit Service</text><ellipse cx="21" cy="23" rx="8.8" style="fill:#ff5f5a;stroke:none;stroke-opacity:.1"/><ellipse cx="52" cy="23" rx="8.8" style="fill:#636766;stroke:none;stroke-opacity:.1"/><ellipse cx="83" cy="23" rx="8.8" style="fill:#636766;stroke:none;stroke-opacity:.1"/><rect width="895" height="638" x="33" y="82" rx="6" style="fill:#566161;fill-opacity:.1;stroke:#f7f9f9;stroke-opacity:.1;stroke-width:1.4px"/><g style="clip-path:inset(0 8px 0 0)"><rect width="103" height="29" x="299.5" y="69" rx="7" style="fill:url(#brm);stroke:url(#bqm);stroke-width:1px"/><text x="299" y="68" dx="46" dy="22" style="font-size:18.5px;letter-spacing:.3px;fill:#fff" text-anchor="middle">Service</text></g><g style="clip-path:inset(0 0 0 8px)"><rect width="151" height="29" x="387.5" y="69" rx="7" style="fill:#636565;stroke:url(#bqm);stroke-width:1px"/><text x="387" y="68" dx="80" dy="22" style="font-size:18.5px;letter-spacing:.3px;fill:#fff;fill-opacity:.9" text-anchor="middle">Transponder</text></g><g style="clip-path:inset(0 0 0 8px)"><rect width="120" height="29" x="525.5" y="69" rx="7" style="fill:#636565;stroke:url(#bqm);stroke-width:1px"/><text x="525" y="68" dx="67" dy="22" style="font-size:18.5px;letter-spacing:.3px;fill:#fff;fill-opacity:.9" text-anchor="middle">Favourite</text></g><rect width="1.5" height="28" x="536" y="69.5" style="fill:#555;fill-opacity:.8"/><rect width="418" height="323" x="66" y="131" rx="5" style="fill:#697171;fill-opacity:.1;stroke:#f5f7f7;stroke-opacity:.1;stroke-width:1.2px"/><text x="66" y="109" dx="10" dy="17" style="font-size:17px;letter-spacing:.4px;fill:#fff">Service</text><text x="87" y="150" dy="22" style="font-size:19.5px;fill:#fff">Service name</text><rect width="346" height="33" x="87" y="187" rx="0" style="fill:#222;stroke:#fff;stroke-opacity:.21;stroke-width:4px;clip-path:inset(3.3px 3.3px 1.8px)"/><text x="87" y="187" dx="4" dy="23" style="font-size:19px;fill:#fff">HotBird 4K1</text><text x="87" y="244" dy="22" style="font-size:19.5px;fill:#fff">Service type</text><rect width="126" height="32" x="95" y="299" rx="8" style="fill:#fff;fill-opacity:.24;stroke:url(#bqm);stroke-width:.4px;filter:url(#bsm)"/><text x="95" y="300" dx="12" dy="22" style="font-size:20px;word-spacing:3px;fill:#fff;fill-opacity:.92">1 TV</text><rect width="26" height="26" x="192.6" y="302" rx="8" style="fill:url(#brm);stroke:url(#bqm);stroke-opacity:.06;stroke-width:2px"/><use href="#aom" style="fill:#fff" transform="matrix(.19 0 0 .19 199.4 304.2)"/><use href="#aom" style="fill:#fff" transform="matrix(.19 0 0 -.19 199.4 326.8)"/><rect width="106" height="29" x="248" y="302" rx="8" style="fill:url(#brm);stroke:url(#bqm);stroke-width:1px;filter:none"/><text x="248" y="302" dx="20" dy="20" style="font-size:19.5px;fill:#fff">custom</text><text x="87" y="365" dy="22" style="font-size:19.5px;fill:#fff">Service ID</text><rect width="87" height="33" x="87" y="401" rx="0" style="fill:#222;stroke:#fff;stroke-opacity:.21;stroke-width:4px;clip-path:inset(3.3px 3.3px 1.8px)"/><text x="87" y="401" dx="4" dy="23" style="font-size:19px;fill:#fff">1209</text><text x="188" y="401" dy="23" style="font-size:19.5px;fill:#fff">[SID]</text><rect width="418" height="182" x="66" y="506" rx="5" style="fill:#697171;fill-opacity:.1;stroke:#f5f7f7;stroke-opacity:.1;stroke-width:1.2px"/><text x="66" y="484" dx="10" dy="17" style="font-size:17px;letter-spacing:.4px;fill:#fff">Tuner</text><text x="133" y="533" dy="22" style="font-size:19.5px;fill:#fff">Satellite</text><rect width="241" height="32" x="225" y="532" rx="8" style="fill:#fff;fill-opacity:.24;stroke:url(#bqm);stroke-width:.4px;filter:url(#bsm)"/><text x="225" y="533" dx="12" dy="22" style="font-size:20px;fill:#fff;fill-opacity:.92">Hot Bird</text><rect width="26" height="26" x="436.6" y="535" rx="8" style="fill:url(#brm);stroke:url(#bqm);stroke-opacity:.06;stroke-width:2px"/><use href="#aom" style="fill:#fff" transform="matrix(.19 0 0 .19 443.4 537.2)"/><use href="#aom" style="fill:#fff" transform="matrix(.19 0 0 -.19 443.4 559.8)"/><text x="94" y="588" dy="22" style="font-size:19.5px;fill:#fff">Transponder</text><rect width="241" height="32" x="225" y="587" rx="8" style="fill:#fff;fill-opacity:.24;stroke:url(#bqm);stroke-width:.4px;filter:url(#bsm)"/><text x="225" y="588" dx="12" dy="22" style="font-size:20px;fill:#fff;fill-opacity:.92">12558/V/27500</text><rect width="26" height="26" x="436.6" y="590" rx="8" style="fill:url(#brm);stroke:url(#bqm);stroke-opacity:.06;stroke-width:2px"/><use href="#aom" style="fill:#fff" transform="matrix(.19 0 0 .19 443.4 592.2)"/><use href="#aom" style="fill:#fff" transform="matrix(.19 0 0 -.19 443.4 614.8)"/><rect width="193" height="29" x="222" y="640" rx="8" style="fill:#fff;fill-opacity:.24;stroke:url(#bqm);stroke-width:.4px;filter:url(#bsm)"/><text x="222" y="640" dx="20" dy="21" style="font-size:19.5px;fill:#fff;fill-opacity:.78">New Transponder</text><rect width="387" height="557" x="508" y="131" rx="5" style="fill:#697171;fill-opacity:.1;stroke:#f5f7f7;stroke-opacity:.1;stroke-width:1.2px"/><text x="508" y="109" dx="10" dy="17" style="font-size:17px;letter-spacing:.4px;fill:#fff">Parameters</text><rect width="290" height="5" x="527" y="178" style="fill:#000;stroke:#363838;stroke-width:3.7px;clip-path:inset(3px 3px 1px)"/><rect width="32" height="5" x="843" y="208" style="fill:#000;stroke:#363838;stroke-width:3.7px;clip-path:inset(3px 3px 1px 2px)"/><rect width="46" height="5" x="205" y="-205" style="fill:#000;stroke:#363838;stroke-width:3.7px;clip-path:inset(3px 3px 1px)" transform="rotate(45 48.3 724)"/><text x="526" y="178" dx="8" dy="26" style="font-size:19.5px;fill:#fff">Package</text><rect width="290" height="5" x="527" y="227" style="fill:#000;stroke:#363838;stroke-width:3.7px;clip-path:inset(3px 3px 1px)"/><rect width="32" height="5" x="843" y="257" style="fill:#000;stroke:#363838;stroke-width:3.7px;clip-path:inset(3px 3px 1px 2px)"/><rect width="46" height="5" x="205" y="-205" style="fill:#000;stroke:#363838;stroke-width:3.7px;clip-path:inset(3px 3px 1px)" transform="rotate(45 -10.9 748.5)"/><text x="526" y="227" dx="8" dy="26" style="font-size:19.5px;fill:#fff">PIDs</text><g style="clip-path:inset(0 0 59px)"><rect width="345" height="167" x="529" y="277" style="fill:#202020;fill-opacity:.34"/><text x="632" y="295" dy="22" style="font-size:19.5px;fill:#fff">video</text><rect width="70" height="31" x="691" y="294" rx="0" style="fill:#222;stroke:#fff;stroke-opacity:.21;stroke-width:4px;clip-path:inset(3.3px 3.3px 1.8px)"/><text x="691" y="294" dx="4" dy="23" style="font-size:19px;fill:#fff">2091</text><text x="775" y="294" dy="23" style="font-size:19px;fill:#fff">[VPID]</text><text x="574" y="340" dy="22" style="font-size:19.5px;fill:#fff">mpeg-audio</text><rect width="70" height="31" x="691" y="339" rx="0" style="fill:#222;stroke:#fff;stroke-opacity:.21;stroke-width:4px;clip-path:inset(3.3px 3.3px 1.8px)"/><text x="691" y="339" dx="4" dy="23" style="font-size:19px;fill:#fff">8191</text><text x="775" y="339" dy="23" style="font-size:19px;fill:#fff">[APID]</text><text x="660" y="384" dy="22" style="font-size:19.5px;fill:#fff">tp</text><rect width="70" height="31" x="691" y="383" rx="0" style="fill:#222;stroke:#fff;stroke-opacity:.21;stroke-width:4px;clip-path:inset(3.3px 3.3px 1.8px)"/><text x="775" y="383" dy="23" style="font-size:19px;fill:#fff">[TXTPID]</text><text x="650" y="429" dy="22" style="font-size:19.5px;fill:#fff">pcr</text><rect width="70" height="31" x="691" y="428" rx="0" style="fill:#222;stroke:#fff;stroke-opacity:.21;stroke-width:4px;clip-path:inset(3.3px 3.3px 1.8px)"/><text x="691" y="428" dx="4" dy="23" style="font-size:19px;fill:#fff">2091</text><text x="775" y="428" dy="23" style="font-size:19px;fill:#fff">[PCRPID]</text><text x="650" y="473" dy="22" style="font-size:19.5px;fill:#fff">ac3</text><rect width="70" height="31" x="691" y="472" rx="0" style="fill:#222;stroke:#fff;stroke-opacity:.21;stroke-width:4px;clip-path:inset(3.3px 3.3px 1.8px)"/><text x="775" y="472" dy="23" style="font-size:19px;fill:#fff">[AC3PID]</text></g><rect width="12" height="36" x="858" y="279" rx="7" style="fill:#fff;fill-opacity:.46"/><rect width="290" height="5" x="527" y="457" style="fill:#000;stroke:#363838;stroke-width:3.7px;clip-path:inset(3px 3px 1px)"/><rect width="32" height="5" x="843" y="487" style="fill:#000;stroke:#363838;stroke-width:3.7px;clip-path:inset(3px 3px 1px 2px)"/><rect width="46" height="5" x="205" y="-205" style="fill:#000;stroke:#363838;stroke-width:3.7px;clip-path:inset(3px 3px 1px)" transform="rotate(45 -288.5 863.6)"/><text x="526" y="457" dx="8" dy="26" style="font-size:19.5px;fill:#fff">CAIDs</text><rect width="290" height="5" x="527" y="506" style="fill:#000;stroke:#363838;stroke-width:3.7px;clip-path:inset(3px 3px 1px)"/><rect width="32" height="5" x="843" y="536" style="fill:#000;stroke:#363838;stroke-width:3.7px;clip-path:inset(3px 3px 1px 2px)"/><rect width="46" height="5" x="205" y="-205" style="fill:#000;stroke:#363838;stroke-width:3.7px;clip-path:inset(3px 3px 1px)" transform="rotate(45 -347.7 888)"/><text x="526" y="506" dx="8" dy="26" style="font-size:19.5px;fill:#fff">Flags</text><rect width="290" height="5" x="527" y="555" style="fill:#000;stroke:#363838;stroke-width:3.7px;clip-path:inset(3px 3px 1px)"/><rect width="32" height="5" x="843" y="585" style="fill:#000;stroke:#363838;stroke-width:3.7px;clip-path:inset(3px 3px 1px 2px)"/><rect width="46" height="5" x="205" y="-205" style="fill:#000;stroke:#363838;stroke-width:3.7px;clip-path:inset(3px 3px 1px)" transform="rotate(45 -406.8 912.6)"/><text x="526" y="555" dx="8" dy="26" style="font-size:19.5px;fill:#fff">Custom</text><rect width="290" height="5" x="527" y="604" style="fill:#000;stroke:#363838;stroke-width:3.7px;clip-path:inset(3px 3px 1px)"/><rect width="32" height="5" x="843" y="634" style="fill:#000;stroke:#363838;stroke-width:3.7px;clip-path:inset(3px 3px 1px 2px)"/><rect width="46" height="5" x="205" y="-205" style="fill:#000;stroke:#363838;stroke-width:3.7px;clip-path:inset(3px 3px 1px)" transform="rotate(45 -466 937)"/><text x="526" y="604" dx="8" dy="26" style="font-size:19.5px;fill:#fff">Extras</text><rect width="960" height="82" x="1" y="739" rx="15" style="fill:#2f3131;clip-path:inset(15px 0 0)"/><text x="723" y="764" dx="26" dy="34" style="font-size:22.5px;fill:#fff;fill-opacity:.89;text-shadow:0 .5px 1px #090909">Cancel</text><use href="#edt" style="fill:#c7c7c7" transform="matrix(.36 0 0 .36 851 778)"/><text x="851" y="764" dx="26" dy="34" style="font-size:22.5px;fill:#fff;fill-opacity:.89;text-shadow:0 .5px 1px #090909">Save</text><rect width="960" height="1.4" x="1" y="756" style="fill:#3f4040"/><rect width="960" height="820" x="1" y="1" rx="15" style="fill:none;stroke:#020202;stroke-width:1px"/><rect width="956" height="816" x="3" y="3" rx="15" style="fill:none;stroke:#fff;stroke-opacity:.24;stroke-width:1px"/></g><g style="font-family:&quot;Helvetica Neue&quot;,sans-serif-light,Helvetica,sans-serif"><rect width="1718" height="1140" x="1521" y="81" rx="15" style="fill:#313333;stroke:#191919;stroke-width:1px"/><rect width="1716" height="57" x="1522" y="82" rx="15" style="fill:#404242;stroke:#787979;stroke-width:1px;clip-path:inset(0 0 15px)"/><rect width="1718" height="1" x="1521" y="124" style="fill:none;stroke:#000;stroke-opacity:.89;stroke-width:.5px"/><text x="1522" y="82" dx="857" dy="28" style="font-family:&quot;Helvetica Neue&quot;,Helvetica,sans-serif;font-weight:700;font-size:20px;fill:#bcbebe" text-anchor="middle">e2 SAT Editor</text><ellipse cx="1543" cy="103" rx="8.8" style="fill:#ff5f5a;stroke:none;stroke-opacity:.1"/><ellipse cx="1573" cy="103" rx="8.8" style="fill:#febc2e;stroke:none;stroke-opacity:.1"/><ellipse cx="1604" cy="103" rx="8.8" style="fill:#28c840;stroke:none;stroke-opacity:.1"/><rect width="1716" height="67" x="1522" y="125" style="fill:#2f3131"/><rect width="120" height="67" x="1522" y="125" style="fill:#485352"/><rect width="112" height="53" x="1522" y="131" rx="0" style="fill:url(#bpm);stroke:#fff;stroke-opacity:.23;stroke-width:1.5px"/><use href="#aad" style="fill:#dad4d6" transform="matrix(.26 0 0 .26 1528 149)"/><text x="1522" y="131" dx="27" dy="33" style="font-weight:700;font-size:19px;fill:#fff;fill-opacity:.89">New Tab</text><rect width="1" height="67" x="1642" y="125" style="fill:#3a5165"/><rect width="157" height="69" x="1643" y="124" style="fill:#323232;stroke:#3e3e3e;stroke-width:1.5px;clip-path:inset(2px 0 1px)"/><text x="1643" y="124" dx="15" dy="41" style="font-size:20px;fill:#fff">enigma_db</text><use href="#cce" style="fill:#646464" transform="matrix(.2 0 0 .2 1775 152)"/><rect width="292" height="69" x="1800" y="124" style="fill:#323232;stroke:#3e3e3e;stroke-width:1.5px;clip-path:inset(2px 0 1px)"/><use href="#pkw" style="fill:#fff" transform="matrix(.38 0 0 .38 1812 144)"/><text x="1800" y="124" dx="46" dy="41" style="font-size:20px;fill:#fff">enigma_db - Picons <tspan style="font-size:15px">…</tspan></text><use href="#cce" style="fill:#646464" transform="matrix(.2 0 0 .2 2068 152)"/><rect width="154" height="69" x="2092" y="124" style="fill:#323232;stroke:#3e3e3e;stroke-width:1.5px;clip-path:inset(2px 0 1px)"/><text x="2092" y="124" dx="15" dy="41" style="font-size:20px;fill:#fff">neutrino</text><use href="#cce" style="fill:#646464" transform="matrix(.2 0 0 .2 2222 152)"/><rect width="292" height="69" x="2246" y="124" style="fill:#2a4f7b;stroke:#234065;stroke-width:1.5px;clip-path:inset(2px 0 1px)"/><use href="#tnw" style="fill:#fff" transform="matrix(.38 0 0 .38 2258 144)"/><text x="2246" y="124" dx="46" dy="41" style="font-size:20px;fill:#fff">enigma_db - Edit Set<tspan style="font-size:15px">…</tspan></text><use href="#cce" style="fill:#fff" transform="matrix(.2 0 0 .2 2515 152)"/><rect width="293" height="69" x="2538" y="124" style="fill:#323232;stroke:#3e3e3e;stroke-width:1.5px;clip-path:inset(2px 0 1px)"/><use href="#cbw" style="fill:#fff" transform="matrix(.38 0 0 .38 2551 144)"/><text x="2538" y="124" dx="46" dy="41" style="font-size:20px;fill:#fff">enigma_db - Channe<tspan style="font-size:15px">…</tspan></text><use href="#cce" style="fill:#646464" transform="matrix(.2 0 0 .2 2807 152)"/><rect width="1" height="67" x="2830" y="125" style="fill:#3a3a3a"/><rect width="1716" height="100" x="1522" y="192" style="fill:#313333"/><use href="#fin" style="fill:#c7c8c8" transform="matrix(.38 0 0 .38 1546 217)"/><text x="1530" y="192" dx="69" dy="59" style="font-size:26px;fill:#fff;fill-opacity:.89;text-shadow:0 .5px 1px #090909">Open</text><use href="#fje" style="fill:#c7c8c8" transform="matrix(.38 0 0 .38 1700 217)"/><text x="1684" y="192" dx="69" dy="59" style="font-size:26px;fill:#fff;fill-opacity:.89;text-shadow:0 .5px 1px #090909">Save</text><rect width="1" height="61" x="1848" y="212" style="fill:none;stroke:#fff;stroke-opacity:.3;stroke-dasharray:1px,3px"/><use href="#fgt" style="fill:#c7c8c8" transform="matrix(.38 0 0 .38 1866 217)"/><text x="1849" y="192" dx="69" dy="59" style="font-size:26px;fill:#fff;fill-opacity:.89;text-shadow:0 .5px 1px #090909">Import</text><use href="#fft" style="fill:#c7c8c8" transform="matrix(.38 0 0 .38 2034 217)"/><text x="2018" y="192" dx="69" dy="59" style="font-size:26px;fill:#fff;fill-opacity:.89;text-shadow:0 .5px 1px #090909">Export</text><rect width="1" height="61" x="2201" y="212" style="fill:none;stroke:#fff;stroke-opacity:.3;stroke-dasharray:1px,3px"/><use href="#sms" style="fill:#c7c8c8" transform="matrix(.38 0 0 .38 2219 217)"/><text x="2203" y="192" dx="69" dy="59" style="font-size:26px;fill:#fff;fill-opacity:.89;text-shadow:0 .5px 1px #090909">Settings</text><rect width="125" height="32" x="2485" y="222" rx="8" style="fill:#fff;fill-opacity:.24;stroke:url(#bqm);stroke-width:.4px;filter:url(#bsm)"/><rect width="26" height="26" x="2580.6" y="225" rx="8" style="fill:url(#brm);stroke:url(#bqm);stroke-opacity:.06;stroke-width:2px"/><use href="#aom" style="fill:#fff" transform="matrix(.19 0 0 .19 2587.4 227.2)"/><use href="#aom" style="fill:#fff" transform="matrix(.19 0 0 -.19 2587.4 249.8)"/><text x="2485" y="223" dx="12" dy="22" style="font-size:20px;fill:#fff;fill-opacity:.92">Profile 1</text><text x="2633" y="192" dx="15" dy="59" style="font-size:26px;fill:#fff;fill-opacity:.89;text-shadow:0 .5px 1px #090909">Connect</text><text x="2769" y="192" dx="15" dy="59" style="font-size:26px;fill:#fff;fill-opacity:.89;text-shadow:0 .5px 1px #090909">Disconnect</text><rect width="1" height="61" x="2941" y="212" style="fill:none;stroke:#fff;stroke-opacity:.3;stroke-dasharray:1px,3px"/><text x="2953" y="192" dx="15" dy="59" style="font-size:26px;fill:#fff;fill-opacity:.89;text-shadow:0 .5px 1px #090909">Upload</text><text x="3073" y="192" dx="15" dy="59" style="font-size:26px;fill:#fff;fill-opacity:.89;text-shadow:0 .5px 1px #090909">Download</text><rect width="1720" height="100" x="1520" y="192" style="fill:none;stroke:#324040;stroke-width:2.4px;clip-path:inset(0 2px)"/><rect width="1716" height="807" x="1522" y="291" style="fill:#2f3131"/><text x="1522" y="291" dx="10" dy="33" style="font-weight:700;font-size:20px;fill:#fff">Satellites</text><use href="#ees" style="fill:#ced0d0" transform="matrix(.38 0 0 .38 1853 303)"/><rect width="380" height="26" x="1522" y="340" style="fill:#323232"/><text x="1522" y="340" dy="18" style="font-size:17px;fill:#fff"><tspan x="1529">Name</tspan> <tspan x="1826">Position</tspan></text><rect width=".5" height="19" x="1820" y="343" style="fill:none;stroke:#c7c7c7;stroke-width:1px"/><rect width="380" height="659" x="1522" y="366" style="fill:#171717"/><rect width="380" height="44" x="1522" y="448" style="fill:#303030"/><text x="1522" y="366" dy="29" style="font-size:19px;fill:#fff"><tspan x="1537">Hispasat 30W</tspan> <tspan x="1829">30.0W</tspan></text><text x="1522" y="407" dy="29" style="font-size:19px;fill:#fff"><tspan x="1537">Eutelsat 7W</tspan> <tspan x="1829">7.0W</tspan></text><text x="1522" y="448" dy="29" style="font-size:19px;fill:#fff"><tspan x="1537">Hot Bird</tspan> <tspan x="1829">13.0E</tspan></text><text x="1522" y="491" dy="29" style="font-size:19px;fill:#fff"><tspan x="1537">Badr 5/7/8 C</tspan> <tspan x="1829">26.0E</tspan></text><text x="1522" y="531" dy="29" style="font-size:19px;fill:#fff"><tspan x="1537">Badr 5/7/8 Ku</tspan> <tspan x="1829">26.0E</tspan></text><rect width="380" height="73" x="1522" y="1026" style="fill:#202121"/><rect width="384" height="73" x="1520" y="1025" style="fill:none;stroke:#2d2e2e;stroke-width:2.4px;clip-path:inset(0 2px 2px)"/><use href="#aad" style="fill:#ced0d0" transform="matrix(.25 0 0 .25 1541 1052)"/><text x="1535" y="1036" dx="28" dy="33" style="font-weight:700;font-size:21px;fill:#fff;fill-opacity:.89;text-shadow:0 .5px 1px #090909">Position</text><rect width="128" height="32" x="1754" y="1044" rx="8" style="fill:#fff;fill-opacity:.24;stroke:url(#bqm);stroke-width:.4px;filter:url(#bsm)"/><use href="#slh" style="fill:#ced0d0" transform="matrix(.38 0 0 .38 1774 1047)"/><text x="1754" y="1044" dx="54" dy="22" style="font-size:20px;fill:#fff;fill-opacity:.78">Find<tspan style="font-size:15px">…</tspan></text><ellipse cx="1907.4" cy="708.4" rx="4" style="fill:#444646"/><text x="1913" y="291" dx="10" dy="32" style="font-weight:700;font-size:20px;fill:#fff">Transponders</text><rect width="1325" height="26" x="1913" y="340" style="fill:#323232"/><text x="1913" y="340" dy="18" style="font-size:17px;fill:#fff"><tspan x="1921">Freq/Pol/SR</tspan> <tspan x="2157">Frequency</tspan> <tspan x="2276">Polarization</tspan> <tspan x="2395">Symbol Rate</tspan> <tspan x="2515">System</tspan> <tspan x="2616">FEC</tspan> <tspan x="2715">Modulation</tspan> <tspan x="2826">Inversion</tspan> <tspan x="2920">Roll offset</tspan> <tspan x="3021">Pilot</tspan></text><rect width=".5" height="19" x="2150" y="343" style="fill:none;stroke:#c7c7c7;stroke-width:1px"/><rect width=".5" height="19" x="2269" y="343" style="fill:none;stroke:#c7c7c7;stroke-width:1px"/><rect width=".5" height="19" x="2387" y="343" style="fill:none;stroke:#c7c7c7;stroke-width:1px"/><rect width=".5" height="19" x="2508" y="343" style="fill:none;stroke:#c7c7c7;stroke-width:1px"/><rect width=".5" height="19" x="2609" y="343" style="fill:none;stroke:#c7c7c7;stroke-width:1px"/><rect width=".5" height="19" x="2708" y="343" style="fill:none;stroke:#c7c7c7;stroke-width:1px"/><rect width=".5" height="19" x="2819" y="343" style="fill:none;stroke:#c7c7c7;stroke-width:1px"/><rect width=".5" height="19" x="2913" y="343" style="fill:none;stroke:#c7c7c7;stroke-width:1px"/><rect width=".5" height="19" x="3014" y="343" style="fill:none;stroke:#c7c7c7;stroke-width:1px"/><rect width="1325" height="659" x="1913" y="366" style="fill:#171717"/><rect width="1325" height="44" x="1913" y="576" style="fill:#303030"/><text x="1913" y="366" dy="29" style="font-size:19px;fill:#fff"><tspan x="1924">10719/V/27500</tspan> <tspan x="2159">10719</tspan> <tspan x="2278">V</tspan> <tspan x="2397">27500</tspan> <tspan x="2515">DVB-S2</tspan> <tspan x="2618">3/4</tspan> <tspan x="2716">8PSK</tspan></text><text x="1913" y="407" dy="29" style="font-size:19px;fill:#fff"><tspan x="1924">10728/H/30000</tspan> <tspan x="2159">10728</tspan> <tspan x="2278">H</tspan> <tspan x="2397">30000</tspan> <tspan x="2515">DVB-S2</tspan> <tspan x="2618">3/4</tspan> <tspan x="2716">8PSK</tspan></text><text x="1913" y="448" dy="29" style="font-size:19px;fill:#fff"><tspan x="1924">10758/V/27500</tspan> <tspan x="2159">10758</tspan> <tspan x="2278">V</tspan> <tspan x="2397">27500</tspan> <tspan x="2515">DVB-S2</tspan> <tspan x="2618">3/4</tspan> <tspan x="2716">8PSK</tspan></text><text x="1913" y="491" dy="29" style="font-size:19px;fill:#fff"><tspan x="1924">10775/H/27500</tspan> <tspan x="2159">10775</tspan> <tspan x="2278">H</tspan> <tspan x="2397">27500</tspan> <tspan x="2515">DVB-S</tspan> <tspan x="2618">Auto</tspan> <tspan x="2716">Auto</tspan></text><text x="1913" y="533" dy="29" style="font-size:19px;fill:#fff"><tspan x="1924">10775/H/29900</tspan> <tspan x="2159">10775</tspan> <tspan x="2278">H</tspan> <tspan x="2397">29900</tspan> <tspan x="2515">DVB-S</tspan> <tspan x="2618">Auto</tspan> <tspan x="2716">Auto</tspan></text><text x="1913" y="576" dy="29" style="font-size:19px;fill:#fff"><tspan x="1924">10796/V/27500</tspan> <tspan x="2159">10796</tspan> <tspan x="2278">V</tspan> <tspan x="2397">27500</tspan> <tspan x="2515">DVB-S2</tspan> <tspan x="2618">3/4</tspan> <tspan x="2716">8PSK</tspan></text><text x="1913" y="618" dy="29" style="font-size:19px;fill:#fff"><tspan x="1924">10815/H/27500</tspan> <tspan x="2159">10815</tspan> <tspan x="2278">H</tspan> <tspan x="2397">27500</tspan> <tspan x="2515">DVB-S</tspan> <tspan x="2618">5/6</tspan> <tspan x="2716">QPSK</tspan></text><text x="1913" y="662" dy="29" style="font-size:19px;fill:#fff"><tspan x="1924">10834/V/27500</tspan> <tspan x="2159">10834</tspan> <tspan x="2278">V</tspan> <tspan x="2397">27500</tspan> <tspan x="2515">DVB-S</tspan> <tspan x="2618">Auto</tspan> <tspan x="2716">Auto</tspan></text><text x="1913" y="705" dy="29" style="font-size:19px;fill:#fff"><tspan x="1924">10853/H/29900</tspan> <tspan x="2159">10853</tspan> <tspan x="2278">H</tspan> <tspan x="2397">29900</tspan> <tspan x="2515">DVB-S</tspan> <tspan x="2618">Auto</tspan> <tspan x="2716">Auto</tspan></text><text x="1913" y="749" dy="29" style="font-size:19px;fill:#fff"><tspan x="1924">10872/V/27500</tspan> <tspan x="2159">10872</tspan> <tspan x="2278">V</tspan> <tspan x="2397">27500</tspan> <tspan x="2515">DVB-S2</tspan> <tspan x="2618">3/4</tspan> <tspan x="2716">8PSK</tspan></text><text x="1913" y="791" dy="29" style="font-size:19px;fill:#fff"><tspan x="1924">10873/V/27500</tspan> <tspan x="2159">10873</tspan> <tspan x="2278">V</tspan> <tspan x="2397">27500</tspan> <tspan x="2515">DVB-S2</tspan> <tspan x="2618">3/4</tspan> <tspan x="2716">8PSK</tspan></text><text x="1913" y="834" dy="29" style="font-size:19px;fill:#fff"><tspan x="1924">10892/H/27500</tspan> <tspan x="2159">10892</tspan> <tspan x="2278">H</tspan> <tspan x="2397">27500</tspan> <tspan x="2515">DVB-S</tspan> <tspan x="2618">Auto</tspan> <tspan x="2716">Auto</tspan></text><text x="1913" y="876" dy="29" style="font-size:19px;fill:#fff"><tspan x="1924">10911/V/27500</tspan> <tspan x="2159">10911</tspan> <tspan x="2278">V</tspan> <tspan x="2397">27500</tspan> <tspan x="2515">DVB-S2</tspan> <tspan x="2618">3/4</tspan> <tspan x="2716">8PSK</tspan></text><text x="1913" y="918" dy="29" style="font-size:19px;fill:#fff"><tspan x="1924">10930/H/30000</tspan> <tspan x="2159">10930</tspan> <tspan x="2278">H</tspan> <tspan x="2397">30000</tspan> <tspan x="2515">DVB-S2</tspan> <tspan x="2618">2/3</tspan> <tspan x="2716">8PSK</tspan></text><text x="1913" y="958" dy="29" style="font-size:19px;fill:#fff"><tspan x="1924">10949/V/27500</tspan> <tspan x="2159">10949</tspan> <tspan x="2278">V</tspan> <tspan x="2397">27500</tspan> <tspan x="2515">DVB-S2</tspan> <tspan x="2618">2/3</tspan> <tspan x="2716">8PSK</tspan></text><rect width="12" height="72" x="3222" y="368" rx="7" style="fill:#8b8b8b"/><rect width="1325" height="61" x="1913" y="964" style="fill:#101010"/><rect width="174" height="32" x="1923" y="976" rx="8" style="fill:#fff;fill-opacity:.24;stroke:url(#bqm);stroke-width:.4px;filter:url(#bsm)"/><text x="1923" y="977" dx="12" dy="22" style="font-size:20px;fill:#fff;fill-opacity:.92">Freq/Pol/SR</text><rect width="26" height="26" x="2068.6" y="979" rx="8" style="fill:url(#brm);stroke:url(#bqm);stroke-opacity:.06;stroke-width:2px"/><use href="#aom" style="fill:#fff" transform="matrix(.19 0 0 .19 2075.4 981.2)"/><use href="#aom" style="fill:#fff" transform="matrix(.19 0 0 -.19 2075.4 1003.8)"/><rect width="208" height="33" x="2107" y="975" rx="0" style="fill:#fff;fill-opacity:.08;stroke:#fff;stroke-opacity:.11;stroke-width:4px;clip-path:inset(3px 3px .4px)"/><text x="2107" y="975" dx="4" dy="23" style="font-size:19px;fill:#fff">10796/V</text><rect width="82" height="33" x="2325" y="975" rx="4" style="fill:#323232"/><text x="2325" y="975" dx="40" dy="23" style="font-size:19px;fill:#fff;fill-opacity:.78" text-anchor="middle">Find</text><rect width="166" height="33" x="2416" y="975" rx="4" style="fill:#323232"/><text x="2416" y="975" dx="83" dy="23" style="font-size:19px;fill:#fff;fill-opacity:.78" text-anchor="middle">Find Previous</text><rect width="110" height="33" x="2591" y="975" rx="4" style="fill:#323232"/><text x="2591" y="975" dx="55" dy="23" style="font-size:19px;fill:#fff;fill-opacity:.78" text-anchor="middle">Find All</text><rect width="126" height="31" x="2734" y="976" rx="4" style="fill:#25456c;stroke:#d1d2d2;stroke-width:1px"/><text x="2734" y="976" dx="62" dy="22" style="font-size:18px;fill:#fff;fill-opacity:.9" text-anchor="middle">Highlight</text><use href="#cce" style="fill:#c7c7c7" transform="matrix(.23 0 0 .23 3204 985)"/><rect width="1325" height="73" x="1913" y="1026" style="fill:#202121"/><rect width="1329" height="73" x="1911" y="1025" style="fill:none;stroke:#2d2e2e;stroke-width:2.4px;clip-path:inset(0 2px 2px)"/><use href="#aad" style="fill:#c7c7c7" transform="matrix(.26 0 0 .26 1932 1052)"/><text x="1927" y="1036" dx="28" dy="33" style="font-weight:700;font-size:21px;fill:#fff;fill-opacity:.89;text-shadow:0 .5px 1px #090909">Transponder</text><rect width="128" height="32" x="3092" y="1044" rx="8" style="fill:#fff;fill-opacity:.24;stroke:url(#bqm);stroke-width:.4px;filter:url(#bsm)"/><use href="#slh" style="fill:#c7c7c7" transform="matrix(.38 0 0 .38 3104 1047)"/><text x="3092" y="1044" dx="46" dy="22" style="font-size:20px;fill:#fff;fill-opacity:.78">Find<tspan style="font-size:15px">…</tspan></text><rect width="1720" height="807" x="1520" y="291" style="fill:none;stroke:#404242;stroke-width:2.4px;clip-path:inset(0 2px)"/><text x="1538" y="1116" dx="29" dy="33" style="font-weight:700;font-size:24px;fill:#fff;fill-opacity:.89;text-shadow:0 .5px 1px #090909">Tools</text><rect width="1" height="38" x="1651" y="1120" style="fill:none;stroke:#fff;stroke-opacity:.3;stroke-dasharray:1.4px,2.68px"/><text x="1647" y="1116" dx="29" dy="33" style="font-weight:700;font-size:24px;fill:#fff;fill-opacity:.89;text-shadow:0 .5px 1px #090909">Inspect</text><text x="3100" y="1116" dx="11" dy="33" style="font-weight:700;font-size:24px;fill:#fff;fill-opacity:.89;text-shadow:0 .5px 1px #090909">autofix</text><rect width="1716" height="56" x="1522" y="1164" rx="15" style="fill:#2f3131;clip-path:inset(15px 0 0)"/><rect width="1720" height="42" x="1520" y="1179" style="fill:none;stroke:#404242;stroke-width:2.5px;clip-path:inset(0 2px 42px)"/><text x="1522" y="1179" dx="29" dy="29" style="font-size:20px;fill:#fff"><tspan>Transponders: 102</tspan> <tspan dx="10">Position: 13.0E</tspan></text><text x="1522" y="1179" dx="1535" dy="29" style="font-size:20px;fill:#fff"><tspan>Total: 251</tspan></text><use href="#fho" style="fill:#fff;fill-opacity:.76" transform="matrix(.38 0 0 .38 3181 1188)"/><rect width="1718" height="1140" x="1521" y="81" rx="15" style="fill:none;stroke:#a6bbb9;stroke-width:1px"/><rect width="1714" height="1136" x="1523" y="83" rx="15" style="fill:none;stroke:#fff;stroke-opacity:.24;stroke-width:1px"/></g></svg>