<svg xmlns="http://www.w3.org/2000/svg" style="pointer-events:none;user-select:none" viewBox="0 0 3318 1300"><defs><symbol id="aad"><path d="M37.75 37.75h18.127v-11.5H37.75V8.123h-11.5V26.25H8.123v11.5H26.25v18.127h11.5V37.75z"/></symbol><symbol id="cbw"><path d="m60 14.973-3-.522v35.716c-3.141-.28-8.021-.667-11-.667-.95 0-2.094.039-3.312.102-.962.036-2.014.106-3.059.191-2.678.191-5.264.428-6.629.559V14.451S39.61 13 42.963 13c4 0 14.037 1.451 14.037 1.451l3.001.522A5.166 5.166 0 0 1 63 19.66v32.68a5.162 5.162 0 0 1-5.16 5.16H6.16A5.162 5.162 0 0 1 1 52.34V19.66a5.164 5.164 0 0 1 3-4.687l3-.522S17.037 13 21.037 13C24.39 13 31 14.451 31 14.451v35.901a285.977 285.977 0 0 0-6.629-.559 71.578 71.578 0 0 0-3.059-.191A66.645 66.645 0 0 0 18 49.5c-2.979 0-7.859.387-11 .667V14.451l-3 .522v38.765h56V14.973zM28.5 42.5a2 2 0 0 0-2-2h-14a2 2 0 0 0 0 4h14a2 2 0 0 0 2-2zm25 0a2 2 0 0 0-2-2h-14a2 2 0 0 0 0 4h14a2 2 0 0 0 2-2zm-25-7a2 2 0 0 0-2-2h-14a2 2 0 0 0 0 4h14a2 2 0 0 0 2-2zm25 0a2 2 0 0 0-2-2h-14a2 2 0 0 0 0 4h14a2 2 0 0 0 2-2zm-25-7a2 2 0 0 0-2-2h-14a2 2 0 0 0 0 4h14a2 2 0 0 0 2-2zm25 0a2 2 0 0 0-2-2h-14a2 2 0 0 0 0 4h14a2 2 0 0 0 2-2zm-25-7a2 2 0 0 0-2-2h-14a2 2 0 0 0 0 4h14a2 2 0 0 0 2-2zm25 0a2 2 0 0 0-2-2h-14a2 2 0 0 0 0 4h14a2 2 0 0 0 2-2z"/></symbol><symbol id="cce"><path d="m62.328 7.276-5.604-5.604L32 26.396 7.276 1.672 1.672 7.276 26.396 32 1.672 56.724l5.604 5.604L32 37.604l24.724 24.724 5.604-5.604L37.604 32 62.328 7.276z"/></symbol><symbol id="edt"><path d="M13.624 42.251 46.831 8.982c1.948-1.951 5.432-1.635 7.775.704 2.344 2.34 2.666 5.823.719 7.774L22.118 50.729 9.394 54.983l4.23-12.732z"/></symbol><symbol id="ees"><path d="M32.032 50.518C27.242 47.632 24 42.109 24 35.776 24 26.462 31.011 18.9 39.648 18.9c8.636 0 15.647 7.562 15.647 16.876s-7.011 16.875-15.647 16.875c-.924 0-1.828-.086-2.709-.252L36.748 62.9l-4.943-.144.227-12.238zM6.057 26.78l.023 14.969c-.866.414-1.706.922-2.43 1.563-4.358 3.853-4.35 10.108.019 13.972.971.858 2.137 1.495 3.319 1.965l1.369-.931-.011-7.239c-.001-.885.89-1.557 1.892-1.556l2.771.003c.536.001 1.068.166 1.418.476.306.27.483.677.484 1.091l.011 7.016 1.416.908c.975-.446 1.946-.994 2.763-1.716 4.357-3.853 4.35-10.108-.019-13.972-.727-.643-1.569-1.153-2.438-1.57l-.023-14.969c.866-.414 1.706-.923 2.43-1.563 4.358-3.853 4.35-10.108-.019-13.972-.895-.791-1.965-1.383-3.043-1.844l-1.393.921.01 6.793c.002.875-.84 1.502-1.829 1.501l-2.897-.003c-.992-.002-1.837-.634-1.839-1.511l-.01-6.794L6.639 9.4c-1.078.459-2.146 1.048-3.039 1.838-4.357 3.853-4.35 10.108.019 13.972.727.642 1.569 1.153 2.438 1.57zm44.214 25.031-.523-.46-5.453 3.436.662 1.988 5.986-1.196c1.277 1.246 2.819 1.484 3.871.785l7.388-4.581c.786-.485 1.326-1.441 1.398-2.711.046-.806-.219-1.238-.491-1.487a1.291 1.291 0 0 0-.917-.337c-.336.004-.81.167-1.33.351-.245.086-.508.175-.77.205-.142.017-.286.022-.415-.049-1.014-.553-2.017-.529-2.787-.049l-6.619 4.105z"/></symbol><symbol id="fft"><path d="M56.256 31.057H13.818C6.744 31.057 1 36.801 1 43.875v61.295c0 7.074 5.744 12.818 12.818 12.818h54.476c7.075 0 12.818-5.744 12.818-12.818V54.119C64.496 68.159 64.463 84.4 64.087 91.084a6.817 6.817 0 0 1-11.642 4.425c-14.421-14.502-16.181-43.133 3.811-64.452zm1.037 59.637C42.669 75.989 44.254 44.706 72.527 26.35L62.162 13.988 105 15.072l-7.263 41.344-11.808-14.082c-28.127 16.992-28.15 39.728-28.636 48.36z"/></symbol><symbol id="fgt"><path d="M87.8 55.714h8.488C102.2 55.714 107 60.467 107 66.32v45.074c0 5.854-4.8 10.606-10.712 10.606H11.712C5.8 122 1 117.248 1 111.394V66.32c0-5.853 4.8-10.606 10.712-10.606H31.5L54 77.541c1.413 1.374 4.32 2.133 6.3 2.109 1.98-.023 4.821-.828 6.2-2.236l21.3-21.7zm6.182-49.329C76.101 3.303 44.4 18.916 49.061 45.91H33.544l27.127 26.376L86.518 45.91h-14.41C67.275 21.748 87.952 10.789 93.982 6.385z"/></symbol><symbol id="fho"><path d="M32 62.5C15.167 62.5 1.5 48.833 1.5 32S15.167 1.5 32 1.5v9.611A5.366 5.366 0 0 0 30.91 11c-2.99 0-5.42 2.43-5.42 5.41A5.424 5.424 0 0 0 32 21.719v5.111l-7.44.18 2.82 1.23v22.7L24.56 53H32v9.5zm0-51.389V1.5c16.833 0 30.5 13.667 30.5 30.5S48.833 62.5 32 62.5V53h9.46l-5.76-2.06v-24.2l-3.7.09v-5.111a5.427 5.427 0 0 0 4.32-5.309c0-2.607-1.86-4.793-4.32-5.299z"/></symbol><symbol id="fin"><path d="M21 42.973h89.077c2.783 0 4.643 2.26 4.153 5.042l-9.34 52.943c-.491 2.783-3.149 5.042-5.932 5.042H7.84A3.842 3.842 0 0 1 4 102.16V22h67.2L88 36H16v32h5V42.973z"/></symbol><symbol id="fje"><path d="M114 22v86.16a3.842 3.842 0 0 1-3.84 3.84H17.84a3.842 3.842 0 0 1-3.84-3.84V19.84A3.842 3.842 0 0 1 17.84 16H109l5 6zM94 59.014v-40H38v40h56zM84.5 26v30h-15V26h15z"/></symbol><symbol id="pkw"><path d="M14.762 29.23h34.49S63.18 43.708 60.715 44.826c-1.067.483-6.127-1.117-11.524-3.087V62H14.802V41.747C9.413 43.714 4.365 45.309 3.3 44.826.835 43.708 14.762 29.23 14.762 29.23zm22.012-17.871H16.299v13.19h6.364V13.997h14.111v-2.638zm1.764 5.276H24.427v7.914h14.111v-7.914zm6.761-6.235v14.149h-4.283v-9.233h-2.478V10.4h6.761zm-8.667-6.918H18.459v5.276h18.173V3.482z"/></symbol><symbol id="slh"><path d="M40.023 45.152c-3.477 2.591-7.729 4.192-12.407 4.221-10.406.066-20.276-8.26-21.806-18.699C4.079 18.86 13.39 6.51 25.93 5.634a23.135 23.135 0 0 1 1.686-.053c10 .095 19.38 7.75 21.337 17.619 1.156 5.829-.437 11.92-3.87 16.758l13.82 13.819-5.128 5.128-13.752-13.753zM27.395 14.645c-6.236.06-12 5.17-12.677 11.431-.588 5.436 2.691 11.076 7.773 13.229 6.62 2.806 15.346-1.167 17.352-8.391 2.055-7.404-3.759-16.031-12.032-16.265a19.293 19.293 0 0 0-.416-.004z"/></symbol><symbol id="sms"><path d="M73.934 15.359a50.006 50.006 0 0 0-19.668 0 128.34 128.34 0 0 1 1.871 12.477 37.41 37.41 0 0 0-12.249 5.073 128.485 128.485 0 0 1-7.499-10.146 50.018 50.018 0 0 0-13.908 13.908 128.735 128.735 0 0 1 10.146 7.499 37.41 37.41 0 0 0-5.073 12.249 128.34 128.34 0 0 1-12.477-1.871 49.968 49.968 0 0 0 0 19.668 128.34 128.34 0 0 1 12.477-1.871 37.4 37.4 0 0 0 5.073 12.249 128.485 128.485 0 0 1-10.146 7.499 50.018 50.018 0 0 0 13.908 13.908 128.485 128.485 0 0 1 7.499-10.146 37.433 37.433 0 0 0 12.249 5.074 128.366 128.366 0 0 1-1.871 12.476 49.968 49.968 0 0 0 19.668 0 128.366 128.366 0 0 1-1.871-12.476 37.433 37.433 0 0 0 12.249-5.074 128.485 128.485 0 0 1 7.499 10.146 50.018 50.018 0 0 0 13.908-13.908 128.485 128.485 0 0 1-10.146-7.499 37.4 37.4 0 0 0 5.073-12.249 128.34 128.34 0 0 1 12.477 1.871 49.968 49.968 0 0 0 0-19.668 128.34 128.34 0 0 1-12.477 1.871 37.41 37.41 0 0 0-5.073-12.249 128.735 128.735 0 0 1 10.146-7.499 50.018 50.018 0 0 0-13.908-13.908 128.485 128.485 0 0 1-7.499 10.146 37.41 37.41 0 0 0-12.249-5.073 128.34 128.34 0 0 1 1.871-12.477zM64.1 50.882c7.451 0 13.5 6.049 13.5 13.5s-6.049 13.5-13.5 13.5-13.5-6.049-13.5-13.5 6.049-13.5 13.5-13.5z"/></symbol><symbol id="tnw"><path d="M64 64V45H0v19h64zm-25.025-5.747.001 1.834a1.948 1.948 0 1 1-3.897 0l-.002-6.41-1.968 1.774a2.105 2.105 0 0 1-1.48.524 2.105 2.105 0 0 1-1.48-.524l-1.968-1.774-.003 6.41a1.95 1.95 0 0 1-3.897 0l.002-5.24h-6.669l4.099 3.89c.751.713.751 1.869.002 2.581-.75.711-1.968.71-2.719-.002l-4.104-3.895-4.104 3.895a1.999 1.999 0 0 1-2.719.002 1.76 1.76 0 0 1 .002-2.581l4.104-3.895-4.104-3.895c-.751-.712-.752-1.868-.002-2.58s1.968-.711 2.719.002l4.104 3.895 4.104-3.895a1.998 1.998 0 0 1 2.719-.002 1.76 1.76 0 0 1-.002 2.58l-4.099 3.89h6.669l.002-5.24.002-.072a1.674 1.674 0 0 1 .571-1.356c.276-.249.614-.408.97-.477a1.942 1.942 0 0 1 .578-.036c.454.033.899.206 1.247.52l3.976 3.583 3.975-3.583a2.084 2.084 0 0 1 1.248-.52 1.94 1.94 0 0 1 .578.036c.356.069.694.228.97.477.412.371.602.868.571 1.356l.001.072.003 8.646h2.912l.003-8.83a1.95 1.95 0 0 1 3.897 0l-.004 8.839 6.372.002a1.798 1.798 0 0 1 0 3.597l-8.471-.003a1.8 1.8 0 0 1-1.798-1.799l.001-1.796h-2.912zM25.286 39.498 25 39.5c-10.072 0-18.25-8.402-18.25-18.75S14.928 2 25 2s18.25 8.402 18.25 18.75a19.05 19.05 0 0 1-2.301 9.115L52 25.842v-3.071a1.5 1.5 0 0 1 1.5-1.5h3a1.5 1.5 0 0 1 1.5 1.5v11a1.5 1.5 0 0 1-1.5 1.5h-3a1.5 1.5 0 0 1-1.5-1.5v-1.543l-25.926 9.436-.788-2.166z"/></symbol><symbol id="aom"><path d="M32 13.243a6.495 6.495 0 0 0-4.608 1.907L2.907 39.635c-2.543 2.543-2.543 6.672 0 9.215s6.672 2.543 9.215 0L32 28.972 51.878 48.85c2.543 2.543 6.672 2.543 9.215 0s2.543-6.672 0-9.215L36.608 15.15A6.495 6.495 0 0 0 32 13.243z"/></symbol><linearGradient id="bpm" x1="0" x2="0" y1="0" y2="1"><stop offset="0" style="stop-color:#5b6564"/><stop offset=".6" style="stop-color:#626c6c"/></linearGradient><linearGradient id="bqm" x1="0" x2="0" y1="0" y2="1"><stop offset="0" style="stop-color:#fff;stop-opacity:.19"/><stop offset="1" style="stop-color:#000;stop-opacity:.34"/></linearGradient><linearGradient id="brm" x1="0" x2="0" y1="0" y2="1"><stop offset=".4" style="stop-color:#007df4"/><stop offset="1" style="stop-color:#0073e4"/></linearGradient><filter id="bsm" color-interpolation-filters="sRGB"><feDropShadow dx="0" dy="1.5" flood-opacity=".25" stdDeviation="1"/><feDropShadow dx="0" dy="0" flood-opacity=".3" stdDeviation="2.2"/></filter><filter id="mtm" color-interpolation-filters="sRGB"><feDropShadow dx="-2" dy="19" flood-opacity=".1" stdDeviation="8"/><feDropShadow dx="0" dy="10" flood-opacity=".3" stdDeviation="23"/></filter></defs><path d="M0 0h3318v1300H0z" style="fill:#b4d0cd"/><g style="font-family:'Helvetica Neue',sans-serif-light,Helvetica,sans-serif" transform="matrix(1.19 0 0 1.19 102 161)"><rect width="960" height="820" x="1" y="1" rx="15" style="fill:#313333;stroke:#a6bbb9;stroke-width:1px;filter:url(#mtm)"/><rect width="958" height="57" x="2" y="2" rx="15" style="fill:#404242;stroke:#787979;stroke-width:1px;clip-path:inset(0 0 15px)"/><path d="M1 44h960v1H1z" style="fill:none;stroke:#000;stroke-opacity:.89;stroke-width:.5px"/><text x="2" y="2" dx="478" dy="28" style="font-family:'Helvetica Neue',Helvetica,sans-serif;font-weight:700;font-size:20px;fill:#bcbebe" text-anchor="middle">Edit Service</text><ellipse cx="21" cy="23" rx="8.8" style="fill:#ff5f5a;stroke:none;stroke-opacity:.1"/><ellipse cx="52" cy="23" rx="8.8" style="fill:#febc2e;stroke:none;stroke-opacity:.1"/><ellipse cx="83" cy="23" rx="8.8" style="fill:#636766;stroke:none;stroke-opacity:.1"/><rect width="895" height="638" x="33" y="82" rx="6" style="fill:#566161;fill-opacity:.1;stroke:#f7f9f9;stroke-opacity:.1;stroke-width:1.4px"/><g style="clip-path:inset(0 8px 0 0)"><rect width="103" height="29" x="299.5" y="69" rx="7" style="fill:url(#brm);stroke:url(#bqm);stroke-width:1px"/><text x="299" y="68" dx="46" dy="22" style="font-size:18.5px;letter-spacing:.3px;fill:#fff" text-anchor="middle">Service</text></g><g style="clip-path:inset(0 0 0 8px)"><rect width="151" height="29" x="387.5" y="69" rx="7" style="fill:#636565;stroke:url(#bqm);stroke-width:1px"/><text x="387" y="68" dx="80" dy="22" style="font-size:18.5px;letter-spacing:.3px;fill:#fff;fill-opacity:.9" text-anchor="middle">Transponder</text></g><g style="clip-path:inset(0 0 0 8px)"><rect width="120" height="29" x="525.5" y="69" rx="7" style="fill:#636565;stroke:url(#bqm);stroke-width:1px"/><text x="525" y="68" dx="67" dy="22" style="font-size:18.5px;letter-spacing:.3px;fill:#fff;fill-opacity:.9" text-anchor="middle">Favourite</text></g><path d="M536 69.5h1.5v28H536z" style="fill:#555;fill-opacity:.8"/><rect width="418" height="323" x="66" y="131" rx="5" style="fill:#697171;fill-opacity:.1;stroke:#f5f7f7;stroke-opacity:.1;stroke-width:1.2px"/><text x="66" y="109" dx="10" dy="17" style="font-size:17px;letter-spacing:.4px;fill:#fff">Service</text><text x="87" y="150" dy="22" style="font-size:19.5px;fill:#fff">Service name</text><rect width="346" height="33" x="87" y="187" rx="0" style="fill:#222;stroke:#fff;stroke-opacity:.21;stroke-width:4px;clip-path:inset(3.3px 3.3px 1.8px)"/><text x="87" y="187" dx="4" dy="23" style="font-size:19px;fill:#fff">HotBird 4K1</text><text x="87" y="244" dy="22" style="font-size:19.5px;fill:#fff">Service type</text><rect width="126" height="30" x="95" y="299" rx="8" style="fill:#fff;fill-opacity:.24;stroke:url(#bqm);stroke-width:.4px;filter:url(#bsm)"/><text x="95" y="299" dx="12" dy="22" style="font-size:20px;word-spacing:3px;fill:#fff;fill-opacity:.92">1 TV</text><rect width="24" height="24" x="194.5" y="302" rx="8" style="fill:url(#brm);stroke:url(#bqm);stroke-opacity:.06;stroke-width:2px"/><use href="#aom" style="fill:#fff" transform="matrix(.16 0 0 .16 201.4 304.7)"/><use href="#aom" style="fill:#fff" transform="matrix(.16 0 0 -.16 201.4 323.7)"/><rect width="106" height="29" x="248" y="302" rx="8" style="fill:url(#brm);stroke:url(#bqm);stroke-width:1px;filter:none"/><text x="248" y="302" dx="20" dy="20" style="font-size:19.5px;fill:#fff">custom</text><text x="87" y="365" dy="22" style="font-size:19.5px;fill:#fff">Service ID</text><rect width="87" height="33" x="87" y="401" rx="0" style="fill:#222;stroke:#fff;stroke-opacity:.21;stroke-width:4px;clip-path:inset(3.3px 3.3px 1.8px)"/><text x="87" y="401" dx="4" dy="23" style="font-size:19px;fill:#fff">1209</text><text x="188" y="401" dy="23" style="font-size:19.5px;fill:#fff">[SID]</text><rect width="418" height="182" x="66" y="506" rx="5" style="fill:#697171;fill-opacity:.1;stroke:#f5f7f7;stroke-opacity:.1;stroke-width:1.2px"/><text x="66" y="484" dx="10" dy="17" style="font-size:17px;letter-spacing:.4px;fill:#fff">Tuner</text><text x="133" y="533" dy="22" style="font-size:19.5px;fill:#fff">Satellite</text><rect width="241" height="30" x="225" y="532" rx="8" style="fill:#fff;fill-opacity:.24;stroke:url(#bqm);stroke-width:.4px;filter:url(#bsm)"/><text x="225" y="532" dx="12" dy="22" style="font-size:20px;fill:#fff;fill-opacity:.92">Hot Bird</text><rect width="24" height="24" x="438.5" y="535" rx="8" style="fill:url(#brm);stroke:url(#bqm);stroke-opacity:.06;stroke-width:2px"/><use href="#aom" style="fill:#fff" transform="matrix(.16 0 0 .16 445.4 537.7)"/><use href="#aom" style="fill:#fff" transform="matrix(.16 0 0 -.16 445.4 556.7)"/><text x="94" y="588" dy="22" style="font-size:19.5px;fill:#fff">Transponder</text><rect width="241" height="30" x="225" y="587" rx="8" style="fill:#fff;fill-opacity:.24;stroke:url(#bqm);stroke-width:.4px;filter:url(#bsm)"/><text x="225" y="587" dx="12" dy="22" style="font-size:20px;fill:#fff;fill-opacity:.92">12558/V/27500</text><rect width="24" height="24" x="438.5" y="590" rx="8" style="fill:url(#brm);stroke:url(#bqm);stroke-opacity:.06;stroke-width:2px"/><use href="#aom" style="fill:#fff" transform="matrix(.16 0 0 .16 445.4 592.7)"/><use href="#aom" style="fill:#fff" transform="matrix(.16 0 0 -.16 445.4 611.7)"/><rect width="193" height="29" x="222" y="640" rx="8" style="fill:#fff;fill-opacity:.24;stroke:url(#bqm);stroke-width:.4px;filter:url(#bsm)"/><text x="222" y="640" dx="20" dy="21" style="font-size:19.5px;fill:#fff;fill-opacity:.78">New Transponder</text><rect width="387" height="557" x="508" y="131" rx="5" style="fill:#697171;fill-opacity:.1;stroke:#f5f7f7;stroke-opacity:.1;stroke-width:1.2px"/><text x="508" y="109" dx="10" dy="17" style="font-size:17px;letter-spacing:.4px;fill:#fff">Parameters</text><path d="M527 178h290v5H527z" style="fill:#000;stroke:#363838;stroke-width:3.7px;clip-path:inset(3px 3px 1px)"/><path d="M843 208h32v5h-32z" style="fill:#000;stroke:#363838;stroke-width:3.7px;clip-path:inset(3px 3px 1px 2px)"/><path d="M205-205h46v5h-46z" style="fill:#000;stroke:#363838;stroke-width:3.7px;clip-path:inset(3px 3px 1px)" transform="rotate(45 48.27 723.984)"/><text x="526" y="178" dx="8" dy="26" style="font-size:19.5px;fill:#fff">Package</text><path d="M527 227h290v5H527z" style="fill:#000;stroke:#363838;stroke-width:3.7px;clip-path:inset(3px 3px 1px)"/><path d="M843 257h32v5h-32z" style="fill:#000;stroke:#363838;stroke-width:3.7px;clip-path:inset(3px 3px 1px 2px)"/><path d="M205-205h46v5h-46z" style="fill:#000;stroke:#363838;stroke-width:3.7px;clip-path:inset(3px 3px 1px)" transform="rotate(45 -10.878 748.497)"/><text x="526" y="227" dx="8" dy="26" style="font-size:19.5px;fill:#fff">PIDs</text><g style="clip-path:inset(0 0 59px)"><path d="M529 277h345v167H529z" style="fill:#202020;fill-opacity:.34"/><text x="632" y="295" dy="22" style="font-size:19.5px;fill:#fff">video</text><rect width="70" height="31" x="691" y="294" rx="0" style="fill:#222;stroke:#fff;stroke-opacity:.21;stroke-width:4px;clip-path:inset(3.3px 3.3px 1.8px)"/><text x="691" y="294" dx="4" dy="23" style="font-size:19px;fill:#fff">2091</text><text x="775" y="294" dy="23" style="font-size:19px;fill:#fff">[VPID]</text><text x="574" y="340" dy="22" style="font-size:19.5px;fill:#fff">mpeg-audio</text><rect width="70" height="31" x="691" y="339" rx="0" style="fill:#222;stroke:#fff;stroke-opacity:.21;stroke-width:4px;clip-path:inset(3.3px 3.3px 1.8px)"/><text x="691" y="339" dx="4" dy="23" style="font-size:19px;fill:#fff">8191</text><text x="775" y="339" dy="23" style="font-size:19px;fill:#fff">[APID]</text><text x="660" y="384" dy="22" style="font-size:19.5px;fill:#fff">tp</text><rect width="70" height="31" x="691" y="383" rx="0" style="fill:#222;stroke:#fff;stroke-opacity:.21;stroke-width:4px;clip-path:inset(3.3px 3.3px 1.8px)"/><text x="775" y="383" dy="23" style="font-size:19px;fill:#fff">[TXTPID]</text><text x="650" y="429" dy="22" style="font-size:19.5px;fill:#fff">pcr</text><rect width="70" height="31" x="691" y="428" rx="0" style="fill:#222;stroke:#fff;stroke-opacity:.21;stroke-width:4px;clip-path:inset(3.3px 3.3px 1.8px)"/><text x="691" y="428" dx="4" dy="23" style="font-size:19px;fill:#fff">2091</text><text x="775" y="428" dy="23" style="font-size:19px;fill:#fff">[PCRPID]</text><text x="650" y="473" dy="22" style="font-size:19.5px;fill:#fff">ac3</text><rect width="70" height="31" x="691" y="472" rx="0" style="fill:#222;stroke:#fff;stroke-opacity:.21;stroke-width:4px;clip-path:inset(3.3px 3.3px 1.8px)"/><text x="775" y="472" dy="23" style="font-size:19px;fill:#fff">[AC3PID]</text></g><rect width="12" height="36" x="858" y="279" rx="7" style="fill:#fff;fill-opacity:.46"/><path d="M527 457h290v5H527z" style="fill:#000;stroke:#363838;stroke-width:3.7px;clip-path:inset(3px 3px 1px)"/><path d="M843 487h32v5h-32z" style="fill:#000;stroke:#363838;stroke-width:3.7px;clip-path:inset(3px 3px 1px 2px)"/><path d="M205-205h46v5h-46z" style="fill:#000;stroke:#363838;stroke-width:3.7px;clip-path:inset(3px 3px 1px)" transform="rotate(45 -288.512 863.556)"/><text x="526" y="457" dx="8" dy="26" style="font-size:19.5px;fill:#fff">CAIDs</text><path d="M527 506h290v5H527z" style="fill:#000;stroke:#363838;stroke-width:3.7px;clip-path:inset(3px 3px 1px)"/><path d="M843 536h32v5h-32z" style="fill:#000;stroke:#363838;stroke-width:3.7px;clip-path:inset(3px 3px 1px 2px)"/><path d="M205-205h46v5h-46z" style="fill:#000;stroke:#363838;stroke-width:3.7px;clip-path:inset(3px 3px 1px)" transform="rotate(45 -347.66 888.069)"/><text x="526" y="506" dx="8" dy="26" style="font-size:19.5px;fill:#fff">Flags</text><path d="M527 555h290v5H527z" style="fill:#000;stroke:#363838;stroke-width:3.7px;clip-path:inset(3px 3px 1px)"/><path d="M843 585h32v5h-32z" style="fill:#000;stroke:#363838;stroke-width:3.7px;clip-path:inset(3px 3px 1px 2px)"/><path d="M205-205h46v5h-46z" style="fill:#000;stroke:#363838;stroke-width:3.7px;clip-path:inset(3px 3px 1px)" transform="rotate(45 -406.809 912.581)"/><text x="526" y="555" dx="8" dy="26" style="font-size:19.5px;fill:#fff">Custom</text><path d="M527 604h290v5H527z" style="fill:#000;stroke:#363838;stroke-width:3.7px;clip-path:inset(3px 3px 1px)"/><path d="M843 634h32v5h-32z" style="fill:#000;stroke:#363838;stroke-width:3.7px;clip-path:inset(3px 3px 1px 2px)"/><path d="M205-205h46v5h-46z" style="fill:#000;stroke:#363838;stroke-width:3.7px;clip-path:inset(3px 3px 1px)" transform="rotate(45 -465.957 937.094)"/><text x="526" y="604" dx="8" dy="26" style="font-size:19.5px;fill:#fff">Extras</text><rect width="960" height="82" x="1" y="739" rx="15" style="fill:#2f3131;clip-path:inset(15px 0 0)"/><text x="723" y="764" dx="26" dy="34" style="font-size:22.5px;fill:#fff;fill-opacity:.89;text-shadow:0 .5px 1px #090909">Cancel</text><use href="#edt" style="fill:#c7c7c7" transform="matrix(.36 0 0 .36 851 778)"/><text x="851" y="764" dx="26" dy="34" style="font-size:22.5px;fill:#fff;fill-opacity:.89;text-shadow:0 .5px 1px #090909">Save</text><path d="M1 756h960v1.4H1z" style="fill:#3f4040"/><rect width="960" height="820" x="1" y="1" rx="15" style="fill:none;stroke:#020202;stroke-width:1px"/><rect width="956" height="816" x="3" y="3" rx="15" style="fill:none;stroke:#fff;stroke-opacity:.24;stroke-width:1px"/></g><g style="font-family:'Helvetica Neue',sans-serif-light,Helvetica,sans-serif"><rect width="1718" height="1140" x="1521" y="81" rx="15" style="fill:#313333;stroke:#a6bbb9;stroke-width:1px"/><rect width="1716" height="57" x="1522" y="82" rx="15" style="fill:#404242;stroke:#787979;stroke-width:1px;clip-path:inset(0 0 15px)"/><path d="M1521 124h1718v1H1521z" style="fill:none;stroke:#000;stroke-opacity:.89;stroke-width:.5px"/><text x="1522" y="82" dx="857" dy="28" style="font-family:'Helvetica Neue',Helvetica,sans-serif;font-weight:700;font-size:20px;fill:#bcbebe" text-anchor="middle">e2 SAT Editor</text><ellipse cx="1543" cy="103" rx="8.8" style="fill:#ff5f5a;stroke:none;stroke-opacity:.1"/><ellipse cx="1573" cy="103" rx="8.8" style="fill:#febc2e;stroke:none;stroke-opacity:.1"/><ellipse cx="1604" cy="103" rx="8.8" style="fill:#28c840;stroke:none;stroke-opacity:.1"/><path d="M1522 125h1716v67H1522z" style="fill:#2f3131"/><path d="M1522 125h120v67h-120z" style="fill:#485352"/><rect width="112" height="53" x="1522" y="131" rx="0" style="fill:url(#bpm);stroke:#fff;stroke-opacity:.23;stroke-width:1.5px"/><use href="#aad" style="fill:#dad4d6" transform="matrix(.26 0 0 .26 1528 149)"/><text x="1522" y="131" dx="27" dy="33" style="font-weight:700;font-size:19px;fill:#fff;fill-opacity:.89">New Tab</text><path d="M1642 125h1v67h-1z" style="fill:#3a5165"/><path d="M1643 124h157v69h-157z" style="fill:#323232;stroke:#3e3e3e;stroke-width:1.5px;clip-path:inset(1px 0)"/><text x="1643" y="124" dx="15" dy="41" style="font-size:20px;fill:#fff">enigma_db</text><use href="#cce" style="fill:#646464" transform="matrix(.2 0 0 .2 1775 152)"/><path d="M1800 124h292v69h-292z" style="fill:#323232;stroke:#3e3e3e;stroke-width:1.5px;clip-path:inset(1px 0)"/><use href="#pkw" style="fill:#fff" transform="matrix(.38 0 0 .38 1812 144)"/><text x="1800" y="124" dx="46" dy="41" style="font-size:20px;fill:#fff">enigma_db - Picons <tspan style="font-size:15px">…</tspan></text><use href="#cce" style="fill:#646464" transform="matrix(.2 0 0 .2 2068 152)"/><path d="M2092 124h154v69h-154z" style="fill:#323232;stroke:#3e3e3e;stroke-width:1.5px;clip-path:inset(1px 0)"/><text x="2092" y="124" dx="15" dy="41" style="font-size:20px;fill:#fff">neutrino</text><use href="#cce" style="fill:#646464" transform="matrix(.2 0 0 .2 2222 152)"/><path d="M2246 124h292v69h-292z" style="fill:#2a4f7b;stroke:#234065;stroke-width:1.5px;clip-path:inset(1px 0)"/><use href="#tnw" style="fill:#fff" transform="matrix(.38 0 0 .38 2258 144)"/><text x="2246" y="124" dx="46" dy="41" style="font-size:20px;fill:#fff">enigma_db - Edit Set<tspan style="font-size:15px">…</tspan></text><use href="#cce" style="fill:#fff" transform="matrix(.2 0 0 .2 2515 152)"/><path d="M2538 124h293v69h-293z" style="fill:#323232;stroke:#3e3e3e;stroke-width:1.5px;clip-path:inset(1px 0)"/><use href="#cbw" style="fill:#fff" transform="matrix(.38 0 0 .38 2551 144)"/><text x="2538" y="124" dx="46" dy="41" style="font-size:20px;fill:#fff">enigma_db - Channe<tspan style="font-size:15px">…</tspan></text><use href="#cce" style="fill:#646464" transform="matrix(.2 0 0 .2 2807 152)"/><path d="M2830 125h1v67h-1z" style="fill:#3a3a3a"/><path d="M1522 192h1716v100H1522z" style="fill:#313333"/><use href="#fin" style="fill:#c7c8c8" transform="matrix(.38 0 0 .38 1546 217)"/><text x="1530" y="192" dx="69" dy="59" style="font-size:26px;fill:#fff;fill-opacity:.89;text-shadow:0 .5px 1px #090909">Open</text><use href="#fje" style="fill:#c7c8c8" transform="matrix(.38 0 0 .38 1699 217)"/><text x="1684" y="192" dx="69" dy="59" style="font-size:26px;fill:#fff;fill-opacity:.89;text-shadow:0 .5px 1px #090909">Save</text><path d="M1846 212h1v61h-1z" style="fill:none;stroke:#fff;stroke-opacity:.3;stroke-dasharray:1px,3px"/><use href="#fgt" style="fill:#c7c8c8" transform="matrix(.38 0 0 .38 1864 217)"/><text x="1848" y="192" dx="69" dy="59" style="font-size:26px;fill:#fff;fill-opacity:.89;text-shadow:0 .5px 1px #090909">Import</text><use href="#fft" style="fill:#c7c8c8" transform="matrix(.38 0 0 .38 2032 217)"/><text x="2014" y="192" dx="69" dy="59" style="font-size:26px;fill:#fff;fill-opacity:.89;text-shadow:0 .5px 1px #090909">Export</text><path d="M2196 212h1v61h-1z" style="fill:none;stroke:#fff;stroke-opacity:.3;stroke-dasharray:1px,3px"/><use href="#sms" style="fill:#c7c8c8" transform="matrix(.38 0 0 .38 2213 217)"/><text x="2198" y="192" dx="69" dy="59" style="font-size:26px;fill:#fff;fill-opacity:.89;text-shadow:0 .5px 1px #090909">Settings</text><rect width="125" height="30" x="2489" y="224" rx="8" style="fill:#fff;fill-opacity:.24;stroke:url(#bqm);stroke-width:.4px;filter:url(#bsm)"/><rect width="24" height="24" x="2586.5" y="227" rx="8" style="fill:url(#brm);stroke:url(#bqm);stroke-opacity:.06;stroke-width:2px"/><use href="#aom" style="fill:#fff" transform="matrix(.16 0 0 .16 2593.4 229.7)"/><use href="#aom" style="fill:#fff" transform="matrix(.16 0 0 -.16 2593.4 248.7)"/><text x="2489" y="224" dx="12" dy="22" style="font-size:20px;fill:#fff;fill-opacity:.92">Profile 1</text><text x="2636" y="192" dx="15" dy="59" style="font-size:26px;fill:#fff;fill-opacity:.89;text-shadow:0 .5px 1px #090909">Connect</text><text x="2769" y="192" dx="15" dy="59" style="font-size:26px;fill:#fff;fill-opacity:.89;text-shadow:0 .5px 1px #090909">Disconnect</text><path d="M2941 212h1v61h-1z" style="fill:none;stroke:#fff;stroke-opacity:.3;stroke-dasharray:1px,3px"/><text x="2953" y="192" dx="15" dy="59" style="font-size:26px;fill:#fff;fill-opacity:.89;text-shadow:0 .5px 1px #090909">Upload</text><text x="3072" y="192" dx="15" dy="59" style="font-size:26px;fill:#fff;fill-opacity:.89;text-shadow:0 .5px 1px #090909">Download</text><path d="M1520 192h1720v100H1520z" style="fill:none;stroke:#324040;stroke-width:2.4px;clip-path:inset(0 2px)"/><path d="M1522 291h1716v835H1522z" style="fill:#2f3131"/><text x="1522" y="291" dx="10" dy="33" style="font-weight:700;font-size:20px;fill:#fff">Satellites</text><use href="#ees" style="fill:#ced0d0" transform="matrix(.38 0 0 .38 1853 303)"/><path d="M1522 340h380v26h-380z" style="fill:#323232"/><text x="1522" y="340" dy="18" style="font-size:17px;fill:#fff"><tspan x="1529">Name</tspan> <tspan x="1826">Position</tspan></text><path d="M1820 343h.5v19h-.5z" style="fill:none;stroke:#c7c7c7;stroke-width:1px"/><path d="M1522 366h380v687h-380z" style="fill:#171717"/><path d="M1522 448h380v44h-380z" style="fill:#303030"/><text x="1522" y="366" dy="29" style="font-size:19px;fill:#fff"><tspan x="1537">Hispasat 30W</tspan> <tspan x="1829">30.0W</tspan></text><text x="1522" y="407" dy="29" style="font-size:19px;fill:#fff"><tspan x="1537">Eutelsat 7W</tspan> <tspan x="1829">7.0W</tspan></text><text x="1522" y="448" dy="29" style="font-size:19px;fill:#fff"><tspan x="1537">Hot Bird</tspan> <tspan x="1829">13.0E</tspan></text><text x="1522" y="491" dy="29" style="font-size:19px;fill:#fff"><tspan x="1537">Badr 5/7/8 C</tspan> <tspan x="1829">26.0E</tspan></text><text x="1522" y="531" dy="29" style="font-size:19px;fill:#fff"><tspan x="1537">Badr 5/7/8 Ku</tspan> <tspan x="1829">26.0E</tspan></text><path d="M1522 1054h380v73h-380z" style="fill:#202121"/><path d="M1520 1053h384v73h-384z" style="fill:none;stroke:#2d2e2e;stroke-width:2.4px;clip-path:inset(0 2px 2px)"/><use href="#aad" style="fill:#ced0d0" transform="matrix(.25 0 0 .25 1541 1080)"/><text x="1535" y="1064" dx="28" dy="33" style="font-weight:700;font-size:21px;fill:#fff;fill-opacity:.89;text-shadow:0 .5px 1px #090909">Position</text><rect width="128" height="32" x="1754" y="1072" rx="8" style="fill:#fff;fill-opacity:.24;stroke:url(#bqm);stroke-width:.4px;filter:url(#bsm)"/><use href="#slh" style="fill:#ced0d0" transform="matrix(.38 0 0 .38 1774 1075)"/><text x="1754" y="1072" dx="54" dy="22" style="font-size:20px;fill:#fff;fill-opacity:.78">Find<tspan style="font-size:15px">…</tspan></text><ellipse cx="467.4" cy="708.4" rx="4" style="fill:#444646"/><text x="1913" y="291" dx="10" dy="32" style="font-weight:700;font-size:20px;fill:#fff">Transponders</text><path d="M1913 340h1325v26H1913z" style="fill:#323232"/><text x="1913" y="340" dy="18" style="font-size:17px;fill:#fff"><tspan x="1921">Freq/Pol/SR</tspan> <tspan x="2157">Frequency</tspan> <tspan x="2276">Polarization</tspan> <tspan x="2395">Symbol Rate</tspan> <tspan x="2515">System</tspan> <tspan x="2616">FEC</tspan> <tspan x="2715">Modulation</tspan> <tspan x="2826">Inversion</tspan> <tspan x="2920">Roll offset</tspan> <tspan x="3021">Pilot</tspan></text><path d="M2150 343h.5v19h-.5z" style="fill:none;stroke:#c7c7c7;stroke-width:1px"/><path d="M2269 343h.5v19h-.5z" style="fill:none;stroke:#c7c7c7;stroke-width:1px"/><path d="M2387 343h.5v19h-.5z" style="fill:none;stroke:#c7c7c7;stroke-width:1px"/><path d="M2508 343h.5v19h-.5z" style="fill:none;stroke:#c7c7c7;stroke-width:1px"/><path d="M2609 343h.5v19h-.5z" style="fill:none;stroke:#c7c7c7;stroke-width:1px"/><path d="M2708 343h.5v19h-.5z" style="fill:none;stroke:#c7c7c7;stroke-width:1px"/><path d="M2819 343h.5v19h-.5z" style="fill:none;stroke:#c7c7c7;stroke-width:1px"/><path d="M2913 343h.5v19h-.5z" style="fill:none;stroke:#c7c7c7;stroke-width:1px"/><path d="M3014 343h.5v19h-.5z" style="fill:none;stroke:#c7c7c7;stroke-width:1px"/><path d="M1913 366h1325v687H1913z" style="fill:#171717"/><path d="M1913 576h1325v44H1913z" style="fill:#303030"/><text x="1913" y="366" dy="29" style="font-size:19px;fill:#fff"><tspan x="1924">10719/V/27500</tspan> <tspan x="2159">10719</tspan> <tspan x="2278">V</tspan> <tspan x="2397">27500</tspan> <tspan x="2515">DVB-S2</tspan> <tspan x="2618">3/4</tspan> <tspan x="2716">8PSK</tspan></text><text x="1913" y="407" dy="29" style="font-size:19px;fill:#fff"><tspan x="1924">10728/H/30000</tspan> <tspan x="2159">10728</tspan> <tspan x="2278">H</tspan> <tspan x="2397">30000</tspan> <tspan x="2515">DVB-S2</tspan> <tspan x="2618">3/4</tspan> <tspan x="2716">8PSK</tspan></text><text x="1913" y="448" dy="29" style="font-size:19px;fill:#fff"><tspan x="1924">10758/V/27500</tspan> <tspan x="2159">10758</tspan> <tspan x="2278">V</tspan> <tspan x="2397">27500</tspan> <tspan x="2515">DVB-S2</tspan> <tspan x="2618">3/4</tspan> <tspan x="2716">8PSK</tspan></text><text x="1913" y="491" dy="29" style="font-size:19px;fill:#fff"><tspan x="1924">10775/H/27500</tspan> <tspan x="2159">10775</tspan> <tspan x="2278">H</tspan> <tspan x="2397">27500</tspan> <tspan x="2515">DVB-S</tspan> <tspan x="2618">Auto</tspan> <tspan x="2716">Auto</tspan></text><text x="1913" y="533" dy="29" style="font-size:19px;fill:#fff"><tspan x="1924">10775/H/29900</tspan> <tspan x="2159">10775</tspan> <tspan x="2278">H</tspan> <tspan x="2397">29900</tspan> <tspan x="2515">DVB-S</tspan> <tspan x="2618">Auto</tspan> <tspan x="2716">Auto</tspan></text><text x="1913" y="576" dy="29" style="font-size:19px;fill:#fff"><tspan x="1924">10796/V/27500</tspan> <tspan x="2159">10796</tspan> <tspan x="2278">V</tspan> <tspan x="2397">27500</tspan> <tspan x="2515">DVB-S2</tspan> <tspan x="2618">3/4</tspan> <tspan x="2716">8PSK</tspan></text><text x="1913" y="618" dy="29" style="font-size:19px;fill:#fff"><tspan x="1924">10815/H/27500</tspan> <tspan x="2159">10815</tspan> <tspan x="2278">H</tspan> <tspan x="2397">27500</tspan> <tspan x="2515">DVB-S</tspan> <tspan x="2618">5/6</tspan> <tspan x="2716">QPSK</tspan></text><text x="1913" y="662" dy="29" style="font-size:19px;fill:#fff"><tspan x="1924">10834/V/27500</tspan> <tspan x="2159">10834</tspan> <tspan x="2278">V</tspan> <tspan x="2397">27500</tspan> <tspan x="2515">DVB-S</tspan> <tspan x="2618">Auto</tspan> <tspan x="2716">Auto</tspan></text><text x="1913" y="705" dy="29" style="font-size:19px;fill:#fff"><tspan x="1924">10853/H/29900</tspan> <tspan x="2159">10853</tspan> <tspan x="2278">H</tspan> <tspan x="2397">29900</tspan> <tspan x="2515">DVB-S</tspan> <tspan x="2618">Auto</tspan> <tspan x="2716">Auto</tspan></text><text x="1913" y="749" dy="29" style="font-size:19px;fill:#fff"><tspan x="1924">10872/V/27500</tspan> <tspan x="2159">10872</tspan> <tspan x="2278">V</tspan> <tspan x="2397">27500</tspan> <tspan x="2515">DVB-S2</tspan> <tspan x="2618">3/4</tspan> <tspan x="2716">8PSK</tspan></text><text x="1913" y="791" dy="29" style="font-size:19px;fill:#fff"><tspan x="1924">10873/V/27500</tspan> <tspan x="2159">10873</tspan> <tspan x="2278">V</tspan> <tspan x="2397">27500</tspan> <tspan x="2515">DVB-S2</tspan> <tspan x="2618">3/4</tspan> <tspan x="2716">8PSK</tspan></text><text x="1913" y="834" dy="29" style="font-size:19px;fill:#fff"><tspan x="1924">10892/H/27500</tspan> <tspan x="2159">10892</tspan> <tspan x="2278">H</tspan> <tspan x="2397">27500</tspan> <tspan x="2515">DVB-S</tspan> <tspan x="2618">Auto</tspan> <tspan x="2716">Auto</tspan></text><text x="1913" y="876" dy="29" style="font-size:19px;fill:#fff"><tspan x="1924">10911/V/27500</tspan> <tspan x="2159">10911</tspan> <tspan x="2278">V</tspan> <tspan x="2397">27500</tspan> <tspan x="2515">DVB-S2</tspan> <tspan x="2618">3/4</tspan> <tspan x="2716">8PSK</tspan></text><text x="1913" y="918" dy="29" style="font-size:19px;fill:#fff"><tspan x="1924">10930/H/30000</tspan> <tspan x="2159">10930</tspan> <tspan x="2278">H</tspan> <tspan x="2397">30000</tspan> <tspan x="2515">DVB-S2</tspan> <tspan x="2618">2/3</tspan> <tspan x="2716">8PSK</tspan></text><text x="1913" y="958" dy="29" style="font-size:19px;fill:#fff"><tspan x="1924">10949/V/27500</tspan> <tspan x="2159">10949</tspan> <tspan x="2278">V</tspan> <tspan x="2397">27500</tspan> <tspan x="2515">DVB-S2</tspan> <tspan x="2618">2/3</tspan> <tspan x="2716">8PSK</tspan></text><rect width="12" height="72" x="3222" y="368" rx="7" style="fill:#8b8b8b"/><path d="M1913 992h1325v61H1913z" style="fill:#101010"/><rect width="174" height="30" x="1923" y="1004" rx="8" style="fill:#fff;fill-opacity:.24;stroke:url(#bqm);stroke-width:.4px;filter:url(#bsm)"/><text x="1923" y="1004" dx="12" dy="22" style="font-size:20px;fill:#fff;fill-opacity:.92">Freq/Pol/SR</text><rect width="24" height="24" x="2070.5" y="1007" rx="8" style="fill:url(#brm);stroke:url(#bqm);stroke-opacity:.06;stroke-width:2px"/><use href="#aom" style="fill:#fff" transform="matrix(.16 0 0 .16 2077.4 1009.7)"/><use href="#aom" style="fill:#fff" transform="matrix(.16 0 0 -.16 2077.4 1028.7)"/><rect width="208" height="33" x="2107" y="1003" rx="0" style="fill:#fff;fill-opacity:.08;stroke:#fff;stroke-opacity:.11;stroke-width:4px;clip-path:inset(3px 3px .4px)"/><text x="2107" y="1003" dx="4" dy="23" style="font-size:19px;fill:#fff">10796/V</text><rect width="82" height="33" x="2325" y="1003" rx="4" style="fill:#323232"/><text x="2325" y="1003" dx="40" dy="23" style="font-size:19px;fill:#fff;fill-opacity:.78" text-anchor="middle">Find</text><rect width="166" height="33" x="2416" y="1003" rx="4" style="fill:#323232"/><text x="2416" y="1003" dx="83" dy="23" style="font-size:19px;fill:#fff;fill-opacity:.78" text-anchor="middle">Find Previous</text><rect width="110" height="33" x="2591" y="1003" rx="4" style="fill:#323232"/><text x="2591" y="1003" dx="55" dy="23" style="font-size:19px;fill:#fff;fill-opacity:.78" text-anchor="middle">Find All</text><rect width="126" height="31" x="2734" y="1004" rx="4" style="fill:#25456c;stroke:#d1d2d2;stroke-width:1px"/><text x="2734" y="1004" dx="62" dy="22" style="font-size:18px;fill:#fff;fill-opacity:.9" text-anchor="middle">Highlight</text><use href="#cce" style="fill:#c7c7c7" transform="matrix(.23 0 0 .23 3204 1013)"/><path d="M1913 1054h1325v73H1913z" style="fill:#202121"/><path d="M1911 1053h1329v73H1911z" style="fill:none;stroke:#2d2e2e;stroke-width:2.4px;clip-path:inset(0 2px 2px)"/><use href="#aad" style="fill:#c7c7c7" transform="matrix(.26 0 0 .26 1932 1080)"/><text x="1927" y="1064" dx="28" dy="33" style="font-weight:700;font-size:21px;fill:#fff;fill-opacity:.89;text-shadow:0 .5px 1px #090909">Transponder</text><rect width="128" height="32" x="3092" y="1072" rx="8" style="fill:#fff;fill-opacity:.24;stroke:url(#bqm);stroke-width:.4px;filter:url(#bsm)"/><use href="#slh" style="fill:#c7c7c7" transform="matrix(.38 0 0 .38 3104 1075)"/><text x="3092" y="1072" dx="46" dy="22" style="font-size:20px;fill:#fff;fill-opacity:.78">Find<tspan style="font-size:15px">…</tspan></text><path d="M1520 291h1720v836H1520z" style="fill:none;stroke:#404242;stroke-width:2.4px;clip-path:inset(0 2px)"/><rect width="1716" height="56" x="1522" y="1164" rx="15" style="fill:#2f3131;clip-path:inset(15px 0 0)"/><path d="M1520 1179h1720v42H1520z" style="fill:none;stroke:#404242;stroke-width:2.5px;clip-path:inset(0 2px 42px)"/><text x="1522" y="1179" dx="29" dy="29" style="font-size:20px;fill:#fff"><tspan>Transponders: 102</tspan> <tspan dx="10">Position: 13.0E</tspan></text><text x="1522" y="1179" dx="1535" dy="29" style="font-size:20px;fill:#fff"><tspan>Total: 251</tspan></text><use href="#fho" style="fill:#fff;fill-opacity:.76" transform="matrix(.38 0 0 .38 3181 1188)"/><rect width="1718" height="1140" x="1521" y="81" rx="15" style="fill:none;stroke:#a6bbb9;stroke-width:1px"/><rect width="1714" height="1136" x="1523" y="83" rx="15" style="fill:none;stroke:#fff;stroke-opacity:.24;stroke-width:1px"/></g></svg>