<svg xmlns="http://www.w3.org/2000/svg" viewBox="0 0 1422 800"><g fill="none" stroke="#6eeefc" stroke-linecap="round" stroke-width="7.5"><path d="m0 0 20 20M40 0 20 20M60 0 40 20M60 0l20 20m0-20 20 20m0-20 20 20m0-20 20 20m20-20-20 20m20-20 20 20m0-20 20 20m0-20 20 20m0-20 20 20m20-20-20 20m20-20 20 20m0-20 20 20m20-20-20 20m20-20 20 20m20-20-20 20m40-20-20 20m20-20 20 20m20-20-20 20m20-20 20 20m0-20 20 20m0-20 20 20m0-20 20 20m0-20 20 20m0-20 20 20m20-20-20 20m20-20 20 20m0-20 20 20m0-20 20 20m0-20 20 20m20-20-20 20m20-20 20 20m20-20-20 20m20-20 20 20m0-20 20 20m20-20-20 20m40-20-20 20m20-20 20 20m0-20 20 20m0-20 20 20m0-20 20 20m0-20 20 20m20-20-20 20m20-20 20 20m20-20-20 20m20-20 20 20m20-20-20 20m20-20 20 20m0-20 20 20m20-20-20 20m20-20 20 20m0-20 20 20m0-20 20 20m0-20 20 20m0-20 20 20m20-20-20 20m20-20 20 20m20-20-20 20m20-20 20 20m0-20 20 20m20-20-20 20m20-20 20 20m0-20 20 20m20-20-20 20m20-20 20 20m0-20 20 20m0-20 20 20m20-20-20 20m40-20-20 20m20-20 20 20" opacity=".03"/><path d="M20 20 0 40m40-20L20 40m20-20 20 20m0-20 20 20m20-20L80 40m20-20 20 20m0-20 20 20m0-20 20 20m0-20 20 20m0-20 20 20m0-20 20 20m0-20 20 20m0-20 20 20m0-20 20 20m20-20-20 20m20-20 20 20m0-20 20 20m0-20 20 20m0-20 20 20m20-20-20 20m40-20-20 20m20-20 20 20m0-20 20 20m20-20-20 20m40-20-20 20m20-20 20 20m0-20 20 20m20-20-20 20m20-20 20 20m20-20-20 20m20-20 20 20m0-20 20 20m20-20-20 20m20-20 20 20m0-20 20 20m20-20-20 20m20-20 20 20m0-20 20 20m0-20 20 20m0-20 20 20m0-20 20 20m0-20 20 20m0-20 20 20m0-20 20 20m0-20 20 20m0-20 20 20m0-20 20 20m0-20 20 20m20-20-20 20m20-20 20 20m20-20-20 20m20-20 20 20m20-20-20 20m20-20 20 20m20-20-20 20m20-20 20 20m0-20 20 20m0-20 20 20m0-20 20 20m20-20-20 20m40-20-20 20m20-20 20 20m20-20-20 20m20-20 20 20m0-20 20 20m20-20-20 20m20-20 20 20m0-20 20 20m20-20-20 20m20-20 20 20m0-20 20 20m20-20-20 20" opacity=".05"/><path d="m0 40 20 20m20-20L20 60m20-20 20 20m0-20 20 20m0-20 20 20m0-20 20 20m20-20-20 20m20-20 20 20m20-20-20 20m20-20 20 20m0-20 20 20m0-20 20 20m0-20 20 20m0-20 20 20m0-20 20 20m20-20-20 20m20-20 20 20m0-20 20 20m20-20-20 20m20-20 20 20m0-20 20 20m20-20-20 20m40-20-20 20m20-20 20 20m20-20-20 20m20-20 20 20m0-20 20 20m0-20 20 20m0-20 20 20m0-20 20 20m0-20 20 20m0-20 20 20m0-20 20 20m20-20-20 20m20-20 20 20m0-20 20 20m0-20 20 20m20-20-20 20m20-20 20 20m0-20 20 20m0-20 20 20m20-20-20 20m40-20-20 20m20-20 20 20m0-20 20 20m0-20 20 20m20-20-20 20m20-20 20 20m20-20-20 20m40-20-20 20m20-20 20 20m0-20 20 20m0-20 20 20m0-20 20 20m20-20-20 20m20-20 20 20m0-20 20 20m20-20-20 20m40-20-20 20m20-20 20 20m0-20 20 20m0-20 20 20m0-20 20 20m0-20 20 20m20-20-20 20m40-20-20 20m40-20-20 20m20-20 20 20m20-20-20 20m20-20 20 20m0-20 20 20m0-20 20 20" opacity=".1"/><path d="m0 60 20 20m0-20 20 20m20-20L40 80m40-20L60 80m20-20 20 20m0-20 20 20m20-20-20 20m40-20-20 20m20-20 20 20m20-20-20 20m20-20 20 20m0-20 20 20m20-20-20 20m20-20 20 20m0-20 20 20m20-20-20 20m20-20 20 20m0-20 20 20m20-20-20 20m20-20 20 20m20-20-20 20m40-20-20 20m20-20 20 20m0-20 20 20m0-20 20 20m0-20 20 20m0-20 20 20m20-20-20 20m40-20-20 20m20-20 20 20m0-20 20 20m0-20 20 20m0-20 20 20m0-20 20 20m0-20 20 20m0-20 20 20m20-20-20 20m40-20-20 20m20-20 20 20m0-20 20 20m20-20-20 20m40-20-20 20m40-20-20 20m40-20-20 20m20-20 20 20m20-20-20 20m20-20 20 20m0-20 20 20m0-20 20 20m20-20-20 20m20-20 20 20m0-20 20 20m0-20 20 20m0-20 20 20m0-20 20 20m0-20 20 20m20-20-20 20m20-20 20 20m20-20-20 20m20-20 20 20m20-20-20 20m40-20-20 20m20-20 20 20m0-20 20 20m0-20 20 20m0-20 20 20m20-20-20 20m20-20 20 20m0-20 20 20m20-20-20 20m40-20-20 20m20-20 20 20" opacity=".12"/><path d="M20 80 0 100m20-20 20 20m20-20-20 20m20-20 20 20m20-20-20 20m40-20-20 20m40-20-20 20m20-20 20 20m20-20-20 20m20-20 20 20m0-20 20 20m0-20 20 20m0-20 20 20m20-20-20 20m20-20 20 20m0-20 20 20m20-20-20 20m20-20 20 20m20-20-20 20m40-20-20 20m20-20 20 20m0-20 20 20m0-20 20 20m0-20 20 20m0-20 20 20m20-20-20 20m40-20-20 20m40-20-20 20m40-20-20 20m40-20-20 20m40-20-20 20m20-20 20 20m0-20 20 20m20-20-20 20m40-20-20 20m20-20 20 20m0-20 20 20m0-20 20 20m0-20 20 20m0-20 20 20m0-20 20 20m0-20 20 20m0-20 20 20m0-20 20 20m20-20-20 20m20-20 20 20m20-20-20 20m40-20-20 20m40-20-20 20m20-20 20 20m20-20-20 20m20-20 20 20m20-20-20 20m20-20 20 20m20-20-20 20m20-20 20 20m0-20 20 20m20-20-20 20m20-20 20 20m0-20 20 20m20-20-20 20m20-20 20 20m0-20 20 20m20-20-20 20m20-20 20 20m0-20 20 20m20-20-20 20m20-20 20 20m20-20-20 20m20-20 20 20m0-20 20 20m20-20-20 20" opacity=".15"/><path d="m0 100 20 20m0-20 20 20m20-20-20 20m20-20 20 20m20-20-20 20m20-20 20 20m0-20 20 20m0-20 20 20m0-20 20 20m0-20 20 20m0-20 20 20m0-20 20 20m0-20 20 20m20-20-20 20m20-20 20 20m0-20 20 20m0-20 20 20m0-20 20 20m0-20 20 20m0-20 20 20m0-20 20 20m20-20-20 20m20-20 20 20m0-20 20 20m0-20 20 20m20-20-20 20m20-20 20 20m0-20 20 20m0-20 20 20m20-20-20 20m20-20 20 20m20-20-20 20m40-20-20 20m20-20 20 20m0-20 20 20m20-20-20 20m40-20-20 20m40-20-20 20m40-20-20 20m20-20 20 20m0-20 20 20m0-20 20 20m20-20-20 20m40-20-20 20m40-20-20 20m20-20 20 20m20-20-20 20m20-20 20 20m20-20-20 20m20-20 20 20m20-20-20 20m20-20 20 20m0-20 20 20m0-20 20 20m0-20 20 20m0-20 20 20m0-20 20 20m0-20 20 20m0-20 20 20m0-20 20 20m20-20-20 20m40-20-20 20m20-20 20 20m20-20-20 20m20-20 20 20m20-20-20 20m20-20 20 20m20-20-20 20m40-20-20 20m20-20 20 20m20-20-20 20m20-20 20 20" opacity=".17"/><path d="m0 120 20 20m0-20 20 20m0-20 20 20m0-20 20 20m20-20-20 20m20-20 20 20m0-20 20 20m0-20 20 20m0-20 20 20m0-20 20 20m20-20-20 20m40-20-20 20m20-20 20 20m0-20 20 20m0-20 20 20m20-20-20 20m40-20-20 20m20-20 20 20m20-20-20 20m20-20 20 20m0-20 20 20m0-20 20 20m20-20-20 20m40-20-20 20m20-20 20 20m0-20 20 20m0-20 20 20m0-20 20 20m0-20 20 20m0-20 20 20m20-20-20 20m20-20 20 20m20-20-20 20m40-20-20 20m40-20-20 20m40-20-20 20m40-20-20 20m20-20 20 20m0-20 20 20m0-20 20 20m20-20-20 20m20-20 20 20m0-20 20 20m0-20 20 20m0-20 20 20m0-20 20 20m0-20 20 20m0-20 20 20m0-20 20 20m0-20 20 20m0-20 20 20m20-20-20 20m20-20 20 20m0-20 20 20m0-20 20 20m0-20 20 20m0-20 20 20m0-20 20 20m20-20-20 20m20-20 20 20m0-20 20 20m0-20 20 20m0-20 20 20m20-20-20 20m20-20 20 20m0-20 20 20m20-20-20 20m20-20 20 20m0-20 20 20m0-20 20 20m20-20-20 20m20-20 20 20" opacity=".19"/><path d="m0 140 20 20m0-20 20 20m0-20 20 20m0-20 20 20m0-20 20 20m20-20-20 20m20-20 20 20m20-20-20 20m20-20 20 20m0-20 20 20m20-20-20 20m20-20 20 20m0-20 20 20m20-20-20 20m20-20 20 20m0-20 20 20m0-20 20 20m20-20-20 20m40-20-20 20m20-20 20 20m20-20-20 20m20-20 20 20m20-20-20 20m40-20-20 20m20-20 20 20m0-20 20 20m0-20 20 20m0-20 20 20m0-20 20 20m0-20 20 20m20-20-20 20m20-20 20 20m0-20 20 20m20-20-20 20m40-20-20 20m20-20 20 20m0-20 20 20m20-20-20 20m20-20 20 20m0-20 20 20m0-20 20 20m20-20-20 20m20-20 20 20m20-20-20 20m20-20 20 20m0-20 20 20m0-20 20 20m0-20 20 20m0-20 20 20m20-20-20 20m20-20 20 20m0-20 20 20m0-20 20 20m0-20 20 20m20-20-20 20m40-20-20 20m20-20 20 20m0-20 20 20m0-20 20 20m20-20-20 20m20-20 20 20m0-20 20 20m0-20 20 20m0-20 20 20m0-20 20 20m0-20 20 20m0-20 20 20m0-20 20 20m0-20 20 20m0-20 20 20m0-20 20 20m20-20-20 20" opacity=".22"/><path d="m0 160 20 20m0-20 20 20m0-20 20 20m20-20-20 20m20-20 20 20m0-20 20 20m0-20 20 20m20-20-20 20m40-20-20 20m40-20-20 20m20-20 20 20m0-20 20 20m0-20 20 20m0-20 20 20m20-20-20 20m20-20 20 20m20-20-20 20m20-20 20 20m0-20 20 20m20-20-20 20m40-20-20 20m20-20 20 20m0-20 20 20m20-20-20 20m20-20 20 20m0-20 20 20m20-20-20 20m40-20-20 20m40-20-20 20m40-20-20 20m40-20-20 20m20-20 20 20m0-20 20 20m0-20 20 20m20-20-20 20m20-20 20 20m0-20 20 20m0-20 20 20m20-20-20 20m40-20-20 20m20-20 20 20m20-20-20 20m40-20-20 20m40-20-20 20m20-20 20 20m0-20 20 20m0-20 20 20m20-20-20 20m20-20 20 20m0-20 20 20m0-20 20 20m20-20-20 20m20-20 20 20m0-20 20 20m0-20 20 20m20-20-20 20m20-20 20 20m0-20 20 20m0-20 20 20m0-20 20 20m20-20-20 20m20-20 20 20m0-20 20 20m0-20 20 20m20-20-20 20m40-20-20 20m40-20-20 20m40-20-20 20m40-20-20 20m40-20-20 20m40-20-20 20m20-20 20 20" opacity=".24"/><path d="m0 180 20 20m0-20 20 20m0-20 20 20m0-20 20 20m0-20 20 20m0-20 20 20m20-20-20 20m20-20 20 20m0-20 20 20m0-20 20 20m0-20 20 20m0-20 20 20m20-20-20 20m40-20-20 20m20-20 20 20m0-20 20 20m0-20 20 20m0-20 20 20m0-20 20 20m20-20-20 20m40-20-20 20m20-20 20 20m0-20 20 20m20-20-20 20m20-20 20 20m0-20 20 20m0-20 20 20m0-20 20 20m20-20-20 20m20-20 20 20m0-20 20 20m0-20 20 20m0-20 20 20m0-20 20 20m0-20 20 20m20-20-20 20m20-20 20 20m20-20-20 20m20-20 20 20m0-20 20 20m0-20 20 20m0-20 20 20m0-20 20 20m0-20 20 20m20-20-20 20m20-20 20 20m20-20-20 20m20-20 20 20m0-20 20 20m0-20 20 20m0-20 20 20m20-20-20 20m40-20-20 20m20-20 20 20m0-20 20 20m20-20-20 20m20-20 20 20m20-20-20 20m20-20 20 20m20-20-20 20m20-20 20 20m0-20 20 20m20-20-20 20m20-20 20 20m0-20 20 20m0-20 20 20m0-20 20 20m20-20-20 20m20-20 20 20m0-20 20 20m0-20 20 20m20-20-20 20" opacity=".26"/><path d="M20 200 0 220m40-20-20 20m20-20 20 20m20-20-20 20m20-20 20 20m0-20 20 20m20-20-20 20m20-20 20 20m20-20-20 20m40-20-20 20m20-20 20 20m0-20 20 20m0-20 20 20m0-20 20 20m20-20-20 20m20-20 20 20m0-20 20 20m0-20 20 20m0-20 20 20m20-20-20 20m20-20 20 20m0-20 20 20m0-20 20 20m20-20-20 20m20-20 20 20m20-20-20 20m40-20-20 20m20-20 20 20m20-20-20 20m40-20-20 20m40-20-20 20m20-20 20 20m0-20 20 20m0-20 20 20m20-20-20 20m20-20 20 20m20-20-20 20m40-20-20 20m40-20-20 20m20-20 20 20m0-20 20 20m0-20 20 20m0-20 20 20m20-20-20 20m20-20 20 20m0-20 20 20m0-20 20 20m0-20 20 20m20-20-20 20m20-20 20 20m20-20-20 20m20-20 20 20m0-20 20 20m0-20 20 20m0-20 20 20m0-20 20 20m20-20-20 20m20-20 20 20m0-20 20 20m0-20 20 20m0-20 20 20m0-20 20 20m20-20-20 20m20-20 20 20m0-20 20 20m0-20 20 20m0-20 20 20m0-20 20 20m0-20 20 20m0-20 20 20m0-20 20 20m0-20 20 20" opacity=".29"/><path d="m0 220 20 20m0-20 20 20m0-20 20 20m20-20-20 20m20-20 20 20m0-20 20 20m20-20-20 20m20-20 20 20m20-20-20 20m20-20 20 20m0-20 20 20m20-20-20 20m40-20-20 20m20-20 20 20m20-20-20 20m20-20 20 20m0-20 20 20m0-20 20 20m20-20-20 20m20-20 20 20m0-20 20 20m0-20 20 20m20-20-20 20m20-20 20 20m0-20 20 20m0-20 20 20m20-20-20 20m20-20 20 20m0-20 20 20m20-20-20 20m20-20 20 20m20-20-20 20m20-20 20 20m0-20 20 20m20-20-20 20m40-20-20 20m40-20-20 20m20-20 20 20m0-20 20 20m0-20 20 20m0-20 20 20m20-20-20 20m40-20-20 20m40-20-20 20m20-20 20 20m20-20-20 20m20-20 20 20m20-20-20 20m20-20 20 20m0-20 20 20m0-20 20 20m20-20-20 20m20-20 20 20m0-20 20 20m20-20-20 20m40-20-20 20m20-20 20 20m0-20 20 20m20-20-20 20m20-20 20 20m0-20 20 20m0-20 20 20m0-20 20 20m20-20-20 20m20-20 20 20m0-20 20 20m20-20-20 20m20-20 20 20m0-20 20 20m0-20 20 20m20-20-20 20m20-20 20 20" opacity=".31"/><path d="m0 240 20 20m0-20 20 20m0-20 20 20m20-20-20 20m20-20 20 20m20-20-20 20m20-20 20 20m0-20 20 20m0-20 20 20m0-20 20 20m0-20 20 20m0-20 20 20m20-20-20 20m40-20-20 20m20-20 20 20m20-20-20 20m20-20 20 20m0-20 20 20m20-20-20 20m20-20 20 20m0-20 20 20m0-20 20 20m0-20 20 20m0-20 20 20m0-20 20 20m20-20-20 20m40-20-20 20m20-20 20 20m0-20 20 20m0-20 20 20m0-20 20 20m20-20-20 20m20-20 20 20m0-20 20 20m0-20 20 20m0-20 20 20m20-20-20 20m20-20 20 20m20-20-20 20m20-20 20 20m0-20 20 20m20-20-20 20m20-20 20 20m0-20 20 20m0-20 20 20m0-20 20 20m0-20 20 20m20-20-20 20m20-20 20 20m0-20 20 20m0-20 20 20m0-20 20 20m20-20-20 20m20-20 20 20m0-20 20 20m20-20-20 20m20-20 20 20m0-20 20 20m0-20 20 20m20-20-20 20m20-20 20 20m20-20-20 20m20-20 20 20m0-20 20 20m20-20-20 20m40-20-20 20m40-20-20 20m20-20 20 20m20-20-20 20m20-20 20 20m20-20-20 20m20-20 20 20" opacity=".34"/><path d="M20 260 0 280m20-20 20 20m0-20 20 20m20-20-20 20m20-20 20 20m0-20 20 20m0-20 20 20m0-20 20 20m0-20 20 20m0-20 20 20m20-20-20 20m20-20 20 20m0-20 20 20m0-20 20 20m0-20 20 20m0-20 20 20m20-20-20 20m20-20 20 20m0-20 20 20m0-20 20 20m20-20-20 20m20-20 20 20m0-20 20 20m0-20 20 20m0-20 20 20m0-20 20 20m20-20-20 20m20-20 20 20m0-20 20 20m0-20 20 20m0-20 20 20m0-20 20 20m0-20 20 20m0-20 20 20m0-20 20 20m0-20 20 20m20-20-20 20m40-20-20 20m20-20 20 20m0-20 20 20m0-20 20 20m0-20 20 20m20-20-20 20m20-20 20 20m20-20-20 20m20-20 20 20m0-20 20 20m0-20 20 20m0-20 20 20m0-20 20 20m20-20-20 20m20-20 20 20m0-20 20 20m20-20-20 20m20-20 20 20m20-20-20 20m40-20-20 20m40-20-20 20m20-20 20 20m0-20 20 20m0-20 20 20m20-20-20 20m20-20 20 20m0-20 20 20m0-20 20 20m0-20 20 20m20-20-20 20m20-20 20 20m0-20 20 20m20-20-20 20m20-20 20 20m0-20 20 20" opacity=".36"/><path d="m0 280 20 20m0-20 20 20m0-20 20 20m0-20 20 20m0-20 20 20m0-20 20 20m0-20 20 20m0-20 20 20m20-20-20 20m20-20 20 20m0-20 20 20m20-20-20 20m20-20 20 20m20-20-20 20m20-20 20 20m0-20 20 20m0-20 20 20m0-20 20 20m20-20-20 20m40-20-20 20m40-20-20 20m20-20 20 20m20-20-20 20m20-20 20 20m20-20-20 20m20-20 20 20m20-20-20 20m20-20 20 20m20-20-20 20m40-20-20 20m40-20-20 20m20-20 20 20m0-20 20 20m20-20-20 20m40-20-20 20m20-20 20 20m0-20 20 20m20-20-20 20m20-20 20 20m20-20-20 20m20-20 20 20m20-20-20 20m20-20 20 20m0-20 20 20m20-20-20 20m20-20 20 20m0-20 20 20m0-20 20 20m0-20 20 20m20-20-20 20m40-20-20 20m40-20-20 20m20-20 20 20m20-20-20 20m40-20-20 20m40-20-20 20m40-20-20 20m40-20-20 20m20-20 20 20m0-20 20 20m0-20 20 20m20-20-20 20m20-20 20 20m20-20-20 20m20-20 20 20m20-20-20 20m20-20 20 20m0-20 20 20m0-20 20 20m0-20 20 20m0-20 20 20m0-20 20 20" opacity=".38"/><path d="m0 300 20 20m20-20-20 20m40-20-20 20m20-20 20 20m0-20 20 20m0-20 20 20m0-20 20 20m20-20-20 20m40-20-20 20m20-20 20 20m0-20 20 20m0-20 20 20m20-20-20 20m40-20-20 20m20-20 20 20m0-20 20 20m0-20 20 20m0-20 20 20m0-20 20 20m0-20 20 20m20-20-20 20m40-20-20 20m20-20 20 20m20-20-20 20m40-20-20 20m20-20 20 20m0-20 20 20m0-20 20 20m20-20-20 20m20-20 20 20m0-20 20 20m0-20 20 20m0-20 20 20m0-20 20 20m0-20 20 20m20-20-20 20m20-20 20 20m20-20-20 20m20-20 20 20m0-20 20 20m0-20 20 20m0-20 20 20m0-20 20 20m20-20-20 20m40-20-20 20m20-20 20 20m0-20 20 20m20-20-20 20m20-20 20 20m0-20 20 20m0-20 20 20m0-20 20 20m0-20 20 20m0-20 20 20m0-20 20 20m0-20 20 20m0-20 20 20m0-20 20 20m20-20-20 20m20-20 20 20m20-20-20 20m20-20 20 20m0-20 20 20m0-20 20 20m20-20-20 20m40-20-20 20m40-20-20 20m40-20-20 20m20-20 20 20m0-20 20 20m0-20 20 20m20-20-20 20" opacity=".41"/><path d="M20 320 0 340m20-20 20 20m0-20 20 20m0-20 20 20m20-20-20 20m20-20 20 20m0-20 20 20m0-20 20 20m20-20-20 20m40-20-20 20m20-20 20 20m0-20 20 20m20-20-20 20m20-20 20 20m20-20-20 20m40-20-20 20m40-20-20 20m20-20 20 20m0-20 20 20m0-20 20 20m20-20-20 20m20-20 20 20m0-20 20 20m0-20 20 20m0-20 20 20m0-20 20 20m0-20 20 20m0-20 20 20m20-20-20 20m20-20 20 20m20-20-20 20m20-20 20 20m0-20 20 20m20-20-20 20m20-20 20 20m20-20-20 20m40-20-20 20m20-20 20 20m0-20 20 20m0-20 20 20m0-20 20 20m0-20 20 20m0-20 20 20m0-20 20 20m0-20 20 20m20-20-20 20m40-20-20 20m20-20 20 20m0-20 20 20m0-20 20 20m20-20-20 20m40-20-20 20m20-20 20 20m0-20 20 20m0-20 20 20m20-20-20 20m20-20 20 20m20-20-20 20m20-20 20 20m20-20-20 20m20-20 20 20m0-20 20 20m0-20 20 20m0-20 20 20m0-20 20 20m0-20 20 20m0-20 20 20m0-20 20 20m0-20 20 20m20-20-20 20m20-20 20 20m20-20-20 20" opacity=".43"/><path d="M20 340 0 360m20-20 20 20m20-20-20 20m20-20 20 20m20-20-20 20m40-20-20 20m20-20 20 20m0-20 20 20m20-20-20 20m20-20 20 20m0-20 20 20m0-20 20 20m20-20-20 20m20-20 20 20m20-20-20 20m20-20 20 20m0-20 20 20m20-20-20 20m20-20 20 20m0-20 20 20m0-20 20 20m0-20 20 20m0-20 20 20m0-20 20 20m0-20 20 20m20-20-20 20m20-20 20 20m0-20 20 20m0-20 20 20m0-20 20 20m0-20 20 20m0-20 20 20m20-20-20 20m20-20 20 20m0-20 20 20m20-20-20 20m20-20 20 20m0-20 20 20m20-20-20 20m20-20 20 20m0-20 20 20m20-20-20 20m20-20 20 20m20-20-20 20m20-20 20 20m20-20-20 20m20-20 20 20m20-20-20 20m40-20-20 20m20-20 20 20m0-20 20 20m0-20 20 20m0-20 20 20m0-20 20 20m0-20 20 20m0-20 20 20m0-20 20 20m0-20 20 20m0-20 20 20m20-20-20 20m20-20 20 20m0-20 20 20m0-20 20 20m20-20-20 20m20-20 20 20m0-20 20 20m20-20-20 20m40-20-20 20m40-20-20 20m20-20 20 20m20-20-20 20m20-20 20 20" opacity=".45"/><path d="M20 360 0 380m20-20 20 20m0-20 20 20m20-20-20 20m20-20 20 20m20-20-20 20m20-20 20 20m20-20-20 20m20-20 20 20m0-20 20 20m0-20 20 20m0-20 20 20m0-20 20 20m20-20-20 20m20-20 20 20m0-20 20 20m20-20-20 20m40-20-20 20m40-20-20 20m40-20-20 20m40-20-20 20m20-20 20 20m0-20 20 20m0-20 20 20m20-20-20 20m40-20-20 20m40-20-20 20m40-20-20 20m20-20 20 20m20-20-20 20m40-20-20 20m20-20 20 20m0-20 20 20m0-20 20 20m20-20-20 20m20-20 20 20m0-20 20 20m0-20 20 20m0-20 20 20m0-20 20 20m20-20-20 20m20-20 20 20m0-20 20 20m0-20 20 20m20-20-20 20m20-20 20 20m0-20 20 20m20-20-20 20m40-20-20 20m20-20 20 20m0-20 20 20m20-20-20 20m40-20-20 20m20-20 20 20m0-20 20 20m0-20 20 20m0-20 20 20m20-20-20 20m40-20-20 20m20-20 20 20m0-20 20 20m0-20 20 20m0-20 20 20m20-20-20 20m20-20 20 20m0-20 20 20m0-20 20 20m20-20-20 20m40-20-20 20m20-20 20 20m0-20 20 20m20-20-20 20" opacity=".48"/><path d="m0 380 20 20m0-20 20 20m0-20 20 20m0-20 20 20m0-20 20 20m20-20-20 20m40-20-20 20m20-20 20 20m20-20-20 20m20-20 20 20m20-20-20 20m20-20 20 20m0-20 20 20m20-20-20 20m40-20-20 20m20-20 20 20m20-20-20 20m40-20-20 20m20-20 20 20m0-20 20 20m20-20-20 20m40-20-20 20m40-20-20 20m20-20 20 20m0-20 20 20m0-20 20 20m0-20 20 20m20-20-20 20m20-20 20 20m20-20-20 20m40-20-20 20m40-20-20 20m20-20 20 20m20-20-20 20m20-20 20 20m0-20 20 20m0-20 20 20m0-20 20 20m20-20-20 20m40-20-20 20m20-20 20 20m0-20 20 20m0-20 20 20m20-20-20 20m40-20-20 20m40-20-20 20m20-20 20 20m0-20 20 20m20-20-20 20m20-20 20 20m20-20-20 20m20-20 20 20m0-20 20 20m0-20 20 20m20-20-20 20m20-20 20 20m0-20 20 20m0-20 20 20m0-20 20 20m20-20-20 20m20-20 20 20m0-20 20 20m20-20-20 20m20-20 20 20m0-20 20 20m0-20 20 20m0-20 20 20m0-20 20 20m20-20-20 20m20-20 20 20m0-20 20 20m0-20 20 20" opacity=".5"/><path d="m0 400 20 20m0-20 20 20m0-20 20 20m20-20-20 20m20-20 20 20m0-20 20 20m20-20-20 20m20-20 20 20m20-20-20 20m20-20 20 20m0-20 20 20m0-20 20 20m0-20 20 20m0-20 20 20m0-20 20 20m0-20 20 20m20-20-20 20m20-20 20 20m0-20 20 20m0-20 20 20m0-20 20 20m0-20 20 20m0-20 20 20m0-20 20 20m20-20-20 20m20-20 20 20m20-20-20 20m20-20 20 20m20-20-20 20m20-20 20 20m20-20-20 20m40-20-20 20m20-20 20 20m0-20 20 20m0-20 20 20m0-20 20 20m20-20-20 20m20-20 20 20m0-20 20 20m0-20 20 20m0-20 20 20m20-20-20 20m40-20-20 20m40-20-20 20m20-20 20 20m20-20-20 20m40-20-20 20m20-20 20 20m0-20 20 20m0-20 20 20m0-20 20 20m0-20 20 20m0-20 20 20m0-20 20 20m20-20-20 20m20-20 20 20m20-20-20 20m20-20 20 20m0-20 20 20m20-20-20 20m20-20 20 20m0-20 20 20m0-20 20 20m20-20-20 20m20-20 20 20m0-20 20 20m0-20 20 20m0-20 20 20m0-20 20 20m20-20-20 20m40-20-20 20m20-20 20 20" opacity=".53"/><path d="m0 420 20 20m0-20 20 20m20-20-20 20m20-20 20 20m20-20-20 20m20-20 20 20m20-20-20 20m40-20-20 20m20-20 20 20m0-20 20 20m0-20 20 20m20-20-20 20m20-20 20 20m0-20 20 20m0-20 20 20m0-20 20 20m0-20 20 20m0-20 20 20m20-20-20 20m20-20 20 20m0-20 20 20m0-20 20 20m0-20 20 20m20-20-20 20m40-20-20 20m40-20-20 20m20-20 20 20m0-20 20 20m0-20 20 20m0-20 20 20m0-20 20 20m20-20-20 20m20-20 20 20m20-20-20 20m20-20 20 20m20-20-20 20m20-20 20 20m0-20 20 20m20-20-20 20m40-20-20 20m20-20 20 20m0-20 20 20m0-20 20 20m0-20 20 20m0-20 20 20m0-20 20 20m0-20 20 20m0-20 20 20m0-20 20 20m0-20 20 20m20-20-20 20m20-20 20 20m0-20 20 20m0-20 20 20m20-20-20 20m20-20 20 20m20-20-20 20m20-20 20 20m0-20 20 20m20-20-20 20m20-20 20 20m0-20 20 20m20-20-20 20m20-20 20 20m20-20-20 20m20-20 20 20m0-20 20 20m20-20-20 20m20-20 20 20m20-20-20 20m20-20 20 20m0-20 20 20" opacity=".55"/><path d="M20 440 0 460m40-20-20 20m40-20-20 20m20-20 20 20m20-20-20 20m40-20-20 20m20-20 20 20m0-20 20 20m0-20 20 20m0-20 20 20m0-20 20 20m0-20 20 20m0-20 20 20m0-20 20 20m20-20-20 20m20-20 20 20m0-20 20 20m0-20 20 20m0-20 20 20m0-20 20 20m0-20 20 20m20-20-20 20m20-20 20 20m0-20 20 20m0-20 20 20m0-20 20 20m0-20 20 20m0-20 20 20m0-20 20 20m0-20 20 20m20-20-20 20m20-20 20 20m0-20 20 20m20-20-20 20m20-20 20 20m0-20 20 20m0-20 20 20m0-20 20 20m0-20 20 20m0-20 20 20m0-20 20 20m20-20-20 20m20-20 20 20m20-20-20 20m20-20 20 20m20-20-20 20m40-20-20 20m20-20 20 20m0-20 20 20m0-20 20 20m20-20-20 20m40-20-20 20m20-20 20 20m20-20-20 20m20-20 20 20m0-20 20 20m0-20 20 20m0-20 20 20m20-20-20 20m20-20 20 20m20-20-20 20m20-20 20 20m0-20 20 20m0-20 20 20m0-20 20 20m0-20 20 20m20-20-20 20m20-20 20 20m0-20 20 20m0-20 20 20m0-20 20 20m0-20 20 20" opacity=".57"/><path d="M20 460 0 480m20-20 20 20m0-20 20 20m0-20 20 20m20-20-20 20m20-20 20 20m0-20 20 20m0-20 20 20m20-20-20 20m40-20-20 20m40-20-20 20m40-20-20 20m20-20 20 20m20-20-20 20m20-20 20 20m0-20 20 20m0-20 20 20m20-20-20 20m20-20 20 20m0-20 20 20m0-20 20 20m0-20 20 20m0-20 20 20m0-20 20 20m0-20 20 20m0-20 20 20m20-20-20 20m40-20-20 20m40-20-20 20m20-20 20 20m0-20 20 20m20-20-20 20m20-20 20 20m0-20 20 20m0-20 20 20m20-20-20 20m20-20 20 20m0-20 20 20m0-20 20 20m0-20 20 20m0-20 20 20m0-20 20 20m0-20 20 20m0-20 20 20m0-20 20 20m0-20 20 20m20-20-20 20m40-20-20 20m20-20 20 20m0-20 20 20m20-20-20 20m20-20 20 20m20-20-20 20m40-20-20 20m20-20 20 20m0-20 20 20m0-20 20 20m0-20 20 20m0-20 20 20m20-20-20 20m20-20 20 20m0-20 20 20m0-20 20 20m20-20-20 20m20-20 20 20m20-20-20 20m40-20-20 20m20-20 20 20m20-20-20 20m40-20-20 20m20-20 20 20m20-20-20 20" opacity=".6"/><path d="m0 480 20 20m0-20 20 20m0-20 20 20m20-20-20 20m20-20 20 20m0-20 20 20m0-20 20 20m0-20 20 20m20-20-20 20m20-20 20 20m20-20-20 20m40-20-20 20m20-20 20 20m0-20 20 20m0-20 20 20m0-20 20 20m0-20 20 20m0-20 20 20m0-20 20 20m0-20 20 20m20-20-20 20m20-20 20 20m20-20-20 20m20-20 20 20m20-20-20 20m20-20 20 20m0-20 20 20m0-20 20 20m20-20-20 20m20-20 20 20m0-20 20 20m0-20 20 20m20-20-20 20m40-20-20 20m20-20 20 20m0-20 20 20m0-20 20 20m0-20 20 20m20-20-20 20m40-20-20 20m20-20 20 20m0-20 20 20m20-20-20 20m40-20-20 20m40-20-20 20m20-20 20 20m0-20 20 20m0-20 20 20m0-20 20 20m0-20 20 20m0-20 20 20m0-20 20 20m0-20 20 20m20-20-20 20m20-20 20 20m0-20 20 20m0-20 20 20m0-20 20 20m0-20 20 20m20-20-20 20m20-20 20 20m0-20 20 20m20-20-20 20m40-20-20 20m20-20 20 20m20-20-20 20m40-20-20 20m20-20 20 20m0-20 20 20m0-20 20 20m0-20 20 20m0-20 20 20" opacity=".62"/><path d="m0 500 20 20m20-20-20 20m20-20 20 20m0-20 20 20m0-20 20 20m0-20 20 20m20-20-20 20m20-20 20 20m20-20-20 20m40-20-20 20m40-20-20 20m20-20 20 20m20-20-20 20m20-20 20 20m0-20 20 20m0-20 20 20m0-20 20 20m20-20-20 20m20-20 20 20m0-20 20 20m0-20 20 20m20-20-20 20m20-20 20 20m0-20 20 20m0-20 20 20m0-20 20 20m20-20-20 20m20-20 20 20m0-20 20 20m20-20-20 20m20-20 20 20m20-20-20 20m20-20 20 20m0-20 20 20m0-20 20 20m0-20 20 20m0-20 20 20m0-20 20 20m0-20 20 20m20-20-20 20m20-20 20 20m0-20 20 20m0-20 20 20m20-20-20 20m20-20 20 20m20-20-20 20m20-20 20 20m0-20 20 20m0-20 20 20m0-20 20 20m0-20 20 20m20-20-20 20m20-20 20 20m20-20-20 20m20-20 20 20m20-20-20 20m20-20 20 20m0-20 20 20m0-20 20 20m0-20 20 20m0-20 20 20m20-20-20 20m20-20 20 20m20-20-20 20m40-20-20 20m20-20 20 20m0-20 20 20m0-20 20 20m0-20 20 20m0-20 20 20m0-20 20 20m0-20 20 20" opacity=".64"/><path d="m0 520 20 20m0-20 20 20m0-20 20 20m0-20 20 20m20-20-20 20m20-20 20 20m20-20-20 20m20-20 20 20m0-20 20 20m0-20 20 20m0-20 20 20m20-20-20 20m40-20-20 20m20-20 20 20m0-20 20 20m20-20-20 20m20-20 20 20m0-20 20 20m0-20 20 20m0-20 20 20m0-20 20 20m20-20-20 20m40-20-20 20m20-20 20 20m0-20 20 20m20-20-20 20m40-20-20 20m20-20 20 20m20-20-20 20m20-20 20 20m0-20 20 20m0-20 20 20m0-20 20 20m20-20-20 20m40-20-20 20m20-20 20 20m0-20 20 20m20-20-20 20m20-20 20 20m20-20-20 20m20-20 20 20m20-20-20 20m20-20 20 20m0-20 20 20m0-20 20 20m0-20 20 20m0-20 20 20m0-20 20 20m0-20 20 20m0-20 20 20m0-20 20 20m20-20-20 20m20-20 20 20m0-20 20 20m20-20-20 20m40-20-20 20m40-20-20 20m20-20 20 20m0-20 20 20m0-20 20 20m20-20-20 20m20-20 20 20m0-20 20 20m0-20 20 20m0-20 20 20m0-20 20 20m0-20 20 20m0-20 20 20m0-20 20 20m0-20 20 20m0-20 20 20m20-20-20 20" opacity=".67"/><path d="M20 540 0 560m20-20 20 20m20-20-20 20m20-20 20 20m20-20-20 20m40-20-20 20m20-20 20 20m0-20 20 20m0-20 20 20m0-20 20 20m0-20 20 20m0-20 20 20m0-20 20 20m0-20 20 20m0-20 20 20m0-20 20 20m20-20-20 20m40-20-20 20m20-20 20 20m0-20 20 20m0-20 20 20m20-20-20 20m40-20-20 20m40-20-20 20m40-20-20 20m20-20 20 20m0-20 20 20m20-20-20 20m20-20 20 20m0-20 20 20m20-20-20 20m20-20 20 20m0-20 20 20m0-20 20 20m0-20 20 20m20-20-20 20m20-20 20 20m0-20 20 20m0-20 20 20m0-20 20 20m20-20-20 20m20-20 20 20m0-20 20 20m0-20 20 20m0-20 20 20m0-20 20 20m0-20 20 20m0-20 20 20m0-20 20 20m0-20 20 20m0-20 20 20m0-20 20 20m0-20 20 20m0-20 20 20m20-20-20 20m20-20 20 20m20-20-20 20m20-20 20 20m20-20-20 20m20-20 20 20m0-20 20 20m20-20-20 20m20-20 20 20m0-20 20 20m20-20-20 20m20-20 20 20m0-20 20 20m20-20-20 20m20-20 20 20m0-20 20 20m0-20 20 20m0-20 20 20" opacity=".69"/><path d="m0 560 20 20m0-20 20 20m20-20-20 20m20-20 20 20m20-20-20 20m20-20 20 20m0-20 20 20m0-20 20 20m0-20 20 20m20-20-20 20m40-20-20 20m20-20 20 20m20-20-20 20m20-20 20 20m20-20-20 20m20-20 20 20m0-20 20 20m20-20-20 20m20-20 20 20m0-20 20 20m20-20-20 20m20-20 20 20m0-20 20 20m0-20 20 20m0-20 20 20m0-20 20 20m20-20-20 20m20-20 20 20m20-20-20 20m20-20 20 20m20-20-20 20m20-20 20 20m0-20 20 20m0-20 20 20m20-20-20 20m20-20 20 20m0-20 20 20m0-20 20 20m0-20 20 20m0-20 20 20m20-20-20 20m20-20 20 20m20-20-20 20m40-20-20 20m20-20 20 20m20-20-20 20m20-20 20 20m20-20-20 20m20-20 20 20m0-20 20 20m0-20 20 20m20-20-20 20m20-20 20 20m0-20 20 20m0-20 20 20m0-20 20 20m20-20-20 20m40-20-20 20m20-20 20 20m20-20-20 20m20-20 20 20m20-20-20 20m20-20 20 20m0-20 20 20m0-20 20 20m20-20-20 20m40-20-20 20m40-20-20 20m40-20-20 20m20-20 20 20m20-20-20 20m20-20 20 20" opacity=".72"/><path d="M20 580 0 600m40-20-20 20m20-20 20 20m0-20 20 20m0-20 20 20m20-20-20 20m20-20 20 20m0-20 20 20m0-20 20 20m20-20-20 20m20-20 20 20m0-20 20 20m0-20 20 20m20-20-20 20m20-20 20 20m20-20-20 20m40-20-20 20m20-20 20 20m20-20-20 20m40-20-20 20m20-20 20 20m0-20 20 20m0-20 20 20m20-20-20 20m20-20 20 20m20-20-20 20m20-20 20 20m20-20-20 20m20-20 20 20m0-20 20 20m0-20 20 20m0-20 20 20m0-20 20 20m0-20 20 20m0-20 20 20m20-20-20 20m20-20 20 20m0-20 20 20m20-20-20 20m40-20-20 20m20-20 20 20m20-20-20 20m40-20-20 20m20-20 20 20m20-20-20 20m20-20 20 20m20-20-20 20m20-20 20 20m20-20-20 20m20-20 20 20m0-20 20 20m20-20-20 20m40-20-20 20m20-20 20 20m0-20 20 20m0-20 20 20m0-20 20 20m0-20 20 20m0-20 20 20m0-20 20 20m20-20-20 20m40-20-20 20m20-20 20 20m0-20 20 20m0-20 20 20m0-20 20 20m0-20 20 20m0-20 20 20m0-20 20 20m0-20 20 20m0-20 20 20m0-20 20 20" opacity=".74"/><path d="m0 600 20 20m0-20 20 20m0-20 20 20m0-20 20 20m0-20 20 20m20-20-20 20m20-20 20 20m0-20 20 20m0-20 20 20m0-20 20 20m0-20 20 20m20-20-20 20m20-20 20 20m20-20-20 20m20-20 20 20m0-20 20 20m20-20-20 20m20-20 20 20m20-20-20 20m40-20-20 20m40-20-20 20m20-20 20 20m0-20 20 20m0-20 20 20m0-20 20 20m0-20 20 20m0-20 20 20m20-20-20 20m20-20 20 20m20-20-20 20m20-20 20 20m0-20 20 20m20-20-20 20m20-20 20 20m0-20 20 20m0-20 20 20m0-20 20 20m0-20 20 20m0-20 20 20m20-20-20 20m20-20 20 20m0-20 20 20m0-20 20 20m0-20 20 20m0-20 20 20m20-20-20 20m20-20 20 20m0-20 20 20m0-20 20 20m0-20 20 20m0-20 20 20m0-20 20 20m0-20 20 20m20-20-20 20m20-20 20 20m0-20 20 20m0-20 20 20m0-20 20 20m0-20 20 20m0-20 20 20m0-20 20 20m0-20 20 20m0-20 20 20m0-20 20 20m20-20-20 20m20-20 20 20m0-20 20 20m20-20-20 20m20-20 20 20m0-20 20 20m0-20 20 20m20-20-20 20" opacity=".76"/><path d="M20 620 0 640m20-20 20 20m20-20-20 20m40-20-20 20m40-20-20 20m40-20-20 20m20-20 20 20m0-20 20 20m0-20 20 20m20-20-20 20m20-20 20 20m0-20 20 20m0-20 20 20m0-20 20 20m0-20 20 20m20-20-20 20m40-20-20 20m40-20-20 20m40-20-20 20m40-20-20 20m40-20-20 20m20-20 20 20m20-20-20 20m20-20 20 20m0-20 20 20m0-20 20 20m20-20-20 20m20-20 20 20m20-20-20 20m20-20 20 20m20-20-20 20m40-20-20 20m40-20-20 20m20-20 20 20m0-20 20 20m0-20 20 20m20-20-20 20m20-20 20 20m20-20-20 20m20-20 20 20m20-20-20 20m20-20 20 20m0-20 20 20m20-20-20 20m20-20 20 20m0-20 20 20m0-20 20 20m0-20 20 20m0-20 20 20m20-20-20 20m20-20 20 20m20-20-20 20m20-20 20 20m0-20 20 20m0-20 20 20m20-20-20 20m20-20 20 20m0-20 20 20m0-20 20 20m0-20 20 20m0-20 20 20m0-20 20 20m20-20-20 20m20-20 20 20m0-20 20 20m0-20 20 20m0-20 20 20m0-20 20 20m0-20 20 20m0-20 20 20m0-20 20 20m0-20 20 20" opacity=".79"/><path d="m0 640 20 20m0-20 20 20m0-20 20 20m0-20 20 20m20-20-20 20m40-20-20 20m20-20 20 20m0-20 20 20m0-20 20 20m20-20-20 20m20-20 20 20m20-20-20 20m40-20-20 20m40-20-20 20m40-20-20 20m20-20 20 20m0-20 20 20m20-20-20 20m40-20-20 20m20-20 20 20m20-20-20 20m20-20 20 20m0-20 20 20m0-20 20 20m20-20-20 20m20-20 20 20m0-20 20 20m0-20 20 20m0-20 20 20m0-20 20 20m0-20 20 20m0-20 20 20m20-20-20 20m20-20 20 20m20-20-20 20m40-20-20 20m20-20 20 20m0-20 20 20m0-20 20 20m20-20-20 20m40-20-20 20m40-20-20 20m20-20 20 20m0-20 20 20m0-20 20 20m20-20-20 20m20-20 20 20m20-20-20 20m20-20 20 20m0-20 20 20m0-20 20 20m0-20 20 20m0-20 20 20m0-20 20 20m0-20 20 20m0-20 20 20m20-20-20 20m40-20-20 20m20-20 20 20m20-20-20 20m40-20-20 20m40-20-20 20m20-20 20 20m20-20-20 20m20-20 20 20m0-20 20 20m20-20-20 20m20-20 20 20m0-20 20 20m0-20 20 20m20-20-20 20m40-20-20 20" opacity=".81"/><path d="m0 660 20 20m0-20 20 20m0-20 20 20m0-20 20 20m0-20 20 20m20-20-20 20m20-20 20 20m20-20-20 20m40-20-20 20m20-20 20 20m0-20 20 20m0-20 20 20m0-20 20 20m0-20 20 20m0-20 20 20m20-20-20 20m40-20-20 20m20-20 20 20m20-20-20 20m20-20 20 20m0-20 20 20m20-20-20 20m20-20 20 20m0-20 20 20m0-20 20 20m0-20 20 20m20-20-20 20m20-20 20 20m0-20 20 20m20-20-20 20m20-20 20 20m20-20-20 20m20-20 20 20m20-20-20 20m40-20-20 20m20-20 20 20m0-20 20 20m0-20 20 20m0-20 20 20m0-20 20 20m20-20-20 20m40-20-20 20m20-20 20 20m0-20 20 20m0-20 20 20m0-20 20 20m20-20-20 20m40-20-20 20m40-20-20 20m40-20-20 20m40-20-20 20m40-20-20 20m40-20-20 20m20-20 20 20m0-20 20 20m0-20 20 20m20-20-20 20m20-20 20 20m0-20 20 20m20-20-20 20m20-20 20 20m20-20-20 20m40-20-20 20m40-20-20 20m20-20 20 20m0-20 20 20m20-20-20 20m20-20 20 20m20-20-20 20m20-20 20 20m0-20 20 20m0-20 20 20" opacity=".83"/><path d="m0 680 20 20m20-20-20 20m40-20-20 20m20-20 20 20m0-20 20 20m20-20-20 20m40-20-20 20m20-20 20 20m0-20 20 20m20-20-20 20m40-20-20 20m40-20-20 20m20-20 20 20m0-20 20 20m0-20 20 20m0-20 20 20m20-20-20 20m20-20 20 20m20-20-20 20m40-20-20 20m40-20-20 20m20-20 20 20m0-20 20 20m0-20 20 20m20-20-20 20m20-20 20 20m0-20 20 20m0-20 20 20m0-20 20 20m0-20 20 20m0-20 20 20m20-20-20 20m20-20 20 20m0-20 20 20m20-20-20 20m20-20 20 20m0-20 20 20m0-20 20 20m0-20 20 20m0-20 20 20m0-20 20 20m0-20 20 20m0-20 20 20m0-20 20 20m20-20-20 20m20-20 20 20m20-20-20 20m40-20-20 20m20-20 20 20m0-20 20 20m0-20 20 20m20-20-20 20m20-20 20 20m0-20 20 20m0-20 20 20m0-20 20 20m0-20 20 20m0-20 20 20m20-20-20 20m20-20 20 20m0-20 20 20m0-20 20 20m20-20-20 20m20-20 20 20m0-20 20 20m0-20 20 20m0-20 20 20m20-20-20 20m20-20 20 20m20-20-20 20m40-20-20 20m20-20 20 20" opacity=".86"/><path d="m0 700 20 20m0-20 20 20m0-20 20 20m0-20 20 20m0-20 20 20m0-20 20 20m0-20 20 20m0-20 20 20m20-20-20 20m40-20-20 20m20-20 20 20m0-20 20 20m0-20 20 20m0-20 20 20m0-20 20 20m0-20 20 20m0-20 20 20m0-20 20 20m0-20 20 20m0-20 20 20m0-20 20 20m20-20-20 20m20-20 20 20m20-20-20 20m20-20 20 20m0-20 20 20m0-20 20 20m0-20 20 20m0-20 20 20m20-20-20 20m40-20-20 20m40-20-20 20m20-20 20 20m0-20 20 20m0-20 20 20m0-20 20 20m20-20-20 20m20-20 20 20m0-20 20 20m0-20 20 20m0-20 20 20m0-20 20 20m0-20 20 20m0-20 20 20m0-20 20 20m0-20 20 20m0-20 20 20m20-20-20 20m20-20 20 20m0-20 20 20m0-20 20 20m0-20 20 20m0-20 20 20m0-20 20 20m0-20 20 20m20-20-20 20m20-20 20 20m0-20 20 20m20-20-20 20m40-20-20 20m20-20 20 20m0-20 20 20m0-20 20 20m0-20 20 20m0-20 20 20m0-20 20 20m0-20 20 20m0-20 20 20m0-20 20 20m20-20-20 20m20-20 20 20m0-20 20 20" opacity=".88"/><path d="m0 720 20 20m20-20-20 20m20-20 20 20m0-20 20 20m20-20-20 20m20-20 20 20m0-20 20 20m0-20 20 20m0-20 20 20m0-20 20 20m0-20 20 20m0-20 20 20m20-20-20 20m20-20 20 20m0-20 20 20m0-20 20 20m20-20-20 20m40-20-20 20m20-20 20 20m0-20 20 20m0-20 20 20m0-20 20 20m0-20 20 20m0-20 20 20m0-20 20 20m20-20-20 20m40-20-20 20m40-20-20 20m20-20 20 20m20-20-20 20m20-20 20 20m0-20 20 20m0-20 20 20m0-20 20 20m0-20 20 20m0-20 20 20m0-20 20 20m0-20 20 20m0-20 20 20m20-20-20 20m40-20-20 20m40-20-20 20m40-20-20 20m20-20 20 20m20-20-20 20m20-20 20 20m0-20 20 20m20-20-20 20m20-20 20 20m20-20-20 20m40-20-20 20m40-20-20 20m40-20-20 20m40-20-20 20m20-20 20 20m0-20 20 20m0-20 20 20m0-20 20 20m0-20 20 20m0-20 20 20m0-20 20 20m20-20-20 20m40-20-20 20m40-20-20 20m40-20-20 20m20-20 20 20m20-20-20 20m40-20-20 20m20-20 20 20m0-20 20 20m20-20-20 20m20-20 20 20" opacity=".91"/><path d="M20 740 0 760m20-20 20 20m0-20 20 20m0-20 20 20m20-20-20 20m40-20-20 20m40-20-20 20m20-20 20 20m20-20-20 20m20-20 20 20m0-20 20 20m0-20 20 20m0-20 20 20m20-20-20 20m40-20-20 20m20-20 20 20m0-20 20 20m0-20 20 20m20-20-20 20m40-20-20 20m40-20-20 20m20-20 20 20m0-20 20 20m20-20-20 20m20-20 20 20m0-20 20 20m20-20-20 20m20-20 20 20m0-20 20 20m20-20-20 20m20-20 20 20m20-20-20 20m20-20 20 20m20-20-20 20m40-20-20 20m40-20-20 20m20-20 20 20m20-20-20 20m40-20-20 20m20-20 20 20m20-20-20 20m20-20 20 20m20-20-20 20m20-20 20 20m0-20 20 20m20-20-20 20m40-20-20 20m40-20-20 20m20-20 20 20m0-20 20 20m0-20 20 20m0-20 20 20m0-20 20 20m0-20 20 20m20-20-20 20m20-20 20 20m20-20-20 20m20-20 20 20m0-20 20 20m0-20 20 20m0-20 20 20m20-20-20 20m20-20 20 20m0-20 20 20m20-20-20 20m20-20 20 20m20-20-20 20m20-20 20 20m0-20 20 20m0-20 20 20m0-20 20 20m0-20 20 20" opacity=".93"/><path d="m0 760 20 20m0-20 20 20m20-20-20 20m20-20 20 20m0-20 20 20m0-20 20 20m0-20 20 20m0-20 20 20m20-20-20 20m40-20-20 20m20-20 20 20m0-20 20 20m0-20 20 20m0-20 20 20m0-20 20 20m0-20 20 20m0-20 20 20m20-20-20 20m20-20 20 20m0-20 20 20m0-20 20 20m20-20-20 20m40-20-20 20m40-20-20 20m20-20 20 20m20-20-20 20m40-20-20 20m40-20-20 20m20-20 20 20m0-20 20 20m0-20 20 20m0-20 20 20m0-20 20 20m20-20-20 20m40-20-20 20m20-20 20 20m0-20 20 20m20-20-20 20m20-20 20 20m0-20 20 20m20-20-20 20m20-20 20 20m0-20 20 20m20-20-20 20m20-20 20 20m20-20-20 20m40-20-20 20m40-20-20 20m20-20 20 20m0-20 20 20m0-20 20 20m0-20 20 20m0-20 20 20m20-20-20 20m40-20-20 20m20-20 20 20m20-20-20 20m20-20 20 20m20-20-20 20m20-20 20 20m20-20-20 20m20-20 20 20m20-20-20 20m20-20 20 20m0-20 20 20m0-20 20 20m0-20 20 20m0-20 20 20m20-20-20 20m40-20-20 20m20-20 20 20m0-20 20 20" opacity=".95"/><path d="m0 780 20 20m0-20 20 20m0-20 20 20m0-20 20 20m0-20 20 20m0-20 20 20m0-20 20 20m20-20-20 20m40-20-20 20m20-20 20 20m0-20 20 20m20-20-20 20m40-20-20 20m20-20 20 20m0-20 20 20m0-20 20 20m0-20 20 20m0-20 20 20m0-20 20 20m0-20 20 20m0-20 20 20m0-20 20 20m0-20 20 20m0-20 20 20m20-20-20 20m20-20 20 20m0-20 20 20m0-20 20 20m20-20-20 20m40-20-20 20m20-20 20 20m0-20 20 20m20-20-20 20m20-20 20 20m20-20-20 20m20-20 20 20m0-20 20 20m0-20 20 20m0-20 20 20m20-20-20 20m40-20-20 20m40-20-20 20m40-20-20 20m20-20 20 20m0-20 20 20m20-20-20 20m20-20 20 20m20-20-20 20m20-20 20 20m0-20 20 20m0-20 20 20m20-20-20 20m20-20 20 20m0-20 20 20m0-20 20 20m0-20 20 20m0-20 20 20m0-20 20 20m0-20 20 20m0-20 20 20m0-20 20 20m0-20 20 20m0-20 20 20m0-20 20 20m0-20 20 20m0-20 20 20m20-20-20 20m40-20-20 20m40-20-20 20m20-20 20 20m0-20 20 20m20-20-20 20" opacity=".98"/><path d="m0 800 20 20m20-20-20 20m20-20 20 20m0-20 20 20m20-20-20 20m20-20 20 20m20-20-20 20m20-20 20 20m20-20-20 20m40-20-20 20m40-20-20 20m40-20-20 20m20-20 20 20m20-20-20 20m20-20 20 20m0-20 20 20m20-20-20 20m40-20-20 20m20-20 20 20m0-20 20 20m20-20-20 20m40-20-20 20m40-20-20 20m40-20-20 20m40-20-20 20m20-20 20 20m0-20 20 20m0-20 20 20m0-20 20 20m0-20 20 20m0-20 20 20m0-20 20 20m20-20-20 20m20-20 20 20m20-20-20 20m20-20 20 20m0-20 20 20m0-20 20 20m20-20-20 20m20-20 20 20m0-20 20 20m0-20 20 20m0-20 20 20m20-20-20 20m20-20 20 20m20-20-20 20m20-20 20 20m0-20 20 20m20-20-20 20m40-20-20 20m20-20 20 20m20-20-20 20m20-20 20 20m20-20-20 20m40-20-20 20m20-20 20 20m0-20 20 20m0-20 20 20m0-20 20 20m0-20 20 20m0-20 20 20m0-20 20 20m20-20-20 20m40-20-20 20m40-20-20 20m40-20-20 20m40-20-20 20m40-20-20 20m20-20 20 20m0-20 20 20m20-20-20 20m20-20 20 20"/></g></svg>