<svg xmlns="http://www.w3.org/2000/svg" viewBox="0 0 1422 800"><g fill="none" stroke="#6eeefc" stroke-linecap="round" stroke-width="7.5"><path d="m0 0 20 20M40 0 20 20M40 0l20 20m0-20 20 20m0-20 20 20m20-20-20 20m20-20 20 20m20-20-20 20m40-20-20 20m20-20 20 20m0-20 20 20m0-20 20 20m0-20 20 20m20-20-20 20m20-20 20 20m20-20-20 20m20-20 20 20m0-20 20 20m0-20 20 20m0-20 20 20m0-20 20 20m20-20-20 20m40-20-20 20m40-20-20 20m40-20-20 20m20-20 20 20m20-20-20 20m20-20 20 20m20-20-20 20m20-20 20 20m0-20 20 20m20-20-20 20m20-20 20 20m20-20-20 20m20-20 20 20m20-20-20 20m20-20 20 20m20-20-20 20m40-20-20 20m20-20 20 20m0-20 20 20m0-20 20 20m20-20-20 20m20-20 20 20m20-20-20 20m40-20-20 20m20-20 20 20m0-20 20 20m0-20 20 20m0-20 20 20m0-20 20 20m0-20 20 20m0-20 20 20m0-20 20 20m20-20-20 20m20-20 20 20m0-20 20 20m20-20-20 20m20-20 20 20m20-20-20 20m20-20 20 20m20-20-20 20m20-20 20 20m20-20-20 20m20-20 20 20m0-20 20 20m20-20-20 20m20-20 20 20m0-20 20 20m20-20-20 20m20-20 20 20m20-20-20 20" opacity=".5"/><path d="M20 20 0 40m20-20 20 20m0-20 20 20m20-20L60 40m20-20 20 20m20-20-20 20m20-20 20 20m20-20-20 20m40-20-20 20m20-20 20 20m0-20 20 20m20-20-20 20m20-20 20 20m0-20 20 20m20-20-20 20m40-20-20 20m20-20 20 20m0-20 20 20m20-20-20 20m20-20 20 20m0-20 20 20m0-20 20 20m20-20-20 20m20-20 20 20m20-20-20 20m20-20 20 20m0-20 20 20m0-20 20 20m20-20-20 20m40-20-20 20m40-20-20 20m40-20-20 20m40-20-20 20m20-20 20 20m20-20-20 20m20-20 20 20m20-20-20 20m40-20-20 20m40-20-20 20m40-20-20 20m40-20-20 20m20-20 20 20m0-20 20 20m0-20 20 20m0-20 20 20m0-20 20 20m20-20-20 20m20-20 20 20m0-20 20 20m0-20 20 20m0-20 20 20m0-20 20 20m20-20-20 20m20-20 20 20m0-20 20 20m20-20-20 20m20-20 20 20m20-20-20 20m40-20-20 20m20-20 20 20m0-20 20 20m20-20-20 20m40-20-20 20m20-20 20 20m20-20-20 20m40-20-20 20m20-20 20 20m0-20 20 20m0-20 20 20m0-20 20 20m0-20 20 20m20-20-20 20" opacity=".53"/><path d="M20 40 0 60m40-20L20 60m20-20 20 20m0-20 20 20m0-20 20 20m20-20-20 20m40-20-20 20m40-20-20 20m20-20 20 20m0-20 20 20m0-20 20 20m20-20-20 20m20-20 20 20m0-20 20 20m20-20-20 20m20-20 20 20m0-20 20 20m20-20-20 20m20-20 20 20m20-20-20 20m20-20 20 20m20-20-20 20m20-20 20 20m0-20 20 20m20-20-20 20m20-20 20 20m20-20-20 20m20-20 20 20m20-20-20 20m20-20 20 20m20-20-20 20m20-20 20 20m20-20-20 20m40-20-20 20m20-20 20 20m20-20-20 20m20-20 20 20m20-20-20 20m20-20 20 20m20-20-20 20m40-20-20 20m40-20-20 20m20-20 20 20m0-20 20 20m20-20-20 20m40-20-20 20m20-20 20 20m20-20-20 20m40-20-20 20m20-20 20 20m0-20 20 20m20-20-20 20m20-20 20 20m20-20-20 20m40-20-20 20m40-20-20 20m20-20 20 20m20-20-20 20m40-20-20 20m40-20-20 20m20-20 20 20m0-20 20 20m20-20-20 20m20-20 20 20m0-20 20 20m20-20-20 20m40-20-20 20m40-20-20 20m40-20-20 20m20-20 20 20m0-20 20 20m0-20 20 20" opacity=".55"/><path d="m0 60 20 20m0-20 20 20m0-20 20 20m0-20 20 20m0-20 20 20m0-20 20 20m0-20 20 20m0-20 20 20m20-20-20 20m20-20 20 20m0-20 20 20m0-20 20 20m20-20-20 20m40-20-20 20m40-20-20 20m20-20 20 20m20-20-20 20m20-20 20 20m0-20 20 20m20-20-20 20m20-20 20 20m0-20 20 20m20-20-20 20m20-20 20 20m0-20 20 20m0-20 20 20m20-20-20 20m40-20-20 20m40-20-20 20m20-20 20 20m0-20 20 20m0-20 20 20m0-20 20 20m20-20-20 20m40-20-20 20m40-20-20 20m40-20-20 20m40-20-20 20m20-20 20 20m20-20-20 20m20-20 20 20m0-20 20 20m0-20 20 20m0-20 20 20m20-20-20 20m20-20 20 20m0-20 20 20m0-20 20 20m0-20 20 20m0-20 20 20m0-20 20 20m0-20 20 20m0-20 20 20m20-20-20 20m40-20-20 20m40-20-20 20m40-20-20 20m20-20 20 20m0-20 20 20m20-20-20 20m40-20-20 20m20-20 20 20m20-20-20 20m20-20 20 20m0-20 20 20m20-20-20 20m40-20-20 20m20-20 20 20m20-20-20 20m20-20 20 20m20-20-20 20m20-20 20 20" opacity=".57"/><path d="m0 80 20 20m20-20-20 20m40-20-20 20m20-20 20 20m0-20 20 20m20-20-20 20m20-20 20 20m20-20-20 20m20-20 20 20m20-20-20 20m20-20 20 20m0-20 20 20m20-20-20 20m20-20 20 20m0-20 20 20m20-20-20 20m40-20-20 20m40-20-20 20m40-20-20 20m20-20 20 20m0-20 20 20m0-20 20 20m20-20-20 20m40-20-20 20m20-20 20 20m0-20 20 20m0-20 20 20m20-20-20 20m40-20-20 20m20-20 20 20m0-20 20 20m0-20 20 20m20-20-20 20m20-20 20 20m20-20-20 20m40-20-20 20m40-20-20 20m20-20 20 20m20-20-20 20m20-20 20 20m0-20 20 20m20-20-20 20m20-20 20 20m20-20-20 20m20-20 20 20m20-20-20 20m20-20 20 20m0-20 20 20m0-20 20 20m20-20-20 20m20-20 20 20m0-20 20 20m0-20 20 20m0-20 20 20m0-20 20 20m0-20 20 20m20-20-20 20m20-20 20 20m20-20-20 20m20-20 20 20m0-20 20 20m20-20-20 20m40-20-20 20m20-20 20 20m0-20 20 20m20-20-20 20m20-20 20 20m20-20-20 20m20-20 20 20m0-20 20 20m0-20 20 20m0-20 20 20" opacity=".6"/><path d="m0 100 20 20m0-20 20 20m0-20 20 20m0-20 20 20m0-20 20 20m20-20-20 20m20-20 20 20m20-20-20 20m40-20-20 20m20-20 20 20m0-20 20 20m20-20-20 20m40-20-20 20m40-20-20 20m40-20-20 20m20-20 20 20m0-20 20 20m0-20 20 20m20-20-20 20m20-20 20 20m20-20-20 20m20-20 20 20m20-20-20 20m20-20 20 20m0-20 20 20m0-20 20 20m0-20 20 20m0-20 20 20m20-20-20 20m40-20-20 20m20-20 20 20m0-20 20 20m20-20-20 20m20-20 20 20m0-20 20 20m20-20-20 20m40-20-20 20m40-20-20 20m20-20 20 20m20-20-20 20m40-20-20 20m20-20 20 20m0-20 20 20m0-20 20 20m20-20-20 20m20-20 20 20m0-20 20 20m0-20 20 20m0-20 20 20m0-20 20 20m0-20 20 20m20-20-20 20m40-20-20 20m20-20 20 20m0-20 20 20m0-20 20 20m0-20 20 20m0-20 20 20m0-20 20 20m0-20 20 20m20-20-20 20m40-20-20 20m40-20-20 20m40-20-20 20m40-20-20 20m40-20-20 20m40-20-20 20m20-20 20 20m20-20-20 20m20-20 20 20m0-20 20 20m20-20-20 20" opacity=".64"/><path d="M20 120 0 140m40-20-20 20m20-20 20 20m0-20 20 20m20-20-20 20m20-20 20 20m20-20-20 20m40-20-20 20m20-20 20 20m0-20 20 20m0-20 20 20m0-20 20 20m20-20-20 20m20-20 20 20m0-20 20 20m0-20 20 20m20-20-20 20m40-20-20 20m20-20 20 20m0-20 20 20m0-20 20 20m0-20 20 20m0-20 20 20m0-20 20 20m20-20-20 20m20-20 20 20m20-20-20 20m40-20-20 20m40-20-20 20m20-20 20 20m20-20-20 20m40-20-20 20m40-20-20 20m20-20 20 20m0-20 20 20m20-20-20 20m40-20-20 20m20-20 20 20m0-20 20 20m0-20 20 20m0-20 20 20m0-20 20 20m20-20-20 20m40-20-20 20m20-20 20 20m0-20 20 20m0-20 20 20m0-20 20 20m20-20-20 20m20-20 20 20m0-20 20 20m0-20 20 20m20-20-20 20m20-20 20 20m0-20 20 20m0-20 20 20m20-20-20 20m20-20 20 20m0-20 20 20m20-20-20 20m40-20-20 20m20-20 20 20m20-20-20 20m40-20-20 20m20-20 20 20m0-20 20 20m20-20-20 20m20-20 20 20m20-20-20 20m20-20 20 20m20-20-20 20m40-20-20 20" opacity=".67"/><path d="m0 140 20 20m20-20-20 20m20-20 20 20m0-20 20 20m20-20-20 20m20-20 20 20m0-20 20 20m20-20-20 20m20-20 20 20m20-20-20 20m20-20 20 20m20-20-20 20m40-20-20 20m20-20 20 20m20-20-20 20m20-20 20 20m0-20 20 20m0-20 20 20m0-20 20 20m20-20-20 20m40-20-20 20m40-20-20 20m40-20-20 20m20-20 20 20m0-20 20 20m0-20 20 20m0-20 20 20m0-20 20 20m0-20 20 20m0-20 20 20m0-20 20 20m0-20 20 20m0-20 20 20m0-20 20 20m20-20-20 20m20-20 20 20m0-20 20 20m0-20 20 20m20-20-20 20m40-20-20 20m20-20 20 20m0-20 20 20m0-20 20 20m0-20 20 20m0-20 20 20m0-20 20 20m0-20 20 20m20-20-20 20m40-20-20 20m20-20 20 20m0-20 20 20m0-20 20 20m20-20-20 20m20-20 20 20m0-20 20 20m20-20-20 20m20-20 20 20m0-20 20 20m0-20 20 20m0-20 20 20m20-20-20 20m40-20-20 20m40-20-20 20m40-20-20 20m20-20 20 20m20-20-20 20m40-20-20 20m20-20 20 20m20-20-20 20m40-20-20 20m20-20 20 20m0-20 20 20" opacity=".69"/><path d="M20 160 0 180m20-20 20 20m0-20 20 20m0-20 20 20m0-20 20 20m0-20 20 20m20-20-20 20m20-20 20 20m20-20-20 20m40-20-20 20m40-20-20 20m40-20-20 20m20-20 20 20m20-20-20 20m20-20 20 20m20-20-20 20m40-20-20 20m20-20 20 20m0-20 20 20m0-20 20 20m0-20 20 20m0-20 20 20m0-20 20 20m20-20-20 20m40-20-20 20m20-20 20 20m0-20 20 20m0-20 20 20m20-20-20 20m20-20 20 20m0-20 20 20m0-20 20 20m20-20-20 20m40-20-20 20m40-20-20 20m20-20 20 20m20-20-20 20m40-20-20 20m40-20-20 20m20-20 20 20m20-20-20 20m20-20 20 20m20-20-20 20m40-20-20 20m20-20 20 20m20-20-20 20m20-20 20 20m0-20 20 20m20-20-20 20m20-20 20 20m20-20-20 20m40-20-20 20m40-20-20 20m40-20-20 20m20-20 20 20m20-20-20 20m40-20-20 20m40-20-20 20m40-20-20 20m20-20 20 20m20-20-20 20m40-20-20 20m20-20 20 20m20-20-20 20m20-20 20 20m0-20 20 20m0-20 20 20m0-20 20 20m20-20-20 20m20-20 20 20m0-20 20 20m0-20 20 20" opacity=".72"/><path d="m0 180 20 20m0-20 20 20m0-20 20 20m20-20-20 20m20-20 20 20m0-20 20 20m20-20-20 20m40-20-20 20m20-20 20 20m0-20 20 20m0-20 20 20m0-20 20 20m0-20 20 20m20-20-20 20m20-20 20 20m20-20-20 20m20-20 20 20m0-20 20 20m0-20 20 20m0-20 20 20m0-20 20 20m20-20-20 20m40-20-20 20m40-20-20 20m40-20-20 20m20-20 20 20m0-20 20 20m0-20 20 20m20-20-20 20m20-20 20 20m0-20 20 20m20-20-20 20m40-20-20 20m20-20 20 20m0-20 20 20m20-20-20 20m40-20-20 20m40-20-20 20m40-20-20 20m20-20 20 20m0-20 20 20m20-20-20 20m40-20-20 20m40-20-20 20m40-20-20 20m20-20 20 20m20-20-20 20m40-20-20 20m40-20-20 20m40-20-20 20m40-20-20 20m20-20 20 20m20-20-20 20m20-20 20 20m0-20 20 20m0-20 20 20m20-20-20 20m20-20 20 20m0-20 20 20m0-20 20 20m0-20 20 20m0-20 20 20m20-20-20 20m40-20-20 20m40-20-20 20m20-20 20 20m0-20 20 20m0-20 20 20m0-20 20 20m0-20 20 20m20-20-20 20m40-20-20 20" opacity=".74"/><path d="m0 200 20 20m0-20 20 20m0-20 20 20m0-20 20 20m0-20 20 20m0-20 20 20m0-20 20 20m0-20 20 20m0-20 20 20m20-20-20 20m40-20-20 20m20-20 20 20m0-20 20 20m0-20 20 20m20-20-20 20m40-20-20 20m40-20-20 20m40-20-20 20m40-20-20 20m20-20 20 20m20-20-20 20m40-20-20 20m20-20 20 20m0-20 20 20m20-20-20 20m40-20-20 20m20-20 20 20m20-20-20 20m20-20 20 20m20-20-20 20m20-20 20 20m0-20 20 20m0-20 20 20m20-20-20 20m20-20 20 20m0-20 20 20m20-20-20 20m20-20 20 20m20-20-20 20m20-20 20 20m0-20 20 20m0-20 20 20m20-20-20 20m40-20-20 20m20-20 20 20m0-20 20 20m0-20 20 20m0-20 20 20m20-20-20 20m40-20-20 20m40-20-20 20m20-20 20 20m20-20-20 20m20-20 20 20m0-20 20 20m0-20 20 20m20-20-20 20m20-20 20 20m0-20 20 20m20-20-20 20m40-20-20 20m20-20 20 20m0-20 20 20m0-20 20 20m0-20 20 20m20-20-20 20m20-20 20 20m20-20-20 20m20-20 20 20m20-20-20 20m20-20 20 20m0-20 20 20M20 220 0 240m20-20 20 20m20-20-20 20m20-20 20 20m20-20-20 20m20-20 20 20m0-20 20 20m20-20-20 20m40-20-20 20m40-20-20 20m20-20 20 20m20-20-20 20m40-20-20 20m40-20-20 20m20-20 20 20m0-20 20 20m0-20 20 20m0-20 20 20m0-20 20 20m0-20 20 20m0-20 20 20m20-20-20 20m20-20 20 20m0-20 20 20m0-20 20 20m20-20-20 20m20-20 20 20m0-20 20 20m20-20-20 20m20-20 20 20m0-20 20 20m0-20 20 20m0-20 20 20m0-20 20 20m0-20 20 20m0-20 20 20m20-20-20 20m40-20-20 20m40-20-20 20m20-20 20 20m20-20-20 20m40-20-20 20m40-20-20 20m20-20 20 20m0-20 20 20m20-20-20 20m20-20 20 20m0-20 20 20m0-20 20 20m20-20-20 20m20-20 20 20m20-20-20 20m40-20-20 20m40-20-20 20m20-20 20 20m0-20 20 20m20-20-20 20m20-20 20 20m0-20 20 20m20-20-20 20m20-20 20 20m0-20 20 20m0-20 20 20m20-20-20 20m40-20-20 20m20-20 20 20m20-20-20 20m40-20-20 20m40-20-20 20m20-20 20 20m0-20 20 20m20-20-20 20" opacity=".76"/><path d="m0 240 20 20m0-20 20 20m0-20 20 20m0-20 20 20m0-20 20 20m0-20 20 20m20-20-20 20m20-20 20 20m0-20 20 20m0-20 20 20m0-20 20 20m0-20 20 20m20-20-20 20m20-20 20 20m0-20 20 20m0-20 20 20m20-20-20 20m20-20 20 20m20-20-20 20m40-20-20 20m40-20-20 20m20-20 20 20m0-20 20 20m20-20-20 20m40-20-20 20m40-20-20 20m20-20 20 20m20-20-20 20m20-20 20 20m0-20 20 20m0-20 20 20m20-20-20 20m20-20 20 20m20-20-20 20m20-20 20 20m0-20 20 20m0-20 20 20m0-20 20 20m0-20 20 20m20-20-20 20m20-20 20 20m0-20 20 20m20-20-20 20m40-20-20 20m20-20 20 20m0-20 20 20m0-20 20 20m0-20 20 20m0-20 20 20m20-20-20 20m40-20-20 20m20-20 20 20m20-20-20 20m20-20 20 20m20-20-20 20m20-20 20 20m20-20-20 20m20-20 20 20m20-20-20 20m20-20 20 20m20-20-20 20m20-20 20 20m20-20-20 20m20-20 20 20m20-20-20 20m20-20 20 20m20-20-20 20m20-20 20 20m0-20 20 20m0-20 20 20m0-20 20 20m20-20-20 20M0 260l20 20m0-20 20 20m20-20-20 20m40-20-20 20m40-20-20 20m40-20-20 20m40-20-20 20m20-20 20 20m20-20-20 20m40-20-20 20m20-20 20 20m0-20 20 20m20-20-20 20m20-20 20 20m0-20 20 20m20-20-20 20m20-20 20 20m0-20 20 20m0-20 20 20m20-20-20 20m20-20 20 20m0-20 20 20m0-20 20 20m20-20-20 20m20-20 20 20m20-20-20 20m40-20-20 20m20-20 20 20m20-20-20 20m20-20 20 20m0-20 20 20m0-20 20 20m0-20 20 20m20-20-20 20m20-20 20 20m20-20-20 20m20-20 20 20m0-20 20 20m0-20 20 20m20-20-20 20m20-20 20 20m0-20 20 20m20-20-20 20m20-20 20 20m0-20 20 20m0-20 20 20m0-20 20 20m0-20 20 20m0-20 20 20m0-20 20 20m20-20-20 20m20-20 20 20m0-20 20 20m20-20-20 20m40-20-20 20m20-20 20 20m0-20 20 20m0-20 20 20m0-20 20 20m20-20-20 20m20-20 20 20m20-20-20 20m20-20 20 20m20-20-20 20m40-20-20 20m20-20 20 20m20-20-20 20m20-20 20 20m0-20 20 20m0-20 20 20m0-20 20 20m0-20 20 20" opacity=".72"/><path d="M20 280 0 300m20-20 20 20m0-20 20 20m20-20-20 20m20-20 20 20m0-20 20 20m20-20-20 20m20-20 20 20m0-20 20 20m0-20 20 20m0-20 20 20m0-20 20 20m20-20-20 20m20-20 20 20m20-20-20 20m20-20 20 20m20-20-20 20m40-20-20 20m40-20-20 20m40-20-20 20m20-20 20 20m20-20-20 20m20-20 20 20m0-20 20 20m0-20 20 20m0-20 20 20m20-20-20 20m40-20-20 20m20-20 20 20m0-20 20 20m0-20 20 20m20-20-20 20m40-20-20 20m20-20 20 20m0-20 20 20m20-20-20 20m20-20 20 20m0-20 20 20m0-20 20 20m0-20 20 20m20-20-20 20m20-20 20 20m0-20 20 20m0-20 20 20m20-20-20 20m20-20 20 20m20-20-20 20m20-20 20 20m20-20-20 20m40-20-20 20m20-20 20 20m0-20 20 20m0-20 20 20m0-20 20 20m20-20-20 20m20-20 20 20m20-20-20 20m40-20-20 20m20-20 20 20m0-20 20 20m20-20-20 20m20-20 20 20m0-20 20 20m20-20-20 20m20-20 20 20m0-20 20 20m0-20 20 20m0-20 20 20m0-20 20 20m0-20 20 20m0-20 20 20m0-20 20 20M20 300 0 320m40-20-20 20m20-20 20 20m0-20 20 20m0-20 20 20m20-20-20 20m20-20 20 20m20-20-20 20m20-20 20 20m20-20-20 20m40-20-20 20m40-20-20 20m40-20-20 20m20-20 20 20m0-20 20 20m20-20-20 20m20-20 20 20m20-20-20 20m20-20 20 20m0-20 20 20m0-20 20 20m0-20 20 20m0-20 20 20m0-20 20 20m20-20-20 20m20-20 20 20m0-20 20 20m20-20-20 20m40-20-20 20m40-20-20 20m20-20 20 20m20-20-20 20m40-20-20 20m40-20-20 20m20-20 20 20m0-20 20 20m0-20 20 20m20-20-20 20m40-20-20 20m40-20-20 20m40-20-20 20m20-20 20 20m0-20 20 20m20-20-20 20m20-20 20 20m0-20 20 20m0-20 20 20m0-20 20 20m0-20 20 20m20-20-20 20m20-20 20 20m20-20-20 20m20-20 20 20m0-20 20 20m20-20-20 20m20-20 20 20m0-20 20 20m0-20 20 20m0-20 20 20m20-20-20 20m40-20-20 20m40-20-20 20m40-20-20 20m20-20 20 20m20-20-20 20m40-20-20 20m20-20 20 20m20-20-20 20m40-20-20 20m20-20 20 20m0-20 20 20m0-20 20 20" opacity=".69"/><path d="m0 320 20 20m20-20-20 20m20-20 20 20m20-20-20 20m20-20 20 20m0-20 20 20m0-20 20 20m0-20 20 20m0-20 20 20m20-20-20 20m20-20 20 20m0-20 20 20m0-20 20 20m0-20 20 20m0-20 20 20m20-20-20 20m40-20-20 20m20-20 20 20m0-20 20 20m0-20 20 20m0-20 20 20m0-20 20 20m0-20 20 20m0-20 20 20m0-20 20 20m0-20 20 20m0-20 20 20m0-20 20 20m0-20 20 20m20-20-20 20m40-20-20 20m40-20-20 20m40-20-20 20m20-20 20 20m20-20-20 20m20-20 20 20m20-20-20 20m20-20 20 20m0-20 20 20m20-20-20 20m20-20 20 20m20-20-20 20m20-20 20 20m20-20-20 20m20-20 20 20m20-20-20 20m20-20 20 20m0-20 20 20m0-20 20 20m0-20 20 20m20-20-20 20m40-20-20 20m40-20-20 20m40-20-20 20m20-20 20 20m0-20 20 20m0-20 20 20m0-20 20 20m0-20 20 20m0-20 20 20m0-20 20 20m0-20 20 20m0-20 20 20m20-20-20 20m20-20 20 20m20-20-20 20m20-20 20 20m0-20 20 20m0-20 20 20m0-20 20 20m0-20 20 20m20-20-20 20M20 340 0 360m40-20-20 20m20-20 20 20m0-20 20 20m20-20-20 20m20-20 20 20m20-20-20 20m40-20-20 20m40-20-20 20m40-20-20 20m40-20-20 20m20-20 20 20m20-20-20 20m20-20 20 20m0-20 20 20m0-20 20 20m20-20-20 20m20-20 20 20m0-20 20 20m0-20 20 20m0-20 20 20m0-20 20 20m20-20-20 20m20-20 20 20m0-20 20 20m20-20-20 20m40-20-20 20m40-20-20 20m20-20 20 20m0-20 20 20m0-20 20 20m20-20-20 20m20-20 20 20m0-20 20 20m0-20 20 20m20-20-20 20m20-20 20 20m0-20 20 20m0-20 20 20m20-20-20 20m20-20 20 20m0-20 20 20m0-20 20 20m0-20 20 20m0-20 20 20m0-20 20 20m0-20 20 20m20-20-20 20m20-20 20 20m0-20 20 20m0-20 20 20m0-20 20 20m0-20 20 20m0-20 20 20m20-20-20 20m40-20-20 20m40-20-20 20m20-20 20 20m20-20-20 20m20-20 20 20m0-20 20 20m20-20-20 20m20-20 20 20m0-20 20 20m0-20 20 20m0-20 20 20m20-20-20 20m40-20-20 20m20-20 20 20m0-20 20 20m0-20 20 20m20-20-20 20" opacity=".67"/><path d="m0 360 20 20m0-20 20 20m20-20-20 20m20-20 20 20m0-20 20 20m0-20 20 20m0-20 20 20m20-20-20 20m40-20-20 20m40-20-20 20m20-20 20 20m20-20-20 20m40-20-20 20m20-20 20 20m0-20 20 20m20-20-20 20m20-20 20 20m0-20 20 20m0-20 20 20m20-20-20 20m40-20-20 20m20-20 20 20m0-20 20 20m0-20 20 20m20-20-20 20m20-20 20 20m20-20-20 20m20-20 20 20m20-20-20 20m20-20 20 20m0-20 20 20m20-20-20 20m40-20-20 20m40-20-20 20m40-20-20 20m20-20 20 20m0-20 20 20m0-20 20 20m20-20-20 20m40-20-20 20m40-20-20 20m20-20 20 20m0-20 20 20m0-20 20 20m0-20 20 20m0-20 20 20m20-20-20 20m20-20 20 20m0-20 20 20m0-20 20 20m20-20-20 20m20-20 20 20m0-20 20 20m0-20 20 20m0-20 20 20m20-20-20 20m40-20-20 20m20-20 20 20m0-20 20 20m0-20 20 20m0-20 20 20m20-20-20 20m20-20 20 20m20-20-20 20m40-20-20 20m40-20-20 20m20-20 20 20m0-20 20 20m20-20-20 20m20-20 20 20m20-20-20 20m20-20 20 20M0 380l20 20m20-20-20 20m40-20-20 20m20-20 20 20m0-20 20 20m0-20 20 20m0-20 20 20m20-20-20 20m20-20 20 20m0-20 20 20m0-20 20 20m20-20-20 20m40-20-20 20m20-20 20 20m0-20 20 20m0-20 20 20m20-20-20 20m20-20 20 20m0-20 20 20m0-20 20 20m0-20 20 20m0-20 20 20m20-20-20 20m20-20 20 20m0-20 20 20m20-20-20 20m20-20 20 20m0-20 20 20m0-20 20 20m0-20 20 20m20-20-20 20m40-20-20 20m20-20 20 20m0-20 20 20m0-20 20 20m0-20 20 20m0-20 20 20m0-20 20 20m20-20-20 20m20-20 20 20m0-20 20 20m20-20-20 20m20-20 20 20m20-20-20 20m40-20-20 20m20-20 20 20m0-20 20 20m0-20 20 20m0-20 20 20m0-20 20 20m0-20 20 20m0-20 20 20m20-20-20 20m20-20 20 20m0-20 20 20m0-20 20 20m20-20-20 20m40-20-20 20m20-20 20 20m0-20 20 20m20-20-20 20m40-20-20 20m20-20 20 20m20-20-20 20m20-20 20 20m0-20 20 20m0-20 20 20m0-20 20 20m20-20-20 20m20-20 20 20m20-20-20 20m20-20 20 20" opacity=".64"/><path d="m0 400 20 20m20-20-20 20m40-20-20 20m20-20 20 20m20-20-20 20m20-20 20 20m0-20 20 20m0-20 20 20m0-20 20 20m0-20 20 20m0-20 20 20m20-20-20 20m20-20 20 20m20-20-20 20m20-20 20 20m20-20-20 20m40-20-20 20m20-20 20 20m0-20 20 20m0-20 20 20m0-20 20 20m0-20 20 20m20-20-20 20m20-20 20 20m0-20 20 20m20-20-20 20m40-20-20 20m20-20 20 20m0-20 20 20m20-20-20 20m40-20-20 20m20-20 20 20m20-20-20 20m40-20-20 20m40-20-20 20m40-20-20 20m20-20 20 20m0-20 20 20m0-20 20 20m20-20-20 20m20-20 20 20m0-20 20 20m0-20 20 20m0-20 20 20m0-20 20 20m20-20-20 20m20-20 20 20m20-20-20 20m40-20-20 20m20-20 20 20m0-20 20 20m20-20-20 20m20-20 20 20m20-20-20 20m40-20-20 20m20-20 20 20m0-20 20 20m0-20 20 20m20-20-20 20m40-20-20 20m40-20-20 20m40-20-20 20m20-20 20 20m0-20 20 20m20-20-20 20m40-20-20 20m20-20 20 20m0-20 20 20m0-20 20 20m20-20-20 20m40-20-20 20m40-20-20 20M20 420 0 440m20-20 20 20m0-20 20 20m0-20 20 20m0-20 20 20m0-20 20 20m20-20-20 20m20-20 20 20m0-20 20 20m0-20 20 20m0-20 20 20m0-20 20 20m20-20-20 20m20-20 20 20m0-20 20 20m20-20-20 20m20-20 20 20m0-20 20 20m20-20-20 20m20-20 20 20m0-20 20 20m0-20 20 20m0-20 20 20m0-20 20 20m0-20 20 20m20-20-20 20m20-20 20 20m0-20 20 20m0-20 20 20m0-20 20 20m0-20 20 20m20-20-20 20m20-20 20 20m20-20-20 20m40-20-20 20m40-20-20 20m40-20-20 20m20-20 20 20m20-20-20 20m40-20-20 20m20-20 20 20m0-20 20 20m20-20-20 20m40-20-20 20m40-20-20 20m20-20 20 20m0-20 20 20m0-20 20 20m0-20 20 20m0-20 20 20m20-20-20 20m20-20 20 20m0-20 20 20m0-20 20 20m20-20-20 20m40-20-20 20m40-20-20 20m40-20-20 20m20-20 20 20m20-20-20 20m40-20-20 20m20-20 20 20m0-20 20 20m20-20-20 20m40-20-20 20m40-20-20 20m20-20 20 20m0-20 20 20m0-20 20 20m0-20 20 20m20-20-20 20m20-20 20 20" opacity=".62"/><path d="m0 440 20 20m20-20-20 20m20-20 20 20m20-20-20 20m40-20-20 20m20-20 20 20m0-20 20 20m0-20 20 20m0-20 20 20m0-20 20 20m0-20 20 20m20-20-20 20m40-20-20 20m40-20-20 20m40-20-20 20m40-20-20 20m20-20 20 20m0-20 20 20m0-20 20 20m0-20 20 20m20-20-20 20m20-20 20 20m20-20-20 20m40-20-20 20m20-20 20 20m0-20 20 20m20-20-20 20m40-20-20 20m20-20 20 20m0-20 20 20m0-20 20 20m0-20 20 20m0-20 20 20m20-20-20 20m40-20-20 20m40-20-20 20m40-20-20 20m40-20-20 20m20-20 20 20m0-20 20 20m0-20 20 20m0-20 20 20m20-20-20 20m40-20-20 20m40-20-20 20m40-20-20 20m20-20 20 20m0-20 20 20m0-20 20 20m0-20 20 20m20-20-20 20m20-20 20 20m0-20 20 20m20-20-20 20m20-20 20 20m20-20-20 20m40-20-20 20m20-20 20 20m0-20 20 20m0-20 20 20m0-20 20 20m0-20 20 20m0-20 20 20m20-20-20 20m40-20-20 20m40-20-20 20m20-20 20 20m0-20 20 20m20-20-20 20m20-20 20 20m20-20-20 20m20-20 20 20" opacity=".6"/><path d="m0 460 20 20m20-20-20 20m20-20 20 20m20-20-20 20m40-20-20 20m40-20-20 20m20-20 20 20m0-20 20 20m0-20 20 20m0-20 20 20m0-20 20 20m0-20 20 20m20-20-20 20m20-20 20 20m0-20 20 20m0-20 20 20m20-20-20 20m40-20-20 20m40-20-20 20m20-20 20 20m20-20-20 20m20-20 20 20m20-20-20 20m40-20-20 20m20-20 20 20m20-20-20 20m40-20-20 20m40-20-20 20m20-20 20 20m20-20-20 20m20-20 20 20m20-20-20 20m20-20 20 20m0-20 20 20m20-20-20 20m40-20-20 20m20-20 20 20m20-20-20 20m20-20 20 20m20-20-20 20m20-20 20 20m0-20 20 20m0-20 20 20m0-20 20 20m20-20-20 20m20-20 20 20m0-20 20 20m20-20-20 20m40-20-20 20m20-20 20 20m20-20-20 20m40-20-20 20m40-20-20 20m40-20-20 20m20-20 20 20m0-20 20 20m20-20-20 20m40-20-20 20m40-20-20 20m40-20-20 20m40-20-20 20m40-20-20 20m20-20 20 20m20-20-20 20m40-20-20 20m20-20 20 20m20-20-20 20m40-20-20 20m40-20-20 20m40-20-20 20m40-20-20 20m20-20 20 20" opacity=".57"/><path d="M20 480 0 500m20-20 20 20m20-20-20 20m20-20 20 20m0-20 20 20m0-20 20 20m20-20-20 20m40-20-20 20m40-20-20 20m20-20 20 20m20-20-20 20m20-20 20 20m0-20 20 20m0-20 20 20m0-20 20 20m0-20 20 20m20-20-20 20m20-20 20 20m0-20 20 20m20-20-20 20m20-20 20 20m0-20 20 20m0-20 20 20m0-20 20 20m20-20-20 20m40-20-20 20m20-20 20 20m20-20-20 20m20-20 20 20m20-20-20 20m20-20 20 20m20-20-20 20m20-20 20 20m0-20 20 20m20-20-20 20m20-20 20 20m20-20-20 20m20-20 20 20m20-20-20 20m20-20 20 20m0-20 20 20m20-20-20 20m20-20 20 20m0-20 20 20m0-20 20 20m20-20-20 20m40-20-20 20m20-20 20 20m0-20 20 20m20-20-20 20m20-20 20 20m0-20 20 20m20-20-20 20m20-20 20 20m20-20-20 20m40-20-20 20m20-20 20 20m20-20-20 20m20-20 20 20m0-20 20 20m0-20 20 20m0-20 20 20m0-20 20 20m20-20-20 20m20-20 20 20m0-20 20 20m0-20 20 20m20-20-20 20m20-20 20 20m0-20 20 20m0-20 20 20m20-20-20 20" opacity=".53"/><path d="M20 500 0 520m20-20 20 20m20-20-20 20m40-20-20 20m20-20 20 20m20-20-20 20m20-20 20 20m20-20-20 20m40-20-20 20m20-20 20 20m20-20-20 20m40-20-20 20m40-20-20 20m40-20-20 20m20-20 20 20m20-20-20 20m20-20 20 20m0-20 20 20m20-20-20 20m20-20 20 20m0-20 20 20m0-20 20 20m20-20-20 20m20-20 20 20m20-20-20 20m40-20-20 20m40-20-20 20m40-20-20 20m20-20 20 20m20-20-20 20m40-20-20 20m40-20-20 20m40-20-20 20m20-20 20 20m0-20 20 20m0-20 20 20m20-20-20 20m40-20-20 20m20-20 20 20m0-20 20 20m20-20-20 20m40-20-20 20m20-20 20 20m20-20-20 20m20-20 20 20m20-20-20 20m20-20 20 20m20-20-20 20m20-20 20 20m0-20 20 20m20-20-20 20m20-20 20 20m20-20-20 20m20-20 20 20m0-20 20 20m20-20-20 20m40-20-20 20m20-20 20 20m0-20 20 20m20-20-20 20m40-20-20 20m40-20-20 20m20-20 20 20m20-20-20 20m20-20 20 20m0-20 20 20m0-20 20 20m0-20 20 20m0-20 20 20m0-20 20 20m20-20-20 20m40-20-20 20" opacity=".48"/><path d="m0 520 20 20m20-20-20 20m20-20 20 20m0-20 20 20m0-20 20 20m0-20 20 20m0-20 20 20m20-20-20 20m20-20 20 20m20-20-20 20m20-20 20 20m0-20 20 20m20-20-20 20m40-20-20 20m20-20 20 20m0-20 20 20m0-20 20 20m20-20-20 20m20-20 20 20m0-20 20 20m0-20 20 20m0-20 20 20m0-20 20 20m20-20-20 20m40-20-20 20m40-20-20 20m20-20 20 20m0-20 20 20m0-20 20 20m0-20 20 20m0-20 20 20m20-20-20 20m20-20 20 20m20-20-20 20m40-20-20 20m40-20-20 20m40-20-20 20m20-20 20 20m0-20 20 20m20-20-20 20m20-20 20 20m0-20 20 20m20-20-20 20m40-20-20 20m20-20 20 20m0-20 20 20m0-20 20 20m20-20-20 20m40-20-20 20m40-20-20 20m20-20 20 20m0-20 20 20m0-20 20 20m20-20-20 20m20-20 20 20m0-20 20 20m20-20-20 20m40-20-20 20m20-20 20 20m20-20-20 20m20-20 20 20m0-20 20 20m0-20 20 20m20-20-20 20m40-20-20 20m20-20 20 20m20-20-20 20m40-20-20 20m40-20-20 20m20-20 20 20m0-20 20 20m0-20 20 20" opacity=".43"/><path d="m0 540 20 20m0-20 20 20m20-20-20 20m20-20 20 20m0-20 20 20m0-20 20 20m20-20-20 20m20-20 20 20m20-20-20 20m20-20 20 20m0-20 20 20m20-20-20 20m20-20 20 20m0-20 20 20m0-20 20 20m0-20 20 20m20-20-20 20m20-20 20 20m0-20 20 20m0-20 20 20m0-20 20 20m20-20-20 20m40-20-20 20m20-20 20 20m0-20 20 20m0-20 20 20m20-20-20 20m40-20-20 20m40-20-20 20m40-20-20 20m20-20 20 20m0-20 20 20m0-20 20 20m20-20-20 20m40-20-20 20m20-20 20 20m0-20 20 20m0-20 20 20m20-20-20 20m40-20-20 20m20-20 20 20m20-20-20 20m40-20-20 20m40-20-20 20m40-20-20 20m20-20 20 20m20-20-20 20m20-20 20 20m20-20-20 20m20-20 20 20m0-20 20 20m20-20-20 20m40-20-20 20m40-20-20 20m20-20 20 20m20-20-20 20m40-20-20 20m40-20-20 20m40-20-20 20m20-20 20 20m0-20 20 20m0-20 20 20m0-20 20 20m0-20 20 20m0-20 20 20m0-20 20 20m20-20-20 20m40-20-20 20m40-20-20 20m40-20-20 20m20-20 20 20m0-20 20 20" opacity=".38"/><path d="M20 560 0 580m20-20 20 20m0-20 20 20m0-20 20 20m0-20 20 20m0-20 20 20m0-20 20 20m20-20-20 20m20-20 20 20m0-20 20 20m20-20-20 20m40-20-20 20m20-20 20 20m20-20-20 20m20-20 20 20m20-20-20 20m20-20 20 20m20-20-20 20m20-20 20 20m0-20 20 20m0-20 20 20m0-20 20 20m0-20 20 20m0-20 20 20m0-20 20 20m0-20 20 20m0-20 20 20m0-20 20 20m20-20-20 20m40-20-20 20m20-20 20 20m0-20 20 20m20-20-20 20m40-20-20 20m40-20-20 20m20-20 20 20m0-20 20 20m0-20 20 20m0-20 20 20m0-20 20 20m0-20 20 20m0-20 20 20m0-20 20 20m0-20 20 20m20-20-20 20m40-20-20 20m20-20 20 20m0-20 20 20m0-20 20 20m0-20 20 20m0-20 20 20m0-20 20 20m20-20-20 20m20-20 20 20m0-20 20 20m0-20 20 20m0-20 20 20m20-20-20 20m20-20 20 20m20-20-20 20m40-20-20 20m20-20 20 20m0-20 20 20m0-20 20 20m0-20 20 20m0-20 20 20m0-20 20 20m0-20 20 20m20-20-20 20m20-20 20 20m20-20-20 20m40-20-20 20" opacity=".36"/><path d="m0 580 20 20m20-20-20 20m20-20 20 20m20-20-20 20m20-20 20 20m0-20 20 20m0-20 20 20m20-20-20 20m20-20 20 20m0-20 20 20m20-20-20 20m40-20-20 20m20-20 20 20m0-20 20 20m0-20 20 20m20-20-20 20m20-20 20 20m0-20 20 20m0-20 20 20m0-20 20 20m0-20 20 20m20-20-20 20m40-20-20 20m20-20 20 20m0-20 20 20m0-20 20 20m0-20 20 20m20-20-20 20m20-20 20 20m0-20 20 20m20-20-20 20m20-20 20 20m0-20 20 20m20-20-20 20m40-20-20 20m20-20 20 20m0-20 20 20m20-20-20 20m40-20-20 20m20-20 20 20m0-20 20 20m0-20 20 20m0-20 20 20m20-20-20 20m40-20-20 20m20-20 20 20m0-20 20 20m20-20-20 20m40-20-20 20m20-20 20 20m0-20 20 20m0-20 20 20m0-20 20 20m0-20 20 20m20-20-20 20m20-20 20 20m0-20 20 20m20-20-20 20m40-20-20 20m20-20 20 20m0-20 20 20m0-20 20 20m0-20 20 20m0-20 20 20m20-20-20 20m40-20-20 20m40-20-20 20m40-20-20 20m20-20 20 20m0-20 20 20m20-20-20 20m40-20-20 20" opacity=".34"/><path d="m0 600 20 20m0-20 20 20m0-20 20 20m0-20 20 20m20-20-20 20m40-20-20 20m40-20-20 20m20-20 20 20m0-20 20 20m20-20-20 20m20-20 20 20m20-20-20 20m40-20-20 20m20-20 20 20m0-20 20 20m20-20-20 20m40-20-20 20m20-20 20 20m20-20-20 20m20-20 20 20m20-20-20 20m40-20-20 20m20-20 20 20m0-20 20 20m20-20-20 20m20-20 20 20m0-20 20 20m20-20-20 20m20-20 20 20m20-20-20 20m20-20 20 20m0-20 20 20m0-20 20 20m0-20 20 20m0-20 20 20m0-20 20 20m20-20-20 20m20-20 20 20m0-20 20 20m20-20-20 20m40-20-20 20m40-20-20 20m20-20 20 20m0-20 20 20m20-20-20 20m40-20-20 20m20-20 20 20m0-20 20 20m20-20-20 20m40-20-20 20m40-20-20 20m20-20 20 20m0-20 20 20m0-20 20 20m0-20 20 20m20-20-20 20m40-20-20 20m40-20-20 20m40-20-20 20m20-20 20 20m0-20 20 20m0-20 20 20m0-20 20 20m20-20-20 20m40-20-20 20m20-20 20 20m0-20 20 20m0-20 20 20m0-20 20 20m0-20 20 20m20-20-20 20m40-20-20 20" opacity=".31"/><path d="M20 620 0 640m40-20-20 20m20-20 20 20m20-20-20 20m40-20-20 20m20-20 20 20m0-20 20 20m20-20-20 20m40-20-20 20m40-20-20 20m20-20 20 20m20-20-20 20m20-20 20 20m0-20 20 20m0-20 20 20m0-20 20 20m0-20 20 20m0-20 20 20m0-20 20 20m0-20 20 20m0-20 20 20m20-20-20 20m40-20-20 20m40-20-20 20m20-20 20 20m0-20 20 20m0-20 20 20m0-20 20 20m20-20-20 20m20-20 20 20m20-20-20 20m40-20-20 20m40-20-20 20m20-20 20 20m0-20 20 20m0-20 20 20m20-20-20 20m20-20 20 20m0-20 20 20m0-20 20 20m0-20 20 20m20-20-20 20m20-20 20 20m0-20 20 20m0-20 20 20m0-20 20 20m20-20-20 20m40-20-20 20m20-20 20 20m20-20-20 20m20-20 20 20m0-20 20 20m0-20 20 20m20-20-20 20m20-20 20 20m20-20-20 20m40-20-20 20m20-20 20 20m20-20-20 20m40-20-20 20m20-20 20 20m20-20-20 20m20-20 20 20m20-20-20 20m20-20 20 20m0-20 20 20m0-20 20 20m20-20-20 20m20-20 20 20m20-20-20 20m40-20-20 20m40-20-20 20" opacity=".26"/><path d="m0 640 20 20m20-20-20 20m20-20 20 20m20-20-20 20m20-20 20 20m20-20-20 20m20-20 20 20m20-20-20 20m40-20-20 20m40-20-20 20m40-20-20 20m20-20 20 20m0-20 20 20m20-20-20 20m40-20-20 20m20-20 20 20m0-20 20 20m0-20 20 20m20-20-20 20m40-20-20 20m40-20-20 20m20-20 20 20m0-20 20 20m0-20 20 20m20-20-20 20m20-20 20 20m0-20 20 20m20-20-20 20m20-20 20 20m0-20 20 20m0-20 20 20m20-20-20 20m40-20-20 20m20-20 20 20m20-20-20 20m20-20 20 20m20-20-20 20m20-20 20 20m20-20-20 20m20-20 20 20m20-20-20 20m20-20 20 20m20-20-20 20m20-20 20 20m0-20 20 20m20-20-20 20m40-20-20 20m20-20 20 20m0-20 20 20m0-20 20 20m0-20 20 20m20-20-20 20m20-20 20 20m0-20 20 20m0-20 20 20m20-20-20 20m40-20-20 20m40-20-20 20m20-20 20 20m0-20 20 20m0-20 20 20m0-20 20 20m20-20-20 20m40-20-20 20m20-20 20 20m0-20 20 20m0-20 20 20m0-20 20 20m20-20-20 20m20-20 20 20m20-20-20 20m20-20 20 20" opacity=".24"/><path d="m0 660 20 20m0-20 20 20m0-20 20 20m0-20 20 20m0-20 20 20m0-20 20 20m20-20-20 20m40-20-20 20m40-20-20 20m40-20-20 20m20-20 20 20m0-20 20 20m0-20 20 20m0-20 20 20m0-20 20 20m0-20 20 20m0-20 20 20m0-20 20 20m20-20-20 20m40-20-20 20m20-20 20 20m0-20 20 20m0-20 20 20m0-20 20 20m0-20 20 20m20-20-20 20m40-20-20 20m20-20 20 20m0-20 20 20m0-20 20 20m0-20 20 20m20-20-20 20m20-20 20 20m0-20 20 20m20-20-20 20m20-20 20 20m0-20 20 20m0-20 20 20m20-20-20 20m20-20 20 20m20-20-20 20m40-20-20 20m20-20 20 20m0-20 20 20m0-20 20 20m20-20-20 20m40-20-20 20m40-20-20 20m40-20-20 20m40-20-20 20m20-20 20 20m0-20 20 20m20-20-20 20m20-20 20 20m0-20 20 20m20-20-20 20m40-20-20 20m20-20 20 20m20-20-20 20m20-20 20 20m20-20-20 20m20-20 20 20m20-20-20 20m20-20 20 20m20-20-20 20m20-20 20 20m20-20-20 20m20-20 20 20m0-20 20 20m20-20-20 20m40-20-20 20m20-20 20 20" opacity=".22"/><path d="m0 680 20 20m20-20-20 20m40-20-20 20m20-20 20 20m20-20-20 20m20-20 20 20m20-20-20 20m20-20 20 20m0-20 20 20m0-20 20 20m0-20 20 20m20-20-20 20m40-20-20 20m20-20 20 20m0-20 20 20m20-20-20 20m20-20 20 20m0-20 20 20m20-20-20 20m20-20 20 20m0-20 20 20m20-20-20 20m40-20-20 20m20-20 20 20m20-20-20 20m40-20-20 20m40-20-20 20m40-20-20 20m20-20 20 20m20-20-20 20m20-20 20 20m20-20-20 20m20-20 20 20m0-20 20 20m0-20 20 20m0-20 20 20m20-20-20 20m20-20 20 20m0-20 20 20m20-20-20 20m40-20-20 20m40-20-20 20m40-20-20 20m40-20-20 20m20-20 20 20m20-20-20 20m40-20-20 20m20-20 20 20m0-20 20 20m0-20 20 20m0-20 20 20m20-20-20 20m20-20 20 20m20-20-20 20m40-20-20 20m20-20 20 20m0-20 20 20m20-20-20 20m40-20-20 20m40-20-20 20m20-20 20 20m20-20-20 20m40-20-20 20m20-20 20 20m0-20 20 20m20-20-20 20m40-20-20 20m20-20 20 20m0-20 20 20m0-20 20 20m20-20-20 20m20-20 20 20M20 700 0 720m40-20-20 20m20-20 20 20m20-20-20 20m40-20-20 20m20-20 20 20m20-20-20 20m20-20 20 20m0-20 20 20m0-20 20 20m0-20 20 20m20-20-20 20m40-20-20 20m20-20 20 20m0-20 20 20m0-20 20 20m20-20-20 20m40-20-20 20m40-20-20 20m40-20-20 20m40-20-20 20m20-20 20 20m0-20 20 20m20-20-20 20m40-20-20 20m20-20 20 20m0-20 20 20m0-20 20 20m0-20 20 20m0-20 20 20m20-20-20 20m40-20-20 20m20-20 20 20m0-20 20 20m20-20-20 20m40-20-20 20m40-20-20 20m40-20-20 20m20-20 20 20m20-20-20 20m20-20 20 20m0-20 20 20m20-20-20 20m40-20-20 20m20-20 20 20m20-20-20 20m40-20-20 20m40-20-20 20m20-20 20 20m20-20-20 20m20-20 20 20m20-20-20 20m40-20-20 20m20-20 20 20m0-20 20 20m0-20 20 20m20-20-20 20m20-20 20 20m0-20 20 20m0-20 20 20m20-20-20 20m40-20-20 20m20-20 20 20m0-20 20 20m0-20 20 20m0-20 20 20m0-20 20 20m0-20 20 20m0-20 20 20m20-20-20 20m40-20-20 20m40-20-20 20" opacity=".15"/><path d="M20 720 0 740m40-20-20 20m40-20-20 20m20-20 20 20m0-20 20 20m0-20 20 20m0-20 20 20m0-20 20 20m0-20 20 20m20-20-20 20m20-20 20 20m20-20-20 20m20-20 20 20m0-20 20 20m0-20 20 20m0-20 20 20m20-20-20 20m40-20-20 20m20-20 20 20m20-20-20 20m40-20-20 20m40-20-20 20m20-20 20 20m0-20 20 20m20-20-20 20m40-20-20 20m40-20-20 20m20-20 20 20m20-20-20 20m20-20 20 20m0-20 20 20m20-20-20 20m20-20 20 20m0-20 20 20m0-20 20 20m20-20-20 20m40-20-20 20m20-20 20 20m0-20 20 20m0-20 20 20m20-20-20 20m20-20 20 20m20-20-20 20m40-20-20 20m20-20 20 20m20-20-20 20m40-20-20 20m20-20 20 20m0-20 20 20m0-20 20 20m0-20 20 20m0-20 20 20m0-20 20 20m20-20-20 20m20-20 20 20m20-20-20 20m20-20 20 20m0-20 20 20m0-20 20 20m0-20 20 20m0-20 20 20m20-20-20 20m20-20 20 20m20-20-20 20m20-20 20 20m0-20 20 20m20-20-20 20m40-20-20 20m40-20-20 20m40-20-20 20m40-20-20 20m20-20 20 20M20 740 0 760m20-20 20 20m20-20-20 20m40-20-20 20m40-20-20 20m20-20 20 20m0-20 20 20m0-20 20 20m0-20 20 20m0-20 20 20m20-20-20 20m20-20 20 20m20-20-20 20m20-20 20 20m20-20-20 20m20-20 20 20m0-20 20 20m20-20-20 20m20-20 20 20m20-20-20 20m20-20 20 20m0-20 20 20m20-20-20 20m40-20-20 20m20-20 20 20m20-20-20 20m40-20-20 20m20-20 20 20m20-20-20 20m20-20 20 20m0-20 20 20m20-20-20 20m40-20-20 20m20-20 20 20m20-20-20 20m40-20-20 20m40-20-20 20m40-20-20 20m40-20-20 20m20-20 20 20m20-20-20 20m20-20 20 20m20-20-20 20m40-20-20 20m40-20-20 20m40-20-20 20m20-20 20 20m0-20 20 20m0-20 20 20m20-20-20 20m40-20-20 20m40-20-20 20m20-20 20 20m20-20-20 20m40-20-20 20m40-20-20 20m20-20 20 20m0-20 20 20m0-20 20 20m0-20 20 20m20-20-20 20m20-20 20 20m0-20 20 20m0-20 20 20m0-20 20 20m20-20-20 20m40-20-20 20m20-20 20 20m0-20 20 20m20-20-20 20m20-20 20 20m0-20 20 20" opacity=".1"/><path d="m0 760 20 20m0-20 20 20m20-20-20 20m20-20 20 20m20-20-20 20m40-20-20 20m20-20 20 20m0-20 20 20m20-20-20 20m40-20-20 20m20-20 20 20m20-20-20 20m40-20-20 20m20-20 20 20m0-20 20 20m20-20-20 20m20-20 20 20m0-20 20 20m20-20-20 20m20-20 20 20m20-20-20 20m20-20 20 20m0-20 20 20m0-20 20 20m20-20-20 20m20-20 20 20m0-20 20 20m20-20-20 20m20-20 20 20m20-20-20 20m40-20-20 20m40-20-20 20m40-20-20 20m20-20 20 20m20-20-20 20m20-20 20 20m0-20 20 20m20-20-20 20m20-20 20 20m20-20-20 20m40-20-20 20m20-20 20 20m20-20-20 20m40-20-20 20m20-20 20 20m0-20 20 20m0-20 20 20m0-20 20 20m0-20 20 20m0-20 20 20m0-20 20 20m20-20-20 20m20-20 20 20m20-20-20 20m20-20 20 20m0-20 20 20m20-20-20 20m20-20 20 20m20-20-20 20m40-20-20 20m20-20 20 20m20-20-20 20m40-20-20 20m20-20 20 20m20-20-20 20m20-20 20 20m0-20 20 20m0-20 20 20m20-20-20 20m40-20-20 20m20-20 20 20m20-20-20 20M0 780l20 20m0-20 20 20m0-20 20 20m0-20 20 20m0-20 20 20m20-20-20 20m40-20-20 20m40-20-20 20m40-20-20 20m20-20 20 20m0-20 20 20m0-20 20 20m0-20 20 20m0-20 20 20m20-20-20 20m40-20-20 20m20-20 20 20m0-20 20 20m20-20-20 20m40-20-20 20m40-20-20 20m20-20 20 20m0-20 20 20m20-20-20 20m20-20 20 20m20-20-20 20m20-20 20 20m20-20-20 20m40-20-20 20m40-20-20 20m20-20 20 20m0-20 20 20m0-20 20 20m0-20 20 20m20-20-20 20m40-20-20 20m40-20-20 20m20-20 20 20m20-20-20 20m20-20 20 20m0-20 20 20m20-20-20 20m40-20-20 20m20-20 20 20m0-20 20 20m20-20-20 20m20-20 20 20m0-20 20 20m0-20 20 20m20-20-20 20m20-20 20 20m0-20 20 20m20-20-20 20m40-20-20 20m40-20-20 20m20-20 20 20m20-20-20 20m20-20 20 20m20-20-20 20m20-20 20 20m20-20-20 20m20-20 20 20m0-20 20 20m0-20 20 20m0-20 20 20m0-20 20 20m20-20-20 20m40-20-20 20m20-20 20 20m0-20 20 20m0-20 20 20m20-20-20 20" opacity=".05"/><path d="M20 800 0 820m40-20-20 20m20-20 20 20m20-20-20 20m20-20 20 20m20-20-20 20m40-20-20 20m20-20 20 20m20-20-20 20m20-20 20 20m0-20 20 20m20-20-20 20m20-20 20 20m0-20 20 20m0-20 20 20m0-20 20 20m0-20 20 20m0-20 20 20m0-20 20 20m20-20-20 20m40-20-20 20m40-20-20 20m40-20-20 20m40-20-20 20m20-20 20 20m20-20-20 20m20-20 20 20m20-20-20 20m20-20 20 20m0-20 20 20m0-20 20 20m0-20 20 20m0-20 20 20m0-20 20 20m0-20 20 20m0-20 20 20m0-20 20 20m0-20 20 20m0-20 20 20m0-20 20 20m0-20 20 20m20-20-20 20m20-20 20 20m20-20-20 20m40-20-20 20m20-20 20 20m0-20 20 20m0-20 20 20m0-20 20 20m20-20-20 20m40-20-20 20m20-20 20 20m20-20-20 20m40-20-20 20m40-20-20 20m20-20 20 20m20-20-20 20m20-20 20 20m0-20 20 20m0-20 20 20m0-20 20 20m0-20 20 20m0-20 20 20m0-20 20 20m20-20-20 20m20-20 20 20m20-20-20 20m20-20 20 20m20-20-20 20m20-20 20 20m0-20 20 20m0-20 20 20" opacity=".03"/></g></svg>