<svg xmlns="http://www.w3.org/2000/svg" viewBox="0 0 1422 800"><g fill="none" stroke="#6eeefc" stroke-linecap="round" stroke-width="8"><path d="m0 0 20 20M40 0 20 20M60 0 40 20M80 0 60 20M80 0l20 20m0-20 20 20m0-20 20 20m0-20 20 20m0-20 20 20m20-20-20 20m40-20-20 20m40-20-20 20m40-20-20 20m40-20-20 20m20-20 20 20m0-20 20 20m20-20-20 20m40-20-20 20m40-20-20 20m20-20 20 20m20-20-20 20m20-20 20 20m0-20 20 20m20-20-20 20m40-20-20 20m20-20 20 20m20-20-20 20m40-20-20 20m20-20 20 20m0-20 20 20m20-20-20 20m20-20 20 20m0-20 20 20m20-20-20 20m40-20-20 20m40-20-20 20m20-20 20 20m0-20 20 20m20-20-20 20m20-20 20 20m20-20-20 20m40-20-20 20m40-20-20 20m40-20-20 20m20-20 20 20m20-20-20 20m40-20-20 20m20-20 20 20m20-20-20 20m40-20-20 20m20-20 20 20m20-20-20 20m40-20-20 20m20-20 20 20m0-20 20 20m20-20-20 20m40-20-20 20m40-20-20 20m40-20-20 20m40-20-20 20m20-20 20 20m20-20-20 20m20-20 20 20m0-20 20 20m20-20-20 20m40-20-20 20m20-20 20 20m20-20-20 20m40-20-20 20m40-20-20 20m20-20 20 20m20-20-20 20" opacity=".91"/><path d="M20 20 0 40m40-20L20 40m40-20L40 40m40-20L60 40m20-20 20 20m20-20-20 20m40-20-20 20m20-20 20 20m20-20-20 20m20-20 20 20m0-20 20 20m0-20 20 20m0-20 20 20m20-20-20 20m40-20-20 20m40-20-20 20m20-20 20 20m0-20 20 20m0-20 20 20m0-20 20 20m20-20-20 20m20-20 20 20m0-20 20 20m20-20-20 20m40-20-20 20m40-20-20 20m40-20-20 20m40-20-20 20m40-20-20 20m40-20-20 20m40-20-20 20m40-20-20 20m40-20-20 20m20-20 20 20m0-20 20 20m0-20 20 20m0-20 20 20m20-20-20 20m40-20-20 20m20-20 20 20m20-20-20 20m20-20 20 20m0-20 20 20m20-20-20 20m40-20-20 20m20-20 20 20m20-20-20 20m20-20 20 20m20-20-20 20m20-20 20 20m0-20 20 20m0-20 20 20m20-20-20 20m20-20 20 20m20-20-20 20m20-20 20 20m0-20 20 20m20-20-20 20m20-20 20 20m20-20-20 20m20-20 20 20m20-20-20 20m40-20-20 20m20-20 20 20m20-20-20 20m40-20-20 20m40-20-20 20m40-20-20 20m40-20-20 20m20-20 20 20m0-20 20 20m0-20 20 20" opacity=".88"/><path d="m0 40 20 20m20-20L20 60m20-20 20 20m20-20L60 60m40-20L80 60m20-20 20 20m20-20-20 20m20-20 20 20m0-20 20 20m20-20-20 20m20-20 20 20m20-20-20 20m20-20 20 20m0-20 20 20m0-20 20 20m0-20 20 20m0-20 20 20m20-20-20 20m40-20-20 20m20-20 20 20m0-20 20 20m0-20 20 20m20-20-20 20m20-20 20 20m20-20-20 20m40-20-20 20m20-20 20 20m0-20 20 20m20-20-20 20m40-20-20 20m40-20-20 20m20-20 20 20m20-20-20 20m40-20-20 20m20-20 20 20m20-20-20 20m40-20-20 20m40-20-20 20m40-20-20 20m20-20 20 20m20-20-20 20m20-20 20 20m20-20-20 20m20-20 20 20m0-20 20 20m0-20 20 20m0-20 20 20m0-20 20 20m0-20 20 20m20-20-20 20m40-20-20 20m40-20-20 20m40-20-20 20m40-20-20 20m40-20-20 20m40-20-20 20m40-20-20 20m20-20 20 20m20-20-20 20m40-20-20 20m20-20 20 20m0-20 20 20m0-20 20 20m0-20 20 20m0-20 20 20m0-20 20 20m0-20 20 20m20-20-20 20m40-20-20 20m40-20-20 20m40-20-20 20m40-20-20 20" opacity=".86"/><path d="M20 60 0 80m20-20 20 20m20-20L40 80m40-20L60 80m40-20L80 80m20-20 20 20m0-20 20 20m0-20 20 20m20-20-20 20m20-20 20 20m0-20 20 20m20-20-20 20m40-20-20 20m20-20 20 20m20-20-20 20m20-20 20 20m0-20 20 20m20-20-20 20m20-20 20 20m20-20-20 20m20-20 20 20m0-20 20 20m20-20-20 20m20-20 20 20m0-20 20 20m0-20 20 20m20-20-20 20m40-20-20 20m20-20 20 20m20-20-20 20m40-20-20 20m20-20 20 20m20-20-20 20m20-20 20 20m0-20 20 20m20-20-20 20m20-20 20 20m20-20-20 20m40-20-20 20m20-20 20 20m20-20-20 20m40-20-20 20m20-20 20 20m20-20-20 20m20-20 20 20m0-20 20 20m0-20 20 20m20-20-20 20m40-20-20 20m40-20-20 20m20-20 20 20m0-20 20 20m20-20-20 20m40-20-20 20m20-20 20 20m20-20-20 20m40-20-20 20m40-20-20 20m20-20 20 20m0-20 20 20m0-20 20 20m20-20-20 20m20-20 20 20m20-20-20 20m20-20 20 20m0-20 20 20m0-20 20 20m20-20-20 20m40-20-20 20m20-20 20 20m20-20-20 20m40-20-20 20" opacity=".83"/><path d="M20 80 0 100m20-20 20 20m0-20 20 20m0-20 20 20m0-20 20 20m20-20-20 20m40-20-20 20m40-20-20 20m40-20-20 20m20-20 20 20m20-20-20 20m40-20-20 20m40-20-20 20m40-20-20 20m20-20 20 20m20-20-20 20m20-20 20 20m20-20-20 20m20-20 20 20m20-20-20 20m40-20-20 20m40-20-20 20m20-20 20 20m0-20 20 20m20-20-20 20m40-20-20 20m20-20 20 20m0-20 20 20m0-20 20 20m0-20 20 20m0-20 20 20m20-20-20 20m20-20 20 20m20-20-20 20m40-20-20 20m20-20 20 20m20-20-20 20m40-20-20 20m20-20 20 20m20-20-20 20m40-20-20 20m20-20 20 20m0-20 20 20m0-20 20 20m0-20 20 20m20-20-20 20m40-20-20 20m40-20-20 20m20-20 20 20m0-20 20 20m0-20 20 20m20-20-20 20m40-20-20 20m40-20-20 20m40-20-20 20m20-20 20 20m0-20 20 20m0-20 20 20m20-20-20 20m40-20-20 20m40-20-20 20m20-20 20 20m0-20 20 20m0-20 20 20m20-20-20 20m20-20 20 20m20-20-20 20m20-20 20 20m20-20-20 20m20-20 20 20m20-20-20 20m40-20-20 20" opacity=".81"/><path d="m0 100 20 20m20-20-20 20m20-20 20 20m0-20 20 20m20-20-20 20m40-20-20 20m20-20 20 20m0-20 20 20m20-20-20 20m20-20 20 20m20-20-20 20m40-20-20 20m20-20 20 20m0-20 20 20m20-20-20 20m20-20 20 20m20-20-20 20m40-20-20 20m40-20-20 20m40-20-20 20m40-20-20 20m40-20-20 20m20-20 20 20m0-20 20 20m20-20-20 20m40-20-20 20m20-20 20 20m20-20-20 20m40-20-20 20m40-20-20 20m20-20 20 20m20-20-20 20m40-20-20 20m20-20 20 20m20-20-20 20m40-20-20 20m40-20-20 20m40-20-20 20m40-20-20 20m40-20-20 20m40-20-20 20m40-20-20 20m40-20-20 20m40-20-20 20m40-20-20 20m40-20-20 20m20-20 20 20m20-20-20 20m20-20 20 20m0-20 20 20m20-20-20 20m40-20-20 20m20-20 20 20m20-20-20 20m20-20 20 20m20-20-20 20m20-20 20 20m20-20-20 20m20-20 20 20m20-20-20 20m20-20 20 20m20-20-20 20m20-20 20 20m20-20-20 20m20-20 20 20m20-20-20 20m40-20-20 20m20-20 20 20m0-20 20 20m0-20 20 20m20-20-20 20m40-20-20 20" opacity=".79"/><path d="M20 120 0 140m20-20 20 20m20-20-20 20m20-20 20 20m0-20 20 20m0-20 20 20m20-20-20 20m20-20 20 20m20-20-20 20m20-20 20 20m20-20-20 20m40-20-20 20m40-20-20 20m40-20-20 20m40-20-20 20m40-20-20 20m40-20-20 20m20-20 20 20m20-20-20 20m40-20-20 20m40-20-20 20m20-20 20 20m20-20-20 20m40-20-20 20m40-20-20 20m40-20-20 20m40-20-20 20m40-20-20 20m40-20-20 20m20-20 20 20m0-20 20 20m0-20 20 20m20-20-20 20m20-20 20 20m0-20 20 20m0-20 20 20m20-20-20 20m20-20 20 20m20-20-20 20m40-20-20 20m20-20 20 20m20-20-20 20m40-20-20 20m20-20 20 20m20-20-20 20m40-20-20 20m20-20 20 20m20-20-20 20m20-20 20 20m20-20-20 20m20-20 20 20m0-20 20 20m0-20 20 20m20-20-20 20m40-20-20 20m20-20 20 20m0-20 20 20m0-20 20 20m20-20-20 20m20-20 20 20m20-20-20 20m20-20 20 20m0-20 20 20m20-20-20 20m40-20-20 20m40-20-20 20m40-20-20 20m20-20 20 20m0-20 20 20m0-20 20 20m20-20-20 20m40-20-20 20" opacity=".86"/><path d="M20 140 0 160m20-20 20 20m0-20 20 20m20-20-20 20m20-20 20 20m0-20 20 20m20-20-20 20m40-20-20 20m20-20 20 20m20-20-20 20m20-20 20 20m20-20-20 20m20-20 20 20m20-20-20 20m40-20-20 20m20-20 20 20m0-20 20 20m0-20 20 20m20-20-20 20m40-20-20 20m20-20 20 20m20-20-20 20m20-20 20 20m20-20-20 20m20-20 20 20m20-20-20 20m40-20-20 20m40-20-20 20m40-20-20 20m40-20-20 20m20-20 20 20m0-20 20 20m20-20-20 20m20-20 20 20m20-20-20 20m20-20 20 20m20-20-20 20m40-20-20 20m20-20 20 20m20-20-20 20m20-20 20 20m20-20-20 20m20-20 20 20m0-20 20 20m0-20 20 20m20-20-20 20m40-20-20 20m20-20 20 20m20-20-20 20m20-20 20 20m0-20 20 20m0-20 20 20m20-20-20 20m40-20-20 20m20-20 20 20m0-20 20 20m20-20-20 20m20-20 20 20m20-20-20 20m20-20 20 20m20-20-20 20m20-20 20 20m0-20 20 20m0-20 20 20m0-20 20 20m20-20-20 20m40-20-20 20m40-20-20 20m20-20 20 20m0-20 20 20m20-20-20 20m40-20-20 20" opacity=".83"/><path d="m0 160 20 20m0-20 20 20m20-20-20 20m40-20-20 20m40-20-20 20m20-20 20 20m20-20-20 20m20-20 20 20m20-20-20 20m20-20 20 20m20-20-20 20m40-20-20 20m20-20 20 20m20-20-20 20m20-20 20 20m0-20 20 20m20-20-20 20m20-20 20 20m20-20-20 20m40-20-20 20m40-20-20 20m40-20-20 20m40-20-20 20m40-20-20 20m40-20-20 20m20-20 20 20m20-20-20 20m40-20-20 20m20-20 20 20m0-20 20 20m0-20 20 20m20-20-20 20m40-20-20 20m40-20-20 20m20-20 20 20m0-20 20 20m20-20-20 20m40-20-20 20m40-20-20 20m40-20-20 20m20-20 20 20m20-20-20 20m20-20 20 20m20-20-20 20m40-20-20 20m20-20 20 20m0-20 20 20m20-20-20 20m40-20-20 20m40-20-20 20m20-20 20 20m20-20-20 20m40-20-20 20m40-20-20 20m20-20 20 20m0-20 20 20m0-20 20 20m0-20 20 20m20-20-20 20m40-20-20 20m40-20-20 20m40-20-20 20m20-20 20 20m20-20-20 20m40-20-20 20m40-20-20 20m40-20-20 20m40-20-20 20m20-20 20 20m20-20-20 20m40-20-20 20m40-20-20 20" opacity=".81"/><path d="M20 180 0 200m40-20-20 20m40-20-20 20m40-20-20 20m40-20-20 20m40-20-20 20m40-20-20 20m40-20-20 20m20-20 20 20m0-20 20 20m20-20-20 20m40-20-20 20m40-20-20 20m40-20-20 20m20-20 20 20m20-20-20 20m40-20-20 20m40-20-20 20m20-20 20 20m0-20 20 20m20-20-20 20m20-20 20 20m0-20 20 20m0-20 20 20m20-20-20 20m40-20-20 20m40-20-20 20m40-20-20 20m40-20-20 20m40-20-20 20m40-20-20 20m20-20 20 20m0-20 20 20m20-20-20 20m40-20-20 20m20-20 20 20m20-20-20 20m40-20-20 20m40-20-20 20m40-20-20 20m20-20 20 20m0-20 20 20m0-20 20 20m20-20-20 20m40-20-20 20m40-20-20 20m20-20 20 20m0-20 20 20m20-20-20 20m20-20 20 20m20-20-20 20m40-20-20 20m40-20-20 20m20-20 20 20m20-20-20 20m20-20 20 20m0-20 20 20m0-20 20 20m20-20-20 20m40-20-20 20m40-20-20 20m20-20 20 20m20-20-20 20m20-20 20 20m0-20 20 20m20-20-20 20m20-20 20 20m20-20-20 20m40-20-20 20m20-20 20 20m0-20 20 20m20-20-20 20" opacity=".79"/><path d="m0 200 20 20m20-20-20 20m40-20-20 20m20-20 20 20m20-20-20 20m20-20 20 20m20-20-20 20m20-20 20 20m0-20 20 20m20-20-20 20m20-20 20 20m0-20 20 20m0-20 20 20m20-20-20 20m40-20-20 20m20-20 20 20m20-20-20 20m20-20 20 20m20-20-20 20m40-20-20 20m40-20-20 20m40-20-20 20m20-20 20 20m0-20 20 20m0-20 20 20m0-20 20 20m0-20 20 20m20-20-20 20m20-20 20 20m20-20-20 20m20-20 20 20m0-20 20 20m20-20-20 20m20-20 20 20m20-20-20 20m20-20 20 20m0-20 20 20m0-20 20 20m20-20-20 20m20-20 20 20m0-20 20 20m0-20 20 20m20-20-20 20m20-20 20 20m0-20 20 20m0-20 20 20m0-20 20 20m20-20-20 20m20-20 20 20m20-20-20 20m20-20 20 20m0-20 20 20m20-20-20 20m20-20 20 20m0-20 20 20m0-20 20 20m20-20-20 20m40-20-20 20m40-20-20 20m40-20-20 20m40-20-20 20m20-20 20 20m20-20-20 20m40-20-20 20m40-20-20 20m20-20 20 20m20-20-20 20m20-20 20 20m20-20-20 20m40-20-20 20m20-20 20 20m20-20-20 20" opacity=".76"/><path d="M20 220 0 240m20-20 20 20m20-20-20 20m40-20-20 20m20-20 20 20m20-20-20 20m40-20-20 20m40-20-20 20m20-20 20 20m0-20 20 20m20-20-20 20m40-20-20 20m20-20 20 20m0-20 20 20m20-20-20 20m20-20 20 20m20-20-20 20m40-20-20 20m40-20-20 20m40-20-20 20m40-20-20 20m40-20-20 20m20-20 20 20m20-20-20 20m40-20-20 20m20-20 20 20m20-20-20 20m40-20-20 20m20-20 20 20m20-20-20 20m20-20 20 20m20-20-20 20m20-20 20 20m0-20 20 20m20-20-20 20m40-20-20 20m40-20-20 20m40-20-20 20m20-20 20 20m20-20-20 20m40-20-20 20m20-20 20 20m20-20-20 20m40-20-20 20m40-20-20 20m20-20 20 20m0-20 20 20m0-20 20 20m0-20 20 20m0-20 20 20m0-20 20 20m20-20-20 20m20-20 20 20m0-20 20 20m0-20 20 20m20-20-20 20m20-20 20 20m20-20-20 20m20-20 20 20m0-20 20 20m20-20-20 20m40-20-20 20m40-20-20 20m20-20 20 20m20-20-20 20m40-20-20 20m20-20 20 20m20-20-20 20m20-20 20 20m20-20-20 20m40-20-20 20m40-20-20 20" opacity=".74"/><path d="M20 240 0 260m20-20 20 20m0-20 20 20m20-20-20 20m40-20-20 20m20-20 20 20m0-20 20 20m20-20-20 20m20-20 20 20m0-20 20 20m0-20 20 20m20-20-20 20m40-20-20 20m20-20 20 20m20-20-20 20m20-20 20 20m20-20-20 20m40-20-20 20m20-20 20 20m20-20-20 20m40-20-20 20m40-20-20 20m40-20-20 20m40-20-20 20m40-20-20 20m40-20-20 20m40-20-20 20m40-20-20 20m20-20 20 20m20-20-20 20m40-20-20 20m40-20-20 20m40-20-20 20m40-20-20 20m20-20 20 20m0-20 20 20m0-20 20 20m20-20-20 20m20-20 20 20m0-20 20 20m20-20-20 20m40-20-20 20m40-20-20 20m40-20-20 20m40-20-20 20m20-20 20 20m0-20 20 20m0-20 20 20m0-20 20 20m20-20-20 20m40-20-20 20m20-20 20 20m0-20 20 20m0-20 20 20m0-20 20 20m20-20-20 20m40-20-20 20m20-20 20 20m20-20-20 20m20-20 20 20m20-20-20 20m40-20-20 20m40-20-20 20m40-20-20 20m40-20-20 20m20-20 20 20m20-20-20 20m40-20-20 20m40-20-20 20m20-20 20 20m0-20 20 20m20-20-20 20" opacity=".72"/><path d="m0 260 20 20m20-20-20 20m40-20-20 20m40-20-20 20m40-20-20 20m20-20 20 20m0-20 20 20m0-20 20 20m20-20-20 20m40-20-20 20m40-20-20 20m20-20 20 20m20-20-20 20m40-20-20 20m40-20-20 20m20-20 20 20m0-20 20 20m20-20-20 20m40-20-20 20m20-20 20 20m20-20-20 20m20-20 20 20m20-20-20 20m20-20 20 20m20-20-20 20m20-20 20 20m20-20-20 20m20-20 20 20m20-20-20 20m20-20 20 20m20-20-20 20m20-20 20 20m0-20 20 20m20-20-20 20m20-20 20 20m0-20 20 20m20-20-20 20m40-20-20 20m20-20 20 20m20-20-20 20m40-20-20 20m20-20 20 20m20-20-20 20m40-20-20 20m40-20-20 20m40-20-20 20m40-20-20 20m20-20 20 20m20-20-20 20m40-20-20 20m20-20 20 20m20-20-20 20m40-20-20 20m20-20 20 20m0-20 20 20m20-20-20 20m40-20-20 20m40-20-20 20m40-20-20 20m40-20-20 20m40-20-20 20m20-20 20 20m0-20 20 20m20-20-20 20m20-20 20 20m0-20 20 20m0-20 20 20m0-20 20 20m20-20-20 20m20-20 20 20m0-20 20 20m20-20-20 20" opacity=".69"/><path d="m0 280 20 20m20-20-20 20m40-20-20 20m20-20 20 20m20-20-20 20m40-20-20 20m20-20 20 20m0-20 20 20m20-20-20 20m20-20 20 20m20-20-20 20m20-20 20 20m20-20-20 20m40-20-20 20m20-20 20 20m20-20-20 20m40-20-20 20m20-20 20 20m20-20-20 20m20-20 20 20m20-20-20 20m40-20-20 20m40-20-20 20m40-20-20 20m40-20-20 20m40-20-20 20m20-20 20 20m0-20 20 20m20-20-20 20m20-20 20 20m20-20-20 20m40-20-20 20m20-20 20 20m0-20 20 20m20-20-20 20m20-20 20 20m0-20 20 20m0-20 20 20m0-20 20 20m0-20 20 20m20-20-20 20m40-20-20 20m20-20 20 20m0-20 20 20m20-20-20 20m20-20 20 20m20-20-20 20m20-20 20 20m20-20-20 20m20-20 20 20m20-20-20 20m20-20 20 20m20-20-20 20m40-20-20 20m40-20-20 20m40-20-20 20m40-20-20 20m40-20-20 20m20-20 20 20m20-20-20 20m40-20-20 20m40-20-20 20m20-20 20 20m20-20-20 20m40-20-20 20m40-20-20 20m40-20-20 20m40-20-20 20m20-20 20 20m0-20 20 20m0-20 20 20m20-20-20 20" opacity=".67"/><path d="M20 300 0 320m40-20-20 20m40-20-20 20m40-20-20 20m40-20-20 20m20-20 20 20m20-20-20 20m20-20 20 20m20-20-20 20m40-20-20 20m40-20-20 20m20-20 20 20m20-20-20 20m20-20 20 20m20-20-20 20m20-20 20 20m20-20-20 20m40-20-20 20m40-20-20 20m40-20-20 20m40-20-20 20m40-20-20 20m20-20 20 20m0-20 20 20m0-20 20 20m0-20 20 20m20-20-20 20m40-20-20 20m20-20 20 20m0-20 20 20m20-20-20 20m20-20 20 20m0-20 20 20m20-20-20 20m40-20-20 20m40-20-20 20m40-20-20 20m20-20 20 20m0-20 20 20m0-20 20 20m0-20 20 20m0-20 20 20m20-20-20 20m20-20 20 20m20-20-20 20m20-20 20 20m20-20-20 20m20-20 20 20m20-20-20 20m20-20 20 20m0-20 20 20m0-20 20 20m20-20-20 20m40-20-20 20m20-20 20 20m20-20-20 20m40-20-20 20m40-20-20 20m40-20-20 20m20-20 20 20m0-20 20 20m20-20-20 20m20-20 20 20m20-20-20 20m20-20 20 20m20-20-20 20m20-20 20 20m20-20-20 20m20-20 20 20m0-20 20 20m20-20-20 20m20-20 20 20" opacity=".69"/><path d="M20 320 0 340m20-20 20 20m0-20 20 20m0-20 20 20m0-20 20 20m20-20-20 20m20-20 20 20m20-20-20 20m40-20-20 20m20-20 20 20m0-20 20 20m20-20-20 20m40-20-20 20m40-20-20 20m40-20-20 20m40-20-20 20m40-20-20 20m40-20-20 20m20-20 20 20m20-20-20 20m20-20 20 20m20-20-20 20m40-20-20 20m40-20-20 20m40-20-20 20m20-20 20 20m0-20 20 20m20-20-20 20m40-20-20 20m20-20 20 20m0-20 20 20m20-20-20 20m40-20-20 20m20-20 20 20m20-20-20 20m20-20 20 20m20-20-20 20m40-20-20 20m20-20 20 20m20-20-20 20m20-20 20 20m0-20 20 20m20-20-20 20m20-20 20 20m20-20-20 20m20-20 20 20m20-20-20 20m20-20 20 20m20-20-20 20m40-20-20 20m20-20 20 20m0-20 20 20m20-20-20 20m40-20-20 20m20-20 20 20m0-20 20 20m0-20 20 20m0-20 20 20m20-20-20 20m20-20 20 20m0-20 20 20m0-20 20 20m20-20-20 20m40-20-20 20m20-20 20 20m0-20 20 20m20-20-20 20m20-20 20 20m20-20-20 20m20-20 20 20m0-20 20 20m20-20-20 20" opacity=".72"/><path d="m0 340 20 20m0-20 20 20m0-20 20 20m0-20 20 20m0-20 20 20m0-20 20 20m0-20 20 20m20-20-20 20m20-20 20 20m0-20 20 20m20-20-20 20m40-20-20 20m20-20 20 20m20-20-20 20m20-20 20 20m0-20 20 20m20-20-20 20m40-20-20 20m20-20 20 20m0-20 20 20m20-20-20 20m40-20-20 20m20-20 20 20m0-20 20 20m0-20 20 20m0-20 20 20m20-20-20 20m40-20-20 20m40-20-20 20m40-20-20 20m40-20-20 20m40-20-20 20m20-20 20 20m20-20-20 20m40-20-20 20m40-20-20 20m40-20-20 20m20-20 20 20m0-20 20 20m20-20-20 20m40-20-20 20m20-20 20 20m20-20-20 20m40-20-20 20m20-20 20 20m0-20 20 20m20-20-20 20m20-20 20 20m0-20 20 20m20-20-20 20m20-20 20 20m0-20 20 20m20-20-20 20m40-20-20 20m20-20 20 20m0-20 20 20m0-20 20 20m0-20 20 20m20-20-20 20m20-20 20 20m0-20 20 20m20-20-20 20m20-20 20 20m0-20 20 20m0-20 20 20m0-20 20 20m20-20-20 20m20-20 20 20m20-20-20 20m20-20 20 20m20-20-20 20m40-20-20 20" opacity=".74"/><path d="M20 360 0 380m20-20 20 20m0-20 20 20m20-20-20 20m40-20-20 20m20-20 20 20m20-20-20 20m40-20-20 20m20-20 20 20m20-20-20 20m20-20 20 20m20-20-20 20m40-20-20 20m40-20-20 20m20-20 20 20m20-20-20 20m40-20-20 20m40-20-20 20m20-20 20 20m20-20-20 20m40-20-20 20m20-20 20 20m0-20 20 20m20-20-20 20m40-20-20 20m20-20 20 20m20-20-20 20m40-20-20 20m40-20-20 20m20-20 20 20m20-20-20 20m40-20-20 20m40-20-20 20m40-20-20 20m20-20 20 20m0-20 20 20m0-20 20 20m20-20-20 20m40-20-20 20m40-20-20 20m20-20 20 20m20-20-20 20m20-20 20 20m20-20-20 20m40-20-20 20m20-20 20 20m0-20 20 20m20-20-20 20m20-20 20 20m20-20-20 20m40-20-20 20m40-20-20 20m40-20-20 20m20-20 20 20m20-20-20 20m40-20-20 20m40-20-20 20m40-20-20 20m20-20 20 20m0-20 20 20m20-20-20 20m20-20 20 20m20-20-20 20m40-20-20 20m20-20 20 20m20-20-20 20m40-20-20 20m40-20-20 20m40-20-20 20m40-20-20 20m40-20-20 20m40-20-20 20" opacity=".76"/><path d="m0 380 20 20m20-20-20 20m20-20 20 20m0-20 20 20m20-20-20 20m20-20 20 20m20-20-20 20m40-20-20 20m20-20 20 20m0-20 20 20m0-20 20 20m20-20-20 20m20-20 20 20m20-20-20 20m20-20 20 20m0-20 20 20m20-20-20 20m40-20-20 20m40-20-20 20m20-20 20 20m0-20 20 20m20-20-20 20m20-20 20 20m0-20 20 20m0-20 20 20m0-20 20 20m20-20-20 20m20-20 20 20m20-20-20 20m40-20-20 20m20-20 20 20m20-20-20 20m40-20-20 20m20-20 20 20m20-20-20 20m20-20 20 20m0-20 20 20m0-20 20 20m20-20-20 20m20-20 20 20m20-20-20 20m40-20-20 20m40-20-20 20m20-20 20 20m0-20 20 20m0-20 20 20m0-20 20 20m20-20-20 20m40-20-20 20m20-20 20 20m20-20-20 20m20-20 20 20m0-20 20 20m0-20 20 20m0-20 20 20m0-20 20 20m20-20-20 20m40-20-20 20m20-20 20 20m20-20-20 20m20-20 20 20m20-20-20 20m40-20-20 20m20-20 20 20m0-20 20 20m20-20-20 20m20-20 20 20m0-20 20 20m20-20-20 20m40-20-20 20m40-20-20 20m20-20 20 20" opacity=".74"/><path d="M20 400 0 420m40-20-20 20m20-20 20 20m20-20-20 20m20-20 20 20m20-20-20 20m40-20-20 20m20-20 20 20m20-20-20 20m40-20-20 20m20-20 20 20m20-20-20 20m40-20-20 20m20-20 20 20m20-20-20 20m20-20 20 20m20-20-20 20m20-20 20 20m20-20-20 20m40-20-20 20m40-20-20 20m40-20-20 20m20-20 20 20m0-20 20 20m0-20 20 20m20-20-20 20m20-20 20 20m0-20 20 20m20-20-20 20m20-20 20 20m20-20-20 20m40-20-20 20m40-20-20 20m40-20-20 20m40-20-20 20m40-20-20 20m20-20 20 20m20-20-20 20m40-20-20 20m20-20 20 20m0-20 20 20m20-20-20 20m40-20-20 20m40-20-20 20m20-20 20 20m20-20-20 20m40-20-20 20m40-20-20 20m20-20 20 20m0-20 20 20m0-20 20 20m20-20-20 20m20-20 20 20m20-20-20 20m20-20 20 20m20-20-20 20m20-20 20 20m0-20 20 20m20-20-20 20m20-20 20 20m20-20-20 20m20-20 20 20m20-20-20 20m20-20 20 20m20-20-20 20m40-20-20 20m20-20 20 20m20-20-20 20m20-20 20 20m0-20 20 20m20-20-20 20m20-20 20 20" opacity=".72"/><path d="M20 420 0 440m20-20 20 20m20-20-20 20m20-20 20 20m20-20-20 20m40-20-20 20m40-20-20 20m20-20 20 20m0-20 20 20m20-20-20 20m40-20-20 20m20-20 20 20m20-20-20 20m40-20-20 20m40-20-20 20m40-20-20 20m40-20-20 20m40-20-20 20m40-20-20 20m20-20 20 20m20-20-20 20m40-20-20 20m20-20 20 20m0-20 20 20m0-20 20 20m0-20 20 20m20-20-20 20m20-20 20 20m20-20-20 20m40-20-20 20m40-20-20 20m40-20-20 20m20-20 20 20m0-20 20 20m20-20-20 20m20-20 20 20m20-20-20 20m20-20 20 20m0-20 20 20m20-20-20 20m20-20 20 20m0-20 20 20m20-20-20 20m40-20-20 20m40-20-20 20m20-20 20 20m20-20-20 20m20-20 20 20m20-20-20 20m20-20 20 20m20-20-20 20m20-20 20 20m0-20 20 20m20-20-20 20m40-20-20 20m40-20-20 20m20-20 20 20m20-20-20 20m40-20-20 20m40-20-20 20m40-20-20 20m40-20-20 20m20-20 20 20m20-20-20 20m40-20-20 20m40-20-20 20m40-20-20 20m20-20 20 20m0-20 20 20m0-20 20 20m0-20 20 20m20-20-20 20" opacity=".69"/><path d="M20 440 0 460m20-20 20 20m0-20 20 20m20-20-20 20m20-20 20 20m20-20-20 20m20-20 20 20m20-20-20 20m20-20 20 20m20-20-20 20m40-20-20 20m20-20 20 20m20-20-20 20m40-20-20 20m40-20-20 20m40-20-20 20m40-20-20 20m20-20 20 20m0-20 20 20m0-20 20 20m0-20 20 20m0-20 20 20m0-20 20 20m0-20 20 20m20-20-20 20m20-20 20 20m20-20-20 20m40-20-20 20m20-20 20 20m20-20-20 20m20-20 20 20m20-20-20 20m20-20 20 20m0-20 20 20m20-20-20 20m40-20-20 20m40-20-20 20m40-20-20 20m20-20 20 20m20-20-20 20m20-20 20 20m0-20 20 20m0-20 20 20m0-20 20 20m20-20-20 20m40-20-20 20m20-20 20 20m20-20-20 20m20-20 20 20m0-20 20 20m20-20-20 20m20-20 20 20m20-20-20 20m40-20-20 20m20-20 20 20m0-20 20 20m0-20 20 20m20-20-20 20m20-20 20 20m20-20-20 20m40-20-20 20m40-20-20 20m40-20-20 20m40-20-20 20m40-20-20 20m40-20-20 20m40-20-20 20m40-20-20 20m20-20 20 20m0-20 20 20m0-20 20 20m0-20 20 20" opacity=".67"/><path d="M20 460 0 480m20-20 20 20m20-20-20 20m40-20-20 20m20-20 20 20m0-20 20 20m0-20 20 20m20-20-20 20m40-20-20 20m20-20 20 20m20-20-20 20m40-20-20 20m20-20 20 20m0-20 20 20m20-20-20 20m40-20-20 20m20-20 20 20m0-20 20 20m20-20-20 20m20-20 20 20m0-20 20 20m0-20 20 20m20-20-20 20m20-20 20 20m0-20 20 20m20-20-20 20m40-20-20 20m40-20-20 20m20-20 20 20m20-20-20 20m20-20 20 20m20-20-20 20m40-20-20 20m20-20 20 20m20-20-20 20m20-20 20 20m0-20 20 20m0-20 20 20m20-20-20 20m20-20 20 20m0-20 20 20m0-20 20 20m20-20-20 20m40-20-20 20m20-20 20 20m20-20-20 20m20-20 20 20m20-20-20 20m20-20 20 20m0-20 20 20m0-20 20 20m0-20 20 20m20-20-20 20m40-20-20 20m40-20-20 20m20-20 20 20m0-20 20 20m20-20-20 20m40-20-20 20m40-20-20 20m20-20 20 20m20-20-20 20m20-20 20 20m20-20-20 20m40-20-20 20m40-20-20 20m40-20-20 20m40-20-20 20m20-20 20 20m20-20-20 20m40-20-20 20m40-20-20 20" opacity=".69"/><path d="M20 480 0 500m40-20-20 20m40-20-20 20m40-20-20 20m20-20 20 20m0-20 20 20m20-20-20 20m20-20 20 20m0-20 20 20m20-20-20 20m40-20-20 20m20-20 20 20m20-20-20 20m20-20 20 20m0-20 20 20m20-20-20 20m20-20 20 20m0-20 20 20m20-20-20 20m40-20-20 20m40-20-20 20m40-20-20 20m40-20-20 20m20-20 20 20m20-20-20 20m20-20 20 20m0-20 20 20m20-20-20 20m40-20-20 20m20-20 20 20m0-20 20 20m20-20-20 20m20-20 20 20m20-20-20 20m40-20-20 20m40-20-20 20m20-20 20 20m20-20-20 20m20-20 20 20m20-20-20 20m40-20-20 20m20-20 20 20m0-20 20 20m0-20 20 20m20-20-20 20m40-20-20 20m40-20-20 20m20-20 20 20m20-20-20 20m40-20-20 20m40-20-20 20m20-20 20 20m20-20-20 20m40-20-20 20m20-20 20 20m20-20-20 20m20-20 20 20m20-20-20 20m40-20-20 20m20-20 20 20m0-20 20 20m20-20-20 20m20-20 20 20m20-20-20 20m40-20-20 20m40-20-20 20m20-20 20 20m20-20-20 20m40-20-20 20m40-20-20 20m20-20 20 20m20-20-20 20" opacity=".72"/><path d="M20 500 0 520m40-20-20 20m40-20-20 20m40-20-20 20m40-20-20 20m40-20-20 20m40-20-20 20m40-20-20 20m40-20-20 20m20-20 20 20m0-20 20 20m20-20-20 20m40-20-20 20m40-20-20 20m20-20 20 20m20-20-20 20m40-20-20 20m40-20-20 20m40-20-20 20m40-20-20 20m40-20-20 20m20-20 20 20m0-20 20 20m20-20-20 20m40-20-20 20m20-20 20 20m20-20-20 20m20-20 20 20m0-20 20 20m0-20 20 20m20-20-20 20m40-20-20 20m40-20-20 20m40-20-20 20m20-20 20 20m20-20-20 20m20-20 20 20m20-20-20 20m20-20 20 20m0-20 20 20m20-20-20 20m20-20 20 20m0-20 20 20m0-20 20 20m20-20-20 20m40-20-20 20m40-20-20 20m40-20-20 20m40-20-20 20m40-20-20 20m20-20 20 20m20-20-20 20m40-20-20 20m40-20-20 20m20-20 20 20m0-20 20 20m20-20-20 20m20-20 20 20m20-20-20 20m40-20-20 20m40-20-20 20m40-20-20 20m20-20 20 20m0-20 20 20m0-20 20 20m0-20 20 20m20-20-20 20m40-20-20 20m40-20-20 20m40-20-20 20m40-20-20 20m20-20 20 20" opacity=".74"/><path d="m0 520 20 20m20-20-20 20m20-20 20 20m20-20-20 20m40-20-20 20m20-20 20 20m20-20-20 20m40-20-20 20m20-20 20 20m20-20-20 20m40-20-20 20m20-20 20 20m20-20-20 20m40-20-20 20m40-20-20 20m40-20-20 20m40-20-20 20m40-20-20 20m40-20-20 20m40-20-20 20m40-20-20 20m40-20-20 20m20-20 20 20m20-20-20 20m40-20-20 20m40-20-20 20m40-20-20 20m40-20-20 20m40-20-20 20m40-20-20 20m20-20 20 20m20-20-20 20m40-20-20 20m20-20 20 20m0-20 20 20m20-20-20 20m40-20-20 20m40-20-20 20m40-20-20 20m20-20 20 20m0-20 20 20m0-20 20 20m0-20 20 20m20-20-20 20m20-20 20 20m0-20 20 20m0-20 20 20m0-20 20 20m0-20 20 20m20-20-20 20m20-20 20 20m0-20 20 20m20-20-20 20m20-20 20 20m0-20 20 20m20-20-20 20m40-20-20 20m40-20-20 20m40-20-20 20m40-20-20 20m20-20 20 20m20-20-20 20m40-20-20 20m40-20-20 20m40-20-20 20m20-20 20 20m20-20-20 20m20-20 20 20m20-20-20 20m20-20 20 20m20-20-20 20m40-20-20 20" opacity=".76"/><path d="m0 540 20 20m20-20-20 20m20-20 20 20m20-20-20 20m20-20 20 20m20-20-20 20m20-20 20 20m20-20-20 20m40-20-20 20m40-20-20 20m40-20-20 20m40-20-20 20m40-20-20 20m40-20-20 20m40-20-20 20m40-20-20 20m40-20-20 20m20-20 20 20m20-20-20 20m40-20-20 20m40-20-20 20m40-20-20 20m40-20-20 20m20-20 20 20m0-20 20 20m20-20-20 20m40-20-20 20m40-20-20 20m20-20 20 20m20-20-20 20m20-20 20 20m0-20 20 20m20-20-20 20m40-20-20 20m40-20-20 20m20-20 20 20m20-20-20 20m20-20 20 20m20-20-20 20m40-20-20 20m40-20-20 20m20-20 20 20m0-20 20 20m0-20 20 20m20-20-20 20m20-20 20 20m0-20 20 20m20-20-20 20m20-20 20 20m0-20 20 20m20-20-20 20m40-20-20 20m40-20-20 20m20-20 20 20m0-20 20 20m0-20 20 20m0-20 20 20m20-20-20 20m20-20 20 20m0-20 20 20m20-20-20 20m20-20 20 20m20-20-20 20m40-20-20 20m40-20-20 20m40-20-20 20m20-20 20 20m20-20-20 20m20-20 20 20m0-20 20 20m20-20-20 20m20-20 20 20" opacity=".74"/><path d="M20 560 0 580m20-20 20 20m0-20 20 20m20-20-20 20m20-20 20 20m0-20 20 20m20-20-20 20m20-20 20 20m20-20-20 20m20-20 20 20m20-20-20 20m20-20 20 20m0-20 20 20m20-20-20 20m40-20-20 20m20-20 20 20m0-20 20 20m20-20-20 20m40-20-20 20m20-20 20 20m20-20-20 20m40-20-20 20m40-20-20 20m40-20-20 20m40-20-20 20m40-20-20 20m20-20 20 20m0-20 20 20m20-20-20 20m20-20 20 20m0-20 20 20m20-20-20 20m20-20 20 20m20-20-20 20m40-20-20 20m40-20-20 20m40-20-20 20m40-20-20 20m20-20 20 20m0-20 20 20m20-20-20 20m40-20-20 20m40-20-20 20m20-20 20 20m0-20 20 20m0-20 20 20m0-20 20 20m0-20 20 20m0-20 20 20m20-20-20 20m20-20 20 20m0-20 20 20m20-20-20 20m20-20 20 20m20-20-20 20m20-20 20 20m0-20 20 20m0-20 20 20m0-20 20 20m0-20 20 20m20-20-20 20m20-20 20 20m20-20-20 20m40-20-20 20m40-20-20 20m40-20-20 20m40-20-20 20m20-20 20 20m0-20 20 20m20-20-20 20m20-20 20 20m20-20-20 20" opacity=".72"/><path d="M20 580 0 600m40-20-20 20m40-20-20 20m40-20-20 20m40-20-20 20m40-20-20 20m40-20-20 20m20-20 20 20m20-20-20 20m40-20-20 20m40-20-20 20m40-20-20 20m40-20-20 20m40-20-20 20m40-20-20 20m40-20-20 20m20-20 20 20m20-20-20 20m40-20-20 20m20-20 20 20m0-20 20 20m20-20-20 20m40-20-20 20m20-20 20 20m20-20-20 20m40-20-20 20m20-20 20 20m0-20 20 20m20-20-20 20m40-20-20 20m40-20-20 20m40-20-20 20m40-20-20 20m40-20-20 20m40-20-20 20m40-20-20 20m40-20-20 20m40-20-20 20m20-20 20 20m0-20 20 20m20-20-20 20m20-20 20 20m0-20 20 20m0-20 20 20m20-20-20 20m20-20 20 20m0-20 20 20m0-20 20 20m0-20 20 20m0-20 20 20m0-20 20 20m20-20-20 20m20-20 20 20m20-20-20 20m40-20-20 20m40-20-20 20m20-20 20 20m20-20-20 20m40-20-20 20m20-20 20 20m20-20-20 20m40-20-20 20m40-20-20 20m40-20-20 20m40-20-20 20m40-20-20 20m40-20-20 20m40-20-20 20m40-20-20 20m40-20-20 20m20-20 20 20m0-20 20 20" opacity=".69"/><path d="M20 600 0 620m40-20-20 20m40-20-20 20m40-20-20 20m40-20-20 20m40-20-20 20m40-20-20 20m40-20-20 20m40-20-20 20m40-20-20 20m40-20-20 20m40-20-20 20m40-20-20 20m40-20-20 20m40-20-20 20m40-20-20 20m40-20-20 20m40-20-20 20m40-20-20 20m40-20-20 20m40-20-20 20m40-20-20 20m40-20-20 20m20-20 20 20m0-20 20 20m20-20-20 20m40-20-20 20m40-20-20 20m40-20-20 20m40-20-20 20m40-20-20 20m40-20-20 20m40-20-20 20m20-20 20 20m0-20 20 20m0-20 20 20m0-20 20 20m20-20-20 20m40-20-20 20m40-20-20 20m40-20-20 20m20-20 20 20m20-20-20 20m40-20-20 20m20-20 20 20m0-20 20 20m20-20-20 20m20-20 20 20m20-20-20 20m40-20-20 20m40-20-20 20m20-20 20 20m0-20 20 20m20-20-20 20m40-20-20 20m20-20 20 20m0-20 20 20m0-20 20 20m20-20-20 20m20-20 20 20m0-20 20 20m20-20-20 20m20-20 20 20m20-20-20 20m20-20 20 20m20-20-20 20m20-20 20 20m0-20 20 20m20-20-20 20m20-20 20 20m0-20 20 20m20-20-20 20" opacity=".67"/><path d="m0 620 20 20m20-20-20 20m40-20-20 20m40-20-20 20m40-20-20 20m40-20-20 20m20-20 20 20m0-20 20 20m20-20-20 20m20-20 20 20m0-20 20 20m0-20 20 20m0-20 20 20m0-20 20 20m0-20 20 20m0-20 20 20m20-20-20 20m20-20 20 20m0-20 20 20m20-20-20 20m40-20-20 20m40-20-20 20m20-20 20 20m20-20-20 20m40-20-20 20m20-20 20 20m20-20-20 20m20-20 20 20m20-20-20 20m20-20 20 20m20-20-20 20m20-20 20 20m20-20-20 20m20-20 20 20m20-20-20 20m40-20-20 20m20-20 20 20m20-20-20 20m40-20-20 20m40-20-20 20m20-20 20 20m20-20-20 20m40-20-20 20m40-20-20 20m20-20 20 20m20-20-20 20m20-20 20 20m0-20 20 20m20-20-20 20m20-20 20 20m0-20 20 20m20-20-20 20m40-20-20 20m40-20-20 20m20-20 20 20m0-20 20 20m20-20-20 20m40-20-20 20m20-20 20 20m20-20-20 20m20-20 20 20m0-20 20 20m0-20 20 20m0-20 20 20m0-20 20 20m20-20-20 20m20-20 20 20m0-20 20 20m20-20-20 20m40-20-20 20m20-20 20 20m20-20-20 20" opacity=".69"/><path d="M20 640 0 660m20-20 20 20m20-20-20 20m40-20-20 20m20-20 20 20m20-20-20 20m40-20-20 20m20-20 20 20m20-20-20 20m20-20 20 20m20-20-20 20m40-20-20 20m20-20 20 20m0-20 20 20m20-20-20 20m40-20-20 20m40-20-20 20m40-20-20 20m40-20-20 20m20-20 20 20m0-20 20 20m0-20 20 20m0-20 20 20m0-20 20 20m0-20 20 20m20-20-20 20m40-20-20 20m40-20-20 20m40-20-20 20m40-20-20 20m20-20 20 20m0-20 20 20m20-20-20 20m40-20-20 20m40-20-20 20m40-20-20 20m20-20 20 20m0-20 20 20m0-20 20 20m20-20-20 20m20-20 20 20m0-20 20 20m20-20-20 20m20-20 20 20m0-20 20 20m20-20-20 20m40-20-20 20m20-20 20 20m0-20 20 20m20-20-20 20m40-20-20 20m20-20 20 20m0-20 20 20m0-20 20 20m20-20-20 20m20-20 20 20m0-20 20 20m0-20 20 20m0-20 20 20m0-20 20 20m20-20-20 20m20-20 20 20m20-20-20 20m20-20 20 20m0-20 20 20m0-20 20 20m20-20-20 20m20-20 20 20m20-20-20 20m40-20-20 20m40-20-20 20m20-20 20 20" opacity=".72"/><path d="m0 660 20 20m20-20-20 20m20-20 20 20m0-20 20 20m20-20-20 20m20-20 20 20m20-20-20 20m40-20-20 20m40-20-20 20m40-20-20 20m20-20 20 20m20-20-20 20m20-20 20 20m20-20-20 20m40-20-20 20m40-20-20 20m20-20 20 20m0-20 20 20m20-20-20 20m40-20-20 20m40-20-20 20m40-20-20 20m40-20-20 20m40-20-20 20m40-20-20 20m40-20-20 20m20-20 20 20m20-20-20 20m40-20-20 20m20-20 20 20m20-20-20 20m20-20 20 20m0-20 20 20m0-20 20 20m20-20-20 20m20-20 20 20m0-20 20 20m0-20 20 20m0-20 20 20m0-20 20 20m20-20-20 20m40-20-20 20m20-20 20 20m20-20-20 20m20-20 20 20m0-20 20 20m0-20 20 20m0-20 20 20m20-20-20 20m20-20 20 20m0-20 20 20m0-20 20 20m0-20 20 20m20-20-20 20m20-20 20 20m20-20-20 20m20-20 20 20m0-20 20 20m20-20-20 20m20-20 20 20m20-20-20 20m40-20-20 20m20-20 20 20m20-20-20 20m40-20-20 20m20-20 20 20m20-20-20 20m20-20 20 20m20-20-20 20m20-20 20 20m20-20-20 20m40-20-20 20" opacity=".74"/><path d="M20 680 0 700m20-20 20 20m20-20-20 20m40-20-20 20m40-20-20 20m20-20 20 20m20-20-20 20m20-20 20 20m0-20 20 20m20-20-20 20m40-20-20 20m40-20-20 20m20-20 20 20m0-20 20 20m0-20 20 20m0-20 20 20m0-20 20 20m0-20 20 20m20-20-20 20m20-20 20 20m20-20-20 20m40-20-20 20m20-20 20 20m20-20-20 20m40-20-20 20m20-20 20 20m0-20 20 20m0-20 20 20m20-20-20 20m20-20 20 20m0-20 20 20m20-20-20 20m40-20-20 20m40-20-20 20m40-20-20 20m20-20 20 20m20-20-20 20m20-20 20 20m20-20-20 20m20-20 20 20m0-20 20 20m20-20-20 20m40-20-20 20m40-20-20 20m40-20-20 20m40-20-20 20m20-20 20 20m0-20 20 20m20-20-20 20m40-20-20 20m40-20-20 20m40-20-20 20m20-20 20 20m0-20 20 20m0-20 20 20m20-20-20 20m40-20-20 20m40-20-20 20m20-20 20 20m20-20-20 20m40-20-20 20m20-20 20 20m0-20 20 20m20-20-20 20m40-20-20 20m20-20 20 20m20-20-20 20m40-20-20 20m40-20-20 20m20-20 20 20m0-20 20 20m20-20-20 20" opacity=".76"/><path d="M20 700 0 720m40-20-20 20m40-20-20 20m20-20 20 20m0-20 20 20m20-20-20 20m40-20-20 20m40-20-20 20m20-20 20 20m20-20-20 20m40-20-20 20m20-20 20 20m0-20 20 20m0-20 20 20m0-20 20 20m0-20 20 20m20-20-20 20m40-20-20 20m40-20-20 20m40-20-20 20m40-20-20 20m40-20-20 20m40-20-20 20m40-20-20 20m20-20 20 20m20-20-20 20m40-20-20 20m40-20-20 20m20-20 20 20m20-20-20 20m20-20 20 20m20-20-20 20m40-20-20 20m40-20-20 20m40-20-20 20m20-20 20 20m20-20-20 20m20-20 20 20m20-20-20 20m20-20 20 20m20-20-20 20m20-20 20 20m0-20 20 20m0-20 20 20m20-20-20 20m40-20-20 20m20-20 20 20m20-20-20 20m40-20-20 20m20-20 20 20m20-20-20 20m20-20 20 20m0-20 20 20m20-20-20 20m40-20-20 20m20-20 20 20m20-20-20 20m20-20 20 20m20-20-20 20m40-20-20 20m40-20-20 20m20-20 20 20m0-20 20 20m0-20 20 20m0-20 20 20m0-20 20 20m20-20-20 20m40-20-20 20m40-20-20 20m40-20-20 20m40-20-20 20m20-20 20 20" opacity=".79"/><path d="M20 720 0 740m40-20-20 20m20-20 20 20m0-20 20 20m0-20 20 20m20-20-20 20m40-20-20 20m20-20 20 20m0-20 20 20m0-20 20 20m20-20-20 20m40-20-20 20m40-20-20 20m20-20 20 20m20-20-20 20m20-20 20 20m0-20 20 20m20-20-20 20m40-20-20 20m40-20-20 20m20-20 20 20m0-20 20 20m20-20-20 20m20-20 20 20m20-20-20 20m20-20 20 20m0-20 20 20m20-20-20 20m40-20-20 20m20-20 20 20m20-20-20 20m20-20 20 20m0-20 20 20m20-20-20 20m20-20 20 20m20-20-20 20m40-20-20 20m40-20-20 20m40-20-20 20m40-20-20 20m40-20-20 20m20-20 20 20m0-20 20 20m0-20 20 20m20-20-20 20m40-20-20 20m20-20 20 20m20-20-20 20m40-20-20 20m40-20-20 20m20-20 20 20m0-20 20 20m20-20-20 20m20-20 20 20m20-20-20 20m40-20-20 20m20-20 20 20m20-20-20 20m20-20 20 20m0-20 20 20m20-20-20 20m40-20-20 20m40-20-20 20m40-20-20 20m20-20 20 20m0-20 20 20m20-20-20 20m20-20 20 20m20-20-20 20m40-20-20 20m20-20 20 20m0-20 20 20" opacity=".81"/><path d="M20 740 0 760m40-20-20 20m40-20-20 20m20-20 20 20m0-20 20 20m0-20 20 20m0-20 20 20m0-20 20 20m20-20-20 20m20-20 20 20m20-20-20 20m20-20 20 20m0-20 20 20m20-20-20 20m40-20-20 20m20-20 20 20m20-20-20 20m20-20 20 20m20-20-20 20m20-20 20 20m0-20 20 20m0-20 20 20m20-20-20 20m40-20-20 20m40-20-20 20m40-20-20 20m40-20-20 20m40-20-20 20m40-20-20 20m40-20-20 20m40-20-20 20m20-20 20 20m0-20 20 20m0-20 20 20m20-20-20 20m20-20 20 20m0-20 20 20m0-20 20 20m20-20-20 20m20-20 20 20m20-20-20 20m40-20-20 20m40-20-20 20m40-20-20 20m20-20 20 20m20-20-20 20m20-20 20 20m20-20-20 20m40-20-20 20m20-20 20 20m0-20 20 20m20-20-20 20m20-20 20 20m0-20 20 20m20-20-20 20m40-20-20 20m20-20 20 20m0-20 20 20m0-20 20 20m20-20-20 20m40-20-20 20m20-20 20 20m20-20-20 20m20-20 20 20m0-20 20 20m20-20-20 20m20-20 20 20m0-20 20 20m20-20-20 20m40-20-20 20m40-20-20 20m20-20 20 20" opacity=".83"/><path d="M20 760 0 780m40-20-20 20m20-20 20 20m20-20-20 20m40-20-20 20m40-20-20 20m20-20 20 20m0-20 20 20m20-20-20 20m40-20-20 20m20-20 20 20m20-20-20 20m40-20-20 20m20-20 20 20m20-20-20 20m40-20-20 20m40-20-20 20m40-20-20 20m40-20-20 20m40-20-20 20m20-20 20 20m20-20-20 20m40-20-20 20m40-20-20 20m20-20 20 20m20-20-20 20m40-20-20 20m20-20 20 20m0-20 20 20m20-20-20 20m40-20-20 20m20-20 20 20m20-20-20 20m40-20-20 20m20-20 20 20m20-20-20 20m40-20-20 20m40-20-20 20m40-20-20 20m20-20 20 20m0-20 20 20m0-20 20 20m0-20 20 20m0-20 20 20m20-20-20 20m20-20 20 20m0-20 20 20m0-20 20 20m0-20 20 20m20-20-20 20m40-20-20 20m20-20 20 20m0-20 20 20m0-20 20 20m20-20-20 20m20-20 20 20m20-20-20 20m20-20 20 20m20-20-20 20m40-20-20 20m40-20-20 20m40-20-20 20m20-20 20 20m0-20 20 20m0-20 20 20m20-20-20 20m40-20-20 20m20-20 20 20m20-20-20 20m20-20 20 20m20-20-20 20m40-20-20 20" opacity=".86"/><path d="m0 780 20 20m0-20 20 20m20-20-20 20m40-20-20 20m40-20-20 20m40-20-20 20m20-20 20 20m20-20-20 20m40-20-20 20m40-20-20 20m40-20-20 20m40-20-20 20m20-20 20 20m0-20 20 20m0-20 20 20m0-20 20 20m20-20-20 20m40-20-20 20m20-20 20 20m20-20-20 20m40-20-20 20m40-20-20 20m20-20 20 20m20-20-20 20m20-20 20 20m20-20-20 20m20-20 20 20m0-20 20 20m20-20-20 20m20-20 20 20m20-20-20 20m40-20-20 20m20-20 20 20m20-20-20 20m40-20-20 20m20-20 20 20m20-20-20 20m40-20-20 20m20-20 20 20m0-20 20 20m20-20-20 20m40-20-20 20m20-20 20 20m20-20-20 20m40-20-20 20m20-20 20 20m20-20-20 20m20-20 20 20m0-20 20 20m20-20-20 20m20-20 20 20m20-20-20 20m40-20-20 20m40-20-20 20m20-20 20 20m0-20 20 20m20-20-20 20m40-20-20 20m40-20-20 20m40-20-20 20m20-20 20 20m0-20 20 20m20-20-20 20m40-20-20 20m40-20-20 20m40-20-20 20m40-20-20 20m20-20 20 20m20-20-20 20m20-20 20 20m0-20 20 20m20-20-20 20" opacity=".88"/><path d="m0 800 20 20m20-20-20 20m40-20-20 20m40-20-20 20m40-20-20 20m20-20 20 20m20-20-20 20m40-20-20 20m20-20 20 20m20-20-20 20m20-20 20 20m0-20 20 20m20-20-20 20m40-20-20 20m40-20-20 20m20-20 20 20m0-20 20 20m0-20 20 20m20-20-20 20m40-20-20 20m20-20 20 20m20-20-20 20m20-20 20 20m20-20-20 20m40-20-20 20m40-20-20 20m40-20-20 20m40-20-20 20m40-20-20 20m20-20 20 20m20-20-20 20m20-20 20 20m0-20 20 20m0-20 20 20m0-20 20 20m20-20-20 20m40-20-20 20m20-20 20 20m0-20 20 20m20-20-20 20m40-20-20 20m40-20-20 20m40-20-20 20m20-20 20 20m20-20-20 20m40-20-20 20m20-20 20 20m0-20 20 20m0-20 20 20m20-20-20 20m20-20 20 20m20-20-20 20m20-20 20 20m20-20-20 20m20-20 20 20m0-20 20 20m20-20-20 20m20-20 20 20m0-20 20 20m20-20-20 20m40-20-20 20m20-20 20 20m0-20 20 20m0-20 20 20m20-20-20 20m40-20-20 20m40-20-20 20m40-20-20 20m20-20 20 20m20-20-20 20m40-20-20 20m20-20 20 20" opacity=".91"/></g></svg>