<!-- Generated by IcoMoon.io -->
<svg version="1.1" xmlns="http://www.w3.org/2000/svg" width="64" height="64" viewBox="0 0 64 64">
<title></title>
<g id="icomoon-ignore">
</g>
<path fill="#000" d="M12.958 43.571h-4.385c-4.181-0.002-7.571-3.391-7.573-7.572v-26.926c0.002-4.182 3.391-7.571 7.573-7.573h46.854c4.182 0.002 7.571 3.391 7.573 7.573v26.926c-0.002 4.181-3.392 7.57-7.573 7.572h-24.973l-17.146 19.429-0.35-19.429zM32 5.596v33.879h23.604c2.861-0.001 5.18-2.32 5.182-5.181v-23.516c-0.001-2.861-2.321-5.181-5.182-5.182h-23.604zM29.232 5.596h-21.334c-2.586 0.001-4.683 2.098-4.684 4.684v24.512c0.002 2.586 2.098 4.682 4.684 4.683h21.334v-33.879zM37.921 16.33h-4.807v-4.146h11.624v-3.384h3.534l0.5 1.191-0.724 0.736v1.457h11.623v4.146h-6.042c-0.792 2.81-2.287 5.864-4.449 8.755 2.76 2.646 5.652 4.066 8.073 4.443l2.159 0.336-2.136 4.301-1.032-0.037c-3.142-0.115-6.993-1.735-10.576-5.137-3.363 3.055-6.926 4.53-9.861 4.637l-0.709 0.026-1.689-3.401 1.484-0.231c2.379-0.371 5.208-1.708 7.934-4.194-2.421-3.12-4.069-6.455-4.906-9.498zM22.507 33.724l0.060 0.163h5.369l-8.663-22.437h-6.099l-8.697 22.437h5.42l2.067-5.605h8.535l2.008 5.442zM16.234 15.923l0.099 0.308 0.713 2.122 2.178 5.973h-5.985c1.667-4.568 2.575-7.085 2.726-7.551 0.099-0.305 0.188-0.589 0.269-0.852zM49.521 16.33h-6.428c0.948 2.108 2.035 3.923 3.304 5.591l-0.051-0.069c1.187-1.597 2.249-3.413 3.103-5.34l0.072-0.182z"></path>
</svg>
