<svg xmlns="http://www.w3.org/2000/svg" xmlns:xlink="http://www.w3.org/1999/xlink" viewBox="0 0 1880 1300" style="pointer-events:none;user-select:none;text-rendering:geometricprecision">

  <defs>
    <symbol id="aad">
      <path d="M37.75 37.75h18.127v-11.5h-18.127c0 0 0-18.127 0-18.127h-11.5v18.127c0 0-18.127 0-18.127 0v11.5h18.127c0 0 0 18.127 0 18.127h11.5v-18.127z"/>
    </symbol>
    <symbol id="cbw">
      <path d="M60 14.973l-3-0.522v35.716c-3.141-0.28-8.021-0.667-11-0.667-0.95 0-2.094 0.039-3.312 0.102-0.962 0.036-2.014 0.106-3.059 0.191-2.678 0.191-5.264 0.428-6.629 0.559v-35.901c0 0 6.61-1.451 9.963-1.451 4 0 14.037 1.451 14.037 1.451l3.001 0.522c1.769 0.819 2.999 2.61 2.999 4.687v32.68c0 2.848-2.312 5.16-5.16 5.16h-51.68c-2.848 0-5.16-2.312-5.16-5.16v-32.68c0-2.077 1.23-3.869 3-4.687l3-0.522c0 0 10.037-1.451 14.037-1.451 3.353 0 9.963 1.451 9.963 1.451v35.901c-1.366-0.131-3.951-0.368-6.629-0.559-1.045-0.085-2.097-0.155-3.059-0.191-1.218-0.063-2.362-0.102-3.312-0.102-2.979 0-7.859 0.387-11 0.667v-35.716l-3 0.522v38.765h56v-38.765zM28.5 42.5c0-1.104-0.896-2-2-2h-14c-1.104 0-2 0.896-2 2s0.896 2 2 2h14c1.104 0 2-0.896 2-2zM53.5 42.5c0-1.104-0.896-2-2-2h-14c-1.104 0-2 0.896-2 2s0.896 2 2 2h14c1.104 0 2-0.896 2-2zM28.5 35.5c0-1.104-0.896-2-2-2h-14c-1.104 0-2 0.896-2 2s0.896 2 2 2h14c1.104 0 2-0.896 2-2zM53.5 35.5c0-1.104-0.896-2-2-2h-14c-1.104 0-2 0.896-2 2s0.896 2 2 2h14c1.104 0 2-0.896 2-2zM28.5 28.5c0-1.104-0.896-2-2-2h-14c-1.104 0-2 0.896-2 2s0.896 2 2 2h14c1.104 0 2-0.896 2-2zM53.5 28.5c0-1.104-0.896-2-2-2h-14c-1.104 0-2 0.896-2 2s0.896 2 2 2h14c1.104 0 2-0.896 2-2zM28.5 21.5c0-1.104-0.896-2-2-2h-14c-1.104 0-2 0.896-2 2s0.896 2 2 2h14c1.104 0 2-0.896 2-2zM53.5 21.5c0-1.104-0.896-2-2-2h-14c-1.104 0-2 0.896-2 2s0.896 2 2 2h14c1.104 0 2-0.896 2-2z"/>
    </symbol>
    <symbol id="cce">
      <path d="M62.328 7.276l-5.604-5.604-24.724 24.724c0 0-24.724-24.724-24.724-24.724l-5.604 5.604 24.724 24.724c0 0-24.724 24.724-24.724 24.724l5.604 5.604 24.724-24.724c0 0 24.724 24.724 24.724 24.724l5.604-5.604-24.724-24.724c0 0 24.724-24.724 24.724-24.724z"/>
    </symbol>
    <symbol id="cdd">
      <path d="M11.087 56c-5.563 0-10.080-4.517-10.080-10.080v-27.84c0-5.563 4.517-10.080 10.080-10.080h33.84c5.564 0 10.080 4.517 10.080 10.080v27.84c0 5.52-4.446 10.009-9.95 10.079l-33.97 0.001zM30.853 14.994v-4.013h-5.793v4.048c-4.2 0.556-8.106 2.261-9.955 5.037-3.005 4.512 0.906 10.812 7.19 12.99 0.768 0.266 1.722 0.512 2.765 0.768v10.901c-2.614-0.587-4.538-2.424-6.16-3.803l-4.893 2.788 2.091 1.821c2.411 2.055 5.421 3.271 8.962 3.703v3.747h5.793v-3.783c8.228-1.147 14.043-6.861 9.643-12.981-0.763-1.061-1.821-2.027-2.998-2.881-1.734-1.258-4.155-1.986-6.645-2.64v-11.197c2.638 0.575 4.575 2.426 6.207 3.814l4.893-2.788-2.091-1.822c-2.421-2.064-5.447-3.281-9.009-3.709zM30.853 35.422v9.077c3.644-0.894 6.321-3.13 4.366-6.219-0.805-1.273-2.452-2.167-4.366-2.858zM25.060 19.742c-3.624 0.903-6.23 3.15-4.321 6.246 0.873 1.416 2.441 2.336 4.321 3.044v-9.29z"/>
    </symbol>
    
    
    <symbol id="fet">
      <path d="M56.256 31.057h-42.438c-7.074 0-12.818 5.744-12.818 12.818v61.295c0 7.074 5.744 12.818 12.818 12.818h54.476c7.075 0 12.818-5.744 12.818-12.818v-51.051c-16.616 14.040-16.649 30.281-17.025 36.965-0.151 2.687-1.869 5.034-4.385 5.99s-5.359 0.343-7.257-1.565c-14.421-14.502-16.181-43.133 3.811-64.452zM57.293 90.694c-14.624-14.705-13.039-45.988 15.234-64.344l-10.365-12.362 42.838 1.084-7.263 41.344-11.808-14.082c-28.127 16.992-28.15 39.728-28.636 48.36z"/>
    </symbol>
    <symbol id="fft">
      <path d="M87.8 55.714h8.488c5.912 0 10.712 4.753 10.712 10.606v45.074c0 5.854-4.8 10.606-10.712 10.606h-84.576c-5.912 0-10.712-4.752-10.712-10.606v-45.074c0-5.853 4.8-10.606 10.712-10.606h19.788l22.5 21.827c1.413 1.374 4.32 2.133 6.3 2.109 1.98-0.023 4.821-0.828 6.2-2.236l21.3-21.7zM93.982 6.385c-17.881-3.082-49.582 12.531-44.921 39.525h-15.517l27.127 26.376 25.847-26.376h-14.41c-4.833-24.162 15.844-35.121 21.874-39.525z"/>
    </symbol>
    <symbol id="fgo">
      <path d="M32 62.5c-16.833 0-30.5-13.667-30.5-30.5s13.667-30.5 30.5-30.5v9.611c-0.352-0.073-0.717-0.111-1.090-0.111-2.99 0-5.42 2.43-5.42 5.41 0 2.99 2.43 5.42 5.42 5.42 0.373 0 0.738-0.038 1.090-0.111v5.111l-7.44 0.18 2.82 1.23v22.7l-2.82 2.060h7.44v9.5zM32 11.111v-9.611c16.833 0 30.5 13.667 30.5 30.5s-13.667 30.5-30.5 30.5v-9.5h9.46l-5.76-2.060v-24.2l-3.7 0.090v-5.111c2.46-0.506 4.32-2.693 4.32-5.309 0-2.607-1.86-4.793-4.32-5.299z"/>
    </symbol>
    <symbol id="fhn">
      <path d="M21 42.973h89.077c2.783 0 4.643 2.26 4.153 5.042l-9.34 52.943c-0.491 2.783-3.149 5.042-5.932 5.042h-91.118c-2.119 0-3.84-1.721-3.84-3.84v-80.16h67.2l16.8 14h-72v32h5v-25.027z"/>
    </symbol>
    <symbol id="fie">
      <path d="M114 22v86.16c0 2.119-1.721 3.84-3.84 3.84h-92.32c-2.119 0-3.84-1.721-3.84-3.84v-88.32c0-2.119 1.721-3.84 3.84-3.84h91.16l5 6zM94 59.014v-40h-56v40h56zM84.5 26v30h-15v-30h15z"/>
    </symbol>
    <symbol id="lju">
      <path d="M56.25 57.423c0-2.388-1.939-4.327-4.327-4.327h-39.846c-2.388 0-4.327 1.939-4.327 4.327s1.939 4.327 4.327 4.327c0 0 39.846 0 39.846 0 2.388 0 4.327-1.939 4.327-4.327zM56.25 44.903c0-2.389-1.939-4.328-4.327-4.328h-39.846c-2.388 0-4.327 1.939-4.327 4.328 0 2.388 1.939 4.327 4.327 4.327 0 0 39.846 0 39.846 0 2.388 0 4.327-1.939 4.327-4.327zM56.25 32.382c0-2.388-1.939-4.327-4.327-4.327h-39.846c-2.388 0-4.327 1.939-4.327 4.327s1.939 4.327 4.327 4.327h39.846c2.388 0 4.327-1.939 4.327-4.327zM13.803 19.471v3.446h10.579v-5.844c0.837-0.373 1.624-0.848 2.343-1.41 2.237-1.745 3.347-4.068 3.371-6.392s-1.039-4.671-3.239-6.471v0c-0.887-0.725-1.951-1.273-3.024-1.702l-1.372 0.918-0.062 6.154c-0.003 0.286-0.167 0.503-0.402 0.659-0.376 0.249-0.899 0.364-1.472 0.364h-2.85c-0.565-0.008-1.082-0.142-1.452-0.406-0.242-0.173-0.413-0.406-0.41-0.702 0 0 0.062-6.155 0.062-6.155l-1.348-0.947c-1.083 0.403-2.158 0.924-3.060 1.628-2.237 1.746-3.347 4.068-3.371 6.392-0.023 2.323 1.039 4.671 3.239 6.471 0.725 0.593 1.567 1.067 2.437 1.454 0.016 0.617 0.026 1.607 0.031 2.543z"/>
    </symbol>
    <symbol id="pkw">
      <path d="M14.762 29.23h34.49c0 0 13.928 14.478 11.463 15.596-1.067 0.483-6.127-1.117-11.524-3.087v20.261h-34.389v-20.253c-5.389 1.967-10.437 3.562-11.502 3.079-2.465-1.118 11.462-15.596 11.462-15.596zM36.774 11.359h-20.475v13.19h6.364v-10.552h14.111v-2.638zM38.538 16.635h-14.111v7.914h14.111v-7.914zM45.299 10.4v14.149h-4.283v-9.233h-2.478v-4.916h6.761zM36.632 3.482h-18.173v5.276h18.173v-5.276z"/>
    </symbol>
    <symbol id="slh">
      <path d="M40.023 45.152c-3.477 2.591-7.729 4.192-12.407 4.221-10.406 0.066-20.276-8.26-21.806-18.699-1.731-11.814 7.58-24.164 20.12-25.040 0.561-0.039 1.124-0.055 1.686-0.053 10 0.095 19.38 7.75 21.337 17.619 1.156 5.829-0.437 11.92-3.87 16.758l13.82 13.819-5.128 5.128-13.752-13.753zM27.395 14.645c-6.236 0.060-12 5.17-12.677 11.431-0.588 5.436 2.691 11.076 7.773 13.229 6.62 2.806 15.346-1.167 17.352-8.391 2.055-7.404-3.759-16.031-12.032-16.265-0.139-0.003-0.278-0.004-0.416-0.004z"/>
    </symbol>
    <symbol id="smt">
      <path d="M18.504 59c-4.142 0-7.504-3.362-7.504-7.504v-22.326c0-2.67 1.397-5.016 3.5-6.346v-7.052c0-7.368 5.982-13.351 13.351-13.351h8.298c7.369 0 13.351 5.983 13.351 13.351v7.052c2.103 1.33 3.5 3.676 3.5 6.346v22.326c0 4.109-3.31 7.452-7.407 7.503l-27.089 0.001zM44.728 37.712h-9.528v-9.528h-6.4v9.528h-9.528v6.4h9.528v9.528h6.4v-9.528h9.528v-6.4zM42.5 15.772c0-3.505-2.846-6.351-6.351-6.351h-8.298c-3.505 0-6.351 2.846-6.351 6.351v5.895h21v-5.895z"/>
    </symbol>
    <symbol id="snu">
      <path d="M19.144 57.582c0-2.301-1.868-4.169-4.169-4.169 0 0-7.557 0-7.557 0-2.3 0-4.168 1.868-4.168 4.169s1.868 4.168 4.168 4.168c0 0 7.557 0 7.557 0 2.301 0 4.169-1.868 4.169-4.168zM60.75 57.582c0-2.301-1.868-4.169-4.168-4.169 0 0-29.147 0-29.147 0-2.301 0-4.169 1.868-4.169 4.169s1.868 4.168 4.169 4.168c0 0 29.147 0 29.147 0 2.3 0 4.168-1.868 4.168-4.168zM19.144 45.617c0-2.301-1.868-4.169-4.169-4.169h-7.557c-2.3 0-4.168 1.868-4.168 4.169s1.868 4.168 4.168 4.168h7.557c2.301 0 4.169-1.867 4.169-4.168zM60.75 45.617c0-2.301-1.868-4.169-4.168-4.169h-29.147c-2.301 0-4.169 1.868-4.169 4.169s1.868 4.168 4.169 4.168h29.147c2.3 0 4.168-1.867 4.168-4.168zM19.144 33.652c0-2.3-1.868-4.168-4.169-4.168 0 0-7.557 0-7.557 0-2.3 0-4.168 1.868-4.168 4.168 0 2.301 1.868 4.169 4.168 4.169 0 0 7.557 0 7.557 0 2.301 0 4.169-1.868 4.169-4.169zM60.75 33.652c0-2.3-1.868-4.168-4.168-4.168 0 0-29.147 0-29.147 0-2.301 0-4.169 1.868-4.169 4.168 0 2.301 1.868 4.169 4.169 4.169 0 0 29.147 0 29.147 0 2.3 0 4.168-1.868 4.168-4.169zM19.144 21.688c0-2.301-1.868-4.169-4.169-4.169 0 0-7.557 0-7.557 0-2.3 0-4.168 1.868-4.168 4.169 0 2.3 1.868 4.168 4.168 4.168 0 0 7.557 0 7.557 0 2.301 0 4.169-1.868 4.169-4.168zM48.088 15.692l4.859 4.858c1.614 1.614 4.234 1.614 5.848 0 1.613-1.613 1.613-4.234 0-5.847 0 0-7.711-7.711-7.711-7.711-0.825-0.825-1.914-1.228-2.996-1.21-1.082-0.018-2.17 0.385-2.995 1.21 0 0-7.711 7.711-7.711 7.711-1.614 1.613-1.614 4.234 0 5.847s4.234 1.614 5.847 0l4.859-4.858z"/>
    </symbol>
    <symbol id="sos">
      <path d="M73.934 15.359c-6.491-1.302-13.177-1.302-19.668 0 0.828 4.128 1.452 8.287 1.871 12.477-4.352 0.948-8.5 2.666-12.249 5.073-2.666-3.259-5.165-6.641-7.499-10.146-5.511 3.67-10.238 8.397-13.908 13.908 3.505 2.334 6.887 4.834 10.146 7.499-2.407 3.749-4.125 7.897-5.073 12.249-4.19-0.419-8.349-1.043-12.477-1.871-1.303 6.491-1.303 13.177 0 19.668 4.128-0.828 8.287-1.452 12.477-1.871 0.948 4.352 2.666 8.501 5.073 12.249-3.259 2.666-6.641 5.165-10.146 7.499 3.67 5.511 8.397 10.238 13.908 13.908 2.334-3.505 4.833-6.887 7.499-10.146 3.749 2.407 7.897 4.125 12.249 5.074-0.419 4.189-1.043 8.348-1.871 12.476 6.491 1.303 13.177 1.303 19.668 0-0.828-4.128-1.452-8.287-1.871-12.476 4.352-0.949 8.5-2.667 12.249-5.074 2.666 3.259 5.165 6.641 7.499 10.146 5.511-3.67 10.238-8.397 13.908-13.908-3.505-2.334-6.887-4.833-10.146-7.499 2.407-3.748 4.125-7.897 5.073-12.249 4.19 0.419 8.349 1.043 12.477 1.871 1.303-6.491 1.303-13.177 0-19.668-4.128 0.828-8.287 1.452-12.477 1.871-0.948-4.352-2.666-8.5-5.073-12.249 3.259-2.665 6.641-5.165 10.146-7.499-3.67-5.511-8.397-10.238-13.908-13.908-2.334 3.505-4.833 6.887-7.499 10.146-3.749-2.407-7.897-4.125-12.249-5.073 0.419-4.19 1.043-8.349 1.871-12.477zM64.1 50.882c7.451 0 13.5 6.049 13.5 13.5s-6.049 13.5-13.5 13.5c-7.451 0-13.5-6.049-13.5-13.5s6.049-13.5 13.5-13.5z"/>
    </symbol>
    <symbol id="tpw">
      <path d="M64 64v-19h-64v19h64zM38.975 58.253l0.001 1.834c0.001 1.076-0.872 1.949-1.947 1.949s-1.949-0.873-1.95-1.949l-0.002-6.41-1.968 1.774c-0.407 0.367-0.947 0.542-1.48 0.524-0.533 0.018-1.073-0.157-1.48-0.524l-1.968-1.774-0.003 6.41c0 1.076-0.874 1.949-1.949 1.949s-1.948-0.873-1.948-1.949l0.002-5.24h-6.669l4.099 3.89c0.751 0.713 0.751 1.869 0.002 2.581-0.75 0.711-1.968 0.71-2.719-0.002l-4.104-3.895-4.104 3.895c-0.751 0.712-1.969 0.713-2.719 0.002-0.75-0.712-0.749-1.868 0.002-2.581l4.104-3.895-4.104-3.895c-0.751-0.712-0.752-1.868-0.002-2.58s1.968-0.711 2.719 0.002l4.104 3.895 4.104-3.895c0.751-0.713 1.969-0.713 2.719-0.002 0.749 0.712 0.749 1.868-0.002 2.58l-4.099 3.89h6.669l0.002-5.24c0-0.024 0.001-0.048 0.002-0.072-0.031-0.488 0.159-0.985 0.571-1.356 0.276-0.249 0.614-0.408 0.97-0.477 0.131-0.028 0.267-0.043 0.406-0.043 0.058 0 0.115 0.002 0.172 0.007 0.454 0.033 0.899 0.206 1.247 0.52l3.976 3.583 3.975-3.583c0.348-0.314 0.793-0.487 1.248-0.52 0.056-0.005 0.114-0.007 0.171-0.007 0.14 0 0.276 0.015 0.407 0.043 0.356 0.069 0.694 0.228 0.97 0.477 0.412 0.371 0.602 0.868 0.571 1.356 0.001 0.024 0.001 0.048 0.001 0.072l0.003 8.646h2.912l0.003-8.83c0-1.076 0.874-1.949 1.949-1.949s1.948 0.873 1.948 1.949l-0.004 8.839 6.372 0.002c0.993 0.001 1.798 0.807 1.798 1.799 0 0.993-0.805 1.798-1.798 1.798l-8.471-0.003c-0.992 0-1.798-0.806-1.798-1.799l0.001-1.796h-2.912zM25.286 39.498c-0.095 0.001-0.19 0.002-0.286 0.002-10.072 0-18.25-8.402-18.25-18.75s8.178-18.75 18.25-18.75c10.072 0 18.25 8.402 18.25 18.75 0 3.307-0.835 6.416-2.301 9.115l11.051-4.023v-3.071c0-0.828 0.672-1.5 1.5-1.5h3c0.828 0 1.5 0.672 1.5 1.5v11c0 0.828-0.672 1.5-1.5 1.5h-3c-0.828 0-1.5-0.672-1.5-1.5v-1.543l-25.926 9.436-0.788-2.166z"/>
    </symbol>

    
    
    
    <symbol id="aql">
      <path d="M32 45.423l26.667-26.846h-53.334l26.667 26.846z"/>
    </symbol>
    

    
    
    
    
    
    

    <linearGradient id="brf" x1="0" y1="0" x2="0" y2="1">
      <stop offset="0" style="stop-color:#fdfdfd"/>
      <stop offset="1" style="stop-color:#eee"/>
    </linearGradient>
    <linearGradient id="bsf" x1="0" y1="0" x2="1" y2="0">
      <stop offset="0" style="stop-color:#fdfdfd"/>
      <stop offset="1" style="stop-color:#eee"/>
    </linearGradient>
    
    
    

    
    

    

    
    

    
    
    
  </defs>

  
    <rect x="0" y="0" width="1880" height="1300" style="fill:#b4d0cd"/>
  

  <g style="font-family:'Sans-Serif',system-ui,sans-serif">
    <rect x="81" y="81" width="1718" height="1140" rx="0" style="fill:#f9f9f9;stroke:#acc6c3;stroke-width:1px"/>
    
      <rect x="81" y="81" width="1718" height="48" rx="0" style="fill:#fafafa;stroke:#e8e8e8;stroke-width:2px;clip-path:inset(1px 1px 0px)"/>
      <rect x="81" y="127" width="1718" height="1" style="fill:none;stroke:#cbcdcc;stroke-width:2px;clip-path:inset(0px 1px 1.1px)"/>
      <text x="81" y="83.5" dx="855" dy="28" text-anchor="middle" style="font-family:'Sans-Serif',system-ui,sans-serif;font-weight:bold;font-size:19px;fill:#5a5a5a">e2 SAT Editor</text>
      
      
      
      
        <rect x="1670" y="107" width="10.5" height="1" style="fill:none;stroke:#333;stroke-width:1.1px"/>
        <g transform="matrix(0.9,0,0,0.9,1715,100)">
          <rect x="0" y="0" width="15" height="13" style="fill:none;stroke:#333;stroke-width:3px;clip-path:inset(0px 0px 2px)"/>
          <rect x="1" y="4" width="13" height="7" style="fill:none;stroke:#333;stroke-width:1.7px"/>
        </g>
        
          <g transform="matrix(0.707,0.707,-0.707,0.707,1773,94)">
            <rect x="0" y="7" width="15" height="1" style="fill:none;stroke:#333;stroke-width:1px"/>
            <rect x="7" y="0" width="1" height="15" style="fill:none;stroke:#333;stroke-width:1px"/>
          </g>
        
      
    
    
      <rect x="82" y="129" width="1716" height="36" style="fill:#eee"/>
      <text x="83" y="131" dx="12" dy="24" style="font-size:20px;word-spacing:15px;fill:#000;fill-opacity:0.75">File Edit Find Tools Window Help</text>
      <rect x="81" y="165.5" width="1718" height="1" style="fill:#e2e2e2;stroke:#dcdddd"/>
    
    
      
        <rect x="82" y="167" width="1716" height="67" style="fill:#efefef"/>
        
          <rect x="82" y="167" width="128" height="67" style="fill:#efefef"/>
          
            <rect x="90" y="173" width="112" height="53" rx="3" style="fill:url(#brf);stroke:#ababab;stroke-width:1px"/>
            <g transform="matrix(0.26,0,0,0.26,96,191)">
              <use href="#aad" style="fill:#4f4f4f"/>
            </g>
            <text x="90" y="173" dx="27" dy="33" style="font-weight:bold;font-size:18px;fill:#000">New Tab</text>
          
        
        
          <rect x="210" y="167" width="1" height="67" style="fill:#95c1f1"/>
          
            <rect x="211" y="166" width="157" height="69" style="fill:#308cc6;stroke:#308cc6;stroke-width:2px;clip-path:inset(1px 0px)"/>
            <text x="211" y="165.5" dx="15" dy="41" style="font-size:19px;fill:#fff">enigma_db</text>
            
              <g transform="matrix(0.9,0,0,0.9,341,195.5)">
                <rect rx="11" style="fill:#000;fill-opacity:0.33" height="22" width="22" x="-4.5" y="-4.5"/>
                <g transform="matrix(0.17,0,0,0.17,1.2,1.2)">
                  <use href="#cce" style="fill:#fff"/>
                </g>
              </g>
            
          
          
            <rect x="368" y="166" width="292" height="69" style="fill:#efefef;stroke:#dfdfdf;stroke-width:2px;clip-path:inset(1px 0px)"/>
            <g transform="matrix(0.38,0,0,0.38,380,186)">
              <use href="#pkw" style="fill:#000"/>
            </g>
            <text x="368" y="165.5" dx="46" dy="41" style="font-size:19px;fill:#000">enigma_db - Picons <tspan style="font-size:15px">…</tspan></text>
            
              <g transform="matrix(0.9,0,0,0.9,634,195.5)">
                <rect rx="11" style="fill:#000;fill-opacity:0.33" height="22" width="22" x="-4.5" y="-4.5"/>
                <g transform="matrix(0.17,0,0,0.17,1.2,1.2)">
                  <use href="#cce" style="fill:#fff"/>
                </g>
              </g>
            
          
          
            <rect x="660" y="166" width="154" height="69" style="fill:#efefef;stroke:#dfdfdf;stroke-width:2px;clip-path:inset(1px 0px)"/>
            <text x="660" y="165.5" dx="15" dy="41" style="font-size:19px;fill:#000">neutrino</text>
            
              <g transform="matrix(0.9,0,0,0.9,788,195.5)">
                <rect rx="11" style="fill:#000;fill-opacity:0.33" height="22" width="22" x="-4.5" y="-4.5"/>
                <g transform="matrix(0.17,0,0,0.17,1.2,1.2)">
                  <use href="#cce" style="fill:#fff"/>
                </g>
              </g>
            
          
          
            <rect x="814" y="166" width="292" height="69" style="fill:#efefef;stroke:#dfdfdf;stroke-width:2px;clip-path:inset(1px 0px)"/>
            <g transform="matrix(0.38,0,0,0.38,826,186)">
              <use href="#tpw" style="fill:#000"/>
            </g>
            <text x="814" y="165.5" dx="46" dy="41" style="font-size:19px;fill:#000">enigma_db - Edit Set<tspan style="font-size:15px">…</tspan></text>
            
              <g transform="matrix(0.9,0,0,0.9,1081,195.5)">
                <rect rx="11" style="fill:#000;fill-opacity:0.33" height="22" width="22" x="-4.5" y="-4.5"/>
                <g transform="matrix(0.17,0,0,0.17,1.2,1.2)">
                  <use href="#cce" style="fill:#fff"/>
                </g>
              </g>
            
          
          
            <rect x="1106" y="166" width="293" height="69" style="fill:#efefef;stroke:#dfdfdf;stroke-width:2px;clip-path:inset(1px 0px)"/>
            <g transform="matrix(0.38,0,0,0.38,1119,186)">
              <use href="#cbw" style="fill:#000"/>
            </g>
            <text x="1106" y="165.5" dx="46" dy="41" style="font-size:19px;fill:#000">enigma_db - Channe<tspan style="font-size:15px">…</tspan></text>
            
              <g transform="matrix(0.9,0,0,0.9,1373,195.5)">
                <rect rx="11" style="fill:#000;fill-opacity:0.33" height="22" width="22" x="-4.5" y="-4.5"/>
                <g transform="matrix(0.17,0,0,0.17,1.2,1.2)">
                  <use href="#cce" style="fill:#fff"/>
                </g>
              </g>
            
          
          <rect x="1398" y="167" width="2" height="67" style="fill:#dfdfdf"/>
        
      
      
        <rect x="82" y="234" width="1716" height="95" style="fill:#f9f9f9"/>
        
          
            <g transform="matrix(0.38,0,0,0.38,106,257)">
              <use href="#fhn" style="fill:#5c5c5c"/>
            </g>
            <text x="88.5" y="232" dx="69" dy="59" style="font-size:25.5px;fill:#000">Open</text>
          
          
            <g transform="matrix(0.38,0,0,0.38,251,257)">
              <use href="#fie" style="fill:#5c5c5c"/>
            </g>
            <text x="234.5" y="232" dx="69" dy="59" style="font-size:25.5px;fill:#000">Save</text>
          
          
            <rect x="388" y="262" width="4" height="44" style="fill:#fff;stroke:#dfdfdf;stroke-width:2px;clip-path:inset(2px 2px 2px 0.5px)"/>
          
          
            <g transform="matrix(0.38,0,0,0.38,400,257)">
              <use href="#fft" style="fill:#5c5c5c"/>
            </g>
            <text x="382.5" y="232" dx="69" dy="59" style="font-size:25.5px;fill:#000">Import</text>
          
          
            <g transform="matrix(0.38,0,0,0.38,560,257)">
              <use href="#fet" style="fill:#5c5c5c"/>
            </g>
            <text x="540.5" y="232" dx="69" dy="59" style="font-size:25.5px;fill:#000">Export</text>
          
          
            <rect x="714" y="262" width="4" height="44" style="fill:#fff;stroke:#dfdfdf;stroke-width:2px;clip-path:inset(2px 2px 2px 0.5px)"/>
          
          
            <g transform="matrix(0.38,0,0,0.38,725,257)">
              <use href="#sos" style="fill:#5c5c5c"/>
            </g>
            <text x="708.5" y="232" dx="69" dy="59" style="font-size:25.5px;fill:#000">Settings</text>
          
          
            
              <rect x="1134" y="264" width="100" height="34" rx="3" style="fill:url(#brf);stroke:#ababab;stroke-width:1px;filter:none"/>
              
                <rect x="1226.5" y="269" width="24" height="24" rx="8" style="fill:none;stroke:none;stroke-opacity:0.06;stroke-width:2px"/>
                
                  
                  
                  <g style="fill:#676767" transform="matrix(0.23,0,0,0.23,1214,273)">
                    <use href="#aql"/>
                  </g>
                
              
              <text x="1129" y="266" dx="12" dy="22" style="font-size:20px;fill:#000">Default</text>
            
          
          
            <text x="1242.5" y="232" dx="15" dy="59" style="font-size:25.5px;fill:#000">Connect</text>
          
          
            <text x="1367.5" y="232" dx="15" dy="59" style="font-size:25.5px;fill:#000">Disconnect</text>
          
          
            <rect x="1527" y="262" width="4" height="44" style="fill:#fff;stroke:#dfdfdf;stroke-width:2px;clip-path:inset(2px 2px 2px 0.5px)"/>
          
          
            <text x="1527.5" y="232" dx="15" dy="59" style="font-size:25.5px;fill:#000">Upload</text>
          
          
            <text x="1638.5" y="232" dx="15" dy="59" style="font-size:25.5px;fill:#000">Download</text>
          
        
        <rect x="80" y="234" width="1720" height="95" style="fill:none;stroke:#d1d2d2;stroke-width:2px;clip-path:inset(0px 2px)"/>
      
      
        <rect x="82" y="328" width="1716" height="820" style="fill:#efefef"/>
        
          <rect x="82" y="328" width="380" height="820" style="fill:#efefef"/>
          
            
              
              <text x="82" y="328" dx="10" dy="33" style="font-weight:bold;font-size:19px;fill:#000">Services</text>
              
                
                  <rect x="420" y="335" width="38" height="32" rx="3" style="fill:url(#brf);stroke:#ababab"/>
                  <g transform="matrix(0.38,0,0,0.38,427,338)">
                    <use href="#snu" style="fill:#505050"/>
                  </g>
                
              
            
            
              
                
                  <rect x="82" y="340" width="380" height="55" style="fill:#308cc6" transform="matrix(1,0,0,0.996,0,38.2)"/>
                  <text x="80" y="378" dx="23" dy="34" style="font-size:19.5px;fill:#fff">All services</text>
                
                <text x="80" y="433" dx="23" dy="34" style="font-size:19.5px;fill:#000">TV</text>
                <text x="80" y="488" dx="23" dy="34" style="font-size:19.5px;fill:#000">Radio</text>
                <text x="80" y="543" dx="23" dy="34" style="font-size:19.5px;fill:#000">Data</text>
              
            
          
          
            
              
              <text x="82" y="632" dx="10" dy="33" style="font-weight:bold;font-size:19px;fill:#000">Bouquets</text>
            
            
              
                <text x="80" y="681" dx="24" dy="34" style="font-size:19.5px;fill:#000">TV</text>
                
                  
                  
                  <g style="fill:#636363" transform="matrix(0.22,0,0,0.22,86,701)">
                    <use href="#aql"/>
                  </g>
                
              
              
                <text x="80" y="735" dx="25" dy="34" style="font-size:19.5px;fill:#000">Swiss</text>
                
                  <rect x="82" y="750" width="380" height="55" style="fill:#308cc6" transform="matrix(1,0,0,0.996,0,39.4)"/>
                  <text x="80" y="788" dx="25" dy="34" style="font-size:19.5px;fill:#fff">Italy</text>
                
                <text x="80" y="842" dx="25" dy="34" style="font-size:19.5px;fill:#000">Tests</text>
                <text x="80" y="895" dx="25" dy="34" style="font-size:19.5px;fill:#000">Tests 1</text>
              
              
                <text x="80" y="948" dx="24" dy="34" style="font-size:19.5px;fill:#000">Radio</text>
                
                  
                  
                  <g style="fill:#636363" transform="matrix(0.22,0,0,0.22,86,968)">
                    <use href="#aql"/>
                  </g>
                
              
              
                <text x="80" y="1002" dx="25" dy="34" style="font-size:19.5px;fill:#000">Swiss</text>
                <text x="80" y="1055" dx="25" dy="34" style="font-size:19.5px;fill:#000">Italy</text>
              
            
            <g style="clip-path:inset(1px 1px 0px 0.5px)">
              <rect x="440" y="680" width="23" height="404" style="fill:#e6e6e6;stroke:#bcbcbc;stroke-width:2px"/>
              <rect x="440.5" y="680.5" width="22" height="22" style="fill:url(#bsf);stroke:#ababab" rx="0"/>
              
                
                <g transform="matrix(0.22,0,0,-0.22,444.3,698.5)">
                  <use href="#aql" style="fill:#5c5c5c"/>
                </g>
              
              <rect x="440.5" y="1061.5" width="22" height="22" style="fill:url(#bsf);stroke:#ababab" rx="0"/>
              
                
                <g transform="matrix(0.22,0,0,0.22,444.3,1066)">
                  <use href="#aql" style="fill:#5c5c5c"/>
                </g>
              
              <rect x="440.5" y="703" width="22" height="318" rx="0" style="fill:url(#bsf);fill-opacity:0.8;stroke:#ababab;stroke-opacity:0.6"/>
            </g>
          
          
            <rect x="82" y="1084" width="380" height="65" style="fill:#fff"/>
            <rect x="80" y="1083" width="384" height="65" style="fill:none;stroke:#e2e2e2;stroke-width:2px;clip-path:inset(0px 2px 2px)"/>
            
              
                <g transform="matrix(0.25,0,0,0.25,101,1106.5)">
                  <use href="#aad" style="fill:#545454"/>
                </g>
                <text x="95" y="1090.5" dx="28" dy="33" style="font-weight:bold;font-size:20.5px;fill:#000">Bouquet</text>
              
              
                <rect x="349" y="1099" width="100" height="34" rx="3" style="fill:url(#brf);stroke:#ababab;stroke-width:1px;filter:none"/>
                <g transform="matrix(0.38,0,0,0.38,354,1103)">
                  <use href="#slh" style="fill:#545454" x="15"/>
                </g>
                <text x="334" y="1101" dx="54" dy="22" style="font-size:20px;fill:#000">Find<tspan style="font-size:15px">…</tspan></text>
              
            
          
        
        
          
          
          <rect x="465.5" y="706" width="0.5" height="28" style="fill:none;stroke:#000;stroke-opacity:0.25;stroke-dasharray:0px,2px,0px"/>
        
        
          
          
            
            <text x="469" y="328" dx="10" dy="32" style="font-weight:bold;font-size:19px;fill:#000">Channels</text>
            
              
                <rect x="1755" y="335" width="38" height="32" rx="3" style="fill:url(#brf);stroke:#ababab"/>
                <g transform="matrix(0.38,0,0,0.38,1762,338)">
                  <use href="#lju" style="fill:#505050"/>
                </g>
              
            
          
          
            
              <rect x="469" y="377" width="1325" height="26" style="fill:url(#brf);stroke:#c8c8c8;stroke-width:2px;clip-path:inset(1px 1px 0px)"/>
              <text x="469" y="379" dy="18" style="font-size:17px;fill:#000"><tspan x="472">Index</tspan> <tspan x="571">Name</tspan> <tspan x="876">Parental</tspan> <tspan x="982">Service ID</tspan> <tspan x="1105">Transport ID</tspan> <tspan x="1227">Type</tspan> <tspan x="1356">CAS</tspan> <tspan x="1425">Provider</tspan> <tspan x="1695">System</tspan></text>
              <rect x="565" y="377" width="3" height="26" style="fill:#ddd;stroke:#cdcdcd;stroke-width:1px;clip-path:inset(1px 1px 1px 0px)"/>
              <rect x="870" y="377" width="3" height="26" style="fill:#ddd;stroke:#cdcdcd;stroke-width:1px;clip-path:inset(1px 1px 1px 0px)"/>
              <rect x="976" y="377" width="3" height="26" style="fill:#ddd;stroke:#cdcdcd;stroke-width:1px;clip-path:inset(1px 1px 1px 0px)"/>
              <rect x="1099" y="377" width="3" height="26" style="fill:#ddd;stroke:#cdcdcd;stroke-width:1px;clip-path:inset(1px 1px 1px 0px)"/>
              <rect x="1220" y="377" width="3" height="26" style="fill:#ddd;stroke:#cdcdcd;stroke-width:1px;clip-path:inset(1px 1px 1px 0px)"/>
              <rect x="1350" y="377" width="3" height="26" style="fill:#ddd;stroke:#cdcdcd;stroke-width:1px;clip-path:inset(1px 1px 1px 0px)"/>
              <rect x="1419" y="377" width="3" height="26" style="fill:#ddd;stroke:#cdcdcd;stroke-width:1px;clip-path:inset(1px 1px 1px 0px)"/>
              <rect x="1690" y="377" width="3" height="26" style="fill:#ddd;stroke:#cdcdcd;stroke-width:1px;clip-path:inset(1px 1px 1px 0px)"/>
            
            
              <rect x="469" y="403" width="1325" height="687" style="fill:#fff"/>
              
                <rect x="473" y="707" width="1325" height="49" style="fill:#308cc6" transform="matrix(1,0,0,0.996,-4,39.1)"/>
                <text x="473" y="404" dy="31" style="font-size:20px;fill:#000"><tspan x="492">38</tspan> <tspan x="572">Giallo</tspan> <tspan x="982">4322</tspan> <tspan x="1106">1000</tspan> <tspan x="1227">HD</tspan> <tspan x="1392" style="font-size:15px">...</tspan> <tspan x="1425">TVN</tspan> <tspan x="1695">DVB-S2</tspan></text>
                <g transform="matrix(0.38,0,0,0.38,880,416)">
                  <use href="#smt" style="fill:#545454"/>
                </g>
                <g transform="matrix(0.38,0,0,0.38,1360,416)">
                  <use href="#cdd" style="fill:#545454"/>
                </g>
                <text x="473" y="453" dy="31" style="font-size:20px;fill:#000"><tspan x="492">39</tspan> <tspan x="572">TOPcrime HD</tspan> <tspan x="982">132</tspan> <tspan x="1106">1200</tspan> <tspan x="1227">HD</tspan> <tspan x="1392" style="font-size:15px">...</tspan> <tspan x="1425">Mediaset</tspan> <tspan x="1695">DVB-S2</tspan></text>
                <g transform="matrix(0.38,0,0,0.38,880,465)">
                  <use href="#smt" style="fill:#545454"/>
                </g>
                <g transform="matrix(0.38,0,0,0.38,1360,465)">
                  <use href="#cdd" style="fill:#545454"/>
                </g>
                <text x="473" y="502" dy="31" style="font-size:20px;fill:#000"><tspan x="492">40</tspan> <tspan x="572">Boing HD</tspan> <tspan x="982">126</tspan> <tspan x="1106">1200</tspan> <tspan x="1227">HD</tspan> <tspan x="1392" style="font-size:15px">...</tspan> <tspan x="1426">Mediaset</tspan> <tspan x="1695">DVB-S2</tspan></text>
                <g transform="matrix(0.38,0,0,0.38,1360,514)">
                  <use href="#cdd" style="fill:#545454"/>
                </g>
                <text x="473" y="550" dy="31" style="font-size:20px;fill:#000"><tspan x="492">41</tspan> <tspan x="572">K2</tspan> <tspan x="982">15204</tspan> <tspan x="1106">300</tspan> <tspan x="1227">H.264</tspan> <tspan x="1392" style="font-size:15px">...</tspan> <tspan x="1425">TVN Discovery Group</tspan> <tspan x="1695">DVB-S2</tspan></text>
                <g transform="matrix(0.38,0,0,0.38,1360,562)">
                  <use href="#cdd" style="fill:#545454"/>
                </g>
                <text x="473" y="599" dy="31" style="font-size:20px;fill:#000"><tspan x="492">42</tspan> <tspan x="572">Rai Gulp HD</tspan> <tspan x="982">17712</tspan> <tspan x="1106">12500</tspan> <tspan x="1227">HD</tspan> <tspan x="1392"/> <tspan x="1426">Rai</tspan> <tspan x="1695">DVB-S2</tspan></text>
                <text x="473" y="648" dy="31" style="font-size:20px;fill:#000"><tspan x="492">43</tspan> <tspan x="572">Rai YoYo HD</tspan> <tspan x="982">8511</tspan> <tspan x="1106">12400</tspan> <tspan x="1227">HD</tspan> <tspan x="1392" style="font-size:15px">...</tspan> <tspan x="1425">RAI</tspan> <tspan x="1695">DVB-S2</tspan></text>
                <g transform="matrix(0.38,0,0,0.38,1360,660)">
                  <use href="#cdd" style="fill:#545454"/>
                </g>
                <text x="473" y="696" dy="31" style="font-size:20px;fill:#000"><tspan x="492">44</tspan> <tspan x="572">Frisbee</tspan> <tspan x="982">15205</tspan> <tspan x="1106">300</tspan> <tspan x="1227">H.264</tspan> <tspan x="1392" style="font-size:15px">...</tspan> <tspan x="1425">TVN Discovery Group</tspan> <tspan x="1695">DVB-S2</tspan></text>
                <g transform="matrix(0.38,0,0,0.38,1360,708)">
                  <use href="#cdd" style="fill:#545454"/>
                </g>
                <text x="473" y="745" dy="31" style="font-size:20px;fill:#fff"><tspan x="492">45</tspan> <tspan x="572">NASA TV HD</tspan> <tspan x="982">504</tspan> <tspan x="1106">900</tspan> <tspan x="1227">TV</tspan> <tspan x="1426">NoName</tspan> <tspan x="1695">DVB-S2</tspan></text>
                <text x="473" y="794" dy="31" style="font-size:20px;fill:#000"><tspan x="492">46</tspan> <tspan x="572">Cartoonito HD</tspan> <tspan x="982">133</tspan> <tspan x="1106">1200</tspan> <tspan x="1227">HD</tspan> <tspan x="1392" style="font-size:15px">...</tspan> <tspan x="1425">Mediaset</tspan> <tspan x="1695">DVB-S2</tspan></text>
                <g transform="matrix(0.38,0,0,0.38,1360,806)">
                  <use href="#cdd" style="fill:#545454"/>
                </g>
                <text x="473" y="843" dy="31" style="font-size:20px;fill:#000"><tspan x="492">47</tspan> <tspan x="572">Super!</tspan> <tspan x="982">1327</tspan> <tspan x="1106">15700</tspan> <tspan x="1227">H.264</tspan> <tspan x="1392" style="font-size:15px">...</tspan> <tspan x="1425">M-ThreeSatcom Srl</tspan> <tspan x="1695">DVB-S2</tspan></text>
                <g transform="matrix(0.38,0,0,0.38,1360,855)">
                  <use href="#cdd" style="fill:#545454"/>
                </g>
                <text x="473" y="892" dy="31" style="font-size:20px;fill:#000"><tspan x="492">48</tspan> <tspan x="572">Rai News 24 HD</tspan> <tspan x="982">17711</tspan> <tspan x="1106">12500</tspan> <tspan x="1227">HD</tspan> <tspan x="1426">Rai</tspan> <tspan x="1695">DVB-S2</tspan></text>
                <text x="473" y="940" dy="31" style="font-size:20px;fill:#000"><tspan x="492">49</tspan> <tspan x="572">Mediaset Italia2 HD</tspan> <tspan x="982">130</tspan> <tspan x="1106">1200</tspan> <tspan x="1227">HD</tspan> <tspan x="1392" style="font-size:15px">...</tspan> <tspan x="1425">Mediaset</tspan> <tspan x="1695">DVB-S2</tspan></text>
                <g transform="matrix(0.38,0,0,0.38,1360,952)">
                  <use href="#cdd" style="fill:#545454"/>
                </g>
                <text x="473" y="988" dy="31" style="font-size:20px;fill:#000"><tspan x="492">50</tspan> <tspan x="572">Sky TG24</tspan> <tspan x="982">90</tspan> <tspan x="1106">512</tspan> <tspan x="1227">H.264</tspan> <tspan x="1425">Persidera</tspan> <tspan x="1695">DVB-T</tspan></text>
              
            
            <g style="clip-path:inset(1px 1px 0px 0.5px)">
              <rect x="1776" y="377" width="23" height="635.5" style="fill:#e6e6e6;stroke:#bcbcbc;stroke-width:2px"/>
              <rect x="1776.5" y="377.5" width="22" height="22" style="fill:url(#bsf);stroke:#ababab" rx="0"/>
              
                
                <g transform="matrix(0.22,0,0,-0.22,1780.3,395.5)">
                  <use href="#aql" style="fill:#5c5c5c"/>
                </g>
              
              <rect x="1776.5" y="990" width="22" height="22" style="fill:url(#bsf);stroke:#ababab" rx="0"/>
              
                
                <g transform="matrix(0.22,0,0,0.22,1780.3,995)">
                  <use href="#aql" style="fill:#5c5c5c"/>
                </g>
              
              <rect x="1776.5" y="532" width="22" height="70" rx="0" style="fill:url(#bsf);fill-opacity:0.8;stroke:#ababab;stroke-opacity:0.6"/>
            </g>
            <g style="clip-path:inset(0.5px 1px 1px)">
              <rect x="469" y="1011.7" width="1308" height="23" style="fill:#e6e6e6;stroke:#bcbcbc;stroke-width:2px"/>
              <rect x="469.5" y="1012.2" width="22" height="22" style="fill:url(#brf);stroke:#ababab" rx="0"/>
              
                
                <g transform="matrix(0,0.22,-0.22,0,486.5,1016)">
                  <use href="#aql" style="fill:#5c5c5c"/>
                </g>
              
              <rect x="1754.5" y="1012.2" width="22" height="22" style="fill:url(#brf);stroke:#ababab" rx="0"/>
              
                
                <g transform="matrix(0,0.22,0.22,0,1759.5,1016)">
                  <use href="#aql" style="fill:#5c5c5c"/>
                </g>
              
              <rect x="492" y="1012.2" width="900" height="22" rx="0" style="fill:url(#brf);fill-opacity:0.8;stroke:#ababab;stroke-opacity:0.6"/>
            </g>
            <rect x="1776" y="1011.5" width="24" height="24" style="fill:#e6e6e6;stroke:#bcbcbc;stroke-width:2px;clip-path:inset(0px 1px 1px 0px)"/>
          
          
            <rect x="469" y="1034" width="1329" height="50" style="fill:#fafafa"/>
            
              <rect x="477" y="1040" width="123" height="34" rx="3" style="fill:url(#brf);stroke:#ababab;stroke-width:1px;filter:none"/>
              <text x="474" y="1042" dx="12" dy="22" style="font-size:20px;fill:#000">Name</text>
              
                <rect x="588.5" y="1045" width="1329" height="50" rx="8" style="fill:none;stroke:none;stroke-opacity:0.06;stroke-width:2px"/>
                
                  
                  
                  <g style="fill:#676767" transform="matrix(0.23,0,0,0.23,581,1049)">
                    <use href="#aql"/>
                  </g>
                
              
            
            
              <rect x="607" y="1040" width="308" height="34" rx="3" style="fill:#fff;stroke:#ababab;stroke-width:1px;clip-path:none"/>
              <text x="608" y="1041" dx="4" dy="23" style="font-size:19px;fill:#000">Nasa</text>
            
            
              <rect x="927" y="1040" width="82" height="33" rx="4" style="fill:#ececec"/>
              <text x="927" y="1041" dx="40" dy="23" text-anchor="middle" style="font-size:19.5px;fill:#000;fill-opacity:0.89">Find</text>
            
            
              <rect x="1018" y="1040" width="166" height="33" rx="4" style="fill:#ececec"/>
              <text x="1018" y="1041" dx="83" dy="23" text-anchor="middle" style="font-size:19.5px;fill:#000;fill-opacity:0.89">Find Previous</text>
            
            
              <rect x="1193" y="1040" width="110" height="33" rx="4" style="fill:#ececec"/>
              <text x="1193" y="1041" dx="55" dy="23" text-anchor="middle" style="font-size:19.5px;fill:#000;fill-opacity:0.89">Find All</text>
            
            
              <rect x="1333" y="1041" width="126" height="31" rx="4" style="fill:#68c5ff;stroke:#d1d2d2;stroke-width:1px"/>
              <text x="1333" y="1042" dx="62" dy="22" text-anchor="middle" style="font-size:19.5px;fill:#fff;fill-opacity:0.9">Highlight</text>
            
            <g transform="matrix(0.23,0,0,0.23,1767,1052)">
              <use href="#cce" style="fill:#666"/>
            </g>
          
          
            <rect x="469" y="1084" width="1329" height="65" style="fill:#fff"/>
            <rect x="467" y="1083" width="1333" height="65" style="fill:none;stroke:#e9eaea;stroke-width:2px;clip-path:inset(0px 2px 2px)"/>
            
              
                <g transform="matrix(0.26,0,0,0.26,488,1106.5)">
                  <use href="#aad" style="fill:#545454"/>
                </g>
                <text x="483" y="1090.5" dx="28" dy="33" style="font-weight:bold;font-size:20.5px;fill:#000">Channel</text>
              
              
                <g transform="matrix(0.26,0,0,0.26,613,1106.5)">
                  <use href="#aad" style="fill:#545454"/>
                </g>
                <text x="609" y="1090.5" dx="28" dy="33" style="font-weight:bold;font-size:20.5px;fill:#000">Stream</text>
              
              
                <g transform="matrix(0.26,0,0,0.26,728,1106.5)">
                  <use href="#aad" style="fill:#545454"/>
                </g>
                <text x="724" y="1090.5" dx="28" dy="33" style="font-weight:bold;font-size:20.5px;fill:#000">Marker</text>
              
              <g style="opacity:0.25">
                <g transform="matrix(0.26,0,0,0.26,841,1106.5)">
                  <use href="#aad" style="fill:#545454"/>
                </g>
                <text x="836" y="1090.5" dx="28" dy="33" style="font-weight:bold;font-size:20.5px;fill:#000">Service</text>
              </g>
              
                <rect x="967" y="1099" width="135" height="34" rx="3" style="fill:url(#brf);stroke:#ababab;stroke-width:1px;filter:none"/>
                <text x="967" y="1100.5" dx="22" dy="22" style="font-size:20px;fill:#000">Reference</text>
              
              
                <rect x="1115" y="1104" width="4" height="24" style="fill:#fff;stroke:#dfdfdf;stroke-width:2px;clip-path:inset(2px 2px 2px 0.5px)"/>
              
              <g style="opacity:0.25">
                <rect x="1129" y="1099" width="147" height="34" rx="3" style="fill:url(#brf);stroke:#ababab;stroke-width:1px;filter:none"/>
                <text x="1129" y="1100.5" dx="25" dy="22" style="font-size:20px;fill:#000">Drag&amp;Drop</text>
              </g>
              
                <rect x="1685" y="1099" width="100" height="34" rx="3" style="fill:url(#brf);stroke:#ababab;stroke-width:1px;filter:none"/>
                <g transform="matrix(0.38,0,0,0.38,1687,1103)">
                  <use href="#slh" style="fill:#545454" x="15"/>
                </g>
                <text x="1675" y="1101.5" dx="46" dy="22" style="font-size:20px;fill:#000">Find<tspan style="font-size:15px">…</tspan></text>
              
            
          
        
        <rect x="80" y="328" width="1720" height="822" style="fill:none;stroke:#d5d6d6;stroke-width:1.5px;clip-path:inset(0px 2px)"/>
      
    
    
      <rect x="82" y="1169" width="1716" height="51" rx="0" style="fill:#efefef;clip-path:inset(15px 0px 0px)"/>
      <rect x="80" y="1184" width="1720" height="37" style="fill:none;stroke:#e4e4e4;stroke-width:2px;clip-path:inset(0px 2px 2px)"/>
      <text x="76" y="1181" dx="29" dy="29" style="font-size:19.5px;fill:#000"><tspan>Channels: 136</tspan> <tspan dx="10">Bouquet: userbouquet.dbe01.tv</tspan></text>
      
      
      <text x="129" y="1181" dx="1212" dy="29" style="font-size:19.5px;fill:#000"><tspan>TV: 1127</tspan> <tspan dx="10">Radio: 279</tspan> <tspan dx="10">Data: 150</tspan> <tspan dx="10">Total: 1556</tspan></text>
      
      
      
        
        <g transform="matrix(0.38,0,0,0.38,1751,1191)">
          <use href="#fgo" style="fill:#5c5c5c"/>
        </g>
      
      
        
      
    
    <rect x="81" y="81" width="1718" height="1140" rx="0" style="fill:none;stroke:#9bb1ab;stroke-width:1px"/>
    
  </g>

</svg>
