<svg xmlns="http://www.w3.org/2000/svg" xmlns:xlink="http://www.w3.org/1999/xlink" viewBox="0 0 1880 1300" style="pointer-events:none;user-select:none;text-rendering:geometricprecision">

  <defs>
    <symbol id="aad">
      <path d="M37.75 37.75h18.127v-11.5h-18.127c0 0 0-18.127 0-18.127h-11.5v18.127c0 0-18.127 0-18.127 0v11.5h18.127c0 0 0 18.127 0 18.127h11.5v-18.127z"/>
    </symbol>
    <symbol id="cbw">
      <path d="M60 14.973l-3-0.522v35.716c-3.141-0.28-8.021-0.667-11-0.667-0.95 0-2.094 0.039-3.312 0.102-0.962 0.036-2.014 0.106-3.059 0.191-2.678 0.191-5.264 0.428-6.629 0.559v-35.901c0 0 6.61-1.451 9.963-1.451 4 0 14.037 1.451 14.037 1.451l3.001 0.522c1.769 0.819 2.999 2.61 2.999 4.687v32.68c0 2.848-2.312 5.16-5.16 5.16h-51.68c-2.848 0-5.16-2.312-5.16-5.16v-32.68c0-2.077 1.23-3.869 3-4.687l3-0.522c0 0 10.037-1.451 14.037-1.451 3.353 0 9.963 1.451 9.963 1.451v35.901c-1.366-0.131-3.951-0.368-6.629-0.559-1.045-0.085-2.097-0.155-3.059-0.191-1.218-0.063-2.362-0.102-3.312-0.102-2.979 0-7.859 0.387-11 0.667v-35.716l-3 0.522v38.765h56v-38.765zM28.5 42.5c0-1.104-0.896-2-2-2h-14c-1.104 0-2 0.896-2 2s0.896 2 2 2h14c1.104 0 2-0.896 2-2zM53.5 42.5c0-1.104-0.896-2-2-2h-14c-1.104 0-2 0.896-2 2s0.896 2 2 2h14c1.104 0 2-0.896 2-2zM28.5 35.5c0-1.104-0.896-2-2-2h-14c-1.104 0-2 0.896-2 2s0.896 2 2 2h14c1.104 0 2-0.896 2-2zM53.5 35.5c0-1.104-0.896-2-2-2h-14c-1.104 0-2 0.896-2 2s0.896 2 2 2h14c1.104 0 2-0.896 2-2zM28.5 28.5c0-1.104-0.896-2-2-2h-14c-1.104 0-2 0.896-2 2s0.896 2 2 2h14c1.104 0 2-0.896 2-2zM53.5 28.5c0-1.104-0.896-2-2-2h-14c-1.104 0-2 0.896-2 2s0.896 2 2 2h14c1.104 0 2-0.896 2-2zM28.5 21.5c0-1.104-0.896-2-2-2h-14c-1.104 0-2 0.896-2 2s0.896 2 2 2h14c1.104 0 2-0.896 2-2zM53.5 21.5c0-1.104-0.896-2-2-2h-14c-1.104 0-2 0.896-2 2s0.896 2 2 2h14c1.104 0 2-0.896 2-2z"/>
    </symbol>
    <symbol id="cce">
      <path d="M62.328 7.276l-5.604-5.604-24.724 24.724c0 0-24.724-24.724-24.724-24.724l-5.604 5.604 24.724 24.724c0 0-24.724 24.724-24.724 24.724l5.604 5.604 24.724-24.724c0 0 24.724 24.724 24.724 24.724l5.604-5.604-24.724-24.724c0 0 24.724-24.724 24.724-24.724z"/>
    </symbol>
    
    
    
    <symbol id="fdt">
      <path d="M56.256 31.057h-42.438c-7.074 0-12.818 5.744-12.818 12.818v61.295c0 7.074 5.744 12.818 12.818 12.818h54.476c7.075 0 12.818-5.744 12.818-12.818v-51.051c-16.616 14.040-16.649 30.281-17.025 36.965-0.151 2.687-1.869 5.034-4.385 5.99s-5.359 0.343-7.257-1.565c-14.421-14.502-16.181-43.133 3.811-64.452zM57.293 90.694c-14.624-14.705-13.039-45.988 15.234-64.344l-10.365-12.362 42.838 1.084-7.263 41.344-11.808-14.082c-28.127 16.992-28.15 39.728-28.636 48.36z"/>
    </symbol>
    <symbol id="fet">
      <path d="M87.8 55.714h8.488c5.912 0 10.712 4.753 10.712 10.606v45.074c0 5.854-4.8 10.606-10.712 10.606h-84.576c-5.912 0-10.712-4.752-10.712-10.606v-45.074c0-5.853 4.8-10.606 10.712-10.606h19.788l22.5 21.827c1.413 1.374 4.32 2.133 6.3 2.109 1.98-0.023 4.821-0.828 6.2-2.236l21.3-21.7zM93.982 6.385c-17.881-3.082-49.582 12.531-44.921 39.525h-15.517l27.127 26.376 25.847-26.376h-14.41c-4.833-24.162 15.844-35.121 21.874-39.525z"/>
    </symbol>
    <symbol id="ffo">
      <path d="M32 62.5c-16.833 0-30.5-13.667-30.5-30.5s13.667-30.5 30.5-30.5v9.611c-0.352-0.073-0.717-0.111-1.090-0.111-2.99 0-5.42 2.43-5.42 5.41 0 2.99 2.43 5.42 5.42 5.42 0.373 0 0.738-0.038 1.090-0.111v5.111l-7.44 0.18 2.82 1.23v22.7l-2.82 2.060h7.44v9.5zM32 11.111v-9.611c16.833 0 30.5 13.667 30.5 30.5s-13.667 30.5-30.5 30.5v-9.5h9.46l-5.76-2.060v-24.2l-3.7 0.090v-5.111c2.46-0.506 4.32-2.693 4.32-5.309 0-2.607-1.86-4.793-4.32-5.299z"/>
    </symbol>
    <symbol id="fgn">
      <path d="M21 42.973h89.077c2.783 0 4.643 2.26 4.153 5.042l-9.34 52.943c-0.491 2.783-3.149 5.042-5.932 5.042h-91.118c-2.119 0-3.84-1.721-3.84-3.84v-80.16h67.2l16.8 14h-72v32h5v-25.027z"/>
    </symbol>
    <symbol id="fhe">
      <path d="M114 22v86.16c0 2.119-1.721 3.84-3.84 3.84h-92.32c-2.119 0-3.84-1.721-3.84-3.84v-88.32c0-2.119 1.721-3.84 3.84-3.84h91.16l5 6zM94 59.014v-40h-56v40h56zM84.5 26v30h-15v-30h15z"/>
    </symbol>
    <symbol id="liu">
      <path d="M56.25 57.423c0-2.388-1.939-4.327-4.327-4.327h-39.846c-2.388 0-4.327 1.939-4.327 4.327s1.939 4.327 4.327 4.327c0 0 39.846 0 39.846 0 2.388 0 4.327-1.939 4.327-4.327zM56.25 44.903c0-2.389-1.939-4.328-4.327-4.328h-39.846c-2.388 0-4.327 1.939-4.327 4.328 0 2.388 1.939 4.327 4.327 4.327 0 0 39.846 0 39.846 0 2.388 0 4.327-1.939 4.327-4.327zM56.25 32.382c0-2.388-1.939-4.327-4.327-4.327h-39.846c-2.388 0-4.327 1.939-4.327 4.327s1.939 4.327 4.327 4.327h39.846c2.388 0 4.327-1.939 4.327-4.327zM13.803 19.471v3.446h10.579v-5.844c0.837-0.373 1.624-0.848 2.343-1.41 2.237-1.745 3.347-4.068 3.371-6.392s-1.039-4.671-3.239-6.471v0c-0.887-0.725-1.951-1.273-3.024-1.702l-1.372 0.918-0.062 6.154c-0.003 0.286-0.167 0.503-0.402 0.659-0.376 0.249-0.899 0.364-1.472 0.364h-2.85c-0.565-0.008-1.082-0.142-1.452-0.406-0.242-0.173-0.413-0.406-0.41-0.702 0 0 0.062-6.155 0.062-6.155l-1.348-0.947c-1.083 0.403-2.158 0.924-3.060 1.628-2.237 1.746-3.347 4.068-3.371 6.392-0.023 2.323 1.039 4.671 3.239 6.471 0.725 0.593 1.567 1.067 2.437 1.454 0.016 0.617 0.026 1.607 0.031 2.543z"/>
    </symbol>
    <symbol id="pjw">
      <path d="M14.762 29.23h34.49c0 0 13.928 14.478 11.463 15.596-1.067 0.483-6.127-1.117-11.524-3.087v20.261h-34.389v-20.253c-5.389 1.967-10.437 3.562-11.502 3.079-2.465-1.118 11.462-15.596 11.462-15.596zM36.774 11.359h-20.475v13.19h6.364v-10.552h14.111v-2.638zM38.538 16.635h-14.111v7.914h14.111v-7.914zM45.299 10.4v14.149h-4.283v-9.233h-2.478v-4.916h6.761zM36.632 3.482h-18.173v5.276h18.173v-5.276z"/>
    </symbol>
    <symbol id="skh">
      <path d="M40.023 45.152c-3.477 2.591-7.729 4.192-12.407 4.221-10.406 0.066-20.276-8.26-21.806-18.699-1.731-11.814 7.58-24.164 20.12-25.040 0.561-0.039 1.124-0.055 1.686-0.053 10 0.095 19.38 7.75 21.337 17.619 1.156 5.829-0.437 11.92-3.87 16.758l13.82 13.819-5.128 5.128-13.752-13.753zM27.395 14.645c-6.236 0.060-12 5.17-12.677 11.431-0.588 5.436 2.691 11.076 7.773 13.229 6.62 2.806 15.346-1.167 17.352-8.391 2.055-7.404-3.759-16.031-12.032-16.265-0.139-0.003-0.278-0.004-0.416-0.004z"/>
    </symbol>
    
    
    <symbol id="sls">
      <path d="M73.934 15.359c-6.491-1.302-13.177-1.302-19.668 0 0.828 4.128 1.452 8.287 1.871 12.477-4.352 0.948-8.5 2.666-12.249 5.073-2.666-3.259-5.165-6.641-7.499-10.146-5.511 3.67-10.238 8.397-13.908 13.908 3.505 2.334 6.887 4.834 10.146 7.499-2.407 3.749-4.125 7.897-5.073 12.249-4.19-0.419-8.349-1.043-12.477-1.871-1.303 6.491-1.303 13.177 0 19.668 4.128-0.828 8.287-1.452 12.477-1.871 0.948 4.352 2.666 8.501 5.073 12.249-3.259 2.666-6.641 5.165-10.146 7.499 3.67 5.511 8.397 10.238 13.908 13.908 2.334-3.505 4.833-6.887 7.499-10.146 3.749 2.407 7.897 4.125 12.249 5.074-0.419 4.189-1.043 8.348-1.871 12.476 6.491 1.303 13.177 1.303 19.668 0-0.828-4.128-1.452-8.287-1.871-12.476 4.352-0.949 8.5-2.667 12.249-5.074 2.666 3.259 5.165 6.641 7.499 10.146 5.511-3.67 10.238-8.397 13.908-13.908-3.505-2.334-6.887-4.833-10.146-7.499 2.407-3.748 4.125-7.897 5.073-12.249 4.19 0.419 8.349 1.043 12.477 1.871 1.303-6.491 1.303-13.177 0-19.668-4.128 0.828-8.287 1.452-12.477 1.871-0.948-4.352-2.666-8.5-5.073-12.249 3.259-2.665 6.641-5.165 10.146-7.499-3.67-5.511-8.397-10.238-13.908-13.908-2.334 3.505-4.833 6.887-7.499 10.146-3.749-2.407-7.897-4.125-12.249-5.073 0.419-4.19 1.043-8.349 1.871-12.477zM64.1 50.882c7.451 0 13.5 6.049 13.5 13.5s-6.049 13.5-13.5 13.5c-7.451 0-13.5-6.049-13.5-13.5s6.049-13.5 13.5-13.5z"/>
    </symbol>
    <symbol id="tmw">
      <path d="M64 64v-19h-64v19h64zM38.975 58.253l0.001 1.834c0.001 1.076-0.872 1.949-1.947 1.949s-1.949-0.873-1.95-1.949l-0.002-6.41-1.968 1.774c-0.407 0.367-0.947 0.542-1.48 0.524-0.533 0.018-1.073-0.157-1.48-0.524l-1.968-1.774-0.003 6.41c0 1.076-0.874 1.949-1.949 1.949s-1.948-0.873-1.948-1.949l0.002-5.24h-6.669l4.099 3.89c0.751 0.713 0.751 1.869 0.002 2.581-0.75 0.711-1.968 0.71-2.719-0.002l-4.104-3.895-4.104 3.895c-0.751 0.712-1.969 0.713-2.719 0.002-0.75-0.712-0.749-1.868 0.002-2.581l4.104-3.895-4.104-3.895c-0.751-0.712-0.752-1.868-0.002-2.58s1.968-0.711 2.719 0.002l4.104 3.895 4.104-3.895c0.751-0.713 1.969-0.713 2.719-0.002 0.749 0.712 0.749 1.868-0.002 2.58l-4.099 3.89h6.669l0.002-5.24c0-0.024 0.001-0.048 0.002-0.072-0.031-0.488 0.159-0.985 0.571-1.356 0.276-0.249 0.614-0.408 0.97-0.477 0.131-0.028 0.267-0.043 0.406-0.043 0.058 0 0.115 0.002 0.172 0.007 0.454 0.033 0.899 0.206 1.247 0.52l3.976 3.583 3.975-3.583c0.348-0.314 0.793-0.487 1.248-0.52 0.056-0.005 0.114-0.007 0.171-0.007 0.14 0 0.276 0.015 0.407 0.043 0.356 0.069 0.694 0.228 0.97 0.477 0.412 0.371 0.602 0.868 0.571 1.356 0.001 0.024 0.001 0.048 0.001 0.072l0.003 8.646h2.912l0.003-8.83c0-1.076 0.874-1.949 1.949-1.949s1.948 0.873 1.948 1.949l-0.004 8.839 6.372 0.002c0.993 0.001 1.798 0.807 1.798 1.799 0 0.993-0.805 1.798-1.798 1.798l-8.471-0.003c-0.992 0-1.798-0.806-1.798-1.799l0.001-1.796h-2.912zM25.286 39.498c-0.095 0.001-0.19 0.002-0.286 0.002-10.072 0-18.25-8.402-18.25-18.75s8.178-18.75 18.25-18.75c10.072 0 18.25 8.402 18.25 18.75 0 3.307-0.835 6.416-2.301 9.115l11.051-4.023v-3.071c0-0.828 0.672-1.5 1.5-1.5h3c0.828 0 1.5 0.672 1.5 1.5v11c0 0.828-0.672 1.5-1.5 1.5h-3c-0.828 0-1.5-0.672-1.5-1.5v-1.543l-25.926 9.436-0.788-2.166z"/>
    </symbol>

    
    <symbol id="anw">
      <path d="M32 30.114l27.467 29.239v-24.615l-27.467-29.24-27.467 29.24v24.615l27.467-29.239z"/>
    </symbol>
    <symbol id="aow">
      <path d="M32 36.23l-20.23-19.657c-1.255-1.22-3.294-1.22-4.549 0 0 0-1.913 1.859-1.913 1.859-1.269 1.233-1.269 3.235 0 4.468 0 0 26.57 25.818 26.57 25.818l0.122-0.118c0 0 0.12 0.12 0.12 0.12l26.572-25.82c1.269-1.233 1.269-3.235 0-4.468 0 0-2.363-2.297-2.363-2.297-1.007-0.978-2.642-0.978-3.649 0l-20.68 20.095z"/>
    </symbol>
    <symbol id="apl">
      <path d="M32 45.423l26.667-26.846h-53.334l26.667 26.846z"/>
    </symbol>
    

    
    
    
    
    
    

    <linearGradient id="bqf" x1="0" y1="0" x2="0" y2="1">
      <stop offset="0" style="stop-color:#fdfdfd"/>
      <stop offset="1" style="stop-color:#eee"/>
    </linearGradient>
    <linearGradient id="brf" x1="0" y1="0" x2="1" y2="0">
      <stop offset="0" style="stop-color:#fdfdfd"/>
      <stop offset="1" style="stop-color:#eee"/>
    </linearGradient>
    
    
    

    
    

    

    
    

    
    
    


    <marker id="asd" markerWidth="3" markerHeight="3" refX="1.75" refY="1.75" viewBox="0 0 3.5 3.5" orient="auto">
      <polygon points="0.7,3.5 0,1.75 0.7,0 3.5,1.75" style="fill:#0bbbcc"/>
    </marker>

    <symbol id="ptn">
      
        <g transform="matrix(0.75,0,0,0.75,20.3,11.9)">
          <rect x="48.3" y="24.2" width="50" height="32" style="fill:none;stroke:#c0c0c0;stroke-opacity:0.96;stroke-width:2.5px"/>
          
            <rect x="0" y="0" width="2.5" height="56" transform="matrix(0.53,-0.848,0.848,0.53,49,27)" style="fill:#c0c0c0;fill-opacity:0.96"/>
            <rect x="23" y="-42" width="2.5" height="56" transform="matrix(0.53,0.848,-0.848,0.53,49,27)" style="fill:#c0c0c0;fill-opacity:0.96"/>
          
        </g>
        <rect x="2" y="2" width="148" height="78" style="fill:none;stroke:#c4c4c4;stroke-opacity:0.9;stroke-width:3.3px"/>
      
    </symbol>
    <linearGradient id="pug" x1="0" y1="0" x2="0" y2="1">
      <stop offset="0.5" style="stop-color:#f4f4f4"/>
      <stop offset="1" style="stop-color:#e2e2e2"/>
    </linearGradient>
    
    
    
    
    <filter id="ivf" color-interpolation-filters="sRGB">
      <feDropShadow dx="0" dy="1" stdDeviation="2.5" flood-opacity="0.3"/>
    </filter>
  </defs>

  
    <rect x="0" y="0" width="1880" height="1300" style="fill:#b4d0cd"/>
  

  <g style="font-family:'Sans-Serif',system-ui,sans-serif">
    <rect x="501" y="81" width="1298" height="1140" rx="0" style="fill:#f9f9f9;stroke:#acc6c3;stroke-width:1px"/>
    
      <rect x="501" y="81" width="1298" height="48" rx="0" style="fill:#fafafa;stroke:#e8e8e8;stroke-width:2px;clip-path:inset(1px 1px 0px)"/>
      <rect x="501" y="127" width="1298" height="1" style="fill:none;stroke:#cbcdcc;stroke-width:2px;clip-path:inset(0px 1px 1.1px)"/>
      <text x="499" y="83.5" dx="649" dy="28" text-anchor="middle" style="font-family:'Sans-Serif',system-ui,sans-serif;font-weight:bold;font-size:19px;fill:#5a5a5a">e2 SAT Editor</text>
      
      
      
      
        <rect x="1670" y="107" width="10.5" height="1" style="fill:none;stroke:#333;stroke-width:1.1px"/>
        <g transform="matrix(0.9,0,0,0.9,1715,100)">
          <rect x="0" y="0" width="15" height="13" style="fill:none;stroke:#333;stroke-width:3px;clip-path:inset(0px 0px 2px)"/>
          <rect x="1" y="4" width="13" height="7" style="fill:none;stroke:#333;stroke-width:1.7px"/>
        </g>
        
          <g transform="matrix(0.707,0.707,-0.707,0.707,1773,94)">
            <rect x="0" y="7" width="15" height="1" style="fill:none;stroke:#333;stroke-width:1px"/>
            <rect x="7" y="0" width="1" height="15" style="fill:none;stroke:#333;stroke-width:1px"/>
          </g>
        
      
    
    
      <rect x="502" y="129" width="1296" height="36" style="fill:#eee"/>
      <text x="503" y="131" dx="12" dy="24" style="font-size:20px;word-spacing:15px;fill:#000;fill-opacity:0.75">File Edit Find Tools Window Help</text>
      <rect x="501" y="165.5" width="1298" height="1" style="fill:#e2e2e2;stroke:#dcdddd"/>
    
    
      
        <rect x="502" y="167" width="1296" height="67" style="fill:#efefef"/>
        
          <rect x="502" y="167" width="128" height="67" style="fill:#efefef"/>
          
            <rect x="510" y="173" width="112" height="53" rx="3" style="fill:url(#bqf);stroke:#ababab;stroke-width:1px"/>
            <g transform="matrix(0.26,0,0,0.26,516,191)">
              <use href="#aad" style="fill:#4f4f4f"/>
            </g>
            <text x="510" y="173" dx="27" dy="33" style="font-weight:bold;font-size:18px;fill:#000">New Tab</text>
          
        
        
          <rect x="630" y="167" width="1" height="67" style="fill:#d5d6d6"/>
          
            <rect x="631" y="166" width="157" height="69" style="fill:#efefef;stroke:#dfdfdf;stroke-width:2px;clip-path:inset(1px 0px)"/>
            <text x="631" y="165.5" dx="15" dy="41" style="font-size:19px;fill:#000">enigma_db</text>
            
              <g transform="matrix(0.9,0,0,0.9,761,195.5)">
                <rect rx="11" style="fill:#000;fill-opacity:0.33" height="22" width="22" x="-4.5" y="-4.5"/>
                <g transform="matrix(0.17,0,0,0.17,1.2,1.2)">
                  <use href="#cce" style="fill:#fff"/>
                </g>
              </g>
            
          
          
            <rect x="788" y="166" width="292" height="69" style="fill:#308cc6;stroke:#308cc6;stroke-width:2px;clip-path:inset(1px 0px)"/>
            <g transform="matrix(0.38,0,0,0.38,800,186)">
              <use href="#pjw" style="fill:#000"/>
            </g>
            <text x="788" y="165.5" dx="46" dy="41" style="font-size:19px;fill:#fff">enigma_db - Picons <tspan style="font-size:15px">…</tspan></text>
            
              <g transform="matrix(0.9,0,0,0.9,1054,195.5)">
                <rect rx="11" style="fill:#000;fill-opacity:0.33" height="22" width="22" x="-4.5" y="-4.5"/>
                <g transform="matrix(0.17,0,0,0.17,1.2,1.2)">
                  <use href="#cce" style="fill:#fff"/>
                </g>
              </g>
            
          
          
            <rect x="1080" y="166" width="154" height="69" style="fill:#efefef;stroke:#dfdfdf;stroke-width:2px;clip-path:inset(1px 0px)"/>
            <text x="1080" y="165.5" dx="15" dy="41" style="font-size:19px;fill:#000">neutrino</text>
            
              <g transform="matrix(0.9,0,0,0.9,1208,195.5)">
                <rect rx="11" style="fill:#000;fill-opacity:0.33" height="22" width="22" x="-4.5" y="-4.5"/>
                <g transform="matrix(0.17,0,0,0.17,1.2,1.2)">
                  <use href="#cce" style="fill:#fff"/>
                </g>
              </g>
            
          
          
            <rect x="1234" y="166" width="292" height="69" style="fill:#efefef;stroke:#dfdfdf;stroke-width:2px;clip-path:inset(1px 0px)"/>
            <g transform="matrix(0.38,0,0,0.38,1246,186)">
              <use href="#tmw" style="fill:#000"/>
            </g>
            <text x="1234" y="165.5" dx="46" dy="41" style="font-size:19px;fill:#000">enigma_db - Edit Set<tspan style="font-size:15px">…</tspan></text>
            
              <g transform="matrix(0.9,0,0,0.9,1501,195.5)">
                <rect rx="11" style="fill:#000;fill-opacity:0.33" height="22" width="22" x="-4.5" y="-4.5"/>
                <g transform="matrix(0.17,0,0,0.17,1.2,1.2)">
                  <use href="#cce" style="fill:#fff"/>
                </g>
              </g>
            
          
          
            <rect x="1526" y="166" width="256" height="69" style="fill:#efefef;stroke:#dfdfdf;stroke-width:2px;clip-path:inset(1px 0px)"/>
            <g transform="matrix(0.38,0,0,0.38,1539,186)">
              <use href="#cbw" style="fill:#000"/>
            </g>
            <text x="1526" y="165.5" dx="46" dy="41" style="font-size:19px;fill:#000">enigma_db - Cha<tspan style="font-size:15px">…</tspan></text>
          
          <rect x="1781" y="167" width="2" height="67" style="fill:#dfdfdf"/>
        
        
          
            <rect x="1750" y="167.5" width="23" height="66" style="fill:#efefef;stroke:#dfdfdf;stroke-width:1.5px"/>
            
              <g transform="matrix(0,0.3,-0.3,0,1773.2,192)" style="opacity:0.25">
                <use href="#aow" style="stroke:#000;stroke-width:2.7px"/>
              </g>
            
          
          
            <rect x="1774" y="167.5" width="23" height="66" style="fill:#efefef;stroke:#dfdfdf;stroke-width:1.5px"/>
            
              <g transform="matrix(0,-0.3,0.3,0,1776.1,211.1)">
                <use href="#aow" style="stroke:#000;stroke-width:2.7px"/>
              </g>
            
          
        
      
      
        <rect x="502" y="234" width="1296" height="95" style="fill:#f9f9f9"/>
        
          
            <g transform="matrix(0.38,0,0,0.38,526,257)">
              <use href="#fgn" style="fill:#5c5c5c"/>
            </g>
            <text x="508.5" y="232" dx="69" dy="59" style="font-size:25.5px;fill:#000">Open</text>
          
          
            <g transform="matrix(0.38,0,0,0.38,671,257)">
              <use href="#fhe" style="fill:#5c5c5c"/>
            </g>
            <text x="654.5" y="232" dx="69" dy="59" style="font-size:25.5px;fill:#000">Save</text>
          
          
            <rect x="808" y="262" width="4" height="44" style="fill:#fff;stroke:#dfdfdf;stroke-width:2px;clip-path:inset(2px 2px 2px 0.5px)"/>
          
          
            <g transform="matrix(0.38,0,0,0.38,820,257)">
              <use href="#fet" style="fill:#5c5c5c"/>
            </g>
            <text x="802.5" y="232" dx="69" dy="59" style="font-size:25.5px;fill:#000">Import</text>
          
          
            <g transform="matrix(0.38,0,0,0.38,980,257)">
              <use href="#fdt" style="fill:#5c5c5c"/>
            </g>
            <text x="960.5" y="232" dx="69" dy="59" style="font-size:25.5px;fill:#000">Export</text>
          
          
            <rect x="1134" y="262" width="4" height="44" style="fill:#fff;stroke:#dfdfdf;stroke-width:2px;clip-path:inset(2px 2px 2px 0.5px)"/>
          
          
            <g transform="matrix(0.38,0,0,0.38,1145,257)">
              <use href="#sls" style="fill:#5c5c5c"/>
            </g>
            <text x="1128.5" y="232" dx="69" dy="59" style="font-size:25.5px;fill:#000">Settings</text>
          
          
            
              <rect x="1520" y="264" width="100" height="34" rx="3" style="fill:url(#bqf);stroke:#ababab;stroke-width:1px;filter:none"/>
              
                <rect x="1612.5" y="269" width="24" height="24" rx="8" style="fill:none;stroke:none;stroke-opacity:0.06;stroke-width:2px"/>
                
                  
                  
                  <g style="fill:#676767" transform="matrix(0.23,0,0,0.23,1600,273)">
                    <use href="#apl"/>
                  </g>
                
              
              <text x="1515" y="266" dx="12" dy="22" style="font-size:20px;fill:#000">Default</text>
            
          
          
            <text x="1625.5" y="232" dx="15" dy="59" style="font-size:25.5px;fill:#000">Connect</text>
          
        
        
          <g transform="matrix(0.9,0,0,0.95,1770,276)">
            
              <use href="#anw" transform="matrix(0,0.23,-0.23,0,0,0)" style="fill:#646464"/>
            
            
              <use href="#anw" transform="matrix(0,0.23,-0.23,0,9.4,0)" style="fill:#646464"/>
            
          </g>
        
        <rect x="500" y="234" width="1300" height="95" style="fill:none;stroke:#d1d2d2;stroke-width:2px;clip-path:inset(0px 2px)"/>
      
      
        <rect x="502" y="328" width="1296" height="820" style="fill:#efefef"/>
        
          
            
            <text x="502" y="328" dx="10" dy="32" style="font-weight:bold;font-size:19px;fill:#000">Picons</text>
            
              
                <rect x="1755" y="335" width="38" height="32" rx="3" style="fill:url(#bqf);stroke:#ababab"/>
                <g transform="matrix(0.38,0,0,0.38,1762,338)">
                  <use href="#liu" style="fill:#505050"/>
                </g>
              
            
          
          
            
              <rect x="502" y="380" width="1296" height="687" style="fill:#fff"/>
              
                
                  <rect x="526" y="405" width="220" height="171" rx="16" style="fill:none;stroke:#eee;stroke-width:11px;stroke-dasharray:15px,0px,48px,16px"/>
                  <rect x="570" y="433" width="130" height="75" rx="6" style="fill:url(#pug);stroke:#aaabbb;stroke-width:1.7px"/>
                  <g transform="matrix(0.34,0,0,0.34,588,456)">
                    <rect x="0" y="0" width="273" height="88" style="fill:#f5b4e4"/>
                    <rect x="188" y="0" width="85" height="88" style="fill:#ff9689"/>
                    <g style="font-family:Arial,Helvetica,sans-serif;font-weight:bold">
                      <text x="18" y="0" dy="73" style="font-size:80px;letter-spacing:2px" transform="matrix(1.1,0,0,1,0,0)">NTI</text>
                      <text x="185" y="0" dy="81" style="font-size:88px" transform="matrix(1.2,0,0,0.9,-22,0)">1</text>
                    </g>
                  </g>
                  <text x="526" y="527" dx="106" dy="18" text-anchor="middle" style="font-size:18px">NTI 1</text>
                
                
                  <rect x="792" y="405" width="220" height="171" rx="16" style="fill:none;stroke:#eee;stroke-width:11px;stroke-dasharray:15px,0px,48px,16px"/>
                  <rect x="837" y="433" width="130" height="75" rx="6" style="fill:url(#pug);stroke:#aaabbb;stroke-width:1.7px"/>
                  <g transform="matrix(0.34,0,0,0.34,856,456)">
                    <rect x="0" y="0" width="273" height="88" style="fill:#f5b4e4"/>
                    <rect x="188" y="0" width="85" height="88" style="fill:#ff9689"/>
                    <g style="font-family:Arial,Helvetica,sans-serif;font-weight:bold">
                      <text x="18" y="0" dy="73" style="font-size:80px;letter-spacing:2px" transform="matrix(1.1,0,0,1,0,0)">NTI</text>
                      <text x="185" y="0" dy="81" style="font-size:102px;stroke:#000;stroke-width:2px" transform="matrix(0.95,0,0,0.75,26,10)">2</text>
                    </g>
                  </g>
                  <text x="792" y="527" dx="108" dy="18" text-anchor="middle" style="font-size:18px">NTI 2</text>
                
                
                  <rect x="1058" y="405" width="220" height="171" rx="16" style="fill:none;stroke:#eee;stroke-width:11px;stroke-dasharray:15px,0px,48px,16px"/>
                  <rect x="1103" y="433" width="130" height="75" rx="6" style="fill:url(#pug);stroke:#aaabbb;stroke-width:1.7px"/>
                  <g transform="matrix(0.32,0,0,0.32,1111,454)">
                    <rect x="256" y="21" width="93" height="65" style="fill:#cb0000"/>
                    <text x="10" y="0" dy="78" style="font-family:cursive,serif;font-size:96px;fill:#cb0000">image</text>
                    <text x="262" y="0" dy="78" style="font-family:Arial,Helvetica,sans-serif;font-weight:bold;font-size:50px;fill:#eee">4K</text>
                  </g>
                  <text x="1058" y="527" dx="108" dy="18" text-anchor="middle" style="font-size:18px">Image 4K</text>
                
                
                  <rect x="1324" y="405" width="220" height="171" rx="16" style="fill:none;stroke:#eee;stroke-width:11px;stroke-dasharray:15px,0px,48px,16px"/>
                  <rect x="1369" y="433" width="130" height="75" rx="6" style="fill:url(#pug);stroke:#aaabbb;stroke-width:1.7px"/>
                  <g transform="matrix(0.23,0,0,0.23,1401,449)">
                    <rect x="50" y="4" width="180" height="180" style="fill:#881"/>
                    <rect x="2" y="28" width="274" height="134" style="fill:#881"/>
                    <text x="50" y="38" dy="80" style="font-family:'Times New Roman',Times,sans-serif;font-weight:bold;font-size:122px;letter-spacing:-4px;fill:#fff;stroke:#fff;stroke-width:4px" transform="matrix(1.3,0,0,1.2,0,0)">22</text>
                  </g>
                  <text x="1324" y="527" dx="109" dy="18" text-anchor="middle" style="font-size:18px">VIDEO 22</text>
                

                
                  <rect x="525" y="579" width="223" height="174" rx="20" style="fill:#308cc6" transform="matrix(1,0,0,0.996,0,35.1)"/>
                  <rect x="526" y="614" width="220" height="171" rx="16" style="fill:none;stroke:#eee;stroke-width:11px;stroke-dasharray:15px,0px,48px,16px"/>
                  <g transform="matrix(0.9,0,0,0.9,566.5,642)">
                    <use href="#ptn"/>
                  </g>
                  <text x="526" y="735" dx="106" dy="18" text-anchor="middle" style="font-size:18px;fill:#fff">7 Channel</text>
                
                
                  <rect x="792" y="614" width="220" height="171" rx="16" style="fill:none;stroke:#eee;stroke-width:11px;stroke-dasharray:15px,0px,48px,16px"/>
                  
                  <rect x="837" y="643" width="130" height="75" rx="6" style="fill:url(#pug);stroke:#aaabbb;stroke-width:1.7px"/>
                  <g transform="matrix(0.13,0,0,0.13,849,665)">
                    <ellipse cx="186" cy="116" rx="178" ry="118" style="fill:#64d8b1"/>
                    <g style="font-family:Arial,Helvetica,sans-serif">
                      <text x="42" y="0" dy="140" style="font-weight:bold;font-size:102px;letter-spacing:-1px;stroke:#000;stroke-width:4px;font-style:italic" transform="matrix(1,0,0,1.2,0,0)">RIBA</text>
                      <text x="389" y="0" dy="142" style="font-size:100px;stroke:#000;stroke-width:5px" transform="matrix(1,0,0,1.2,0,0)">SPORTS</text>
                    </g>
                  </g>
                  <text x="792" y="735" dx="110" dy="18" text-anchor="middle" style="font-size:18px;fill:#000">RIBA Sports</text>
                
                
                  <rect x="1058" y="614" width="220" height="171" rx="16" style="fill:none;stroke:#eee;stroke-width:11px;stroke-dasharray:15px,0px,48px,16px"/>
                  <rect x="1103" y="643" width="130" height="75" rx="6" style="fill:url(#pug);stroke:#aaabbb;stroke-width:1.7px"/>
                  <g transform="matrix(0.13,0,0,0.13,1109,665)">
                    <ellipse cx="186" cy="116" rx="178" ry="118" style="fill:#64d8b1"/>
                    <g style="font-family:Arial,Helvetica,sans-serif">
                      <text x="42" y="0" dy="140" style="font-weight:bold;font-size:102px;letter-spacing:-1px;stroke:#000;stroke-width:4px;font-style:italic" transform="matrix(1,0,0,1.2,0,0)">RIBA</text>
                      <text x="389" y="0" dy="142" style="font-size:100px;stroke:#000;stroke-width:5px" transform="matrix(1,0,0,1.2,0,0)">PREMIERE</text>
                    </g>
                  </g>
                  <text x="1058" y="735" dx="107" dy="18" text-anchor="middle" style="font-size:18px">RIBA Premiere</text>
                
                
                  <rect x="1324" y="614" width="220" height="171" rx="16" style="fill:none;stroke:#eee;stroke-width:11px;stroke-dasharray:15px,0px,48px,16px"/>
                  <rect x="1369" y="643" width="130" height="75" rx="6" style="fill:url(#pug);stroke:#aaabbb;stroke-width:1.7px"/>
                  <g transform="matrix(0.21,0,0,0.21,1385,668)">
                    <rect x="0" y="0" width="462" height="120" rx="48" style="fill:#771"/>
                    <g style="font-family:Arial,Helvetica,sans-serif;font-size:96px">
                      <text x="32" y="0" dy="96" style="fill:#fff;stroke:#fff;stroke-width:6px" transform="matrix(0.9,0,0,1,0,0)">SERIAL</text>
                      <text x="412" y="0" dy="96" style="letter-spacing:8px;fill:#fff;stroke:#fff;stroke-width:6px" transform="matrix(0.8,0,0,1,0,-0.9)">TV</text>
                    </g>
                  </g>
                  <text x="1324" y="735" dx="106" dy="18" text-anchor="middle" style="font-size:18px">Serial TV</text>
                

                
                  <rect x="526" y="822" width="220" height="171" rx="16" style="fill:none;stroke:#eee;stroke-width:11px;stroke-dasharray:15px,0px,48px,16px"/>
                  <rect x="570" y="852" width="130" height="75" rx="6" style="fill:url(#pug);stroke:#aaabbb;stroke-width:1.7px"/>
                  <g transform="matrix(0.31,0,0,0.31,592,871)">
                    <rect x="0" y="0" width="275" height="102" rx="24" style="fill:#fff"/>
                    <rect x="0" y="0" width="106" height="102" rx="24" style="fill:#7ec6d6"/>
                    <text x="16" y="0" dy="102" style="font-family:'Times New Roman',Times,sans-serif;font-weight:bold;font-size:150px;fill:#333">Q</text>
                    <text x="224" y="0" dy="84" style="font-family:Arial,Helvetica,sans-serif;font-weight:bold;font-size:72px;letter-spacing:1px;fill:#4f4f4f" transform="matrix(0.6,0,0,1,0,0)">NEWS</text>
                  </g>
                  <text x="526" y="945" dx="106" dy="18" text-anchor="middle" style="font-size:18px">Q NEWS</text>
                
                
                  <rect x="792" y="822" width="220" height="171" rx="16" style="fill:none;stroke:#eee;stroke-width:11px;stroke-dasharray:15px,0px,48px,16px"/>
                  <rect x="837" y="852" width="130" height="75" rx="6" style="fill:url(#pug);stroke:#aaabbb;stroke-width:1.7px"/>
                  <g transform="matrix(0.21,0,0,0.21,846,880)">
                    <rect x="433" y="0" width="96" height="96" style="fill:#099"/>
                    <text x="0" y="0" dy="80" style="font-family:Arial,Helvetica,sans-serif;font-weight:bold;font-size:96px;letter-spacing:-3px;fill:#333">Shopping</text>
                    <text x="433" y="0" dx="8" dy="80" style="font-family:'Times New Roman',Times,sans-serif;font-weight:bold;font-size:99px;fill:#fff;stroke:#fff;stroke-width:5px">G</text>
                  </g>
                  <text x="792" y="945" dx="107" dy="18" text-anchor="middle" style="font-size:18px">Shopping G</text>
                
                
                  <rect x="1058" y="822" width="220" height="171" rx="16" style="fill:none;stroke:#eee;stroke-width:11px;stroke-dasharray:15px,0px,48px,16px"/>
                  <g transform="matrix(0.9,0,0,0.9,1099.5,850)">
                    <use href="#ptn"/>
                  </g>
                  <text x="1058" y="945" dx="107" dy="18" text-anchor="middle" style="font-size:18px">Service 1120</text>
                
                
                  <rect x="1324" y="822" width="220" height="171" rx="16" style="fill:none;stroke:#eee;stroke-width:11px;stroke-dasharray:15px,0px,48px,16px"/>
                  <rect x="1369" y="852" width="130" height="75" rx="6" style="fill:url(#pug);stroke:#aaabbb;stroke-width:1.7px"/>
                  <g transform="matrix(0.2,0,0,0.2,1377,878)">
                    <text x="0" y="0" dy="96" style="font-family:Arial,Helvetica,sans-serif;font-weight:bold;font-size:97px;fill:#600900;stroke-width:1px" transform="matrix(0.76,0,0,1,0,0)">GLOBALFLARE</text>
                  </g>
                  <text x="1324" y="945" dx="109" dy="18" text-anchor="middle" style="font-size:18px">Globalflare HD</text>
                
              
            
            <g style="clip-path:inset(1px 1px 0px 0.5px)">
              <rect x="1776" y="379" width="23" height="656" style="fill:#e6e6e6;stroke:#bcbcbc;stroke-width:2px"/>
              <rect x="1776.5" y="379.5" width="22" height="22" style="fill:url(#brf);stroke:#ababab" rx="0"/>
              
                
                <g transform="matrix(0.22,0,0,-0.22,1780.3,397.5)">
                  <use href="#apl" style="fill:#5c5c5c"/>
                </g>
              
              <rect x="1776.5" y="1012.5" width="22" height="22" style="fill:url(#brf);stroke:#ababab" rx="0"/>
              
                
                <g transform="matrix(0.22,0,0,0.22,1780.3,1017.5)">
                  <use href="#apl" style="fill:#5c5c5c"/>
                </g>
              
              <rect x="1776.5" y="402" width="22" height="44" rx="0" style="fill:url(#brf);fill-opacity:0.8;stroke:#ababab;stroke-opacity:0.6"/>
            </g>
            
             
          
          
            <rect x="502" y="1034" width="1296" height="61" style="fill:#fafafa"/>
            
              <rect x="511" y="1040" width="123" height="34" rx="3" style="fill:url(#bqf);stroke:#ababab;stroke-width:1px;filter:none"/>
              <text x="508" y="1042" dx="12" dy="22" style="font-size:20px;fill:#000">Name</text>
              
                <rect x="621.5" y="1045" width="24" height="24" rx="8" style="fill:none;stroke:none;stroke-opacity:0.06;stroke-width:2px"/>
                
                  
                  
                  <g style="fill:#676767" transform="matrix(0.23,0,0,0.23,614,1049)">
                    <use href="#apl"/>
                  </g>
                
              
            
            
              <rect x="640" y="1040" width="308" height="34" rx="3" style="fill:#fff;stroke:#ababab;stroke-width:1px;clip-path:none"/>
              <text x="641" y="1041" dx="4" dy="23" style="font-size:19px;fill:#000">riba</text>
            
            
              <rect x="960" y="1040" width="82" height="33" rx="4" style="fill:#ececec"/>
              <text x="960" y="1041" dx="40" dy="23" text-anchor="middle" style="font-size:19.5px;fill:#000;fill-opacity:0.89">Find</text>
            
            
              <rect x="1051" y="1040" width="166" height="33" rx="4" style="fill:#ececec"/>
              <text x="1051" y="1041" dx="83" dy="23" text-anchor="middle" style="font-size:19.5px;fill:#000;fill-opacity:0.89">Find Previous</text>
            
            
              <rect x="1226" y="1040" width="110" height="33" rx="4" style="fill:#ececec"/>
              <text x="1226" y="1041" dx="55" dy="23" text-anchor="middle" style="font-size:19.5px;fill:#000;fill-opacity:0.89">Find All</text>
            
            
              <rect x="1366" y="1041" width="126" height="31" rx="4" style="fill:#68c5ff;stroke:#d1d2d2;stroke-width:1px"/>
              <text x="1366" y="1042" dx="62" dy="22" text-anchor="middle" style="font-size:19.5px;fill:#fff;fill-opacity:0.9">Highlight</text>
            
            <g transform="matrix(0.23,0,0,0.23,1767,1052)">
              <use href="#cce" style="fill:#666"/>
            </g>
          
          
            <rect x="502" y="1084" width="1296" height="65" style="fill:#fff"/>
            <rect x="500" y="1083" width="1300" height="65" style="fill:none;stroke:#e9eaea;stroke-width:2px;clip-path:inset(0px 2px 2px)"/>
            
              
                <text x="511" y="1099" dx="4" dy="23" style="font-size:19px;fill:#000">Folder</text>
                <rect x="582" y="1099.5" width="308" height="33" rx="3" style="fill:#fff;stroke:#ababab;stroke-width:1px;clip-path:none"/>
                <rect x="897" y="1099" width="114" height="34" rx="3" style="fill:url(#bqf);stroke:#ababab;stroke-width:1px;filter:none"/>
                <text x="891" y="1101" dx="24" dy="22" style="font-size:20px;fill:#000">Browse<tspan style="font-size:15px">…</tspan></text>
              
              
                <rect x="1685" y="1099" width="100" height="34" rx="3" style="fill:url(#bqf);stroke:#ababab;stroke-width:1px;filter:none"/>
                <g transform="matrix(0.38,0,0,0.38,1687,1103)">
                  <use href="#skh" style="fill:#545454" x="15"/>
                </g>
                <text x="1675" y="1101.5" dx="46" dy="22" style="font-size:20px;fill:#000">Find<tspan style="font-size:15px">…</tspan></text>
              
            
          
        
        <rect x="500" y="328" width="1300" height="822" style="fill:none;stroke:#d5d6d6;stroke-width:1.5px;clip-path:inset(0px 2px)"/>
      
    
    
      <rect x="502" y="1169" width="1296" height="51" rx="0" style="fill:#efefef;clip-path:inset(15px 0px 0px)"/>
      <rect x="500" y="1184" width="1300" height="37" style="fill:none;stroke:#e4e4e4;stroke-width:2px;clip-path:inset(0px 2px 2px)"/>
      <text x="496" y="1181" dx="29" dy="29" style="font-size:19.5px;fill:#000">Filename: ribasports.png</text>
      
      
      
      
        
        <g transform="matrix(0.38,0,0,0.38,1751,1191)">
          <use href="#ffo" style="fill:#5c5c5c"/>
        </g>
      
      
        
      
    
    <rect x="501" y="81" width="1298" height="1140" rx="0" style="fill:none;stroke:#9bb1ab;stroke-width:1px"/>
    
  </g>

  <g style="font-family:'Sans-Serif',system-ui,sans-serif">
    
      <rect x="95.5" y="689" width="260" height="250" rx="17" style="fill:#308cc6;fill-opacity:1;stroke:#fff;stroke-opacity:0.25;stroke-width:1.3px"/>
      
        <g style="clip-path:polygon(-4% -56%,104% 30%,104% 104%,-4% 104%)">
          <g style="filter:none">
            <rect x="159" y="706" width="134" height="167" rx="4.4" style="fill:#f1f0f0;stroke:#000;stroke-opacity:0.25;stroke-width:0.9px"/>
          </g>
        </g>
        <g style="clip-path:polygon(-13% 0%,108% 120%,200% 200%,-200% 200%)">
          <g style="filter:url(#ivf)">
            <rect x="248" y="700" width="50" height="51" rx="4.4" style="fill:#efeeee;stroke-opacity:0.25;stroke-width:0.9px;clip-path:polygon(0px 13%,90% 100%,0px 100%,0px 0px)"/>
          </g>
        </g>
        <rect x="98.5" y="99" width="0.1" height="64" style="fill-opacity:0.2;stroke:#000;stroke-opacity:0.25;stroke-width:0.9px" rx="4.4" transform="matrix(0.707,-0.707,0.707,0.707,108,706)"/>
        
        <text x="156" y="827" dx="67" dy="20" text-anchor="middle" style="font-size:32px;fill:#999"><tspan style="font-size:35.2px">.</tspan>png</text>
      
      <g transform="matrix(0.9,0,0,0.9,174.5,766)">
        <rect x="0" y="0" width="114" height="39" style="fill:#fff"/>
        <g transform="matrix(0.22,0,0,0.22,5,5)">
          <rect x="-4" y="-4" width="483" height="141" style="fill:#0be"/>
          <ellipse cx="67" cy="67" rx="67" ry="67" style="fill:#fff"/>
          <text x="18" y="0" dy="107" style="font-family:Arial,Helvetica,sans-serif;font-size:122px;fill:#00afef;stroke:#00afef;stroke-width:10px" transform="matrix(1.3,0,0,1.2,1,0)">7</text>
          <text x="315" y="0" dy="121" style="font-family:'Times New Roman',Times,sans-serif;font-weight:bold;font-size:144px;letter-spacing:-2px;fill:#fff" transform="matrix(0.45,0,0,1,0,0)">CHANNEL</text>
        </g>
      </g>
      <rect x="167" y="894" width="116" height="33" rx="3" style="fill:#308cc6;stroke:#000;stroke-opacity:0.25"/>
      <text x="109.5" y="898" dx="116" dy="19" text-anchor="middle" style="font-family:'Sans-Serif',system-ui,sans-serif;font-weight:normal;font-size:22px;letter-spacing:0.1px;fill:#fff;text-shadow:none">picon.png</text>
    
    <g transform="matrix(0.8,-0.8,0.5,0.6,-192,686)">
      <g style="fill:none;stroke:#0bbbcc;stroke-width:22px">
        <path d="M290.5 341.28160095214844Q434.5 59.28160095214844 509.5 560.2816009521484" style="marker-end:url(#asd)"/>
      </g>
    </g>
  </g>

</svg>
